<svg width="84" height="72" viewBox="0 0 84 72" fill="none" xmlns="http://www.w3.org/2000/svg">
<path d="M82 71.5H1.5L5 28L29.5 0.5H48.5L78.5 28L82 71.5Z" fill="#FF0000" fill-opacity="0.31"/>
<path d="M18.6038 39V31.3H20.4738V39H18.6038ZM13.8298 39V31.3H15.6998V39H13.8298ZM14.5558 35.997L14.5668 34.325H19.5938V35.997H14.5558ZM24.3711 39.099C23.8797 39.099 23.4397 38.9707 23.0511 38.714C22.6697 38.45 22.3654 38.0907 22.1381 37.636C21.9107 37.174 21.7971 36.6533 21.7971 36.074C21.7971 35.48 21.9107 34.9557 22.1381 34.501C22.3654 34.0463 22.6771 33.6907 23.0731 33.434C23.4691 33.17 23.9201 33.038 24.4261 33.038C24.7047 33.038 24.9577 33.0783 25.1851 33.159C25.4197 33.2397 25.6251 33.3533 25.8011 33.5C25.9771 33.6393 26.1274 33.8043 26.2521 33.995C26.3767 34.1783 26.4684 34.3763 26.5271 34.589L26.1641 34.545V33.159H27.9131V39H26.1311V37.592L26.5271 37.581C26.4684 37.7863 26.3731 37.9807 26.2411 38.164C26.1091 38.3473 25.9477 38.5087 25.7571 38.648C25.5664 38.7873 25.3537 38.8973 25.1191 38.978C24.8844 39.0587 24.6351 39.099 24.3711 39.099ZM24.8551 37.614C25.1264 37.614 25.3611 37.5517 25.5591 37.427C25.7571 37.3023 25.9111 37.1263 26.0211 36.899C26.1311 36.6643 26.1861 36.3893 26.1861 36.074C26.1861 35.7587 26.1311 35.4873 26.0211 35.26C25.9111 35.0253 25.7571 34.8457 25.5591 34.721C25.3611 34.589 25.1264 34.523 24.8551 34.523C24.5911 34.523 24.3601 34.589 24.1621 34.721C23.9714 34.8457 23.8211 35.0253 23.7111 35.26C23.6011 35.4873 23.5461 35.7587 23.5461 36.074C23.5461 36.3893 23.6011 36.6643 23.7111 36.899C23.8211 37.1263 23.9714 37.3023 24.1621 37.427C24.3601 37.5517 24.5911 37.614 24.8551 37.614ZM29.4661 39V33.159H31.1381L31.1931 34.347L30.8411 34.479C30.9217 34.215 31.0647 33.9767 31.2701 33.764C31.4827 33.544 31.7357 33.368 32.0291 33.236C32.3224 33.104 32.6304 33.038 32.9531 33.038C33.3931 33.038 33.7634 33.1297 34.0641 33.313C34.3647 33.489 34.5921 33.7567 34.7461 34.116C34.9001 34.468 34.9771 34.9007 34.9771 35.414V39H33.2061V35.557C33.2061 35.3223 33.1731 35.128 33.1071 34.974C33.0411 34.82 32.9384 34.7063 32.7991 34.633C32.6671 34.5523 32.5021 34.5157 32.3041 34.523C32.1501 34.523 32.0071 34.5487 31.8751 34.6C31.7431 34.644 31.6294 34.7137 31.5341 34.809C31.4387 34.897 31.3617 34.9997 31.3031 35.117C31.2517 35.2343 31.2261 35.3627 31.2261 35.502V39H30.3571C30.1517 39 29.9757 39 29.8291 39C29.6824 39 29.5614 39 29.4661 39ZM38.1425 37.284L37.4935 35.964L40.2215 33.159H42.5425L38.1425 37.284ZM36.4485 39V30.86H38.2085V39H36.4485ZM40.4085 39L38.3515 36.338L39.5945 35.37L42.4875 39H40.4085ZM45.2495 39.11C44.6775 39.11 44.1715 39.0183 43.7315 38.835C43.2988 38.6517 42.9542 38.406 42.6975 38.098L43.7645 37.174C43.9918 37.4013 44.2485 37.57 44.5345 37.68C44.8205 37.7827 45.0918 37.834 45.3485 37.834C45.4512 37.834 45.5428 37.823 45.6235 37.801C45.7042 37.779 45.7702 37.7497 45.8215 37.713C45.8802 37.669 45.9242 37.6213 45.9535 37.57C45.9828 37.5113 45.9975 37.4453 45.9975 37.372C45.9975 37.2253 45.9315 37.1117 45.7995 37.031C45.7335 36.9943 45.6235 36.9503 45.4695 36.899C45.3155 36.8477 45.1175 36.789 44.8755 36.723C44.5308 36.635 44.2302 36.5323 43.9735 36.415C43.7242 36.2903 43.5188 36.1473 43.3575 35.986C43.2108 35.832 43.0972 35.6633 43.0165 35.48C42.9358 35.2893 42.8955 35.0767 42.8955 34.842C42.8955 34.5707 42.9578 34.325 43.0825 34.105C43.2145 33.885 43.3868 33.6943 43.5995 33.533C43.8195 33.3717 44.0688 33.2507 44.3475 33.17C44.6335 33.082 44.9268 33.038 45.2275 33.038C45.5502 33.038 45.8582 33.0747 46.1515 33.148C46.4448 33.2213 46.7162 33.324 46.9655 33.456C47.2222 33.588 47.4495 33.7457 47.6475 33.929L46.7235 34.963C46.5915 34.8383 46.4412 34.7283 46.2725 34.633C46.1112 34.5303 45.9425 34.4497 45.7665 34.391C45.5905 34.3323 45.4292 34.303 45.2825 34.303C45.1725 34.303 45.0735 34.314 44.9855 34.336C44.9048 34.3507 44.8352 34.38 44.7765 34.424C44.7178 34.4607 44.6738 34.5083 44.6445 34.567C44.6152 34.6183 44.6005 34.6807 44.6005 34.754C44.6005 34.8273 44.6188 34.897 44.6555 34.963C44.6995 35.029 44.7582 35.084 44.8315 35.128C44.9048 35.172 45.0222 35.2233 45.1835 35.282C45.3448 35.3333 45.5648 35.3993 45.8435 35.48C46.1882 35.5753 46.4852 35.6817 46.7345 35.799C46.9838 35.9163 47.1818 36.0557 47.3285 36.217C47.4458 36.3417 47.5338 36.4883 47.5925 36.657C47.6512 36.8183 47.6805 36.9943 47.6805 37.185C47.6805 37.559 47.5742 37.8927 47.3615 38.186C47.1562 38.472 46.8702 38.6993 46.5035 38.868C46.1368 39.0293 45.7188 39.11 45.2495 39.11ZM50.5198 39L48.0778 33.159H50.0248L51.4768 37.526L51.0478 37.57L52.5438 33.159H54.4688L51.9058 39H50.5198ZM55.486 39V33.159H57.246V39H55.486ZM56.366 32.004C56.036 32.004 55.7756 31.927 55.585 31.773C55.4016 31.6117 55.31 31.3843 55.31 31.091C55.31 30.827 55.4053 30.6107 55.596 30.442C55.7866 30.2733 56.0433 30.189 56.366 30.189C56.696 30.189 56.9526 30.2697 57.136 30.431C57.3193 30.585 57.411 30.805 57.411 31.091C57.411 31.3623 57.3156 31.5823 57.125 31.751C56.9416 31.9197 56.6886 32.004 56.366 32.004ZM58.9107 39V30.86H60.6707V39H58.9107ZM62.2515 39V30.86H64.0115V39H62.2515ZM68.2569 39.11C67.6115 39.11 67.0505 38.9817 66.5739 38.725C66.0972 38.461 65.7269 38.1053 65.4629 37.658C65.1989 37.2033 65.0669 36.6863 65.0669 36.107C65.0669 35.6597 65.1402 35.249 65.2869 34.875C65.4335 34.501 65.6389 34.1783 65.9029 33.907C66.1669 33.6283 66.4785 33.4157 66.8379 33.269C67.2045 33.115 67.6042 33.038 68.0369 33.038C68.4475 33.038 68.8215 33.1113 69.1589 33.258C69.5035 33.4047 69.8005 33.61 70.0499 33.874C70.2992 34.138 70.4899 34.4497 70.6219 34.809C70.7539 35.1683 70.8125 35.5607 70.7979 35.986L70.7869 36.459H66.1339L65.8809 35.469H69.3569L69.1699 35.678V35.458C69.1552 35.2747 69.0965 35.1133 68.9939 34.974C68.8985 34.8273 68.7702 34.7137 68.6089 34.633C68.4475 34.5523 68.2642 34.512 68.0589 34.512C67.7729 34.512 67.5272 34.5707 67.3219 34.688C67.1239 34.798 66.9735 34.963 66.8709 35.183C66.7682 35.3957 66.7169 35.6597 66.7169 35.975C66.7169 36.2977 66.7829 36.58 66.9149 36.822C67.0542 37.0567 67.2522 37.24 67.5089 37.372C67.7729 37.504 68.0845 37.57 68.4439 37.57C68.6932 37.57 68.9132 37.5333 69.1039 37.46C69.3019 37.3867 69.5145 37.262 69.7419 37.086L70.5669 38.252C70.3395 38.45 70.0975 38.6113 69.8409 38.736C69.5842 38.8607 69.3202 38.9523 69.0489 39.011C68.7849 39.077 68.5209 39.11 68.2569 39.11ZM13.2772 53.11C12.7419 53.11 12.2505 53.0147 11.8032 52.824C11.3559 52.6333 10.9672 52.362 10.6372 52.01C10.3072 51.6507 10.0505 51.229 9.8672 50.745C9.6912 50.261 9.6032 49.7293 9.6032 49.15C9.6032 48.6 9.69853 48.0903 9.8892 47.621C10.0872 47.1443 10.3585 46.7263 10.7032 46.367C11.0479 46.0077 11.4475 45.729 11.9022 45.531C12.3569 45.333 12.8482 45.234 13.3762 45.234C13.7502 45.234 14.1132 45.2927 14.4652 45.41C14.8245 45.52 15.1472 45.6777 15.4332 45.883C15.7265 46.081 15.9649 46.3083 16.1482 46.565L15.3562 47.39C15.1435 47.1773 14.9272 47.0013 14.7072 46.862C14.4945 46.7153 14.2745 46.6053 14.0472 46.532C13.8272 46.4587 13.6035 46.422 13.3762 46.422C13.0169 46.422 12.6795 46.4917 12.3642 46.631C12.0562 46.763 11.7849 46.95 11.5502 47.192C11.3229 47.434 11.1432 47.7237 11.0112 48.061C10.8792 48.391 10.8132 48.754 10.8132 49.15C10.8132 49.568 10.8755 49.9493 11.0002 50.294C11.1322 50.6313 11.3155 50.921 11.5502 51.163C11.7849 51.405 12.0635 51.592 12.3862 51.724C12.7162 51.8487 13.0792 51.911 13.4752 51.911C13.7172 51.911 13.9555 51.878 14.1902 51.812C14.4249 51.746 14.6449 51.6507 14.8502 51.526C15.0555 51.4013 15.2425 51.2547 15.4112 51.086L16.0052 52.054C15.8365 52.252 15.6055 52.4317 15.3122 52.593C15.0262 52.7543 14.7035 52.8827 14.3442 52.978C13.9922 53.066 13.6365 53.11 13.2772 53.11ZM19.555 53.11C19.0783 53.11 18.642 52.978 18.246 52.714C17.8573 52.45 17.5457 52.0907 17.311 51.636C17.0763 51.1813 16.959 50.668 16.959 50.096C16.959 49.5167 17.0763 49.0033 17.311 48.556C17.553 48.1013 17.8757 47.7457 18.279 47.489C18.6897 47.2323 19.148 47.104 19.654 47.104C19.9547 47.104 20.2297 47.148 20.479 47.236C20.7283 47.324 20.9447 47.4487 21.128 47.61C21.3187 47.764 21.4727 47.9437 21.59 48.149C21.7147 48.3543 21.7917 48.5743 21.821 48.809L21.568 48.721V47.225H22.712V53H21.568V51.625L21.832 51.548C21.788 51.746 21.6963 51.9403 21.557 52.131C21.425 52.3143 21.2527 52.4793 21.04 52.626C20.8347 52.7727 20.6037 52.89 20.347 52.978C20.0977 53.066 19.8337 53.11 19.555 53.11ZM19.852 52.065C20.1967 52.065 20.501 51.9807 20.765 51.812C21.029 51.6433 21.2343 51.4123 21.381 51.119C21.535 50.8183 21.612 50.4773 21.612 50.096C21.612 49.722 21.535 49.3883 21.381 49.095C21.2343 48.8017 21.029 48.5707 20.765 48.402C20.501 48.2333 20.1967 48.149 19.852 48.149C19.5147 48.149 19.214 48.2333 18.95 48.402C18.6933 48.5707 18.488 48.8017 18.334 49.095C18.1873 49.3883 18.114 49.722 18.114 50.096C18.114 50.4773 18.1873 50.8183 18.334 51.119C18.488 51.4123 18.6933 51.6433 18.95 51.812C19.214 51.9807 19.5147 52.065 19.852 52.065ZM24.294 55.42V47.225H25.438V48.545L25.262 48.446C25.306 48.226 25.4306 48.017 25.636 47.819C25.8413 47.6137 26.0906 47.4487 26.384 47.324C26.6846 47.192 26.9926 47.126 27.308 47.126C27.8286 47.126 28.2906 47.2543 28.694 47.511C29.0973 47.7677 29.4163 48.1197 29.651 48.567C29.8856 49.0143 30.003 49.5277 30.003 50.107C30.003 50.679 29.8856 51.1923 29.651 51.647C29.4236 52.0943 29.1083 52.45 28.705 52.714C28.3016 52.9707 27.847 53.099 27.341 53.099C27.0036 53.099 26.6773 53.033 26.362 52.901C26.0466 52.7617 25.779 52.5857 25.559 52.373C25.339 52.1603 25.2033 51.9403 25.152 51.713L25.438 51.559V55.42H24.294ZM27.154 52.054C27.4913 52.054 27.792 51.9697 28.056 51.801C28.32 51.6323 28.529 51.4013 28.683 51.108C28.837 50.8147 28.914 50.481 28.914 50.107C28.914 49.733 28.837 49.403 28.683 49.117C28.5363 48.8237 28.331 48.5927 28.067 48.424C27.803 48.2553 27.4986 48.171 27.154 48.171C26.8093 48.171 26.505 48.2553 26.241 48.424C25.977 48.5853 25.768 48.8127 25.614 49.106C25.46 49.3993 25.383 49.733 25.383 50.107C25.383 50.481 25.46 50.8147 25.614 51.108C25.768 51.4013 25.977 51.6323 26.241 51.801C26.505 51.9697 26.8093 52.054 27.154 52.054ZM31.4204 53V47.225H32.5534V53H31.4204ZM31.9704 45.949C31.7284 45.949 31.5414 45.8867 31.4094 45.762C31.2774 45.6373 31.2114 45.4613 31.2114 45.234C31.2114 45.0213 31.2774 44.849 31.4094 44.717C31.5487 44.585 31.7357 44.519 31.9704 44.519C32.2124 44.519 32.3994 44.5813 32.5314 44.706C32.6634 44.8307 32.7294 45.0067 32.7294 45.234C32.7294 45.4467 32.6597 45.619 32.5204 45.751C32.3884 45.883 32.2051 45.949 31.9704 45.949ZM35.0099 53V45.751H36.1429V53H35.0099ZM33.8109 48.325V47.225H37.4849V48.325H33.8109ZM41.0589 53.11C40.4942 53.11 39.9882 52.9817 39.5409 52.725C39.1009 52.461 38.7526 52.1053 38.4959 51.658C38.2392 51.2033 38.1109 50.6863 38.1109 50.107C38.1109 49.5277 38.2392 49.0143 38.4959 48.567C38.7526 48.1123 39.1009 47.7567 39.5409 47.5C39.9882 47.236 40.4942 47.104 41.0589 47.104C41.6162 47.104 42.1149 47.236 42.5549 47.5C43.0022 47.7567 43.3542 48.1123 43.6109 48.567C43.8676 49.0143 43.9959 49.5277 43.9959 50.107C43.9959 50.6863 43.8676 51.2033 43.6109 51.658C43.3542 52.1053 43.0022 52.461 42.5549 52.725C42.1149 52.9817 41.6162 53.11 41.0589 53.11ZM41.0589 52.076C41.4036 52.076 41.7116 51.9917 41.9829 51.823C42.2542 51.647 42.4669 51.4123 42.6209 51.119C42.7749 50.8183 42.8482 50.481 42.8409 50.107C42.8482 49.7257 42.7749 49.3883 42.6209 49.095C42.4669 48.7943 42.2542 48.5597 41.9829 48.391C41.7116 48.2223 41.4036 48.138 41.0589 48.138C40.7142 48.138 40.4026 48.226 40.1239 48.402C39.8526 48.5707 39.6399 48.8053 39.4859 49.106C39.3319 49.3993 39.2586 49.733 39.2659 50.107C39.2586 50.481 39.3319 50.8183 39.4859 51.119C39.6399 51.4123 39.8526 51.647 40.1239 51.823C40.4026 51.9917 40.7142 52.076 41.0589 52.076ZM45.2525 53V44.86H46.3855V53H45.2525ZM51.3602 53V45.3H54.6382C55.0782 45.3 55.4816 45.41 55.8482 45.63C56.2222 45.8427 56.5192 46.136 56.7392 46.51C56.9592 46.8767 57.0692 47.291 57.0692 47.753C57.0692 48.171 56.9592 48.5597 56.7392 48.919C56.5192 49.2783 56.2259 49.568 55.8592 49.788C55.4926 50.0007 55.0856 50.107 54.6382 50.107H52.5482V53H51.3602ZM55.9362 53L53.9782 49.524L55.1992 49.249L57.3772 53.011L55.9362 53ZM52.5482 48.963H54.7482C54.9609 48.963 55.1516 48.9117 55.3202 48.809C55.4889 48.699 55.6209 48.5523 55.7162 48.369C55.8116 48.1783 55.8592 47.9693 55.8592 47.742C55.8592 47.4853 55.7969 47.2617 55.6722 47.071C55.5549 46.873 55.3862 46.719 55.1662 46.609C54.9536 46.499 54.7116 46.444 54.4402 46.444H52.5482V48.963ZM61.2028 53.11C60.6088 53.11 60.0808 52.9853 59.6188 52.736C59.1642 52.4793 58.8048 52.131 58.5408 51.691C58.2842 51.251 58.1558 50.745 58.1558 50.173C58.1558 49.7183 58.2292 49.304 58.3758 48.93C58.5225 48.556 58.7242 48.2333 58.9808 47.962C59.2448 47.6833 59.5565 47.4707 59.9158 47.324C60.2825 47.17 60.6785 47.093 61.1038 47.093C61.4778 47.093 61.8262 47.1663 62.1488 47.313C62.4715 47.4523 62.7502 47.6467 62.9848 47.896C63.2268 48.1453 63.4102 48.4423 63.5348 48.787C63.6668 49.1243 63.7292 49.4947 63.7218 49.898L63.7108 50.382H58.9918L58.7388 49.48H62.7318L62.5668 49.667V49.403C62.5448 49.161 62.4642 48.9447 62.3248 48.754C62.1855 48.5633 62.0095 48.413 61.7968 48.303C61.5842 48.193 61.3532 48.138 61.1038 48.138C60.7078 48.138 60.3742 48.215 60.1028 48.369C59.8315 48.5157 59.6262 48.7357 59.4868 49.029C59.3475 49.315 59.2778 49.6707 59.2778 50.096C59.2778 50.4993 59.3622 50.8513 59.5308 51.152C59.6995 51.4453 59.9378 51.6727 60.2458 51.834C60.5538 51.9953 60.9095 52.076 61.3128 52.076C61.5988 52.076 61.8628 52.0283 62.1048 51.933C62.3542 51.8377 62.6218 51.6653 62.9078 51.416L63.4798 52.219C63.3038 52.395 63.0875 52.549 62.8308 52.681C62.5815 52.813 62.3138 52.9193 62.0278 53C61.7492 53.0733 61.4742 53.11 61.2028 53.11ZM67.6481 53.11C67.0541 53.11 66.5261 52.9853 66.0641 52.736C65.6095 52.4793 65.2501 52.131 64.9861 51.691C64.7295 51.251 64.6011 50.745 64.6011 50.173C64.6011 49.7183 64.6745 49.304 64.8211 48.93C64.9678 48.556 65.1695 48.2333 65.4261 47.962C65.6901 47.6833 66.0018 47.4707 66.3611 47.324C66.7278 47.17 67.1238 47.093 67.5491 47.093C67.9231 47.093 68.2715 47.1663 68.5941 47.313C68.9168 47.4523 69.1955 47.6467 69.4301 47.896C69.6721 48.1453 69.8555 48.4423 69.9801 48.787C70.1121 49.1243 70.1745 49.4947 70.1671 49.898L70.1561 50.382H65.4371L65.1841 49.48H69.1771L69.0121 49.667V49.403C68.9901 49.161 68.9095 48.9447 68.7701 48.754C68.6308 48.5633 68.4548 48.413 68.2421 48.303C68.0295 48.193 67.7985 48.138 67.5491 48.138C67.1531 48.138 66.8195 48.215 66.5481 48.369C66.2768 48.5157 66.0715 48.7357 65.9321 49.029C65.7928 49.315 65.7231 49.6707 65.7231 50.096C65.7231 50.4993 65.8075 50.8513 65.9761 51.152C66.1448 51.4453 66.3831 51.6727 66.6911 51.834C66.9991 51.9953 67.3548 52.076 67.7581 52.076C68.0441 52.076 68.3081 52.0283 68.5501 51.933C68.7995 51.8377 69.0671 51.6653 69.3531 51.416L69.9251 52.219C69.7491 52.395 69.5328 52.549 69.2761 52.681C69.0268 52.813 68.7591 52.9193 68.4731 53C68.1945 53.0733 67.9195 53.11 67.6481 53.11ZM72.0254 53V46.576C72.0254 46.246 72.0988 45.9527 72.2454 45.696C72.3921 45.4393 72.5938 45.2377 72.8504 45.091C73.1071 44.9443 73.4041 44.871 73.7414 44.871C73.9761 44.871 74.1961 44.915 74.4014 45.003C74.6068 45.091 74.7718 45.2083 74.8964 45.355L74.5114 46.224C74.4161 46.136 74.3098 46.0663 74.1924 46.015C74.0824 45.9563 73.9761 45.927 73.8734 45.927C73.7194 45.927 73.5874 45.9527 73.4774 46.004C73.3748 46.048 73.2978 46.1213 73.2464 46.224C73.1951 46.3193 73.1694 46.4367 73.1694 46.576V53H72.5974C72.5021 53 72.4068 53 72.3114 53C72.2161 53 72.1208 53 72.0254 53ZM71.1014 48.369V47.324H74.5334V48.369H71.1014ZM6.28064 67V59.3H7.34764L12.0556 65.603L11.8796 65.702C11.8503 65.5187 11.8246 65.3207 11.8026 65.108C11.7806 64.888 11.7586 64.657 11.7366 64.415C11.722 64.1657 11.7073 63.9053 11.6926 63.634C11.6853 63.3553 11.678 63.0657 11.6706 62.765C11.6633 62.4643 11.6596 62.1527 11.6596 61.83V59.3H12.8476V67H11.7586L7.12764 60.928L7.24864 60.774C7.2853 61.2213 7.31464 61.6027 7.33664 61.918C7.36597 62.226 7.38797 62.49 7.40264 62.71C7.42464 62.9227 7.4393 63.0987 7.44664 63.238C7.45397 63.37 7.45764 63.48 7.45764 63.568C7.46497 63.656 7.46864 63.733 7.46864 63.799V67H6.28064ZM16.9393 67.11C16.4626 67.11 16.0263 66.978 15.6303 66.714C15.2416 66.45 14.93 66.0907 14.6953 65.636C14.4606 65.1813 14.3433 64.668 14.3433 64.096C14.3433 63.5167 14.4606 63.0033 14.6953 62.556C14.9373 62.1013 15.26 61.7457 15.6633 61.489C16.074 61.2323 16.5323 61.104 17.0383 61.104C17.339 61.104 17.614 61.148 17.8633 61.236C18.1126 61.324 18.329 61.4487 18.5123 61.61C18.703 61.764 18.857 61.9437 18.9743 62.149C19.099 62.3543 19.176 62.5743 19.2053 62.809L18.9523 62.721V61.225H20.0963V67H18.9523V65.625L19.2163 65.548C19.1723 65.746 19.0806 65.9403 18.9413 66.131C18.8093 66.3143 18.637 66.4793 18.4243 66.626C18.219 66.7727 17.988 66.89 17.7313 66.978C17.482 67.066 17.218 67.11 16.9393 67.11ZM17.2363 66.065C17.581 66.065 17.8853 65.9807 18.1493 65.812C18.4133 65.6433 18.6186 65.4123 18.7653 65.119C18.9193 64.8183 18.9963 64.4773 18.9963 64.096C18.9963 63.722 18.9193 63.3883 18.7653 63.095C18.6186 62.8017 18.4133 62.5707 18.1493 62.402C17.8853 62.2333 17.581 62.149 17.2363 62.149C16.899 62.149 16.5983 62.2333 16.3343 62.402C16.0776 62.5707 15.8723 62.8017 15.7183 63.095C15.5716 63.3883 15.4983 63.722 15.4983 64.096C15.4983 64.4773 15.5716 64.8183 15.7183 65.119C15.8723 65.4123 16.0776 65.6433 16.3343 65.812C16.5983 65.9807 16.899 66.065 17.2363 66.065ZM22.3932 67V59.751H23.5262V67H22.3932ZM21.1942 62.325V61.225H24.8682V62.325H21.1942ZM26.0869 67V61.225H27.2199V67H26.0869ZM26.6369 59.949C26.3949 59.949 26.2079 59.8867 26.0759 59.762C25.9439 59.6373 25.8779 59.4613 25.8779 59.234C25.8779 59.0213 25.9439 58.849 26.0759 58.717C26.2152 58.585 26.4022 58.519 26.6369 58.519C26.8789 58.519 27.0659 58.5813 27.1979 58.706C27.3299 58.8307 27.3959 59.0067 27.3959 59.234C27.3959 59.4467 27.3262 59.619 27.1869 59.751C27.0549 59.883 26.8716 59.949 26.6369 59.949ZM31.5574 67.11C30.9928 67.11 30.4868 66.9817 30.0394 66.725C29.5994 66.461 29.2511 66.1053 28.9944 65.658C28.7378 65.2033 28.6094 64.6863 28.6094 64.107C28.6094 63.5277 28.7378 63.0143 28.9944 62.567C29.2511 62.1123 29.5994 61.7567 30.0394 61.5C30.4868 61.236 30.9928 61.104 31.5574 61.104C32.1148 61.104 32.6134 61.236 33.0534 61.5C33.5008 61.7567 33.8528 62.1123 34.1094 62.567C34.3661 63.0143 34.4944 63.5277 34.4944 64.107C34.4944 64.6863 34.3661 65.2033 34.1094 65.658C33.8528 66.1053 33.5008 66.461 33.0534 66.725C32.6134 66.9817 32.1148 67.11 31.5574 67.11ZM31.5574 66.076C31.9021 66.076 32.2101 65.9917 32.4814 65.823C32.7528 65.647 32.9654 65.4123 33.1194 65.119C33.2734 64.8183 33.3468 64.481 33.3394 64.107C33.3468 63.7257 33.2734 63.3883 33.1194 63.095C32.9654 62.7943 32.7528 62.5597 32.4814 62.391C32.2101 62.2223 31.9021 62.138 31.5574 62.138C31.2128 62.138 30.9011 62.226 30.6224 62.402C30.3511 62.5707 30.1384 62.8053 29.9844 63.106C29.8304 63.3993 29.7571 63.733 29.7644 64.107C29.7571 64.481 29.8304 64.8183 29.9844 65.119C30.1384 65.4123 30.3511 65.647 30.6224 65.823C30.9011 65.9917 31.2128 66.076 31.5574 66.076ZM35.729 67V61.225H36.862V62.413L36.664 62.545C36.7373 62.2883 36.8803 62.0537 37.093 61.841C37.3057 61.621 37.5587 61.445 37.852 61.313C38.1453 61.1737 38.446 61.104 38.754 61.104C39.194 61.104 39.5607 61.192 39.854 61.368C40.1473 61.5367 40.3673 61.797 40.514 62.149C40.6607 62.501 40.734 62.9447 40.734 63.48V67H39.601V63.557C39.601 63.227 39.557 62.9557 39.469 62.743C39.381 62.523 39.2453 62.3653 39.062 62.27C38.8787 62.1673 38.6513 62.1233 38.38 62.138C38.16 62.138 37.9583 62.1747 37.775 62.248C37.5917 62.314 37.4303 62.4093 37.291 62.534C37.159 62.6587 37.0527 62.8053 36.972 62.974C36.8987 63.1353 36.862 63.3113 36.862 63.502V67H36.301C36.2057 67 36.1103 67 36.015 67C35.9197 67 35.8243 67 35.729 67ZM44.493 67.11C44.0163 67.11 43.58 66.978 43.184 66.714C42.7953 66.45 42.4837 66.0907 42.249 65.636C42.0143 65.1813 41.897 64.668 41.897 64.096C41.897 63.5167 42.0143 63.0033 42.249 62.556C42.491 62.1013 42.8137 61.7457 43.217 61.489C43.6277 61.2323 44.086 61.104 44.592 61.104C44.8927 61.104 45.1677 61.148 45.417 61.236C45.6663 61.324 45.8827 61.4487 46.066 61.61C46.2567 61.764 46.4107 61.9437 46.528 62.149C46.6527 62.3543 46.7297 62.5743 46.759 62.809L46.506 62.721V61.225H47.65V67H46.506V65.625L46.77 65.548C46.726 65.746 46.6343 65.9403 46.495 66.131C46.363 66.3143 46.1907 66.4793 45.978 66.626C45.7727 66.7727 45.5417 66.89 45.285 66.978C45.0357 67.066 44.7717 67.11 44.493 67.11ZM44.79 66.065C45.1347 66.065 45.439 65.9807 45.703 65.812C45.967 65.6433 46.1723 65.4123 46.319 65.119C46.473 64.8183 46.55 64.4773 46.55 64.096C46.55 63.722 46.473 63.3883 46.319 63.095C46.1723 62.8017 45.967 62.5707 45.703 62.402C45.439 62.2333 45.1347 62.149 44.79 62.149C44.4527 62.149 44.152 62.2333 43.888 62.402C43.6313 62.5707 43.426 62.8017 43.272 63.095C43.1253 63.3883 43.052 63.722 43.052 64.096C43.052 64.4773 43.1253 64.8183 43.272 65.119C43.426 65.4123 43.6313 65.6433 43.888 65.812C44.152 65.9807 44.4527 66.065 44.79 66.065ZM49.2539 67V58.86H50.3869V67H49.2539ZM55.3617 67V59.3H58.4967C58.9147 59.3 59.2924 59.4063 59.6297 59.619C59.9744 59.8243 60.2494 60.1067 60.4547 60.466C60.66 60.8253 60.7627 61.225 60.7627 61.665C60.7627 62.105 60.66 62.5047 60.4547 62.864C60.2494 63.2233 59.9744 63.513 59.6297 63.733C59.2924 63.9457 58.9147 64.052 58.4967 64.052H56.5497V67H55.3617ZM56.5497 62.908H58.4747C58.6727 62.908 58.8524 62.853 59.0137 62.743C59.175 62.6257 59.3034 62.4753 59.3987 62.292C59.5014 62.1013 59.5527 61.8923 59.5527 61.665C59.5527 61.4377 59.5014 61.2323 59.3987 61.049C59.3034 60.8657 59.175 60.719 59.0137 60.609C58.8524 60.499 58.6727 60.444 58.4747 60.444H56.5497V62.908ZM64.1619 67.11C63.6853 67.11 63.2489 66.978 62.8529 66.714C62.4643 66.45 62.1526 66.0907 61.9179 65.636C61.6833 65.1813 61.5659 64.668 61.5659 64.096C61.5659 63.5167 61.6833 63.0033 61.9179 62.556C62.1599 62.1013 62.4826 61.7457 62.8859 61.489C63.2966 61.2323 63.7549 61.104 64.2609 61.104C64.5616 61.104 64.8366 61.148 65.0859 61.236C65.3353 61.324 65.5516 61.4487 65.7349 61.61C65.9256 61.764 66.0796 61.9437 66.1969 62.149C66.3216 62.3543 66.3986 62.5743 66.4279 62.809L66.1749 62.721V61.225H67.3189V67H66.1749V65.625L66.4389 65.548C66.3949 65.746 66.3033 65.9403 66.1639 66.131C66.0319 66.3143 65.8596 66.4793 65.6469 66.626C65.4416 66.7727 65.2106 66.89 64.9539 66.978C64.7046 67.066 64.4406 67.11 64.1619 67.11ZM64.4589 66.065C64.8036 66.065 65.1079 65.9807 65.3719 65.812C65.6359 65.6433 65.8413 65.4123 65.9879 65.119C66.1419 64.8183 66.2189 64.4773 66.2189 64.096C66.2189 63.722 66.1419 63.3883 65.9879 63.095C65.8413 62.8017 65.6359 62.5707 65.3719 62.402C65.1079 62.2333 64.8036 62.149 64.4589 62.149C64.1216 62.149 63.8209 62.2333 63.5569 62.402C63.3003 62.5707 63.0949 62.8017 62.9409 63.095C62.7943 63.3883 62.7209 63.722 62.7209 64.096C62.7209 64.4773 62.7943 64.8183 62.9409 65.119C63.0949 65.4123 63.3003 65.6433 63.5569 65.812C63.8209 65.9807 64.1216 66.065 64.4589 66.065ZM68.9009 67V61.225H70.0449V63.04L69.9349 62.6C70.0156 62.3213 70.1512 62.0683 70.3419 61.841C70.5399 61.6137 70.7636 61.434 71.0129 61.302C71.2696 61.17 71.5336 61.104 71.8049 61.104C71.9296 61.104 72.0469 61.115 72.1569 61.137C72.2742 61.159 72.3659 61.1847 72.4319 61.214L72.1349 62.446C72.0469 62.4093 71.9479 62.38 71.8379 62.358C71.7352 62.3287 71.6326 62.314 71.5299 62.314C71.3319 62.314 71.1412 62.3543 70.9579 62.435C70.7819 62.5083 70.6242 62.6147 70.4849 62.754C70.3529 62.886 70.2466 63.0437 70.1659 63.227C70.0852 63.403 70.0449 63.5973 70.0449 63.81V67H68.9009ZM74.3714 65.196L74.3164 63.964L77.0774 61.225H78.6064L74.3714 65.196ZM73.3374 67V58.86H74.4704V67H73.3374ZM77.2314 67L75.0534 64.459L75.8564 63.722L78.6834 67H77.2314Z" fill="black"/>
<path d="M40 4V11M40 28V11M48 11H40M40 11H32" stroke="#484848" stroke-width="4"/>
</svg>
