<svg width="52" height="42" viewBox="0 0 52 42" fill="none" xmlns="http://www.w3.org/2000/svg">
<path d="M52 42H0L2 28L6.5 22L4.5 9.5L8 0H26.5L29 11.5L35.5 16L37 25.5L50.5 27.5L52 42Z" fill="#FF0000" fill-opacity="0.31"/>
<path d="M22.6596 24.11C22.2416 24.11 21.8529 24.055 21.4936 23.945C21.1416 23.835 20.8189 23.67 20.5256 23.45C20.2396 23.2227 19.9829 22.944 19.7556 22.614L20.5696 21.679C20.9289 22.1923 21.2736 22.548 21.6036 22.746C21.9336 22.944 22.3259 23.043 22.7806 23.043C23.0592 23.043 23.3122 22.999 23.5396 22.911C23.7669 22.823 23.9466 22.702 24.0786 22.548C24.2106 22.394 24.2766 22.218 24.2766 22.02C24.2766 21.888 24.2546 21.7633 24.2106 21.646C24.1666 21.5287 24.0969 21.4223 24.0016 21.327C23.9136 21.2317 23.7962 21.1437 23.6496 21.063C23.5102 20.9823 23.3452 20.9127 23.1546 20.854C22.9639 20.788 22.7439 20.733 22.4946 20.689C22.0986 20.6083 21.7539 20.502 21.4606 20.37C21.1672 20.238 20.9216 20.073 20.7236 19.875C20.5256 19.677 20.3789 19.4533 20.2836 19.204C20.1882 18.9473 20.1406 18.6613 20.1406 18.346C20.1406 18.038 20.2066 17.752 20.3386 17.488C20.4779 17.224 20.6649 16.9967 20.8996 16.806C21.1416 16.608 21.4239 16.4577 21.7466 16.355C22.0692 16.245 22.4176 16.19 22.7916 16.19C23.1876 16.19 23.5506 16.2413 23.8806 16.344C24.2106 16.4467 24.5039 16.6007 24.7606 16.806C25.0172 17.004 25.2299 17.2497 25.3986 17.543L24.5626 18.368C24.4159 18.126 24.2509 17.9243 24.0676 17.763C23.8842 17.5943 23.6826 17.4697 23.4626 17.389C23.2426 17.301 23.0079 17.257 22.7586 17.257C22.4726 17.257 22.2232 17.301 22.0106 17.389C21.7979 17.477 21.6292 17.6017 21.5046 17.763C21.3872 17.917 21.3286 18.1003 21.3286 18.313C21.3286 18.467 21.3579 18.61 21.4166 18.742C21.4752 18.8667 21.5632 18.9803 21.6806 19.083C21.8052 19.1783 21.9702 19.2663 22.1756 19.347C22.3809 19.4203 22.6266 19.4863 22.9126 19.545C23.3159 19.633 23.6752 19.7467 23.9906 19.886C24.3059 20.018 24.5736 20.1757 24.7936 20.359C25.0136 20.5423 25.1786 20.7477 25.2886 20.975C25.4059 21.2023 25.4646 21.448 25.4646 21.712C25.4646 22.2033 25.3509 22.6287 25.1236 22.988C24.8962 23.3473 24.5736 23.626 24.1556 23.824C23.7376 24.0147 23.2389 24.11 22.6596 24.11ZM27.5768 24V16.751H28.7098V24H27.5768ZM26.3778 19.325V18.225H30.0518V19.325H26.3778ZM31.5455 24.121C31.3035 24.121 31.1165 24.0513 30.9845 23.912C30.8525 23.7653 30.7865 23.56 30.7865 23.296C30.7865 23.054 30.8562 22.856 30.9955 22.702C31.1348 22.548 31.3182 22.471 31.5455 22.471C31.7875 22.471 31.9745 22.5443 32.1065 22.691C32.2385 22.8303 32.3045 23.032 32.3045 23.296C32.3045 23.538 32.2348 23.736 32.0955 23.89C31.9562 24.044 31.7728 24.121 31.5455 24.121ZM5.62362 38.11C5.37428 38.11 5.13595 38.077 4.90862 38.011C4.68128 37.945 4.46862 37.8497 4.27062 37.725C4.07995 37.6003 3.90762 37.4537 3.75362 37.285C3.59962 37.109 3.46762 36.9183 3.35762 36.713L4.10562 35.932C4.25962 36.152 4.39895 36.328 4.52362 36.46C4.65562 36.592 4.78028 36.6947 4.89762 36.768C5.01495 36.8413 5.13228 36.8927 5.24962 36.922C5.36695 36.944 5.49162 36.955 5.62362 36.955C5.88762 36.955 6.11862 36.8963 6.31662 36.779C6.51462 36.6543 6.66862 36.4857 6.77862 36.273C6.88862 36.0603 6.94362 35.8183 6.94362 35.547V31.4H5.53562V30.3H9.31962V31.4H8.13162V35.657C8.13162 36.009 8.06928 36.3353 7.94462 36.636C7.82728 36.9293 7.65495 37.186 7.42762 37.406C7.20762 37.626 6.94362 37.7983 6.63562 37.923C6.33495 38.0477 5.99762 38.11 5.62362 38.11ZM12.7054 38.11C12.1407 38.11 11.6347 37.9817 11.1874 37.725C10.7474 37.461 10.399 37.1053 10.1424 36.658C9.88572 36.2033 9.75738 35.6863 9.75738 35.107C9.75738 34.5277 9.88572 34.0143 10.1424 33.567C10.399 33.1123 10.7474 32.7567 11.1874 32.5C11.6347 32.236 12.1407 32.104 12.7054 32.104C13.2627 32.104 13.7614 32.236 14.2014 32.5C14.6487 32.7567 15.0007 33.1123 15.2574 33.567C15.514 34.0143 15.6424 34.5277 15.6424 35.107C15.6424 35.6863 15.514 36.2033 15.2574 36.658C15.0007 37.1053 14.6487 37.461 14.2014 37.725C13.7614 37.9817 13.2627 38.11 12.7054 38.11ZM12.7054 37.076C13.05 37.076 13.358 36.9917 13.6294 36.823C13.9007 36.647 14.1134 36.4123 14.2674 36.119C14.4214 35.8183 14.4947 35.481 14.4874 35.107C14.4947 34.7257 14.4214 34.3883 14.2674 34.095C14.1134 33.7943 13.9007 33.5597 13.6294 33.391C13.358 33.2223 13.05 33.138 12.7054 33.138C12.3607 33.138 12.049 33.226 11.7704 33.402C11.499 33.5707 11.2864 33.8053 11.1324 34.106C10.9784 34.3993 10.905 34.733 10.9124 35.107C10.905 35.481 10.9784 35.8183 11.1324 36.119C11.2864 36.4123 11.499 36.647 11.7704 36.823C12.049 36.9917 12.3607 37.076 12.7054 37.076ZM18.802 38.11C18.318 38.11 17.8816 38.0257 17.493 37.857C17.1043 37.6883 16.7816 37.439 16.525 37.109L17.295 36.449C17.515 36.7057 17.7533 36.8927 18.01 37.01C18.274 37.12 18.571 37.175 18.901 37.175C19.033 37.175 19.154 37.1603 19.264 37.131C19.3813 37.0943 19.4803 37.043 19.561 36.977C19.649 36.911 19.715 36.834 19.759 36.746C19.803 36.6507 19.825 36.548 19.825 36.438C19.825 36.2473 19.7553 36.0933 19.616 35.976C19.5426 35.9247 19.4253 35.8697 19.264 35.811C19.11 35.745 18.9083 35.679 18.659 35.613C18.2336 35.503 17.8853 35.3783 17.614 35.239C17.3426 35.0997 17.1336 34.942 16.987 34.766C16.877 34.6267 16.7963 34.4763 16.745 34.315C16.6936 34.1463 16.668 33.963 16.668 33.765C16.668 33.523 16.7193 33.303 16.822 33.105C16.932 32.8997 17.0786 32.7237 17.262 32.577C17.4526 32.423 17.6726 32.3057 17.922 32.225C18.1786 32.1443 18.45 32.104 18.736 32.104C19.0073 32.104 19.275 32.1407 19.539 32.214C19.8103 32.2873 20.0596 32.3937 20.287 32.533C20.5143 32.6723 20.705 32.8373 20.859 33.028L20.21 33.743C20.0706 33.6037 19.9166 33.4827 19.748 33.38C19.5866 33.27 19.4216 33.1857 19.253 33.127C19.0843 33.0683 18.9303 33.039 18.791 33.039C18.637 33.039 18.4976 33.0537 18.373 33.083C18.2483 33.1123 18.142 33.1563 18.054 33.215C17.9733 33.2737 17.911 33.347 17.867 33.435C17.823 33.523 17.801 33.622 17.801 33.732C17.8083 33.8273 17.8303 33.919 17.867 34.007C17.911 34.0877 17.9696 34.1573 18.043 34.216C18.1236 34.2747 18.2446 34.337 18.406 34.403C18.5673 34.469 18.7726 34.5313 19.022 34.59C19.3886 34.6853 19.6893 34.7917 19.924 34.909C20.166 35.019 20.3566 35.1473 20.496 35.294C20.6426 35.4333 20.7453 35.5947 20.804 35.778C20.8626 35.9613 20.892 36.1667 20.892 36.394C20.892 36.724 20.7966 37.021 20.606 37.285C20.4226 37.5417 20.1733 37.7433 19.858 37.89C19.5426 38.0367 19.1906 38.11 18.802 38.11ZM24.8356 38.11C24.2416 38.11 23.7136 37.9853 23.2516 37.736C22.797 37.4793 22.4376 37.131 22.1736 36.691C21.917 36.251 21.7886 35.745 21.7886 35.173C21.7886 34.7183 21.862 34.304 22.0086 33.93C22.1553 33.556 22.357 33.2333 22.6136 32.962C22.8776 32.6833 23.1893 32.4707 23.5486 32.324C23.9153 32.17 24.3113 32.093 24.7366 32.093C25.1106 32.093 25.459 32.1663 25.7816 32.313C26.1043 32.4523 26.383 32.6467 26.6176 32.896C26.8596 33.1453 27.043 33.4423 27.1676 33.787C27.2996 34.1243 27.362 34.4947 27.3546 34.898L27.3436 35.382H22.6246L22.3716 34.48H26.3646L26.1996 34.667V34.403C26.1776 34.161 26.097 33.9447 25.9576 33.754C25.8183 33.5633 25.6423 33.413 25.4296 33.303C25.217 33.193 24.986 33.138 24.7366 33.138C24.3406 33.138 24.007 33.215 23.7356 33.369C23.4643 33.5157 23.259 33.7357 23.1196 34.029C22.9803 34.315 22.9106 34.6707 22.9106 35.096C22.9106 35.4993 22.995 35.8513 23.1636 36.152C23.3323 36.4453 23.5706 36.6727 23.8786 36.834C24.1866 36.9953 24.5423 37.076 24.9456 37.076C25.2316 37.076 25.4956 37.0283 25.7376 36.933C25.987 36.8377 26.2546 36.6653 26.5406 36.416L27.1126 37.219C26.9366 37.395 26.7203 37.549 26.4636 37.681C26.2143 37.813 25.9466 37.9193 25.6606 38C25.382 38.0733 25.107 38.11 24.8356 38.11ZM28.5859 40.42V32.225H29.7299V33.545L29.5539 33.446C29.5979 33.226 29.7226 33.017 29.9279 32.819C30.1333 32.6137 30.3826 32.4487 30.6759 32.324C30.9766 32.192 31.2846 32.126 31.5999 32.126C32.1206 32.126 32.5826 32.2543 32.9859 32.511C33.3893 32.7677 33.7083 33.1197 33.9429 33.567C34.1776 34.0143 34.2949 34.5277 34.2949 35.107C34.2949 35.679 34.1776 36.1923 33.9429 36.647C33.7156 37.0943 33.4003 37.45 32.9969 37.714C32.5936 37.9707 32.1389 38.099 31.6329 38.099C31.2956 38.099 30.9693 38.033 30.6539 37.901C30.3386 37.7617 30.0709 37.5857 29.8509 37.373C29.6309 37.1603 29.4953 36.9403 29.4439 36.713L29.7299 36.559V40.42H28.5859ZM31.4459 37.054C31.7833 37.054 32.0839 36.9697 32.3479 36.801C32.6119 36.6323 32.8209 36.4013 32.9749 36.108C33.1289 35.8147 33.2059 35.481 33.2059 35.107C33.2059 34.733 33.1289 34.403 32.9749 34.117C32.8283 33.8237 32.6229 33.5927 32.3589 33.424C32.0949 33.2553 31.7906 33.171 31.4459 33.171C31.1013 33.171 30.7969 33.2553 30.5329 33.424C30.2689 33.5853 30.0599 33.8127 29.9059 34.106C29.7519 34.3993 29.6749 34.733 29.6749 35.107C29.6749 35.481 29.7519 35.8147 29.9059 36.108C30.0599 36.4013 30.2689 36.6323 30.5329 36.801C30.7969 36.9697 31.1013 37.054 31.4459 37.054ZM35.5254 38V29.86H36.6584V33.413L36.4604 33.545C36.5337 33.2883 36.6767 33.0537 36.8894 32.841C37.1021 32.621 37.3551 32.445 37.6484 32.313C37.9417 32.1737 38.2424 32.104 38.5504 32.104C38.9904 32.104 39.3571 32.192 39.6504 32.368C39.9437 32.5367 40.1637 32.797 40.3104 33.149C40.4571 33.501 40.5304 33.9447 40.5304 34.48V38H39.3974V34.557C39.3974 34.227 39.3534 33.9557 39.2654 33.743C39.1774 33.523 39.0417 33.3653 38.8584 33.27C38.6751 33.1673 38.4477 33.1233 38.1764 33.138C37.9564 33.138 37.7547 33.1747 37.5714 33.248C37.3881 33.314 37.2267 33.4093 37.0874 33.534C36.9554 33.6587 36.8491 33.8053 36.7684 33.974C36.6951 34.1353 36.6584 34.3113 36.6584 34.502V38H36.0974C36.0021 38 35.9067 38 35.8114 38C35.7161 38 35.6207 38 35.5254 38ZM41.9134 32.775L41.4954 32.269C41.7814 32.137 42.0161 31.9867 42.1994 31.818C42.3827 31.6493 42.4744 31.5027 42.4744 31.378C42.4744 31.2827 42.4341 31.1983 42.3534 31.125C42.2727 31.0443 42.1994 30.9783 42.1334 30.927C41.9721 30.795 41.8621 30.685 41.8034 30.597C41.7521 30.509 41.7264 30.4173 41.7264 30.322C41.7264 30.146 41.7887 30.0067 41.9134 29.904C42.0381 29.794 42.1994 29.739 42.3974 29.739C42.6027 29.739 42.7861 29.794 42.9474 29.904C43.1161 30.0067 43.2481 30.1497 43.3434 30.333C43.4387 30.5163 43.4864 30.7327 43.4864 30.982C43.4864 31.1727 43.4461 31.3597 43.3654 31.543C43.2847 31.7263 43.1711 31.8987 43.0244 32.06C42.8851 32.2213 42.7201 32.3643 42.5294 32.489C42.3387 32.6137 42.1334 32.709 41.9134 32.775ZM46.6457 38.11C46.1617 38.11 45.7254 38.0257 45.3367 37.857C44.948 37.6883 44.6254 37.439 44.3687 37.109L45.1387 36.449C45.3587 36.7057 45.597 36.8927 45.8537 37.01C46.1177 37.12 46.4147 37.175 46.7447 37.175C46.8767 37.175 46.9977 37.1603 47.1077 37.131C47.225 37.0943 47.324 37.043 47.4047 36.977C47.4927 36.911 47.5587 36.834 47.6027 36.746C47.6467 36.6507 47.6687 36.548 47.6687 36.438C47.6687 36.2473 47.599 36.0933 47.4597 35.976C47.3864 35.9247 47.269 35.8697 47.1077 35.811C46.9537 35.745 46.752 35.679 46.5027 35.613C46.0774 35.503 45.729 35.3783 45.4577 35.239C45.1864 35.0997 44.9774 34.942 44.8307 34.766C44.7207 34.6267 44.64 34.4763 44.5887 34.315C44.5374 34.1463 44.5117 33.963 44.5117 33.765C44.5117 33.523 44.563 33.303 44.6657 33.105C44.7757 32.8997 44.9224 32.7237 45.1057 32.577C45.2964 32.423 45.5164 32.3057 45.7657 32.225C46.0224 32.1443 46.2937 32.104 46.5797 32.104C46.851 32.104 47.1187 32.1407 47.3827 32.214C47.654 32.2873 47.9034 32.3937 48.1307 32.533C48.358 32.6723 48.5487 32.8373 48.7027 33.028L48.0537 33.743C47.9144 33.6037 47.7604 33.4827 47.5917 33.38C47.4304 33.27 47.2654 33.1857 47.0967 33.127C46.928 33.0683 46.774 33.039 46.6347 33.039C46.4807 33.039 46.3414 33.0537 46.2167 33.083C46.092 33.1123 45.9857 33.1563 45.8977 33.215C45.817 33.2737 45.7547 33.347 45.7107 33.435C45.6667 33.523 45.6447 33.622 45.6447 33.732C45.652 33.8273 45.674 33.919 45.7107 34.007C45.7547 34.0877 45.8134 34.1573 45.8867 34.216C45.9674 34.2747 46.0884 34.337 46.2497 34.403C46.411 34.469 46.6164 34.5313 46.8657 34.59C47.2324 34.6853 47.533 34.7917 47.7677 34.909C48.0097 35.019 48.2004 35.1473 48.3397 35.294C48.4864 35.4333 48.589 35.5947 48.6477 35.778C48.7064 35.9613 48.7357 36.1667 48.7357 36.394C48.7357 36.724 48.6404 37.021 48.4497 37.285C48.2664 37.5417 48.017 37.7433 47.7017 37.89C47.3864 38.0367 47.0344 38.11 46.6457 38.11Z" fill="black"/>
<path d="M15 2V9M15 26V9M23 9H15M15 9H7" stroke="#484848" stroke-width="4"/>
</svg>
