<svg width="62" height="57" viewBox="0 0 62 57" fill="none" xmlns="http://www.w3.org/2000/svg">
<path d="M30.5 0.5H50L54 9.5L56 36.5L62 45.5V56.5L0.5 54.5V41.5L7 28.5L30.5 0.5Z" fill="#FF0000" fill-opacity="0.31"/>
<path d="M13.9629 38L11.6529 30.3H13.5559L14.7109 34.348C14.7622 34.5313 14.8062 34.7183 14.8429 34.909C14.8869 35.0923 14.9199 35.2683 14.9419 35.437C14.9712 35.6057 14.9932 35.7633 15.0079 35.91C15.0226 36.0493 15.0372 36.1667 15.0519 36.262H14.8099C14.8539 35.9907 14.8906 35.7487 14.9199 35.536C14.9566 35.3233 14.9969 35.1253 15.0409 34.942C15.0849 34.7513 15.1399 34.5533 15.2059 34.348L16.3499 31.301H17.8459L18.9679 34.348C19.0559 34.59 19.1292 34.8173 19.1879 35.03C19.2466 35.2427 19.2906 35.448 19.3199 35.646C19.3566 35.8367 19.3859 36.0273 19.4079 36.218L19.1879 36.251C19.2026 36.119 19.2136 35.998 19.2209 35.888C19.2282 35.7707 19.2356 35.6607 19.2429 35.558C19.2576 35.448 19.2722 35.3343 19.2869 35.217C19.3016 35.0997 19.3236 34.9713 19.3529 34.832C19.3822 34.6853 19.4226 34.5203 19.4739 34.337L20.6179 30.3H22.4769L20.1669 38H18.7369L16.9109 33.567L17.1199 33.589L15.4369 38H13.9629ZM25.8184 38.11C25.1731 38.11 24.6121 37.9817 24.1354 37.725C23.6587 37.461 23.2884 37.1053 23.0244 36.658C22.7604 36.2033 22.6284 35.6863 22.6284 35.107C22.6284 34.6597 22.7017 34.249 22.8484 33.875C22.9951 33.501 23.2004 33.1783 23.4644 32.907C23.7284 32.6283 24.0401 32.4157 24.3994 32.269C24.7661 32.115 25.1657 32.038 25.5984 32.038C26.0091 32.038 26.3831 32.1113 26.7204 32.258C27.0651 32.4047 27.3621 32.61 27.6114 32.874C27.8607 33.138 28.0514 33.4497 28.1834 33.809C28.3154 34.1683 28.3741 34.5607 28.3594 34.986L28.3484 35.459H23.6954L23.4424 34.469H26.9184L26.7314 34.678V34.458C26.7167 34.2747 26.6581 34.1133 26.5554 33.974C26.4601 33.8273 26.3317 33.7137 26.1704 33.633C26.0091 33.5523 25.8257 33.512 25.6204 33.512C25.3344 33.512 25.0887 33.5707 24.8834 33.688C24.6854 33.798 24.5351 33.963 24.4324 34.183C24.3297 34.3957 24.2784 34.6597 24.2784 34.975C24.2784 35.2977 24.3444 35.58 24.4764 35.822C24.6157 36.0567 24.8137 36.24 25.0704 36.372C25.3344 36.504 25.6461 36.57 26.0054 36.57C26.2547 36.57 26.4747 36.5333 26.6654 36.46C26.8634 36.3867 27.0761 36.262 27.3034 36.086L28.1284 37.252C27.9011 37.45 27.6591 37.6113 27.4024 37.736C27.1457 37.8607 26.8817 37.9523 26.6104 38.011C26.3464 38.077 26.0824 38.11 25.8184 38.11ZM32.9897 38.121C32.7257 38.121 32.4727 38.0843 32.2307 38.011C31.9887 37.9377 31.7687 37.8387 31.5707 37.714C31.38 37.5893 31.2187 37.4463 31.0867 37.285C30.962 37.1163 30.8777 36.944 30.8337 36.768L31.2187 36.636L31.1197 37.989H29.4807V29.86H31.2517V33.556L30.8887 33.424C30.9327 33.2333 31.017 33.0573 31.1417 32.896C31.2664 32.7273 31.424 32.5807 31.6147 32.456C31.8054 32.324 32.0144 32.2213 32.2417 32.148C32.469 32.0747 32.7037 32.038 32.9457 32.038C33.4517 32.038 33.899 32.17 34.2877 32.434C34.6837 32.6907 34.9954 33.05 35.2227 33.512C35.45 33.9667 35.5637 34.4873 35.5637 35.074C35.5637 35.668 35.45 36.196 35.2227 36.658C35.0027 37.1127 34.6984 37.472 34.3097 37.736C33.921 37.9927 33.481 38.121 32.9897 38.121ZM32.5277 36.636C32.7917 36.636 33.0227 36.57 33.2207 36.438C33.4187 36.306 33.569 36.1263 33.6717 35.899C33.7817 35.6643 33.8367 35.3893 33.8367 35.074C33.8367 34.766 33.7817 34.4947 33.6717 34.26C33.569 34.0253 33.4187 33.8457 33.2207 33.721C33.0227 33.5963 32.7917 33.534 32.5277 33.534C32.2564 33.534 32.0217 33.5963 31.8237 33.721C31.6257 33.8457 31.4717 34.0253 31.3617 34.26C31.2517 34.4947 31.1967 34.766 31.1967 35.074C31.1967 35.3893 31.2517 35.6643 31.3617 35.899C31.4717 36.1263 31.6257 36.306 31.8237 36.438C32.0217 36.57 32.2564 36.636 32.5277 36.636ZM39.5039 38.11C38.8586 38.11 38.2976 37.9817 37.8209 37.725C37.3443 37.461 36.9739 37.1053 36.7099 36.658C36.4459 36.2033 36.3139 35.6863 36.3139 35.107C36.3139 34.6597 36.3873 34.249 36.5339 33.875C36.6806 33.501 36.8859 33.1783 37.1499 32.907C37.4139 32.6283 37.7256 32.4157 38.0849 32.269C38.4516 32.115 38.8513 32.038 39.2839 32.038C39.6946 32.038 40.0686 32.1113 40.4059 32.258C40.7506 32.4047 41.0476 32.61 41.2969 32.874C41.5463 33.138 41.7369 33.4497 41.8689 33.809C42.0009 34.1683 42.0596 34.5607 42.0449 34.986L42.0339 35.459H37.3809L37.1279 34.469H40.6039L40.4169 34.678V34.458C40.4023 34.2747 40.3436 34.1133 40.2409 33.974C40.1456 33.8273 40.0173 33.7137 39.8559 33.633C39.6946 33.5523 39.5113 33.512 39.3059 33.512C39.0199 33.512 38.7743 33.5707 38.5689 33.688C38.3709 33.798 38.2206 33.963 38.1179 34.183C38.0153 34.3957 37.9639 34.6597 37.9639 34.975C37.9639 35.2977 38.0299 35.58 38.1619 35.822C38.3013 36.0567 38.4993 36.24 38.7559 36.372C39.0199 36.504 39.3316 36.57 39.6909 36.57C39.9403 36.57 40.1603 36.5333 40.3509 36.46C40.5489 36.3867 40.7616 36.262 40.9889 36.086L41.8139 37.252C41.5866 37.45 41.3446 37.6113 41.0879 37.736C40.8313 37.8607 40.5673 37.9523 40.2959 38.011C40.0319 38.077 39.7679 38.11 39.5039 38.11ZM43.1663 38V32.159H44.8383L44.9153 34.062L44.5853 33.699C44.6733 33.3837 44.8163 33.1013 45.0143 32.852C45.2196 32.6027 45.4579 32.4047 45.7293 32.258C46.0006 32.1113 46.2903 32.038 46.5983 32.038C46.7303 32.038 46.8513 32.049 46.9613 32.071C47.0786 32.093 47.1849 32.1187 47.2803 32.148L46.7963 34.095C46.7156 34.0437 46.6056 34.0033 46.4663 33.974C46.3343 33.9373 46.1949 33.919 46.0483 33.919C45.8869 33.919 45.7366 33.9483 45.5973 34.007C45.4579 34.0583 45.3406 34.1353 45.2453 34.238C45.1499 34.3407 45.0729 34.4617 45.0143 34.601C44.9629 34.7403 44.9373 34.898 44.9373 35.074V38H43.1663ZM6.96328 52.11C6.54528 52.11 6.15661 52.055 5.79728 51.945C5.44528 51.835 5.12261 51.67 4.82928 51.45C4.54328 51.2227 4.28661 50.944 4.05928 50.614L4.87328 49.679C5.23261 50.1923 5.57728 50.548 5.90728 50.746C6.23728 50.944 6.62961 51.043 7.08428 51.043C7.36294 51.043 7.61594 50.999 7.84328 50.911C8.07061 50.823 8.25028 50.702 8.38228 50.548C8.51428 50.394 8.58028 50.218 8.58028 50.02C8.58028 49.888 8.55828 49.7633 8.51428 49.646C8.47028 49.5287 8.40061 49.4223 8.30528 49.327C8.21728 49.2317 8.09994 49.1437 7.95328 49.063C7.81394 48.9823 7.64894 48.9127 7.45828 48.854C7.26761 48.788 7.04761 48.733 6.79828 48.689C6.40228 48.6083 6.05761 48.502 5.76428 48.37C5.47094 48.238 5.22528 48.073 5.02728 47.875C4.82928 47.677 4.68261 47.4533 4.58728 47.204C4.49194 46.9473 4.44428 46.6613 4.44428 46.346C4.44428 46.038 4.51028 45.752 4.64228 45.488C4.78161 45.224 4.96861 44.9967 5.20328 44.806C5.44528 44.608 5.72761 44.4577 6.05028 44.355C6.37294 44.245 6.72128 44.19 7.09528 44.19C7.49128 44.19 7.85428 44.2413 8.18428 44.344C8.51428 44.4467 8.80761 44.6007 9.06428 44.806C9.32094 45.004 9.53361 45.2497 9.70228 45.543L8.86628 46.368C8.71961 46.126 8.55461 45.9243 8.37128 45.763C8.18794 45.5943 7.98628 45.4697 7.76628 45.389C7.54628 45.301 7.31161 45.257 7.06228 45.257C6.77628 45.257 6.52694 45.301 6.31428 45.389C6.10161 45.477 5.93294 45.6017 5.80828 45.763C5.69094 45.917 5.63228 46.1003 5.63228 46.313C5.63228 46.467 5.66161 46.61 5.72028 46.742C5.77894 46.8667 5.86694 46.9803 5.98428 47.083C6.10894 47.1783 6.27394 47.2663 6.47928 47.347C6.68461 47.4203 6.93028 47.4863 7.21628 47.545C7.61961 47.633 7.97894 47.7467 8.29428 47.886C8.60961 48.018 8.87728 48.1757 9.09728 48.359C9.31728 48.5423 9.48228 48.7477 9.59228 48.975C9.70961 49.2023 9.76828 49.448 9.76828 49.712C9.76828 50.2033 9.65461 50.6287 9.42728 50.988C9.19994 51.3473 8.87728 51.626 8.45928 51.824C8.04128 52.0147 7.54261 52.11 6.96328 52.11ZM11.8805 52V44.751H13.0135V52H11.8805ZM10.6815 47.325V46.225H14.3555V47.325H10.6815ZM15.8492 52.121C15.6072 52.121 15.4202 52.0513 15.2882 51.912C15.1562 51.7653 15.0902 51.56 15.0902 51.296C15.0902 51.054 15.1599 50.856 15.2992 50.702C15.4385 50.548 15.6219 50.471 15.8492 50.471C16.0912 50.471 16.2782 50.5443 16.4102 50.691C16.5422 50.8303 16.6082 51.032 16.6082 51.296C16.6082 51.538 16.5385 51.736 16.3992 51.89C16.2599 52.044 16.0765 52.121 15.8492 52.121ZM22.9972 52.11C22.7478 52.11 22.5095 52.077 22.2822 52.011C22.0548 51.945 21.8422 51.8497 21.6442 51.725C21.4535 51.6003 21.2812 51.4537 21.1272 51.285C20.9732 51.109 20.8412 50.9183 20.7312 50.713L21.4792 49.932C21.6332 50.152 21.7725 50.328 21.8972 50.46C22.0292 50.592 22.1538 50.6947 22.2712 50.768C22.3885 50.8413 22.5058 50.8927 22.6232 50.922C22.7405 50.944 22.8652 50.955 22.9972 50.955C23.2612 50.955 23.4922 50.8963 23.6902 50.779C23.8882 50.6543 24.0422 50.4857 24.1522 50.273C24.2622 50.0603 24.3172 49.8183 24.3172 49.547V45.4H22.9092V44.3H26.6932V45.4H25.5052V49.657C25.5052 50.009 25.4428 50.3353 25.3182 50.636C25.2008 50.9293 25.0285 51.186 24.8012 51.406C24.5812 51.626 24.3172 51.7983 24.0092 51.923C23.7085 52.0477 23.3712 52.11 22.9972 52.11ZM29.7049 52.11C29.2283 52.11 28.7919 51.978 28.3959 51.714C28.0073 51.45 27.6956 51.0907 27.4609 50.636C27.2263 50.1813 27.1089 49.668 27.1089 49.096C27.1089 48.5167 27.2263 48.0033 27.4609 47.556C27.7029 47.1013 28.0256 46.7457 28.4289 46.489C28.8396 46.2323 29.2979 46.104 29.8039 46.104C30.1046 46.104 30.3796 46.148 30.6289 46.236C30.8783 46.324 31.0946 46.4487 31.2779 46.61C31.4686 46.764 31.6226 46.9437 31.7399 47.149C31.8646 47.3543 31.9416 47.5743 31.9709 47.809L31.7179 47.721V46.225H32.8619V52H31.7179V50.625L31.9819 50.548C31.9379 50.746 31.8463 50.9403 31.7069 51.131C31.5749 51.3143 31.4026 51.4793 31.1899 51.626C30.9846 51.7727 30.7536 51.89 30.4969 51.978C30.2476 52.066 29.9836 52.11 29.7049 52.11ZM30.0019 51.065C30.3466 51.065 30.6509 50.9807 30.9149 50.812C31.1789 50.6433 31.3843 50.4123 31.5309 50.119C31.6849 49.8183 31.7619 49.4773 31.7619 49.096C31.7619 48.722 31.6849 48.3883 31.5309 48.095C31.3843 47.8017 31.1789 47.5707 30.9149 47.402C30.6509 47.2333 30.3466 47.149 30.0019 47.149C29.6646 47.149 29.3639 47.2333 29.0999 47.402C28.8433 47.5707 28.6379 47.8017 28.4839 48.095C28.3373 48.3883 28.2639 48.722 28.2639 49.096C28.2639 49.4773 28.3373 49.8183 28.4839 50.119C28.6379 50.4123 28.8433 50.6433 29.0999 50.812C29.3639 50.9807 29.6646 51.065 30.0019 51.065ZM34.4219 52V46.225H35.5659V47.457L35.3569 47.589C35.4155 47.3983 35.5072 47.215 35.6319 47.039C35.7639 46.863 35.9215 46.709 36.1049 46.577C36.2955 46.4377 36.4972 46.3277 36.7099 46.247C36.9299 46.1663 37.1535 46.126 37.3809 46.126C37.7109 46.126 38.0005 46.181 38.2499 46.291C38.4992 46.401 38.7045 46.566 38.8659 46.786C39.0272 47.006 39.1445 47.281 39.2179 47.611L39.0419 47.567L39.1189 47.38C39.1995 47.2113 39.3095 47.0537 39.4489 46.907C39.5955 46.753 39.7605 46.6173 39.9439 46.5C40.1272 46.3827 40.3215 46.291 40.5269 46.225C40.7322 46.159 40.9339 46.126 41.1319 46.126C41.5645 46.126 41.9202 46.214 42.1989 46.39C42.4849 46.566 42.6975 46.8337 42.8369 47.193C42.9835 47.5523 43.0569 47.9997 43.0569 48.535V52H41.9129V48.601C41.9129 48.271 41.8689 48.0033 41.7809 47.798C41.7002 47.5853 41.5755 47.4277 41.4069 47.325C41.2382 47.2223 41.0219 47.171 40.7579 47.171C40.5525 47.171 40.3582 47.2077 40.1749 47.281C39.9989 47.347 39.8449 47.4423 39.7129 47.567C39.5809 47.6917 39.4782 47.8383 39.4049 48.007C39.3315 48.1683 39.2949 48.348 39.2949 48.546V52H38.1509V48.579C38.1509 48.2783 38.1069 48.0253 38.0189 47.82C37.9309 47.6073 37.8025 47.446 37.6339 47.336C37.4652 47.226 37.2599 47.171 37.0179 47.171C36.8125 47.171 36.6219 47.2077 36.4459 47.281C36.2699 47.347 36.1159 47.4423 35.9839 47.567C35.8519 47.6843 35.7492 47.8273 35.6759 47.996C35.6025 48.1573 35.5659 48.3333 35.5659 48.524V52H34.4219ZM47.2687 52.11C46.6747 52.11 46.1467 51.9853 45.6847 51.736C45.2301 51.4793 44.8707 51.131 44.6067 50.691C44.3501 50.251 44.2217 49.745 44.2217 49.173C44.2217 48.7183 44.2951 48.304 44.4417 47.93C44.5884 47.556 44.7901 47.2333 45.0467 46.962C45.3107 46.6833 45.6224 46.4707 45.9817 46.324C46.3484 46.17 46.7444 46.093 47.1697 46.093C47.5437 46.093 47.8921 46.1663 48.2147 46.313C48.5374 46.4523 48.8161 46.6467 49.0507 46.896C49.2927 47.1453 49.4761 47.4423 49.6007 47.787C49.7327 48.1243 49.7951 48.4947 49.7877 48.898L49.7767 49.382H45.0577L44.8047 48.48H48.7977L48.6327 48.667V48.403C48.6107 48.161 48.5301 47.9447 48.3907 47.754C48.2514 47.5633 48.0754 47.413 47.8627 47.303C47.6501 47.193 47.4191 47.138 47.1697 47.138C46.7737 47.138 46.4401 47.215 46.1687 47.369C45.8974 47.5157 45.6921 47.7357 45.5527 48.029C45.4134 48.315 45.3437 48.6707 45.3437 49.096C45.3437 49.4993 45.4281 49.8513 45.5967 50.152C45.7654 50.4453 46.0037 50.6727 46.3117 50.834C46.6197 50.9953 46.9754 51.076 47.3787 51.076C47.6647 51.076 47.9287 51.0283 48.1707 50.933C48.4201 50.8377 48.6877 50.6653 48.9737 50.416L49.5457 51.219C49.3697 51.395 49.1534 51.549 48.8967 51.681C48.6474 51.813 48.3797 51.9193 48.0937 52C47.8151 52.0733 47.5401 52.11 47.2687 52.11ZM52.9441 52.11C52.4601 52.11 52.0237 52.0257 51.6351 51.857C51.2464 51.6883 50.9237 51.439 50.6671 51.109L51.4371 50.449C51.6571 50.7057 51.8954 50.8927 52.1521 51.01C52.4161 51.12 52.7131 51.175 53.0431 51.175C53.1751 51.175 53.2961 51.1603 53.4061 51.131C53.5234 51.0943 53.6224 51.043 53.7031 50.977C53.7911 50.911 53.8571 50.834 53.9011 50.746C53.9451 50.6507 53.9671 50.548 53.9671 50.438C53.9671 50.2473 53.8974 50.0933 53.7581 49.976C53.6847 49.9247 53.5674 49.8697 53.4061 49.811C53.2521 49.745 53.0504 49.679 52.8011 49.613C52.3757 49.503 52.0274 49.3783 51.7561 49.239C51.4847 49.0997 51.2757 48.942 51.1291 48.766C51.0191 48.6267 50.9384 48.4763 50.8871 48.315C50.8357 48.1463 50.8101 47.963 50.8101 47.765C50.8101 47.523 50.8614 47.303 50.9641 47.105C51.0741 46.8997 51.2207 46.7237 51.4041 46.577C51.5947 46.423 51.8147 46.3057 52.0641 46.225C52.3207 46.1443 52.5921 46.104 52.8781 46.104C53.1494 46.104 53.4171 46.1407 53.6811 46.214C53.9524 46.2873 54.2017 46.3937 54.4291 46.533C54.6564 46.6723 54.8471 46.8373 55.0011 47.028L54.3521 47.743C54.2127 47.6037 54.0587 47.4827 53.8901 47.38C53.7287 47.27 53.5637 47.1857 53.3951 47.127C53.2264 47.0683 53.0724 47.039 52.9331 47.039C52.7791 47.039 52.6397 47.0537 52.5151 47.083C52.3904 47.1123 52.2841 47.1563 52.1961 47.215C52.1154 47.2737 52.0531 47.347 52.0091 47.435C51.9651 47.523 51.9431 47.622 51.9431 47.732C51.9504 47.8273 51.9724 47.919 52.0091 48.007C52.0531 48.0877 52.1117 48.1573 52.1851 48.216C52.2657 48.2747 52.3867 48.337 52.5481 48.403C52.7094 48.469 52.9147 48.5313 53.1641 48.59C53.5307 48.6853 53.8314 48.7917 54.0661 48.909C54.3081 49.019 54.4987 49.1473 54.6381 49.294C54.7847 49.4333 54.8874 49.5947 54.9461 49.778C55.0047 49.9613 55.0341 50.1667 55.0341 50.394C55.0341 50.724 54.9387 51.021 54.7481 51.285C54.5647 51.5417 54.3154 51.7433 54.0001 51.89C53.6847 52.0367 53.3327 52.11 52.9441 52.11Z" fill="black"/>
<path d="M41 4V11M41 28V11M49 11H41M41 11H33" stroke="#484848" stroke-width="4"/>
</svg>
