<?xml version="1.0" ?><svg viewBox="0 0 64 64" xmlns="http://www.w3.org/2000/svg"><g id="Achievement"><path d="M23.7618,38.58,22.44,36.6169a3.94,3.94,0,0,0-6.5348-.001L3.7471,54.6567a1.65,1.65,0,0,0,1.3676,2.5725l9.2846.0052a5.0314,5.0314,0,0,1,.2766-5.1716Z"/><path d="M60.7,53.5947,43.4436,27.97a5.5188,5.5188,0,0,0-2.8862-2.1814V16.3859a7.484,7.484,0,0,1,5.2049.5717c2.8446,1.5171,8.3026,1.0733,10.7019.7826a1.344,1.344,0,0,0,1.1808-1.3386v-9.98a1.3436,1.3436,0,0,0-1.698-1.301C53.8113,5.704,50.0813,6.31,47.2479,4.56c-4.2091-2.6-9.256,0-9.256,0v.011a1.7426,1.7426,0,0,0-.9345,1.54V25.7873a5.5211,5.5211,0,0,0-2.888,2.1807l-4.5222,6.71a8.5283,8.5283,0,0,1,6.5811,2.2557,8.8612,8.8612,0,0,0,5.58,2.1328,1.25,1.25,0,0,1-.0713,2.4981c-.0244,0-.0488-.001-.0732-.002a11.4859,11.4859,0,0,1-7.043-2.7148c-3.4492-2.897-6.24-1.4531-7.387-.5884L16.9149,53.5717a2.342,2.342,0,0,0,1.9409,3.6509l39.9.0225A2.3422,2.3422,0,0,0,60.7,53.5947Z"/></g></svg>