<svg width="70" height="82" viewBox="0 0 70 82" fill="none" xmlns="http://www.w3.org/2000/svg">
<path d="M37.0657 4.5H31.9343C31.5349 4.5 31.2967 4.94507 31.5182 5.27735L32.916 7.37404C32.9708 7.45617 33 7.55268 33 7.65139V9V13C33 13.2761 32.7761 13.5 32.5 13.5H28.5H25.6514C25.5527 13.5 25.4562 13.4708 25.374 13.416L23.2773 12.0182C22.9451 11.7967 22.5 12.0349 22.5 12.4343V17.5657C22.5 17.9651 22.9451 18.2033 23.2774 17.9818L25.374 16.584C25.4562 16.5292 25.5527 16.5 25.6514 16.5H28.5H32.5C32.7761 16.5 33 16.7239 33 17V20.5V36.382C33 36.4596 32.9819 36.5361 32.9472 36.6056L31.8618 38.7764C31.6956 39.1088 31.9373 39.5 32.309 39.5H36.691C37.0627 39.5 37.3044 39.1088 37.1382 38.7764L36.0528 36.6056C36.0181 36.5361 36 36.4596 36 36.382V20.5V17C36 16.7239 36.2239 16.5 36.5 16.5H40.5H43.3486C43.4473 16.5 43.5438 16.5292 43.626 16.584L45.7227 17.9818C46.0549 18.2033 46.5 17.9651 46.5 17.5657V12.4343C46.5 12.0349 46.0549 11.7967 45.7227 12.0182L43.626 13.416C43.5438 13.4708 43.4473 13.5 43.3486 13.5H40.5H36.5C36.2239 13.5 36 13.2761 36 13V9V7.65139C36 7.55268 36.0292 7.45617 36.084 7.37404L37.4818 5.27735C37.7033 4.94507 37.4651 4.5 37.0657 4.5Z" fill="#4F4533"/>
<path d="M33 9V13C33 13.2761 32.7761 13.5 32.5 13.5H28.5M33 9V7.65139C33 7.55268 32.9708 7.45617 32.916 7.37404L31.5182 5.27735C31.2967 4.94507 31.5349 4.5 31.9343 4.5H37.0657C37.4651 4.5 37.7033 4.94507 37.4818 5.27735L36.084 7.37404C36.0292 7.45617 36 7.55268 36 7.65139V9M33 9C30.5 9 28.5 11 28.5 13.5M28.5 13.5H25.6514C25.5527 13.5 25.4562 13.4708 25.374 13.416L23.2773 12.0182C22.9451 11.7967 22.5 12.0349 22.5 12.4343V17.5657C22.5 17.9651 22.9451 18.2033 23.2774 17.9818L25.374 16.584C25.4562 16.5292 25.5527 16.5 25.6514 16.5H28.5M36 9V13C36 13.2761 36.2239 13.5 36.5 13.5H40.5M36 9C38.5 9 40.5 11 40.5 13.5M40.5 13.5H43.3486C43.4473 13.5 43.5438 13.4708 43.626 13.416L45.7227 12.0182C46.0549 11.7967 46.5 12.0349 46.5 12.4343V17.5657C46.5 17.9651 46.0549 18.2033 45.7226 17.9818L43.626 16.584C43.5438 16.5292 43.4473 16.5 43.3486 16.5H40.5M40.5 16.5H36.5C36.2239 16.5 36 16.7239 36 17V20.5M40.5 16.5C40.5 19 38.5 20.5 36 20.5M36 20.5V36.382C36 36.4596 36.0181 36.5361 36.0528 36.6056L37.1382 38.7764C37.3044 39.1088 37.0627 39.5 36.691 39.5H32.309C31.9373 39.5 31.6956 39.1088 31.8618 38.7764L32.9472 36.6056C32.9819 36.5361 33 36.4596 33 36.382V20.5M33 20.5V17C33 16.7239 32.7761 16.5 32.5 16.5H28.5M33 20.5C30.5 20.5 28.5 19 28.5 16.5" stroke="black"/>
<path d="M10.3605 50.11C9.7812 50.11 9.24586 50.0147 8.75453 49.824C8.27053 49.626 7.84886 49.351 7.48953 48.999C7.1302 48.6397 6.85153 48.218 6.65353 47.734C6.46286 47.2427 6.36753 46.7037 6.36753 46.117C6.36753 45.545 6.4702 45.017 6.67553 44.533C6.88086 44.049 7.1632 43.631 7.52253 43.279C7.8892 42.9197 8.3182 42.641 8.80953 42.443C9.3082 42.245 9.85086 42.146 10.4375 42.146C10.8042 42.146 11.1635 42.1937 11.5155 42.289C11.8675 42.3843 12.1939 42.5273 12.4945 42.718C12.8025 42.9013 13.0665 43.1213 13.2865 43.378L12.1425 44.687C11.9885 44.5257 11.8235 44.3863 11.6475 44.269C11.4789 44.1443 11.2919 44.049 11.0865 43.983C10.8812 43.917 10.6612 43.884 10.4265 43.884C10.1332 43.884 9.85453 43.939 9.59053 44.049C9.33386 44.1517 9.10653 44.302 8.90853 44.5C8.71786 44.6907 8.56753 44.9253 8.45753 45.204C8.34753 45.4827 8.29253 45.7943 8.29253 46.139C8.29253 46.4763 8.34753 46.7843 8.45753 47.063C8.56753 47.3343 8.72153 47.569 8.91953 47.767C9.11753 47.965 9.35586 48.1153 9.63453 48.218C9.92053 48.3207 10.2359 48.372 10.5805 48.372C10.8152 48.372 11.0389 48.339 11.2515 48.273C11.4642 48.207 11.6585 48.119 11.8345 48.009C12.0179 47.8917 12.1792 47.7597 12.3185 47.613L13.2205 49.043C13.0372 49.2483 12.7915 49.4317 12.4835 49.593C12.1829 49.7543 11.8455 49.8827 11.4715 49.978C11.1049 50.066 10.7345 50.11 10.3605 50.11ZM17.0632 50.11C16.4546 50.11 15.9119 49.978 15.4352 49.714C14.9659 49.45 14.5919 49.0907 14.3132 48.636C14.0419 48.1813 13.9062 47.6607 13.9062 47.074C13.9062 46.4873 14.0419 45.9667 14.3132 45.512C14.5919 45.0573 14.9659 44.698 15.4352 44.434C15.9119 44.17 16.4546 44.038 17.0632 44.038C17.6719 44.038 18.2109 44.17 18.6802 44.434C19.1569 44.698 19.5309 45.0573 19.8022 45.512C20.0736 45.9667 20.2092 46.4873 20.2092 47.074C20.2092 47.6607 20.0736 48.1813 19.8022 48.636C19.5309 49.0907 19.1569 49.45 18.6802 49.714C18.2109 49.978 17.6719 50.11 17.0632 50.11ZM17.0632 48.592C17.3272 48.592 17.5619 48.526 17.7672 48.394C17.9726 48.262 18.1339 48.0823 18.2512 47.855C18.3686 47.6277 18.4236 47.3673 18.4162 47.074C18.4236 46.7807 18.3686 46.5203 18.2512 46.293C18.1339 46.0583 17.9726 45.875 17.7672 45.743C17.5619 45.611 17.3272 45.545 17.0632 45.545C16.7992 45.545 16.5609 45.611 16.3482 45.743C16.1429 45.875 15.9816 46.0583 15.8642 46.293C15.7469 46.5203 15.6919 46.7807 15.6992 47.074C15.6919 47.3673 15.7469 47.6277 15.8642 47.855C15.9816 48.0823 16.1429 48.262 16.3482 48.394C16.5609 48.526 16.7992 48.592 17.0632 48.592ZM21.3601 52.42V44.159H23.0321L23.0981 45.468L22.7681 45.369C22.8194 45.127 22.9441 44.907 23.1421 44.709C23.3401 44.511 23.5894 44.3533 23.8901 44.236C24.1981 44.1113 24.5208 44.049 24.8581 44.049C25.3568 44.049 25.8004 44.181 26.1891 44.445C26.5778 44.7017 26.8821 45.0573 27.1021 45.512C27.3294 45.9593 27.4431 46.48 27.4431 47.074C27.4431 47.6607 27.3294 48.1813 27.1021 48.636C26.8821 49.0907 26.5741 49.45 26.1781 49.714C25.7894 49.9707 25.3421 50.099 24.8361 50.099C24.5061 50.099 24.1908 50.0367 23.8901 49.912C23.5894 49.7873 23.3364 49.6187 23.1311 49.406C22.9258 49.1933 22.7901 48.9623 22.7241 48.713L23.1311 48.559V52.42H21.3601ZM24.4071 48.614C24.6711 48.614 24.9021 48.5517 25.1001 48.427C25.2981 48.295 25.4521 48.1153 25.5621 47.888C25.6721 47.6607 25.7271 47.3893 25.7271 47.074C25.7271 46.766 25.6721 46.4983 25.5621 46.271C25.4521 46.0363 25.2981 45.8567 25.1001 45.732C24.9094 45.6 24.6784 45.534 24.4071 45.534C24.1358 45.534 23.9011 45.5963 23.7031 45.721C23.5051 45.8457 23.3511 46.0253 23.2411 46.26C23.1311 46.4947 23.0761 46.766 23.0761 47.074C23.0761 47.3893 23.1311 47.6607 23.2411 47.888C23.3511 48.1153 23.5051 48.295 23.7031 48.427C23.9011 48.5517 24.1358 48.614 24.4071 48.614ZM28.6111 52.42V44.159H30.2831L30.3491 45.468L30.0191 45.369C30.0704 45.127 30.1951 44.907 30.3931 44.709C30.5911 44.511 30.8404 44.3533 31.1411 44.236C31.4491 44.1113 31.7717 44.049 32.1091 44.049C32.6077 44.049 33.0514 44.181 33.4401 44.445C33.8287 44.7017 34.1331 45.0573 34.3531 45.512C34.5804 45.9593 34.6941 46.48 34.6941 47.074C34.6941 47.6607 34.5804 48.1813 34.3531 48.636C34.1331 49.0907 33.8251 49.45 33.4291 49.714C33.0404 49.9707 32.5931 50.099 32.0871 50.099C31.7571 50.099 31.4417 50.0367 31.1411 49.912C30.8404 49.7873 30.5874 49.6187 30.3821 49.406C30.1767 49.1933 30.0411 48.9623 29.9751 48.713L30.3821 48.559V52.42H28.6111ZM31.6581 48.614C31.9221 48.614 32.1531 48.5517 32.3511 48.427C32.5491 48.295 32.7031 48.1153 32.8131 47.888C32.9231 47.6607 32.9781 47.3893 32.9781 47.074C32.9781 46.766 32.9231 46.4983 32.8131 46.271C32.7031 46.0363 32.5491 45.8567 32.3511 45.732C32.1604 45.6 31.9294 45.534 31.6581 45.534C31.3867 45.534 31.1521 45.5963 30.9541 45.721C30.7561 45.8457 30.6021 46.0253 30.4921 46.26C30.3821 46.4947 30.3271 46.766 30.3271 47.074C30.3271 47.3893 30.3821 47.6607 30.4921 47.888C30.6021 48.1153 30.7561 48.295 30.9541 48.427C31.1521 48.5517 31.3867 48.614 31.6581 48.614ZM38.6451 50.11C37.9997 50.11 37.4387 49.9817 36.9621 49.725C36.4854 49.461 36.1151 49.1053 35.8511 48.658C35.5871 48.2033 35.4551 47.6863 35.4551 47.107C35.4551 46.6597 35.5284 46.249 35.6751 45.875C35.8217 45.501 36.0271 45.1783 36.2911 44.907C36.5551 44.6283 36.8667 44.4157 37.2261 44.269C37.5927 44.115 37.9924 44.038 38.4251 44.038C38.8357 44.038 39.2097 44.1113 39.5471 44.258C39.8917 44.4047 40.1887 44.61 40.4381 44.874C40.6874 45.138 40.8781 45.4497 41.0101 45.809C41.1421 46.1683 41.2007 46.5607 41.1861 46.986L41.1751 47.459H36.5221L36.2691 46.469H39.7451L39.5581 46.678V46.458C39.5434 46.2747 39.4847 46.1133 39.3821 45.974C39.2867 45.8273 39.1584 45.7137 38.9971 45.633C38.8357 45.5523 38.6524 45.512 38.4471 45.512C38.1611 45.512 37.9154 45.5707 37.7101 45.688C37.5121 45.798 37.3617 45.963 37.2591 46.183C37.1564 46.3957 37.1051 46.6597 37.1051 46.975C37.1051 47.2977 37.1711 47.58 37.3031 47.822C37.4424 48.0567 37.6404 48.24 37.8971 48.372C38.1611 48.504 38.4727 48.57 38.8321 48.57C39.0814 48.57 39.3014 48.5333 39.4921 48.46C39.6901 48.3867 39.9027 48.262 40.1301 48.086L40.9551 49.252C40.7277 49.45 40.4857 49.6113 40.2291 49.736C39.9724 49.8607 39.7084 49.9523 39.4371 50.011C39.1731 50.077 38.9091 50.11 38.6451 50.11ZM42.3074 50V44.159H43.9794L44.0564 46.062L43.7264 45.699C43.8144 45.3837 43.9574 45.1013 44.1554 44.852C44.3607 44.6027 44.599 44.4047 44.8704 44.258C45.1417 44.1113 45.4314 44.038 45.7394 44.038C45.8714 44.038 45.9924 44.049 46.1024 44.071C46.2197 44.093 46.326 44.1187 46.4214 44.148L45.9374 46.095C45.8567 46.0437 45.7467 46.0033 45.6074 45.974C45.4754 45.9373 45.336 45.919 45.1894 45.919C45.028 45.919 44.8777 45.9483 44.7384 46.007C44.599 46.0583 44.4817 46.1353 44.3864 46.238C44.291 46.3407 44.214 46.4617 44.1554 46.601C44.104 46.7403 44.0784 46.898 44.0784 47.074V50H42.3074ZM48.0121 50V42.685H49.7721V50H48.0121ZM46.9781 45.699V44.159H50.9051V45.699H46.9781ZM54.6072 50.11C53.9985 50.11 53.4558 49.978 52.9792 49.714C52.5098 49.45 52.1358 49.0907 51.8572 48.636C51.5858 48.1813 51.4502 47.6607 51.4502 47.074C51.4502 46.4873 51.5858 45.9667 51.8572 45.512C52.1358 45.0573 52.5098 44.698 52.9792 44.434C53.4558 44.17 53.9985 44.038 54.6072 44.038C55.2158 44.038 55.7548 44.17 56.2242 44.434C56.7008 44.698 57.0748 45.0573 57.3462 45.512C57.6175 45.9667 57.7532 46.4873 57.7532 47.074C57.7532 47.6607 57.6175 48.1813 57.3462 48.636C57.0748 49.0907 56.7008 49.45 56.2242 49.714C55.7548 49.978 55.2158 50.11 54.6072 50.11ZM54.6072 48.592C54.8712 48.592 55.1058 48.526 55.3112 48.394C55.5165 48.262 55.6778 48.0823 55.7952 47.855C55.9125 47.6277 55.9675 47.3673 55.9602 47.074C55.9675 46.7807 55.9125 46.5203 55.7952 46.293C55.6778 46.0583 55.5165 45.875 55.3112 45.743C55.1058 45.611 54.8712 45.545 54.6072 45.545C54.3432 45.545 54.1048 45.611 53.8922 45.743C53.6868 45.875 53.5255 46.0583 53.4082 46.293C53.2908 46.5203 53.2358 46.7807 53.2432 47.074C53.2358 47.3673 53.2908 47.6277 53.4082 47.855C53.5255 48.0823 53.6868 48.262 53.8922 48.394C54.1048 48.526 54.3432 48.592 54.6072 48.592ZM58.904 50V44.159H60.576L60.631 45.347L60.279 45.479C60.3597 45.215 60.5027 44.9767 60.708 44.764C60.9207 44.544 61.1737 44.368 61.467 44.236C61.7604 44.104 62.0684 44.038 62.391 44.038C62.831 44.038 63.2014 44.1297 63.502 44.313C63.8027 44.489 64.03 44.7567 64.184 45.116C64.338 45.468 64.415 45.9007 64.415 46.414V50H62.644V46.557C62.644 46.3223 62.611 46.128 62.545 45.974C62.479 45.82 62.3764 45.7063 62.237 45.633C62.105 45.5523 61.94 45.5157 61.742 45.523C61.588 45.523 61.445 45.5487 61.313 45.6C61.181 45.644 61.0674 45.7137 60.972 45.809C60.8767 45.897 60.7997 45.9997 60.741 46.117C60.6897 46.2343 60.664 46.3627 60.664 46.502V50H59.795C59.5897 50 59.4137 50 59.267 50C59.1204 50 58.9994 50 58.904 50ZM3.66798 64V62.9H4.91098V57.4H3.66798V56.3H7.34198V57.4H6.09898V62.9H7.34198V64H3.66798ZM8.89891 64V58.225H10.0429V59.457L9.83391 59.589C9.89257 59.3983 9.98424 59.215 10.1089 59.039C10.2409 58.863 10.3986 58.709 10.5819 58.577C10.7726 58.4377 10.9742 58.3277 11.1869 58.247C11.4069 58.1663 11.6306 58.126 11.8579 58.126C12.1879 58.126 12.4776 58.181 12.7269 58.291C12.9762 58.401 13.1816 58.566 13.3429 58.786C13.5042 59.006 13.6216 59.281 13.6949 59.611L13.5189 59.567L13.5959 59.38C13.6766 59.2113 13.7866 59.0537 13.9259 58.907C14.0726 58.753 14.2376 58.6173 14.4209 58.5C14.6042 58.3827 14.7986 58.291 15.0039 58.225C15.2092 58.159 15.4109 58.126 15.6089 58.126C16.0416 58.126 16.3972 58.214 16.6759 58.39C16.9619 58.566 17.1746 58.8337 17.3139 59.193C17.4606 59.5523 17.5339 59.9997 17.5339 60.535V64H16.3899V60.601C16.3899 60.271 16.3459 60.0033 16.2579 59.798C16.1772 59.5853 16.0526 59.4277 15.8839 59.325C15.7152 59.2223 15.4989 59.171 15.2349 59.171C15.0296 59.171 14.8352 59.2077 14.6519 59.281C14.4759 59.347 14.3219 59.4423 14.1899 59.567C14.0579 59.6917 13.9552 59.8383 13.8819 60.007C13.8086 60.1683 13.7719 60.348 13.7719 60.546V64H12.6279V60.579C12.6279 60.2783 12.5839 60.0253 12.4959 59.82C12.4079 59.6073 12.2796 59.446 12.1109 59.336C11.9422 59.226 11.7369 59.171 11.4949 59.171C11.2896 59.171 11.0989 59.2077 10.9229 59.281C10.7469 59.347 10.5929 59.4423 10.4609 59.567C10.3289 59.6843 10.2262 59.8273 10.1529 59.996C10.0796 60.1573 10.0429 60.3333 10.0429 60.524V64H8.89891ZM19.0288 64V58.225H20.1728V59.457L19.9638 59.589C20.0225 59.3983 20.1141 59.215 20.2388 59.039C20.3708 58.863 20.5285 58.709 20.7118 58.577C20.9025 58.4377 21.1041 58.3277 21.3168 58.247C21.5368 58.1663 21.7605 58.126 21.9878 58.126C22.3178 58.126 22.6075 58.181 22.8568 58.291C23.1061 58.401 23.3115 58.566 23.4728 58.786C23.6341 59.006 23.7515 59.281 23.8248 59.611L23.6488 59.567L23.7258 59.38C23.8065 59.2113 23.9165 59.0537 24.0558 58.907C24.2025 58.753 24.3675 58.6173 24.5508 58.5C24.7341 58.3827 24.9285 58.291 25.1338 58.225C25.3391 58.159 25.5408 58.126 25.7388 58.126C26.1715 58.126 26.5271 58.214 26.8058 58.39C27.0918 58.566 27.3045 58.8337 27.4438 59.193C27.5905 59.5523 27.6638 59.9997 27.6638 60.535V64H26.5198V60.601C26.5198 60.271 26.4758 60.0033 26.3878 59.798C26.3071 59.5853 26.1825 59.4277 26.0138 59.325C25.8451 59.2223 25.6288 59.171 25.3648 59.171C25.1595 59.171 24.9651 59.2077 24.7818 59.281C24.6058 59.347 24.4518 59.4423 24.3198 59.567C24.1878 59.6917 24.0851 59.8383 24.0118 60.007C23.9385 60.1683 23.9018 60.348 23.9018 60.546V64H22.7578V60.579C22.7578 60.2783 22.7138 60.0253 22.6258 59.82C22.5378 59.6073 22.4095 59.446 22.2408 59.336C22.0721 59.226 21.8668 59.171 21.6248 59.171C21.4195 59.171 21.2288 59.2077 21.0528 59.281C20.8768 59.347 20.7228 59.4423 20.5908 59.567C20.4588 59.6843 20.3561 59.8273 20.2828 59.996C20.2095 60.1573 20.1728 60.3333 20.1728 60.524V64H19.0288ZM31.4027 64.11C30.926 64.11 30.4897 63.978 30.0937 63.714C29.705 63.45 29.3933 63.0907 29.1587 62.636C28.924 62.1813 28.8067 61.668 28.8067 61.096C28.8067 60.5167 28.924 60.0033 29.1587 59.556C29.4007 59.1013 29.7233 58.7457 30.1267 58.489C30.5373 58.2323 30.9957 58.104 31.5017 58.104C31.8023 58.104 32.0773 58.148 32.3267 58.236C32.576 58.324 32.7923 58.4487 32.9757 58.61C33.1663 58.764 33.3203 58.9437 33.4377 59.149C33.5623 59.3543 33.6393 59.5743 33.6687 59.809L33.4157 59.721V58.225H34.5597V64H33.4157V62.625L33.6797 62.548C33.6357 62.746 33.544 62.9403 33.4047 63.131C33.2727 63.3143 33.1003 63.4793 32.8877 63.626C32.6823 63.7727 32.4513 63.89 32.1947 63.978C31.9453 64.066 31.6813 64.11 31.4027 64.11ZM31.6997 63.065C32.0443 63.065 32.3487 62.9807 32.6127 62.812C32.8767 62.6433 33.082 62.4123 33.2287 62.119C33.3827 61.8183 33.4597 61.4773 33.4597 61.096C33.4597 60.722 33.3827 60.3883 33.2287 60.095C33.082 59.8017 32.8767 59.5707 32.6127 59.402C32.3487 59.2333 32.0443 59.149 31.6997 59.149C31.3623 59.149 31.0617 59.2333 30.7977 59.402C30.541 59.5707 30.3357 59.8017 30.1817 60.095C30.035 60.3883 29.9617 60.722 29.9617 61.096C29.9617 61.4773 30.035 61.8183 30.1817 62.119C30.3357 62.4123 30.541 62.6433 30.7977 62.812C31.0617 62.9807 31.3623 63.065 31.6997 63.065ZM38.5946 64.11C38.0593 64.11 37.5789 63.978 37.1536 63.714C36.7356 63.45 36.4019 63.0907 36.1526 62.636C35.9106 62.1813 35.7896 61.6717 35.7896 61.107C35.7896 60.5423 35.9106 60.0327 36.1526 59.578C36.4019 59.1233 36.7356 58.764 37.1536 58.5C37.5789 58.236 38.0593 58.104 38.5946 58.104C39.1079 58.104 39.5736 58.2103 39.9916 58.423C40.4169 58.6283 40.7396 58.9107 40.9596 59.27L40.3326 60.04C40.2153 59.8713 40.0649 59.7173 39.8816 59.578C39.6983 59.4387 39.5039 59.3287 39.2986 59.248C39.0933 59.1673 38.8953 59.127 38.7046 59.127C38.3526 59.127 38.0373 59.215 37.7586 59.391C37.4873 59.5597 37.2709 59.7943 37.1096 60.095C36.9483 60.3957 36.8676 60.733 36.8676 61.107C36.8676 61.481 36.9519 61.8183 37.1206 62.119C37.2893 62.4123 37.5129 62.647 37.7916 62.823C38.0703 62.999 38.3783 63.087 38.7156 63.087C38.9136 63.087 39.1043 63.054 39.2876 62.988C39.4783 62.922 39.6616 62.823 39.8376 62.691C40.0136 62.559 40.1786 62.3977 40.3326 62.207L40.9596 62.977C40.7249 63.307 40.3876 63.5783 39.9476 63.791C39.5149 64.0037 39.0639 64.11 38.5946 64.11ZM44.0523 64.11C43.6417 64.11 43.2823 64.0147 42.9743 63.824C42.6737 63.6333 42.439 63.3657 42.2703 63.021C42.109 62.6763 42.0283 62.2657 42.0283 61.789V58.225H43.1613V61.481C43.1613 61.8183 43.2127 62.1117 43.3153 62.361C43.4253 62.603 43.5793 62.79 43.7773 62.922C43.9827 63.054 44.2283 63.12 44.5143 63.12C44.727 63.12 44.9213 63.087 45.0973 63.021C45.2733 62.9477 45.4237 62.8487 45.5483 62.724C45.6803 62.5993 45.783 62.449 45.8563 62.273C45.9297 62.097 45.9663 61.9063 45.9663 61.701V58.225H47.0993V64H45.9663V62.79L46.1643 62.658C46.0763 62.9293 45.926 63.175 45.7133 63.395C45.508 63.615 45.2623 63.791 44.9763 63.923C44.6903 64.0477 44.3823 64.11 44.0523 64.11ZM48.7105 64V55.86H49.8435V64H48.7105ZM53.5638 64.11C53.0871 64.11 52.6508 63.978 52.2548 63.714C51.8661 63.45 51.5545 63.0907 51.3198 62.636C51.0851 62.1813 50.9678 61.668 50.9678 61.096C50.9678 60.5167 51.0851 60.0033 51.3198 59.556C51.5618 59.1013 51.8845 58.7457 52.2878 58.489C52.6985 58.2323 53.1568 58.104 53.6628 58.104C53.9635 58.104 54.2385 58.148 54.4878 58.236C54.7371 58.324 54.9535 58.4487 55.1368 58.61C55.3275 58.764 55.4815 58.9437 55.5988 59.149C55.7235 59.3543 55.8005 59.5743 55.8298 59.809L55.5768 59.721V58.225H56.7208V64H55.5768V62.625L55.8408 62.548C55.7968 62.746 55.7051 62.9403 55.5658 63.131C55.4338 63.3143 55.2615 63.4793 55.0488 63.626C54.8435 63.7727 54.6125 63.89 54.3558 63.978C54.1065 64.066 53.8425 64.11 53.5638 64.11ZM53.8608 63.065C54.2055 63.065 54.5098 62.9807 54.7738 62.812C55.0378 62.6433 55.2431 62.4123 55.3898 62.119C55.5438 61.8183 55.6208 61.4773 55.6208 61.096C55.6208 60.722 55.5438 60.3883 55.3898 60.095C55.2431 59.8017 55.0378 59.5707 54.7738 59.402C54.5098 59.2333 54.2055 59.149 53.8608 59.149C53.5235 59.149 53.2228 59.2333 52.9588 59.402C52.7021 59.5707 52.4968 59.8017 52.3428 60.095C52.1961 60.3883 52.1228 60.722 52.1228 61.096C52.1228 61.4773 52.1961 61.8183 52.3428 62.119C52.4968 62.4123 52.7021 62.6433 52.9588 62.812C53.2228 62.9807 53.5235 63.065 53.8608 63.065ZM59.0177 64V56.751H60.1507V64H59.0177ZM57.8187 59.325V58.225H61.4927V59.325H57.8187ZM65.1657 64.11C64.5717 64.11 64.0437 63.9853 63.5817 63.736C63.127 63.4793 62.7677 63.131 62.5037 62.691C62.247 62.251 62.1187 61.745 62.1187 61.173C62.1187 60.7183 62.192 60.304 62.3387 59.93C62.4854 59.556 62.687 59.2333 62.9437 58.962C63.2077 58.6833 63.5194 58.4707 63.8787 58.324C64.2454 58.17 64.6414 58.093 65.0667 58.093C65.4407 58.093 65.789 58.1663 66.1117 58.313C66.4344 58.4523 66.713 58.6467 66.9477 58.896C67.1897 59.1453 67.373 59.4423 67.4977 59.787C67.6297 60.1243 67.692 60.4947 67.6847 60.898L67.6737 61.382H62.9547L62.7017 60.48H66.6947L66.5297 60.667V60.403C66.5077 60.161 66.427 59.9447 66.2877 59.754C66.1484 59.5633 65.9724 59.413 65.7597 59.303C65.547 59.193 65.316 59.138 65.0667 59.138C64.6707 59.138 64.337 59.215 64.0657 59.369C63.7944 59.5157 63.589 59.7357 63.4497 60.029C63.3104 60.315 63.2407 60.6707 63.2407 61.096C63.2407 61.4993 63.325 61.8513 63.4937 62.152C63.6624 62.4453 63.9007 62.6727 64.2087 62.834C64.5167 62.9953 64.8724 63.076 65.2757 63.076C65.5617 63.076 65.8257 63.0283 66.0677 62.933C66.317 62.8377 66.5847 62.6653 66.8707 62.416L67.4427 63.219C67.2667 63.395 67.0504 63.549 66.7937 63.681C66.5444 63.813 66.2767 63.9193 65.9907 64C65.712 64.0733 65.437 64.11 65.1657 64.11ZM9.38218 78.11C8.84684 78.11 8.35551 78.0147 7.90818 77.824C7.46084 77.6333 7.07218 77.362 6.74218 77.01C6.41218 76.6507 6.15551 76.229 5.97218 75.745C5.79618 75.261 5.70818 74.7293 5.70818 74.15C5.70818 73.6 5.80351 73.0903 5.99418 72.621C6.19218 72.1443 6.46351 71.7263 6.80818 71.367C7.15284 71.0077 7.55251 70.729 8.00718 70.531C8.46184 70.333 8.95318 70.234 9.48118 70.234C9.85518 70.234 10.2182 70.2927 10.5702 70.41C10.9295 70.52 11.2522 70.6777 11.5382 70.883C11.8315 71.081 12.0698 71.3083 12.2532 71.565L11.4612 72.39C11.2485 72.1773 11.0322 72.0013 10.8122 71.862C10.5995 71.7153 10.3795 71.6053 10.1522 71.532C9.93218 71.4587 9.70851 71.422 9.48118 71.422C9.12184 71.422 8.78451 71.4917 8.46918 71.631C8.16118 71.763 7.88984 71.95 7.65518 72.192C7.42784 72.434 7.24818 72.7237 7.11618 73.061C6.98418 73.391 6.91818 73.754 6.91818 74.15C6.91818 74.568 6.98051 74.9493 7.10518 75.294C7.23718 75.6313 7.42051 75.921 7.65518 76.163C7.88984 76.405 8.16851 76.592 8.49118 76.724C8.82118 76.8487 9.18418 76.911 9.58018 76.911C9.82218 76.911 10.0605 76.878 10.2952 76.812C10.5298 76.746 10.7498 76.6507 10.9552 76.526C11.1605 76.4013 11.3475 76.2547 11.5162 76.086L12.1102 77.054C11.9415 77.252 11.7105 77.4317 11.4172 77.593C11.1312 77.7543 10.8085 77.8827 10.4492 77.978C10.0972 78.066 9.74151 78.11 9.38218 78.11ZM16.034 78.11C15.4693 78.11 14.9633 77.9817 14.516 77.725C14.076 77.461 13.7277 77.1053 13.471 76.658C13.2143 76.2033 13.086 75.6863 13.086 75.107C13.086 74.5277 13.2143 74.0143 13.471 73.567C13.7277 73.1123 14.076 72.7567 14.516 72.5C14.9633 72.236 15.4693 72.104 16.034 72.104C16.5913 72.104 17.09 72.236 17.53 72.5C17.9773 72.7567 18.3293 73.1123 18.586 73.567C18.8427 74.0143 18.971 74.5277 18.971 75.107C18.971 75.6863 18.8427 76.2033 18.586 76.658C18.3293 77.1053 17.9773 77.461 17.53 77.725C17.09 77.9817 16.5913 78.11 16.034 78.11ZM16.034 77.076C16.3787 77.076 16.6867 76.9917 16.958 76.823C17.2293 76.647 17.442 76.4123 17.596 76.119C17.75 75.8183 17.8233 75.481 17.816 75.107C17.8233 74.7257 17.75 74.3883 17.596 74.095C17.442 73.7943 17.2293 73.5597 16.958 73.391C16.6867 73.2223 16.3787 73.138 16.034 73.138C15.6893 73.138 15.3777 73.226 15.099 73.402C14.8277 73.5707 14.615 73.8053 14.461 74.106C14.307 74.3993 14.2337 74.733 14.241 75.107C14.2337 75.481 14.307 75.8183 14.461 76.119C14.615 76.4123 14.8277 76.647 15.099 76.823C15.3777 76.9917 15.6893 77.076 16.034 77.076ZM20.2056 78V72.225H21.3386V73.413L21.1406 73.545C21.2139 73.2883 21.3569 73.0537 21.5696 72.841C21.7822 72.621 22.0352 72.445 22.3286 72.313C22.6219 72.1737 22.9226 72.104 23.2306 72.104C23.6706 72.104 24.0372 72.192 24.3306 72.368C24.6239 72.5367 24.8439 72.797 24.9906 73.149C25.1372 73.501 25.2106 73.9447 25.2106 74.48V78H24.0776V74.557C24.0776 74.227 24.0336 73.9557 23.9456 73.743C23.8576 73.523 23.7219 73.3653 23.5386 73.27C23.3552 73.1673 23.1279 73.1233 22.8566 73.138C22.6366 73.138 22.4349 73.1747 22.2516 73.248C22.0682 73.314 21.9069 73.4093 21.7676 73.534C21.6356 73.6587 21.5292 73.8053 21.4486 73.974C21.3752 74.1353 21.3386 74.3113 21.3386 74.502V78H20.7776C20.6822 78 20.5869 78 20.4916 78C20.3962 78 20.3009 78 20.2056 78ZM29.2006 78.11C28.6652 78.11 28.1849 77.978 27.7596 77.714C27.3416 77.45 27.0079 77.0907 26.7586 76.636C26.5166 76.1813 26.3956 75.6717 26.3956 75.107C26.3956 74.5423 26.5166 74.0327 26.7586 73.578C27.0079 73.1233 27.3416 72.764 27.7596 72.5C28.1849 72.236 28.6652 72.104 29.2006 72.104C29.7139 72.104 30.1796 72.2103 30.5976 72.423C31.0229 72.6283 31.3456 72.9107 31.5656 73.27L30.9386 74.04C30.8212 73.8713 30.6709 73.7173 30.4876 73.578C30.3042 73.4387 30.1099 73.3287 29.9046 73.248C29.6992 73.1673 29.5012 73.127 29.3106 73.127C28.9586 73.127 28.6432 73.215 28.3646 73.391C28.0932 73.5597 27.8769 73.7943 27.7156 74.095C27.5542 74.3957 27.4736 74.733 27.4736 75.107C27.4736 75.481 27.5579 75.8183 27.7266 76.119C27.8952 76.4123 28.1189 76.647 28.3976 76.823C28.6762 76.999 28.9842 77.087 29.3216 77.087C29.5196 77.087 29.7102 77.054 29.8936 76.988C30.0842 76.922 30.2676 76.823 30.4436 76.691C30.6196 76.559 30.7846 76.3977 30.9386 76.207L31.5656 76.977C31.3309 77.307 30.9936 77.5783 30.5536 77.791C30.1209 78.0037 29.6699 78.11 29.2006 78.11ZM35.3293 78.11C34.7353 78.11 34.2073 77.9853 33.7453 77.736C33.2906 77.4793 32.9313 77.131 32.6673 76.691C32.4106 76.251 32.2823 75.745 32.2823 75.173C32.2823 74.7183 32.3556 74.304 32.5023 73.93C32.649 73.556 32.8506 73.2333 33.1073 72.962C33.3713 72.6833 33.683 72.4707 34.0423 72.324C34.409 72.17 34.805 72.093 35.2303 72.093C35.6043 72.093 35.9526 72.1663 36.2753 72.313C36.598 72.4523 36.8766 72.6467 37.1113 72.896C37.3533 73.1453 37.5366 73.4423 37.6613 73.787C37.7933 74.1243 37.8556 74.4947 37.8483 74.898L37.8373 75.382H33.1183L32.8653 74.48H36.8583L36.6933 74.667V74.403C36.6713 74.161 36.5906 73.9447 36.4513 73.754C36.312 73.5633 36.136 73.413 35.9233 73.303C35.7106 73.193 35.4796 73.138 35.2303 73.138C34.8343 73.138 34.5006 73.215 34.2293 73.369C33.958 73.5157 33.7526 73.7357 33.6133 74.029C33.474 74.315 33.4043 74.6707 33.4043 75.096C33.4043 75.4993 33.4886 75.8513 33.6573 76.152C33.826 76.4453 34.0643 76.6727 34.3723 76.834C34.6803 76.9953 35.036 77.076 35.4393 77.076C35.7253 77.076 35.9893 77.0283 36.2313 76.933C36.4806 76.8377 36.7483 76.6653 37.0343 76.416L37.6063 77.219C37.4303 77.395 37.214 77.549 36.9573 77.681C36.708 77.813 36.4403 77.9193 36.1543 78C35.8756 78.0733 35.6006 78.11 35.3293 78.11ZM39.0796 80.42V72.225H40.2236V73.545L40.0476 73.446C40.0916 73.226 40.2163 73.017 40.4216 72.819C40.6269 72.6137 40.8763 72.4487 41.1696 72.324C41.4703 72.192 41.7783 72.126 42.0936 72.126C42.6143 72.126 43.0763 72.2543 43.4796 72.511C43.8829 72.7677 44.2019 73.1197 44.4366 73.567C44.6713 74.0143 44.7886 74.5277 44.7886 75.107C44.7886 75.679 44.6713 76.1923 44.4366 76.647C44.2093 77.0943 43.8939 77.45 43.4906 77.714C43.0873 77.9707 42.6326 78.099 42.1266 78.099C41.7893 78.099 41.4629 78.033 41.1476 77.901C40.8323 77.7617 40.5646 77.5857 40.3446 77.373C40.1246 77.1603 39.9889 76.9403 39.9376 76.713L40.2236 76.559V80.42H39.0796ZM41.9396 77.054C42.2769 77.054 42.5776 76.9697 42.8416 76.801C43.1056 76.6323 43.3146 76.4013 43.4686 76.108C43.6226 75.8147 43.6996 75.481 43.6996 75.107C43.6996 74.733 43.6226 74.403 43.4686 74.117C43.3219 73.8237 43.1166 73.5927 42.8526 73.424C42.5886 73.2553 42.2843 73.171 41.9396 73.171C41.5949 73.171 41.2906 73.2553 41.0266 73.424C40.7626 73.5853 40.5536 73.8127 40.3996 74.106C40.2456 74.3993 40.1686 74.733 40.1686 75.107C40.1686 75.481 40.2456 75.8147 40.3996 76.108C40.5536 76.4013 40.7626 76.6323 41.0266 76.801C41.2906 76.9697 41.5949 77.054 41.9396 77.054ZM46.7341 78V70.751H47.8671V78H46.7341ZM45.5351 73.325V72.225H49.2091V73.325H45.5351ZM50.4277 78V72.225H51.5607V78H50.4277ZM50.9777 70.949C50.7357 70.949 50.5487 70.8867 50.4167 70.762C50.2847 70.6373 50.2187 70.4613 50.2187 70.234C50.2187 70.0213 50.2847 69.849 50.4167 69.717C50.5561 69.585 50.7431 69.519 50.9777 69.519C51.2197 69.519 51.4067 69.5813 51.5387 69.706C51.6707 69.8307 51.7367 70.0067 51.7367 70.234C51.7367 70.4467 51.6671 70.619 51.5277 70.751C51.3957 70.883 51.2124 70.949 50.9777 70.949ZM55.8983 78.11C55.3336 78.11 54.8276 77.9817 54.3803 77.725C53.9403 77.461 53.5919 77.1053 53.3353 76.658C53.0786 76.2033 52.9503 75.6863 52.9503 75.107C52.9503 74.5277 53.0786 74.0143 53.3353 73.567C53.5919 73.1123 53.9403 72.7567 54.3803 72.5C54.8276 72.236 55.3336 72.104 55.8983 72.104C56.4556 72.104 56.9543 72.236 57.3943 72.5C57.8416 72.7567 58.1936 73.1123 58.4503 73.567C58.7069 74.0143 58.8353 74.5277 58.8353 75.107C58.8353 75.6863 58.7069 76.2033 58.4503 76.658C58.1936 77.1053 57.8416 77.461 57.3943 77.725C56.9543 77.9817 56.4556 78.11 55.8983 78.11ZM55.8983 77.076C56.2429 77.076 56.5509 76.9917 56.8223 76.823C57.0936 76.647 57.3063 76.4123 57.4603 76.119C57.6143 75.8183 57.6876 75.481 57.6803 75.107C57.6876 74.7257 57.6143 74.3883 57.4603 74.095C57.3063 73.7943 57.0936 73.5597 56.8223 73.391C56.5509 73.2223 56.2429 73.138 55.8983 73.138C55.5536 73.138 55.2419 73.226 54.9633 73.402C54.6919 73.5707 54.4793 73.8053 54.3253 74.106C54.1713 74.3993 54.0979 74.733 54.1053 75.107C54.0979 75.481 54.1713 75.8183 54.3253 76.119C54.4793 76.4123 54.6919 76.647 54.9633 76.823C55.2419 76.9917 55.5536 77.076 55.8983 77.076ZM60.0698 78V72.225H61.2028V73.413L61.0048 73.545C61.0782 73.2883 61.2212 73.0537 61.4338 72.841C61.6465 72.621 61.8995 72.445 62.1928 72.313C62.4862 72.1737 62.7868 72.104 63.0948 72.104C63.5348 72.104 63.9015 72.192 64.1948 72.368C64.4882 72.5367 64.7082 72.797 64.8548 73.149C65.0015 73.501 65.0748 73.9447 65.0748 74.48V78H63.9418V74.557C63.9418 74.227 63.8978 73.9557 63.8098 73.743C63.7218 73.523 63.5862 73.3653 63.4028 73.27C63.2195 73.1673 62.9922 73.1233 62.7208 73.138C62.5008 73.138 62.2992 73.1747 62.1158 73.248C61.9325 73.314 61.7712 73.4093 61.6318 73.534C61.4998 73.6587 61.3935 73.8053 61.3128 73.974C61.2395 74.1353 61.2028 74.3113 61.2028 74.502V78H60.6418C60.5465 78 60.4512 78 60.3558 78C60.2605 78 60.1652 78 60.0698 78Z" fill="black"/>
</svg>
