<svg width="75" height="85" viewBox="0 0 75 85" fill="none" xmlns="http://www.w3.org/2000/svg">
<path d="M41.0657 4.5H35.9343C35.5349 4.5 35.2967 4.94507 35.5182 5.27735L36.916 7.37404C36.9708 7.45617 37 7.55268 37 7.65139V9V13C37 13.2761 36.7761 13.5 36.5 13.5H32.5H29.6514C29.5527 13.5 29.4562 13.4708 29.374 13.416L27.2773 12.0182C26.9451 11.7967 26.5 12.0349 26.5 12.4343V17.5657C26.5 17.9651 26.9451 18.2033 27.2774 17.9818L29.374 16.584C29.4562 16.5292 29.5527 16.5 29.6514 16.5H32.5H36.5C36.7761 16.5 37 16.7239 37 17V20.5V36.382C37 36.4596 36.9819 36.5361 36.9472 36.6056L35.8618 38.7764C35.6956 39.1088 35.9373 39.5 36.309 39.5H40.691C41.0627 39.5 41.3044 39.1088 41.1382 38.7764L40.0528 36.6056C40.0181 36.5361 40 36.4596 40 36.382V20.5V17C40 16.7239 40.2239 16.5 40.5 16.5H44.5H47.3486C47.4473 16.5 47.5438 16.5292 47.626 16.584L49.7227 17.9818C50.0549 18.2033 50.5 17.9651 50.5 17.5657V12.4343C50.5 12.0349 50.0549 11.7967 49.7227 12.0182L47.626 13.416C47.5438 13.4708 47.4473 13.5 47.3486 13.5H44.5H40.5C40.2239 13.5 40 13.2761 40 13V9V7.65139C40 7.55268 40.0292 7.45617 40.084 7.37404L41.4818 5.27735C41.7033 4.94507 41.4651 4.5 41.0657 4.5Z" fill="#4F4533"/>
<path d="M37 9V13C37 13.2761 36.7761 13.5 36.5 13.5H32.5M37 9V7.65139C37 7.55268 36.9708 7.45617 36.916 7.37404L35.5182 5.27735C35.2967 4.94507 35.5349 4.5 35.9343 4.5H41.0657C41.4651 4.5 41.7033 4.94507 41.4818 5.27735L40.084 7.37404C40.0292 7.45617 40 7.55268 40 7.65139V9M37 9C34.5 9 32.5 11 32.5 13.5M32.5 13.5H29.6514C29.5527 13.5 29.4562 13.4708 29.374 13.416L27.2773 12.0182C26.9451 11.7967 26.5 12.0349 26.5 12.4343V17.5657C26.5 17.9651 26.9451 18.2033 27.2774 17.9818L29.374 16.584C29.4562 16.5292 29.5527 16.5 29.6514 16.5H32.5M40 9V13C40 13.2761 40.2239 13.5 40.5 13.5H44.5M40 9C42.5 9 44.5 11 44.5 13.5M44.5 13.5H47.3486C47.4473 13.5 47.5438 13.4708 47.626 13.416L49.7227 12.0182C50.0549 11.7967 50.5 12.0349 50.5 12.4343V17.5657C50.5 17.9651 50.0549 18.2033 49.7226 17.9818L47.626 16.584C47.5438 16.5292 47.4473 16.5 47.3486 16.5H44.5M44.5 16.5H40.5C40.2239 16.5 40 16.7239 40 17V20.5M44.5 16.5C44.5 19 42.5 20.5 40 20.5M40 20.5V36.382C40 36.4596 40.0181 36.5361 40.0528 36.6056L41.1382 38.7764C41.3044 39.1088 41.0627 39.5 40.691 39.5H36.309C35.9373 39.5 35.6956 39.1088 35.8618 38.7764L36.9472 36.6056C36.9819 36.5361 37 36.4596 37 36.382V20.5M37 20.5V17C37 16.7239 36.7761 16.5 36.5 16.5H32.5M37 20.5C34.5 20.5 32.5 19 32.5 16.5" stroke="black"/>
<path d="M30.4712 52.11C29.9652 52.11 29.5068 52.0513 29.0962 51.934C28.6928 51.8093 28.3335 51.6333 28.0182 51.406C27.7028 51.1713 27.4205 50.8963 27.1712 50.581L28.3042 49.294C28.6708 49.7853 29.0375 50.1153 29.4042 50.284C29.7782 50.4527 30.1632 50.537 30.5592 50.537C30.7572 50.537 30.9368 50.5113 31.0982 50.46C31.2595 50.4087 31.3842 50.3353 31.4722 50.24C31.5602 50.1373 31.6042 50.0127 31.6042 49.866C31.6042 49.756 31.5748 49.657 31.5162 49.569C31.4648 49.481 31.3915 49.404 31.2962 49.338C31.2008 49.272 31.0872 49.2133 30.9552 49.162C30.8232 49.1033 30.6838 49.0557 30.5372 49.019C30.3905 48.975 30.2402 48.9383 30.0862 48.909C29.6608 48.8137 29.2905 48.6963 28.9752 48.557C28.6598 48.4177 28.3958 48.249 28.1832 48.051C27.9778 47.8457 27.8238 47.6147 27.7212 47.358C27.6185 47.094 27.5672 46.8007 27.5672 46.478C27.5672 46.1333 27.6442 45.818 27.7982 45.532C27.9595 45.2387 28.1722 44.9893 28.4362 44.784C28.7075 44.5713 29.0192 44.41 29.3712 44.3C29.7232 44.1827 30.0898 44.124 30.4712 44.124C30.9772 44.124 31.4098 44.179 31.7692 44.289C32.1358 44.3917 32.4475 44.542 32.7042 44.74C32.9682 44.938 33.1918 45.1763 33.3752 45.455L32.2202 46.566C32.0662 46.3753 31.8975 46.2177 31.7142 46.093C31.5382 45.9683 31.3475 45.873 31.1422 45.807C30.9442 45.741 30.7388 45.708 30.5262 45.708C30.3062 45.708 30.1155 45.7373 29.9542 45.796C29.8002 45.8473 29.6792 45.9243 29.5912 46.027C29.5032 46.1223 29.4592 46.2397 29.4592 46.379C29.4592 46.5037 29.4958 46.61 29.5692 46.698C29.6425 46.786 29.7415 46.8667 29.8662 46.94C29.9908 47.006 30.1338 47.0647 30.2952 47.116C30.4565 47.16 30.6252 47.1967 30.8012 47.226C31.2045 47.3067 31.5675 47.413 31.8902 47.545C32.2202 47.677 32.5025 47.8383 32.7372 48.029C32.9792 48.2197 33.1625 48.447 33.2872 48.711C33.4192 48.9677 33.4852 49.2683 33.4852 49.613C33.4852 50.1483 33.3532 50.603 33.0892 50.977C32.8325 51.3437 32.4768 51.626 32.0222 51.824C31.5748 52.0147 31.0578 52.11 30.4712 52.11ZM34.8909 52V44.3H36.7609V50.35H40.1929V52H34.8909ZM44.8771 52.11C44.2978 52.11 43.7625 52.0147 43.2711 51.824C42.7871 51.626 42.3655 51.351 42.0061 50.999C41.6468 50.6397 41.3681 50.218 41.1701 49.734C40.9795 49.2427 40.8841 48.7037 40.8841 48.117C40.8841 47.545 40.9868 47.017 41.1921 46.533C41.3975 46.049 41.6798 45.631 42.0391 45.279C42.4058 44.9197 42.8348 44.641 43.3261 44.443C43.8248 44.245 44.3675 44.146 44.9541 44.146C45.3208 44.146 45.6801 44.1937 46.0321 44.289C46.3841 44.3843 46.7105 44.5273 47.0111 44.718C47.3191 44.9013 47.5831 45.1213 47.8031 45.378L46.6591 46.687C46.5051 46.5257 46.3401 46.3863 46.1641 46.269C45.9955 46.1443 45.8085 46.049 45.6031 45.983C45.3978 45.917 45.1778 45.884 44.9431 45.884C44.6498 45.884 44.3711 45.939 44.1071 46.049C43.8505 46.1517 43.6231 46.302 43.4251 46.5C43.2345 46.6907 43.0841 46.9253 42.9741 47.204C42.8641 47.4827 42.8091 47.7943 42.8091 48.139C42.8091 48.4763 42.8641 48.7843 42.9741 49.063C43.0841 49.3343 43.2381 49.569 43.4361 49.767C43.6341 49.965 43.8725 50.1153 44.1511 50.218C44.4371 50.3207 44.7525 50.372 45.0971 50.372C45.3318 50.372 45.5555 50.339 45.7681 50.273C45.9808 50.207 46.1751 50.119 46.3511 50.009C46.5345 49.8917 46.6958 49.7597 46.8351 49.613L47.7371 51.043C47.5538 51.2483 47.3081 51.4317 47.0001 51.593C46.6995 51.7543 46.3621 51.8827 45.9881 51.978C45.6215 52.066 45.2511 52.11 44.8771 52.11ZM10.0847 66.11C9.54202 66.11 9.03969 66.011 8.57769 65.813C8.12302 65.615 7.72336 65.34 7.37869 64.988C7.04136 64.6287 6.77736 64.2107 6.58669 63.734C6.40336 63.25 6.31169 62.722 6.31169 62.15C6.31169 61.578 6.40336 61.0537 6.58669 60.577C6.77736 60.093 7.04136 59.675 7.37869 59.323C7.72336 58.9637 8.12302 58.685 8.57769 58.487C9.03969 58.289 9.54202 58.19 10.0847 58.19C10.6274 58.19 11.126 58.289 11.5807 58.487C12.0427 58.685 12.4424 58.9637 12.7797 59.323C13.1244 59.6823 13.3884 60.104 13.5717 60.588C13.7624 61.0647 13.8577 61.5853 13.8577 62.15C13.8577 62.7147 13.7624 63.239 13.5717 63.723C13.3884 64.1997 13.1244 64.6177 12.7797 64.977C12.4424 65.3363 12.0427 65.615 11.5807 65.813C11.126 66.011 10.6274 66.11 10.0847 66.11ZM10.0847 64.955C10.4587 64.955 10.7997 64.8853 11.1077 64.746C11.423 64.6067 11.6944 64.4123 11.9217 64.163C12.149 63.9063 12.325 63.6093 12.4497 63.272C12.5817 62.9273 12.6477 62.5533 12.6477 62.15C12.6477 61.7467 12.5817 61.3763 12.4497 61.039C12.325 60.6943 12.149 60.3973 11.9217 60.148C11.6944 59.8913 11.423 59.6933 11.1077 59.554C10.7997 59.4147 10.4587 59.345 10.0847 59.345C9.71069 59.345 9.36602 59.4147 9.05069 59.554C8.74269 59.6933 8.47136 59.8877 8.23669 60.137C8.00936 60.3863 7.83336 60.6833 7.70869 61.028C7.58402 61.3653 7.52169 61.7393 7.52169 62.15C7.52169 62.5533 7.58402 62.9273 7.70869 63.272C7.83336 63.6167 8.00936 63.9137 8.23669 64.163C8.47136 64.4123 8.74269 64.6067 9.05069 64.746C9.36602 64.8853 9.71069 64.955 10.0847 64.955ZM17.2042 66.11C16.7935 66.11 16.4342 66.0147 16.1262 65.824C15.8255 65.6333 15.5909 65.3657 15.4222 65.021C15.2609 64.6763 15.1802 64.2657 15.1802 63.789V60.225H16.3132V63.481C16.3132 63.8183 16.3645 64.1117 16.4672 64.361C16.5772 64.603 16.7312 64.79 16.9292 64.922C17.1345 65.054 17.3802 65.12 17.6662 65.12C17.8789 65.12 18.0732 65.087 18.2492 65.021C18.4252 64.9477 18.5755 64.8487 18.7002 64.724C18.8322 64.5993 18.9349 64.449 19.0082 64.273C19.0815 64.097 19.1182 63.9063 19.1182 63.701V60.225H20.2512V66H19.1182V64.79L19.3162 64.658C19.2282 64.9293 19.0779 65.175 18.8652 65.395C18.6599 65.615 18.4142 65.791 18.1282 65.923C17.8422 66.0477 17.5342 66.11 17.2042 66.11ZM21.8403 66V60.225H22.9843V62.04L22.8743 61.6C22.955 61.3213 23.0907 61.0683 23.2813 60.841C23.4793 60.6137 23.703 60.434 23.9523 60.302C24.209 60.17 24.473 60.104 24.7443 60.104C24.869 60.104 24.9863 60.115 25.0963 60.137C25.2137 60.159 25.3053 60.1847 25.3713 60.214L25.0743 61.446C24.9863 61.4093 24.8873 61.38 24.7773 61.358C24.6747 61.3287 24.572 61.314 24.4693 61.314C24.2713 61.314 24.0807 61.3543 23.8973 61.435C23.7213 61.5083 23.5637 61.6147 23.4243 61.754C23.2923 61.886 23.186 62.0437 23.1053 62.227C23.0247 62.403 22.9843 62.5973 22.9843 62.81V66H21.8403ZM29.6459 66V58.3H30.8339V64.856H34.4419V66H29.6459ZM37.952 66.11C37.4753 66.11 37.039 65.978 36.643 65.714C36.2543 65.45 35.9427 65.0907 35.708 64.636C35.4733 64.1813 35.356 63.668 35.356 63.096C35.356 62.5167 35.4733 62.0033 35.708 61.556C35.95 61.1013 36.2727 60.7457 36.676 60.489C37.0867 60.2323 37.545 60.104 38.051 60.104C38.3517 60.104 38.6267 60.148 38.876 60.236C39.1253 60.324 39.3417 60.4487 39.525 60.61C39.7157 60.764 39.8697 60.9437 39.987 61.149C40.1117 61.3543 40.1887 61.5743 40.218 61.809L39.965 61.721V60.225H41.109V66H39.965V64.625L40.229 64.548C40.185 64.746 40.0933 64.9403 39.954 65.131C39.822 65.3143 39.6497 65.4793 39.437 65.626C39.2317 65.7727 39.0007 65.89 38.744 65.978C38.4947 66.066 38.2307 66.11 37.952 66.11ZM38.249 65.065C38.5937 65.065 38.898 64.9807 39.162 64.812C39.426 64.6433 39.6313 64.4123 39.778 64.119C39.932 63.8183 40.009 63.4773 40.009 63.096C40.009 62.722 39.932 62.3883 39.778 62.095C39.6313 61.8017 39.426 61.5707 39.162 61.402C38.898 61.2333 38.5937 61.149 38.249 61.149C37.9117 61.149 37.611 61.2333 37.347 61.402C37.0903 61.5707 36.885 61.8017 36.731 62.095C36.5843 62.3883 36.511 62.722 36.511 63.096C36.511 63.4773 36.5843 63.8183 36.731 64.119C36.885 64.4123 37.0903 64.6433 37.347 64.812C37.611 64.9807 37.9117 65.065 38.249 65.065ZM45.0999 66.11C44.5719 66.11 44.0989 65.9817 43.6809 65.725C43.2703 65.461 42.9439 65.1053 42.7019 64.658C42.4599 64.2033 42.3389 63.6863 42.3389 63.107C42.3389 62.5277 42.4563 62.0143 42.6909 61.567C42.9329 61.1123 43.2593 60.7567 43.6699 60.5C44.0806 60.236 44.5463 60.104 45.0669 60.104C45.3529 60.104 45.6279 60.1517 45.8919 60.247C46.1633 60.335 46.4053 60.4597 46.6179 60.621C46.8306 60.775 46.9956 60.9473 47.1129 61.138C47.2376 61.3213 47.2999 61.5083 47.2999 61.699L46.9699 61.721V57.86H48.1029V66H46.9699V64.625H47.1899C47.1899 64.801 47.1313 64.977 47.0139 65.153C46.8966 65.3217 46.7389 65.4793 46.5409 65.626C46.3503 65.7727 46.1266 65.89 45.8699 65.978C45.6206 66.066 45.3639 66.11 45.0999 66.11ZM45.2539 65.131C45.5986 65.131 45.9029 65.043 46.1669 64.867C46.4309 64.691 46.6363 64.4527 46.7829 64.152C46.9369 63.844 47.0139 63.4957 47.0139 63.107C47.0139 62.7183 46.9369 62.3737 46.7829 62.073C46.6363 61.765 46.4309 61.523 46.1669 61.347C45.9029 61.171 45.5986 61.083 45.2539 61.083C44.9093 61.083 44.6049 61.171 44.3409 61.347C44.0769 61.523 43.8679 61.765 43.7139 62.073C43.5673 62.3737 43.4939 62.7183 43.4939 63.107C43.4939 63.4957 43.5673 63.844 43.7139 64.152C43.8679 64.4527 44.0769 64.691 44.3409 64.867C44.6049 65.043 44.9093 65.131 45.2539 65.131ZM50.6306 68.53L51.7966 65.835L51.8076 66.737L48.9256 60.225H50.2456L52.0496 64.471C52.0863 64.5443 52.1303 64.658 52.1816 64.812C52.2329 64.9587 52.2769 65.1053 52.3136 65.252L52.0276 65.318C52.0863 65.164 52.1413 65.01 52.1926 64.856C52.2513 64.702 52.3063 64.548 52.3576 64.394L53.8646 60.225H55.2066L52.8306 66L51.8516 68.53H50.6306ZM61.7332 66.11C61.1685 66.11 60.6625 65.9817 60.2152 65.725C59.7752 65.461 59.4269 65.1053 59.1702 64.658C58.9135 64.2033 58.7852 63.6863 58.7852 63.107C58.7852 62.5277 58.9135 62.0143 59.1702 61.567C59.4269 61.1123 59.7752 60.7567 60.2152 60.5C60.6625 60.236 61.1685 60.104 61.7332 60.104C62.2905 60.104 62.7892 60.236 63.2292 60.5C63.6765 60.7567 64.0285 61.1123 64.2852 61.567C64.5419 62.0143 64.6702 62.5277 64.6702 63.107C64.6702 63.6863 64.5419 64.2033 64.2852 64.658C64.0285 65.1053 63.6765 65.461 63.2292 65.725C62.7892 65.9817 62.2905 66.11 61.7332 66.11ZM61.7332 65.076C62.0779 65.076 62.3859 64.9917 62.6572 64.823C62.9285 64.647 63.1412 64.4123 63.2952 64.119C63.4492 63.8183 63.5225 63.481 63.5152 63.107C63.5225 62.7257 63.4492 62.3883 63.2952 62.095C63.1412 61.7943 62.9285 61.5597 62.6572 61.391C62.3859 61.2223 62.0779 61.138 61.7332 61.138C61.3885 61.138 61.0769 61.226 60.7982 61.402C60.5269 61.5707 60.3142 61.8053 60.1602 62.106C60.0062 62.3993 59.9329 62.733 59.9402 63.107C59.9329 63.481 60.0062 63.8183 60.1602 64.119C60.3142 64.4123 60.5269 64.647 60.7982 64.823C61.0769 64.9917 61.3885 65.076 61.7332 65.076ZM66.3169 66V59.576C66.3169 59.246 66.3903 58.9527 66.5369 58.696C66.6836 58.4393 66.8853 58.2377 67.1419 58.091C67.3986 57.9443 67.6956 57.871 68.0329 57.871C68.2676 57.871 68.4876 57.915 68.6929 58.003C68.8983 58.091 69.0633 58.2083 69.1879 58.355L68.8029 59.224C68.7076 59.136 68.6013 59.0663 68.4839 59.015C68.3739 58.9563 68.2676 58.927 68.1649 58.927C68.0109 58.927 67.8789 58.9527 67.7689 59.004C67.6663 59.048 67.5893 59.1213 67.5379 59.224C67.4866 59.3193 67.4609 59.4367 67.4609 59.576V66H66.8889C66.7936 66 66.6983 66 66.6029 66C66.5076 66 66.4123 66 66.3169 66ZM65.3929 61.369V60.324H68.8249V61.369H65.3929ZM12.6572 80.11C12.0999 80.11 11.5792 80.011 11.0952 79.813C10.6112 79.6077 10.1859 79.3253 9.81923 78.966C9.45256 78.6067 9.16656 78.1887 8.96123 77.712C8.76323 77.228 8.66423 76.7073 8.66423 76.15C8.66423 75.6 8.76323 75.0867 8.96123 74.61C9.16656 74.1333 9.4489 73.719 9.80823 73.367C10.1749 73.0077 10.6002 72.729 11.0842 72.531C11.5682 72.333 12.0889 72.234 12.6462 72.234C13.0349 72.234 13.4126 72.289 13.7792 72.399C14.1532 72.509 14.4906 72.663 14.7912 72.861C15.0919 73.059 15.3376 73.2863 15.5282 73.543L14.7582 74.346C14.5382 74.1333 14.3109 73.9573 14.0762 73.818C13.8489 73.6787 13.6142 73.5723 13.3722 73.499C13.1302 73.4257 12.8882 73.389 12.6462 73.389C12.2502 73.389 11.8836 73.4587 11.5462 73.598C11.2162 73.7373 10.9229 73.9317 10.6662 74.181C10.4169 74.4303 10.2226 74.7237 10.0832 75.061C9.9439 75.391 9.87423 75.754 9.87423 76.15C9.87423 76.5313 9.94756 76.8943 10.0942 77.239C10.2409 77.5763 10.4426 77.8733 10.6992 78.13C10.9632 78.3867 11.2639 78.5883 11.6012 78.735C11.9459 78.8817 12.3089 78.955 12.6902 78.955C12.9762 78.955 13.2476 78.9147 13.5042 78.834C13.7609 78.746 13.9882 78.625 14.1862 78.471C14.3842 78.317 14.5382 78.141 14.6482 77.943C14.7582 77.7377 14.8132 77.5213 14.8132 77.294V77.074L14.9782 77.228H12.6242V76.051H16.0342C16.0489 76.1317 16.0599 76.2123 16.0672 76.293C16.0746 76.3663 16.0782 76.4397 16.0782 76.513C16.0856 76.579 16.0892 76.645 16.0892 76.711C16.0892 77.217 16.0012 77.679 15.8252 78.097C15.6492 78.5077 15.4036 78.8633 15.0882 79.164C14.7802 79.4647 14.4172 79.6993 13.9992 79.868C13.5886 80.0293 13.1412 80.11 12.6572 80.11ZM19.3741 80.11C18.9634 80.11 18.6041 80.0147 18.2961 79.824C17.9954 79.6333 17.7608 79.3657 17.5921 79.021C17.4308 78.6763 17.3501 78.2657 17.3501 77.789V74.225H18.4831V77.481C18.4831 77.8183 18.5344 78.1117 18.6371 78.361C18.7471 78.603 18.9011 78.79 19.0991 78.922C19.3044 79.054 19.5501 79.12 19.8361 79.12C20.0488 79.12 20.2431 79.087 20.4191 79.021C20.5951 78.9477 20.7454 78.8487 20.8701 78.724C21.0021 78.5993 21.1048 78.449 21.1781 78.273C21.2514 78.097 21.2881 77.9063 21.2881 77.701V74.225H22.4211V80H21.2881V78.79L21.4861 78.658C21.3981 78.9293 21.2478 79.175 21.0351 79.395C20.8298 79.615 20.5841 79.791 20.2981 79.923C20.0121 80.0477 19.7041 80.11 19.3741 80.11ZM26.2323 80.11C25.7556 80.11 25.3193 79.978 24.9233 79.714C24.5346 79.45 24.2229 79.0907 23.9883 78.636C23.7536 78.1813 23.6363 77.668 23.6363 77.096C23.6363 76.5167 23.7536 76.0033 23.9883 75.556C24.2303 75.1013 24.5529 74.7457 24.9563 74.489C25.3669 74.2323 25.8253 74.104 26.3313 74.104C26.6319 74.104 26.9069 74.148 27.1563 74.236C27.4056 74.324 27.6219 74.4487 27.8053 74.61C27.9959 74.764 28.1499 74.9437 28.2673 75.149C28.3919 75.3543 28.4689 75.5743 28.4983 75.809L28.2453 75.721V74.225H29.3893V80H28.2453V78.625L28.5093 78.548C28.4653 78.746 28.3736 78.9403 28.2343 79.131C28.1023 79.3143 27.9299 79.4793 27.7173 79.626C27.5119 79.7727 27.2809 79.89 27.0243 79.978C26.7749 80.066 26.5109 80.11 26.2323 80.11ZM26.5293 79.065C26.8739 79.065 27.1783 78.9807 27.4423 78.812C27.7063 78.6433 27.9116 78.4123 28.0583 78.119C28.2123 77.8183 28.2893 77.4773 28.2893 77.096C28.2893 76.722 28.2123 76.3883 28.0583 76.095C27.9116 75.8017 27.7063 75.5707 27.4423 75.402C27.1783 75.2333 26.8739 75.149 26.5293 75.149C26.1919 75.149 25.8913 75.2333 25.6273 75.402C25.3706 75.5707 25.1653 75.8017 25.0113 76.095C24.8646 76.3883 24.7913 76.722 24.7913 77.096C24.7913 77.4773 24.8646 77.8183 25.0113 78.119C25.1653 78.4123 25.3706 78.6433 25.6273 78.812C25.8913 78.9807 26.1919 79.065 26.5293 79.065ZM33.3802 80.11C32.8522 80.11 32.3792 79.9817 31.9612 79.725C31.5505 79.461 31.2242 79.1053 30.9822 78.658C30.7402 78.2033 30.6192 77.6863 30.6192 77.107C30.6192 76.5277 30.7365 76.0143 30.9712 75.567C31.2132 75.1123 31.5395 74.7567 31.9502 74.5C32.3609 74.236 32.8265 74.104 33.3472 74.104C33.6332 74.104 33.9082 74.1517 34.1722 74.247C34.4435 74.335 34.6855 74.4597 34.8982 74.621C35.1109 74.775 35.2759 74.9473 35.3932 75.138C35.5179 75.3213 35.5802 75.5083 35.5802 75.699L35.2502 75.721V71.86H36.3832V80H35.2502V78.625H35.4702C35.4702 78.801 35.4115 78.977 35.2942 79.153C35.1769 79.3217 35.0192 79.4793 34.8212 79.626C34.6305 79.7727 34.4069 79.89 34.1502 79.978C33.9009 80.066 33.6442 80.11 33.3802 80.11ZM33.5342 79.131C33.8789 79.131 34.1832 79.043 34.4472 78.867C34.7112 78.691 34.9165 78.4527 35.0632 78.152C35.2172 77.844 35.2942 77.4957 35.2942 77.107C35.2942 76.7183 35.2172 76.3737 35.0632 76.073C34.9165 75.765 34.7112 75.523 34.4472 75.347C34.1832 75.171 33.8789 75.083 33.5342 75.083C33.1895 75.083 32.8852 75.171 32.6212 75.347C32.3572 75.523 32.1482 75.765 31.9942 76.073C31.8475 76.3737 31.7742 76.7183 31.7742 77.107C31.7742 77.4957 31.8475 77.844 31.9942 78.152C32.1482 78.4527 32.3572 78.691 32.6212 78.867C32.8852 79.043 33.1895 79.131 33.5342 79.131ZM40.1649 80.11C39.6882 80.11 39.2519 79.978 38.8559 79.714C38.4672 79.45 38.1555 79.0907 37.9209 78.636C37.6862 78.1813 37.5689 77.668 37.5689 77.096C37.5689 76.5167 37.6862 76.0033 37.9209 75.556C38.1629 75.1013 38.4855 74.7457 38.8889 74.489C39.2995 74.2323 39.7579 74.104 40.2639 74.104C40.5645 74.104 40.8395 74.148 41.0889 74.236C41.3382 74.324 41.5545 74.4487 41.7379 74.61C41.9285 74.764 42.0825 74.9437 42.1999 75.149C42.3245 75.3543 42.4015 75.5743 42.4309 75.809L42.1779 75.721V74.225H43.3219V80H42.1779V78.625L42.4419 78.548C42.3979 78.746 42.3062 78.9403 42.1669 79.131C42.0349 79.3143 41.8625 79.4793 41.6499 79.626C41.4445 79.7727 41.2135 79.89 40.9569 79.978C40.7075 80.066 40.4435 80.11 40.1649 80.11ZM40.4619 79.065C40.8065 79.065 41.1109 78.9807 41.3749 78.812C41.6389 78.6433 41.8442 78.4123 41.9909 78.119C42.1449 77.8183 42.2219 77.4773 42.2219 77.096C42.2219 76.722 42.1449 76.3883 41.9909 76.095C41.8442 75.8017 41.6389 75.5707 41.3749 75.402C41.1109 75.2333 40.8065 75.149 40.4619 75.149C40.1245 75.149 39.8239 75.2333 39.5599 75.402C39.3032 75.5707 39.0979 75.8017 38.9439 76.095C38.7972 76.3883 38.7239 76.722 38.7239 77.096C38.7239 77.4773 38.7972 77.8183 38.9439 78.119C39.0979 78.4123 39.3032 78.6433 39.5599 78.812C39.8239 78.9807 40.1245 79.065 40.4619 79.065ZM44.9258 80V71.86H46.0588V80H44.9258ZM49.6348 80.11C49.2242 80.11 48.8648 80.0147 48.5568 79.824C48.2562 79.6333 48.0215 79.3657 47.8528 79.021C47.6915 78.6763 47.6108 78.2657 47.6108 77.789V74.225H48.7438V77.481C48.7438 77.8183 48.7952 78.1117 48.8978 78.361C49.0078 78.603 49.1618 78.79 49.3598 78.922C49.5652 79.054 49.8108 79.12 50.0968 79.12C50.3095 79.12 50.5038 79.087 50.6798 79.021C50.8558 78.9477 51.0062 78.8487 51.1308 78.724C51.2628 78.5993 51.3655 78.449 51.4388 78.273C51.5122 78.097 51.5488 77.9063 51.5488 77.701V74.225H52.6818V80H51.5488V78.79L51.7468 78.658C51.6588 78.9293 51.5085 79.175 51.2958 79.395C51.0905 79.615 50.8448 79.791 50.5588 79.923C50.2728 80.0477 49.9648 80.11 49.6348 80.11ZM54.271 82.42V74.225H55.415V75.545L55.239 75.446C55.283 75.226 55.4077 75.017 55.613 74.819C55.8183 74.6137 56.0677 74.4487 56.361 74.324C56.6617 74.192 56.9697 74.126 57.285 74.126C57.8057 74.126 58.2677 74.2543 58.671 74.511C59.0743 74.7677 59.3933 75.1197 59.628 75.567C59.8627 76.0143 59.98 76.5277 59.98 77.107C59.98 77.679 59.8627 78.1923 59.628 78.647C59.4007 79.0943 59.0853 79.45 58.682 79.714C58.2787 79.9707 57.824 80.099 57.318 80.099C56.9807 80.099 56.6543 80.033 56.339 79.901C56.0237 79.7617 55.756 79.5857 55.536 79.373C55.316 79.1603 55.1803 78.9403 55.129 78.713L55.415 78.559V82.42H54.271ZM57.131 79.054C57.4683 79.054 57.769 78.9697 58.033 78.801C58.297 78.6323 58.506 78.4013 58.66 78.108C58.814 77.8147 58.891 77.481 58.891 77.107C58.891 76.733 58.814 76.403 58.66 76.117C58.5133 75.8237 58.308 75.5927 58.044 75.424C57.78 75.2553 57.4757 75.171 57.131 75.171C56.7863 75.171 56.482 75.2553 56.218 75.424C55.954 75.5853 55.745 75.8127 55.591 76.106C55.437 76.3993 55.36 76.733 55.36 77.107C55.36 77.481 55.437 77.8147 55.591 78.108C55.745 78.4013 55.954 78.6323 56.218 78.801C56.482 78.9697 56.7863 79.054 57.131 79.054ZM63.9055 80.11C63.3115 80.11 62.7835 79.9853 62.3215 79.736C61.8668 79.4793 61.5075 79.131 61.2435 78.691C60.9868 78.251 60.8585 77.745 60.8585 77.173C60.8585 76.7183 60.9318 76.304 61.0785 75.93C61.2251 75.556 61.4268 75.2333 61.6835 74.962C61.9475 74.6833 62.2591 74.4707 62.6185 74.324C62.9851 74.17 63.3811 74.093 63.8065 74.093C64.1805 74.093 64.5288 74.1663 64.8515 74.313C65.1741 74.4523 65.4528 74.6467 65.6875 74.896C65.9295 75.1453 66.1128 75.4423 66.2375 75.787C66.3695 76.1243 66.4318 76.4947 66.4245 76.898L66.4135 77.382H61.6945L61.4415 76.48H65.4345L65.2695 76.667V76.403C65.2475 76.161 65.1668 75.9447 65.0275 75.754C64.8881 75.5633 64.7121 75.413 64.4995 75.303C64.2868 75.193 64.0558 75.138 63.8065 75.138C63.4105 75.138 63.0768 75.215 62.8055 75.369C62.5341 75.5157 62.3288 75.7357 62.1895 76.029C62.0501 76.315 61.9805 76.6707 61.9805 77.096C61.9805 77.4993 62.0648 77.8513 62.2335 78.152C62.4021 78.4453 62.6405 78.6727 62.9485 78.834C63.2565 78.9953 63.6121 79.076 64.0155 79.076C64.3015 79.076 64.5655 79.0283 64.8075 78.933C65.0568 78.8377 65.3245 78.6653 65.6105 78.416L66.1825 79.219C66.0065 79.395 65.7901 79.549 65.5335 79.681C65.2841 79.813 65.0165 79.9193 64.7305 80C64.4518 80.0733 64.1768 80.11 63.9055 80.11Z" fill="black"/>
</svg>
