<svg width="89" height="58" viewBox="0 0 89 58" fill="none" xmlns="http://www.w3.org/2000/svg">
<path d="M16.5657 18H11.4343C11.0349 18 10.7967 18.4451 11.0182 18.7773L12.416 20.874C12.4708 20.9562 12.5 21.0527 12.5 21.1514V22.5V26.5C12.5 26.7761 12.2761 27 12 27H8H5.15139C5.05268 27 4.95617 26.9708 4.87404 26.916L2.77735 25.5182C2.44507 25.2967 2 25.5349 2 25.9343V31.0657C2 31.4651 2.44507 31.7033 2.77735 31.4818L4.87404 30.084C4.95617 30.0292 5.05268 30 5.15139 30H8H12C12.2761 30 12.5 30.2239 12.5 30.5V34V49.882C12.5 49.9596 12.4819 50.0361 12.4472 50.1056L11.3618 52.2764C11.1956 52.6088 11.4373 53 11.809 53H16.191C16.5627 53 16.8044 52.6088 16.6382 52.2764L15.5528 50.1056C15.5181 50.0361 15.5 49.9596 15.5 49.882V34V30.5C15.5 30.2239 15.7239 30 16 30H20H22.8486C22.9473 30 23.0438 30.0292 23.126 30.084L25.2227 31.4818C25.5549 31.7033 26 31.4651 26 31.0657V25.9343C26 25.5349 25.5549 25.2967 25.2227 25.5182L23.126 26.916C23.0438 26.9708 22.9473 27 22.8486 27H20H16C15.7239 27 15.5 26.7761 15.5 26.5V22.5V21.1514C15.5 21.0527 15.5292 20.9562 15.584 20.874L16.9818 18.7774C17.2033 18.4451 16.9651 18 16.5657 18Z" fill="#4F4533"/>
<path d="M12.5 22.5V26.5C12.5 26.7761 12.2761 27 12 27H8M12.5 22.5V21.1514C12.5 21.0527 12.4708 20.9562 12.416 20.874L11.0182 18.7773C10.7967 18.4451 11.0349 18 11.4343 18H16.5657C16.9651 18 17.2033 18.4451 16.9818 18.7774L15.584 20.874C15.5292 20.9562 15.5 21.0527 15.5 21.1514V22.5M12.5 22.5C10 22.5 8 24.5 8 27M8 27H5.15139C5.05268 27 4.95617 26.9708 4.87404 26.916L2.77735 25.5182C2.44507 25.2967 2 25.5349 2 25.9343V31.0657C2 31.4651 2.44507 31.7033 2.77735 31.4818L4.87404 30.084C4.95617 30.0292 5.05268 30 5.15139 30H8M15.5 22.5V26.5C15.5 26.7761 15.7239 27 16 27H20M15.5 22.5C18 22.5 20 24.5 20 27M20 27H22.8486C22.9473 27 23.0438 26.9708 23.126 26.916L25.2227 25.5182C25.5549 25.2967 26 25.5349 26 25.9343V31.0657C26 31.4651 25.5549 31.7033 25.2226 31.4818L23.126 30.084C23.0438 30.0292 22.9473 30 22.8486 30H20M20 30H16C15.7239 30 15.5 30.2239 15.5 30.5V34M20 30C20 32.5 18 34 15.5 34M15.5 34V49.882C15.5 49.9596 15.5181 50.0361 15.5528 50.1056L16.6382 52.2764C16.8044 52.6088 16.5627 53 16.191 53H11.809C11.4373 53 11.1956 52.6088 11.3618 52.2764L12.4472 50.1056C12.4819 50.0361 12.5 49.9596 12.5 49.882V34M12.5 34V30.5C12.5 30.2239 12.2761 30 12 30H8M12.5 34C10 34 8 32.5 8 30" stroke="black"/>
<path d="M18.0661 11V3.3H23.4341V4.895H19.8811V9.405H23.5441V11H18.0661ZM18.9461 7.843V6.325H22.9391V7.843H18.9461ZM27.0713 11.099C26.5799 11.099 26.1399 10.9707 25.7513 10.714C25.3699 10.45 25.0656 10.0907 24.8383 9.636C24.6109 9.174 24.4973 8.65333 24.4973 8.074C24.4973 7.48 24.6109 6.95567 24.8383 6.501C25.0656 6.04633 25.3773 5.69067 25.7733 5.434C26.1693 5.17 26.6203 5.038 27.1263 5.038C27.4049 5.038 27.6579 5.07833 27.8853 5.159C28.1199 5.23967 28.3253 5.35333 28.5013 5.5C28.6773 5.63933 28.8276 5.80433 28.9523 5.995C29.0769 6.17833 29.1686 6.37633 29.2273 6.589L28.8643 6.545V5.159H30.6133V11H28.8313V9.592L29.2273 9.581C29.1686 9.78633 29.0733 9.98067 28.9413 10.164C28.8093 10.3473 28.6479 10.5087 28.4573 10.648C28.2666 10.7873 28.0539 10.8973 27.8193 10.978C27.5846 11.0587 27.3353 11.099 27.0713 11.099ZM27.5553 9.614C27.8266 9.614 28.0613 9.55167 28.2593 9.427C28.4573 9.30233 28.6113 9.12633 28.7213 8.899C28.8313 8.66433 28.8863 8.38933 28.8863 8.074C28.8863 7.75867 28.8313 7.48733 28.7213 7.26C28.6113 7.02533 28.4573 6.84567 28.2593 6.721C28.0613 6.589 27.8266 6.523 27.5553 6.523C27.2913 6.523 27.0603 6.589 26.8623 6.721C26.6716 6.84567 26.5213 7.02533 26.4113 7.26C26.3013 7.48733 26.2463 7.75867 26.2463 8.074C26.2463 8.38933 26.3013 8.66433 26.4113 8.899C26.5213 9.12633 26.6716 9.30233 26.8623 9.427C27.0603 9.55167 27.2913 9.614 27.5553 9.614ZM34.1353 11.11C33.5633 11.11 33.0573 11.0183 32.6173 10.835C32.1846 10.6517 31.8399 10.406 31.5833 10.098L32.6503 9.174C32.8776 9.40133 33.1343 9.57 33.4203 9.68C33.7063 9.78267 33.9776 9.834 34.2343 9.834C34.3369 9.834 34.4286 9.823 34.5093 9.801C34.5899 9.779 34.6559 9.74967 34.7073 9.713C34.7659 9.669 34.8099 9.62133 34.8393 9.57C34.8686 9.51133 34.8833 9.44533 34.8833 9.372C34.8833 9.22533 34.8173 9.11167 34.6853 9.031C34.6193 8.99433 34.5093 8.95033 34.3553 8.899C34.2013 8.84767 34.0033 8.789 33.7613 8.723C33.4166 8.635 33.1159 8.53233 32.8593 8.415C32.6099 8.29033 32.4046 8.14733 32.2433 7.986C32.0966 7.832 31.9829 7.66333 31.9023 7.48C31.8216 7.28933 31.7813 7.07667 31.7813 6.842C31.7813 6.57067 31.8436 6.325 31.9683 6.105C32.1003 5.885 32.2726 5.69433 32.4853 5.533C32.7053 5.37167 32.9546 5.25067 33.2333 5.17C33.5193 5.082 33.8126 5.038 34.1133 5.038C34.4359 5.038 34.7439 5.07467 35.0373 5.148C35.3306 5.22133 35.6019 5.324 35.8513 5.456C36.1079 5.588 36.3353 5.74567 36.5333 5.929L35.6093 6.963C35.4773 6.83833 35.3269 6.72833 35.1583 6.633C34.9969 6.53033 34.8283 6.44967 34.6523 6.391C34.4763 6.33233 34.3149 6.303 34.1683 6.303C34.0583 6.303 33.9593 6.314 33.8713 6.336C33.7906 6.35067 33.7209 6.38 33.6623 6.424C33.6036 6.46067 33.5596 6.50833 33.5303 6.567C33.5009 6.61833 33.4863 6.68067 33.4863 6.754C33.4863 6.82733 33.5046 6.897 33.5413 6.963C33.5853 7.029 33.6439 7.084 33.7173 7.128C33.7906 7.172 33.9079 7.22333 34.0693 7.282C34.2306 7.33333 34.4506 7.39933 34.7293 7.48C35.0739 7.57533 35.3709 7.68167 35.6203 7.799C35.8696 7.91633 36.0676 8.05567 36.2143 8.217C36.3316 8.34167 36.4196 8.48833 36.4783 8.657C36.5369 8.81833 36.5663 8.99433 36.5663 9.185C36.5663 9.559 36.4599 9.89267 36.2473 10.186C36.0419 10.472 35.7559 10.6993 35.3893 10.868C35.0226 11.0293 34.6046 11.11 34.1353 11.11ZM38.0965 11V3.685H39.8565V11H38.0965ZM37.0625 6.699V5.159H40.9895V6.699H37.0625ZM49.2038 11.11C48.6245 11.11 48.0891 11.0147 47.5978 10.824C47.1138 10.626 46.6921 10.351 46.3328 9.999C45.9735 9.63967 45.6948 9.218 45.4968 8.734C45.3061 8.24267 45.2108 7.70367 45.2108 7.117C45.2108 6.545 45.3135 6.017 45.5188 5.533C45.7241 5.049 46.0065 4.631 46.3658 4.279C46.7325 3.91967 47.1615 3.641 47.6528 3.443C48.1515 3.245 48.6941 3.146 49.2808 3.146C49.6475 3.146 50.0068 3.19367 50.3588 3.289C50.7108 3.38433 51.0371 3.52733 51.3378 3.718C51.6458 3.90133 51.9098 4.12133 52.1298 4.378L50.9858 5.687C50.8318 5.52567 50.6668 5.38633 50.4908 5.269C50.3221 5.14433 50.1351 5.049 49.9298 4.983C49.7245 4.917 49.5045 4.884 49.2698 4.884C48.9765 4.884 48.6978 4.939 48.4338 5.049C48.1771 5.15167 47.9498 5.302 47.7518 5.5C47.5611 5.69067 47.4108 5.92533 47.3008 6.204C47.1908 6.48267 47.1358 6.79433 47.1358 7.139C47.1358 7.47633 47.1908 7.78433 47.3008 8.063C47.4108 8.33433 47.5648 8.569 47.7628 8.767C47.9608 8.965 48.1991 9.11533 48.4778 9.218C48.7638 9.32067 49.0791 9.372 49.4238 9.372C49.6585 9.372 49.8821 9.339 50.0948 9.273C50.3075 9.207 50.5018 9.119 50.6778 9.009C50.8611 8.89167 51.0225 8.75967 51.1618 8.613L52.0638 10.043C51.8805 10.2483 51.6348 10.4317 51.3268 10.593C51.0261 10.7543 50.6888 10.8827 50.3148 10.978C49.9481 11.066 49.5778 11.11 49.2038 11.11ZM55.3125 11.099C54.8212 11.099 54.3812 10.9707 53.9925 10.714C53.6112 10.45 53.3068 10.0907 53.0795 9.636C52.8522 9.174 52.7385 8.65333 52.7385 8.074C52.7385 7.48 52.8522 6.95567 53.0795 6.501C53.3068 6.04633 53.6185 5.69067 54.0145 5.434C54.4105 5.17 54.8615 5.038 55.3675 5.038C55.6462 5.038 55.8992 5.07833 56.1265 5.159C56.3612 5.23967 56.5665 5.35333 56.7425 5.5C56.9185 5.63933 57.0688 5.80433 57.1935 5.995C57.3182 6.17833 57.4098 6.37633 57.4685 6.589L57.1055 6.545V5.159H58.8545V11H57.0725V9.592L57.4685 9.581C57.4098 9.78633 57.3145 9.98067 57.1825 10.164C57.0505 10.3473 56.8892 10.5087 56.6985 10.648C56.5078 10.7873 56.2952 10.8973 56.0605 10.978C55.8258 11.0587 55.5765 11.099 55.3125 11.099ZM55.7965 9.614C56.0678 9.614 56.3025 9.55167 56.5005 9.427C56.6985 9.30233 56.8525 9.12633 56.9625 8.899C57.0725 8.66433 57.1275 8.38933 57.1275 8.074C57.1275 7.75867 57.0725 7.48733 56.9625 7.26C56.8525 7.02533 56.6985 6.84567 56.5005 6.721C56.3025 6.589 56.0678 6.523 55.7965 6.523C55.5325 6.523 55.3015 6.589 55.1035 6.721C54.9128 6.84567 54.7625 7.02533 54.6525 7.26C54.5425 7.48733 54.4875 7.75867 54.4875 8.074C54.4875 8.38933 54.5425 8.66433 54.6525 8.899C54.7625 9.12633 54.9128 9.30233 55.1035 9.427C55.3015 9.55167 55.5325 9.614 55.7965 9.614ZM60.4075 11V5.159H62.0795L62.1565 7.062L61.8265 6.699C61.9145 6.38367 62.0575 6.10133 62.2555 5.852C62.4608 5.60267 62.6991 5.40467 62.9705 5.258C63.2418 5.11133 63.5315 5.038 63.8395 5.038C63.9715 5.038 64.0925 5.049 64.2025 5.071C64.3198 5.093 64.4261 5.11867 64.5215 5.148L64.0375 7.095C63.9568 7.04367 63.8468 7.00333 63.7075 6.974C63.5755 6.93733 63.4361 6.919 63.2895 6.919C63.1281 6.919 62.9778 6.94833 62.8385 7.007C62.6991 7.05833 62.5818 7.13533 62.4865 7.238C62.3911 7.34067 62.3141 7.46167 62.2555 7.601C62.2041 7.74033 62.1785 7.898 62.1785 8.074V11H60.4075ZM68.9223 11.121C68.6583 11.121 68.4053 11.0843 68.1633 11.011C67.9213 10.9377 67.7013 10.8387 67.5033 10.714C67.3127 10.5893 67.1513 10.4463 67.0193 10.285C66.8947 10.1163 66.8103 9.944 66.7663 9.768L67.1513 9.636L67.0523 10.989H65.4133V2.86H67.1843V6.556L66.8213 6.424C66.8653 6.23333 66.9497 6.05733 67.0743 5.896C67.199 5.72733 67.3567 5.58067 67.5473 5.456C67.738 5.324 67.947 5.22133 68.1743 5.148C68.4017 5.07467 68.6363 5.038 68.8783 5.038C69.3843 5.038 69.8317 5.17 70.2203 5.434C70.6163 5.69067 70.928 6.05 71.1553 6.512C71.3827 6.96667 71.4963 7.48733 71.4963 8.074C71.4963 8.668 71.3827 9.196 71.1553 9.658C70.9353 10.1127 70.631 10.472 70.2423 10.736C69.8537 10.9927 69.4137 11.121 68.9223 11.121ZM68.4603 9.636C68.7243 9.636 68.9553 9.57 69.1533 9.438C69.3513 9.306 69.5017 9.12633 69.6043 8.899C69.7143 8.66433 69.7693 8.38933 69.7693 8.074C69.7693 7.766 69.7143 7.49467 69.6043 7.26C69.5017 7.02533 69.3513 6.84567 69.1533 6.721C68.9553 6.59633 68.7243 6.534 68.4603 6.534C68.189 6.534 67.9543 6.59633 67.7563 6.721C67.5583 6.84567 67.4043 7.02533 67.2943 7.26C67.1843 7.49467 67.1293 7.766 67.1293 8.074C67.1293 8.38933 67.1843 8.66433 67.2943 8.899C67.4043 9.12633 67.5583 9.306 67.7563 9.438C67.9543 9.57 68.189 9.636 68.4603 9.636ZM75.4036 11.11C74.7949 11.11 74.2522 10.978 73.7756 10.714C73.3062 10.45 72.9322 10.0907 72.6536 9.636C72.3822 9.18133 72.2466 8.66067 72.2466 8.074C72.2466 7.48733 72.3822 6.96667 72.6536 6.512C72.9322 6.05733 73.3062 5.698 73.7756 5.434C74.2522 5.17 74.7949 5.038 75.4036 5.038C76.0122 5.038 76.5512 5.17 77.0206 5.434C77.4972 5.698 77.8712 6.05733 78.1426 6.512C78.4139 6.96667 78.5496 7.48733 78.5496 8.074C78.5496 8.66067 78.4139 9.18133 78.1426 9.636C77.8712 10.0907 77.4972 10.45 77.0206 10.714C76.5512 10.978 76.0122 11.11 75.4036 11.11ZM75.4036 9.592C75.6676 9.592 75.9022 9.526 76.1076 9.394C76.3129 9.262 76.4742 9.08233 76.5916 8.855C76.7089 8.62767 76.7639 8.36733 76.7566 8.074C76.7639 7.78067 76.7089 7.52033 76.5916 7.293C76.4742 7.05833 76.3129 6.875 76.1076 6.743C75.9022 6.611 75.6676 6.545 75.4036 6.545C75.1396 6.545 74.9012 6.611 74.6886 6.743C74.4832 6.875 74.3219 7.05833 74.2046 7.293C74.0872 7.52033 74.0322 7.78067 74.0396 8.074C74.0322 8.36733 74.0872 8.62767 74.2046 8.855C74.3219 9.08233 74.4832 9.262 74.6886 9.394C74.9012 9.526 75.1396 9.592 75.4036 9.592ZM79.7004 11V5.159H81.3724L81.4274 6.347L81.0754 6.479C81.1561 6.215 81.2991 5.97667 81.5044 5.764C81.7171 5.544 81.9701 5.368 82.2634 5.236C82.5568 5.104 82.8648 5.038 83.1874 5.038C83.6274 5.038 83.9978 5.12967 84.2984 5.313C84.5991 5.489 84.8264 5.75667 84.9804 6.116C85.1344 6.468 85.2114 6.90067 85.2114 7.414V11H83.4404V7.557C83.4404 7.32233 83.4074 7.128 83.3414 6.974C83.2754 6.82 83.1728 6.70633 83.0334 6.633C82.9014 6.55233 82.7364 6.51567 82.5384 6.523C82.3844 6.523 82.2414 6.54867 82.1094 6.6C81.9774 6.644 81.8638 6.71367 81.7684 6.809C81.6731 6.897 81.5961 6.99967 81.5374 7.117C81.4861 7.23433 81.4604 7.36267 81.4604 7.502V11H80.5914C80.3861 11 80.2101 11 80.0634 11C79.9168 11 79.7958 11 79.7004 11ZM44.7888 25.11C44.2094 25.11 43.6741 25.0147 43.1828 24.824C42.6988 24.626 42.2771 24.351 41.9178 23.999C41.5584 23.6397 41.2798 23.218 41.0818 22.734C40.8911 22.2427 40.7958 21.7037 40.7958 21.117C40.7958 20.545 40.8984 20.017 41.1038 19.533C41.3091 19.049 41.5914 18.631 41.9508 18.279C42.3174 17.9197 42.7464 17.641 43.2378 17.443C43.7364 17.245 44.2791 17.146 44.8658 17.146C45.2324 17.146 45.5918 17.1937 45.9438 17.289C46.2958 17.3843 46.6221 17.5273 46.9228 17.718C47.2308 17.9013 47.4948 18.1213 47.7148 18.378L46.5708 19.687C46.4168 19.5257 46.2518 19.3863 46.0758 19.269C45.9071 19.1443 45.7201 19.049 45.5148 18.983C45.3094 18.917 45.0894 18.884 44.8548 18.884C44.5614 18.884 44.2828 18.939 44.0188 19.049C43.7621 19.1517 43.5348 19.302 43.3368 19.5C43.1461 19.6907 42.9958 19.9253 42.8858 20.204C42.7758 20.4827 42.7208 20.7943 42.7208 21.139C42.7208 21.4763 42.7758 21.7843 42.8858 22.063C42.9958 22.3343 43.1498 22.569 43.3478 22.767C43.5458 22.965 43.7841 23.1153 44.0628 23.218C44.3488 23.3207 44.6641 23.372 45.0088 23.372C45.2434 23.372 45.4671 23.339 45.6798 23.273C45.8924 23.207 46.0868 23.119 46.2628 23.009C46.4461 22.8917 46.6074 22.7597 46.7468 22.613L47.6488 24.043C47.4654 24.2483 47.2198 24.4317 46.9118 24.593C46.6111 24.7543 46.2738 24.8827 45.8998 24.978C45.5331 25.066 45.1628 25.11 44.7888 25.11ZM48.8404 25V19.159H50.6004V25H48.8404ZM49.7204 18.004C49.3904 18.004 49.1301 17.927 48.9394 17.773C48.7561 17.6117 48.6644 17.3843 48.6644 17.091C48.6644 16.827 48.7598 16.6107 48.9504 16.442C49.1411 16.2733 49.3978 16.189 49.7204 16.189C50.0504 16.189 50.3071 16.2697 50.4904 16.431C50.6738 16.585 50.7654 16.805 50.7654 17.091C50.7654 17.3623 50.6701 17.5823 50.4794 17.751C50.2961 17.9197 50.0431 18.004 49.7204 18.004ZM52.7381 25V17.685H54.4981V25H52.7381ZM51.7041 20.699V19.159H55.6311V20.699H51.7041ZM57.374 27.53L58.705 24.395L58.727 25.297L55.911 19.159H57.902L59.134 22.096C59.2 22.2427 59.2623 22.4003 59.321 22.569C59.3796 22.7377 59.4236 22.899 59.453 23.053L59.211 23.196C59.255 23.086 59.3026 22.9503 59.354 22.789C59.4126 22.6203 59.475 22.4407 59.541 22.25L60.619 19.159H62.621L60.135 25L59.123 27.53H57.374ZM41.5566 39.11C40.9993 39.11 40.4786 39.011 39.9946 38.813C39.5106 38.6077 39.0853 38.3253 38.7186 37.966C38.352 37.6067 38.066 37.1887 37.8606 36.712C37.6626 36.228 37.5636 35.7073 37.5636 35.15C37.5636 34.6 37.6626 34.0867 37.8606 33.61C38.066 33.1333 38.3483 32.719 38.7076 32.367C39.0743 32.0077 39.4996 31.729 39.9836 31.531C40.4676 31.333 40.9883 31.234 41.5456 31.234C41.9343 31.234 42.312 31.289 42.6786 31.399C43.0526 31.509 43.39 31.663 43.6906 31.861C43.9913 32.059 44.237 32.2863 44.4276 32.543L43.6576 33.346C43.4376 33.1333 43.2103 32.9573 42.9756 32.818C42.7483 32.6787 42.5136 32.5723 42.2716 32.499C42.0296 32.4257 41.7876 32.389 41.5456 32.389C41.1496 32.389 40.783 32.4587 40.4456 32.598C40.1156 32.7373 39.8223 32.9317 39.5656 33.181C39.3163 33.4303 39.122 33.7237 38.9826 34.061C38.8433 34.391 38.7736 34.754 38.7736 35.15C38.7736 35.5313 38.847 35.8943 38.9936 36.239C39.1403 36.5763 39.342 36.8733 39.5986 37.13C39.8626 37.3867 40.1633 37.5883 40.5006 37.735C40.8453 37.8817 41.2083 37.955 41.5896 37.955C41.8756 37.955 42.147 37.9147 42.4036 37.834C42.6603 37.746 42.8876 37.625 43.0856 37.471C43.2836 37.317 43.4376 37.141 43.5476 36.943C43.6576 36.7377 43.7126 36.5213 43.7126 36.294V36.074L43.8776 36.228H41.5236V35.051H44.9336C44.9483 35.1317 44.9593 35.2123 44.9666 35.293C44.974 35.3663 44.9776 35.4397 44.9776 35.513C44.985 35.579 44.9886 35.645 44.9886 35.711C44.9886 36.217 44.9006 36.679 44.7246 37.097C44.5486 37.5077 44.303 37.8633 43.9876 38.164C43.6796 38.4647 43.3166 38.6993 42.8986 38.868C42.488 39.0293 42.0406 39.11 41.5566 39.11ZM48.8455 39.11C48.2809 39.11 47.7749 38.9817 47.3275 38.725C46.8875 38.461 46.5392 38.1053 46.2825 37.658C46.0259 37.2033 45.8975 36.6863 45.8975 36.107C45.8975 35.5277 46.0259 35.0143 46.2825 34.567C46.5392 34.1123 46.8875 33.7567 47.3275 33.5C47.7749 33.236 48.2809 33.104 48.8455 33.104C49.4029 33.104 49.9015 33.236 50.3415 33.5C50.7889 33.7567 51.1409 34.1123 51.3975 34.567C51.6542 35.0143 51.7825 35.5277 51.7825 36.107C51.7825 36.6863 51.6542 37.2033 51.3975 37.658C51.1409 38.1053 50.7889 38.461 50.3415 38.725C49.9015 38.9817 49.4029 39.11 48.8455 39.11ZM48.8455 38.076C49.1902 38.076 49.4982 37.9917 49.7695 37.823C50.0409 37.647 50.2535 37.4123 50.4075 37.119C50.5615 36.8183 50.6349 36.481 50.6275 36.107C50.6349 35.7257 50.5615 35.3883 50.4075 35.095C50.2535 34.7943 50.0409 34.5597 49.7695 34.391C49.4982 34.2223 49.1902 34.138 48.8455 34.138C48.5009 34.138 48.1892 34.226 47.9105 34.402C47.6392 34.5707 47.4265 34.8053 47.2725 35.106C47.1185 35.3993 47.0452 35.733 47.0525 36.107C47.0452 36.481 47.1185 36.8183 47.2725 37.119C47.4265 37.4123 47.6392 37.647 47.9105 37.823C48.1892 37.9917 48.5009 38.076 48.8455 38.076ZM55.6131 39.11C55.0484 39.11 54.5424 38.9817 54.0951 38.725C53.6551 38.461 53.3068 38.1053 53.0501 37.658C52.7934 37.2033 52.6651 36.6863 52.6651 36.107C52.6651 35.5277 52.7934 35.0143 53.0501 34.567C53.3068 34.1123 53.6551 33.7567 54.0951 33.5C54.5424 33.236 55.0484 33.104 55.6131 33.104C56.1704 33.104 56.6691 33.236 57.1091 33.5C57.5564 33.7567 57.9084 34.1123 58.1651 34.567C58.4218 35.0143 58.5501 35.5277 58.5501 36.107C58.5501 36.6863 58.4218 37.2033 58.1651 37.658C57.9084 38.1053 57.5564 38.461 57.1091 38.725C56.6691 38.9817 56.1704 39.11 55.6131 39.11ZM55.6131 38.076C55.9578 38.076 56.2658 37.9917 56.5371 37.823C56.8084 37.647 57.0211 37.4123 57.1751 37.119C57.3291 36.8183 57.4024 36.481 57.3951 36.107C57.4024 35.7257 57.3291 35.3883 57.1751 35.095C57.0211 34.7943 56.8084 34.5597 56.5371 34.391C56.2658 34.2223 55.9578 34.138 55.6131 34.138C55.2684 34.138 54.9568 34.226 54.6781 34.402C54.4068 34.5707 54.1941 34.8053 54.0401 35.106C53.8861 35.3993 53.8128 35.733 53.8201 36.107C53.8128 36.481 53.8861 36.8183 54.0401 37.119C54.1941 37.4123 54.4068 37.647 54.6781 37.823C54.9568 37.9917 55.2684 38.076 55.6131 38.076ZM62.1937 39.11C61.6657 39.11 61.1927 38.9817 60.7747 38.725C60.364 38.461 60.0377 38.1053 59.7957 37.658C59.5537 37.2033 59.4327 36.6863 59.4327 36.107C59.4327 35.5277 59.55 35.0143 59.7847 34.567C60.0267 34.1123 60.353 33.7567 60.7637 33.5C61.1743 33.236 61.64 33.104 62.1607 33.104C62.4467 33.104 62.7217 33.1517 62.9857 33.247C63.257 33.335 63.499 33.4597 63.7117 33.621C63.9243 33.775 64.0893 33.9473 64.2067 34.138C64.3313 34.3213 64.3937 34.5083 64.3937 34.699L64.0637 34.721V30.86H65.1967V39H64.0637V37.625H64.2837C64.2837 37.801 64.225 37.977 64.1077 38.153C63.9903 38.3217 63.8327 38.4793 63.6347 38.626C63.444 38.7727 63.2203 38.89 62.9637 38.978C62.7143 39.066 62.4577 39.11 62.1937 39.11ZM62.3477 38.131C62.6923 38.131 62.9967 38.043 63.2607 37.867C63.5247 37.691 63.73 37.4527 63.8767 37.152C64.0307 36.844 64.1077 36.4957 64.1077 36.107C64.1077 35.7183 64.0307 35.3737 63.8767 35.073C63.73 34.765 63.5247 34.523 63.2607 34.347C62.9967 34.171 62.6923 34.083 62.3477 34.083C62.003 34.083 61.6987 34.171 61.4347 34.347C61.1707 34.523 60.9617 34.765 60.8077 35.073C60.661 35.3737 60.5877 35.7183 60.5877 36.107C60.5877 36.4957 60.661 36.844 60.8077 37.152C60.9617 37.4527 61.1707 37.691 61.4347 37.867C61.6987 38.043 62.003 38.131 62.3477 38.131ZM29.4843 53.11C29.0663 53.11 28.6776 53.055 28.3183 52.945C27.9663 52.835 27.6436 52.67 27.3503 52.45C27.0643 52.2227 26.8076 51.944 26.5803 51.614L27.3943 50.679C27.7536 51.1923 28.0983 51.548 28.4283 51.746C28.7583 51.944 29.1506 52.043 29.6053 52.043C29.8839 52.043 30.1369 51.999 30.3643 51.911C30.5916 51.823 30.7713 51.702 30.9033 51.548C31.0353 51.394 31.1013 51.218 31.1013 51.02C31.1013 50.888 31.0793 50.7633 31.0353 50.646C30.9913 50.5287 30.9216 50.4223 30.8263 50.327C30.7383 50.2317 30.6209 50.1437 30.4743 50.063C30.3349 49.9823 30.1699 49.9127 29.9793 49.854C29.7886 49.788 29.5686 49.733 29.3193 49.689C28.9233 49.6083 28.5786 49.502 28.2853 49.37C27.9919 49.238 27.7463 49.073 27.5483 48.875C27.3503 48.677 27.2036 48.4533 27.1083 48.204C27.0129 47.9473 26.9653 47.6613 26.9653 47.346C26.9653 47.038 27.0313 46.752 27.1633 46.488C27.3026 46.224 27.4896 45.9967 27.7243 45.806C27.9663 45.608 28.2486 45.4577 28.5713 45.355C28.8939 45.245 29.2423 45.19 29.6163 45.19C30.0123 45.19 30.3753 45.2413 30.7053 45.344C31.0353 45.4467 31.3286 45.6007 31.5853 45.806C31.8419 46.004 32.0546 46.2497 32.2233 46.543L31.3873 47.368C31.2406 47.126 31.0756 46.9243 30.8923 46.763C30.7089 46.5943 30.5073 46.4697 30.2873 46.389C30.0673 46.301 29.8326 46.257 29.5833 46.257C29.2973 46.257 29.0479 46.301 28.8353 46.389C28.6226 46.477 28.4539 46.6017 28.3293 46.763C28.2119 46.917 28.1533 47.1003 28.1533 47.313C28.1533 47.467 28.1826 47.61 28.2413 47.742C28.2999 47.8667 28.3879 47.9803 28.5053 48.083C28.6299 48.1783 28.7949 48.2663 29.0003 48.347C29.2056 48.4203 29.4513 48.4863 29.7373 48.545C30.1406 48.633 30.4999 48.7467 30.8153 48.886C31.1306 49.018 31.3983 49.1757 31.6183 49.359C31.8383 49.5423 32.0033 49.7477 32.1133 49.975C32.2306 50.2023 32.2893 50.448 32.2893 50.712C32.2893 51.2033 32.1756 51.6287 31.9483 51.988C31.7209 52.3473 31.3983 52.626 30.9803 52.824C30.5623 53.0147 30.0636 53.11 29.4843 53.11ZM33.6865 53V44.86H34.8195V48.413L34.6215 48.545C34.6949 48.2883 34.8379 48.0537 35.0505 47.841C35.2632 47.621 35.5162 47.445 35.8095 47.313C36.1029 47.1737 36.4035 47.104 36.7115 47.104C37.1515 47.104 37.5182 47.192 37.8115 47.368C38.1049 47.5367 38.3249 47.797 38.4715 48.149C38.6182 48.501 38.6915 48.9447 38.6915 49.48V53H37.5585V49.557C37.5585 49.227 37.5145 48.9557 37.4265 48.743C37.3385 48.523 37.2029 48.3653 37.0195 48.27C36.8362 48.1673 36.6089 48.1233 36.3375 48.138C36.1175 48.138 35.9159 48.1747 35.7325 48.248C35.5492 48.314 35.3879 48.4093 35.2485 48.534C35.1165 48.6587 35.0102 48.8053 34.9295 48.974C34.8562 49.1353 34.8195 49.3113 34.8195 49.502V53H34.2585C34.1632 53 34.0679 53 33.9725 53C33.8772 53 33.7819 53 33.6865 53ZM42.9235 53.11C42.3295 53.11 41.8015 52.9853 41.3395 52.736C40.8849 52.4793 40.5255 52.131 40.2615 51.691C40.0049 51.251 39.8765 50.745 39.8765 50.173C39.8765 49.7183 39.9499 49.304 40.0965 48.93C40.2432 48.556 40.4449 48.2333 40.7015 47.962C40.9655 47.6833 41.2772 47.4707 41.6365 47.324C42.0032 47.17 42.3992 47.093 42.8245 47.093C43.1985 47.093 43.5469 47.1663 43.8695 47.313C44.1922 47.4523 44.4709 47.6467 44.7055 47.896C44.9475 48.1453 45.1309 48.4423 45.2555 48.787C45.3875 49.1243 45.4499 49.4947 45.4425 49.898L45.4315 50.382H40.7125L40.4595 49.48H44.4525L44.2875 49.667V49.403C44.2655 49.161 44.1849 48.9447 44.0455 48.754C43.9062 48.5633 43.7302 48.413 43.5175 48.303C43.3049 48.193 43.0739 48.138 42.8245 48.138C42.4285 48.138 42.0949 48.215 41.8235 48.369C41.5522 48.5157 41.3469 48.7357 41.2075 49.029C41.0682 49.315 40.9985 49.6707 40.9985 50.096C40.9985 50.4993 41.0829 50.8513 41.2515 51.152C41.4202 51.4453 41.6585 51.6727 41.9665 51.834C42.2745 51.9953 42.6302 52.076 43.0335 52.076C43.3195 52.076 43.5835 52.0283 43.8255 51.933C44.0749 51.8377 44.3425 51.6653 44.6285 51.416L45.2005 52.219C45.0245 52.395 44.8082 52.549 44.5515 52.681C44.3022 52.813 44.0345 52.9193 43.7485 53C43.4699 53.0733 43.1949 53.11 42.9235 53.11ZM46.6738 55.42V47.225H47.8178V48.545L47.6418 48.446C47.6858 48.226 47.8105 48.017 48.0158 47.819C48.2212 47.6137 48.4705 47.4487 48.7638 47.324C49.0645 47.192 49.3725 47.126 49.6878 47.126C50.2085 47.126 50.6705 47.2543 51.0738 47.511C51.4772 47.7677 51.7962 48.1197 52.0308 48.567C52.2655 49.0143 52.3828 49.5277 52.3828 50.107C52.3828 50.679 52.2655 51.1923 52.0308 51.647C51.8035 52.0943 51.4882 52.45 51.0848 52.714C50.6815 52.9707 50.2268 53.099 49.7208 53.099C49.3835 53.099 49.0572 53.033 48.7418 52.901C48.4265 52.7617 48.1588 52.5857 47.9388 52.373C47.7188 52.1603 47.5832 51.9403 47.5318 51.713L47.8178 51.559V55.42H46.6738ZM49.5338 52.054C49.8712 52.054 50.1718 51.9697 50.4358 51.801C50.6998 51.6323 50.9088 51.4013 51.0628 51.108C51.2168 50.8147 51.2938 50.481 51.2938 50.107C51.2938 49.733 51.2168 49.403 51.0628 49.117C50.9162 48.8237 50.7108 48.5927 50.4468 48.424C50.1828 48.2553 49.8785 48.171 49.5338 48.171C49.1892 48.171 48.8848 48.2553 48.6208 48.424C48.3568 48.5853 48.1478 48.8127 47.9938 49.106C47.8398 49.3993 47.7628 49.733 47.7628 50.107C47.7628 50.481 47.8398 50.8147 47.9938 51.108C48.1478 51.4013 48.3568 51.6323 48.6208 51.801C48.8848 51.9697 49.1892 52.054 49.5338 52.054ZM53.6133 53V44.86H54.7463V48.413L54.5483 48.545C54.6216 48.2883 54.7646 48.0537 54.9773 47.841C55.19 47.621 55.443 47.445 55.7363 47.313C56.0296 47.1737 56.3303 47.104 56.6383 47.104C57.0783 47.104 57.445 47.192 57.7383 47.368C58.0316 47.5367 58.2516 47.797 58.3983 48.149C58.545 48.501 58.6183 48.9447 58.6183 49.48V53H57.4853V49.557C57.4853 49.227 57.4413 48.9557 57.3533 48.743C57.2653 48.523 57.1296 48.3653 56.9463 48.27C56.763 48.1673 56.5356 48.1233 56.2643 48.138C56.0443 48.138 55.8426 48.1747 55.6593 48.248C55.476 48.314 55.3146 48.4093 55.1753 48.534C55.0433 48.6587 54.937 48.8053 54.8563 48.974C54.783 49.1353 54.7463 49.3113 54.7463 49.502V53H54.1853C54.09 53 53.9946 53 53.8993 53C53.804 53 53.7086 53 53.6133 53ZM62.8503 53.11C62.2563 53.11 61.7283 52.9853 61.2663 52.736C60.8116 52.4793 60.4523 52.131 60.1883 51.691C59.9316 51.251 59.8033 50.745 59.8033 50.173C59.8033 49.7183 59.8766 49.304 60.0233 48.93C60.1699 48.556 60.3716 48.2333 60.6283 47.962C60.8923 47.6833 61.2039 47.4707 61.5633 47.324C61.9299 47.17 62.3259 47.093 62.7513 47.093C63.1253 47.093 63.4736 47.1663 63.7963 47.313C64.1189 47.4523 64.3976 47.6467 64.6323 47.896C64.8743 48.1453 65.0576 48.4423 65.1823 48.787C65.3143 49.1243 65.3766 49.4947 65.3693 49.898L65.3583 50.382H60.6393L60.3863 49.48H64.3793L64.2143 49.667V49.403C64.1923 49.161 64.1116 48.9447 63.9723 48.754C63.8329 48.5633 63.6569 48.413 63.4443 48.303C63.2316 48.193 63.0006 48.138 62.7513 48.138C62.3553 48.138 62.0216 48.215 61.7503 48.369C61.4789 48.5157 61.2736 48.7357 61.1343 49.029C60.9949 49.315 60.9253 49.6707 60.9253 50.096C60.9253 50.4993 61.0096 50.8513 61.1783 51.152C61.3469 51.4453 61.5853 51.6727 61.8933 51.834C62.2013 51.9953 62.5569 52.076 62.9603 52.076C63.2463 52.076 63.5103 52.0283 63.7523 51.933C64.0016 51.8377 64.2693 51.6653 64.5553 51.416L65.1273 52.219C64.9513 52.395 64.7349 52.549 64.4783 52.681C64.2289 52.813 63.9613 52.9193 63.6753 53C63.3966 53.0733 63.1216 53.11 62.8503 53.11ZM66.6006 53V47.225H67.7446V49.04L67.6346 48.6C67.7153 48.3213 67.8509 48.0683 68.0416 47.841C68.2396 47.6137 68.4633 47.434 68.7126 47.302C68.9693 47.17 69.2333 47.104 69.5046 47.104C69.6293 47.104 69.7466 47.115 69.8566 47.137C69.9739 47.159 70.0656 47.1847 70.1316 47.214L69.8346 48.446C69.7466 48.4093 69.6476 48.38 69.5376 48.358C69.4349 48.3287 69.3323 48.314 69.2296 48.314C69.0316 48.314 68.8409 48.3543 68.6576 48.435C68.4816 48.5083 68.3239 48.6147 68.1846 48.754C68.0526 48.886 67.9463 49.0437 67.8656 49.227C67.7849 49.403 67.7446 49.5973 67.7446 49.81V53H66.6006ZM73.199 53.11C72.671 53.11 72.198 52.9817 71.78 52.725C71.3694 52.461 71.043 52.1053 70.801 51.658C70.559 51.2033 70.438 50.6863 70.438 50.107C70.438 49.5277 70.5554 49.0143 70.79 48.567C71.032 48.1123 71.3584 47.7567 71.769 47.5C72.1797 47.236 72.6454 47.104 73.166 47.104C73.452 47.104 73.727 47.1517 73.991 47.247C74.2624 47.335 74.5044 47.4597 74.717 47.621C74.9297 47.775 75.0947 47.9473 75.212 48.138C75.3367 48.3213 75.399 48.5083 75.399 48.699L75.069 48.721V44.86H76.202V53H75.069V51.625H75.289C75.289 51.801 75.2304 51.977 75.113 52.153C74.9957 52.3217 74.838 52.4793 74.64 52.626C74.4494 52.7727 74.2257 52.89 73.969 52.978C73.7197 53.066 73.463 53.11 73.199 53.11ZM73.353 52.131C73.6977 52.131 74.002 52.043 74.266 51.867C74.53 51.691 74.7354 51.4527 74.882 51.152C75.036 50.844 75.113 50.4957 75.113 50.107C75.113 49.7183 75.036 49.3737 74.882 49.073C74.7354 48.765 74.53 48.523 74.266 48.347C74.002 48.171 73.6977 48.083 73.353 48.083C73.0084 48.083 72.704 48.171 72.44 48.347C72.176 48.523 71.967 48.765 71.813 49.073C71.6664 49.3737 71.593 49.7183 71.593 50.107C71.593 50.4957 71.6664 50.844 71.813 51.152C71.967 51.4527 72.176 51.691 72.44 51.867C72.704 52.043 73.0084 52.131 73.353 52.131Z" fill="black"/>
</svg>
