<svg width="80" height="68" viewBox="0 0 80 68" fill="none" xmlns="http://www.w3.org/2000/svg">
<path d="M40.5657 4H35.4343C35.0349 4 34.7967 4.44507 35.0182 4.77735L36.416 6.87404C36.4708 6.95617 36.5 7.05268 36.5 7.15139V8.5V12.5C36.5 12.7761 36.2761 13 36 13H32H29.1514C29.0527 13 28.9562 12.9708 28.874 12.916L26.7773 11.5182C26.4451 11.2967 26 11.5349 26 11.9343V17.0657C26 17.4651 26.4451 17.7033 26.7774 17.4818L28.874 16.084C28.9562 16.0292 29.0527 16 29.1514 16H32H36C36.2761 16 36.5 16.2239 36.5 16.5V20V35.882C36.5 35.9596 36.4819 36.0361 36.4472 36.1056L35.3618 38.2764C35.1956 38.6088 35.4373 39 35.809 39H40.191C40.5627 39 40.8044 38.6088 40.6382 38.2764L39.5528 36.1056C39.5181 36.0361 39.5 35.9596 39.5 35.882V20V16.5C39.5 16.2239 39.7239 16 40 16H44H46.8486C46.9473 16 47.0438 16.0292 47.126 16.084L49.2227 17.4818C49.5549 17.7033 50 17.4651 50 17.0657V11.9343C50 11.5349 49.5549 11.2967 49.2227 11.5182L47.126 12.916C47.0438 12.9708 46.9473 13 46.8486 13H44H40C39.7239 13 39.5 12.7761 39.5 12.5V8.5V7.15139C39.5 7.05268 39.5292 6.95617 39.584 6.87404L40.9818 4.77735C41.2033 4.44507 40.9651 4 40.5657 4Z" fill="#4F4533"/>
<path d="M36.5 8.5V12.5C36.5 12.7761 36.2761 13 36 13H32M36.5 8.5V7.15139C36.5 7.05268 36.4708 6.95617 36.416 6.87404L35.0182 4.77735C34.7967 4.44507 35.0349 4 35.4343 4H40.5657C40.9651 4 41.2033 4.44507 40.9818 4.77735L39.584 6.87404C39.5292 6.95617 39.5 7.05268 39.5 7.15139V8.5M36.5 8.5C34 8.5 32 10.5 32 13M32 13H29.1514C29.0527 13 28.9562 12.9708 28.874 12.916L26.7773 11.5182C26.4451 11.2967 26 11.5349 26 11.9343V17.0657C26 17.4651 26.4451 17.7033 26.7774 17.4818L28.874 16.084C28.9562 16.0292 29.0527 16 29.1514 16H32M39.5 8.5V12.5C39.5 12.7761 39.7239 13 40 13H44M39.5 8.5C42 8.5 44 10.5 44 13M44 13H46.8486C46.9473 13 47.0438 12.9708 47.126 12.916L49.2227 11.5182C49.5549 11.2967 50 11.5349 50 11.9343V17.0657C50 17.4651 49.5549 17.7033 49.2226 17.4818L47.126 16.084C47.0438 16.0292 46.9473 16 46.8486 16H44M44 16H40C39.7239 16 39.5 16.2239 39.5 16.5V20M44 16C44 18.5 42 20 39.5 20M39.5 20V35.882C39.5 35.9596 39.5181 36.0361 39.5528 36.1056L40.6382 38.2764C40.8044 38.6088 40.5627 39 40.191 39H35.809C35.4373 39 35.1956 38.6088 35.3618 38.2764L36.4472 36.1056C36.4819 36.0361 36.5 35.9596 36.5 35.882V20M36.5 20V16.5C36.5 16.2239 36.2761 16 36 16H32M36.5 20C34 20 32 18.5 32 16" stroke="black"/>
<path d="M16.508 51V43.3H19.973C20.4644 43.3 20.908 43.4063 21.304 43.619C21.7074 43.8317 22.0227 44.125 22.25 44.499C22.4774 44.8657 22.591 45.2837 22.591 45.753C22.591 46.237 22.4774 46.6733 22.25 47.062C22.0227 47.4433 21.711 47.744 21.315 47.964C20.919 48.184 20.4717 48.294 19.973 48.294H18.29V51H16.508ZM20.776 51L18.818 47.524L20.732 47.249L22.91 51H20.776ZM18.29 46.864H19.808C19.9987 46.864 20.1637 46.8237 20.303 46.743C20.4497 46.655 20.5597 46.534 20.633 46.38C20.7137 46.226 20.754 46.05 20.754 45.852C20.754 45.654 20.71 45.4817 20.622 45.335C20.534 45.181 20.4057 45.0637 20.237 44.983C20.0757 44.9023 19.8777 44.862 19.643 44.862H18.29V46.864ZM24.1437 51V45.159H25.9037V51H24.1437ZM25.0237 44.004C24.6937 44.004 24.4333 43.927 24.2427 43.773C24.0593 43.6117 23.9677 43.3843 23.9677 43.091C23.9677 42.827 24.063 42.6107 24.2537 42.442C24.4443 42.2733 24.701 42.189 25.0237 42.189C25.3537 42.189 25.6103 42.2697 25.7937 42.431C25.977 42.585 26.0687 42.805 26.0687 43.091C26.0687 43.3623 25.9733 43.5823 25.7827 43.751C25.5993 43.9197 25.3463 44.004 25.0237 44.004ZM30.1204 51.11C29.5557 51.11 29.0497 50.978 28.6024 50.714C28.155 50.45 27.7994 50.0907 27.5354 49.636C27.2787 49.174 27.1504 48.6533 27.1504 48.074C27.1504 47.4947 27.2787 46.9777 27.5354 46.523C27.7994 46.061 28.155 45.698 28.6024 45.434C29.0497 45.17 29.5557 45.038 30.1204 45.038C30.641 45.038 31.1177 45.1297 31.5504 45.313C31.9904 45.4963 32.3387 45.753 32.5954 46.083L31.6384 47.227C31.5357 47.1097 31.4147 46.9997 31.2754 46.897C31.136 46.7943 30.982 46.7137 30.8134 46.655C30.6447 46.5963 30.4687 46.567 30.2854 46.567C30.0067 46.567 29.761 46.633 29.5484 46.765C29.3357 46.8897 29.1707 47.0657 29.0534 47.293C28.936 47.5203 28.8774 47.7807 28.8774 48.074C28.8774 48.3527 28.936 48.6057 29.0534 48.833C29.178 49.0603 29.3467 49.24 29.5594 49.372C29.772 49.504 30.014 49.57 30.2854 49.57C30.476 49.57 30.652 49.548 30.8134 49.504C30.9747 49.4527 31.1214 49.3793 31.2534 49.284C31.3927 49.1887 31.521 49.0713 31.6384 48.932L32.5844 50.087C32.335 50.4023 31.9867 50.6517 31.5394 50.835C31.0994 51.0183 30.6264 51.11 30.1204 51.11ZM33.5515 51V42.86H35.2785V46.347L34.9265 46.479C35.0072 46.215 35.1502 45.9767 35.3555 45.764C35.5682 45.544 35.8212 45.368 36.1145 45.236C36.4078 45.104 36.7158 45.038 37.0385 45.038C37.4785 45.038 37.8488 45.1297 38.1495 45.313C38.4502 45.489 38.6775 45.7567 38.8315 46.116C38.9855 46.468 39.0625 46.9007 39.0625 47.414V51H37.2915V47.557C37.2915 47.3223 37.2585 47.128 37.1925 46.974C37.1265 46.82 37.0238 46.7063 36.8845 46.633C36.7525 46.5523 36.5875 46.5157 36.3895 46.523C36.2355 46.523 36.0925 46.5487 35.9605 46.6C35.8285 46.644 35.7148 46.7137 35.6195 46.809C35.5242 46.897 35.4472 46.9997 35.3885 47.117C35.3372 47.2343 35.3115 47.3627 35.3115 47.502V51H34.4425C34.2372 51 34.0612 51 33.9145 51C33.7678 51 33.6468 51 33.5515 51ZM40.8969 51V44.873C40.8969 44.4917 40.9776 44.147 41.1389 43.839C41.3076 43.531 41.5386 43.289 41.8319 43.113C42.1326 42.9297 42.4809 42.838 42.8769 42.838C43.1556 42.838 43.4123 42.8783 43.6469 42.959C43.8816 43.0397 44.0906 43.1533 44.2739 43.3L43.7679 44.587C43.6726 44.5357 43.5809 44.4953 43.4929 44.466C43.4049 44.4367 43.3243 44.422 43.2509 44.422C43.1189 44.422 43.0089 44.444 42.9209 44.488C42.8329 44.532 42.7669 44.6017 42.7229 44.697C42.6863 44.785 42.6679 44.895 42.6679 45.027V51H41.7879C41.5899 51 41.4139 51 41.2599 51C41.1133 51 40.9923 51 40.8969 51ZM40.0499 46.776V45.324H43.8669V46.776H40.0499ZM44.9559 51V45.159H46.7159V51H44.9559ZM45.8359 44.004C45.5059 44.004 45.2456 43.927 45.0549 43.773C44.8716 43.6117 44.7799 43.3843 44.7799 43.091C44.7799 42.827 44.8753 42.6107 45.0659 42.442C45.2566 42.2733 45.5133 42.189 45.8359 42.189C46.1659 42.189 46.4226 42.2697 46.6059 42.431C46.7893 42.585 46.8809 42.805 46.8809 43.091C46.8809 43.3623 46.7856 43.5823 46.5949 43.751C46.4116 43.9197 46.1586 44.004 45.8359 44.004ZM51.148 51.11C50.5027 51.11 49.9417 50.9817 49.465 50.725C48.9883 50.461 48.618 50.1053 48.354 49.658C48.09 49.2033 47.958 48.6863 47.958 48.107C47.958 47.6597 48.0313 47.249 48.178 46.875C48.3247 46.501 48.53 46.1783 48.794 45.907C49.058 45.6283 49.3697 45.4157 49.729 45.269C50.0957 45.115 50.4953 45.038 50.928 45.038C51.3387 45.038 51.7127 45.1113 52.05 45.258C52.3947 45.4047 52.6917 45.61 52.941 45.874C53.1903 46.138 53.381 46.4497 53.513 46.809C53.645 47.1683 53.7037 47.5607 53.689 47.986L53.678 48.459H49.025L48.772 47.469H52.248L52.061 47.678V47.458C52.0463 47.2747 51.9877 47.1133 51.885 46.974C51.7897 46.8273 51.6613 46.7137 51.5 46.633C51.3387 46.5523 51.1553 46.512 50.95 46.512C50.664 46.512 50.4183 46.5707 50.213 46.688C50.015 46.798 49.8647 46.963 49.762 47.183C49.6593 47.3957 49.608 47.6597 49.608 47.975C49.608 48.2977 49.674 48.58 49.806 48.822C49.9453 49.0567 50.1433 49.24 50.4 49.372C50.664 49.504 50.9757 49.57 51.335 49.57C51.5843 49.57 51.8043 49.5333 51.995 49.46C52.193 49.3867 52.4057 49.262 52.633 49.086L53.458 50.252C53.2307 50.45 52.9887 50.6113 52.732 50.736C52.4753 50.8607 52.2113 50.9523 51.94 51.011C51.676 51.077 51.412 51.11 51.148 51.11ZM54.8213 51V42.86H56.5813V51H54.8213ZM60.2547 51.121C59.7487 51.121 59.2977 50.9927 58.9017 50.736C58.513 50.472 58.205 50.1127 57.9777 49.658C57.7504 49.196 57.6367 48.6717 57.6367 48.085C57.6367 47.4983 57.7504 46.9777 57.9777 46.523C58.205 46.061 58.5167 45.698 58.9127 45.434C59.3087 45.17 59.7634 45.038 60.2767 45.038C60.5407 45.038 60.7937 45.0783 61.0357 45.159C61.2777 45.2397 61.4977 45.3497 61.6957 45.489C61.8937 45.6283 62.055 45.7897 62.1797 45.973C62.3044 46.149 62.3777 46.3323 62.3997 46.523L61.9817 46.622V42.86H63.7527V51H62.1137L62.0147 49.669L62.3667 49.724C62.3447 49.9073 62.2714 50.0833 62.1467 50.252C62.0294 50.4207 61.8754 50.571 61.6847 50.703C61.494 50.8277 61.274 50.9267 61.0247 51C60.7827 51.0807 60.526 51.121 60.2547 51.121ZM60.7057 49.658C60.977 49.658 61.2117 49.592 61.4097 49.46C61.6077 49.328 61.758 49.1447 61.8607 48.91C61.9707 48.6753 62.0257 48.4003 62.0257 48.085C62.0257 47.7623 61.9707 47.4837 61.8607 47.249C61.758 47.0143 61.6077 46.831 61.4097 46.699C61.2117 46.567 60.977 46.501 60.7057 46.501C60.4344 46.501 60.1997 46.567 60.0017 46.699C59.811 46.831 59.6607 47.0143 59.5507 47.249C59.4407 47.4837 59.3857 47.7623 59.3857 48.085C59.3857 48.4003 59.4407 48.6753 59.5507 48.91C59.6607 49.1447 59.811 49.328 60.0017 49.46C60.1997 49.592 60.4344 49.658 60.7057 49.658ZM6.71035 65.11C6.29235 65.11 5.90368 65.055 5.54435 64.945C5.19235 64.835 4.86968 64.67 4.57635 64.45C4.29035 64.2227 4.03368 63.944 3.80635 63.614L4.62035 62.679C4.97968 63.1923 5.32435 63.548 5.65435 63.746C5.98435 63.944 6.37668 64.043 6.83135 64.043C7.11001 64.043 7.36301 63.999 7.59035 63.911C7.81768 63.823 7.99735 63.702 8.12935 63.548C8.26135 63.394 8.32735 63.218 8.32735 63.02C8.32735 62.888 8.30535 62.7633 8.26135 62.646C8.21735 62.5287 8.14768 62.4223 8.05235 62.327C7.96435 62.2317 7.84701 62.1437 7.70035 62.063C7.56101 61.9823 7.39601 61.9127 7.20535 61.854C7.01468 61.788 6.79468 61.733 6.54535 61.689C6.14935 61.6083 5.80468 61.502 5.51135 61.37C5.21801 61.238 4.97235 61.073 4.77435 60.875C4.57635 60.677 4.42968 60.4533 4.33435 60.204C4.23901 59.9473 4.19135 59.6613 4.19135 59.346C4.19135 59.038 4.25735 58.752 4.38935 58.488C4.52868 58.224 4.71568 57.9967 4.95035 57.806C5.19235 57.608 5.47468 57.4577 5.79735 57.355C6.12001 57.245 6.46835 57.19 6.84235 57.19C7.23835 57.19 7.60135 57.2413 7.93135 57.344C8.26135 57.4467 8.55468 57.6007 8.81135 57.806C9.06801 58.004 9.28068 58.2497 9.44935 58.543L8.61335 59.368C8.46668 59.126 8.30168 58.9243 8.11835 58.763C7.93501 58.5943 7.73335 58.4697 7.51335 58.389C7.29335 58.301 7.05868 58.257 6.80935 58.257C6.52335 58.257 6.27401 58.301 6.06135 58.389C5.84868 58.477 5.68001 58.6017 5.55535 58.763C5.43801 58.917 5.37935 59.1003 5.37935 59.313C5.37935 59.467 5.40868 59.61 5.46735 59.742C5.52601 59.8667 5.61401 59.9803 5.73135 60.083C5.85601 60.1783 6.02101 60.2663 6.22635 60.347C6.43168 60.4203 6.67735 60.4863 6.96335 60.545C7.36668 60.633 7.72601 60.7467 8.04135 60.886C8.35668 61.018 8.62435 61.1757 8.84435 61.359C9.06435 61.5423 9.22935 61.7477 9.33935 61.975C9.45668 62.2023 9.51535 62.448 9.51535 62.712C9.51535 63.2033 9.40168 63.6287 9.17435 63.988C8.94701 64.3473 8.62435 64.626 8.20635 64.824C7.78835 65.0147 7.28968 65.11 6.71035 65.11ZM11.6276 65V57.751H12.7606V65H11.6276ZM10.4286 60.325V59.225H14.1026V60.325H10.4286ZM15.5963 65.121C15.3543 65.121 15.1673 65.0513 15.0353 64.912C14.9033 64.7653 14.8373 64.56 14.8373 64.296C14.8373 64.054 14.907 63.856 15.0463 63.702C15.1856 63.548 15.369 63.471 15.5963 63.471C15.8383 63.471 16.0253 63.5443 16.1573 63.691C16.2893 63.8303 16.3553 64.032 16.3553 64.296C16.3553 64.538 16.2856 64.736 16.1463 64.89C16.007 65.044 15.8236 65.121 15.5963 65.121ZM21.0062 65V57.3H25.8572V58.444H22.1942V63.856H25.8572V65H21.0062ZM21.5452 61.623V60.479H25.2522V61.623H21.5452ZM27.4991 65V56.86H28.6321V65H27.4991ZM30.4248 65V59.225H31.5578V65H30.4248ZM30.9748 57.949C30.7328 57.949 30.5458 57.8867 30.4138 57.762C30.2818 57.6373 30.2158 57.4613 30.2158 57.234C30.2158 57.0213 30.2818 56.849 30.4138 56.717C30.5531 56.585 30.7401 56.519 30.9748 56.519C31.2168 56.519 31.4038 56.5813 31.5358 56.706C31.6678 56.8307 31.7338 57.0067 31.7338 57.234C31.7338 57.4467 31.6641 57.619 31.5248 57.751C31.3928 57.883 31.2095 57.949 30.9748 57.949ZM33.0573 65V64.054L36.0383 60.072V60.204H33.0573V59.225H37.2703V60.149L34.3333 64.076L34.2893 64.021H37.3363V65H33.0573ZM40.742 65.11C40.2654 65.11 39.829 64.978 39.433 64.714C39.0444 64.45 38.7327 64.0907 38.498 63.636C38.2634 63.1813 38.146 62.668 38.146 62.096C38.146 61.5167 38.2634 61.0033 38.498 60.556C38.74 60.1013 39.0627 59.7457 39.466 59.489C39.8767 59.2323 40.335 59.104 40.841 59.104C41.1417 59.104 41.4167 59.148 41.666 59.236C41.9154 59.324 42.1317 59.4487 42.315 59.61C42.5057 59.764 42.6597 59.9437 42.777 60.149C42.9017 60.3543 42.9787 60.5743 43.008 60.809L42.755 60.721V59.225H43.899V65H42.755V63.625L43.019 63.548C42.975 63.746 42.8834 63.9403 42.744 64.131C42.612 64.3143 42.4397 64.4793 42.227 64.626C42.0217 64.7727 41.7907 64.89 41.534 64.978C41.2847 65.066 41.0207 65.11 40.742 65.11ZM41.039 64.065C41.3837 64.065 41.688 63.9807 41.952 63.812C42.216 63.6433 42.4214 63.4123 42.568 63.119C42.722 62.8183 42.799 62.4773 42.799 62.096C42.799 61.722 42.722 61.3883 42.568 61.095C42.4214 60.8017 42.216 60.5707 41.952 60.402C41.688 60.2333 41.3837 60.149 41.039 60.149C40.7017 60.149 40.401 60.2333 40.137 60.402C39.8804 60.5707 39.675 60.8017 39.521 61.095C39.3744 61.3883 39.301 61.722 39.301 62.096C39.301 62.4773 39.3744 62.8183 39.521 63.119C39.675 63.4123 39.8804 63.6433 40.137 63.812C40.401 63.9807 40.7017 64.065 41.039 64.065ZM48.517 65.11C48.2676 65.11 48.0183 65.0697 47.769 64.989C47.527 64.9083 47.3033 64.802 47.098 64.67C46.9 64.5307 46.7313 64.3803 46.592 64.219C46.46 64.0503 46.372 63.8817 46.328 63.713L46.614 63.559V64.967H45.481V56.86H46.614V60.545L46.438 60.446C46.4746 60.2773 46.5553 60.116 46.68 59.962C46.8046 59.8007 46.9623 59.6577 47.153 59.533C47.351 59.401 47.5636 59.2983 47.791 59.225C48.0183 59.1443 48.2493 59.104 48.484 59.104C49.0046 59.104 49.4666 59.2323 49.87 59.489C50.2733 59.7457 50.5923 60.1013 50.827 60.556C51.0616 61.0033 51.179 61.5167 51.179 62.096C51.179 62.6753 51.0616 63.1923 50.827 63.647C50.5996 64.1017 50.2843 64.461 49.881 64.725C49.4776 64.9817 49.023 65.11 48.517 65.11ZM48.33 64.076C48.6673 64.076 48.968 63.9917 49.232 63.823C49.496 63.647 49.705 63.4123 49.859 63.119C50.013 62.8183 50.09 62.4773 50.09 62.096C50.09 61.722 50.013 61.3883 49.859 61.095C49.7123 60.7943 49.507 60.5597 49.243 60.391C48.979 60.2223 48.6746 60.138 48.33 60.138C47.9853 60.138 47.681 60.2223 47.417 60.391C47.153 60.5597 46.944 60.7943 46.79 61.095C46.636 61.3883 46.559 61.722 46.559 62.096C46.559 62.4773 46.636 62.8183 46.79 63.119C46.944 63.4123 47.153 63.647 47.417 63.823C47.681 63.9917 47.9853 64.076 48.33 64.076ZM55.1047 65.11C54.5107 65.11 53.9827 64.9853 53.5207 64.736C53.066 64.4793 52.7067 64.131 52.4427 63.691C52.186 63.251 52.0577 62.745 52.0577 62.173C52.0577 61.7183 52.131 61.304 52.2777 60.93C52.4243 60.556 52.626 60.2333 52.8827 59.962C53.1467 59.6833 53.4583 59.4707 53.8177 59.324C54.1843 59.17 54.5803 59.093 55.0057 59.093C55.3797 59.093 55.728 59.1663 56.0507 59.313C56.3733 59.4523 56.652 59.6467 56.8867 59.896C57.1287 60.1453 57.312 60.4423 57.4367 60.787C57.5687 61.1243 57.631 61.4947 57.6237 61.898L57.6127 62.382H52.8937L52.6407 61.48H56.6337L56.4687 61.667V61.403C56.4467 61.161 56.366 60.9447 56.2267 60.754C56.0873 60.5633 55.9113 60.413 55.6987 60.303C55.486 60.193 55.255 60.138 55.0057 60.138C54.6097 60.138 54.276 60.215 54.0047 60.369C53.7333 60.5157 53.528 60.7357 53.3887 61.029C53.2493 61.315 53.1797 61.6707 53.1797 62.096C53.1797 62.4993 53.264 62.8513 53.4327 63.152C53.6013 63.4453 53.8397 63.6727 54.1477 63.834C54.4557 63.9953 54.8113 64.076 55.2147 64.076C55.5007 64.076 55.7647 64.0283 56.0067 63.933C56.256 63.8377 56.5237 63.6653 56.8097 63.416L57.3817 64.219C57.2057 64.395 56.9893 64.549 56.7327 64.681C56.4833 64.813 56.2157 64.9193 55.9297 65C55.651 65.0733 55.376 65.11 55.1047 65.11ZM59.57 65V57.751H60.703V65H59.57ZM58.371 60.325V59.225H62.045V60.325H58.371ZM63.0767 65V56.86H64.2097V60.413L64.0117 60.545C64.085 60.2883 64.228 60.0537 64.4407 59.841C64.6533 59.621 64.9063 59.445 65.1997 59.313C65.493 59.1737 65.7937 59.104 66.1017 59.104C66.5417 59.104 66.9083 59.192 67.2017 59.368C67.495 59.5367 67.715 59.797 67.8617 60.149C68.0083 60.501 68.0817 60.9447 68.0817 61.48V65H66.9487V61.557C66.9487 61.227 66.9047 60.9557 66.8167 60.743C66.7287 60.523 66.593 60.3653 66.4097 60.27C66.2263 60.1673 65.999 60.1233 65.7277 60.138C65.5077 60.138 65.306 60.1747 65.1227 60.248C64.9393 60.314 64.778 60.4093 64.6387 60.534C64.5067 60.6587 64.4003 60.8053 64.3197 60.974C64.2463 61.1353 64.2097 61.3113 64.2097 61.502V65H63.6487C63.5533 65 63.458 65 63.3627 65C63.2673 65 63.172 65 63.0767 65ZM69.4647 59.775L69.0467 59.269C69.3327 59.137 69.5673 58.9867 69.7507 58.818C69.934 58.6493 70.0257 58.5027 70.0257 58.378C70.0257 58.2827 69.9853 58.1983 69.9047 58.125C69.824 58.0443 69.7507 57.9783 69.6847 57.927C69.5233 57.795 69.4133 57.685 69.3547 57.597C69.3033 57.509 69.2777 57.4173 69.2777 57.322C69.2777 57.146 69.34 57.0067 69.4647 56.904C69.5893 56.794 69.7507 56.739 69.9487 56.739C70.154 56.739 70.3373 56.794 70.4987 56.904C70.6673 57.0067 70.7993 57.1497 70.8947 57.333C70.99 57.5163 71.0377 57.7327 71.0377 57.982C71.0377 58.1727 70.9973 58.3597 70.9167 58.543C70.836 58.7263 70.7223 58.8987 70.5757 59.06C70.4363 59.2213 70.2713 59.3643 70.0807 59.489C69.89 59.6137 69.6847 59.709 69.4647 59.775ZM74.197 65.11C73.713 65.11 73.2766 65.0257 72.888 64.857C72.4993 64.6883 72.1766 64.439 71.92 64.109L72.69 63.449C72.91 63.7057 73.1483 63.8927 73.405 64.01C73.669 64.12 73.966 64.175 74.296 64.175C74.428 64.175 74.549 64.1603 74.659 64.131C74.7763 64.0943 74.8753 64.043 74.956 63.977C75.044 63.911 75.11 63.834 75.154 63.746C75.198 63.6507 75.22 63.548 75.22 63.438C75.22 63.2473 75.1503 63.0933 75.011 62.976C74.9376 62.9247 74.8203 62.8697 74.659 62.811C74.505 62.745 74.3033 62.679 74.054 62.613C73.6286 62.503 73.2803 62.3783 73.009 62.239C72.7376 62.0997 72.5286 61.942 72.382 61.766C72.272 61.6267 72.1913 61.4763 72.14 61.315C72.0886 61.1463 72.063 60.963 72.063 60.765C72.063 60.523 72.1143 60.303 72.217 60.105C72.327 59.8997 72.4736 59.7237 72.657 59.577C72.8476 59.423 73.0676 59.3057 73.317 59.225C73.5736 59.1443 73.845 59.104 74.131 59.104C74.4023 59.104 74.67 59.1407 74.934 59.214C75.2053 59.2873 75.4546 59.3937 75.682 59.533C75.9093 59.6723 76.1 59.8373 76.254 60.028L75.605 60.743C75.4656 60.6037 75.3116 60.4827 75.143 60.38C74.9816 60.27 74.8166 60.1857 74.648 60.127C74.4793 60.0683 74.3253 60.039 74.186 60.039C74.032 60.039 73.8926 60.0537 73.768 60.083C73.6433 60.1123 73.537 60.1563 73.449 60.215C73.3683 60.2737 73.306 60.347 73.262 60.435C73.218 60.523 73.196 60.622 73.196 60.732C73.2033 60.8273 73.2253 60.919 73.262 61.007C73.306 61.0877 73.3646 61.1573 73.438 61.216C73.5186 61.2747 73.6396 61.337 73.801 61.403C73.9623 61.469 74.1676 61.5313 74.417 61.59C74.7836 61.6853 75.0843 61.7917 75.319 61.909C75.561 62.019 75.7516 62.1473 75.891 62.294C76.0376 62.4333 76.1403 62.5947 76.199 62.778C76.2576 62.9613 76.287 63.1667 76.287 63.394C76.287 63.724 76.1916 64.021 76.001 64.285C75.8176 64.5417 75.5683 64.7433 75.253 64.89C74.9376 65.0367 74.5856 65.11 74.197 65.11Z" fill="black"/>
</svg>
