<svg width="63" height="81" viewBox="0 0 63 81" fill="none" xmlns="http://www.w3.org/2000/svg">
<path d="M17.5657 3H12.4343C12.0349 3 11.7967 3.44507 12.0182 3.77735L13.416 5.87404C13.4708 5.95617 13.5 6.05268 13.5 6.15139V7.5V11.5C13.5 11.7761 13.2761 12 13 12H9H6.15139C6.05268 12 5.95617 11.9708 5.87404 11.916L3.77735 10.5182C3.44507 10.2967 3 10.5349 3 10.9343V16.0657C3 16.4651 3.44507 16.7033 3.77735 16.4818L5.87404 15.084C5.95617 15.0292 6.05268 15 6.15139 15H9H13C13.2761 15 13.5 15.2239 13.5 15.5V19V34.882C13.5 34.9596 13.4819 35.0361 13.4472 35.1056L12.3618 37.2764C12.1956 37.6088 12.4373 38 12.809 38H17.191C17.5627 38 17.8044 37.6088 17.6382 37.2764L16.5528 35.1056C16.5181 35.0361 16.5 34.9596 16.5 34.882V19V15.5C16.5 15.2239 16.7239 15 17 15H21H23.8486C23.9473 15 24.0438 15.0292 24.126 15.084L26.2227 16.4818C26.5549 16.7033 27 16.4651 27 16.0657V10.9343C27 10.5349 26.5549 10.2967 26.2227 10.5182L24.126 11.916C24.0438 11.9708 23.9473 12 23.8486 12H21H17C16.7239 12 16.5 11.7761 16.5 11.5V7.5V6.15139C16.5 6.05268 16.5292 5.95617 16.584 5.87404L17.9818 3.77735C18.2033 3.44507 17.9651 3 17.5657 3Z" fill="#4F4533"/>
<path d="M13.5 7.5V11.5C13.5 11.7761 13.2761 12 13 12H9M13.5 7.5V6.15139C13.5 6.05268 13.4708 5.95617 13.416 5.87404L12.0182 3.77735C11.7967 3.44507 12.0349 3 12.4343 3H17.5657C17.9651 3 18.2033 3.44507 17.9818 3.77735L16.584 5.87404C16.5292 5.95617 16.5 6.05268 16.5 6.15139V7.5M13.5 7.5C11 7.5 9 9.5 9 12M9 12H6.15139C6.05268 12 5.95617 11.9708 5.87404 11.916L3.77735 10.5182C3.44507 10.2967 3 10.5349 3 10.9343V16.0657C3 16.4651 3.44507 16.7033 3.77735 16.4818L5.87404 15.084C5.95617 15.0292 6.05268 15 6.15139 15H9M16.5 7.5V11.5C16.5 11.7761 16.7239 12 17 12H21M16.5 7.5C19 7.5 21 9.5 21 12M21 12H23.8486C23.9473 12 24.0438 11.9708 24.126 11.916L26.2227 10.5182C26.5549 10.2967 27 10.5349 27 10.9343V16.0657C27 16.4651 26.5549 16.7033 26.2226 16.4818L24.126 15.084C24.0438 15.0292 23.9473 15 23.8486 15H21M21 15H17C16.7239 15 16.5 15.2239 16.5 15.5V19M21 15C21 17.5 19 19 16.5 19M16.5 19V34.882C16.5 34.9596 16.5181 35.0361 16.5528 35.1056L17.6382 37.2764C17.8044 37.6088 17.5627 38 17.191 38H12.809C12.4373 38 12.1956 37.6088 12.3618 37.2764L13.4472 35.1056C13.4819 35.0361 13.5 34.9596 13.5 34.882V19M13.5 19V15.5C13.5 15.2239 13.2761 15 13 15H9M13.5 19C11 19 9 17.5 9 15" stroke="black"/>
<path d="M17.7312 48V40.3H21.0532C21.5372 40.3 21.9662 40.41 22.3402 40.63C22.7215 40.85 23.0222 41.1507 23.2422 41.532C23.4695 41.9133 23.5832 42.3423 23.5832 42.819C23.5832 43.3177 23.4695 43.765 23.2422 44.161C23.0222 44.5497 22.7215 44.8577 22.3402 45.085C21.9662 45.3123 21.5372 45.426 21.0532 45.426H19.6012V48H17.7312ZM19.5682 43.787H20.7892C20.9505 43.787 21.0972 43.7467 21.2292 43.666C21.3612 43.5853 21.4675 43.4753 21.5482 43.336C21.6289 43.1967 21.6692 43.0353 21.6692 42.852C21.6692 42.6613 21.6289 42.5 21.5482 42.368C21.4675 42.236 21.3612 42.1333 21.2292 42.06C21.0972 41.9867 20.9505 41.95 20.7892 41.95H19.5682V43.787ZM24.8274 48V42.159H26.4994L26.5764 44.062L26.2464 43.699C26.3344 43.3837 26.4774 43.1013 26.6754 42.852C26.8807 42.6027 27.1191 42.4047 27.3904 42.258C27.6617 42.1113 27.9514 42.038 28.2594 42.038C28.3914 42.038 28.5124 42.049 28.6224 42.071C28.7397 42.093 28.8461 42.1187 28.9414 42.148L28.4574 44.095C28.3767 44.0437 28.2667 44.0033 28.1274 43.974C27.9954 43.9373 27.8561 43.919 27.7094 43.919C27.5481 43.919 27.3977 43.9483 27.2584 44.007C27.1191 44.0583 27.0017 44.1353 26.9064 44.238C26.8111 44.3407 26.7341 44.4617 26.6754 44.601C26.6241 44.7403 26.5984 44.898 26.5984 45.074V48H24.8274ZM32.3362 48.11C31.7275 48.11 31.1848 47.978 30.7082 47.714C30.2388 47.45 29.8648 47.0907 29.5862 46.636C29.3148 46.1813 29.1792 45.6607 29.1792 45.074C29.1792 44.4873 29.3148 43.9667 29.5862 43.512C29.8648 43.0573 30.2388 42.698 30.7082 42.434C31.1848 42.17 31.7275 42.038 32.3362 42.038C32.9448 42.038 33.4838 42.17 33.9532 42.434C34.4298 42.698 34.8038 43.0573 35.0752 43.512C35.3465 43.9667 35.4822 44.4873 35.4822 45.074C35.4822 45.6607 35.3465 46.1813 35.0752 46.636C34.8038 47.0907 34.4298 47.45 33.9532 47.714C33.4838 47.978 32.9448 48.11 32.3362 48.11ZM32.3362 46.592C32.6002 46.592 32.8348 46.526 33.0402 46.394C33.2455 46.262 33.4068 46.0823 33.5242 45.855C33.6415 45.6277 33.6965 45.3673 33.6892 45.074C33.6965 44.7807 33.6415 44.5203 33.5242 44.293C33.4068 44.0583 33.2455 43.875 33.0402 43.743C32.8348 43.611 32.6002 43.545 32.3362 43.545C32.0722 43.545 31.8338 43.611 31.6212 43.743C31.4158 43.875 31.2545 44.0583 31.1372 44.293C31.0198 44.5203 30.9648 44.7807 30.9722 45.074C30.9648 45.3673 31.0198 45.6277 31.1372 45.855C31.2545 46.0823 31.4158 46.262 31.6212 46.394C31.8338 46.526 32.0722 46.592 32.3362 46.592ZM38.2649 48L35.8229 42.159H37.7699L39.2219 46.526L38.7929 46.57L40.2889 42.159H42.2139L39.6509 48H38.2649ZM45.7209 48.11C45.1123 48.11 44.5696 47.978 44.0929 47.714C43.6236 47.45 43.2496 47.0907 42.9709 46.636C42.6996 46.1813 42.5639 45.6607 42.5639 45.074C42.5639 44.4873 42.6996 43.9667 42.9709 43.512C43.2496 43.0573 43.6236 42.698 44.0929 42.434C44.5696 42.17 45.1123 42.038 45.7209 42.038C46.3296 42.038 46.8686 42.17 47.3379 42.434C47.8146 42.698 48.1886 43.0573 48.4599 43.512C48.7313 43.9667 48.8669 44.4873 48.8669 45.074C48.8669 45.6607 48.7313 46.1813 48.4599 46.636C48.1886 47.0907 47.8146 47.45 47.3379 47.714C46.8686 47.978 46.3296 48.11 45.7209 48.11ZM45.7209 46.592C45.9849 46.592 46.2196 46.526 46.4249 46.394C46.6303 46.262 46.7916 46.0823 46.9089 45.855C47.0263 45.6277 47.0813 45.3673 47.0739 45.074C47.0813 44.7807 47.0263 44.5203 46.9089 44.293C46.7916 44.0583 46.6303 43.875 46.4249 43.743C46.2196 43.611 45.9849 43.545 45.7209 43.545C45.4569 43.545 45.2186 43.611 45.0059 43.743C44.8006 43.875 44.6393 44.0583 44.5219 44.293C44.4046 44.5203 44.3496 44.7807 44.3569 45.074C44.3496 45.3673 44.4046 45.6277 44.5219 45.855C44.6393 46.0823 44.8006 46.262 45.0059 46.394C45.2186 46.526 45.4569 46.592 45.7209 46.592ZM8.90566 62.11C8.48766 62.11 8.09899 62.055 7.73966 61.945C7.38766 61.835 7.06499 61.67 6.77166 61.45C6.48566 61.2227 6.22899 60.944 6.00166 60.614L6.81566 59.679C7.17499 60.1923 7.51966 60.548 7.84966 60.746C8.17966 60.944 8.57199 61.043 9.02666 61.043C9.30533 61.043 9.55833 60.999 9.78566 60.911C10.013 60.823 10.1927 60.702 10.3247 60.548C10.4567 60.394 10.5227 60.218 10.5227 60.02C10.5227 59.888 10.5007 59.7633 10.4567 59.646C10.4127 59.5287 10.343 59.4223 10.2477 59.327C10.1597 59.2317 10.0423 59.1437 9.89566 59.063C9.75633 58.9823 9.59133 58.9127 9.40066 58.854C9.20999 58.788 8.98999 58.733 8.74066 58.689C8.34466 58.6083 7.99999 58.502 7.70666 58.37C7.41333 58.238 7.16766 58.073 6.96966 57.875C6.77166 57.677 6.62499 57.4533 6.52966 57.204C6.43433 56.9473 6.38666 56.6613 6.38666 56.346C6.38666 56.038 6.45266 55.752 6.58466 55.488C6.72399 55.224 6.91099 54.9967 7.14566 54.806C7.38766 54.608 7.66999 54.4577 7.99266 54.355C8.31533 54.245 8.66366 54.19 9.03766 54.19C9.43366 54.19 9.79666 54.2413 10.1267 54.344C10.4567 54.4467 10.75 54.6007 11.0067 54.806C11.2633 55.004 11.476 55.2497 11.6447 55.543L10.8087 56.368C10.662 56.126 10.497 55.9243 10.3137 55.763C10.1303 55.5943 9.92866 55.4697 9.70866 55.389C9.48866 55.301 9.25399 55.257 9.00466 55.257C8.71866 55.257 8.46933 55.301 8.25666 55.389C8.04399 55.477 7.87533 55.6017 7.75066 55.763C7.63333 55.917 7.57466 56.1003 7.57466 56.313C7.57466 56.467 7.60399 56.61 7.66266 56.742C7.72133 56.8667 7.80933 56.9803 7.92666 57.083C8.05133 57.1783 8.21633 57.2663 8.42166 57.347C8.62699 57.4203 8.87266 57.4863 9.15866 57.545C9.56199 57.633 9.92133 57.7467 10.2367 57.886C10.552 58.018 10.8197 58.1757 11.0397 58.359C11.2597 58.5423 11.4247 58.7477 11.5347 58.975C11.652 59.2023 11.7107 59.448 11.7107 59.712C11.7107 60.2033 11.597 60.6287 11.3697 60.988C11.1423 61.3473 10.8197 61.626 10.4017 61.824C9.98366 62.0147 9.48499 62.11 8.90566 62.11ZM13.8229 62V54.751H14.9559V62H13.8229ZM12.6239 57.325V56.225H16.2979V57.325H12.6239ZM17.7916 62.121C17.5496 62.121 17.3626 62.0513 17.2306 61.912C17.0986 61.7653 17.0326 61.56 17.0326 61.296C17.0326 61.054 17.1023 60.856 17.2416 60.702C17.3809 60.548 17.5643 60.471 17.7916 60.471C18.0336 60.471 18.2206 60.5443 18.3526 60.691C18.4846 60.8303 18.5506 61.032 18.5506 61.296C18.5506 61.538 18.4809 61.736 18.3416 61.89C18.2023 62.044 18.0189 62.121 17.7916 62.121ZM23.2015 62V54.3H24.3895V62H23.2015ZM23.7295 58.722V57.578H27.7005V58.722H23.7295ZM23.7295 55.444V54.3H28.1955V55.444H23.7295ZM29.436 62V56.225H30.58V58.04L30.47 57.6C30.5507 57.3213 30.6864 57.0683 30.877 56.841C31.075 56.6137 31.2987 56.434 31.548 56.302C31.8047 56.17 32.0687 56.104 32.34 56.104C32.4647 56.104 32.582 56.115 32.692 56.137C32.8094 56.159 32.901 56.1847 32.967 56.214L32.67 57.446C32.582 57.4093 32.483 57.38 32.373 57.358C32.2704 57.3287 32.1677 57.314 32.065 57.314C31.867 57.314 31.6764 57.3543 31.493 57.435C31.317 57.5083 31.1594 57.6147 31.02 57.754C30.888 57.886 30.7817 58.0437 30.701 58.227C30.6204 58.403 30.58 58.5973 30.58 58.81V62H29.436ZM35.8475 62.11C35.3708 62.11 34.9345 61.978 34.5385 61.714C34.1498 61.45 33.8382 61.0907 33.6035 60.636C33.3688 60.1813 33.2515 59.668 33.2515 59.096C33.2515 58.5167 33.3688 58.0033 33.6035 57.556C33.8455 57.1013 34.1682 56.7457 34.5715 56.489C34.9822 56.2323 35.4405 56.104 35.9465 56.104C36.2472 56.104 36.5222 56.148 36.7715 56.236C37.0208 56.324 37.2372 56.4487 37.4205 56.61C37.6112 56.764 37.7652 56.9437 37.8825 57.149C38.0072 57.3543 38.0842 57.5743 38.1135 57.809L37.8605 57.721V56.225H39.0045V62H37.8605V60.625L38.1245 60.548C38.0805 60.746 37.9888 60.9403 37.8495 61.131C37.7175 61.3143 37.5452 61.4793 37.3325 61.626C37.1272 61.7727 36.8962 61.89 36.6395 61.978C36.3902 62.066 36.1262 62.11 35.8475 62.11ZM36.1445 61.065C36.4892 61.065 36.7935 60.9807 37.0575 60.812C37.3215 60.6433 37.5268 60.4123 37.6735 60.119C37.8275 59.8183 37.9045 59.4773 37.9045 59.096C37.9045 58.722 37.8275 58.3883 37.6735 58.095C37.5268 57.8017 37.3215 57.5707 37.0575 57.402C36.7935 57.2333 36.4892 57.149 36.1445 57.149C35.8072 57.149 35.5065 57.2333 35.2425 57.402C34.9858 57.5707 34.7805 57.8017 34.6265 58.095C34.4798 58.3883 34.4065 58.722 34.4065 59.096C34.4065 59.4773 34.4798 59.8183 34.6265 60.119C34.7805 60.4123 34.9858 60.6433 35.2425 60.812C35.5065 60.9807 35.8072 61.065 36.1445 61.065ZM40.5864 62V56.225H41.7194V57.413L41.5214 57.545C41.5948 57.2883 41.7378 57.0537 41.9504 56.841C42.1631 56.621 42.4161 56.445 42.7094 56.313C43.0028 56.1737 43.3034 56.104 43.6114 56.104C44.0514 56.104 44.4181 56.192 44.7114 56.368C45.0048 56.5367 45.2248 56.797 45.3714 57.149C45.5181 57.501 45.5914 57.9447 45.5914 58.48V62H44.4584V58.557C44.4584 58.227 44.4144 57.9557 44.3264 57.743C44.2384 57.523 44.1028 57.3653 43.9194 57.27C43.7361 57.1673 43.5088 57.1233 43.2374 57.138C43.0174 57.138 42.8158 57.1747 42.6324 57.248C42.4491 57.314 42.2878 57.4093 42.1484 57.534C42.0164 57.6587 41.9101 57.8053 41.8294 57.974C41.7561 58.1353 41.7194 58.3113 41.7194 58.502V62H41.1584C41.0631 62 40.9678 62 40.8724 62C40.7771 62 40.6818 62 40.5864 62ZM49.5814 62.11C49.0461 62.11 48.5658 61.978 48.1404 61.714C47.7224 61.45 47.3888 61.0907 47.1394 60.636C46.8974 60.1813 46.7764 59.6717 46.7764 59.107C46.7764 58.5423 46.8974 58.0327 47.1394 57.578C47.3888 57.1233 47.7224 56.764 48.1404 56.5C48.5658 56.236 49.0461 56.104 49.5814 56.104C50.0948 56.104 50.5604 56.2103 50.9784 56.423C51.4038 56.6283 51.7264 56.9107 51.9464 57.27L51.3194 58.04C51.2021 57.8713 51.0518 57.7173 50.8684 57.578C50.6851 57.4387 50.4908 57.3287 50.2854 57.248C50.0801 57.1673 49.8821 57.127 49.6914 57.127C49.3394 57.127 49.0241 57.215 48.7454 57.391C48.4741 57.5597 48.2578 57.7943 48.0964 58.095C47.9351 58.3957 47.8544 58.733 47.8544 59.107C47.8544 59.481 47.9388 59.8183 48.1074 60.119C48.2761 60.4123 48.4998 60.647 48.7784 60.823C49.0571 60.999 49.3651 61.087 49.7024 61.087C49.9004 61.087 50.0911 61.054 50.2744 60.988C50.4651 60.922 50.6484 60.823 50.8244 60.691C51.0004 60.559 51.1654 60.3977 51.3194 60.207L51.9464 60.977C51.7118 61.307 51.3744 61.5783 50.9344 61.791C50.5018 62.0037 50.0508 62.11 49.5814 62.11ZM53.2021 62V56.225H54.3351V62H53.2021ZM53.7521 54.949C53.5101 54.949 53.3231 54.8867 53.1911 54.762C53.0591 54.6373 52.9931 54.4613 52.9931 54.234C52.9931 54.0213 53.0591 53.849 53.1911 53.717C53.3305 53.585 53.5175 53.519 53.7521 53.519C53.9941 53.519 54.1811 53.5813 54.3131 53.706C54.4451 53.8307 54.5111 54.0067 54.5111 54.234C54.5111 54.4467 54.4415 54.619 54.3021 54.751C54.1701 54.883 53.9868 54.949 53.7521 54.949ZM58.0017 62.11C57.5177 62.11 57.0813 62.0257 56.6927 61.857C56.304 61.6883 55.9813 61.439 55.7247 61.109L56.4947 60.449C56.7147 60.7057 56.953 60.8927 57.2097 61.01C57.4737 61.12 57.7707 61.175 58.1007 61.175C58.2327 61.175 58.3537 61.1603 58.4637 61.131C58.581 61.0943 58.68 61.043 58.7607 60.977C58.8487 60.911 58.9147 60.834 58.9587 60.746C59.0027 60.6507 59.0247 60.548 59.0247 60.438C59.0247 60.2473 58.955 60.0933 58.8157 59.976C58.7423 59.9247 58.625 59.8697 58.4637 59.811C58.3097 59.745 58.108 59.679 57.8587 59.613C57.4333 59.503 57.085 59.3783 56.8137 59.239C56.5423 59.0997 56.3333 58.942 56.1867 58.766C56.0767 58.6267 55.996 58.4763 55.9447 58.315C55.8933 58.1463 55.8677 57.963 55.8677 57.765C55.8677 57.523 55.919 57.303 56.0217 57.105C56.1317 56.8997 56.2783 56.7237 56.4617 56.577C56.6523 56.423 56.8723 56.3057 57.1217 56.225C57.3783 56.1443 57.6497 56.104 57.9357 56.104C58.207 56.104 58.4747 56.1407 58.7387 56.214C59.01 56.2873 59.2593 56.3937 59.4867 56.533C59.714 56.6723 59.9047 56.8373 60.0587 57.028L59.4097 57.743C59.2703 57.6037 59.1163 57.4827 58.9477 57.38C58.7863 57.27 58.6213 57.1857 58.4527 57.127C58.284 57.0683 58.13 57.039 57.9907 57.039C57.8367 57.039 57.6973 57.0537 57.5727 57.083C57.448 57.1123 57.3417 57.1563 57.2537 57.215C57.173 57.2737 57.1107 57.347 57.0667 57.435C57.0227 57.523 57.0007 57.622 57.0007 57.732C57.008 57.8273 57.03 57.919 57.0667 58.007C57.1107 58.0877 57.1693 58.1573 57.2427 58.216C57.3233 58.2747 57.4443 58.337 57.6057 58.403C57.767 58.469 57.9723 58.5313 58.2217 58.59C58.5883 58.6853 58.889 58.7917 59.1237 58.909C59.3657 59.019 59.5563 59.1473 59.6957 59.294C59.8423 59.4333 59.945 59.5947 60.0037 59.778C60.0623 59.9613 60.0917 60.1667 60.0917 60.394C60.0917 60.724 59.9963 61.021 59.8057 61.285C59.6223 61.5417 59.373 61.7433 59.0577 61.89C58.7423 62.0367 58.3903 62.11 58.0017 62.11ZM14.6028 76.11C14.0382 76.11 13.5322 75.9817 13.0848 75.725C12.6448 75.461 12.2965 75.1053 12.0398 74.658C11.7832 74.2033 11.6548 73.6863 11.6548 73.107C11.6548 72.5277 11.7832 72.0143 12.0398 71.567C12.2965 71.1123 12.6448 70.7567 13.0848 70.5C13.5322 70.236 14.0382 70.104 14.6028 70.104C15.1602 70.104 15.6588 70.236 16.0988 70.5C16.5462 70.7567 16.8982 71.1123 17.1548 71.567C17.4115 72.0143 17.5398 72.5277 17.5398 73.107C17.5398 73.6863 17.4115 74.2033 17.1548 74.658C16.8982 75.1053 16.5462 75.461 16.0988 75.725C15.6588 75.9817 15.1602 76.11 14.6028 76.11ZM14.6028 75.076C14.9475 75.076 15.2555 74.9917 15.5268 74.823C15.7982 74.647 16.0108 74.4123 16.1648 74.119C16.3188 73.8183 16.3922 73.481 16.3848 73.107C16.3922 72.7257 16.3188 72.3883 16.1648 72.095C16.0108 71.7943 15.7982 71.5597 15.5268 71.391C15.2555 71.2223 14.9475 71.138 14.6028 71.138C14.2582 71.138 13.9465 71.226 13.6678 71.402C13.3965 71.5707 13.1838 71.8053 13.0298 72.106C12.8758 72.3993 12.8025 72.733 12.8098 73.107C12.8025 73.481 12.8758 73.8183 13.0298 74.119C13.1838 74.4123 13.3965 74.647 13.6678 74.823C13.9465 74.9917 14.2582 75.076 14.6028 75.076ZM19.1866 76V69.576C19.1866 69.246 19.2599 68.9527 19.4066 68.696C19.5532 68.4393 19.7549 68.2377 20.0116 68.091C20.2682 67.9443 20.5652 67.871 20.9026 67.871C21.1372 67.871 21.3572 67.915 21.5626 68.003C21.7679 68.091 21.9329 68.2083 22.0576 68.355L21.6726 69.224C21.5772 69.136 21.4709 69.0663 21.3536 69.015C21.2436 68.9563 21.1372 68.927 21.0346 68.927C20.8806 68.927 20.7486 68.9527 20.6386 69.004C20.5359 69.048 20.4589 69.1213 20.4076 69.224C20.3562 69.3193 20.3306 69.4367 20.3306 69.576V76H19.7586C19.6632 76 19.5679 76 19.4726 76C19.3772 76 19.2819 76 19.1866 76ZM18.2626 71.369V70.324H21.6946V71.369H18.2626ZM25.4439 76L28.4249 68.3H29.6349L32.5939 76H31.3289L29.5689 71.358C29.5469 71.3067 29.5029 71.182 29.4369 70.984C29.3783 70.786 29.3086 70.566 29.2279 70.324C29.1473 70.082 29.0739 69.862 29.0079 69.664C28.9419 69.4587 28.8979 69.3267 28.8759 69.268L29.1289 69.257C29.0849 69.3817 29.0299 69.5393 28.9639 69.73C28.9053 69.9207 28.8393 70.1223 28.7659 70.335C28.6999 70.5477 28.6339 70.7493 28.5679 70.94C28.5019 71.1233 28.4469 71.2773 28.4029 71.402L26.6539 76H25.4439ZM26.7639 74.086L27.2039 72.942H30.7019L31.2079 74.086H26.7639ZM35.5881 76.11C35.1041 76.11 34.6678 76.0257 34.2791 75.857C33.8904 75.6883 33.5678 75.439 33.3111 75.109L34.0811 74.449C34.3011 74.7057 34.5394 74.8927 34.7961 75.01C35.0601 75.12 35.3571 75.175 35.6871 75.175C35.8191 75.175 35.9401 75.1603 36.0501 75.131C36.1674 75.0943 36.2664 75.043 36.3471 74.977C36.4351 74.911 36.5011 74.834 36.5451 74.746C36.5891 74.6507 36.6111 74.548 36.6111 74.438C36.6111 74.2473 36.5414 74.0933 36.4021 73.976C36.3288 73.9247 36.2114 73.8697 36.0501 73.811C35.8961 73.745 35.6944 73.679 35.4451 73.613C35.0198 73.503 34.6714 73.3783 34.4001 73.239C34.1288 73.0997 33.9198 72.942 33.7731 72.766C33.6631 72.6267 33.5824 72.4763 33.5311 72.315C33.4798 72.1463 33.4541 71.963 33.4541 71.765C33.4541 71.523 33.5054 71.303 33.6081 71.105C33.7181 70.8997 33.8648 70.7237 34.0481 70.577C34.2388 70.423 34.4588 70.3057 34.7081 70.225C34.9648 70.1443 35.2361 70.104 35.5221 70.104C35.7934 70.104 36.0611 70.1407 36.3251 70.214C36.5964 70.2873 36.8458 70.3937 37.0731 70.533C37.3004 70.6723 37.4911 70.8373 37.6451 71.028L36.9961 71.743C36.8568 71.6037 36.7028 71.4827 36.5341 71.38C36.3728 71.27 36.2078 71.1857 36.0391 71.127C35.8704 71.0683 35.7164 71.039 35.5771 71.039C35.4231 71.039 35.2838 71.0537 35.1591 71.083C35.0344 71.1123 34.9281 71.1563 34.8401 71.215C34.7594 71.2737 34.6971 71.347 34.6531 71.435C34.6091 71.523 34.5871 71.622 34.5871 71.732C34.5944 71.8273 34.6164 71.919 34.6531 72.007C34.6971 72.0877 34.7558 72.1573 34.8291 72.216C34.9098 72.2747 35.0308 72.337 35.1921 72.403C35.3534 72.469 35.5588 72.5313 35.8081 72.59C36.1748 72.6853 36.4754 72.7917 36.7101 72.909C36.9521 73.019 37.1428 73.1473 37.2821 73.294C37.4288 73.4333 37.5314 73.5947 37.5901 73.778C37.6488 73.9613 37.6781 74.1667 37.6781 74.394C37.6781 74.724 37.5828 75.021 37.3921 75.285C37.2088 75.5417 36.9594 75.7433 36.6441 75.89C36.3288 76.0367 35.9768 76.11 35.5881 76.11ZM40.8518 76.11C40.3678 76.11 39.9314 76.0257 39.5428 75.857C39.1541 75.6883 38.8314 75.439 38.5748 75.109L39.3448 74.449C39.5648 74.7057 39.8031 74.8927 40.0598 75.01C40.3238 75.12 40.6208 75.175 40.9508 75.175C41.0828 75.175 41.2038 75.1603 41.3138 75.131C41.4311 75.0943 41.5301 75.043 41.6108 74.977C41.6988 74.911 41.7648 74.834 41.8088 74.746C41.8528 74.6507 41.8748 74.548 41.8748 74.438C41.8748 74.2473 41.8051 74.0933 41.6658 73.976C41.5924 73.9247 41.4751 73.8697 41.3138 73.811C41.1598 73.745 40.9581 73.679 40.7088 73.613C40.2834 73.503 39.9351 73.3783 39.6638 73.239C39.3924 73.0997 39.1834 72.942 39.0368 72.766C38.9268 72.6267 38.8461 72.4763 38.7948 72.315C38.7434 72.1463 38.7178 71.963 38.7178 71.765C38.7178 71.523 38.7691 71.303 38.8718 71.105C38.9818 70.8997 39.1284 70.7237 39.3118 70.577C39.5024 70.423 39.7224 70.3057 39.9718 70.225C40.2284 70.1443 40.4998 70.104 40.7858 70.104C41.0571 70.104 41.3248 70.1407 41.5888 70.214C41.8601 70.2873 42.1094 70.3937 42.3368 70.533C42.5641 70.6723 42.7548 70.8373 42.9088 71.028L42.2598 71.743C42.1204 71.6037 41.9664 71.4827 41.7978 71.38C41.6364 71.27 41.4714 71.1857 41.3028 71.127C41.1341 71.0683 40.9801 71.039 40.8408 71.039C40.6868 71.039 40.5474 71.0537 40.4228 71.083C40.2981 71.1123 40.1918 71.1563 40.1038 71.215C40.0231 71.2737 39.9608 71.347 39.9168 71.435C39.8728 71.523 39.8508 71.622 39.8508 71.732C39.8581 71.8273 39.8801 71.919 39.9168 72.007C39.9608 72.0877 40.0194 72.1573 40.0928 72.216C40.1734 72.2747 40.2944 72.337 40.4558 72.403C40.6171 72.469 40.8224 72.5313 41.0718 72.59C41.4384 72.6853 41.7391 72.7917 41.9738 72.909C42.2158 73.019 42.4064 73.1473 42.5458 73.294C42.6924 73.4333 42.7951 73.5947 42.8538 73.778C42.9124 73.9613 42.9418 74.1667 42.9418 74.394C42.9418 74.724 42.8464 75.021 42.6558 75.285C42.4724 75.5417 42.2231 75.7433 41.9078 75.89C41.5924 76.0367 41.2404 76.11 40.8518 76.11ZM44.3774 76V70.225H45.5104V76H44.3774ZM44.9274 68.949C44.6854 68.949 44.4984 68.8867 44.3664 68.762C44.2344 68.6373 44.1684 68.4613 44.1684 68.234C44.1684 68.0213 44.2344 67.849 44.3664 67.717C44.5058 67.585 44.6928 67.519 44.9274 67.519C45.1694 67.519 45.3564 67.5813 45.4884 67.706C45.6204 67.8307 45.6864 68.0067 45.6864 68.234C45.6864 68.4467 45.6168 68.619 45.4774 68.751C45.3454 68.883 45.1621 68.949 44.9274 68.949ZM49.177 76.11C48.693 76.11 48.2566 76.0257 47.868 75.857C47.4793 75.6883 47.1566 75.439 46.9 75.109L47.67 74.449C47.89 74.7057 48.1283 74.8927 48.385 75.01C48.649 75.12 48.946 75.175 49.276 75.175C49.408 75.175 49.529 75.1603 49.639 75.131C49.7563 75.0943 49.8553 75.043 49.936 74.977C50.024 74.911 50.09 74.834 50.134 74.746C50.178 74.6507 50.2 74.548 50.2 74.438C50.2 74.2473 50.1303 74.0933 49.991 73.976C49.9176 73.9247 49.8003 73.8697 49.639 73.811C49.485 73.745 49.2833 73.679 49.034 73.613C48.6086 73.503 48.2603 73.3783 47.989 73.239C47.7176 73.0997 47.5086 72.942 47.362 72.766C47.252 72.6267 47.1713 72.4763 47.12 72.315C47.0686 72.1463 47.043 71.963 47.043 71.765C47.043 71.523 47.0943 71.303 47.197 71.105C47.307 70.8997 47.4536 70.7237 47.637 70.577C47.8276 70.423 48.0476 70.3057 48.297 70.225C48.5536 70.1443 48.825 70.104 49.111 70.104C49.3823 70.104 49.65 70.1407 49.914 70.214C50.1853 70.2873 50.4346 70.3937 50.662 70.533C50.8893 70.6723 51.08 70.8373 51.234 71.028L50.585 71.743C50.4456 71.6037 50.2916 71.4827 50.123 71.38C49.9616 71.27 49.7966 71.1857 49.628 71.127C49.4593 71.0683 49.3053 71.039 49.166 71.039C49.012 71.039 48.8726 71.0537 48.748 71.083C48.6233 71.1123 48.517 71.1563 48.429 71.215C48.3483 71.2737 48.286 71.347 48.242 71.435C48.198 71.523 48.176 71.622 48.176 71.732C48.1833 71.8273 48.2053 71.919 48.242 72.007C48.286 72.0877 48.3446 72.1573 48.418 72.216C48.4986 72.2747 48.6196 72.337 48.781 72.403C48.9423 72.469 49.1476 72.5313 49.397 72.59C49.7636 72.6853 50.0643 72.7917 50.299 72.909C50.541 73.019 50.7316 73.1473 50.871 73.294C51.0176 73.4333 51.1203 73.5947 51.179 73.778C51.2376 73.9613 51.267 74.1667 51.267 74.394C51.267 74.724 51.1716 75.021 50.981 75.285C50.7976 75.5417 50.5483 75.7433 50.233 75.89C49.9176 76.0367 49.5656 76.11 49.177 76.11ZM52.7026 76V70.225H53.8356V76H52.7026ZM53.2526 68.949C53.0106 68.949 52.8236 68.8867 52.6916 68.762C52.5596 68.6373 52.4936 68.4613 52.4936 68.234C52.4936 68.0213 52.5596 67.849 52.6916 67.717C52.831 67.585 53.018 67.519 53.2526 67.519C53.4946 67.519 53.6816 67.5813 53.8136 67.706C53.9456 67.8307 54.0116 68.0067 54.0116 68.234C54.0116 68.4467 53.942 68.619 53.8026 68.751C53.6706 68.883 53.4873 68.949 53.2526 68.949Z" fill="black"/>
</svg>
