<svg width="210" height="161" viewBox="0 0 210 161" fill="none" xmlns="http://www.w3.org/2000/svg">
<rect x="3" y="3" width="204" height="155" rx="10" fill="#B5B5B5" stroke="black" stroke-width="5"/>
<path d="M159 122V129M159 146V129M167 129H159M159 129H151" stroke="#484848" stroke-width="4"/>
<path d="M41.8641 137.24C40.9521 137.24 40.1041 137.12 39.3201 136.88C38.5521 136.64 37.8481 136.28 37.2081 135.8C36.5841 135.304 36.0241 134.696 35.5281 133.976L37.3041 131.936C38.0881 133.056 38.8401 133.832 39.5601 134.264C40.2801 134.696 41.1361 134.912 42.1281 134.912C42.7361 134.912 43.2881 134.816 43.7841 134.624C44.2801 134.432 44.6721 134.168 44.9601 133.832C45.2481 133.496 45.3921 133.112 45.3921 132.68C45.3921 132.392 45.3441 132.12 45.2481 131.864C45.1521 131.608 45.0001 131.376 44.7921 131.168C44.6001 130.96 44.3441 130.768 44.0241 130.592C43.7201 130.416 43.3601 130.264 42.9441 130.136C42.5281 129.992 42.0481 129.872 41.5041 129.776C40.6401 129.6 39.8881 129.368 39.2481 129.08C38.6081 128.792 38.0721 128.432 37.6401 128C37.2081 127.568 36.8881 127.08 36.6801 126.536C36.4721 125.976 36.3681 125.352 36.3681 124.664C36.3681 123.992 36.5121 123.368 36.8001 122.792C37.1041 122.216 37.5121 121.72 38.0241 121.304C38.5521 120.872 39.1681 120.544 39.8721 120.32C40.5761 120.08 41.3361 119.96 42.1521 119.96C43.0161 119.96 43.8081 120.072 44.5281 120.296C45.2481 120.52 45.8881 120.856 46.4481 121.304C47.0081 121.736 47.4721 122.272 47.8401 122.912L46.0161 124.712C45.6961 124.184 45.3361 123.744 44.9361 123.392C44.5361 123.024 44.0961 122.752 43.6161 122.576C43.1361 122.384 42.6241 122.288 42.0801 122.288C41.4561 122.288 40.9121 122.384 40.4481 122.576C39.9841 122.768 39.6161 123.04 39.3441 123.392C39.0881 123.728 38.9601 124.128 38.9601 124.592C38.9601 124.928 39.0241 125.24 39.1521 125.528C39.2801 125.8 39.4721 126.048 39.7281 126.272C40.0001 126.48 40.3601 126.672 40.8081 126.848C41.2561 127.008 41.7921 127.152 42.4161 127.28C43.2961 127.472 44.0801 127.72 44.7681 128.024C45.4561 128.312 46.0401 128.656 46.5201 129.056C47.0001 129.456 47.3601 129.904 47.6001 130.4C47.8561 130.896 47.9841 131.432 47.9841 132.008C47.9841 133.08 47.7361 134.008 47.2401 134.792C46.7441 135.576 46.0401 136.184 45.1281 136.616C44.2161 137.032 43.1281 137.24 41.8641 137.24ZM52.5927 137V121.184H55.0647V137H52.5927ZM49.9767 126.8V124.4H57.9927V126.8H49.9767ZM64.9744 137.24C63.9344 137.24 62.9824 136.952 62.1184 136.376C61.2704 135.8 60.5904 135.016 60.0784 134.024C59.5664 133.032 59.3104 131.912 59.3104 130.664C59.3104 129.4 59.5664 128.28 60.0784 127.304C60.6064 126.312 61.3104 125.536 62.1904 124.976C63.0864 124.416 64.0864 124.136 65.1904 124.136C65.8464 124.136 66.4464 124.232 66.9904 124.424C67.5344 124.616 68.0064 124.888 68.4064 125.24C68.8224 125.576 69.1584 125.968 69.4144 126.416C69.6864 126.864 69.8544 127.344 69.9184 127.856L69.3664 127.664V124.4H71.8624V137H69.3664V134L69.9424 133.832C69.8464 134.264 69.6464 134.688 69.3424 135.104C69.0544 135.504 68.6784 135.864 68.2144 136.184C67.7664 136.504 67.2624 136.76 66.7024 136.952C66.1584 137.144 65.5824 137.24 64.9744 137.24ZM65.6224 134.96C66.3744 134.96 67.0384 134.776 67.6144 134.408C68.1904 134.04 68.6384 133.536 68.9584 132.896C69.2944 132.24 69.4624 131.496 69.4624 130.664C69.4624 129.848 69.2944 129.12 68.9584 128.48C68.6384 127.84 68.1904 127.336 67.6144 126.968C67.0384 126.6 66.3744 126.416 65.6224 126.416C64.8864 126.416 64.2304 126.6 63.6544 126.968C63.0944 127.336 62.6464 127.84 62.3104 128.48C61.9904 129.12 61.8304 129.848 61.8304 130.664C61.8304 131.496 61.9904 132.24 62.3104 132.896C62.6464 133.536 63.0944 134.04 63.6544 134.408C64.2304 134.776 64.8864 134.96 65.6224 134.96ZM76.8739 137V121.184H79.3459V137H76.8739ZM74.2579 126.8V124.4H82.2739V126.8H74.2579ZM84.9329 137V124.4H87.4049V137H84.9329ZM86.1329 121.616C85.6049 121.616 85.1969 121.48 84.9089 121.208C84.6209 120.936 84.4769 120.552 84.4769 120.056C84.4769 119.592 84.6209 119.216 84.9089 118.928C85.2129 118.64 85.6209 118.496 86.1329 118.496C86.6609 118.496 87.0689 118.632 87.3569 118.904C87.6449 119.176 87.7889 119.56 87.7889 120.056C87.7889 120.52 87.6369 120.896 87.3329 121.184C87.0449 121.472 86.6449 121.616 86.1329 121.616ZM96.8686 137.24C95.6366 137.24 94.5326 136.96 93.5566 136.4C92.5966 135.824 91.8366 135.048 91.2766 134.072C90.7166 133.08 90.4366 131.952 90.4366 130.688C90.4366 129.424 90.7166 128.304 91.2766 127.328C91.8366 126.336 92.5966 125.56 93.5566 125C94.5326 124.424 95.6366 124.136 96.8686 124.136C98.0846 124.136 99.1726 124.424 100.133 125C101.109 125.56 101.877 126.336 102.437 127.328C102.997 128.304 103.277 129.424 103.277 130.688C103.277 131.952 102.997 133.08 102.437 134.072C101.877 135.048 101.109 135.824 100.133 136.4C99.1726 136.96 98.0846 137.24 96.8686 137.24ZM96.8686 134.984C97.6206 134.984 98.2926 134.8 98.8846 134.432C99.4766 134.048 99.9406 133.536 100.277 132.896C100.613 132.24 100.773 131.504 100.757 130.688C100.773 129.856 100.613 129.12 100.277 128.48C99.9406 127.824 99.4766 127.312 98.8846 126.944C98.2926 126.576 97.6206 126.392 96.8686 126.392C96.1166 126.392 95.4366 126.584 94.8286 126.968C94.2366 127.336 93.7726 127.848 93.4366 128.504C93.1006 129.144 92.9406 129.872 92.9566 130.688C92.9406 131.504 93.1006 132.24 93.4366 132.896C93.7726 133.536 94.2366 134.048 94.8286 134.432C95.4366 134.8 96.1166 134.984 96.8686 134.984ZM105.97 137V124.4H108.442V126.992L108.01 127.28C108.17 126.72 108.482 126.208 108.946 125.744C109.41 125.264 109.962 124.88 110.602 124.592C111.242 124.288 111.898 124.136 112.57 124.136C113.53 124.136 114.33 124.328 114.97 124.712C115.61 125.08 116.09 125.648 116.41 126.416C116.73 127.184 116.89 128.152 116.89 129.32V137H114.418V129.488C114.418 128.768 114.322 128.176 114.13 127.712C113.938 127.232 113.642 126.888 113.242 126.68C112.842 126.456 112.346 126.36 111.754 126.392C111.274 126.392 110.834 126.472 110.434 126.632C110.034 126.776 109.682 126.984 109.378 127.256C109.09 127.528 108.858 127.848 108.682 128.216C108.522 128.568 108.442 128.952 108.442 129.368V137H107.218C107.01 137 106.802 137 106.594 137C106.386 137 106.178 137 105.97 137ZM124.444 137.24C123.388 137.24 122.436 137.056 121.588 136.688C120.74 136.32 120.036 135.776 119.476 135.056L121.156 133.616C121.636 134.176 122.156 134.584 122.716 134.84C123.292 135.08 123.94 135.2 124.66 135.2C124.948 135.2 125.212 135.168 125.452 135.104C125.708 135.024 125.924 134.912 126.1 134.768C126.292 134.624 126.436 134.456 126.532 134.264C126.628 134.056 126.676 133.832 126.676 133.592C126.676 133.176 126.524 132.84 126.22 132.584C126.06 132.472 125.804 132.352 125.452 132.224C125.116 132.08 124.676 131.936 124.132 131.792C123.204 131.552 122.444 131.28 121.852 130.976C121.26 130.672 120.804 130.328 120.484 129.944C120.244 129.64 120.068 129.312 119.956 128.96C119.844 128.592 119.788 128.192 119.788 127.76C119.788 127.232 119.9 126.752 120.124 126.32C120.364 125.872 120.684 125.488 121.084 125.168C121.5 124.832 121.98 124.576 122.524 124.4C123.084 124.224 123.676 124.136 124.3 124.136C124.892 124.136 125.476 124.216 126.052 124.376C126.644 124.536 127.188 124.768 127.684 125.072C128.18 125.376 128.596 125.736 128.932 126.152L127.516 127.712C127.212 127.408 126.876 127.144 126.508 126.92C126.156 126.68 125.796 126.496 125.428 126.368C125.06 126.24 124.724 126.176 124.42 126.176C124.084 126.176 123.78 126.208 123.508 126.272C123.236 126.336 123.004 126.432 122.812 126.56C122.636 126.688 122.5 126.848 122.404 127.04C122.308 127.232 122.26 127.448 122.26 127.688C122.276 127.896 122.324 128.096 122.404 128.288C122.5 128.464 122.628 128.616 122.788 128.744C122.964 128.872 123.228 129.008 123.58 129.152C123.932 129.296 124.38 129.432 124.924 129.56C125.724 129.768 126.38 130 126.892 130.256C127.42 130.496 127.836 130.776 128.14 131.096C128.46 131.4 128.684 131.752 128.812 132.152C128.94 132.552 129.004 133 129.004 133.496C129.004 134.216 128.796 134.864 128.38 135.44C127.98 136 127.436 136.44 126.748 136.76C126.06 137.08 125.292 137.24 124.444 137.24Z" fill="black"/>
<path d="M149 108.5C155.5 110.5 161.5 110.5 168 108.5C161.5 105.5 155.5 105.5 149 108.5Z" fill="#949494"/>
<path d="M149 108.5L152 101C157 99.5 160 99.5 165 101L168 108.5C161.5 105.5 155.5 105.5 149 108.5Z" fill="#B0B0B0"/>
<path d="M152.001 100.726C152.068 91.4806 155.519 90.4952 157.5 90L157.962 88.1515C157.984 88.0625 158.064 88 158.156 88H158.844C158.936 88 159.016 88.0625 159.038 88.1515L159.5 90C161.481 90.4952 164.932 91.4806 164.999 100.726C165 100.86 164.869 100.961 164.741 100.923C159.981 99.5257 157.019 99.5257 152.259 100.923C152.131 100.961 152 100.86 152.001 100.726Z" fill="#D1D1D1"/>
<path d="M152 101L149.081 108.298C149.037 108.407 149.096 108.53 149.208 108.563C155.559 110.479 161.441 110.479 167.792 108.563C167.904 108.53 167.963 108.407 167.919 108.298L165 101M152 101C152 91.537 155.473 90.5079 157.477 90.0059C157.492 90.0019 157.508 90 157.525 90H159.475C159.492 90 159.508 90.0019 159.523 90.0059C161.527 90.5079 165 91.537 165 101M152 101C157 99.5 160 99.5 165 101" stroke="#484848"/>
<path d="M158.354 109H158.5H158.646C158.873 109 159.09 109.09 159.25 109.25C159.41 109.41 159.5 109.627 159.5 109.854V111.146C159.5 111.373 159.41 111.59 159.25 111.75C159.09 111.91 158.873 112 158.646 112H158.354C158.127 112 157.91 111.91 157.75 111.75C157.59 111.59 157.5 111.373 157.5 111.146V109.854C157.5 109.627 157.59 109.41 157.75 109.25C157.91 109.09 158.127 109 158.354 109Z" fill="black"/>
<path d="M158.5 106.25V109M158.5 109H158.354C158.127 109 157.91 109.09 157.75 109.25V109.25C157.59 109.41 157.5 109.627 157.5 109.854V111.146C157.5 111.373 157.59 111.59 157.75 111.75V111.75C157.91 111.91 158.127 112 158.354 112H158.646C158.873 112 159.09 111.91 159.25 111.75V111.75C159.41 111.59 159.5 111.373 159.5 111.146V109.854C159.5 109.627 159.41 109.41 159.25 109.25V109.25C159.09 109.09 158.873 109 158.646 109H158.5Z" stroke="#010101"/>
<path d="M152 101L149.187 108.034C149.119 108.202 149.293 108.366 149.459 108.293C155.63 105.569 161.37 105.569 167.541 108.293C167.707 108.366 167.881 108.202 167.813 108.034L165 101M152 101C152 91.5 155.5 90.5 157.5 90M152 101C157 99.5 160 99.5 165 101M165 101C165 91.5 161.5 90.5 159.5 90M159.5 90H157.5M159.5 90L159.038 88.1515C159.016 88.0625 158.936 88 158.844 88H158.156C158.064 88 157.984 88.0625 157.962 88.1515L157.5 90" stroke="#484848"/>
<path d="M34.7583 102V85.2H37.3023L43.4223 95.16L42.1983 95.136L48.3903 85.2H50.7903V102H48.1983V95.112C48.1983 93.672 48.2303 92.376 48.2943 91.224C48.3743 90.072 48.5023 88.928 48.6783 87.792L49.0143 88.68L43.5183 97.176H41.9343L36.6063 88.776L36.8703 87.792C37.0463 88.864 37.1663 89.968 37.2303 91.104C37.3103 92.224 37.3503 93.56 37.3503 95.112V102H34.7583ZM55.2844 102V89.4H57.7564V102H55.2844ZM56.4844 86.616C55.9564 86.616 55.5484 86.48 55.2604 86.208C54.9724 85.936 54.8284 85.552 54.8284 85.056C54.8284 84.592 54.9724 84.216 55.2604 83.928C55.5644 83.64 55.9724 83.496 56.4844 83.496C57.0124 83.496 57.4204 83.632 57.7084 83.904C57.9964 84.176 58.1404 84.56 58.1404 85.056C58.1404 85.52 57.9884 85.896 57.6844 86.184C57.3964 86.472 56.9964 86.616 56.4844 86.616ZM65.7561 102.24C64.7001 102.24 63.7481 102.056 62.9001 101.688C62.0521 101.32 61.3481 100.776 60.7881 100.056L62.4681 98.616C62.9481 99.176 63.4681 99.584 64.0281 99.84C64.6041 100.08 65.2521 100.2 65.9721 100.2C66.2601 100.2 66.5241 100.168 66.7641 100.104C67.0201 100.024 67.2361 99.912 67.4121 99.768C67.6041 99.624 67.7481 99.456 67.8441 99.264C67.9401 99.056 67.9881 98.832 67.9881 98.592C67.9881 98.176 67.8361 97.84 67.5321 97.584C67.3721 97.472 67.1161 97.352 66.7641 97.224C66.4281 97.08 65.9881 96.936 65.4441 96.792C64.5161 96.552 63.7561 96.28 63.1641 95.976C62.5721 95.672 62.1161 95.328 61.7961 94.944C61.5561 94.64 61.3801 94.312 61.2681 93.96C61.1561 93.592 61.1001 93.192 61.1001 92.76C61.1001 92.232 61.2121 91.752 61.4361 91.32C61.6761 90.872 61.9961 90.488 62.3961 90.168C62.8121 89.832 63.2921 89.576 63.8361 89.4C64.3961 89.224 64.9881 89.136 65.6121 89.136C66.2041 89.136 66.7881 89.216 67.3641 89.376C67.9561 89.536 68.5001 89.768 68.9961 90.072C69.4921 90.376 69.9081 90.736 70.2441 91.152L68.8281 92.712C68.5241 92.408 68.1881 92.144 67.8201 91.92C67.4681 91.68 67.1081 91.496 66.7401 91.368C66.3721 91.24 66.0361 91.176 65.7321 91.176C65.3961 91.176 65.0921 91.208 64.8201 91.272C64.5481 91.336 64.3161 91.432 64.1241 91.56C63.9481 91.688 63.8121 91.848 63.7161 92.04C63.6201 92.232 63.5721 92.448 63.5721 92.688C63.5881 92.896 63.6361 93.096 63.7161 93.288C63.8121 93.464 63.9401 93.616 64.1001 93.744C64.2761 93.872 64.5401 94.008 64.8921 94.152C65.2441 94.296 65.6921 94.432 66.2361 94.56C67.0361 94.768 67.6921 95 68.2041 95.256C68.7321 95.496 69.1481 95.776 69.4521 96.096C69.7721 96.4 69.9961 96.752 70.1241 97.152C70.2521 97.552 70.3161 98 70.3161 98.496C70.3161 99.216 70.1081 99.864 69.6921 100.44C69.2921 101 68.7481 101.44 68.0601 101.76C67.3721 102.08 66.6041 102.24 65.7561 102.24ZM77.2405 102.24C76.1845 102.24 75.2325 102.056 74.3845 101.688C73.5365 101.32 72.8325 100.776 72.2725 100.056L73.9525 98.616C74.4325 99.176 74.9525 99.584 75.5125 99.84C76.0885 100.08 76.7365 100.2 77.4565 100.2C77.7445 100.2 78.0085 100.168 78.2485 100.104C78.5045 100.024 78.7205 99.912 78.8965 99.768C79.0885 99.624 79.2325 99.456 79.3285 99.264C79.4245 99.056 79.4725 98.832 79.4725 98.592C79.4725 98.176 79.3205 97.84 79.0165 97.584C78.8565 97.472 78.6005 97.352 78.2485 97.224C77.9125 97.08 77.4725 96.936 76.9285 96.792C76.0005 96.552 75.2405 96.28 74.6485 95.976C74.0565 95.672 73.6005 95.328 73.2805 94.944C73.0405 94.64 72.8645 94.312 72.7525 93.96C72.6405 93.592 72.5845 93.192 72.5845 92.76C72.5845 92.232 72.6965 91.752 72.9205 91.32C73.1605 90.872 73.4805 90.488 73.8805 90.168C74.2965 89.832 74.7765 89.576 75.3205 89.4C75.8805 89.224 76.4725 89.136 77.0965 89.136C77.6885 89.136 78.2725 89.216 78.8485 89.376C79.4405 89.536 79.9845 89.768 80.4805 90.072C80.9765 90.376 81.3925 90.736 81.7285 91.152L80.3125 92.712C80.0085 92.408 79.6725 92.144 79.3045 91.92C78.9525 91.68 78.5925 91.496 78.2245 91.368C77.8565 91.24 77.5205 91.176 77.2165 91.176C76.8805 91.176 76.5765 91.208 76.3045 91.272C76.0325 91.336 75.8005 91.432 75.6085 91.56C75.4325 91.688 75.2965 91.848 75.2005 92.04C75.1045 92.232 75.0565 92.448 75.0565 92.688C75.0725 92.896 75.1205 93.096 75.2005 93.288C75.2965 93.464 75.4245 93.616 75.5845 93.744C75.7605 93.872 76.0245 94.008 76.3765 94.152C76.7285 94.296 77.1765 94.432 77.7205 94.56C78.5205 94.768 79.1765 95 79.6885 95.256C80.2165 95.496 80.6325 95.776 80.9365 96.096C81.2565 96.4 81.4805 96.752 81.6085 97.152C81.7365 97.552 81.8005 98 81.8005 98.496C81.8005 99.216 81.5925 99.864 81.1765 100.44C80.7765 101 80.2325 101.44 79.5445 101.76C78.8565 102.08 78.0885 102.24 77.2405 102.24ZM84.9329 102V89.4H87.4049V102H84.9329ZM86.1329 86.616C85.6049 86.616 85.1969 86.48 84.9089 86.208C84.6209 85.936 84.4769 85.552 84.4769 85.056C84.4769 84.592 84.6209 84.216 84.9089 83.928C85.2129 83.64 85.6209 83.496 86.1329 83.496C86.6609 83.496 87.0689 83.632 87.3569 83.904C87.6449 84.176 87.7889 84.56 87.7889 85.056C87.7889 85.52 87.6369 85.896 87.3329 86.184C87.0449 86.472 86.6449 86.616 86.1329 86.616ZM96.8686 102.24C95.6366 102.24 94.5326 101.96 93.5566 101.4C92.5966 100.824 91.8366 100.048 91.2766 99.072C90.7166 98.08 90.4366 96.952 90.4366 95.688C90.4366 94.424 90.7166 93.304 91.2766 92.328C91.8366 91.336 92.5966 90.56 93.5566 90C94.5326 89.424 95.6366 89.136 96.8686 89.136C98.0846 89.136 99.1726 89.424 100.133 90C101.109 90.56 101.877 91.336 102.437 92.328C102.997 93.304 103.277 94.424 103.277 95.688C103.277 96.952 102.997 98.08 102.437 99.072C101.877 100.048 101.109 100.824 100.133 101.4C99.1726 101.96 98.0846 102.24 96.8686 102.24ZM96.8686 99.984C97.6206 99.984 98.2926 99.8 98.8846 99.432C99.4766 99.048 99.9406 98.536 100.277 97.896C100.613 97.24 100.773 96.504 100.757 95.688C100.773 94.856 100.613 94.12 100.277 93.48C99.9406 92.824 99.4766 92.312 98.8846 91.944C98.2926 91.576 97.6206 91.392 96.8686 91.392C96.1166 91.392 95.4366 91.584 94.8286 91.968C94.2366 92.336 93.7726 92.848 93.4366 93.504C93.1006 94.144 92.9406 94.872 92.9566 95.688C92.9406 96.504 93.1006 97.24 93.4366 97.896C93.7726 98.536 94.2366 99.048 94.8286 99.432C95.4366 99.8 96.1166 99.984 96.8686 99.984ZM105.97 102V89.4H108.442V91.992L108.01 92.28C108.17 91.72 108.482 91.208 108.946 90.744C109.41 90.264 109.962 89.88 110.602 89.592C111.242 89.288 111.898 89.136 112.57 89.136C113.53 89.136 114.33 89.328 114.97 89.712C115.61 90.08 116.09 90.648 116.41 91.416C116.73 92.184 116.89 93.152 116.89 94.32V102H114.418V94.488C114.418 93.768 114.322 93.176 114.13 92.712C113.938 92.232 113.642 91.888 113.242 91.68C112.842 91.456 112.346 91.36 111.754 91.392C111.274 91.392 110.834 91.472 110.434 91.632C110.034 91.776 109.682 91.984 109.378 92.256C109.09 92.528 108.858 92.848 108.682 93.216C108.522 93.568 108.442 93.952 108.442 94.368V102H107.218C107.01 102 106.802 102 106.594 102C106.386 102 106.178 102 105.97 102ZM124.444 102.24C123.388 102.24 122.436 102.056 121.588 101.688C120.74 101.32 120.036 100.776 119.476 100.056L121.156 98.616C121.636 99.176 122.156 99.584 122.716 99.84C123.292 100.08 123.94 100.2 124.66 100.2C124.948 100.2 125.212 100.168 125.452 100.104C125.708 100.024 125.924 99.912 126.1 99.768C126.292 99.624 126.436 99.456 126.532 99.264C126.628 99.056 126.676 98.832 126.676 98.592C126.676 98.176 126.524 97.84 126.22 97.584C126.06 97.472 125.804 97.352 125.452 97.224C125.116 97.08 124.676 96.936 124.132 96.792C123.204 96.552 122.444 96.28 121.852 95.976C121.26 95.672 120.804 95.328 120.484 94.944C120.244 94.64 120.068 94.312 119.956 93.96C119.844 93.592 119.788 93.192 119.788 92.76C119.788 92.232 119.9 91.752 120.124 91.32C120.364 90.872 120.684 90.488 121.084 90.168C121.5 89.832 121.98 89.576 122.524 89.4C123.084 89.224 123.676 89.136 124.3 89.136C124.892 89.136 125.476 89.216 126.052 89.376C126.644 89.536 127.188 89.768 127.684 90.072C128.18 90.376 128.596 90.736 128.932 91.152L127.516 92.712C127.212 92.408 126.876 92.144 126.508 91.92C126.156 91.68 125.796 91.496 125.428 91.368C125.06 91.24 124.724 91.176 124.42 91.176C124.084 91.176 123.78 91.208 123.508 91.272C123.236 91.336 123.004 91.432 122.812 91.56C122.636 91.688 122.5 91.848 122.404 92.04C122.308 92.232 122.26 92.448 122.26 92.688C122.276 92.896 122.324 93.096 122.404 93.288C122.5 93.464 122.628 93.616 122.788 93.744C122.964 93.872 123.228 94.008 123.58 94.152C123.932 94.296 124.38 94.432 124.924 94.56C125.724 94.768 126.38 95 126.892 95.256C127.42 95.496 127.836 95.776 128.14 96.096C128.46 96.4 128.684 96.752 128.812 97.152C128.94 97.552 129.004 98 129.004 98.496C129.004 99.216 128.796 99.864 128.38 100.44C127.98 101 127.436 101.44 126.748 101.76C126.06 102.08 125.292 102.24 124.444 102.24Z" fill="black"/>
<path d="M160.566 48H155.434C155.035 48 154.797 48.4451 155.018 48.7773L156.416 50.874C156.471 50.9562 156.5 51.0527 156.5 51.1514V52.5V56.5C156.5 56.7761 156.276 57 156 57H152H149.151C149.053 57 148.956 56.9708 148.874 56.916L146.777 55.5182C146.445 55.2967 146 55.5349 146 55.9343V61.0657C146 61.4651 146.445 61.7033 146.777 61.4818L148.874 60.084C148.956 60.0292 149.053 60 149.151 60H152H156C156.276 60 156.5 60.2239 156.5 60.5V64V79.882C156.5 79.9596 156.482 80.0361 156.447 80.1056L155.362 82.2764C155.196 82.6088 155.437 83 155.809 83H160.191C160.563 83 160.804 82.6088 160.638 82.2764L159.553 80.1056C159.518 80.0361 159.5 79.9596 159.5 79.882V64V60.5C159.5 60.2239 159.724 60 160 60H164H166.849C166.947 60 167.044 60.0292 167.126 60.084L169.223 61.4818C169.555 61.7033 170 61.4651 170 61.0657V55.9343C170 55.5349 169.555 55.2967 169.223 55.5182L167.126 56.916C167.044 56.9708 166.947 57 166.849 57H164H160C159.724 57 159.5 56.7761 159.5 56.5V52.5V51.1514C159.5 51.0527 159.529 50.9562 159.584 50.874L160.982 48.7774C161.203 48.4451 160.965 48 160.566 48Z" fill="#4F4533"/>
<path d="M156.5 52.5V56.5C156.5 56.7761 156.276 57 156 57H152M156.5 52.5V51.1514C156.5 51.0527 156.471 50.9562 156.416 50.874L155.018 48.7773C154.797 48.4451 155.035 48 155.434 48H160.566C160.965 48 161.203 48.4451 160.982 48.7774L159.584 50.874C159.529 50.9562 159.5 51.0527 159.5 51.1514V52.5M156.5 52.5C154 52.5 152 54.5 152 57M152 57H149.151C149.053 57 148.956 56.9708 148.874 56.916L146.777 55.5182C146.445 55.2967 146 55.5349 146 55.9343V61.0657C146 61.4651 146.445 61.7033 146.777 61.4818L148.874 60.084C148.956 60.0292 149.053 60 149.151 60H152M159.5 52.5V56.5C159.5 56.7761 159.724 57 160 57H164M159.5 52.5C162 52.5 164 54.5 164 57M164 57H166.849C166.947 57 167.044 56.9708 167.126 56.916L169.223 55.5182C169.555 55.2967 170 55.5349 170 55.9343V61.0657C170 61.4651 169.555 61.7033 169.223 61.4818L167.126 60.084C167.044 60.0292 166.947 60 166.849 60H164M164 60H160C159.724 60 159.5 60.2239 159.5 60.5V64M164 60C164 62.5 162 64 159.5 64M159.5 64V79.882C159.5 79.9596 159.518 80.0361 159.553 80.1056L160.638 82.2764C160.804 82.6088 160.563 83 160.191 83H155.809C155.437 83 155.196 82.6088 155.362 82.2764L156.447 80.1056C156.482 80.0361 156.5 79.9596 156.5 79.882V64M156.5 64V60.5C156.5 60.2239 156.276 60 156 60H152M156.5 64C154 64 152 62.5 152 60" stroke="black"/>
<path d="M34.5239 67V50.2H41.3639C42.2759 50.2 43.0999 50.432 43.8359 50.896C44.5879 51.344 45.1879 51.96 45.6359 52.744C46.0839 53.528 46.3079 54.4 46.3079 55.36C46.3079 56.32 46.0839 57.192 45.6359 57.976C45.1879 58.76 44.5879 59.392 43.8359 59.872C43.0999 60.336 42.2759 60.568 41.3639 60.568H37.1159V67H34.5239ZM37.1159 58.072H41.3159C41.7479 58.072 42.1399 57.952 42.4919 57.712C42.8439 57.456 43.1239 57.128 43.3319 56.728C43.5559 56.312 43.6679 55.856 43.6679 55.36C43.6679 54.864 43.5559 54.416 43.3319 54.016C43.1239 53.616 42.8439 53.296 42.4919 53.056C42.1399 52.816 41.7479 52.696 41.3159 52.696H37.1159V58.072ZM53.7244 67.24C52.6844 67.24 51.7324 66.952 50.8684 66.376C50.0204 65.8 49.3404 65.016 48.8284 64.024C48.3164 63.032 48.0604 61.912 48.0604 60.664C48.0604 59.4 48.3164 58.28 48.8284 57.304C49.3564 56.312 50.0604 55.536 50.9404 54.976C51.8364 54.416 52.8364 54.136 53.9404 54.136C54.5964 54.136 55.1964 54.232 55.7404 54.424C56.2844 54.616 56.7564 54.888 57.1564 55.24C57.5724 55.576 57.9084 55.968 58.1644 56.416C58.4364 56.864 58.6044 57.344 58.6684 57.856L58.1164 57.664V54.4H60.6124V67H58.1164V64L58.6924 63.832C58.5964 64.264 58.3964 64.688 58.0924 65.104C57.8044 65.504 57.4284 65.864 56.9644 66.184C56.5164 66.504 56.0124 66.76 55.4524 66.952C54.9084 67.144 54.3324 67.24 53.7244 67.24ZM54.3724 64.96C55.1244 64.96 55.7884 64.776 56.3644 64.408C56.9404 64.04 57.3884 63.536 57.7084 62.896C58.0444 62.24 58.2124 61.496 58.2124 60.664C58.2124 59.848 58.0444 59.12 57.7084 58.48C57.3884 57.84 56.9404 57.336 56.3644 56.968C55.7884 56.6 55.1244 56.416 54.3724 56.416C53.6364 56.416 52.9804 56.6 52.4044 56.968C51.8444 57.336 51.3964 57.84 51.0604 58.48C50.7404 59.12 50.5804 59.848 50.5804 60.664C50.5804 61.496 50.7404 62.24 51.0604 62.896C51.3964 63.536 51.8444 64.04 52.4044 64.408C52.9804 64.776 53.6364 64.96 54.3724 64.96ZM64.0639 67V54.4H66.5599V58.36L66.3199 57.4C66.4959 56.792 66.7919 56.24 67.2079 55.744C67.6399 55.248 68.1279 54.856 68.6719 54.568C69.2319 54.28 69.8079 54.136 70.3999 54.136C70.6719 54.136 70.9279 54.16 71.1679 54.208C71.4239 54.256 71.6239 54.312 71.7679 54.376L71.1199 57.064C70.9279 56.984 70.7119 56.92 70.4719 56.872C70.2479 56.808 70.0239 56.776 69.7999 56.776C69.3679 56.776 68.9519 56.864 68.5519 57.04C68.1679 57.2 67.8239 57.432 67.5199 57.736C67.2319 58.024 66.9999 58.368 66.8239 58.768C66.6479 59.152 66.5599 59.576 66.5599 60.04V67H64.0639ZM74.1516 67V54.4H76.6236V67H74.1516ZM75.3516 51.616C74.8236 51.616 74.4156 51.48 74.1276 51.208C73.8396 50.936 73.6956 50.552 73.6956 50.056C73.6956 49.592 73.8396 49.216 74.1276 48.928C74.4316 48.64 74.8396 48.496 75.3516 48.496C75.8796 48.496 76.2876 48.632 76.5756 48.904C76.8636 49.176 77.0076 49.56 77.0076 50.056C77.0076 50.52 76.8556 50.896 76.5516 51.184C76.2636 51.472 75.8636 51.616 75.3516 51.616ZM84.6233 67.24C83.5673 67.24 82.6153 67.056 81.7673 66.688C80.9193 66.32 80.2153 65.776 79.6553 65.056L81.3353 63.616C81.8153 64.176 82.3353 64.584 82.8953 64.84C83.4713 65.08 84.1193 65.2 84.8393 65.2C85.1273 65.2 85.3913 65.168 85.6313 65.104C85.8873 65.024 86.1033 64.912 86.2793 64.768C86.4713 64.624 86.6153 64.456 86.7113 64.264C86.8073 64.056 86.8553 63.832 86.8553 63.592C86.8553 63.176 86.7033 62.84 86.3993 62.584C86.2393 62.472 85.9833 62.352 85.6313 62.224C85.2953 62.08 84.8553 61.936 84.3113 61.792C83.3833 61.552 82.6233 61.28 82.0313 60.976C81.4393 60.672 80.9833 60.328 80.6633 59.944C80.4233 59.64 80.2473 59.312 80.1353 58.96C80.0233 58.592 79.9673 58.192 79.9673 57.76C79.9673 57.232 80.0793 56.752 80.3033 56.32C80.5433 55.872 80.8633 55.488 81.2633 55.168C81.6793 54.832 82.1593 54.576 82.7033 54.4C83.2633 54.224 83.8553 54.136 84.4793 54.136C85.0713 54.136 85.6553 54.216 86.2313 54.376C86.8233 54.536 87.3673 54.768 87.8633 55.072C88.3593 55.376 88.7753 55.736 89.1113 56.152L87.6953 57.712C87.3913 57.408 87.0553 57.144 86.6873 56.92C86.3353 56.68 85.9753 56.496 85.6073 56.368C85.2393 56.24 84.9033 56.176 84.5993 56.176C84.2633 56.176 83.9593 56.208 83.6873 56.272C83.4153 56.336 83.1833 56.432 82.9913 56.56C82.8153 56.688 82.6793 56.848 82.5833 57.04C82.4873 57.232 82.4393 57.448 82.4393 57.688C82.4553 57.896 82.5033 58.096 82.5833 58.288C82.6793 58.464 82.8073 58.616 82.9673 58.744C83.1433 58.872 83.4073 59.008 83.7593 59.152C84.1113 59.296 84.5593 59.432 85.1033 59.56C85.9033 59.768 86.5593 60 87.0713 60.256C87.5993 60.496 88.0153 60.776 88.3193 61.096C88.6393 61.4 88.8633 61.752 88.9913 62.152C89.1193 62.552 89.1833 63 89.1833 63.496C89.1833 64.216 88.9753 64.864 88.5593 65.44C88.1593 66 87.6153 66.44 86.9273 66.76C86.2393 67.08 85.4713 67.24 84.6233 67.24ZM91.9077 67V49.24H94.3797V56.992L93.9477 57.28C94.1077 56.72 94.4197 56.208 94.8837 55.744C95.3477 55.264 95.8997 54.88 96.5397 54.592C97.1797 54.288 97.8357 54.136 98.5077 54.136C99.4677 54.136 100.268 54.328 100.908 54.712C101.548 55.08 102.028 55.648 102.348 56.416C102.668 57.184 102.828 58.152 102.828 59.32V67H100.356V59.488C100.356 58.768 100.26 58.176 100.068 57.712C99.8757 57.232 99.5797 56.888 99.1797 56.68C98.7797 56.456 98.2837 56.36 97.6917 56.392C97.2117 56.392 96.7717 56.472 96.3717 56.632C95.9717 56.776 95.6197 56.984 95.3157 57.256C95.0277 57.528 94.7957 57.848 94.6197 58.216C94.4597 58.568 94.3797 58.952 94.3797 59.368V67H93.1557C92.9477 67 92.7397 67 92.5317 67C92.3237 67 92.1157 67 91.9077 67ZM112.061 67.24C110.765 67.24 109.613 66.968 108.605 66.424C107.613 65.864 106.829 65.104 106.253 64.144C105.693 63.184 105.413 62.08 105.413 60.832C105.413 59.84 105.573 58.936 105.893 58.12C106.213 57.304 106.653 56.6 107.213 56.008C107.789 55.4 108.469 54.936 109.253 54.616C110.053 54.28 110.917 54.112 111.845 54.112C112.661 54.112 113.421 54.272 114.125 54.592C114.829 54.896 115.437 55.32 115.949 55.864C116.477 56.408 116.877 57.056 117.149 57.808C117.437 58.544 117.573 59.352 117.557 60.232L117.533 61.288H107.237L106.685 59.32H115.397L115.037 59.728V59.152C114.989 58.624 114.813 58.152 114.509 57.736C114.205 57.32 113.821 56.992 113.357 56.752C112.893 56.512 112.389 56.392 111.845 56.392C110.981 56.392 110.253 56.56 109.661 56.896C109.069 57.216 108.621 57.696 108.317 58.336C108.013 58.96 107.861 59.736 107.861 60.664C107.861 61.544 108.045 62.312 108.413 62.968C108.781 63.608 109.301 64.104 109.973 64.456C110.645 64.808 111.421 64.984 112.301 64.984C112.925 64.984 113.501 64.88 114.029 64.672C114.573 64.464 115.157 64.088 115.781 63.544L117.029 65.296C116.645 65.68 116.173 66.016 115.613 66.304C115.069 66.592 114.485 66.824 113.861 67C113.253 67.16 112.653 67.24 112.061 67.24ZM124.444 67.24C123.388 67.24 122.436 67.056 121.588 66.688C120.74 66.32 120.036 65.776 119.476 65.056L121.156 63.616C121.636 64.176 122.156 64.584 122.716 64.84C123.292 65.08 123.94 65.2 124.66 65.2C124.948 65.2 125.212 65.168 125.452 65.104C125.708 65.024 125.924 64.912 126.1 64.768C126.292 64.624 126.436 64.456 126.532 64.264C126.628 64.056 126.676 63.832 126.676 63.592C126.676 63.176 126.524 62.84 126.22 62.584C126.06 62.472 125.804 62.352 125.452 62.224C125.116 62.08 124.676 61.936 124.132 61.792C123.204 61.552 122.444 61.28 121.852 60.976C121.26 60.672 120.804 60.328 120.484 59.944C120.244 59.64 120.068 59.312 119.956 58.96C119.844 58.592 119.788 58.192 119.788 57.76C119.788 57.232 119.9 56.752 120.124 56.32C120.364 55.872 120.684 55.488 121.084 55.168C121.5 54.832 121.98 54.576 122.524 54.4C123.084 54.224 123.676 54.136 124.3 54.136C124.892 54.136 125.476 54.216 126.052 54.376C126.644 54.536 127.188 54.768 127.684 55.072C128.18 55.376 128.596 55.736 128.932 56.152L127.516 57.712C127.212 57.408 126.876 57.144 126.508 56.92C126.156 56.68 125.796 56.496 125.428 56.368C125.06 56.24 124.724 56.176 124.42 56.176C124.084 56.176 123.78 56.208 123.508 56.272C123.236 56.336 123.004 56.432 122.812 56.56C122.636 56.688 122.5 56.848 122.404 57.04C122.308 57.232 122.26 57.448 122.26 57.688C122.276 57.896 122.324 58.096 122.404 58.288C122.5 58.464 122.628 58.616 122.788 58.744C122.964 58.872 123.228 59.008 123.58 59.152C123.932 59.296 124.38 59.432 124.924 59.56C125.724 59.768 126.38 60 126.892 60.256C127.42 60.496 127.836 60.776 128.14 61.096C128.46 61.4 128.684 61.752 128.812 62.152C128.94 62.552 129.004 63 129.004 63.496C129.004 64.216 128.796 64.864 128.38 65.44C127.98 66 127.436 66.44 126.748 66.76C126.06 67.08 125.292 67.24 124.444 67.24Z" fill="black"/>
<path d="M27 42H180" stroke="black" stroke-width="2" stroke-linecap="round"/>
<path d="M137 145L137 49" stroke="#838383" stroke-width="2" stroke-linecap="round"/>
<path d="M56.0077 33V13.4H59.0317V30.088H68.2157V33H56.0077ZM78.3545 33.28C76.8425 33.28 75.4985 32.9627 74.3225 32.328C73.1652 31.6747 72.2505 30.788 71.5785 29.668C70.9252 28.548 70.5985 27.26 70.5985 25.804C70.5985 24.6467 70.7852 23.592 71.1585 22.64C71.5318 21.688 72.0452 20.8667 72.6985 20.176C73.3705 19.4667 74.1638 18.9253 75.0785 18.552C76.0118 18.16 77.0198 17.964 78.1025 17.964C79.0545 17.964 79.9412 18.1507 80.7625 18.524C81.5838 18.8787 82.2932 19.3733 82.8905 20.008C83.5065 20.6427 83.9732 21.3987 84.2905 22.276C84.6265 23.1347 84.7852 24.0773 84.7665 25.104L84.7385 26.336H72.7265L72.0825 24.04H82.2465L81.8265 24.516V23.844C81.7705 23.228 81.5652 22.6773 81.2105 22.192C80.8558 21.7067 80.4078 21.324 79.8665 21.044C79.3252 20.764 78.7372 20.624 78.1025 20.624C77.0945 20.624 76.2452 20.82 75.5545 21.212C74.8638 21.5853 74.3412 22.1453 73.9865 22.892C73.6318 23.62 73.4545 24.5253 73.4545 25.608C73.4545 26.6347 73.6692 27.5307 74.0985 28.296C74.5278 29.0427 75.1345 29.6213 75.9185 30.032C76.7025 30.4427 77.6078 30.648 78.6345 30.648C79.3625 30.648 80.0345 30.5267 80.6505 30.284C81.2852 30.0413 81.9665 29.6027 82.6945 28.968L84.1505 31.012C83.7025 31.46 83.1518 31.852 82.4985 32.188C81.8638 32.524 81.1825 32.7947 80.4545 33C79.7452 33.1867 79.0452 33.28 78.3545 33.28ZM94.344 39.44C93.2987 39.44 92.2534 39.272 91.208 38.936C90.1814 38.6187 89.3507 38.1987 88.716 37.676L89.78 35.436C90.1534 35.716 90.592 35.9587 91.096 36.164C91.6 36.388 92.132 36.556 92.692 36.668C93.252 36.7987 93.8027 36.864 94.344 36.864C95.3707 36.864 96.2294 36.696 96.92 36.36C97.6107 36.024 98.1334 35.5293 98.488 34.876C98.8427 34.2227 99.02 33.4107 99.02 32.44V29.612L99.328 29.808C99.2347 30.3867 98.9267 30.9467 98.404 31.488C97.9 32.0107 97.2654 32.44 96.5 32.776C95.7347 33.112 94.9507 33.28 94.148 33.28C92.748 33.28 91.4974 32.9533 90.396 32.3C89.3134 31.628 88.4547 30.7227 87.82 29.584C87.1854 28.4267 86.868 27.1107 86.868 25.636C86.868 24.1613 87.176 22.8547 87.792 21.716C88.4267 20.5587 89.2854 19.6533 90.368 19C91.4694 18.328 92.7014 17.992 94.064 17.992C94.624 17.992 95.1654 18.0667 95.688 18.216C96.2107 18.3467 96.696 18.5427 97.144 18.804C97.592 19.0467 97.9934 19.3173 98.348 19.616C98.7027 19.9147 98.992 20.232 99.216 20.568C99.44 20.904 99.58 21.2213 99.636 21.52L99.02 21.744V18.3H101.904V32.104C101.904 33.28 101.727 34.316 101.372 35.212C101.036 36.1267 100.541 36.892 99.888 37.508C99.2347 38.1427 98.4414 38.6187 97.508 38.936C96.5747 39.272 95.52 39.44 94.344 39.44ZM94.456 30.62C95.3707 30.62 96.1827 30.4053 96.892 29.976C97.6014 29.5467 98.152 28.9587 98.544 28.212C98.936 27.4653 99.132 26.6067 99.132 25.636C99.132 24.6653 98.9267 23.8067 98.516 23.06C98.124 22.2947 97.5734 21.6973 96.864 21.268C96.1734 20.8387 95.3707 20.624 94.456 20.624C93.56 20.624 92.7574 20.848 92.048 21.296C91.3574 21.7253 90.8067 22.3227 90.396 23.088C90.004 23.8347 89.808 24.684 89.808 25.636C89.808 26.588 90.004 27.4467 90.396 28.212C90.8067 28.9587 91.3574 29.5467 92.048 29.976C92.7574 30.4053 93.56 30.62 94.456 30.62ZM112.808 33.28C111.296 33.28 109.952 32.9627 108.776 32.328C107.618 31.6747 106.704 30.788 106.032 29.668C105.378 28.548 105.052 27.26 105.052 25.804C105.052 24.6467 105.238 23.592 105.612 22.64C105.985 21.688 106.498 20.8667 107.152 20.176C107.824 19.4667 108.617 18.9253 109.532 18.552C110.465 18.16 111.473 17.964 112.556 17.964C113.508 17.964 114.394 18.1507 115.216 18.524C116.037 18.8787 116.746 19.3733 117.344 20.008C117.96 20.6427 118.426 21.3987 118.744 22.276C119.08 23.1347 119.238 24.0773 119.22 25.104L119.192 26.336H107.18L106.536 24.04H116.7L116.28 24.516V23.844C116.224 23.228 116.018 22.6773 115.664 22.192C115.309 21.7067 114.861 21.324 114.32 21.044C113.778 20.764 113.19 20.624 112.556 20.624C111.548 20.624 110.698 20.82 110.008 21.212C109.317 21.5853 108.794 22.1453 108.44 22.892C108.085 23.62 107.908 24.5253 107.908 25.608C107.908 26.6347 108.122 27.5307 108.552 28.296C108.981 29.0427 109.588 29.6213 110.372 30.032C111.156 30.4427 112.061 30.648 113.088 30.648C113.816 30.648 114.488 30.5267 115.104 30.284C115.738 30.0413 116.42 29.6027 117.148 28.968L118.604 31.012C118.156 31.46 117.605 31.852 116.952 32.188C116.317 32.524 115.636 32.7947 114.908 33C114.198 33.1867 113.498 33.28 112.808 33.28ZM122.354 33V18.3H125.238V21.324L124.734 21.66C124.921 21.0067 125.285 20.4093 125.826 19.868C126.367 19.308 127.011 18.86 127.758 18.524C128.505 18.1693 129.27 17.992 130.054 17.992C131.174 17.992 132.107 18.216 132.854 18.664C133.601 19.0933 134.161 19.756 134.534 20.652C134.907 21.548 135.094 22.6773 135.094 24.04V33H132.21V24.236C132.21 23.396 132.098 22.7053 131.874 22.164C131.65 21.604 131.305 21.2027 130.838 20.96C130.371 20.6987 129.793 20.5867 129.102 20.624C128.542 20.624 128.029 20.7173 127.562 20.904C127.095 21.072 126.685 21.3147 126.33 21.632C125.994 21.9493 125.723 22.3227 125.518 22.752C125.331 23.1627 125.238 23.6107 125.238 24.096V33H123.81C123.567 33 123.325 33 123.082 33C122.839 33 122.597 33 122.354 33ZM145.138 33.28C143.794 33.28 142.59 32.9533 141.526 32.3C140.481 31.628 139.65 30.7227 139.034 29.584C138.418 28.4267 138.11 27.1107 138.11 25.636C138.11 24.1613 138.409 22.8547 139.006 21.716C139.622 20.5587 140.453 19.6533 141.498 19C142.544 18.328 143.729 17.992 145.054 17.992C145.782 17.992 146.482 18.1133 147.154 18.356C147.845 18.58 148.461 18.8973 149.002 19.308C149.544 19.7 149.964 20.1387 150.262 20.624C150.58 21.0907 150.738 21.5667 150.738 22.052L149.898 22.108V12.28H152.782V33H149.898V29.5H150.458C150.458 29.948 150.309 30.396 150.01 30.844C149.712 31.2733 149.31 31.6747 148.806 32.048C148.321 32.4213 147.752 32.72 147.098 32.944C146.464 33.168 145.81 33.28 145.138 33.28ZM145.53 30.788C146.408 30.788 147.182 30.564 147.854 30.116C148.526 29.668 149.049 29.0613 149.422 28.296C149.814 27.512 150.01 26.6253 150.01 25.636C150.01 24.6467 149.814 23.7693 149.422 23.004C149.049 22.22 148.526 21.604 147.854 21.156C147.182 20.708 146.408 20.484 145.53 20.484C144.653 20.484 143.878 20.708 143.206 21.156C142.534 21.604 142.002 22.22 141.61 23.004C141.237 23.7693 141.05 24.6467 141.05 25.636C141.05 26.6253 141.237 27.512 141.61 28.296C142.002 29.0613 142.534 29.668 143.206 30.116C143.878 30.564 144.653 30.788 145.53 30.788Z" fill="black"/>
</svg>
