<svg width="131" height="133" viewBox="0 0 131 133" fill="none" xmlns="http://www.w3.org/2000/svg">
<path d="M116 65C116 93.1665 93.1665 116 65 116C55.2949 116 46.2229 113.289 38.5 108.583C32.038 104.646 26.5205 99.3116 22.3669 93C17.0776 84.9628 14 75.3408 14 65C14 36.8335 36.8335 14 65 14C93.1665 14 116 36.8335 116 65Z" fill="#FF0000" fill-opacity="0.31"/>
<path d="M38.5 108.583C32.038 104.646 26.5205 99.3116 22.3669 93L0.5 119L14 132.5L38.5 108.583Z" fill="#FF0000" fill-opacity="0.31"/>
<path d="M46.8506 55.28C45.7866 55.28 44.7973 55.14 43.8826 54.86C42.9866 54.58 42.1653 54.16 41.4186 53.6C40.6906 53.0213 40.0373 52.312 39.4586 51.472L41.5306 49.092C42.4453 50.3987 43.3226 51.304 44.1626 51.808C45.0026 52.312 46.0013 52.564 47.1586 52.564C47.8679 52.564 48.5119 52.452 49.0906 52.228C49.6693 52.004 50.1266 51.696 50.4626 51.304C50.7986 50.912 50.9666 50.464 50.9666 49.96C50.9666 49.624 50.9106 49.3067 50.7986 49.008C50.6866 48.7093 50.5093 48.4387 50.2666 48.196C50.0426 47.9533 49.7439 47.7293 49.3706 47.524C49.0159 47.3187 48.5959 47.1413 48.1106 46.992C47.6253 46.824 47.0653 46.684 46.4306 46.572C45.4226 46.3667 44.5453 46.096 43.7986 45.76C43.0519 45.424 42.4266 45.004 41.9226 44.5C41.4186 43.996 41.0453 43.4267 40.8026 42.792C40.5599 42.1387 40.4386 41.4107 40.4386 40.608C40.4386 39.824 40.6066 39.096 40.9426 38.424C41.2973 37.752 41.7733 37.1733 42.3706 36.688C42.9866 36.184 43.7053 35.8013 44.5266 35.54C45.3479 35.26 46.2346 35.12 47.1866 35.12C48.1946 35.12 49.1186 35.2507 49.9586 35.512C50.7986 35.7733 51.5453 36.1653 52.1986 36.688C52.8519 37.192 53.3933 37.8173 53.8226 38.564L51.6946 40.664C51.3213 40.048 50.9013 39.5347 50.4346 39.124C49.9679 38.6947 49.4546 38.3773 48.8946 38.172C48.3346 37.948 47.7373 37.836 47.1026 37.836C46.3746 37.836 45.7399 37.948 45.1986 38.172C44.6573 38.396 44.2279 38.7133 43.9106 39.124C43.6119 39.516 43.4626 39.9827 43.4626 40.524C43.4626 40.916 43.5373 41.28 43.6866 41.616C43.8359 41.9333 44.0599 42.2227 44.3586 42.484C44.6759 42.7267 45.0959 42.9507 45.6186 43.156C46.1413 43.3427 46.7666 43.5107 47.4946 43.66C48.5213 43.884 49.4359 44.1733 50.2386 44.528C51.0413 44.864 51.7226 45.2653 52.2826 45.732C52.8426 46.1987 53.2626 46.7213 53.5426 47.3C53.8413 47.8787 53.9906 48.504 53.9906 49.176C53.9906 50.4267 53.7013 51.5093 53.1226 52.424C52.5439 53.3387 51.7226 54.048 50.6586 54.552C49.5946 55.0373 48.3253 55.28 46.8506 55.28ZM63.2033 55.28C61.9899 55.28 60.8793 54.944 59.8713 54.272C58.8819 53.6 58.0886 52.6853 57.4913 51.528C56.8939 50.3707 56.5953 49.064 56.5953 47.608C56.5953 46.1333 56.8939 44.8267 57.4913 43.688C58.1073 42.5307 58.9286 41.6253 59.9553 40.972C61.0006 40.3187 62.1673 39.992 63.4553 39.992C64.2206 39.992 64.9206 40.104 65.5553 40.328C66.1899 40.552 66.7406 40.8693 67.2073 41.28C67.6926 41.672 68.0846 42.1293 68.3833 42.652C68.7006 43.1747 68.8966 43.7347 68.9713 44.332L68.3273 44.108V40.3H71.2393V55H68.3273V51.5L68.9993 51.304C68.8873 51.808 68.6539 52.3027 68.2993 52.788C67.9633 53.2547 67.5246 53.6747 66.9833 54.048C66.4606 54.4213 65.8726 54.72 65.2193 54.944C64.5846 55.168 63.9126 55.28 63.2033 55.28ZM63.9593 52.62C64.8366 52.62 65.6113 52.4053 66.2833 51.976C66.9553 51.5467 67.4779 50.9587 67.8513 50.212C68.2433 49.4467 68.4393 48.5787 68.4393 47.608C68.4393 46.656 68.2433 45.8067 67.8513 45.06C67.4779 44.3133 66.9553 43.7253 66.2833 43.296C65.6113 42.8667 64.8366 42.652 63.9593 42.652C63.1006 42.652 62.3353 42.8667 61.6633 43.296C61.0099 43.7253 60.4873 44.3133 60.0953 45.06C59.7219 45.8067 59.5353 46.656 59.5353 47.608C59.5353 48.5787 59.7219 49.4467 60.0953 50.212C60.4873 50.9587 61.0099 51.5467 61.6633 51.976C62.3353 52.4053 63.1006 52.62 63.9593 52.62ZM75.322 55V34.28H78.206V55H75.322ZM84.0313 55V36.548H86.9153V55H84.0313ZM80.9793 43.1V40.3H90.3313V43.1H80.9793ZM34.4315 90V70.4H37.4555V87.088H46.6395V90H34.4315ZM55.5743 90.28C54.361 90.28 53.2503 89.944 52.2423 89.272C51.253 88.6 50.4597 87.6853 49.8623 86.528C49.265 85.3707 48.9663 84.064 48.9663 82.608C48.9663 81.1333 49.265 79.8267 49.8623 78.688C50.4783 77.5307 51.2997 76.6253 52.3263 75.972C53.3717 75.3187 54.5383 74.992 55.8263 74.992C56.5917 74.992 57.2917 75.104 57.9263 75.328C58.561 75.552 59.1117 75.8693 59.5783 76.28C60.0637 76.672 60.4557 77.1293 60.7543 77.652C61.0717 78.1747 61.2677 78.7347 61.3423 79.332L60.6983 79.108V75.3H63.6103V90H60.6983V86.5L61.3703 86.304C61.2583 86.808 61.025 87.3027 60.6703 87.788C60.3343 88.2547 59.8957 88.6747 59.3543 89.048C58.8317 89.4213 58.2437 89.72 57.5903 89.944C56.9557 90.168 56.2837 90.28 55.5743 90.28ZM56.3303 87.62C57.2077 87.62 57.9823 87.4053 58.6543 86.976C59.3263 86.5467 59.849 85.9587 60.2223 85.212C60.6143 84.4467 60.8103 83.5787 60.8103 82.608C60.8103 81.656 60.6143 80.8067 60.2223 80.06C59.849 79.3133 59.3263 78.7253 58.6543 78.296C57.9823 77.8667 57.2077 77.652 56.3303 77.652C55.4717 77.652 54.7063 77.8667 54.0343 78.296C53.381 78.7253 52.8583 79.3133 52.4663 80.06C52.093 80.8067 51.9063 81.656 51.9063 82.608C51.9063 83.5787 52.093 84.4467 52.4663 85.212C52.8583 85.9587 53.381 86.5467 54.0343 86.976C54.7063 87.4053 55.4717 87.62 56.3303 87.62ZM70.2691 85.408L70.1291 82.272L77.1571 75.3H81.0491L70.2691 85.408ZM67.6371 90V69.28H70.5211V90H67.6371ZM77.5491 90L72.0051 83.532L74.0491 81.656L81.2451 90H77.5491ZM89.7823 90.28C88.2703 90.28 86.9263 89.9627 85.7503 89.328C84.5929 88.6747 83.6783 87.788 83.0063 86.668C82.3529 85.548 82.0263 84.26 82.0263 82.804C82.0263 81.6467 82.2129 80.592 82.5863 79.64C82.9596 78.688 83.4729 77.8667 84.1263 77.176C84.7983 76.4667 85.5916 75.9253 86.5063 75.552C87.4396 75.16 88.4476 74.964 89.5303 74.964C90.4823 74.964 91.3689 75.1507 92.1903 75.524C93.0116 75.8787 93.7209 76.3733 94.3183 77.008C94.9343 77.6427 95.4009 78.3987 95.7183 79.276C96.0543 80.1347 96.2129 81.0773 96.1943 82.104L96.1663 83.336H84.1543L83.5103 81.04H93.6743L93.2543 81.516V80.844C93.1983 80.228 92.9929 79.6773 92.6383 79.192C92.2836 78.7067 91.8356 78.324 91.2943 78.044C90.7529 77.764 90.1649 77.624 89.5303 77.624C88.5223 77.624 87.6729 77.82 86.9823 78.212C86.2916 78.5853 85.7689 79.1453 85.4143 79.892C85.0596 80.62 84.8823 81.5253 84.8823 82.608C84.8823 83.6347 85.0969 84.5307 85.5263 85.296C85.9556 86.0427 86.5623 86.6213 87.3463 87.032C88.1303 87.4427 89.0356 87.648 90.0623 87.648C90.7903 87.648 91.4623 87.5267 92.0783 87.284C92.7129 87.0413 93.3943 86.6027 94.1223 85.968L95.5783 88.012C95.1303 88.46 94.5796 88.852 93.9263 89.188C93.2916 89.524 92.6103 89.7947 91.8823 90C91.1729 90.1867 90.4729 90.28 89.7823 90.28Z" fill="black"/>
<g filter="url(#filter0_f_19_2)">
<path d="M31.6223 33.4071C14.1578 51.8573 14.9568 80.9719 33.407 98.4364C35.3305 100.257 37.37 101.879 39.5 103.304C16 45 63 14 109.813 54.5C107.832 46.0387 103.435 38.0431 96.6516 31.6223C78.2014 14.1578 49.0868 14.9568 31.6223 33.4071Z" fill="#D9D9D9" fill-opacity="0.53"/>
</g>
<path d="M98.4364 96.6516C80.9719 115.102 51.8572 115.901 33.407 98.4364C14.9568 80.9719 14.1578 51.8573 31.6223 33.4071C49.0868 14.9568 78.2014 14.1578 96.6516 31.6223C115.102 49.0868 115.901 78.2014 98.4364 96.6516Z" fill="#D9D9D9" fill-opacity="0.3" stroke="#5A5A5A" stroke-width="5"/>
<path d="M22.9403 103.675L25.8452 106.425L28.7502 109.175C29.1513 109.554 29.1686 110.187 28.789 110.588L14.3527 125.84C13.973 126.241 13.3401 126.258 12.939 125.878L7.12911 120.379C6.72802 119.999 6.71065 119.366 7.09031 118.965L21.5266 103.714C21.9062 103.313 22.5392 103.296 22.9403 103.675Z" fill="#5A5A5A"/>
<path d="M33.4071 98.4364L25.8452 106.425M25.8452 106.425L22.9403 103.675C22.5392 103.296 21.9062 103.313 21.5266 103.714L7.09031 118.965C6.71065 119.366 6.72802 119.999 7.12911 120.379L12.939 125.878C13.3401 126.258 13.973 126.241 14.3527 125.84L28.789 110.588C29.1686 110.187 29.1513 109.554 28.7502 109.175L25.8452 106.425Z" stroke="#5A5A5A" stroke-width="4"/>
<defs>
<filter id="filter0_f_19_2" x="15.0292" y="15.0292" width="98.7841" height="92.2746" filterUnits="userSpaceOnUse" color-interpolation-filters="sRGB">
<feFlood flood-opacity="0" result="BackgroundImageFix"/>
<feBlend mode="normal" in="SourceGraphic" in2="BackgroundImageFix" result="shape"/>
<feGaussianBlur stdDeviation="2" result="effect1_foregroundBlur_19_2"/>
</filter>
</defs>
</svg>
