<svg width="87" height="46" viewBox="0 0 87 46" fill="none" xmlns="http://www.w3.org/2000/svg">
<path d="M85 44.5L2.5 46V27L32.5 0.5H50L85 27V44.5Z" fill="#FF0000" fill-opacity="0.31"/>
<path d="M6.18542 40V32.3H9.39742C9.88876 32.3 10.3031 32.3733 10.6404 32.52C10.9778 32.6667 11.2308 32.8867 11.3994 33.18C11.5754 33.466 11.6634 33.818 11.6634 34.236C11.6634 34.654 11.5461 35.0097 11.3114 35.303C11.0841 35.5963 10.7651 35.798 10.3544 35.908V35.688C10.6991 35.7613 10.9998 35.8933 11.2564 36.084C11.5131 36.2673 11.7111 36.4983 11.8504 36.777C11.9971 37.0557 12.0704 37.3747 12.0704 37.734C12.0704 38.1007 12.0118 38.427 11.8944 38.713C11.7844 38.9917 11.6158 39.2263 11.3884 39.417C11.1684 39.6077 10.9008 39.7543 10.5854 39.857C10.2701 39.9523 9.91076 40 9.50742 40H6.18542ZM7.37342 38.856H9.44142C9.74209 38.856 9.99509 38.812 10.2004 38.724C10.4131 38.636 10.5744 38.5077 10.6844 38.339C10.8018 38.163 10.8604 37.954 10.8604 37.712C10.8604 37.4847 10.7981 37.2903 10.6734 37.129C10.5561 36.9677 10.3874 36.8467 10.1674 36.766C9.94742 36.678 9.68709 36.634 9.38642 36.634H7.37342V38.856ZM7.37342 35.49H9.33142C9.55142 35.49 9.74576 35.446 9.91442 35.358C10.0904 35.27 10.2261 35.149 10.3214 34.995C10.4241 34.841 10.4754 34.665 10.4754 34.467C10.4754 34.137 10.3654 33.884 10.1454 33.708C9.92542 33.532 9.61009 33.444 9.19942 33.444H7.37342V35.49ZM16.071 40.11C15.477 40.11 14.949 39.9853 14.487 39.736C14.0323 39.4793 13.673 39.131 13.409 38.691C13.1523 38.251 13.024 37.745 13.024 37.173C13.024 36.7183 13.0973 36.304 13.244 35.93C13.3907 35.556 13.5923 35.2333 13.849 34.962C14.113 34.6833 14.4247 34.4707 14.784 34.324C15.1507 34.17 15.5467 34.093 15.972 34.093C16.346 34.093 16.6943 34.1663 17.017 34.313C17.3397 34.4523 17.6183 34.6467 17.853 34.896C18.095 35.1453 18.2783 35.4423 18.403 35.787C18.535 36.1243 18.5973 36.4947 18.59 36.898L18.579 37.382H13.86L13.607 36.48H17.6L17.435 36.667V36.403C17.413 36.161 17.3323 35.9447 17.193 35.754C17.0537 35.5633 16.8777 35.413 16.665 35.303C16.4523 35.193 16.2213 35.138 15.972 35.138C15.576 35.138 15.2423 35.215 14.971 35.369C14.6997 35.5157 14.4943 35.7357 14.355 36.029C14.2157 36.315 14.146 36.6707 14.146 37.096C14.146 37.4993 14.2303 37.8513 14.399 38.152C14.5677 38.4453 14.806 38.6727 15.114 38.834C15.422 38.9953 15.7777 39.076 16.181 39.076C16.467 39.076 16.731 39.0283 16.973 38.933C17.2223 38.8377 17.49 38.6653 17.776 38.416L18.348 39.219C18.172 39.395 17.9557 39.549 17.699 39.681C17.4497 39.813 17.182 39.9193 16.896 40C16.6173 40.0733 16.3423 40.11 16.071 40.11ZM19.8213 40V34.225H20.9653V36.04L20.8553 35.6C20.936 35.3213 21.0716 35.0683 21.2623 34.841C21.4603 34.6137 21.684 34.434 21.9333 34.302C22.19 34.17 22.454 34.104 22.7253 34.104C22.85 34.104 22.9673 34.115 23.0773 34.137C23.1946 34.159 23.2863 34.1847 23.3523 34.214L23.0553 35.446C22.9673 35.4093 22.8683 35.38 22.7583 35.358C22.6556 35.3287 22.553 35.314 22.4503 35.314C22.2523 35.314 22.0616 35.3543 21.8783 35.435C21.7023 35.5083 21.5446 35.6147 21.4053 35.754C21.2733 35.886 21.167 36.0437 21.0863 36.227C21.0056 36.403 20.9653 36.5973 20.9653 36.81V40H19.8213ZM25.2258 42.53L26.3918 39.835L26.4028 40.737L23.5208 34.225H24.8408L26.6448 38.471C26.6815 38.5443 26.7255 38.658 26.7768 38.812C26.8282 38.9587 26.8722 39.1053 26.9088 39.252L26.6228 39.318C26.6815 39.164 26.7365 39.01 26.7878 38.856C26.8465 38.702 26.9015 38.548 26.9528 38.394L28.4598 34.225H29.8018L27.4258 40L26.4468 42.53H25.2258ZM30.6714 40V31.86H31.8044V40H30.6714ZM38.5172 40.11C38.2678 40.11 38.0295 40.077 37.8022 40.011C37.5748 39.945 37.3622 39.8497 37.1642 39.725C36.9735 39.6003 36.8012 39.4537 36.6472 39.285C36.4932 39.109 36.3612 38.9183 36.2512 38.713L36.9992 37.932C37.1532 38.152 37.2925 38.328 37.4172 38.46C37.5492 38.592 37.6738 38.6947 37.7912 38.768C37.9085 38.8413 38.0258 38.8927 38.1432 38.922C38.2605 38.944 38.3852 38.955 38.5172 38.955C38.7812 38.955 39.0122 38.8963 39.2102 38.779C39.4082 38.6543 39.5622 38.4857 39.6722 38.273C39.7822 38.0603 39.8372 37.8183 39.8372 37.547V33.4H38.4292V32.3H42.2132V33.4H41.0252V37.657C41.0252 38.009 40.9628 38.3353 40.8382 38.636C40.7208 38.9293 40.5485 39.186 40.3212 39.406C40.1012 39.626 39.8372 39.7983 39.5292 39.923C39.2285 40.0477 38.8912 40.11 38.5172 40.11ZM45.0269 40.11C44.6163 40.11 44.2569 40.0147 43.9489 39.824C43.6483 39.6333 43.4136 39.3657 43.2449 39.021C43.0836 38.6763 43.0029 38.2657 43.0029 37.789V34.225H44.1359V37.481C44.1359 37.8183 44.1873 38.1117 44.2899 38.361C44.3999 38.603 44.5539 38.79 44.7519 38.922C44.9573 39.054 45.2029 39.12 45.4889 39.12C45.7016 39.12 45.8959 39.087 46.0719 39.021C46.2479 38.9477 46.3983 38.8487 46.5229 38.724C46.6549 38.5993 46.7576 38.449 46.8309 38.273C46.9043 38.097 46.9409 37.9063 46.9409 37.701V34.225H48.0739V40H46.9409V38.79L47.1389 38.658C47.0509 38.9293 46.9006 39.175 46.6879 39.395C46.4826 39.615 46.2369 39.791 45.9509 39.923C45.6649 40.0477 45.3569 40.11 45.0269 40.11ZM49.6631 40V34.225H50.7961V35.413L50.5981 35.545C50.6714 35.2883 50.8144 35.0537 51.0271 34.841C51.2398 34.621 51.4928 34.445 51.7861 34.313C52.0794 34.1737 52.3801 34.104 52.6881 34.104C53.1281 34.104 53.4948 34.192 53.7881 34.368C54.0814 34.5367 54.3014 34.797 54.4481 35.149C54.5948 35.501 54.6681 35.9447 54.6681 36.48V40H53.5351V36.557C53.5351 36.227 53.4911 35.9557 53.4031 35.743C53.3151 35.523 53.1794 35.3653 52.9961 35.27C52.8128 35.1673 52.5854 35.1233 52.3141 35.138C52.0941 35.138 51.8924 35.1747 51.7091 35.248C51.5258 35.314 51.3644 35.4093 51.2251 35.534C51.0931 35.6587 50.9868 35.8053 50.9061 35.974C50.8328 36.1353 50.7961 36.3113 50.7961 36.502V40H50.2351C50.1398 40 50.0444 40 49.9491 40C49.8538 40 49.7584 40 49.6631 40ZM58.6581 40.11C58.1228 40.11 57.6424 39.978 57.2171 39.714C56.7991 39.45 56.4654 39.0907 56.2161 38.636C55.9741 38.1813 55.8531 37.6717 55.8531 37.107C55.8531 36.5423 55.9741 36.0327 56.2161 35.578C56.4654 35.1233 56.7991 34.764 57.2171 34.5C57.6424 34.236 58.1228 34.104 58.6581 34.104C59.1714 34.104 59.6371 34.2103 60.0551 34.423C60.4804 34.6283 60.8031 34.9107 61.0231 35.27L60.3961 36.04C60.2788 35.8713 60.1284 35.7173 59.9451 35.578C59.7618 35.4387 59.5674 35.3287 59.3621 35.248C59.1568 35.1673 58.9588 35.127 58.7681 35.127C58.4161 35.127 58.1008 35.215 57.8221 35.391C57.5508 35.5597 57.3344 35.7943 57.1731 36.095C57.0118 36.3957 56.9311 36.733 56.9311 37.107C56.9311 37.481 57.0154 37.8183 57.1841 38.119C57.3528 38.4123 57.5764 38.647 57.8551 38.823C58.1338 38.999 58.4418 39.087 58.7791 39.087C58.9771 39.087 59.1678 39.054 59.3511 38.988C59.5418 38.922 59.7251 38.823 59.9011 38.691C60.0771 38.559 60.2421 38.3977 60.3961 38.207L61.0231 38.977C60.7884 39.307 60.4511 39.5783 60.0111 39.791C59.5784 40.0037 59.1274 40.11 58.6581 40.11ZM62.8068 40V32.751H63.9398V40H62.8068ZM61.6078 35.325V34.225H65.2818V35.325H61.6078ZM66.5005 40V34.225H67.6335V40H66.5005ZM67.0505 32.949C66.8085 32.949 66.6215 32.8867 66.4895 32.762C66.3575 32.6373 66.2915 32.4613 66.2915 32.234C66.2915 32.0213 66.3575 31.849 66.4895 31.717C66.6288 31.585 66.8158 31.519 67.0505 31.519C67.2925 31.519 67.4795 31.5813 67.6115 31.706C67.7435 31.8307 67.8095 32.0067 67.8095 32.234C67.8095 32.4467 67.7398 32.619 67.6005 32.751C67.4685 32.883 67.2852 32.949 67.0505 32.949ZM71.971 40.11C71.4063 40.11 70.9003 39.9817 70.453 39.725C70.013 39.461 69.6647 39.1053 69.408 38.658C69.1513 38.2033 69.023 37.6863 69.023 37.107C69.023 36.5277 69.1513 36.0143 69.408 35.567C69.6647 35.1123 70.013 34.7567 70.453 34.5C70.9003 34.236 71.4063 34.104 71.971 34.104C72.5283 34.104 73.027 34.236 73.467 34.5C73.9143 34.7567 74.2663 35.1123 74.523 35.567C74.7797 36.0143 74.908 36.5277 74.908 37.107C74.908 37.6863 74.7797 38.2033 74.523 38.658C74.2663 39.1053 73.9143 39.461 73.467 39.725C73.027 39.9817 72.5283 40.11 71.971 40.11ZM71.971 39.076C72.3157 39.076 72.6237 38.9917 72.895 38.823C73.1663 38.647 73.379 38.4123 73.533 38.119C73.687 37.8183 73.7603 37.481 73.753 37.107C73.7603 36.7257 73.687 36.3883 73.533 36.095C73.379 35.7943 73.1663 35.5597 72.895 35.391C72.6237 35.2223 72.3157 35.138 71.971 35.138C71.6263 35.138 71.3147 35.226 71.036 35.402C70.7647 35.5707 70.552 35.8053 70.398 36.106C70.244 36.3993 70.1707 36.733 70.178 37.107C70.1707 37.481 70.244 37.8183 70.398 38.119C70.552 38.4123 70.7647 38.647 71.036 38.823C71.3147 38.9917 71.6263 39.076 71.971 39.076ZM76.1426 40V34.225H77.2756V35.413L77.0776 35.545C77.1509 35.2883 77.2939 35.0537 77.5066 34.841C77.7193 34.621 77.9723 34.445 78.2656 34.313C78.5589 34.1737 78.8596 34.104 79.1676 34.104C79.6076 34.104 79.9743 34.192 80.2676 34.368C80.5609 34.5367 80.7809 34.797 80.9276 35.149C81.0743 35.501 81.1476 35.9447 81.1476 36.48V40H80.0146V36.557C80.0146 36.227 79.9706 35.9557 79.8826 35.743C79.7946 35.523 79.6589 35.3653 79.4756 35.27C79.2923 35.1673 79.0649 35.1233 78.7936 35.138C78.5736 35.138 78.3719 35.1747 78.1886 35.248C78.0053 35.314 77.8439 35.4093 77.7046 35.534C77.5726 35.6587 77.4663 35.8053 77.3856 35.974C77.3123 36.1353 77.2756 36.3113 77.2756 36.502V40H76.7146C76.6193 40 76.5239 40 76.4286 40C76.3333 40 76.2379 40 76.1426 40Z" fill="black"/>
<path d="M41 5V12M41 29V12M49 12H41M41 12H33" stroke="#484848" stroke-width="4"/>
</svg>
