<svg width="66" height="43" viewBox="0 0 66 43" fill="none" xmlns="http://www.w3.org/2000/svg">
<path d="M0 43V23L10.5 11L38.5 10L43.5 0L66 1V26.5L57.5 42L0 43Z" fill="#FF0000" fill-opacity="0.31"/>
<path d="M16.0219 24.11C15.4353 24.11 14.8999 24.011 14.4159 23.813C13.9319 23.615 13.5103 23.3363 13.1509 22.977C12.7916 22.6177 12.5129 22.196 12.3149 21.712C12.1169 21.228 12.0179 20.6963 12.0179 20.117C12.0179 19.5377 12.1169 19.006 12.3149 18.522C12.5129 18.038 12.7916 17.6163 13.1509 17.257C13.5103 16.8977 13.9319 16.619 14.4159 16.421C14.8999 16.223 15.4316 16.124 16.0109 16.124C16.5903 16.124 17.1219 16.223 17.6059 16.421C18.0899 16.619 18.5116 16.8977 18.8709 17.257C19.2303 17.6163 19.5053 18.038 19.6959 18.522C19.8939 19.006 19.9929 19.5377 19.9929 20.117C19.9929 20.689 19.8939 21.2207 19.6959 21.712C19.5053 22.196 19.2303 22.6177 18.8709 22.977C18.5116 23.3363 18.0899 23.615 17.6059 23.813C17.1219 24.011 16.5939 24.11 16.0219 24.11ZM16.0109 22.35C16.3116 22.35 16.5866 22.295 16.8359 22.185C17.0926 22.075 17.3126 21.921 17.4959 21.723C17.6866 21.5177 17.8333 21.2793 17.9359 21.008C18.0386 20.7367 18.0899 20.4397 18.0899 20.117C18.0899 19.7943 18.0386 19.4973 17.9359 19.226C17.8333 18.9547 17.6866 18.72 17.4959 18.522C17.3126 18.3167 17.0926 18.159 16.8359 18.049C16.5866 17.939 16.3116 17.884 16.0109 17.884C15.7103 17.884 15.4316 17.939 15.1749 18.049C14.9256 18.159 14.7056 18.3167 14.5149 18.522C14.3243 18.72 14.1776 18.9547 14.0749 19.226C13.9796 19.4973 13.9319 19.7943 13.9319 20.117C13.9319 20.4397 13.9796 20.7403 14.0749 21.019C14.1776 21.2903 14.3243 21.525 14.5149 21.723C14.7056 21.921 14.9256 22.075 15.1749 22.185C15.4316 22.295 15.7103 22.35 16.0109 22.35ZM23.4637 24.121C22.9577 24.121 22.5067 23.9927 22.1107 23.736C21.722 23.472 21.414 23.1127 21.1867 22.658C20.9593 22.196 20.8457 21.6717 20.8457 21.085C20.8457 20.4983 20.9593 19.9777 21.1867 19.523C21.414 19.061 21.7257 18.698 22.1217 18.434C22.5177 18.17 22.9723 18.038 23.4857 18.038C23.7497 18.038 24.0027 18.0783 24.2447 18.159C24.4867 18.2397 24.7067 18.3497 24.9047 18.489C25.1027 18.6283 25.264 18.7897 25.3887 18.973C25.5133 19.149 25.5867 19.3323 25.6087 19.523L25.1907 19.622V15.86H26.9617V24H25.3227L25.2237 22.669L25.5757 22.724C25.5537 22.9073 25.4803 23.0833 25.3557 23.252C25.2383 23.4207 25.0843 23.571 24.8937 23.703C24.703 23.8277 24.483 23.9267 24.2337 24C23.9917 24.0807 23.735 24.121 23.4637 24.121ZM23.9147 22.658C24.186 22.658 24.4207 22.592 24.6187 22.46C24.8167 22.328 24.967 22.1447 25.0697 21.91C25.1797 21.6753 25.2347 21.4003 25.2347 21.085C25.2347 20.7623 25.1797 20.4837 25.0697 20.249C24.967 20.0143 24.8167 19.831 24.6187 19.699C24.4207 19.567 24.186 19.501 23.9147 19.501C23.6433 19.501 23.4087 19.567 23.2107 19.699C23.02 19.831 22.8697 20.0143 22.7597 20.249C22.6497 20.4837 22.5947 20.7623 22.5947 21.085C22.5947 21.4003 22.6497 21.6753 22.7597 21.91C22.8697 22.1447 23.02 22.328 23.2107 22.46C23.4087 22.592 23.6433 22.658 23.9147 22.658ZM31.1229 26.53C30.6463 26.53 30.1696 26.4603 29.6929 26.321C29.2236 26.1817 28.8423 26.002 28.5489 25.782L29.1649 24.55C29.3189 24.6527 29.4876 24.7407 29.6709 24.814C29.8616 24.8947 30.0596 24.957 30.2649 25.001C30.4703 25.045 30.6793 25.067 30.8919 25.067C31.2659 25.067 31.5703 25.012 31.8049 24.902C32.0396 24.792 32.2156 24.6233 32.3329 24.396C32.4503 24.176 32.5089 23.8973 32.5089 23.56V22.581L32.8499 22.636C32.7986 22.878 32.6703 23.098 32.4649 23.296C32.2669 23.494 32.0213 23.6553 31.7279 23.78C31.4346 23.8973 31.1229 23.956 30.7929 23.956C30.2649 23.956 29.7919 23.835 29.3739 23.593C28.9633 23.3437 28.6369 23.0027 28.3949 22.57C28.1603 22.13 28.0429 21.624 28.0429 21.052C28.0429 20.4653 28.1603 19.9483 28.3949 19.501C28.6296 19.0463 28.9523 18.6907 29.3629 18.434C29.7736 18.17 30.2356 18.038 30.7489 18.038C30.9689 18.038 31.1779 18.0637 31.3759 18.115C31.5813 18.1663 31.7683 18.236 31.9369 18.324C32.1129 18.4047 32.2669 18.5037 32.3989 18.621C32.5383 18.731 32.6483 18.852 32.7289 18.984C32.8169 19.116 32.8756 19.2517 32.9049 19.391L32.5419 19.479L32.6079 18.159H34.2799V23.527C34.2799 24.0037 34.2066 24.4253 34.0599 24.792C33.9206 25.166 33.7116 25.4813 33.4329 25.738C33.1616 26.002 32.8316 26.2 32.4429 26.332C32.0543 26.464 31.6143 26.53 31.1229 26.53ZM31.1669 22.592C31.4529 22.592 31.6986 22.5297 31.9039 22.405C32.1166 22.273 32.2779 22.0933 32.3879 21.866C32.5053 21.6387 32.5639 21.371 32.5639 21.063C32.5639 20.755 32.5053 20.4873 32.3879 20.26C32.2779 20.0253 32.1166 19.8457 31.9039 19.721C31.6986 19.589 31.4529 19.523 31.1669 19.523C30.8883 19.523 30.6463 19.589 30.4409 19.721C30.2356 19.8457 30.0743 20.0253 29.9569 20.26C29.8469 20.4873 29.7919 20.755 29.7919 21.063C29.7919 21.371 29.8469 21.6387 29.9569 21.866C30.0743 22.0933 30.2356 22.273 30.4409 22.405C30.6463 22.5297 30.8883 22.592 31.1669 22.592ZM38.5913 24.11C37.946 24.11 37.385 23.9817 36.9083 23.725C36.4317 23.461 36.0613 23.1053 35.7973 22.658C35.5333 22.2033 35.4013 21.6863 35.4013 21.107C35.4013 20.6597 35.4747 20.249 35.6213 19.875C35.768 19.501 35.9733 19.1783 36.2373 18.907C36.5013 18.6283 36.813 18.4157 37.1723 18.269C37.539 18.115 37.9387 18.038 38.3713 18.038C38.782 18.038 39.156 18.1113 39.4933 18.258C39.838 18.4047 40.135 18.61 40.3843 18.874C40.6337 19.138 40.8243 19.4497 40.9563 19.809C41.0883 20.1683 41.147 20.5607 41.1323 20.986L41.1213 21.459H36.4683L36.2153 20.469H39.6913L39.5043 20.678V20.458C39.4897 20.2747 39.431 20.1133 39.3283 19.974C39.233 19.8273 39.1047 19.7137 38.9433 19.633C38.782 19.5523 38.5987 19.512 38.3933 19.512C38.1073 19.512 37.8617 19.5707 37.6563 19.688C37.4583 19.798 37.308 19.963 37.2053 20.183C37.1027 20.3957 37.0513 20.6597 37.0513 20.975C37.0513 21.2977 37.1173 21.58 37.2493 21.822C37.3887 22.0567 37.5867 22.24 37.8433 22.372C38.1073 22.504 38.419 22.57 38.7783 22.57C39.0277 22.57 39.2477 22.5333 39.4383 22.46C39.6363 22.3867 39.849 22.262 40.0763 22.086L40.9013 23.252C40.674 23.45 40.432 23.6113 40.1753 23.736C39.9187 23.8607 39.6547 23.9523 39.3833 24.011C39.1193 24.077 38.8553 24.11 38.5913 24.11ZM42.2537 24V18.159H43.9257L43.9807 19.347L43.6287 19.479C43.7093 19.215 43.8523 18.9767 44.0577 18.764C44.2703 18.544 44.5233 18.368 44.8167 18.236C45.11 18.104 45.418 18.038 45.7407 18.038C46.1807 18.038 46.551 18.1297 46.8517 18.313C47.1523 18.489 47.3797 18.7567 47.5337 19.116C47.6877 19.468 47.7647 19.9007 47.7647 20.414V24H45.9937V20.557C45.9937 20.3223 45.9607 20.128 45.8947 19.974C45.8287 19.82 45.726 19.7063 45.5867 19.633C45.4547 19.5523 45.2897 19.5157 45.0917 19.523C44.9377 19.523 44.7947 19.5487 44.6627 19.6C44.5307 19.644 44.417 19.7137 44.3217 19.809C44.2263 19.897 44.1493 19.9997 44.0907 20.117C44.0393 20.2343 44.0137 20.3627 44.0137 20.502V24H43.1447C42.9393 24 42.7633 24 42.6167 24C42.47 24 42.349 24 42.2537 24ZM7.51162 38.11C7.09362 38.11 6.70495 38.055 6.34562 37.945C5.99362 37.835 5.67095 37.67 5.37762 37.45C5.09162 37.2227 4.83495 36.944 4.60762 36.614L5.42162 35.679C5.78095 36.1923 6.12562 36.548 6.45562 36.746C6.78562 36.944 7.17795 37.043 7.63262 37.043C7.91128 37.043 8.16428 36.999 8.39162 36.911C8.61895 36.823 8.79862 36.702 8.93062 36.548C9.06262 36.394 9.12862 36.218 9.12862 36.02C9.12862 35.888 9.10662 35.7633 9.06262 35.646C9.01862 35.5287 8.94895 35.4223 8.85362 35.327C8.76562 35.2317 8.64828 35.1437 8.50162 35.063C8.36228 34.9823 8.19728 34.9127 8.00662 34.854C7.81595 34.788 7.59595 34.733 7.34662 34.689C6.95062 34.6083 6.60595 34.502 6.31262 34.37C6.01928 34.238 5.77362 34.073 5.57562 33.875C5.37762 33.677 5.23095 33.4533 5.13562 33.204C5.04028 32.9473 4.99262 32.6613 4.99262 32.346C4.99262 32.038 5.05862 31.752 5.19062 31.488C5.32995 31.224 5.51695 30.9967 5.75162 30.806C5.99362 30.608 6.27595 30.4577 6.59862 30.355C6.92128 30.245 7.26962 30.19 7.64362 30.19C8.03962 30.19 8.40262 30.2413 8.73262 30.344C9.06262 30.4467 9.35595 30.6007 9.61262 30.806C9.86928 31.004 10.082 31.2497 10.2506 31.543L9.41462 32.368C9.26795 32.126 9.10295 31.9243 8.91962 31.763C8.73628 31.5943 8.53462 31.4697 8.31462 31.389C8.09462 31.301 7.85995 31.257 7.61062 31.257C7.32462 31.257 7.07528 31.301 6.86262 31.389C6.64995 31.477 6.48128 31.6017 6.35662 31.763C6.23928 31.917 6.18062 32.1003 6.18062 32.313C6.18062 32.467 6.20995 32.61 6.26862 32.742C6.32728 32.8667 6.41528 32.9803 6.53262 33.083C6.65728 33.1783 6.82228 33.2663 7.02762 33.347C7.23295 33.4203 7.47862 33.4863 7.76462 33.545C8.16795 33.633 8.52728 33.7467 8.84262 33.886C9.15795 34.018 9.42562 34.1757 9.64562 34.359C9.86562 34.5423 10.0306 34.7477 10.1406 34.975C10.258 35.2023 10.3166 35.448 10.3166 35.712C10.3166 36.2033 10.203 36.6287 9.97562 36.988C9.74828 37.3473 9.42562 37.626 9.00762 37.824C8.58962 38.0147 8.09095 38.11 7.51162 38.11ZM12.4289 38V30.751H13.5619V38H12.4289ZM11.2299 33.325V32.225H14.9039V33.325H11.2299ZM16.3976 38.121C16.1556 38.121 15.9686 38.0513 15.8366 37.912C15.7046 37.7653 15.6386 37.56 15.6386 37.296C15.6386 37.054 15.7082 36.856 15.8476 36.702C15.9869 36.548 16.1702 36.471 16.3976 36.471C16.6396 36.471 16.8266 36.5443 16.9586 36.691C17.0906 36.8303 17.1566 37.032 17.1566 37.296C17.1566 37.538 17.0869 37.736 16.9476 37.89C16.8082 38.044 16.6249 38.121 16.3976 38.121ZM21.8075 38V30.3H22.9735L25.7785 34.865L25.2175 34.854L28.0555 30.3H29.1555V38H27.9675V34.843C27.9675 34.183 27.9822 33.589 28.0115 33.061C28.0482 32.533 28.1068 32.0087 28.1875 31.488L28.3415 31.895L25.8225 35.789H25.0965L22.6545 31.939L22.7755 31.488C22.8562 31.9793 22.9112 32.4853 22.9405 33.006C22.9772 33.5193 22.9955 34.1317 22.9955 34.843V38H21.8075ZM33.2503 38.11C32.7737 38.11 32.3373 37.978 31.9413 37.714C31.5527 37.45 31.241 37.0907 31.0063 36.636C30.7717 36.1813 30.6543 35.668 30.6543 35.096C30.6543 34.5167 30.7717 34.0033 31.0063 33.556C31.2483 33.1013 31.571 32.7457 31.9743 32.489C32.385 32.2323 32.8433 32.104 33.3493 32.104C33.65 32.104 33.925 32.148 34.1743 32.236C34.4237 32.324 34.64 32.4487 34.8233 32.61C35.014 32.764 35.168 32.9437 35.2853 33.149C35.41 33.3543 35.487 33.5743 35.5163 33.809L35.2633 33.721V32.225H36.4073V38H35.2633V36.625L35.5273 36.548C35.4833 36.746 35.3917 36.9403 35.2523 37.131C35.1203 37.3143 34.948 37.4793 34.7353 37.626C34.53 37.7727 34.299 37.89 34.0423 37.978C33.793 38.066 33.529 38.11 33.2503 38.11ZM33.5473 37.065C33.892 37.065 34.1963 36.9807 34.4603 36.812C34.7243 36.6433 34.9297 36.4123 35.0763 36.119C35.2303 35.8183 35.3073 35.4773 35.3073 35.096C35.3073 34.722 35.2303 34.3883 35.0763 34.095C34.9297 33.8017 34.7243 33.5707 34.4603 33.402C34.1963 33.2333 33.892 33.149 33.5473 33.149C33.21 33.149 32.9093 33.2333 32.6453 33.402C32.3887 33.5707 32.1833 33.8017 32.0293 34.095C31.8827 34.3883 31.8093 34.722 31.8093 35.096C31.8093 35.4773 31.8827 35.8183 32.0293 36.119C32.1833 36.4123 32.3887 36.6433 32.6453 36.812C32.9093 36.9807 33.21 37.065 33.5473 37.065ZM37.9893 38V32.225H39.1333V34.04L39.0233 33.6C39.1039 33.3213 39.2396 33.0683 39.4303 32.841C39.6283 32.6137 39.8519 32.434 40.1013 32.302C40.3579 32.17 40.6219 32.104 40.8933 32.104C41.0179 32.104 41.1353 32.115 41.2453 32.137C41.3626 32.159 41.4543 32.1847 41.5203 32.214L41.2233 33.446C41.1353 33.4093 41.0363 33.38 40.9263 33.358C40.8236 33.3287 40.7209 33.314 40.6183 33.314C40.4203 33.314 40.2296 33.3543 40.0463 33.435C39.8703 33.5083 39.7126 33.6147 39.5733 33.754C39.4413 33.886 39.3349 34.0437 39.2543 34.227C39.1736 34.403 39.1333 34.5973 39.1333 34.81V38H37.9893ZM43.3938 40.53L44.5598 37.835L44.5708 38.737L41.6888 32.225H43.0088L44.8128 36.471C44.8495 36.5443 44.8935 36.658 44.9448 36.812C44.9961 36.9587 45.0401 37.1053 45.0768 37.252L44.7908 37.318C44.8495 37.164 44.9045 37.01 44.9558 36.856C45.0145 36.702 45.0695 36.548 45.1208 36.394L46.6278 32.225H47.9698L45.5938 38L44.6148 40.53H43.3938ZM48.6634 32.775L48.2454 32.269C48.5314 32.137 48.7661 31.9867 48.9494 31.818C49.1327 31.6493 49.2244 31.5027 49.2244 31.378C49.2244 31.2827 49.1841 31.1983 49.1034 31.125C49.0227 31.0443 48.9494 30.9783 48.8834 30.927C48.7221 30.795 48.6121 30.685 48.5534 30.597C48.5021 30.509 48.4764 30.4173 48.4764 30.322C48.4764 30.146 48.5387 30.0067 48.6634 29.904C48.7881 29.794 48.9494 29.739 49.1474 29.739C49.3527 29.739 49.5361 29.794 49.6974 29.904C49.8661 30.0067 49.9981 30.1497 50.0934 30.333C50.1887 30.5163 50.2364 30.7327 50.2364 30.982C50.2364 31.1727 50.1961 31.3597 50.1154 31.543C50.0347 31.7263 49.9211 31.8987 49.7744 32.06C49.6351 32.2213 49.4701 32.3643 49.2794 32.489C49.0887 32.6137 48.8834 32.709 48.6634 32.775ZM53.3957 38.11C52.9117 38.11 52.4754 38.0257 52.0867 37.857C51.698 37.6883 51.3754 37.439 51.1187 37.109L51.8887 36.449C52.1087 36.7057 52.347 36.8927 52.6037 37.01C52.8677 37.12 53.1647 37.175 53.4947 37.175C53.6267 37.175 53.7477 37.1603 53.8577 37.131C53.975 37.0943 54.074 37.043 54.1547 36.977C54.2427 36.911 54.3087 36.834 54.3527 36.746C54.3967 36.6507 54.4187 36.548 54.4187 36.438C54.4187 36.2473 54.349 36.0933 54.2097 35.976C54.1364 35.9247 54.019 35.8697 53.8577 35.811C53.7037 35.745 53.502 35.679 53.2527 35.613C52.8274 35.503 52.479 35.3783 52.2077 35.239C51.9364 35.0997 51.7274 34.942 51.5807 34.766C51.4707 34.6267 51.39 34.4763 51.3387 34.315C51.2874 34.1463 51.2617 33.963 51.2617 33.765C51.2617 33.523 51.313 33.303 51.4157 33.105C51.5257 32.8997 51.6724 32.7237 51.8557 32.577C52.0464 32.423 52.2664 32.3057 52.5157 32.225C52.7724 32.1443 53.0437 32.104 53.3297 32.104C53.601 32.104 53.8687 32.1407 54.1327 32.214C54.404 32.2873 54.6534 32.3937 54.8807 32.533C55.108 32.6723 55.2987 32.8373 55.4527 33.028L54.8037 33.743C54.6644 33.6037 54.5104 33.4827 54.3417 33.38C54.1804 33.27 54.0154 33.1857 53.8467 33.127C53.678 33.0683 53.524 33.039 53.3847 33.039C53.2307 33.039 53.0914 33.0537 52.9667 33.083C52.842 33.1123 52.7357 33.1563 52.6477 33.215C52.567 33.2737 52.5047 33.347 52.4607 33.435C52.4167 33.523 52.3947 33.622 52.3947 33.732C52.402 33.8273 52.424 33.919 52.4607 34.007C52.5047 34.0877 52.5634 34.1573 52.6367 34.216C52.7174 34.2747 52.8384 34.337 52.9997 34.403C53.161 34.469 53.3664 34.5313 53.6157 34.59C53.9824 34.6853 54.283 34.7917 54.5177 34.909C54.7597 35.019 54.9504 35.1473 55.0897 35.294C55.2364 35.4333 55.339 35.5947 55.3977 35.778C55.4564 35.9613 55.4857 36.1667 55.4857 36.394C55.4857 36.724 55.3904 37.021 55.1997 37.285C55.0164 37.5417 54.767 37.7433 54.4517 37.89C54.1364 38.0367 53.7844 38.11 53.3957 38.11Z" fill="black"/>
<path d="M54 4V11M54 28V11M62 11H54M54 11H46" stroke="#484848" stroke-width="4"/>
</svg>
