<svg width="85" height="84" viewBox="0 0 85 84" fill="none" xmlns="http://www.w3.org/2000/svg">
<path d="M26 0H58L66.5 36.5L85 57V84H0.5V57L19 36.5L26 0Z" fill="#FF0000" fill-opacity="0.31"/>
<path d="M45.0657 4.5H39.9343C39.5349 4.5 39.2967 4.94507 39.5182 5.27735L40.916 7.37404C40.9708 7.45617 41 7.55268 41 7.65139V9V13C41 13.2761 40.7761 13.5 40.5 13.5H36.5H33.6514C33.5527 13.5 33.4562 13.4708 33.374 13.416L31.2773 12.0182C30.9451 11.7967 30.5 12.0349 30.5 12.4343V17.5657C30.5 17.9651 30.9451 18.2033 31.2774 17.9818L33.374 16.584C33.4562 16.5292 33.5527 16.5 33.6514 16.5H36.5H40.5C40.7761 16.5 41 16.7239 41 17V20.5V36.382C41 36.4596 40.9819 36.5361 40.9472 36.6056L39.8618 38.7764C39.6956 39.1088 39.9373 39.5 40.309 39.5H44.691C45.0627 39.5 45.3044 39.1088 45.1382 38.7764L44.0528 36.6056C44.0181 36.5361 44 36.4596 44 36.382V20.5V17C44 16.7239 44.2239 16.5 44.5 16.5H48.5H51.3486C51.4473 16.5 51.5438 16.5292 51.626 16.584L53.7227 17.9818C54.0549 18.2033 54.5 17.9651 54.5 17.5657V12.4343C54.5 12.0349 54.0549 11.7967 53.7227 12.0182L51.626 13.416C51.5438 13.4708 51.4473 13.5 51.3486 13.5H48.5H44.5C44.2239 13.5 44 13.2761 44 13V9V7.65139C44 7.55268 44.0292 7.45617 44.084 7.37404L45.4818 5.27735C45.7033 4.94507 45.4651 4.5 45.0657 4.5Z" fill="#4F4533"/>
<path d="M41 9V13C41 13.2761 40.7761 13.5 40.5 13.5H36.5M41 9V7.65139C41 7.55268 40.9708 7.45617 40.916 7.37404L39.5182 5.27735C39.2967 4.94507 39.5349 4.5 39.9343 4.5H45.0657C45.4651 4.5 45.7033 4.94507 45.4818 5.27735L44.084 7.37404C44.0292 7.45617 44 7.55268 44 7.65139V9M41 9C38.5 9 36.5 11 36.5 13.5M36.5 13.5H33.6514C33.5527 13.5 33.4562 13.4708 33.374 13.416L31.2773 12.0182C30.9451 11.7967 30.5 12.0349 30.5 12.4343V17.5657C30.5 17.9651 30.9451 18.2033 31.2774 17.9818L33.374 16.584C33.4562 16.5292 33.5527 16.5 33.6514 16.5H36.5M44 9V13C44 13.2761 44.2239 13.5 44.5 13.5H48.5M44 9C46.5 9 48.5 11 48.5 13.5M48.5 13.5H51.3486C51.4473 13.5 51.5438 13.4708 51.626 13.416L53.7227 12.0182C54.0549 11.7967 54.5 12.0349 54.5 12.4343V17.5657C54.5 17.9651 54.0549 18.2033 53.7226 17.9818L51.626 16.584C51.5438 16.5292 51.4473 16.5 51.3486 16.5H48.5M48.5 16.5H44.5C44.2239 16.5 44 16.7239 44 17V20.5M48.5 16.5C48.5 19 46.5 20.5 44 20.5M44 20.5V36.382C44 36.4596 44.0181 36.5361 44.0528 36.6056L45.1382 38.7764C45.3044 39.1088 45.0627 39.5 44.691 39.5H40.309C39.9373 39.5 39.6956 39.1088 39.8618 38.7764L40.9472 36.6056C40.9819 36.5361 41 36.4596 41 36.382V20.5M41 20.5V17C41 16.7239 40.7761 16.5 40.5 16.5H36.5M41 20.5C38.5 20.5 36.5 19 36.5 16.5" stroke="black"/>
<path d="M21.5701 52V44.3H23.2421L26.0471 48.865L24.8481 48.854L27.6861 44.3H29.2921V52H27.4771V49.602C27.4771 48.942 27.4917 48.348 27.5211 47.82C27.5577 47.292 27.6164 46.7677 27.6971 46.247L27.9061 46.819L25.7721 50.13H25.0461L22.9561 46.841L23.1651 46.247C23.2457 46.7383 23.3007 47.2443 23.3301 47.765C23.3667 48.2783 23.3851 48.8907 23.3851 49.602V52H21.5701ZM31.1393 52V46.159H32.8993V52H31.1393ZM32.0193 45.004C31.6893 45.004 31.4289 44.927 31.2383 44.773C31.0549 44.6117 30.9633 44.3843 30.9633 44.091C30.9633 43.827 31.0586 43.6107 31.2493 43.442C31.4399 43.2733 31.6966 43.189 32.0193 43.189C32.3493 43.189 32.6059 43.2697 32.7893 43.431C32.9726 43.585 33.0643 43.805 33.0643 44.091C33.0643 44.3623 32.9689 44.5823 32.7783 44.751C32.5949 44.9197 32.3419 45.004 32.0193 45.004ZM36.764 52.121C36.258 52.121 35.807 51.9927 35.411 51.736C35.0223 51.472 34.7143 51.1127 34.487 50.658C34.2596 50.196 34.146 49.6717 34.146 49.085C34.146 48.4983 34.2596 47.9777 34.487 47.523C34.7143 47.061 35.026 46.698 35.422 46.434C35.818 46.17 36.2726 46.038 36.786 46.038C37.05 46.038 37.303 46.0783 37.545 46.159C37.787 46.2397 38.007 46.3497 38.205 46.489C38.403 46.6283 38.5643 46.7897 38.689 46.973C38.8136 47.149 38.887 47.3323 38.909 47.523L38.491 47.622V43.86H40.262V52H38.623L38.524 50.669L38.876 50.724C38.854 50.9073 38.7806 51.0833 38.656 51.252C38.5386 51.4207 38.3846 51.571 38.194 51.703C38.0033 51.8277 37.7833 51.9267 37.534 52C37.292 52.0807 37.0353 52.121 36.764 52.121ZM37.215 50.658C37.4863 50.658 37.721 50.592 37.919 50.46C38.117 50.328 38.2673 50.1447 38.37 49.91C38.48 49.6753 38.535 49.4003 38.535 49.085C38.535 48.7623 38.48 48.4837 38.37 48.249C38.2673 48.0143 38.117 47.831 37.919 47.699C37.721 47.567 37.4863 47.501 37.215 47.501C36.9436 47.501 36.709 47.567 36.511 47.699C36.3203 47.831 36.17 48.0143 36.06 48.249C35.95 48.4837 35.895 48.7623 35.895 49.085C35.895 49.4003 35.95 49.6753 36.06 49.91C36.17 50.1447 36.3203 50.328 36.511 50.46C36.709 50.592 36.9436 50.658 37.215 50.658ZM43.5432 52L41.1012 46.159H43.0482L44.5002 50.526L44.0712 50.57L45.5672 46.159H47.4922L44.9292 52H43.5432ZM50.4053 52.099C49.9139 52.099 49.4739 51.9707 49.0853 51.714C48.7039 51.45 48.3996 51.0907 48.1723 50.636C47.9449 50.174 47.8313 49.6533 47.8313 49.074C47.8313 48.48 47.9449 47.9557 48.1723 47.501C48.3996 47.0463 48.7113 46.6907 49.1073 46.434C49.5033 46.17 49.9543 46.038 50.4603 46.038C50.7389 46.038 50.9919 46.0783 51.2193 46.159C51.4539 46.2397 51.6593 46.3533 51.8353 46.5C52.0113 46.6393 52.1616 46.8043 52.2863 46.995C52.4109 47.1783 52.5026 47.3763 52.5613 47.589L52.1983 47.545V46.159H53.9473V52H52.1653V50.592L52.5613 50.581C52.5026 50.7863 52.4073 50.9807 52.2753 51.164C52.1433 51.3473 51.9819 51.5087 51.7913 51.648C51.6006 51.7873 51.3879 51.8973 51.1533 51.978C50.9186 52.0587 50.6693 52.099 50.4053 52.099ZM50.8893 50.614C51.1606 50.614 51.3953 50.5517 51.5933 50.427C51.7913 50.3023 51.9453 50.1263 52.0553 49.899C52.1653 49.6643 52.2203 49.3893 52.2203 49.074C52.2203 48.7587 52.1653 48.4873 52.0553 48.26C51.9453 48.0253 51.7913 47.8457 51.5933 47.721C51.3953 47.589 51.1606 47.523 50.8893 47.523C50.6253 47.523 50.3943 47.589 50.1963 47.721C50.0056 47.8457 49.8553 48.0253 49.7453 48.26C49.6353 48.4873 49.5803 48.7587 49.5803 49.074C49.5803 49.3893 49.6353 49.6643 49.7453 49.899C49.8553 50.1263 50.0056 50.3023 50.1963 50.427C50.3943 50.5517 50.6253 50.614 50.8893 50.614ZM55.5112 52V43.86H57.2712V52H55.5112ZM61.5166 52.11C60.8713 52.11 60.3103 51.9817 59.8336 51.725C59.357 51.461 58.9866 51.1053 58.7226 50.658C58.4586 50.2033 58.3266 49.6863 58.3266 49.107C58.3266 48.6597 58.4 48.249 58.5466 47.875C58.6933 47.501 58.8986 47.1783 59.1626 46.907C59.4266 46.6283 59.7383 46.4157 60.0976 46.269C60.4643 46.115 60.864 46.038 61.2966 46.038C61.7073 46.038 62.0813 46.1113 62.4186 46.258C62.7633 46.4047 63.0603 46.61 63.3096 46.874C63.559 47.138 63.7496 47.4497 63.8816 47.809C64.0136 48.1683 64.0723 48.5607 64.0576 48.986L64.0466 49.459H59.3936L59.1406 48.469H62.6166L62.4296 48.678V48.458C62.415 48.2747 62.3563 48.1133 62.2536 47.974C62.1583 47.8273 62.03 47.7137 61.8686 47.633C61.7073 47.5523 61.524 47.512 61.3186 47.512C61.0326 47.512 60.787 47.5707 60.5816 47.688C60.3836 47.798 60.2333 47.963 60.1306 48.183C60.028 48.3957 59.9766 48.6597 59.9766 48.975C59.9766 49.2977 60.0426 49.58 60.1746 49.822C60.314 50.0567 60.512 50.24 60.7686 50.372C61.0326 50.504 61.3443 50.57 61.7036 50.57C61.953 50.57 62.173 50.5333 62.3636 50.46C62.5616 50.3867 62.7743 50.262 63.0016 50.086L63.8266 51.252C63.5993 51.45 63.3573 51.6113 63.1006 51.736C62.844 51.8607 62.58 51.9523 62.3086 52.011C62.0446 52.077 61.7806 52.11 61.5166 52.11ZM9.80654 66.11C9.38854 66.11 8.99987 66.055 8.64054 65.945C8.28854 65.835 7.96587 65.67 7.67254 65.45C7.38654 65.2227 7.12987 64.944 6.90254 64.614L7.71654 63.679C8.07587 64.1923 8.42054 64.548 8.75054 64.746C9.08054 64.944 9.47287 65.043 9.92754 65.043C10.2062 65.043 10.4592 64.999 10.6865 64.911C10.9139 64.823 11.0935 64.702 11.2255 64.548C11.3575 64.394 11.4235 64.218 11.4235 64.02C11.4235 63.888 11.4015 63.7633 11.3575 63.646C11.3135 63.5287 11.2439 63.4223 11.1485 63.327C11.0605 63.2317 10.9432 63.1437 10.7965 63.063C10.6572 62.9823 10.4922 62.9127 10.3015 62.854C10.1109 62.788 9.89087 62.733 9.64154 62.689C9.24554 62.6083 8.90087 62.502 8.60754 62.37C8.31421 62.238 8.06854 62.073 7.87054 61.875C7.67254 61.677 7.52587 61.4533 7.43054 61.204C7.33521 60.9473 7.28754 60.6613 7.28754 60.346C7.28754 60.038 7.35354 59.752 7.48554 59.488C7.62487 59.224 7.81187 58.9967 8.04654 58.806C8.28854 58.608 8.57087 58.4577 8.89354 58.355C9.21621 58.245 9.56454 58.19 9.93854 58.19C10.3345 58.19 10.6975 58.2413 11.0275 58.344C11.3575 58.4467 11.6509 58.6007 11.9075 58.806C12.1642 59.004 12.3769 59.2497 12.5455 59.543L11.7095 60.368C11.5629 60.126 11.3979 59.9243 11.2145 59.763C11.0312 59.5943 10.8295 59.4697 10.6095 59.389C10.3895 59.301 10.1549 59.257 9.90554 59.257C9.61954 59.257 9.37021 59.301 9.15754 59.389C8.94487 59.477 8.77621 59.6017 8.65154 59.763C8.53421 59.917 8.47554 60.1003 8.47554 60.313C8.47554 60.467 8.50487 60.61 8.56354 60.742C8.62221 60.8667 8.71021 60.9803 8.82754 61.083C8.95221 61.1783 9.11721 61.2663 9.32254 61.347C9.52787 61.4203 9.77354 61.4863 10.0595 61.545C10.4629 61.633 10.8222 61.7467 11.1375 61.886C11.4529 62.018 11.7205 62.1757 11.9405 62.359C12.1605 62.5423 12.3255 62.7477 12.4355 62.975C12.5529 63.2023 12.6115 63.448 12.6115 63.712C12.6115 64.2033 12.4979 64.6287 12.2705 64.988C12.0432 65.3473 11.7205 65.626 11.3025 65.824C10.8845 66.0147 10.3859 66.11 9.80654 66.11ZM14.7238 66V58.751H15.8568V66H14.7238ZM13.5248 61.325V60.225H17.1988V61.325H13.5248ZM18.6925 66.121C18.4505 66.121 18.2635 66.0513 18.1315 65.912C17.9995 65.7653 17.9335 65.56 17.9335 65.296C17.9335 65.054 18.0031 64.856 18.1425 64.702C18.2818 64.548 18.4651 64.471 18.6925 64.471C18.9345 64.471 19.1215 64.5443 19.2535 64.691C19.3855 64.8303 19.4515 65.032 19.4515 65.296C19.4515 65.538 19.3818 65.736 19.2425 65.89C19.1031 66.044 18.9198 66.121 18.6925 66.121ZM25.5654 66V59.444H23.4094V58.3H28.9754V59.444H26.7534V66H25.5654ZM30.1543 66V57.86H31.2873V61.413L31.0893 61.545C31.1626 61.2883 31.3056 61.0537 31.5183 60.841C31.731 60.621 31.984 60.445 32.2773 60.313C32.5706 60.1737 32.8713 60.104 33.1793 60.104C33.6193 60.104 33.986 60.192 34.2793 60.368C34.5726 60.5367 34.7926 60.797 34.9393 61.149C35.086 61.501 35.1593 61.9447 35.1593 62.48V66H34.0263V62.557C34.0263 62.227 33.9823 61.9557 33.8943 61.743C33.8063 61.523 33.6706 61.3653 33.4873 61.27C33.304 61.1673 33.0766 61.1233 32.8053 61.138C32.5853 61.138 32.3836 61.1747 32.2003 61.248C32.017 61.314 31.8556 61.4093 31.7163 61.534C31.5843 61.6587 31.478 61.8053 31.3973 61.974C31.324 62.1353 31.2873 62.3113 31.2873 62.502V66H30.7263C30.631 66 30.5356 66 30.4403 66C30.345 66 30.2496 66 30.1543 66ZM39.3913 66.11C38.7973 66.11 38.2693 65.9853 37.8073 65.736C37.3526 65.4793 36.9933 65.131 36.7293 64.691C36.4726 64.251 36.3443 63.745 36.3443 63.173C36.3443 62.7183 36.4176 62.304 36.5643 61.93C36.711 61.556 36.9126 61.2333 37.1693 60.962C37.4333 60.6833 37.745 60.4707 38.1043 60.324C38.471 60.17 38.867 60.093 39.2923 60.093C39.6663 60.093 40.0146 60.1663 40.3373 60.313C40.66 60.4523 40.9386 60.6467 41.1733 60.896C41.4153 61.1453 41.5986 61.4423 41.7233 61.787C41.8553 62.1243 41.9176 62.4947 41.9103 62.898L41.8993 63.382H37.1803L36.9273 62.48H40.9203L40.7553 62.667V62.403C40.7333 62.161 40.6526 61.9447 40.5133 61.754C40.374 61.5633 40.198 61.413 39.9853 61.303C39.7726 61.193 39.5416 61.138 39.2923 61.138C38.8963 61.138 38.5626 61.215 38.2913 61.369C38.02 61.5157 37.8146 61.7357 37.6753 62.029C37.536 62.315 37.4663 62.6707 37.4663 63.096C37.4663 63.4993 37.5506 63.8513 37.7193 64.152C37.888 64.4453 38.1263 64.6727 38.4343 64.834C38.7423 64.9953 39.098 65.076 39.5013 65.076C39.7873 65.076 40.0513 65.0283 40.2933 64.933C40.5426 64.8377 40.8103 64.6653 41.0963 64.416L41.6683 65.219C41.4923 65.395 41.276 65.549 41.0193 65.681C40.77 65.813 40.5023 65.9193 40.2163 66C39.9376 66.0733 39.6626 66.11 39.3913 66.11ZM43.1416 66V60.225H44.2856V62.04L44.1756 61.6C44.2563 61.3213 44.3919 61.0683 44.5826 60.841C44.7806 60.6137 45.0043 60.434 45.2536 60.302C45.5103 60.17 45.7743 60.104 46.0456 60.104C46.1703 60.104 46.2876 60.115 46.3976 60.137C46.5149 60.159 46.6066 60.1847 46.6726 60.214L46.3756 61.446C46.2876 61.4093 46.1886 61.38 46.0786 61.358C45.9759 61.3287 45.8733 61.314 45.7706 61.314C45.5726 61.314 45.3819 61.3543 45.1986 61.435C45.0226 61.5083 44.8649 61.6147 44.7256 61.754C44.5936 61.886 44.4873 62.0437 44.4066 62.227C44.3259 62.403 44.2856 62.5973 44.2856 62.81V66H43.1416ZM50.0261 66.11C49.4321 66.11 48.9041 65.9853 48.4421 65.736C47.9874 65.4793 47.6281 65.131 47.3641 64.691C47.1074 64.251 46.9791 63.745 46.9791 63.173C46.9791 62.7183 47.0524 62.304 47.1991 61.93C47.3457 61.556 47.5474 61.2333 47.8041 60.962C48.0681 60.6833 48.3797 60.4707 48.7391 60.324C49.1057 60.17 49.5017 60.093 49.9271 60.093C50.3011 60.093 50.6494 60.1663 50.9721 60.313C51.2947 60.4523 51.5734 60.6467 51.8081 60.896C52.0501 61.1453 52.2334 61.4423 52.3581 61.787C52.4901 62.1243 52.5524 62.4947 52.5451 62.898L52.5341 63.382H47.8151L47.5621 62.48H51.5551L51.3901 62.667V62.403C51.3681 62.161 51.2874 61.9447 51.1481 61.754C51.0087 61.5633 50.8327 61.413 50.6201 61.303C50.4074 61.193 50.1764 61.138 49.9271 61.138C49.5311 61.138 49.1974 61.215 48.9261 61.369C48.6547 61.5157 48.4494 61.7357 48.3101 62.029C48.1707 62.315 48.1011 62.6707 48.1011 63.096C48.1011 63.4993 48.1854 63.8513 48.3541 64.152C48.5227 64.4453 48.7611 64.6727 49.0691 64.834C49.3771 64.9953 49.7327 65.076 50.1361 65.076C50.4221 65.076 50.6861 65.0283 50.9281 64.933C51.1774 64.8377 51.4451 64.6653 51.7311 64.416L52.3031 65.219C52.1271 65.395 51.9107 65.549 51.6541 65.681C51.4047 65.813 51.1371 65.9193 50.8511 66C50.5724 66.0733 50.2974 66.11 50.0261 66.11ZM55.7014 66.11C55.2174 66.11 54.781 66.0257 54.3924 65.857C54.0037 65.6883 53.681 65.439 53.4244 65.109L54.1944 64.449C54.4144 64.7057 54.6527 64.8927 54.9094 65.01C55.1734 65.12 55.4704 65.175 55.8004 65.175C55.9324 65.175 56.0534 65.1603 56.1634 65.131C56.2807 65.0943 56.3797 65.043 56.4604 64.977C56.5484 64.911 56.6144 64.834 56.6584 64.746C56.7024 64.6507 56.7244 64.548 56.7244 64.438C56.7244 64.2473 56.6547 64.0933 56.5154 63.976C56.442 63.9247 56.3247 63.8697 56.1634 63.811C56.0094 63.745 55.8077 63.679 55.5584 63.613C55.133 63.503 54.7847 63.3783 54.5134 63.239C54.242 63.0997 54.033 62.942 53.8864 62.766C53.7764 62.6267 53.6957 62.4763 53.6444 62.315C53.593 62.1463 53.5674 61.963 53.5674 61.765C53.5674 61.523 53.6187 61.303 53.7214 61.105C53.8314 60.8997 53.978 60.7237 54.1614 60.577C54.352 60.423 54.572 60.3057 54.8214 60.225C55.078 60.1443 55.3494 60.104 55.6354 60.104C55.9067 60.104 56.1744 60.1407 56.4384 60.214C56.7097 60.2873 56.959 60.3937 57.1864 60.533C57.4137 60.6723 57.6044 60.8373 57.7584 61.028L57.1094 61.743C56.97 61.6037 56.816 61.4827 56.6474 61.38C56.486 61.27 56.321 61.1857 56.1524 61.127C55.9837 61.0683 55.8297 61.039 55.6904 61.039C55.5364 61.039 55.397 61.0537 55.2724 61.083C55.1477 61.1123 55.0414 61.1563 54.9534 61.215C54.8727 61.2737 54.8104 61.347 54.7664 61.435C54.7224 61.523 54.7004 61.622 54.7004 61.732C54.7077 61.8273 54.7297 61.919 54.7664 62.007C54.8104 62.0877 54.869 62.1573 54.9424 62.216C55.023 62.2747 55.144 62.337 55.3054 62.403C55.4667 62.469 55.672 62.5313 55.9214 62.59C56.288 62.6853 56.5887 62.7917 56.8234 62.909C57.0654 63.019 57.256 63.1473 57.3954 63.294C57.542 63.4333 57.6447 63.5947 57.7034 63.778C57.762 63.9613 57.7914 64.1667 57.7914 64.394C57.7914 64.724 57.696 65.021 57.5054 65.285C57.322 65.5417 57.0727 65.7433 56.7574 65.89C56.442 66.0367 56.09 66.11 55.7014 66.11ZM61.735 66.11C61.141 66.11 60.613 65.9853 60.151 65.736C59.6964 65.4793 59.337 65.131 59.073 64.691C58.8164 64.251 58.688 63.745 58.688 63.173C58.688 62.7183 58.7614 62.304 58.908 61.93C59.0547 61.556 59.2564 61.2333 59.513 60.962C59.777 60.6833 60.0887 60.4707 60.448 60.324C60.8147 60.17 61.2107 60.093 61.636 60.093C62.01 60.093 62.3584 60.1663 62.681 60.313C63.0037 60.4523 63.2824 60.6467 63.517 60.896C63.759 61.1453 63.9424 61.4423 64.067 61.787C64.199 62.1243 64.2614 62.4947 64.254 62.898L64.243 63.382H59.524L59.271 62.48H63.264L63.099 62.667V62.403C63.077 62.161 62.9964 61.9447 62.857 61.754C62.7177 61.5633 62.5417 61.413 62.329 61.303C62.1164 61.193 61.8854 61.138 61.636 61.138C61.24 61.138 60.9064 61.215 60.635 61.369C60.3637 61.5157 60.1584 61.7357 60.019 62.029C59.8797 62.315 59.81 62.6707 59.81 63.096C59.81 63.4993 59.8944 63.8513 60.063 64.152C60.2317 64.4453 60.47 64.6727 60.778 64.834C61.086 64.9953 61.4417 65.076 61.845 65.076C62.131 65.076 62.395 65.0283 62.637 64.933C62.8864 64.8377 63.154 64.6653 63.44 64.416L64.012 65.219C63.836 65.395 63.6197 65.549 63.363 65.681C63.1137 65.813 62.846 65.9193 62.56 66C62.2814 66.0733 62.0064 66.11 61.735 66.11ZM71.1644 66.11C70.5997 66.11 70.0937 65.9817 69.6464 65.725C69.2064 65.461 68.858 65.1053 68.6014 64.658C68.3447 64.2033 68.2164 63.6863 68.2164 63.107C68.2164 62.5277 68.3447 62.0143 68.6014 61.567C68.858 61.1123 69.2064 60.7567 69.6464 60.5C70.0937 60.236 70.5997 60.104 71.1644 60.104C71.7217 60.104 72.2204 60.236 72.6604 60.5C73.1077 60.7567 73.4597 61.1123 73.7164 61.567C73.973 62.0143 74.1014 62.5277 74.1014 63.107C74.1014 63.6863 73.973 64.2033 73.7164 64.658C73.4597 65.1053 73.1077 65.461 72.6604 65.725C72.2204 65.9817 71.7217 66.11 71.1644 66.11ZM71.1644 65.076C71.509 65.076 71.817 64.9917 72.0884 64.823C72.3597 64.647 72.5724 64.4123 72.7264 64.119C72.8804 63.8183 72.9537 63.481 72.9464 63.107C72.9537 62.7257 72.8804 62.3883 72.7264 62.095C72.5724 61.7943 72.3597 61.5597 72.0884 61.391C71.817 61.2223 71.509 61.138 71.1644 61.138C70.8197 61.138 70.508 61.226 70.2294 61.402C69.958 61.5707 69.7454 61.8053 69.5914 62.106C69.4374 62.3993 69.364 62.733 69.3714 63.107C69.364 63.481 69.4374 63.8183 69.5914 64.119C69.7454 64.4123 69.958 64.647 70.2294 64.823C70.508 64.9917 70.8197 65.076 71.1644 65.076ZM75.7481 66V59.576C75.7481 59.246 75.8214 58.9527 75.9681 58.696C76.1148 58.4393 76.3164 58.2377 76.5731 58.091C76.8298 57.9443 77.1268 57.871 77.4641 57.871C77.6988 57.871 77.9188 57.915 78.1241 58.003C78.3294 58.091 78.4944 58.2083 78.6191 58.355L78.2341 59.224C78.1388 59.136 78.0324 59.0663 77.9151 59.015C77.8051 58.9563 77.6988 58.927 77.5961 58.927C77.4421 58.927 77.3101 58.9527 77.2001 59.004C77.0974 59.048 77.0204 59.1213 76.9691 59.224C76.9178 59.3193 76.8921 59.4367 76.8921 59.576V66H76.3201C76.2248 66 76.1294 66 76.0341 66C75.9388 66 75.8434 66 75.7481 66ZM74.8241 61.369V60.324H78.2561V61.369H74.8241ZM3.90104 80V72.751H5.03404V80H3.90104ZM2.70204 75.325V74.225H6.37604V75.325H2.70204ZM7.40772 80V71.86H8.54072V75.413L8.34272 75.545C8.41606 75.2883 8.55906 75.0537 8.77172 74.841C8.98439 74.621 9.23739 74.445 9.53072 74.313C9.82406 74.1737 10.1247 74.104 10.4327 74.104C10.8727 74.104 11.2394 74.192 11.5327 74.368C11.8261 74.5367 12.0461 74.797 12.1927 75.149C12.3394 75.501 12.4127 75.9447 12.4127 76.48V80H11.2797V76.557C11.2797 76.227 11.2357 75.9557 11.1477 75.743C11.0597 75.523 10.9241 75.3653 10.7407 75.27C10.5574 75.1673 10.3301 75.1233 10.0587 75.138C9.83872 75.138 9.63706 75.1747 9.45372 75.248C9.27039 75.314 9.10906 75.4093 8.96972 75.534C8.83772 75.6587 8.73139 75.8053 8.65072 75.974C8.57739 76.1353 8.54072 76.3113 8.54072 76.502V80H7.97972C7.88439 80 7.78906 80 7.69372 80C7.59839 80 7.50306 80 7.40772 80ZM16.6447 80.11C16.0507 80.11 15.5227 79.9853 15.0607 79.736C14.606 79.4793 14.2467 79.131 13.9827 78.691C13.726 78.251 13.5977 77.745 13.5977 77.173C13.5977 76.7183 13.671 76.304 13.8177 75.93C13.9644 75.556 14.166 75.2333 14.4227 74.962C14.6867 74.6833 14.9984 74.4707 15.3577 74.324C15.7244 74.17 16.1204 74.093 16.5457 74.093C16.9197 74.093 17.268 74.1663 17.5907 74.313C17.9134 74.4523 18.192 74.6467 18.4267 74.896C18.6687 75.1453 18.852 75.4423 18.9767 75.787C19.1087 76.1243 19.171 76.4947 19.1637 76.898L19.1527 77.382H14.4337L14.1807 76.48H18.1737L18.0087 76.667V76.403C17.9867 76.161 17.906 75.9447 17.7667 75.754C17.6274 75.5633 17.4514 75.413 17.2387 75.303C17.026 75.193 16.795 75.138 16.5457 75.138C16.1497 75.138 15.816 75.215 15.5447 75.369C15.2734 75.5157 15.068 75.7357 14.9287 76.029C14.7894 76.315 14.7197 76.6707 14.7197 77.096C14.7197 77.4993 14.804 77.8513 14.9727 78.152C15.1414 78.4453 15.3797 78.6727 15.6877 78.834C15.9957 78.9953 16.3514 79.076 16.7547 79.076C17.0407 79.076 17.3047 79.0283 17.5467 78.933C17.796 78.8377 18.0637 78.6653 18.3497 78.416L18.9217 79.219C18.7457 79.395 18.5294 79.549 18.2727 79.681C18.0234 79.813 17.7557 79.9193 17.4697 80C17.191 80.0733 16.916 80.11 16.6447 80.11ZM26.888 80.11C26.3527 80.11 25.8614 80.0147 25.414 79.824C24.9667 79.6333 24.578 79.362 24.248 79.01C23.918 78.6507 23.6614 78.229 23.478 77.745C23.302 77.261 23.214 76.7293 23.214 76.15C23.214 75.6 23.3094 75.0903 23.5 74.621C23.698 74.1443 23.9694 73.7263 24.314 73.367C24.6587 73.0077 25.0584 72.729 25.513 72.531C25.9677 72.333 26.459 72.234 26.987 72.234C27.361 72.234 27.724 72.2927 28.076 72.41C28.4354 72.52 28.758 72.6777 29.044 72.883C29.3374 73.081 29.5757 73.3083 29.759 73.565L28.967 74.39C28.7544 74.1773 28.538 74.0013 28.318 73.862C28.1054 73.7153 27.8854 73.6053 27.658 73.532C27.438 73.4587 27.2144 73.422 26.987 73.422C26.6277 73.422 26.2904 73.4917 25.975 73.631C25.667 73.763 25.3957 73.95 25.161 74.192C24.9337 74.434 24.754 74.7237 24.622 75.061C24.49 75.391 24.424 75.754 24.424 76.15C24.424 76.568 24.4864 76.9493 24.611 77.294C24.743 77.6313 24.9264 77.921 25.161 78.163C25.3957 78.405 25.6744 78.592 25.997 78.724C26.327 78.8487 26.69 78.911 27.086 78.911C27.328 78.911 27.5664 78.878 27.801 78.812C28.0357 78.746 28.2557 78.6507 28.461 78.526C28.6664 78.4013 28.8534 78.2547 29.022 78.086L29.616 79.054C29.4474 79.252 29.2164 79.4317 28.923 79.593C28.637 79.7543 28.3144 79.8827 27.955 79.978C27.603 80.066 27.2474 80.11 26.888 80.11ZM30.9439 80V71.86H32.0769V75.413L31.8789 75.545C31.9522 75.2883 32.0952 75.0537 32.3079 74.841C32.5205 74.621 32.7735 74.445 33.0669 74.313C33.3602 74.1737 33.6609 74.104 33.9689 74.104C34.4089 74.104 34.7755 74.192 35.0689 74.368C35.3622 74.5367 35.5822 74.797 35.7289 75.149C35.8755 75.501 35.9489 75.9447 35.9489 76.48V80H34.8159V76.557C34.8159 76.227 34.7719 75.9557 34.6839 75.743C34.5959 75.523 34.4602 75.3653 34.2769 75.27C34.0935 75.1673 33.8662 75.1233 33.5949 75.138C33.3749 75.138 33.1732 75.1747 32.9899 75.248C32.8065 75.314 32.6452 75.4093 32.5059 75.534C32.3739 75.6587 32.2675 75.8053 32.1869 75.974C32.1135 76.1353 32.0769 76.3113 32.0769 76.502V80H31.5159C31.4205 80 31.3252 80 31.2299 80C31.1345 80 31.0392 80 30.9439 80ZM37.6728 80V74.225H38.8058V80H37.6728ZM38.2228 72.949C37.9808 72.949 37.7938 72.8867 37.6618 72.762C37.5298 72.6373 37.4638 72.4613 37.4638 72.234C37.4638 72.0213 37.5298 71.849 37.6618 71.717C37.8012 71.585 37.9882 71.519 38.2228 71.519C38.4648 71.519 38.6518 71.5813 38.7838 71.706C38.9158 71.8307 38.9818 72.0067 38.9818 72.234C38.9818 72.4467 38.9122 72.619 38.7728 72.751C38.6408 72.883 38.4575 72.949 38.2228 72.949ZM40.5694 80V71.86H41.7024V80H40.5694ZM45.6097 80.11C45.0817 80.11 44.6087 79.9817 44.1907 79.725C43.78 79.461 43.4537 79.1053 43.2117 78.658C42.9697 78.2033 42.8487 77.6863 42.8487 77.107C42.8487 76.5277 42.966 76.0143 43.2007 75.567C43.4427 75.1123 43.769 74.7567 44.1797 74.5C44.5904 74.236 45.056 74.104 45.5767 74.104C45.8627 74.104 46.1377 74.1517 46.4017 74.247C46.673 74.335 46.915 74.4597 47.1277 74.621C47.3404 74.775 47.5054 74.9473 47.6227 75.138C47.7474 75.3213 47.8097 75.5083 47.8097 75.699L47.4797 75.721V71.86H48.6127V80H47.4797V78.625H47.6997C47.6997 78.801 47.641 78.977 47.5237 79.153C47.4064 79.3217 47.2487 79.4793 47.0507 79.626C46.86 79.7727 46.6364 79.89 46.3797 79.978C46.1304 80.066 45.8737 80.11 45.6097 80.11ZM45.7637 79.131C46.1084 79.131 46.4127 79.043 46.6767 78.867C46.9407 78.691 47.146 78.4527 47.2927 78.152C47.4467 77.844 47.5237 77.4957 47.5237 77.107C47.5237 76.7183 47.4467 76.3737 47.2927 76.073C47.146 75.765 46.9407 75.523 46.6767 75.347C46.4127 75.171 46.1084 75.083 45.7637 75.083C45.419 75.083 45.1147 75.171 44.8507 75.347C44.5867 75.523 44.3777 75.765 44.2237 76.073C44.077 76.3737 44.0037 76.7183 44.0037 77.107C44.0037 77.4957 44.077 77.844 44.2237 78.152C44.3777 78.4527 44.5867 78.691 44.8507 78.867C45.1147 79.043 45.419 79.131 45.7637 79.131ZM55.2794 80.11C55.03 80.11 54.7917 80.077 54.5644 80.011C54.337 79.945 54.1244 79.8497 53.9264 79.725C53.7357 79.6003 53.5634 79.4537 53.4094 79.285C53.2554 79.109 53.1234 78.9183 53.0134 78.713L53.7614 77.932C53.9154 78.152 54.0547 78.328 54.1794 78.46C54.3114 78.592 54.436 78.6947 54.5534 78.768C54.6707 78.8413 54.788 78.8927 54.9054 78.922C55.0227 78.944 55.1474 78.955 55.2794 78.955C55.5434 78.955 55.7744 78.8963 55.9724 78.779C56.1704 78.6543 56.3244 78.4857 56.4344 78.273C56.5444 78.0603 56.5994 77.8183 56.5994 77.547V73.4H55.1914V72.3H58.9754V73.4H57.7874V77.657C57.7874 78.009 57.725 78.3353 57.6004 78.636C57.483 78.9293 57.3107 79.186 57.0834 79.406C56.8634 79.626 56.5994 79.7983 56.2914 79.923C55.9907 80.0477 55.6534 80.11 55.2794 80.11ZM62.4601 80.11C61.8661 80.11 61.3381 79.9853 60.8761 79.736C60.4215 79.4793 60.0621 79.131 59.7981 78.691C59.5415 78.251 59.4131 77.745 59.4131 77.173C59.4131 76.7183 59.4865 76.304 59.6331 75.93C59.7798 75.556 59.9815 75.2333 60.2381 74.962C60.5021 74.6833 60.8138 74.4707 61.1731 74.324C61.5398 74.17 61.9358 74.093 62.3611 74.093C62.7351 74.093 63.0835 74.1663 63.4061 74.313C63.7288 74.4523 64.0075 74.6467 64.2421 74.896C64.4841 75.1453 64.6675 75.4423 64.7921 75.787C64.9241 76.1243 64.9865 76.4947 64.9791 76.898L64.9681 77.382H60.2491L59.9961 76.48H63.9891L63.8241 76.667V76.403C63.8021 76.161 63.7215 75.9447 63.5821 75.754C63.4428 75.5633 63.2668 75.413 63.0541 75.303C62.8415 75.193 62.6105 75.138 62.3611 75.138C61.9651 75.138 61.6315 75.215 61.3601 75.369C61.0888 75.5157 60.8835 75.7357 60.7441 76.029C60.6048 76.315 60.5351 76.6707 60.5351 77.096C60.5351 77.4993 60.6195 77.8513 60.7881 78.152C60.9568 78.4453 61.1951 78.6727 61.5031 78.834C61.8111 78.9953 62.1668 79.076 62.5701 79.076C62.8561 79.076 63.1201 79.0283 63.3621 78.933C63.6115 78.8377 63.8791 78.6653 64.1651 78.416L64.7371 79.219C64.5611 79.395 64.3448 79.549 64.0881 79.681C63.8388 79.813 63.5711 79.9193 63.2851 80C63.0065 80.0733 62.7315 80.11 62.4601 80.11ZM68.1355 80.11C67.6515 80.11 67.2151 80.0257 66.8265 79.857C66.4378 79.6883 66.1151 79.439 65.8585 79.109L66.6285 78.449C66.8485 78.7057 67.0868 78.8927 67.3435 79.01C67.6075 79.12 67.9045 79.175 68.2345 79.175C68.3665 79.175 68.4875 79.1603 68.5975 79.131C68.7148 79.0943 68.8138 79.043 68.8945 78.977C68.9825 78.911 69.0485 78.834 69.0925 78.746C69.1365 78.6507 69.1585 78.548 69.1585 78.438C69.1585 78.2473 69.0888 78.0933 68.9495 77.976C68.8761 77.9247 68.7588 77.8697 68.5975 77.811C68.4435 77.745 68.2418 77.679 67.9925 77.613C67.5671 77.503 67.2188 77.3783 66.9475 77.239C66.6761 77.0997 66.4671 76.942 66.3205 76.766C66.2105 76.6267 66.1298 76.4763 66.0785 76.315C66.0271 76.1463 66.0015 75.963 66.0015 75.765C66.0015 75.523 66.0528 75.303 66.1555 75.105C66.2655 74.8997 66.4121 74.7237 66.5955 74.577C66.7861 74.423 67.0061 74.3057 67.2555 74.225C67.5121 74.1443 67.7835 74.104 68.0695 74.104C68.3408 74.104 68.6085 74.1407 68.8725 74.214C69.1438 74.2873 69.3931 74.3937 69.6205 74.533C69.8478 74.6723 70.0385 74.8373 70.1925 75.028L69.5435 75.743C69.4041 75.6037 69.2501 75.4827 69.0815 75.38C68.9201 75.27 68.7551 75.1857 68.5865 75.127C68.4178 75.0683 68.2638 75.039 68.1245 75.039C67.9705 75.039 67.8311 75.0537 67.7065 75.083C67.5818 75.1123 67.4755 75.1563 67.3875 75.215C67.3068 75.2737 67.2445 75.347 67.2005 75.435C67.1565 75.523 67.1345 75.622 67.1345 75.732C67.1418 75.8273 67.1638 75.919 67.2005 76.007C67.2445 76.0877 67.3031 76.1573 67.3765 76.216C67.4571 76.2747 67.5781 76.337 67.7395 76.403C67.9008 76.469 68.1061 76.5313 68.3555 76.59C68.7221 76.6853 69.0228 76.7917 69.2575 76.909C69.4995 77.019 69.6901 77.1473 69.8295 77.294C69.9761 77.4333 70.0788 77.5947 70.1375 77.778C70.1961 77.9613 70.2255 78.1667 70.2255 78.394C70.2255 78.724 70.1301 79.021 69.9395 79.285C69.7561 79.5417 69.5068 79.7433 69.1915 79.89C68.8761 80.0367 68.5241 80.11 68.1355 80.11ZM73.4981 80.11C73.0875 80.11 72.7281 80.0147 72.4201 79.824C72.1195 79.6333 71.8848 79.3657 71.7161 79.021C71.5548 78.6763 71.4741 78.2657 71.4741 77.789V74.225H72.6071V77.481C72.6071 77.8183 72.6585 78.1117 72.7611 78.361C72.8711 78.603 73.0251 78.79 73.2231 78.922C73.4285 79.054 73.6741 79.12 73.9601 79.12C74.1728 79.12 74.3671 79.087 74.5431 79.021C74.7191 78.9477 74.8695 78.8487 74.9941 78.724C75.1261 78.5993 75.2288 78.449 75.3021 78.273C75.3755 78.097 75.4121 77.9063 75.4121 77.701V74.225H76.5451V80H75.4121V78.79L75.6101 78.658C75.5221 78.9293 75.3718 79.175 75.1591 79.395C74.9538 79.615 74.7081 79.791 74.4221 79.923C74.1361 80.0477 73.8281 80.11 73.4981 80.11ZM80.0593 80.11C79.5753 80.11 79.139 80.0257 78.7503 79.857C78.3616 79.6883 78.039 79.439 77.7823 79.109L78.5523 78.449C78.7723 78.7057 79.0106 78.8927 79.2673 79.01C79.5313 79.12 79.8283 79.175 80.1583 79.175C80.2903 79.175 80.4113 79.1603 80.5213 79.131C80.6386 79.0943 80.7376 79.043 80.8183 78.977C80.9063 78.911 80.9723 78.834 81.0163 78.746C81.0603 78.6507 81.0823 78.548 81.0823 78.438C81.0823 78.2473 81.0126 78.0933 80.8733 77.976C80.8 77.9247 80.6826 77.8697 80.5213 77.811C80.3673 77.745 80.1656 77.679 79.9163 77.613C79.491 77.503 79.1426 77.3783 78.8713 77.239C78.6 77.0997 78.391 76.942 78.2443 76.766C78.1343 76.6267 78.0536 76.4763 78.0023 76.315C77.951 76.1463 77.9253 75.963 77.9253 75.765C77.9253 75.523 77.9766 75.303 78.0793 75.105C78.1893 74.8997 78.336 74.7237 78.5193 74.577C78.71 74.423 78.93 74.3057 79.1793 74.225C79.436 74.1443 79.7073 74.104 79.9933 74.104C80.2646 74.104 80.5323 74.1407 80.7963 74.214C81.0676 74.2873 81.317 74.3937 81.5443 74.533C81.7716 74.6723 81.9623 74.8373 82.1163 75.028L81.4673 75.743C81.328 75.6037 81.174 75.4827 81.0053 75.38C80.844 75.27 80.679 75.1857 80.5103 75.127C80.3416 75.0683 80.1876 75.039 80.0483 75.039C79.8943 75.039 79.755 75.0537 79.6303 75.083C79.5056 75.1123 79.3993 75.1563 79.3113 75.215C79.2306 75.2737 79.1683 75.347 79.1243 75.435C79.0803 75.523 79.0583 75.622 79.0583 75.732C79.0656 75.8273 79.0876 75.919 79.1243 76.007C79.1683 76.0877 79.227 76.1573 79.3003 76.216C79.381 76.2747 79.502 76.337 79.6633 76.403C79.8246 76.469 80.03 76.5313 80.2793 76.59C80.646 76.6853 80.9466 76.7917 81.1813 76.909C81.4233 77.019 81.614 77.1473 81.7533 77.294C81.9 77.4333 82.0026 77.5947 82.0613 77.778C82.12 77.9613 82.1493 78.1667 82.1493 78.394C82.1493 78.724 82.054 79.021 81.8633 79.285C81.68 79.5417 81.4306 79.7433 81.1153 79.89C80.8 80.0367 80.448 80.11 80.0593 80.11Z" fill="black"/>
</svg>
