<svg width="74" height="49" viewBox="0 0 74 49" fill="none" xmlns="http://www.w3.org/2000/svg">
<path d="M12 0.5L57 1.5L74 20.5V43.5L65.5 49L15.5 47.5L0.5 35.5V9L12 0.5Z" fill="#FF0000" fill-opacity="0.37"/>
<path d="M18.0657 5.5H12.9343C12.5349 5.5 12.2967 5.94507 12.5182 6.27735L13.916 8.37404C13.9708 8.45617 14 8.55268 14 8.65139V10V14C14 14.2761 13.7761 14.5 13.5 14.5H9.5H6.65139C6.55268 14.5 6.45617 14.4708 6.37404 14.416L4.27735 13.0182C3.94507 12.7967 3.5 13.0349 3.5 13.4343V18.5657C3.5 18.9651 3.94507 19.2033 4.27735 18.9818L6.37404 17.584C6.45617 17.5292 6.55268 17.5 6.65139 17.5H9.5H13.5C13.7761 17.5 14 17.7239 14 18V21.5V37.382C14 37.4596 13.9819 37.5361 13.9472 37.6056L12.8618 39.7764C12.6956 40.1088 12.9373 40.5 13.309 40.5H17.691C18.0627 40.5 18.3044 40.1088 18.1382 39.7764L17.0528 37.6056C17.0181 37.5361 17 37.4596 17 37.382V21.5V18C17 17.7239 17.2239 17.5 17.5 17.5H21.5H24.3486C24.4473 17.5 24.5438 17.5292 24.626 17.584L26.7227 18.9818C27.0549 19.2033 27.5 18.9651 27.5 18.5657V13.4343C27.5 13.0349 27.0549 12.7967 26.7227 13.0182L24.626 14.416C24.5438 14.4708 24.4473 14.5 24.3486 14.5H21.5H17.5C17.2239 14.5 17 14.2761 17 14V10V8.65139C17 8.55268 17.0292 8.45617 17.084 8.37404L18.4818 6.27735C18.7033 5.94507 18.4651 5.5 18.0657 5.5Z" fill="#4F4533"/>
<path d="M14 10V14C14 14.2761 13.7761 14.5 13.5 14.5H9.5M14 10V8.65139C14 8.55268 13.9708 8.45617 13.916 8.37404L12.5182 6.27735C12.2967 5.94507 12.5349 5.5 12.9343 5.5H18.0657C18.4651 5.5 18.7033 5.94507 18.4818 6.27735L17.084 8.37404C17.0292 8.45617 17 8.55268 17 8.65139V10M14 10C11.5 10 9.5 12 9.5 14.5M9.5 14.5H6.65139C6.55268 14.5 6.45617 14.4708 6.37404 14.416L4.27735 13.0182C3.94507 12.7967 3.5 13.0349 3.5 13.4343V18.5657C3.5 18.9651 3.94507 19.2033 4.27735 18.9818L6.37404 17.584C6.45617 17.5292 6.55268 17.5 6.65139 17.5H9.5M17 10V14C17 14.2761 17.2239 14.5 17.5 14.5H21.5M17 10C19.5 10 21.5 12 21.5 14.5M21.5 14.5H24.3486C24.4473 14.5 24.5438 14.4708 24.626 14.416L26.7227 13.0182C27.0549 12.7967 27.5 13.0349 27.5 13.4343V18.5657C27.5 18.9651 27.0549 19.2033 26.7226 18.9818L24.626 17.584C24.5438 17.5292 24.4473 17.5 24.3486 17.5H21.5M21.5 17.5H17.5C17.2239 17.5 17 17.7239 17 18V21.5M21.5 17.5C21.5 20 19.5 21.5 17 21.5M17 21.5V37.382C17 37.4596 17.0181 37.5361 17.0528 37.6056L18.1382 39.7764C18.3044 40.1088 18.0627 40.5 17.691 40.5H13.309C12.9373 40.5 12.6956 40.1088 12.8618 39.7764L13.9472 37.6056C13.9819 37.5361 14 37.4596 14 37.382V21.5M14 21.5V18C14 17.7239 13.7761 17.5 13.5 17.5H9.5M14 21.5C11.5 21.5 9.5 20 9.5 17.5" stroke="black"/>
<path d="M38.9712 16.11C38.4652 16.11 38.0068 16.0513 37.5962 15.934C37.1928 15.8093 36.8335 15.6333 36.5182 15.406C36.2028 15.1713 35.9205 14.8963 35.6712 14.581L36.8042 13.294C37.1708 13.7853 37.5375 14.1153 37.9042 14.284C38.2782 14.4527 38.6632 14.537 39.0592 14.537C39.2572 14.537 39.4368 14.5113 39.5982 14.46C39.7595 14.4087 39.8842 14.3353 39.9722 14.24C40.0602 14.1373 40.1042 14.0127 40.1042 13.866C40.1042 13.756 40.0748 13.657 40.0162 13.569C39.9648 13.481 39.8915 13.404 39.7962 13.338C39.7008 13.272 39.5872 13.2133 39.4552 13.162C39.3232 13.1033 39.1838 13.0557 39.0372 13.019C38.8905 12.975 38.7402 12.9383 38.5862 12.909C38.1608 12.8137 37.7905 12.6963 37.4752 12.557C37.1598 12.4177 36.8958 12.249 36.6832 12.051C36.4778 11.8457 36.3238 11.6147 36.2212 11.358C36.1185 11.094 36.0672 10.8007 36.0672 10.478C36.0672 10.1333 36.1442 9.818 36.2982 9.532C36.4595 9.23867 36.6722 8.98933 36.9362 8.784C37.2075 8.57133 37.5192 8.41 37.8712 8.3C38.2232 8.18267 38.5898 8.124 38.9712 8.124C39.4772 8.124 39.9098 8.179 40.2692 8.289C40.6358 8.39167 40.9475 8.542 41.2042 8.74C41.4682 8.938 41.6918 9.17633 41.8752 9.455L40.7202 10.566C40.5662 10.3753 40.3975 10.2177 40.2142 10.093C40.0382 9.96833 39.8475 9.873 39.6422 9.807C39.4442 9.741 39.2388 9.708 39.0262 9.708C38.8062 9.708 38.6155 9.73733 38.4542 9.796C38.3002 9.84733 38.1792 9.92433 38.0912 10.027C38.0032 10.1223 37.9592 10.2397 37.9592 10.379C37.9592 10.5037 37.9958 10.61 38.0692 10.698C38.1425 10.786 38.2415 10.8667 38.3662 10.94C38.4908 11.006 38.6338 11.0647 38.7952 11.116C38.9565 11.16 39.1252 11.1967 39.3012 11.226C39.7045 11.3067 40.0675 11.413 40.3902 11.545C40.7202 11.677 41.0025 11.8383 41.2372 12.029C41.4792 12.2197 41.6625 12.447 41.7872 12.711C41.9192 12.9677 41.9852 13.2683 41.9852 13.613C41.9852 14.1483 41.8532 14.603 41.5892 14.977C41.3325 15.3437 40.9768 15.626 40.5222 15.824C40.0748 16.0147 39.5578 16.11 38.9712 16.11ZM43.3909 16V8.3H45.2609V14.35H48.6929V16H43.3909ZM53.3771 16.11C52.7978 16.11 52.2625 16.0147 51.7711 15.824C51.2871 15.626 50.8655 15.351 50.5061 14.999C50.1468 14.6397 49.8681 14.218 49.6701 13.734C49.4795 13.2427 49.3841 12.7037 49.3841 12.117C49.3841 11.545 49.4868 11.017 49.6921 10.533C49.8975 10.049 50.1798 9.631 50.5391 9.279C50.9058 8.91967 51.3348 8.641 51.8261 8.443C52.3248 8.245 52.8675 8.146 53.4541 8.146C53.8208 8.146 54.1801 8.19367 54.5321 8.289C54.8841 8.38433 55.2105 8.52733 55.5111 8.718C55.8191 8.90133 56.0831 9.12133 56.3031 9.378L55.1591 10.687C55.0051 10.5257 54.8401 10.3863 54.6641 10.269C54.4955 10.1443 54.3085 10.049 54.1031 9.983C53.8978 9.917 53.6778 9.884 53.4431 9.884C53.1498 9.884 52.8711 9.939 52.6071 10.049C52.3505 10.1517 52.1231 10.302 51.9251 10.5C51.7345 10.6907 51.5841 10.9253 51.4741 11.204C51.3641 11.4827 51.3091 11.7943 51.3091 12.139C51.3091 12.4763 51.3641 12.7843 51.4741 13.063C51.5841 13.3343 51.7381 13.569 51.9361 13.767C52.1341 13.965 52.3725 14.1153 52.6511 14.218C52.9371 14.3207 53.2525 14.372 53.5971 14.372C53.8318 14.372 54.0555 14.339 54.2681 14.273C54.4808 14.207 54.6751 14.119 54.8511 14.009C55.0345 13.8917 55.1958 13.7597 55.3351 13.613L56.2371 15.043C56.0538 15.2483 55.8081 15.4317 55.5001 15.593C55.1995 15.7543 54.8621 15.8827 54.4881 15.978C54.1215 16.066 53.7511 16.11 53.3771 16.11ZM24.1415 30.11C23.6061 30.11 23.1148 30.0147 22.6675 29.824C22.2201 29.6333 21.8315 29.362 21.5015 29.01C21.1715 28.6507 20.9148 28.229 20.7315 27.745C20.5555 27.261 20.4675 26.7293 20.4675 26.15C20.4675 25.6 20.5628 25.0903 20.7535 24.621C20.9515 24.1443 21.2228 23.7263 21.5675 23.367C21.9121 23.0077 22.3118 22.729 22.7665 22.531C23.2211 22.333 23.7125 22.234 24.2405 22.234C24.6145 22.234 24.9775 22.2927 25.3295 22.41C25.6888 22.52 26.0115 22.6777 26.2975 22.883C26.5908 23.081 26.8291 23.3083 27.0125 23.565L26.2205 24.39C26.0078 24.1773 25.7915 24.0013 25.5715 23.862C25.3588 23.7153 25.1388 23.6053 24.9115 23.532C24.6915 23.4587 24.4678 23.422 24.2405 23.422C23.8811 23.422 23.5438 23.4917 23.2285 23.631C22.9205 23.763 22.6491 23.95 22.4145 24.192C22.1871 24.434 22.0075 24.7237 21.8755 25.061C21.7435 25.391 21.6775 25.754 21.6775 26.15C21.6775 26.568 21.7398 26.9493 21.8645 27.294C21.9965 27.6313 22.1798 27.921 22.4145 28.163C22.6491 28.405 22.9278 28.592 23.2505 28.724C23.5805 28.8487 23.9435 28.911 24.3395 28.911C24.5815 28.911 24.8198 28.878 25.0545 28.812C25.2891 28.746 25.5091 28.6507 25.7145 28.526C25.9198 28.4013 26.1068 28.2547 26.2755 28.086L26.8695 29.054C26.7008 29.252 26.4698 29.4317 26.1765 29.593C25.8905 29.7543 25.5678 29.8827 25.2085 29.978C24.8565 30.066 24.5008 30.11 24.1415 30.11ZM30.4193 30.11C29.9426 30.11 29.5063 29.978 29.1103 29.714C28.7216 29.45 28.4099 29.0907 28.1753 28.636C27.9406 28.1813 27.8233 27.668 27.8233 27.096C27.8233 26.5167 27.9406 26.0033 28.1753 25.556C28.4173 25.1013 28.7399 24.7457 29.1433 24.489C29.5539 24.2323 30.0123 24.104 30.5183 24.104C30.8189 24.104 31.0939 24.148 31.3433 24.236C31.5926 24.324 31.8089 24.4487 31.9923 24.61C32.1829 24.764 32.3369 24.9437 32.4543 25.149C32.5789 25.3543 32.6559 25.5743 32.6853 25.809L32.4323 25.721V24.225H33.5763V30H32.4323V28.625L32.6963 28.548C32.6523 28.746 32.5606 28.9403 32.4213 29.131C32.2893 29.3143 32.1169 29.4793 31.9043 29.626C31.6989 29.7727 31.4679 29.89 31.2113 29.978C30.9619 30.066 30.6979 30.11 30.4193 30.11ZM30.7163 29.065C31.0609 29.065 31.3653 28.9807 31.6293 28.812C31.8933 28.6433 32.0986 28.4123 32.2453 28.119C32.3993 27.8183 32.4763 27.4773 32.4763 27.096C32.4763 26.722 32.3993 26.3883 32.2453 26.095C32.0986 25.8017 31.8933 25.5707 31.6293 25.402C31.3653 25.2333 31.0609 25.149 30.7163 25.149C30.3789 25.149 30.0783 25.2333 29.8143 25.402C29.5576 25.5707 29.3523 25.8017 29.1983 26.095C29.0516 26.3883 28.9783 26.722 28.9783 27.096C28.9783 27.4773 29.0516 27.8183 29.1983 28.119C29.3523 28.4123 29.5576 28.6433 29.8143 28.812C30.0783 28.9807 30.3789 29.065 30.7163 29.065ZM35.8732 30V22.751H37.0062V30H35.8732ZM34.6742 25.325V24.225H38.3482V25.325H34.6742ZM39.3799 30V21.86H40.5129V25.413L40.3149 25.545C40.3882 25.2883 40.5312 25.0537 40.7439 24.841C40.9566 24.621 41.2096 24.445 41.5029 24.313C41.7962 24.1737 42.0969 24.104 42.4049 24.104C42.8449 24.104 43.2116 24.192 43.5049 24.368C43.7982 24.5367 44.0182 24.797 44.1649 25.149C44.3116 25.501 44.3849 25.9447 44.3849 26.48V30H43.2519V26.557C43.2519 26.227 43.2079 25.9557 43.1199 25.743C43.0319 25.523 42.8962 25.3653 42.7129 25.27C42.5296 25.1673 42.3022 25.1233 42.0309 25.138C41.8109 25.138 41.6092 25.1747 41.4259 25.248C41.2426 25.314 41.0812 25.4093 40.9419 25.534C40.8099 25.6587 40.7036 25.8053 40.6229 25.974C40.5496 26.1353 40.5129 26.3113 40.5129 26.502V30H39.9519C39.8566 30 39.7612 30 39.6659 30C39.5706 30 39.4752 30 39.3799 30ZM48.6169 30.11C48.0229 30.11 47.4949 29.9853 47.0329 29.736C46.5782 29.4793 46.2189 29.131 45.9549 28.691C45.6982 28.251 45.5699 27.745 45.5699 27.173C45.5699 26.7183 45.6432 26.304 45.7899 25.93C45.9365 25.556 46.1382 25.2333 46.3949 24.962C46.6589 24.6833 46.9705 24.4707 47.3299 24.324C47.6965 24.17 48.0925 24.093 48.5179 24.093C48.8919 24.093 49.2402 24.1663 49.5629 24.313C49.8855 24.4523 50.1642 24.6467 50.3989 24.896C50.6409 25.1453 50.8242 25.4423 50.9489 25.787C51.0809 26.1243 51.1432 26.4947 51.1359 26.898L51.1249 27.382H46.4059L46.1529 26.48H50.1459L49.9809 26.667V26.403C49.9589 26.161 49.8782 25.9447 49.7389 25.754C49.5995 25.5633 49.4235 25.413 49.2109 25.303C48.9982 25.193 48.7672 25.138 48.5179 25.138C48.1219 25.138 47.7882 25.215 47.5169 25.369C47.2455 25.5157 47.0402 25.7357 46.9009 26.029C46.7615 26.315 46.6919 26.6707 46.6919 27.096C46.6919 27.4993 46.7762 27.8513 46.9449 28.152C47.1135 28.4453 47.3519 28.6727 47.6599 28.834C47.9679 28.9953 48.3235 29.076 48.7269 29.076C49.0129 29.076 49.2769 29.0283 49.5189 28.933C49.7682 28.8377 50.0359 28.6653 50.3219 28.416L50.8939 29.219C50.7179 29.395 50.5015 29.549 50.2449 29.681C49.9955 29.813 49.7279 29.9193 49.4419 30C49.1632 30.0733 48.8882 30.11 48.6169 30.11ZM52.3672 30V24.225H53.5112V26.04L53.4012 25.6C53.4819 25.3213 53.6175 25.0683 53.8082 24.841C54.0062 24.6137 54.2299 24.434 54.4792 24.302C54.7359 24.17 54.9999 24.104 55.2712 24.104C55.3959 24.104 55.5132 24.115 55.6232 24.137C55.7405 24.159 55.8322 24.1847 55.8982 24.214L55.6012 25.446C55.5132 25.4093 55.4142 25.38 55.3042 25.358C55.2015 25.3287 55.0989 25.314 54.9962 25.314C54.7982 25.314 54.6075 25.3543 54.4242 25.435C54.2482 25.5083 54.0905 25.6147 53.9512 25.754C53.8192 25.886 53.7129 26.0437 53.6322 26.227C53.5515 26.403 53.5112 26.5973 53.5112 26.81V30H52.3672ZM56.9907 30V24.225H58.1237V30H56.9907ZM57.5407 22.949C57.2987 22.949 57.1117 22.8867 56.9797 22.762C56.8477 22.6373 56.7817 22.4613 56.7817 22.234C56.7817 22.0213 56.8477 21.849 56.9797 21.717C57.1191 21.585 57.3061 21.519 57.5407 21.519C57.7827 21.519 57.9697 21.5813 58.1017 21.706C58.2337 21.8307 58.2997 22.0067 58.2997 22.234C58.2997 22.4467 58.2301 22.619 58.0907 22.751C57.9587 22.883 57.7754 22.949 57.5407 22.949ZM59.8652 30V24.225H60.9982V25.413L60.8002 25.545C60.8736 25.2883 61.0166 25.0537 61.2292 24.841C61.4419 24.621 61.6949 24.445 61.9882 24.313C62.2816 24.1737 62.5822 24.104 62.8902 24.104C63.3302 24.104 63.6969 24.192 63.9902 24.368C64.2836 24.5367 64.5036 24.797 64.6502 25.149C64.7969 25.501 64.8702 25.9447 64.8702 26.48V30H63.7372V26.557C63.7372 26.227 63.6932 25.9557 63.6052 25.743C63.5172 25.523 63.3816 25.3653 63.1982 25.27C63.0149 25.1673 62.7876 25.1233 62.5162 25.138C62.2962 25.138 62.0946 25.1747 61.9112 25.248C61.7279 25.314 61.5666 25.4093 61.4272 25.534C61.2952 25.6587 61.1889 25.8053 61.1082 25.974C61.0349 26.1353 60.9982 26.3113 60.9982 26.502V30H60.4372C60.3419 30 60.2466 30 60.1512 30C60.0559 30 59.9606 30 59.8652 30ZM69.1022 30.11C68.5082 30.11 67.9802 29.9853 67.5182 29.736C67.0636 29.4793 66.7042 29.131 66.4402 28.691C66.1836 28.251 66.0552 27.745 66.0552 27.173C66.0552 26.7183 66.1286 26.304 66.2752 25.93C66.4219 25.556 66.6236 25.2333 66.8802 24.962C67.1442 24.6833 67.4559 24.4707 67.8152 24.324C68.1819 24.17 68.5779 24.093 69.0032 24.093C69.3772 24.093 69.7256 24.1663 70.0482 24.313C70.3709 24.4523 70.6496 24.6467 70.8842 24.896C71.1262 25.1453 71.3096 25.4423 71.4342 25.787C71.5662 26.1243 71.6286 26.4947 71.6212 26.898L71.6102 27.382H66.8912L66.6382 26.48H70.6312L70.4662 26.667V26.403C70.4442 26.161 70.3636 25.9447 70.2242 25.754C70.0849 25.5633 69.9089 25.413 69.6962 25.303C69.4836 25.193 69.2526 25.138 69.0032 25.138C68.6072 25.138 68.2736 25.215 68.0022 25.369C67.7309 25.5157 67.5256 25.7357 67.3862 26.029C67.2469 26.315 67.1772 26.6707 67.1772 27.096C67.1772 27.4993 67.2616 27.8513 67.4302 28.152C67.5989 28.4453 67.8372 28.6727 68.1452 28.834C68.4532 28.9953 68.8089 29.076 69.2122 29.076C69.4982 29.076 69.7622 29.0283 70.0042 28.933C70.2536 28.8377 70.5212 28.6653 70.8072 28.416L71.3792 29.219C71.2032 29.395 70.9869 29.549 70.7302 29.681C70.4809 29.813 70.2132 29.9193 69.9272 30C69.6486 30.0733 69.3736 30.11 69.1022 30.11ZM27.4739 44.11C26.9093 44.11 26.4033 43.9817 25.9559 43.725C25.5159 43.461 25.1676 43.1053 24.9109 42.658C24.6543 42.2033 24.5259 41.6863 24.5259 41.107C24.5259 40.5277 24.6543 40.0143 24.9109 39.567C25.1676 39.1123 25.5159 38.7567 25.9559 38.5C26.4033 38.236 26.9093 38.104 27.4739 38.104C28.0313 38.104 28.5299 38.236 28.9699 38.5C29.4173 38.7567 29.7693 39.1123 30.0259 39.567C30.2826 40.0143 30.4109 40.5277 30.4109 41.107C30.4109 41.6863 30.2826 42.2033 30.0259 42.658C29.7693 43.1053 29.4173 43.461 28.9699 43.725C28.5299 43.9817 28.0313 44.11 27.4739 44.11ZM27.4739 43.076C27.8186 43.076 28.1266 42.9917 28.3979 42.823C28.6693 42.647 28.8819 42.4123 29.0359 42.119C29.1899 41.8183 29.2633 41.481 29.2559 41.107C29.2633 40.7257 29.1899 40.3883 29.0359 40.095C28.8819 39.7943 28.6693 39.5597 28.3979 39.391C28.1266 39.2223 27.8186 39.138 27.4739 39.138C27.1293 39.138 26.8176 39.226 26.5389 39.402C26.2676 39.5707 26.0549 39.8053 25.9009 40.106C25.7469 40.3993 25.6736 40.733 25.6809 41.107C25.6736 41.481 25.7469 41.8183 25.9009 42.119C26.0549 42.4123 26.2676 42.647 26.5389 42.823C26.8176 42.9917 27.1293 43.076 27.4739 43.076ZM32.0577 44V37.576C32.0577 37.246 32.131 36.9527 32.2777 36.696C32.4243 36.4393 32.626 36.2377 32.8827 36.091C33.1393 35.9443 33.4363 35.871 33.7737 35.871C34.0083 35.871 34.2283 35.915 34.4337 36.003C34.639 36.091 34.804 36.2083 34.9287 36.355L34.5437 37.224C34.4483 37.136 34.342 37.0663 34.2247 37.015C34.1147 36.9563 34.0083 36.927 33.9057 36.927C33.7517 36.927 33.6197 36.9527 33.5097 37.004C33.407 37.048 33.33 37.1213 33.2787 37.224C33.2273 37.3193 33.2017 37.4367 33.2017 37.576V44H32.6297C32.5343 44 32.439 44 32.3437 44C32.2483 44 32.153 44 32.0577 44ZM31.1337 39.369V38.324H34.5657V39.369H31.1337ZM41.494 44.11C41.076 44.11 40.6874 44.055 40.328 43.945C39.976 43.835 39.6534 43.67 39.36 43.45C39.074 43.2227 38.8174 42.944 38.59 42.614L39.404 41.679C39.7634 42.1923 40.108 42.548 40.438 42.746C40.768 42.944 41.1604 43.043 41.615 43.043C41.8937 43.043 42.1467 42.999 42.374 42.911C42.6014 42.823 42.781 42.702 42.913 42.548C43.045 42.394 43.111 42.218 43.111 42.02C43.111 41.888 43.089 41.7633 43.045 41.646C43.001 41.5287 42.9314 41.4223 42.836 41.327C42.748 41.2317 42.6307 41.1437 42.484 41.063C42.3447 40.9823 42.1797 40.9127 41.989 40.854C41.7984 40.788 41.5784 40.733 41.329 40.689C40.933 40.6083 40.5884 40.502 40.295 40.37C40.0017 40.238 39.756 40.073 39.558 39.875C39.36 39.677 39.2134 39.4533 39.118 39.204C39.0227 38.9473 38.975 38.6613 38.975 38.346C38.975 38.038 39.041 37.752 39.173 37.488C39.3124 37.224 39.4994 36.9967 39.734 36.806C39.976 36.608 40.2584 36.4577 40.581 36.355C40.9037 36.245 41.252 36.19 41.626 36.19C42.022 36.19 42.385 36.2413 42.715 36.344C43.045 36.4467 43.3384 36.6007 43.595 36.806C43.8517 37.004 44.0644 37.2497 44.233 37.543L43.397 38.368C43.2504 38.126 43.0854 37.9243 42.902 37.763C42.7187 37.5943 42.517 37.4697 42.297 37.389C42.077 37.301 41.8424 37.257 41.593 37.257C41.307 37.257 41.0577 37.301 40.845 37.389C40.6324 37.477 40.4637 37.6017 40.339 37.763C40.2217 37.917 40.163 38.1003 40.163 38.313C40.163 38.467 40.1924 38.61 40.251 38.742C40.3097 38.8667 40.3977 38.9803 40.515 39.083C40.6397 39.1783 40.8047 39.2663 41.01 39.347C41.2154 39.4203 41.461 39.4863 41.747 39.545C42.1504 39.633 42.5097 39.7467 42.825 39.886C43.1404 40.018 43.408 40.1757 43.628 40.359C43.848 40.5423 44.013 40.7477 44.123 40.975C44.2404 41.2023 44.299 41.448 44.299 41.712C44.299 42.2033 44.1854 42.6287 43.958 42.988C43.7307 43.3473 43.408 43.626 42.99 43.824C42.572 44.0147 42.0734 44.11 41.494 44.11ZM45.8833 44V38.225H47.0163V44H45.8833ZM46.4333 36.949C46.1913 36.949 46.0043 36.8867 45.8723 36.762C45.7403 36.6373 45.6743 36.4613 45.6743 36.234C45.6743 36.0213 45.7403 35.849 45.8723 35.717C46.0116 35.585 46.1986 35.519 46.4333 35.519C46.6753 35.519 46.8623 35.5813 46.9943 35.706C47.1263 35.8307 47.1923 36.0067 47.1923 36.234C47.1923 36.4467 47.1226 36.619 46.9833 36.751C46.8513 36.883 46.668 36.949 46.4333 36.949ZM51.4528 44.11C50.8588 44.11 50.3308 43.9853 49.8688 43.736C49.4142 43.4793 49.0548 43.131 48.7908 42.691C48.5342 42.251 48.4058 41.745 48.4058 41.173C48.4058 40.7183 48.4792 40.304 48.6258 39.93C48.7725 39.556 48.9742 39.2333 49.2308 38.962C49.4948 38.6833 49.8065 38.4707 50.1658 38.324C50.5325 38.17 50.9285 38.093 51.3538 38.093C51.7278 38.093 52.0762 38.1663 52.3988 38.313C52.7215 38.4523 53.0002 38.6467 53.2348 38.896C53.4768 39.1453 53.6602 39.4423 53.7848 39.787C53.9168 40.1243 53.9792 40.4947 53.9718 40.898L53.9608 41.382H49.2418L48.9888 40.48H52.9818L52.8168 40.667V40.403C52.7948 40.161 52.7142 39.9447 52.5748 39.754C52.4355 39.5633 52.2595 39.413 52.0468 39.303C51.8342 39.193 51.6032 39.138 51.3538 39.138C50.9578 39.138 50.6242 39.215 50.3528 39.369C50.0815 39.5157 49.8762 39.7357 49.7368 40.029C49.5975 40.315 49.5278 40.6707 49.5278 41.096C49.5278 41.4993 49.6122 41.8513 49.7808 42.152C49.9495 42.4453 50.1878 42.6727 50.4958 42.834C50.8038 42.9953 51.1595 43.076 51.5628 43.076C51.8488 43.076 52.1128 43.0283 52.3548 42.933C52.6042 42.8377 52.8718 42.6653 53.1578 42.416L53.7298 43.219C53.5538 43.395 53.3375 43.549 53.0808 43.681C52.8315 43.813 52.5638 43.9193 52.2778 44C51.9992 44.0733 51.7242 44.11 51.4528 44.11ZM55.2031 44V38.225H56.3361V39.413L56.1381 39.545C56.2115 39.2883 56.3545 39.0537 56.5671 38.841C56.7798 38.621 57.0328 38.445 57.3261 38.313C57.6195 38.1737 57.9201 38.104 58.2281 38.104C58.6681 38.104 59.0348 38.192 59.3281 38.368C59.6215 38.5367 59.8415 38.797 59.9881 39.149C60.1348 39.501 60.2081 39.9447 60.2081 40.48V44H59.0751V40.557C59.0751 40.227 59.0311 39.9557 58.9431 39.743C58.8551 39.523 58.7195 39.3653 58.5361 39.27C58.3528 39.1673 58.1255 39.1233 57.8541 39.138C57.6341 39.138 57.4325 39.1747 57.2491 39.248C57.0658 39.314 56.9045 39.4093 56.7651 39.534C56.6331 39.6587 56.5268 39.8053 56.4461 39.974C56.3728 40.1353 56.3361 40.3113 56.3361 40.502V44H55.7751C55.6798 44 55.5845 44 55.4891 44C55.3938 44 55.2985 44 55.2031 44ZM63.9671 44.11C63.4905 44.11 63.0541 43.978 62.6581 43.714C62.2695 43.45 61.9578 43.0907 61.7231 42.636C61.4885 42.1813 61.3711 41.668 61.3711 41.096C61.3711 40.5167 61.4885 40.0033 61.7231 39.556C61.9651 39.1013 62.2878 38.7457 62.6911 38.489C63.1018 38.2323 63.5601 38.104 64.0661 38.104C64.3668 38.104 64.6418 38.148 64.8911 38.236C65.1405 38.324 65.3568 38.4487 65.5401 38.61C65.7308 38.764 65.8848 38.9437 66.0021 39.149C66.1268 39.3543 66.2038 39.5743 66.2331 39.809L65.9801 39.721V38.225H67.1241V44H65.9801V42.625L66.2441 42.548C66.2001 42.746 66.1085 42.9403 65.9691 43.131C65.8371 43.3143 65.6648 43.4793 65.4521 43.626C65.2468 43.7727 65.0158 43.89 64.7591 43.978C64.5098 44.066 64.2458 44.11 63.9671 44.11ZM64.2641 43.065C64.6088 43.065 64.9131 42.9807 65.1771 42.812C65.4411 42.6433 65.6465 42.4123 65.7931 42.119C65.9471 41.8183 66.0241 41.4773 66.0241 41.096C66.0241 40.722 65.9471 40.3883 65.7931 40.095C65.6465 39.8017 65.4411 39.5707 65.1771 39.402C64.9131 39.2333 64.6088 39.149 64.2641 39.149C63.9268 39.149 63.6261 39.2333 63.3621 39.402C63.1055 39.5707 62.9001 39.8017 62.7461 40.095C62.5995 40.3883 62.5261 40.722 62.5261 41.096C62.5261 41.4773 62.5995 41.8183 62.7461 42.119C62.9001 42.4123 63.1055 42.6433 63.3621 42.812C63.6261 42.9807 63.9268 43.065 64.2641 43.065Z" fill="black"/>
</svg>
