<svg width="97" height="49" viewBox="0 0 97 49" fill="none" xmlns="http://www.w3.org/2000/svg">
<path d="M10.5 0H31L86 10L95.5 19.5L97 39.5L89 48L19.5 48.5L10.5 46L1.5 24.5L0.5 10L10.5 0Z" fill="#FF0000" fill-opacity="0.31"/>
<path d="M18.0657 4.5H12.9343C12.5349 4.5 12.2967 4.94507 12.5182 5.27735L13.916 7.37404C13.9708 7.45617 14 7.55268 14 7.65139V9V13C14 13.2761 13.7761 13.5 13.5 13.5H9.5H6.65139C6.55268 13.5 6.45617 13.4708 6.37404 13.416L4.27735 12.0182C3.94507 11.7967 3.5 12.0349 3.5 12.4343V17.5657C3.5 17.9651 3.94507 18.2033 4.27735 17.9818L6.37404 16.584C6.45617 16.5292 6.55268 16.5 6.65139 16.5H9.5H13.5C13.7761 16.5 14 16.7239 14 17V20.5V36.382C14 36.4596 13.9819 36.5361 13.9472 36.6056L12.8618 38.7764C12.6956 39.1088 12.9373 39.5 13.309 39.5H17.691C18.0627 39.5 18.3044 39.1088 18.1382 38.7764L17.0528 36.6056C17.0181 36.5361 17 36.4596 17 36.382V20.5V17C17 16.7239 17.2239 16.5 17.5 16.5H21.5H24.3486C24.4473 16.5 24.5438 16.5292 24.626 16.584L26.7227 17.9818C27.0549 18.2033 27.5 17.9651 27.5 17.5657V12.4343C27.5 12.0349 27.0549 11.7967 26.7227 12.0182L24.626 13.416C24.5438 13.4708 24.4473 13.5 24.3486 13.5H21.5H17.5C17.2239 13.5 17 13.2761 17 13V9V7.65139C17 7.55268 17.0292 7.45617 17.084 7.37404L18.4818 5.27735C18.7033 4.94507 18.4651 4.5 18.0657 4.5Z" fill="#4F4533"/>
<path d="M14 9V13C14 13.2761 13.7761 13.5 13.5 13.5H9.5M14 9V7.65139C14 7.55268 13.9708 7.45617 13.916 7.37404L12.5182 5.27735C12.2967 4.94507 12.5349 4.5 12.9343 4.5H18.0657C18.4651 4.5 18.7033 4.94507 18.4818 5.27735L17.084 7.37404C17.0292 7.45617 17 7.55268 17 7.65139V9M14 9C11.5 9 9.5 11 9.5 13.5M9.5 13.5H6.65139C6.55268 13.5 6.45617 13.4708 6.37404 13.416L4.27735 12.0182C3.94507 11.7967 3.5 12.0349 3.5 12.4343V17.5657C3.5 17.9651 3.94507 18.2033 4.27735 17.9818L6.37404 16.584C6.45617 16.5292 6.55268 16.5 6.65139 16.5H9.5M17 9V13C17 13.2761 17.2239 13.5 17.5 13.5H21.5M17 9C19.5 9 21.5 11 21.5 13.5M21.5 13.5H24.3486C24.4473 13.5 24.5438 13.4708 24.626 13.416L26.7227 12.0182C27.0549 11.7967 27.5 12.0349 27.5 12.4343V17.5657C27.5 17.9651 27.0549 18.2033 26.7226 17.9818L24.626 16.584C24.5438 16.5292 24.4473 16.5 24.3486 16.5H21.5M21.5 16.5H17.5C17.2239 16.5 17 16.7239 17 17V20.5M21.5 16.5C21.5 19 19.5 20.5 17 20.5M17 20.5V36.382C17 36.4596 17.0181 36.5361 17.0528 36.6056L18.1382 38.7764C18.3044 39.1088 18.0627 39.5 17.691 39.5H13.309C12.9373 39.5 12.6956 39.1088 12.8618 38.7764L13.9472 36.6056C13.9819 36.5361 14 36.4596 14 36.382V20.5M14 20.5V17C14 16.7239 13.7761 16.5 13.5 16.5H9.5M14 20.5C11.5 20.5 9.5 19 9.5 16.5" stroke="black"/>
<path d="M46.9712 15.11C46.4652 15.11 46.0068 15.0513 45.5962 14.934C45.1928 14.8093 44.8335 14.6333 44.5182 14.406C44.2028 14.1713 43.9205 13.8963 43.6712 13.581L44.8042 12.294C45.1708 12.7853 45.5375 13.1153 45.9042 13.284C46.2782 13.4527 46.6632 13.537 47.0592 13.537C47.2572 13.537 47.4368 13.5113 47.5982 13.46C47.7595 13.4087 47.8842 13.3353 47.9722 13.24C48.0602 13.1373 48.1042 13.0127 48.1042 12.866C48.1042 12.756 48.0748 12.657 48.0162 12.569C47.9648 12.481 47.8915 12.404 47.7962 12.338C47.7008 12.272 47.5872 12.2133 47.4552 12.162C47.3232 12.1033 47.1838 12.0557 47.0372 12.019C46.8905 11.975 46.7402 11.9383 46.5862 11.909C46.1608 11.8137 45.7905 11.6963 45.4752 11.557C45.1598 11.4177 44.8958 11.249 44.6832 11.051C44.4778 10.8457 44.3238 10.6147 44.2212 10.358C44.1185 10.094 44.0672 9.80067 44.0672 9.478C44.0672 9.13333 44.1442 8.818 44.2982 8.532C44.4595 8.23867 44.6722 7.98933 44.9362 7.784C45.2075 7.57133 45.5192 7.41 45.8712 7.3C46.2232 7.18267 46.5898 7.124 46.9712 7.124C47.4772 7.124 47.9098 7.179 48.2692 7.289C48.6358 7.39167 48.9475 7.542 49.2042 7.74C49.4682 7.938 49.6918 8.17633 49.8752 8.455L48.7202 9.566C48.5662 9.37533 48.3975 9.21767 48.2142 9.093C48.0382 8.96833 47.8475 8.873 47.6422 8.807C47.4442 8.741 47.2388 8.708 47.0262 8.708C46.8062 8.708 46.6155 8.73733 46.4542 8.796C46.3002 8.84733 46.1792 8.92433 46.0912 9.027C46.0032 9.12233 45.9592 9.23967 45.9592 9.379C45.9592 9.50367 45.9958 9.61 46.0692 9.698C46.1425 9.786 46.2415 9.86667 46.3662 9.94C46.4908 10.006 46.6338 10.0647 46.7952 10.116C46.9565 10.16 47.1252 10.1967 47.3012 10.226C47.7045 10.3067 48.0675 10.413 48.3902 10.545C48.7202 10.677 49.0025 10.8383 49.2372 11.029C49.4792 11.2197 49.6625 11.447 49.7872 11.711C49.9192 11.9677 49.9852 12.2683 49.9852 12.613C49.9852 13.1483 49.8532 13.603 49.5892 13.977C49.3325 14.3437 48.9768 14.626 48.5222 14.824C48.0748 15.0147 47.5578 15.11 46.9712 15.11ZM51.3909 15V7.3H53.2609V13.35H56.6929V15H51.3909ZM61.3771 15.11C60.7978 15.11 60.2625 15.0147 59.7711 14.824C59.2871 14.626 58.8655 14.351 58.5061 13.999C58.1468 13.6397 57.8681 13.218 57.6701 12.734C57.4795 12.2427 57.3841 11.7037 57.3841 11.117C57.3841 10.545 57.4868 10.017 57.6921 9.533C57.8975 9.049 58.1798 8.631 58.5391 8.279C58.9058 7.91967 59.3348 7.641 59.8261 7.443C60.3248 7.245 60.8675 7.146 61.4541 7.146C61.8208 7.146 62.1801 7.19367 62.5321 7.289C62.8841 7.38433 63.2105 7.52733 63.5111 7.718C63.8191 7.90133 64.0831 8.12133 64.3031 8.378L63.1591 9.687C63.0051 9.52567 62.8401 9.38633 62.6641 9.269C62.4955 9.14433 62.3085 9.049 62.1031 8.983C61.8978 8.917 61.6778 8.884 61.4431 8.884C61.1498 8.884 60.8711 8.939 60.6071 9.049C60.3505 9.15167 60.1231 9.302 59.9251 9.5C59.7345 9.69067 59.5841 9.92533 59.4741 10.204C59.3641 10.4827 59.3091 10.7943 59.3091 11.139C59.3091 11.4763 59.3641 11.7843 59.4741 12.063C59.5841 12.3343 59.7381 12.569 59.9361 12.767C60.1341 12.965 60.3725 13.1153 60.6511 13.218C60.9371 13.3207 61.2525 13.372 61.5971 13.372C61.8318 13.372 62.0555 13.339 62.2681 13.273C62.4808 13.207 62.6751 13.119 62.8511 13.009C63.0345 12.8917 63.1958 12.7597 63.3351 12.613L64.2371 14.043C64.0538 14.2483 63.8081 14.4317 63.5001 14.593C63.1995 14.7543 62.8621 14.8827 62.4881 14.978C62.1215 15.066 61.7511 15.11 61.3771 15.11ZM24.9657 29.11C24.4303 29.11 23.939 29.0147 23.4917 28.824C23.0443 28.6333 22.6557 28.362 22.3257 28.01C21.9957 27.6507 21.739 27.229 21.5557 26.745C21.3797 26.261 21.2917 25.7293 21.2917 25.15C21.2917 24.6 21.387 24.0903 21.5777 23.621C21.7757 23.1443 22.047 22.7263 22.3917 22.367C22.7363 22.0077 23.136 21.729 23.5907 21.531C24.0453 21.333 24.5367 21.234 25.0647 21.234C25.4387 21.234 25.8017 21.2927 26.1537 21.41C26.513 21.52 26.8357 21.6777 27.1217 21.883C27.415 22.081 27.6533 22.3083 27.8367 22.565L27.0447 23.39C26.832 23.1773 26.6157 23.0013 26.3957 22.862C26.183 22.7153 25.963 22.6053 25.7357 22.532C25.5157 22.4587 25.292 22.422 25.0647 22.422C24.7053 22.422 24.368 22.4917 24.0527 22.631C23.7447 22.763 23.4733 22.95 23.2387 23.192C23.0113 23.434 22.8317 23.7237 22.6997 24.061C22.5677 24.391 22.5017 24.754 22.5017 25.15C22.5017 25.568 22.564 25.9493 22.6887 26.294C22.8207 26.6313 23.004 26.921 23.2387 27.163C23.4733 27.405 23.752 27.592 24.0747 27.724C24.4047 27.8487 24.7677 27.911 25.1637 27.911C25.4057 27.911 25.644 27.878 25.8787 27.812C26.1133 27.746 26.3333 27.6507 26.5387 27.526C26.744 27.4013 26.931 27.2547 27.0997 27.086L27.6937 28.054C27.525 28.252 27.294 28.4317 27.0007 28.593C26.7147 28.7543 26.392 28.8827 26.0327 28.978C25.6807 29.066 25.325 29.11 24.9657 29.11ZM31.2435 29.11C30.7668 29.11 30.3305 28.978 29.9345 28.714C29.5458 28.45 29.2342 28.0907 28.9995 27.636C28.7648 27.1813 28.6475 26.668 28.6475 26.096C28.6475 25.5167 28.7648 25.0033 28.9995 24.556C29.2415 24.1013 29.5642 23.7457 29.9675 23.489C30.3782 23.2323 30.8365 23.104 31.3425 23.104C31.6432 23.104 31.9182 23.148 32.1675 23.236C32.4168 23.324 32.6332 23.4487 32.8165 23.61C33.0072 23.764 33.1612 23.9437 33.2785 24.149C33.4032 24.3543 33.4802 24.5743 33.5095 24.809L33.2565 24.721V23.225H34.4005V29H33.2565V27.625L33.5205 27.548C33.4765 27.746 33.3848 27.9403 33.2455 28.131C33.1135 28.3143 32.9412 28.4793 32.7285 28.626C32.5232 28.7727 32.2922 28.89 32.0355 28.978C31.7862 29.066 31.5222 29.11 31.2435 29.11ZM31.5405 28.065C31.8852 28.065 32.1895 27.9807 32.4535 27.812C32.7175 27.6433 32.9228 27.4123 33.0695 27.119C33.2235 26.8183 33.3005 26.4773 33.3005 26.096C33.3005 25.722 33.2235 25.3883 33.0695 25.095C32.9228 24.8017 32.7175 24.5707 32.4535 24.402C32.1895 24.2333 31.8852 24.149 31.5405 24.149C31.2032 24.149 30.9025 24.2333 30.6385 24.402C30.3818 24.5707 30.1765 24.8017 30.0225 25.095C29.8758 25.3883 29.8025 25.722 29.8025 26.096C29.8025 26.4773 29.8758 26.8183 30.0225 27.119C30.1765 27.4123 30.3818 27.6433 30.6385 27.812C30.9025 27.9807 31.2032 28.065 31.5405 28.065ZM36.6974 29V21.751H37.8304V29H36.6974ZM35.4984 24.325V23.225H39.1724V24.325H35.4984ZM40.2041 29V20.86H41.3371V24.413L41.1391 24.545C41.2124 24.2883 41.3554 24.0537 41.5681 23.841C41.7808 23.621 42.0338 23.445 42.3271 23.313C42.6204 23.1737 42.9211 23.104 43.2291 23.104C43.6691 23.104 44.0358 23.192 44.3291 23.368C44.6224 23.5367 44.8424 23.797 44.9891 24.149C45.1358 24.501 45.2091 24.9447 45.2091 25.48V29H44.0761V25.557C44.0761 25.227 44.0321 24.9557 43.9441 24.743C43.8561 24.523 43.7204 24.3653 43.5371 24.27C43.3538 24.1673 43.1264 24.1233 42.8551 24.138C42.6351 24.138 42.4334 24.1747 42.2501 24.248C42.0668 24.314 41.9054 24.4093 41.7661 24.534C41.6341 24.6587 41.5278 24.8053 41.4471 24.974C41.3738 25.1353 41.3371 25.3113 41.3371 25.502V29H40.7761C40.6808 29 40.5854 29 40.4901 29C40.3948 29 40.2994 29 40.2041 29ZM49.4411 29.11C48.8471 29.11 48.3191 28.9853 47.8571 28.736C47.4024 28.4793 47.0431 28.131 46.7791 27.691C46.5224 27.251 46.3941 26.745 46.3941 26.173C46.3941 25.7183 46.4674 25.304 46.6141 24.93C46.7608 24.556 46.9624 24.2333 47.2191 23.962C47.4831 23.6833 47.7948 23.4707 48.1541 23.324C48.5208 23.17 48.9168 23.093 49.3421 23.093C49.7161 23.093 50.0644 23.1663 50.3871 23.313C50.7098 23.4523 50.9884 23.6467 51.2231 23.896C51.4651 24.1453 51.6484 24.4423 51.7731 24.787C51.9051 25.1243 51.9674 25.4947 51.9601 25.898L51.9491 26.382H47.2301L46.9771 25.48H50.9701L50.8051 25.667V25.403C50.7831 25.161 50.7024 24.9447 50.5631 24.754C50.4238 24.5633 50.2478 24.413 50.0351 24.303C49.8224 24.193 49.5914 24.138 49.3421 24.138C48.9461 24.138 48.6124 24.215 48.3411 24.369C48.0698 24.5157 47.8644 24.7357 47.7251 25.029C47.5858 25.315 47.5161 25.6707 47.5161 26.096C47.5161 26.4993 47.6004 26.8513 47.7691 27.152C47.9378 27.4453 48.1761 27.6727 48.4841 27.834C48.7921 27.9953 49.1478 28.076 49.5511 28.076C49.8371 28.076 50.1011 28.0283 50.3431 27.933C50.5924 27.8377 50.8601 27.6653 51.1461 27.416L51.7181 28.219C51.5421 28.395 51.3258 28.549 51.0691 28.681C50.8198 28.813 50.5521 28.9193 50.2661 29C49.9874 29.0733 49.7124 29.11 49.4411 29.11ZM55.6004 29.11C55.0724 29.11 54.5994 28.9817 54.1814 28.725C53.7707 28.461 53.4444 28.1053 53.2024 27.658C52.9604 27.2033 52.8394 26.6863 52.8394 26.107C52.8394 25.5277 52.9567 25.0143 53.1914 24.567C53.4334 24.1123 53.7597 23.7567 54.1704 23.5C54.5811 23.236 55.0467 23.104 55.5674 23.104C55.8534 23.104 56.1284 23.1517 56.3924 23.247C56.6637 23.335 56.9057 23.4597 57.1184 23.621C57.3311 23.775 57.4961 23.9473 57.6134 24.138C57.7381 24.3213 57.8004 24.5083 57.8004 24.699L57.4704 24.721V20.86H58.6034V29H57.4704V27.625H57.6904C57.6904 27.801 57.6317 27.977 57.5144 28.153C57.3971 28.3217 57.2394 28.4793 57.0414 28.626C56.8507 28.7727 56.6271 28.89 56.3704 28.978C56.1211 29.066 55.8644 29.11 55.6004 29.11ZM55.7544 28.131C56.0991 28.131 56.4034 28.043 56.6674 27.867C56.9314 27.691 57.1367 27.4527 57.2834 27.152C57.4374 26.844 57.5144 26.4957 57.5144 26.107C57.5144 25.7183 57.4374 25.3737 57.2834 25.073C57.1367 24.765 56.9314 24.523 56.6674 24.347C56.4034 24.171 56.0991 24.083 55.7544 24.083C55.4097 24.083 55.1054 24.171 54.8414 24.347C54.5774 24.523 54.3684 24.765 54.2144 25.073C54.0677 25.3737 53.9944 25.7183 53.9944 26.107C53.9944 26.4957 54.0677 26.844 54.2144 27.152C54.3684 27.4527 54.5774 27.691 54.8414 27.867C55.1054 28.043 55.4097 28.131 55.7544 28.131ZM60.1631 29V23.225H61.3071V25.04L61.1971 24.6C61.2778 24.3213 61.4134 24.0683 61.6041 23.841C61.8021 23.6137 62.0258 23.434 62.2751 23.302C62.5318 23.17 62.7958 23.104 63.0671 23.104C63.1918 23.104 63.3091 23.115 63.4191 23.137C63.5364 23.159 63.6281 23.1847 63.6941 23.214L63.3971 24.446C63.3091 24.4093 63.2101 24.38 63.1001 24.358C62.9974 24.3287 62.8948 24.314 62.7921 24.314C62.5941 24.314 62.4034 24.3543 62.2201 24.435C62.0441 24.5083 61.8864 24.6147 61.7471 24.754C61.6151 24.886 61.5088 25.0437 61.4281 25.227C61.3474 25.403 61.3071 25.5973 61.3071 25.81V29H60.1631ZM66.5745 29.11C66.0979 29.11 65.6615 28.978 65.2655 28.714C64.8769 28.45 64.5652 28.0907 64.3305 27.636C64.0959 27.1813 63.9785 26.668 63.9785 26.096C63.9785 25.5167 64.0959 25.0033 64.3305 24.556C64.5725 24.1013 64.8952 23.7457 65.2985 23.489C65.7092 23.2323 66.1675 23.104 66.6735 23.104C66.9742 23.104 67.2492 23.148 67.4985 23.236C67.7479 23.324 67.9642 23.4487 68.1475 23.61C68.3382 23.764 68.4922 23.9437 68.6095 24.149C68.7342 24.3543 68.8112 24.5743 68.8405 24.809L68.5875 24.721V23.225H69.7315V29H68.5875V27.625L68.8515 27.548C68.8075 27.746 68.7159 27.9403 68.5765 28.131C68.4445 28.3143 68.2722 28.4793 68.0595 28.626C67.8542 28.7727 67.6232 28.89 67.3665 28.978C67.1172 29.066 66.8532 29.11 66.5745 29.11ZM66.8715 28.065C67.2162 28.065 67.5205 27.9807 67.7845 27.812C68.0485 27.6433 68.2539 27.4123 68.4005 27.119C68.5545 26.8183 68.6315 26.4773 68.6315 26.096C68.6315 25.722 68.5545 25.3883 68.4005 25.095C68.2539 24.8017 68.0485 24.5707 67.7845 24.402C67.5205 24.2333 67.2162 24.149 66.8715 24.149C66.5342 24.149 66.2335 24.2333 65.9695 24.402C65.7129 24.5707 65.5075 24.8017 65.3535 25.095C65.2069 25.3883 65.1335 25.722 65.1335 26.096C65.1335 26.4773 65.2069 26.8183 65.3535 27.119C65.5075 27.4123 65.7129 27.6433 65.9695 27.812C66.2335 27.9807 66.5342 28.065 66.8715 28.065ZM71.3355 29V20.86H72.4685V29H71.3355ZM79.7532 29.11C79.1886 29.11 78.6826 28.9817 78.2352 28.725C77.7952 28.461 77.4469 28.1053 77.1902 27.658C76.9336 27.2033 76.8052 26.6863 76.8052 26.107C76.8052 25.5277 76.9336 25.0143 77.1902 24.567C77.4469 24.1123 77.7952 23.7567 78.2352 23.5C78.6826 23.236 79.1886 23.104 79.7532 23.104C80.3106 23.104 80.8092 23.236 81.2492 23.5C81.6966 23.7567 82.0486 24.1123 82.3052 24.567C82.5619 25.0143 82.6902 25.5277 82.6902 26.107C82.6902 26.6863 82.5619 27.2033 82.3052 27.658C82.0486 28.1053 81.6966 28.461 81.2492 28.725C80.8092 28.9817 80.3106 29.11 79.7532 29.11ZM79.7532 28.076C80.0979 28.076 80.4059 27.9917 80.6772 27.823C80.9486 27.647 81.1612 27.4123 81.3152 27.119C81.4692 26.8183 81.5426 26.481 81.5352 26.107C81.5426 25.7257 81.4692 25.3883 81.3152 25.095C81.1612 24.7943 80.9486 24.5597 80.6772 24.391C80.4059 24.2223 80.0979 24.138 79.7532 24.138C79.4086 24.138 79.0969 24.226 78.8182 24.402C78.5469 24.5707 78.3342 24.8053 78.1802 25.106C78.0262 25.3993 77.9529 25.733 77.9602 26.107C77.9529 26.481 78.0262 26.8183 78.1802 27.119C78.3342 27.4123 78.5469 27.647 78.8182 27.823C79.0969 27.9917 79.4086 28.076 79.7532 28.076ZM84.337 29V22.576C84.337 22.246 84.4103 21.9527 84.557 21.696C84.7036 21.4393 84.9053 21.2377 85.162 21.091C85.4186 20.9443 85.7156 20.871 86.053 20.871C86.2876 20.871 86.5076 20.915 86.713 21.003C86.9183 21.091 87.0833 21.2083 87.208 21.355L86.823 22.224C86.7276 22.136 86.6213 22.0663 86.504 22.015C86.394 21.9563 86.2876 21.927 86.185 21.927C86.031 21.927 85.899 21.9527 85.789 22.004C85.6863 22.048 85.6093 22.1213 85.558 22.224C85.5066 22.3193 85.481 22.4367 85.481 22.576V29H84.909C84.8136 29 84.7183 29 84.623 29C84.5276 29 84.4323 29 84.337 29ZM83.413 24.369V23.324H86.845V24.369H83.413ZM21.0138 43V35.751H22.1468V43H21.0138ZM19.8148 38.325V37.225H23.4888V38.325H19.8148ZM24.5205 43V34.86H25.6535V38.413L25.4555 38.545C25.5288 38.2883 25.6718 38.0537 25.8845 37.841C26.0972 37.621 26.3502 37.445 26.6435 37.313C26.9368 37.1737 27.2375 37.104 27.5455 37.104C27.9855 37.104 28.3522 37.192 28.6455 37.368C28.9388 37.5367 29.1588 37.797 29.3055 38.149C29.4522 38.501 29.5255 38.9447 29.5255 39.48V43H28.3925V39.557C28.3925 39.227 28.3485 38.9557 28.2605 38.743C28.1725 38.523 28.0368 38.3653 27.8535 38.27C27.6702 38.1673 27.4428 38.1233 27.1715 38.138C26.9515 38.138 26.7498 38.1747 26.5665 38.248C26.3832 38.314 26.2218 38.4093 26.0825 38.534C25.9505 38.6587 25.8442 38.8053 25.7635 38.974C25.6902 39.1353 25.6535 39.3113 25.6535 39.502V43H25.0925C24.9972 43 24.9018 43 24.8065 43C24.7112 43 24.6158 43 24.5205 43ZM33.7575 43.11C33.1635 43.11 32.6355 42.9853 32.1735 42.736C31.7188 42.4793 31.3595 42.131 31.0955 41.691C30.8388 41.251 30.7105 40.745 30.7105 40.173C30.7105 39.7183 30.7838 39.304 30.9305 38.93C31.0772 38.556 31.2788 38.2333 31.5355 37.962C31.7995 37.6833 32.1112 37.4707 32.4705 37.324C32.8372 37.17 33.2332 37.093 33.6585 37.093C34.0325 37.093 34.3808 37.1663 34.7035 37.313C35.0262 37.4523 35.3048 37.6467 35.5395 37.896C35.7815 38.1453 35.9648 38.4423 36.0895 38.787C36.2215 39.1243 36.2838 39.4947 36.2765 39.898L36.2655 40.382H31.5465L31.2935 39.48H35.2865L35.1215 39.667V39.403C35.0995 39.161 35.0188 38.9447 34.8795 38.754C34.7402 38.5633 34.5642 38.413 34.3515 38.303C34.1388 38.193 33.9078 38.138 33.6585 38.138C33.2625 38.138 32.9288 38.215 32.6575 38.369C32.3862 38.5157 32.1808 38.7357 32.0415 39.029C31.9022 39.315 31.8325 39.6707 31.8325 40.096C31.8325 40.4993 31.9168 40.8513 32.0855 41.152C32.2542 41.4453 32.4925 41.6727 32.8005 41.834C33.1085 41.9953 33.4642 42.076 33.8675 42.076C34.1535 42.076 34.4175 42.0283 34.6595 41.933C34.9088 41.8377 35.1765 41.6653 35.4625 41.416L36.0345 42.219C35.8585 42.395 35.6422 42.549 35.3855 42.681C35.1362 42.813 34.8685 42.9193 34.5825 43C34.3038 43.0733 34.0288 43.11 33.7575 43.11ZM40.8768 43V35.3H42.0428L44.8478 39.865L44.2868 39.854L47.1248 35.3H48.2248V43H47.0368V39.843C47.0368 39.183 47.0515 38.589 47.0808 38.061C47.1175 37.533 47.1762 37.0087 47.2568 36.488L47.4108 36.895L44.8918 40.789H44.1658L41.7238 36.939L41.8448 36.488C41.9255 36.9793 41.9805 37.4853 42.0098 38.006C42.0465 38.5193 42.0648 39.1317 42.0648 39.843V43H40.8768ZM52.3197 43.11C51.843 43.11 51.4067 42.978 51.0107 42.714C50.622 42.45 50.3103 42.0907 50.0757 41.636C49.841 41.1813 49.7237 40.668 49.7237 40.096C49.7237 39.5167 49.841 39.0033 50.0757 38.556C50.3177 38.1013 50.6403 37.7457 51.0437 37.489C51.4543 37.2323 51.9127 37.104 52.4187 37.104C52.7193 37.104 52.9943 37.148 53.2437 37.236C53.493 37.324 53.7093 37.4487 53.8927 37.61C54.0833 37.764 54.2373 37.9437 54.3547 38.149C54.4793 38.3543 54.5563 38.5743 54.5857 38.809L54.3327 38.721V37.225H55.4767V43H54.3327V41.625L54.5967 41.548C54.5527 41.746 54.461 41.9403 54.3217 42.131C54.1897 42.3143 54.0173 42.4793 53.8047 42.626C53.5993 42.7727 53.3683 42.89 53.1117 42.978C52.8623 43.066 52.5983 43.11 52.3197 43.11ZM52.6167 42.065C52.9613 42.065 53.2657 41.9807 53.5297 41.812C53.7937 41.6433 53.999 41.4123 54.1457 41.119C54.2997 40.8183 54.3767 40.4773 54.3767 40.096C54.3767 39.722 54.2997 39.3883 54.1457 39.095C53.999 38.8017 53.7937 38.5707 53.5297 38.402C53.2657 38.2333 52.9613 38.149 52.6167 38.149C52.2793 38.149 51.9787 38.2333 51.7147 38.402C51.458 38.5707 51.2527 38.8017 51.0987 39.095C50.952 39.3883 50.8787 39.722 50.8787 40.096C50.8787 40.4773 50.952 40.8183 51.0987 41.119C51.2527 41.4123 51.458 41.6433 51.7147 41.812C51.9787 41.9807 52.2793 42.065 52.6167 42.065ZM59.4676 43.11C58.9396 43.11 58.4666 42.9817 58.0486 42.725C57.6379 42.461 57.3116 42.1053 57.0696 41.658C56.8276 41.2033 56.7066 40.6863 56.7066 40.107C56.7066 39.5277 56.8239 39.0143 57.0586 38.567C57.3006 38.1123 57.6269 37.7567 58.0376 37.5C58.4483 37.236 58.9139 37.104 59.4346 37.104C59.7206 37.104 59.9956 37.1517 60.2596 37.247C60.5309 37.335 60.7729 37.4597 60.9856 37.621C61.1983 37.775 61.3633 37.9473 61.4806 38.138C61.6053 38.3213 61.6676 38.5083 61.6676 38.699L61.3376 38.721V34.86H62.4706V43H61.3376V41.625H61.5576C61.5576 41.801 61.4989 41.977 61.3816 42.153C61.2643 42.3217 61.1066 42.4793 60.9086 42.626C60.7179 42.7727 60.4943 42.89 60.2376 42.978C59.9883 43.066 59.7316 43.11 59.4676 43.11ZM59.6216 42.131C59.9663 42.131 60.2706 42.043 60.5346 41.867C60.7986 41.691 61.0039 41.4527 61.1506 41.152C61.3046 40.844 61.3816 40.4957 61.3816 40.107C61.3816 39.7183 61.3046 39.3737 61.1506 39.073C61.0039 38.765 60.7986 38.523 60.5346 38.347C60.2706 38.171 59.9663 38.083 59.6216 38.083C59.2769 38.083 58.9726 38.171 58.7086 38.347C58.4446 38.523 58.2356 38.765 58.0816 39.073C57.9349 39.3737 57.8616 39.7183 57.8616 40.107C57.8616 40.4957 57.9349 40.844 58.0816 41.152C58.2356 41.4527 58.4446 41.691 58.7086 41.867C58.9726 42.043 59.2769 42.131 59.6216 42.131ZM66.7253 43.11C66.1313 43.11 65.6033 42.9853 65.1413 42.736C64.6866 42.4793 64.3273 42.131 64.0633 41.691C63.8066 41.251 63.6783 40.745 63.6783 40.173C63.6783 39.7183 63.7516 39.304 63.8983 38.93C64.0449 38.556 64.2466 38.2333 64.5033 37.962C64.7673 37.6833 65.0789 37.4707 65.4383 37.324C65.8049 37.17 66.2009 37.093 66.6263 37.093C67.0003 37.093 67.3486 37.1663 67.6713 37.313C67.9939 37.4523 68.2726 37.6467 68.5073 37.896C68.7493 38.1453 68.9326 38.4423 69.0573 38.787C69.1893 39.1243 69.2516 39.4947 69.2443 39.898L69.2333 40.382H64.5143L64.2613 39.48H68.2543L68.0893 39.667V39.403C68.0673 39.161 67.9866 38.9447 67.8473 38.754C67.7079 38.5633 67.5319 38.413 67.3193 38.303C67.1066 38.193 66.8756 38.138 66.6263 38.138C66.2303 38.138 65.8966 38.215 65.6253 38.369C65.3539 38.5157 65.1486 38.7357 65.0093 39.029C64.8699 39.315 64.8003 39.6707 64.8003 40.096C64.8003 40.4993 64.8846 40.8513 65.0533 41.152C65.2219 41.4453 65.4603 41.6727 65.7683 41.834C66.0763 41.9953 66.4319 42.076 66.8353 42.076C67.1213 42.076 67.3853 42.0283 67.6273 41.933C67.8766 41.8377 68.1443 41.6653 68.4303 41.416L69.0023 42.219C68.8263 42.395 68.6099 42.549 68.3533 42.681C68.1039 42.813 67.8363 42.9193 67.5503 43C67.2716 43.0733 66.9966 43.11 66.7253 43.11ZM70.4976 43V34.86H71.6306V43H70.4976ZM73.4233 43V37.225H74.5563V43H73.4233ZM73.9733 35.949C73.7313 35.949 73.5443 35.8867 73.4123 35.762C73.2803 35.6373 73.2143 35.4613 73.2143 35.234C73.2143 35.0213 73.2803 34.849 73.4123 34.717C73.5517 34.585 73.7387 34.519 73.9733 34.519C74.2153 34.519 74.4023 34.5813 74.5343 34.706C74.6663 34.8307 74.7323 35.0067 74.7323 35.234C74.7323 35.4467 74.6627 35.619 74.5233 35.751C74.3913 35.883 74.208 35.949 73.9733 35.949ZM76.2979 43V37.225H77.4309V38.413L77.2329 38.545C77.3062 38.2883 77.4492 38.0537 77.6619 37.841C77.8745 37.621 78.1275 37.445 78.4209 37.313C78.7142 37.1737 79.0149 37.104 79.3229 37.104C79.7629 37.104 80.1295 37.192 80.4229 37.368C80.7162 37.5367 80.9362 37.797 81.0829 38.149C81.2295 38.501 81.3029 38.9447 81.3029 39.48V43H80.1699V39.557C80.1699 39.227 80.1259 38.9557 80.0379 38.743C79.9499 38.523 79.8142 38.3653 79.6309 38.27C79.4475 38.1673 79.2202 38.1233 78.9489 38.138C78.7289 38.138 78.5272 38.1747 78.3439 38.248C78.1605 38.314 77.9992 38.4093 77.8599 38.534C77.7279 38.6587 77.6215 38.8053 77.5409 38.974C77.4675 39.1353 77.4309 39.3113 77.4309 39.502V43H76.8699C76.7745 43 76.6792 43 76.5839 43C76.4885 43 76.3932 43 76.2979 43ZM85.5349 43.11C84.9409 43.11 84.4129 42.9853 83.9509 42.736C83.4962 42.4793 83.1369 42.131 82.8729 41.691C82.6162 41.251 82.4879 40.745 82.4879 40.173C82.4879 39.7183 82.5612 39.304 82.7079 38.93C82.8545 38.556 83.0562 38.2333 83.3129 37.962C83.5769 37.6833 83.8885 37.4707 84.2479 37.324C84.6145 37.17 85.0105 37.093 85.4359 37.093C85.8099 37.093 86.1582 37.1663 86.4809 37.313C86.8035 37.4523 87.0822 37.6467 87.3169 37.896C87.5589 38.1453 87.7422 38.4423 87.8669 38.787C87.9989 39.1243 88.0612 39.4947 88.0539 39.898L88.0429 40.382H83.3239L83.0709 39.48H87.0639L86.8989 39.667V39.403C86.8769 39.161 86.7962 38.9447 86.6569 38.754C86.5175 38.5633 86.3415 38.413 86.1289 38.303C85.9162 38.193 85.6852 38.138 85.4359 38.138C85.0399 38.138 84.7062 38.215 84.4349 38.369C84.1635 38.5157 83.9582 38.7357 83.8189 39.029C83.6795 39.315 83.6099 39.6707 83.6099 40.096C83.6099 40.4993 83.6942 40.8513 83.8629 41.152C84.0315 41.4453 84.2699 41.6727 84.5779 41.834C84.8859 41.9953 85.2415 42.076 85.6449 42.076C85.9309 42.076 86.1949 42.0283 86.4369 41.933C86.6862 41.8377 86.9539 41.6653 87.2399 41.416L87.8119 42.219C87.6359 42.395 87.4195 42.549 87.1629 42.681C86.9135 42.813 86.6459 42.9193 86.3599 43C86.0812 43.0733 85.8062 43.11 85.5349 43.11Z" fill="black"/>
</svg>
