<svg width="54" height="65" viewBox="0 0 54 65" fill="none" xmlns="http://www.w3.org/2000/svg">
<path d="M47.5 64.5H5.5V53.5L11.5 48.5V6.5L21.5 0.5H30.5L41.7042 8.5V46.5L48.5 55.5L47.5 64.5Z" fill="#FF0000" fill-opacity="0.31"/>
<path d="M29.0657 2.5H23.9343C23.5349 2.5 23.2967 2.94507 23.5182 3.27735L24.916 5.37404C24.9708 5.45617 25 5.55268 25 5.65139V7V11C25 11.2761 24.7761 11.5 24.5 11.5H20.5H17.6514C17.5527 11.5 17.4562 11.4708 17.374 11.416L15.2773 10.0182C14.9451 9.79671 14.5 10.0349 14.5 10.4343V15.5657C14.5 15.9651 14.9451 16.2033 15.2774 15.9818L17.374 14.584C17.4562 14.5292 17.5527 14.5 17.6514 14.5H20.5H24.5C24.7761 14.5 25 14.7239 25 15V18.5V34.382C25 34.4596 24.9819 34.5361 24.9472 34.6056L23.8618 36.7764C23.6956 37.1088 23.9373 37.5 24.309 37.5H28.691C29.0627 37.5 29.3044 37.1088 29.1382 36.7764L28.0528 34.6056C28.0181 34.5361 28 34.4596 28 34.382V18.5V15C28 14.7239 28.2239 14.5 28.5 14.5H32.5H35.3486C35.4473 14.5 35.5438 14.5292 35.626 14.584L37.7227 15.9818C38.0549 16.2033 38.5 15.9651 38.5 15.5657V10.4343C38.5 10.0349 38.0549 9.79671 37.7227 10.0182L35.626 11.416C35.5438 11.4708 35.4473 11.5 35.3486 11.5H32.5H28.5C28.2239 11.5 28 11.2761 28 11V7V5.65139C28 5.55268 28.0292 5.45617 28.084 5.37404L29.4818 3.27735C29.7033 2.94507 29.4651 2.5 29.0657 2.5Z" fill="#4F4533"/>
<path d="M25 7V11C25 11.2761 24.7761 11.5 24.5 11.5H20.5M25 7V5.65139C25 5.55268 24.9708 5.45617 24.916 5.37404L23.5182 3.27735C23.2967 2.94507 23.5349 2.5 23.9343 2.5H29.0657C29.4651 2.5 29.7033 2.94507 29.4818 3.27735L28.084 5.37404C28.0292 5.45617 28 5.55268 28 5.65139V7M25 7C22.5 7 20.5 9 20.5 11.5M20.5 11.5H17.6514C17.5527 11.5 17.4562 11.4708 17.374 11.416L15.2773 10.0182C14.9451 9.79671 14.5 10.0349 14.5 10.4343V15.5657C14.5 15.9651 14.9451 16.2033 15.2774 15.9818L17.374 14.584C17.4562 14.5292 17.5527 14.5 17.6514 14.5H20.5M28 7V11C28 11.2761 28.2239 11.5 28.5 11.5H32.5M28 7C30.5 7 32.5 9 32.5 11.5M32.5 11.5H35.3486C35.4473 11.5 35.5438 11.4708 35.626 11.416L37.7227 10.0182C38.0549 9.79671 38.5 10.0349 38.5 10.4343V15.5657C38.5 15.9651 38.0549 16.2033 37.7226 15.9818L35.626 14.584C35.5438 14.5292 35.4473 14.5 35.3486 14.5H32.5M32.5 14.5H28.5C28.2239 14.5 28 14.7239 28 15V18.5M32.5 14.5C32.5 17 30.5 18.5 28 18.5M28 18.5V34.382C28 34.4596 28.0181 34.5361 28.0528 34.6056L29.1382 36.7764C29.3044 37.1088 29.0627 37.5 28.691 37.5H24.309C23.9373 37.5 23.6956 37.1088 23.8618 36.7764L24.9472 34.6056C24.9819 34.5361 25 34.4596 25 34.382V18.5M25 18.5V15C25 14.7239 24.7761 14.5 24.5 14.5H20.5M25 18.5C22.5 18.5 20.5 17 20.5 14.5" stroke="black"/>
<path d="M19.9712 47.11C19.4652 47.11 19.0068 47.0513 18.5962 46.934C18.1928 46.8093 17.8335 46.6333 17.5182 46.406C17.2028 46.1713 16.9205 45.8963 16.6712 45.581L17.8042 44.294C18.1708 44.7853 18.5375 45.1153 18.9042 45.284C19.2782 45.4527 19.6632 45.537 20.0592 45.537C20.2572 45.537 20.4368 45.5113 20.5982 45.46C20.7595 45.4087 20.8842 45.3353 20.9722 45.24C21.0602 45.1373 21.1042 45.0127 21.1042 44.866C21.1042 44.756 21.0748 44.657 21.0162 44.569C20.9648 44.481 20.8915 44.404 20.7962 44.338C20.7008 44.272 20.5872 44.2133 20.4552 44.162C20.3232 44.1033 20.1838 44.0557 20.0372 44.019C19.8905 43.975 19.7402 43.9383 19.5862 43.909C19.1608 43.8137 18.7905 43.6963 18.4752 43.557C18.1598 43.4177 17.8958 43.249 17.6832 43.051C17.4778 42.8457 17.3238 42.6147 17.2212 42.358C17.1185 42.094 17.0672 41.8007 17.0672 41.478C17.0672 41.1333 17.1442 40.818 17.2982 40.532C17.4595 40.2387 17.6722 39.9893 17.9362 39.784C18.2075 39.5713 18.5192 39.41 18.8712 39.3C19.2232 39.1827 19.5898 39.124 19.9712 39.124C20.4772 39.124 20.9098 39.179 21.2692 39.289C21.6358 39.3917 21.9475 39.542 22.2042 39.74C22.4682 39.938 22.6918 40.1763 22.8752 40.455L21.7202 41.566C21.5662 41.3753 21.3975 41.2177 21.2142 41.093C21.0382 40.9683 20.8475 40.873 20.6422 40.807C20.4442 40.741 20.2388 40.708 20.0262 40.708C19.8062 40.708 19.6155 40.7373 19.4542 40.796C19.3002 40.8473 19.1792 40.9243 19.0912 41.027C19.0032 41.1223 18.9592 41.2397 18.9592 41.379C18.9592 41.5037 18.9958 41.61 19.0692 41.698C19.1425 41.786 19.2415 41.8667 19.3662 41.94C19.4908 42.006 19.6338 42.0647 19.7952 42.116C19.9565 42.16 20.1252 42.1967 20.3012 42.226C20.7045 42.3067 21.0675 42.413 21.3902 42.545C21.7202 42.677 22.0025 42.8383 22.2372 43.029C22.4792 43.2197 22.6625 43.447 22.7872 43.711C22.9192 43.9677 22.9852 44.2683 22.9852 44.613C22.9852 45.1483 22.8532 45.603 22.5892 45.977C22.3325 46.3437 21.9768 46.626 21.5222 46.824C21.0748 47.0147 20.5578 47.11 19.9712 47.11ZM24.3909 47V39.3H26.2609V45.35H29.6929V47H24.3909ZM34.3771 47.11C33.7978 47.11 33.2625 47.0147 32.7711 46.824C32.2871 46.626 31.8655 46.351 31.5061 45.999C31.1468 45.6397 30.8681 45.218 30.6701 44.734C30.4795 44.2427 30.3841 43.7037 30.3841 43.117C30.3841 42.545 30.4868 42.017 30.6921 41.533C30.8975 41.049 31.1798 40.631 31.5391 40.279C31.9058 39.9197 32.3348 39.641 32.8261 39.443C33.3248 39.245 33.8675 39.146 34.4541 39.146C34.8208 39.146 35.1801 39.1937 35.5321 39.289C35.8841 39.3843 36.2105 39.5273 36.5111 39.718C36.8191 39.9013 37.0831 40.1213 37.3031 40.378L36.1591 41.687C36.0051 41.5257 35.8401 41.3863 35.6641 41.269C35.4955 41.1443 35.3085 41.049 35.1031 40.983C34.8978 40.917 34.6778 40.884 34.4431 40.884C34.1498 40.884 33.8711 40.939 33.6071 41.049C33.3505 41.1517 33.1231 41.302 32.9251 41.5C32.7345 41.6907 32.5841 41.9253 32.4741 42.204C32.3641 42.4827 32.3091 42.7943 32.3091 43.139C32.3091 43.4763 32.3641 43.7843 32.4741 44.063C32.5841 44.3343 32.7381 44.569 32.9361 44.767C33.1341 44.965 33.3725 45.1153 33.6511 45.218C33.9371 45.3207 34.2525 45.372 34.5971 45.372C34.8318 45.372 35.0555 45.339 35.2681 45.273C35.4808 45.207 35.6751 45.119 35.8511 45.009C36.0345 44.8917 36.1958 44.7597 36.3351 44.613L37.2371 46.043C37.0538 46.2483 36.8081 46.4317 36.5001 46.593C36.1995 46.7543 35.8621 46.8827 35.4881 46.978C35.1215 47.066 34.7511 47.11 34.3771 47.11ZM11.725 61.11C11.307 61.11 10.9183 61.055 10.559 60.945C10.207 60.835 9.88433 60.67 9.591 60.45C9.305 60.2227 9.04833 59.944 8.821 59.614L9.635 58.679C9.99433 59.1923 10.339 59.548 10.669 59.746C10.999 59.944 11.3913 60.043 11.846 60.043C12.1247 60.043 12.3777 59.999 12.605 59.911C12.8323 59.823 13.012 59.702 13.144 59.548C13.276 59.394 13.342 59.218 13.342 59.02C13.342 58.888 13.32 58.7633 13.276 58.646C13.232 58.5287 13.1623 58.4223 13.067 58.327C12.979 58.2317 12.8617 58.1437 12.715 58.063C12.5757 57.9823 12.4107 57.9127 12.22 57.854C12.0293 57.788 11.8093 57.733 11.56 57.689C11.164 57.6083 10.8193 57.502 10.526 57.37C10.2327 57.238 9.987 57.073 9.789 56.875C9.591 56.677 9.44433 56.4533 9.349 56.204C9.25366 55.9473 9.206 55.6613 9.206 55.346C9.206 55.038 9.272 54.752 9.404 54.488C9.54333 54.224 9.73033 53.9967 9.965 53.806C10.207 53.608 10.4893 53.4577 10.812 53.355C11.1347 53.245 11.483 53.19 11.857 53.19C12.253 53.19 12.616 53.2413 12.946 53.344C13.276 53.4467 13.5693 53.6007 13.826 53.806C14.0827 54.004 14.2953 54.2497 14.464 54.543L13.628 55.368C13.4813 55.126 13.3163 54.9243 13.133 54.763C12.9497 54.5943 12.748 54.4697 12.528 54.389C12.308 54.301 12.0733 54.257 11.824 54.257C11.538 54.257 11.2887 54.301 11.076 54.389C10.8633 54.477 10.6947 54.6017 10.57 54.763C10.4527 54.917 10.394 55.1003 10.394 55.313C10.394 55.467 10.4233 55.61 10.482 55.742C10.5407 55.8667 10.6287 55.9803 10.746 56.083C10.8707 56.1783 11.0357 56.2663 11.241 56.347C11.4463 56.4203 11.692 56.4863 11.978 56.545C12.3813 56.633 12.7407 56.7467 13.056 56.886C13.3713 57.018 13.639 57.1757 13.859 57.359C14.079 57.5423 14.244 57.7477 14.354 57.975C14.4713 58.2023 14.53 58.448 14.53 58.712C14.53 59.2033 14.4163 59.6287 14.189 59.988C13.9617 60.3473 13.639 60.626 13.221 60.824C12.803 61.0147 12.3043 61.11 11.725 61.11ZM16.6423 61V53.751H17.7753V61H16.6423ZM15.4433 56.325V55.225H19.1173V56.325H15.4433ZM20.6109 61.121C20.3689 61.121 20.1819 61.0513 20.0499 60.912C19.9179 60.7653 19.8519 60.56 19.8519 60.296C19.8519 60.054 19.9216 59.856 20.0609 59.702C20.2003 59.548 20.3836 59.471 20.6109 59.471C20.8529 59.471 21.0399 59.5443 21.1719 59.691C21.3039 59.8303 21.3699 60.032 21.3699 60.296C21.3699 60.538 21.3003 60.736 21.1609 60.89C21.0216 61.044 20.8383 61.121 20.6109 61.121ZM25.2179 61L28.1989 53.3H29.4089L32.3679 61H31.1029L29.3429 56.358C29.3209 56.3067 29.2769 56.182 29.2109 55.984C29.1522 55.786 29.0825 55.566 29.0019 55.324C28.9212 55.082 28.8479 54.862 28.7819 54.664C28.7159 54.4587 28.6719 54.3267 28.6499 54.268L28.9029 54.257C28.8589 54.3817 28.8039 54.5393 28.7379 54.73C28.6792 54.9207 28.6132 55.1223 28.5399 55.335C28.4739 55.5477 28.4079 55.7493 28.3419 55.94C28.2759 56.1233 28.2209 56.2773 28.1769 56.402L26.4279 61H25.2179ZM26.5379 59.086L26.9779 57.942H30.4759L30.9819 59.086H26.5379ZM33.437 61V55.225H34.57V56.413L34.372 56.545C34.4454 56.2883 34.5884 56.0537 34.801 55.841C35.0137 55.621 35.2667 55.445 35.56 55.313C35.8534 55.1737 36.154 55.104 36.462 55.104C36.902 55.104 37.2687 55.192 37.562 55.368C37.8554 55.5367 38.0754 55.797 38.222 56.149C38.3687 56.501 38.442 56.9447 38.442 57.48V61H37.309V57.557C37.309 57.227 37.265 56.9557 37.177 56.743C37.089 56.523 36.9534 56.3653 36.77 56.27C36.5867 56.1673 36.3594 56.1233 36.088 56.138C35.868 56.138 35.6664 56.1747 35.483 56.248C35.2997 56.314 35.1384 56.4093 34.999 56.534C34.867 56.6587 34.7607 56.8053 34.68 56.974C34.6067 57.1353 34.57 57.3113 34.57 57.502V61H34.009C33.9137 61 33.8184 61 33.723 61C33.6277 61 33.5324 61 33.437 61ZM39.979 61V55.225H41.112V56.413L40.914 56.545C40.9873 56.2883 41.1303 56.0537 41.343 55.841C41.5557 55.621 41.8087 55.445 42.102 55.313C42.3953 55.1737 42.696 55.104 43.004 55.104C43.444 55.104 43.8107 55.192 44.104 55.368C44.3973 55.5367 44.6173 55.797 44.764 56.149C44.9107 56.501 44.984 56.9447 44.984 57.48V61H43.851V57.557C43.851 57.227 43.807 56.9557 43.719 56.743C43.631 56.523 43.4953 56.3653 43.312 56.27C43.1287 56.1673 42.9013 56.1233 42.63 56.138C42.41 56.138 42.2083 56.1747 42.025 56.248C41.8417 56.314 41.6803 56.4093 41.541 56.534C41.409 56.6587 41.3027 56.8053 41.222 56.974C41.1487 57.1353 41.112 57.3113 41.112 57.502V61H40.551C40.4557 61 40.3603 61 40.265 61C40.1697 61 40.0743 61 39.979 61Z" fill="black"/>
</svg>
