<svg width="77" height="83" viewBox="0 0 77 83" fill="none" xmlns="http://www.w3.org/2000/svg">
<path d="M22 0H54L59 27L76.5 47.5L71.5 83H2.5L0.5 43L15 28.5L22 0Z" fill="#FF0000" fill-opacity="0.31"/>
<path d="M41.0657 4.5H35.9343C35.5349 4.5 35.2967 4.94507 35.5182 5.27735L36.916 7.37404C36.9708 7.45617 37 7.55268 37 7.65139V9V13C37 13.2761 36.7761 13.5 36.5 13.5H32.5H29.6514C29.5527 13.5 29.4562 13.4708 29.374 13.416L27.2773 12.0182C26.9451 11.7967 26.5 12.0349 26.5 12.4343V17.5657C26.5 17.9651 26.9451 18.2033 27.2774 17.9818L29.374 16.584C29.4562 16.5292 29.5527 16.5 29.6514 16.5H32.5H36.5C36.7761 16.5 37 16.7239 37 17V20.5V36.382C37 36.4596 36.9819 36.5361 36.9472 36.6056L35.8618 38.7764C35.6956 39.1088 35.9373 39.5 36.309 39.5H40.691C41.0627 39.5 41.3044 39.1088 41.1382 38.7764L40.0528 36.6056C40.0181 36.5361 40 36.4596 40 36.382V20.5V17C40 16.7239 40.2239 16.5 40.5 16.5H44.5H47.3486C47.4473 16.5 47.5438 16.5292 47.626 16.584L49.7227 17.9818C50.0549 18.2033 50.5 17.9651 50.5 17.5657V12.4343C50.5 12.0349 50.0549 11.7967 49.7227 12.0182L47.626 13.416C47.5438 13.4708 47.4473 13.5 47.3486 13.5H44.5H40.5C40.2239 13.5 40 13.2761 40 13V9V7.65139C40 7.55268 40.0292 7.45617 40.084 7.37404L41.4818 5.27735C41.7033 4.94507 41.4651 4.5 41.0657 4.5Z" fill="#4F4533"/>
<path d="M37 9V13C37 13.2761 36.7761 13.5 36.5 13.5H32.5M37 9V7.65139C37 7.55268 36.9708 7.45617 36.916 7.37404L35.5182 5.27735C35.2967 4.94507 35.5349 4.5 35.9343 4.5H41.0657C41.4651 4.5 41.7033 4.94507 41.4818 5.27735L40.084 7.37404C40.0292 7.45617 40 7.55268 40 7.65139V9M37 9C34.5 9 32.5 11 32.5 13.5M32.5 13.5H29.6514C29.5527 13.5 29.4562 13.4708 29.374 13.416L27.2773 12.0182C26.9451 11.7967 26.5 12.0349 26.5 12.4343V17.5657C26.5 17.9651 26.9451 18.2033 27.2774 17.9818L29.374 16.584C29.4562 16.5292 29.5527 16.5 29.6514 16.5H32.5M40 9V13C40 13.2761 40.2239 13.5 40.5 13.5H44.5M40 9C42.5 9 44.5 11 44.5 13.5M44.5 13.5H47.3486C47.4473 13.5 47.5438 13.4708 47.626 13.416L49.7227 12.0182C50.0549 11.7967 50.5 12.0349 50.5 12.4343V17.5657C50.5 17.9651 50.0549 18.2033 49.7226 17.9818L47.626 16.584C47.5438 16.5292 47.4473 16.5 47.3486 16.5H44.5M44.5 16.5H40.5C40.2239 16.5 40 16.7239 40 17V20.5M44.5 16.5C44.5 19 42.5 20.5 40 20.5M40 20.5V36.382C40 36.4596 40.0181 36.5361 40.0528 36.6056L41.1382 38.7764C41.3044 39.1088 41.0627 39.5 40.691 39.5H36.309C35.9373 39.5 35.6956 39.1088 35.8618 38.7764L36.9472 36.6056C36.9819 36.5361 37 36.4596 37 36.382V20.5M37 20.5V17C37 16.7239 36.7761 16.5 36.5 16.5H32.5M37 20.5C34.5 20.5 32.5 19 32.5 16.5" stroke="black"/>
<path d="M5.63037 52L3.32037 44.3H5.22337L6.37837 48.348C6.4297 48.5313 6.4737 48.7183 6.51037 48.909C6.55437 49.0923 6.58737 49.2683 6.60937 49.437C6.6387 49.6057 6.6607 49.7633 6.67537 49.91C6.69003 50.0493 6.7047 50.1667 6.71937 50.262H6.47737C6.52137 49.9907 6.55803 49.7487 6.58737 49.536C6.62403 49.3233 6.66437 49.1253 6.70837 48.942C6.75237 48.7513 6.80737 48.5533 6.87337 48.348L8.01737 45.301H9.51337L10.6354 48.348C10.7234 48.59 10.7967 48.8173 10.8554 49.03C10.914 49.2427 10.958 49.448 10.9874 49.646C11.024 49.8367 11.0534 50.0273 11.0754 50.218L10.8554 50.251C10.87 50.119 10.881 49.998 10.8884 49.888C10.8957 49.7707 10.903 49.6607 10.9104 49.558C10.925 49.448 10.9397 49.3343 10.9544 49.217C10.969 49.0997 10.991 48.9713 11.0204 48.832C11.0497 48.6853 11.09 48.5203 11.1414 48.337L12.2854 44.3H14.1444L11.8344 52H10.4044L8.57837 47.567L8.78737 47.589L7.10437 52H5.63037ZM17.4859 52.11C16.8405 52.11 16.2795 51.9817 15.8029 51.725C15.3262 51.461 14.9559 51.1053 14.6919 50.658C14.4279 50.2033 14.2959 49.6863 14.2959 49.107C14.2959 48.6597 14.3692 48.249 14.5159 47.875C14.6625 47.501 14.8679 47.1783 15.1319 46.907C15.3959 46.6283 15.7075 46.4157 16.0669 46.269C16.4335 46.115 16.8332 46.038 17.2659 46.038C17.6765 46.038 18.0505 46.1113 18.3879 46.258C18.7325 46.4047 19.0295 46.61 19.2789 46.874C19.5282 47.138 19.7189 47.4497 19.8509 47.809C19.9829 48.1683 20.0415 48.5607 20.0269 48.986L20.0159 49.459H15.3629L15.1099 48.469H18.5859L18.3989 48.678V48.458C18.3842 48.2747 18.3255 48.1133 18.2229 47.974C18.1275 47.8273 17.9992 47.7137 17.8379 47.633C17.6765 47.5523 17.4932 47.512 17.2879 47.512C17.0019 47.512 16.7562 47.5707 16.5509 47.688C16.3529 47.798 16.2025 47.963 16.0999 48.183C15.9972 48.3957 15.9459 48.6597 15.9459 48.975C15.9459 49.2977 16.0119 49.58 16.1439 49.822C16.2832 50.0567 16.4812 50.24 16.7379 50.372C17.0019 50.504 17.3135 50.57 17.6729 50.57C17.9222 50.57 18.1422 50.5333 18.3329 50.46C18.5309 50.3867 18.7435 50.262 18.9709 50.086L19.7959 51.252C19.5685 51.45 19.3265 51.6113 19.0699 51.736C18.8132 51.8607 18.5492 51.9523 18.2779 52.011C18.0139 52.077 17.7499 52.11 17.4859 52.11ZM23.1172 52.11C22.5452 52.11 22.0392 52.0183 21.5992 51.835C21.1665 51.6517 20.8219 51.406 20.5652 51.098L21.6322 50.174C21.8595 50.4013 22.1162 50.57 22.4022 50.68C22.6882 50.7827 22.9595 50.834 23.2162 50.834C23.3189 50.834 23.4105 50.823 23.4912 50.801C23.5719 50.779 23.6379 50.7497 23.6892 50.713C23.7479 50.669 23.7919 50.6213 23.8212 50.57C23.8505 50.5113 23.8652 50.4453 23.8652 50.372C23.8652 50.2253 23.7992 50.1117 23.6672 50.031C23.6012 49.9943 23.4912 49.9503 23.3372 49.899C23.1832 49.8477 22.9852 49.789 22.7432 49.723C22.3985 49.635 22.0979 49.5323 21.8412 49.415C21.5919 49.2903 21.3865 49.1473 21.2252 48.986C21.0785 48.832 20.9649 48.6633 20.8842 48.48C20.8035 48.2893 20.7632 48.0767 20.7632 47.842C20.7632 47.5707 20.8255 47.325 20.9502 47.105C21.0822 46.885 21.2545 46.6943 21.4672 46.533C21.6872 46.3717 21.9365 46.2507 22.2152 46.17C22.5012 46.082 22.7945 46.038 23.0952 46.038C23.4179 46.038 23.7259 46.0747 24.0192 46.148C24.3125 46.2213 24.5839 46.324 24.8332 46.456C25.0899 46.588 25.3172 46.7457 25.5152 46.929L24.5912 47.963C24.4592 47.8383 24.3089 47.7283 24.1402 47.633C23.9789 47.5303 23.8102 47.4497 23.6342 47.391C23.4582 47.3323 23.2969 47.303 23.1502 47.303C23.0402 47.303 22.9412 47.314 22.8532 47.336C22.7725 47.3507 22.7029 47.38 22.6442 47.424C22.5855 47.4607 22.5415 47.5083 22.5122 47.567C22.4829 47.6183 22.4682 47.6807 22.4682 47.754C22.4682 47.8273 22.4865 47.897 22.5232 47.963C22.5672 48.029 22.6259 48.084 22.6992 48.128C22.7725 48.172 22.8899 48.2233 23.0512 48.282C23.2125 48.3333 23.4325 48.3993 23.7112 48.48C24.0559 48.5753 24.3529 48.6817 24.6022 48.799C24.8515 48.9163 25.0495 49.0557 25.1962 49.217C25.3135 49.3417 25.4015 49.4883 25.4602 49.657C25.5189 49.8183 25.5482 49.9943 25.5482 50.185C25.5482 50.559 25.4419 50.8927 25.2292 51.186C25.0239 51.472 24.7379 51.6993 24.3712 51.868C24.0045 52.0293 23.5865 52.11 23.1172 52.11ZM27.0785 52V44.685H28.8385V52H27.0785ZM26.0445 47.699V46.159H29.9715V47.699H26.0445ZM36.5907 52.11C36.3121 52.11 36.0481 52.077 35.7987 52.011C35.5494 51.9523 35.3221 51.8643 35.1167 51.747C34.9114 51.6223 34.7281 51.4757 34.5667 51.307C34.4054 51.131 34.2661 50.9367 34.1487 50.724L35.2157 49.613C35.3184 49.767 35.4174 49.8953 35.5127 49.998C35.6081 50.0933 35.6997 50.174 35.7877 50.24C35.8831 50.306 35.9784 50.3537 36.0737 50.383C36.1764 50.4123 36.2827 50.427 36.3927 50.427C36.5687 50.427 36.7227 50.3867 36.8547 50.306C36.9941 50.218 37.1004 50.1007 37.1737 49.954C37.2471 49.8073 37.2837 49.635 37.2837 49.437V45.928H35.8757V44.3H40.2977V45.928H39.1097V49.657C39.1097 50.031 39.0437 50.3683 38.9117 50.669C38.7871 50.9697 38.6111 51.23 38.3837 51.45C38.1564 51.6627 37.8887 51.8277 37.5807 51.945C37.2801 52.055 36.9501 52.11 36.5907 52.11ZM44.0183 52.11C43.4096 52.11 42.867 51.978 42.3903 51.714C41.921 51.45 41.547 51.0907 41.2683 50.636C40.997 50.1813 40.8613 49.6607 40.8613 49.074C40.8613 48.4873 40.997 47.9667 41.2683 47.512C41.547 47.0573 41.921 46.698 42.3903 46.434C42.867 46.17 43.4096 46.038 44.0183 46.038C44.627 46.038 45.166 46.17 45.6353 46.434C46.112 46.698 46.486 47.0573 46.7573 47.512C47.0286 47.9667 47.1643 48.4873 47.1643 49.074C47.1643 49.6607 47.0286 50.1813 46.7573 50.636C46.486 51.0907 46.112 51.45 45.6353 51.714C45.166 51.978 44.627 52.11 44.0183 52.11ZM44.0183 50.592C44.2823 50.592 44.517 50.526 44.7223 50.394C44.9276 50.262 45.089 50.0823 45.2063 49.855C45.3236 49.6277 45.3786 49.3673 45.3713 49.074C45.3786 48.7807 45.3236 48.5203 45.2063 48.293C45.089 48.0583 44.9276 47.875 44.7223 47.743C44.517 47.611 44.2823 47.545 44.0183 47.545C43.7543 47.545 43.516 47.611 43.3033 47.743C43.098 47.875 42.9366 48.0583 42.8193 48.293C42.702 48.5203 42.647 48.7807 42.6543 49.074C42.647 49.3673 42.702 49.6277 42.8193 49.855C42.9366 50.0823 43.098 50.262 43.3033 50.394C43.516 50.526 43.7543 50.592 44.0183 50.592ZM48.3152 52V46.159H49.9872L50.0642 48.062L49.7342 47.699C49.8222 47.3837 49.9652 47.1013 50.1632 46.852C50.3685 46.6027 50.6068 46.4047 50.8782 46.258C51.1495 46.1113 51.4392 46.038 51.7472 46.038C51.8792 46.038 52.0002 46.049 52.1102 46.071C52.2275 46.093 52.3338 46.1187 52.4292 46.148L51.9452 48.095C51.8645 48.0437 51.7545 48.0033 51.6152 47.974C51.4832 47.9373 51.3438 47.919 51.1972 47.919C51.0358 47.919 50.8855 47.9483 50.7462 48.007C50.6068 48.0583 50.4895 48.1353 50.3942 48.238C50.2988 48.3407 50.2218 48.4617 50.1632 48.601C50.1118 48.7403 50.0862 48.898 50.0862 49.074V52H48.3152ZM55.285 52.121C54.779 52.121 54.328 51.9927 53.932 51.736C53.5433 51.472 53.2353 51.1127 53.008 50.658C52.7806 50.196 52.667 49.6717 52.667 49.085C52.667 48.4983 52.7806 47.9777 53.008 47.523C53.2353 47.061 53.547 46.698 53.943 46.434C54.339 46.17 54.7936 46.038 55.307 46.038C55.571 46.038 55.824 46.0783 56.066 46.159C56.308 46.2397 56.528 46.3497 56.726 46.489C56.924 46.6283 57.0853 46.7897 57.21 46.973C57.3346 47.149 57.408 47.3323 57.43 47.523L57.012 47.622V43.86H58.783V52H57.144L57.045 50.669L57.397 50.724C57.375 50.9073 57.3016 51.0833 57.177 51.252C57.0596 51.4207 56.9056 51.571 56.715 51.703C56.5243 51.8277 56.3043 51.9267 56.055 52C55.813 52.0807 55.5563 52.121 55.285 52.121ZM55.736 50.658C56.0073 50.658 56.242 50.592 56.44 50.46C56.638 50.328 56.7883 50.1447 56.891 49.91C57.001 49.6753 57.056 49.4003 57.056 49.085C57.056 48.7623 57.001 48.4837 56.891 48.249C56.7883 48.0143 56.638 47.831 56.44 47.699C56.242 47.567 56.0073 47.501 55.736 47.501C55.4646 47.501 55.23 47.567 55.032 47.699C54.8413 47.831 54.691 48.0143 54.581 48.249C54.471 48.4837 54.416 48.7623 54.416 49.085C54.416 49.4003 54.471 49.6753 54.581 49.91C54.691 50.1447 54.8413 50.328 55.032 50.46C55.23 50.592 55.4646 50.658 55.736 50.658ZM62.4272 52.099C61.9359 52.099 61.4959 51.9707 61.1072 51.714C60.7259 51.45 60.4216 51.0907 60.1942 50.636C59.9669 50.174 59.8532 49.6533 59.8532 49.074C59.8532 48.48 59.9669 47.9557 60.1942 47.501C60.4216 47.0463 60.7332 46.6907 61.1292 46.434C61.5252 46.17 61.9762 46.038 62.4822 46.038C62.7609 46.038 63.0139 46.0783 63.2412 46.159C63.4759 46.2397 63.6812 46.3533 63.8572 46.5C64.0332 46.6393 64.1836 46.8043 64.3082 46.995C64.4329 47.1783 64.5246 47.3763 64.5832 47.589L64.2202 47.545V46.159H65.9692V52H64.1872V50.592L64.5832 50.581C64.5246 50.7863 64.4292 50.9807 64.2972 51.164C64.1652 51.3473 64.0039 51.5087 63.8132 51.648C63.6226 51.7873 63.4099 51.8973 63.1752 51.978C62.9406 52.0587 62.6912 52.099 62.4272 52.099ZM62.9112 50.614C63.1826 50.614 63.4172 50.5517 63.6152 50.427C63.8132 50.3023 63.9672 50.1263 64.0772 49.899C64.1872 49.6643 64.2422 49.3893 64.2422 49.074C64.2422 48.7587 64.1872 48.4873 64.0772 48.26C63.9672 48.0253 63.8132 47.8457 63.6152 47.721C63.4172 47.589 63.1826 47.523 62.9112 47.523C62.6472 47.523 62.4162 47.589 62.2182 47.721C62.0276 47.8457 61.8772 48.0253 61.7672 48.26C61.6572 48.4873 61.6022 48.7587 61.6022 49.074C61.6022 49.3893 61.6572 49.6643 61.7672 49.899C61.8772 50.1263 62.0276 50.3023 62.2182 50.427C62.4162 50.5517 62.6472 50.614 62.9112 50.614ZM67.5222 52V46.159H69.1942L69.2492 47.347L68.8972 47.479C68.9779 47.215 69.1209 46.9767 69.3262 46.764C69.5389 46.544 69.7919 46.368 70.0852 46.236C70.3785 46.104 70.6865 46.038 71.0092 46.038C71.4492 46.038 71.8195 46.1297 72.1202 46.313C72.4209 46.489 72.6482 46.7567 72.8022 47.116C72.9562 47.468 73.0332 47.9007 73.0332 48.414V52H71.2622V48.557C71.2622 48.3223 71.2292 48.128 71.1632 47.974C71.0972 47.82 70.9945 47.7063 70.8552 47.633C70.7232 47.5523 70.5582 47.5157 70.3602 47.523C70.2062 47.523 70.0632 47.5487 69.9312 47.6C69.7992 47.644 69.6855 47.7137 69.5902 47.809C69.4949 47.897 69.4179 47.9997 69.3592 48.117C69.3079 48.2343 69.2822 48.3627 69.2822 48.502V52H68.4132C68.2079 52 68.0319 52 67.8852 52C67.7385 52 67.6175 52 67.5222 52ZM14.3842 66.11C13.9662 66.11 13.5775 66.055 13.2182 65.945C12.8662 65.835 12.5435 65.67 12.2502 65.45C11.9642 65.2227 11.7075 64.944 11.4802 64.614L12.2942 63.679C12.6535 64.1923 12.9982 64.548 13.3282 64.746C13.6582 64.944 14.0505 65.043 14.5052 65.043C14.7838 65.043 15.0368 64.999 15.2642 64.911C15.4915 64.823 15.6712 64.702 15.8032 64.548C15.9352 64.394 16.0012 64.218 16.0012 64.02C16.0012 63.888 15.9792 63.7633 15.9352 63.646C15.8912 63.5287 15.8215 63.4223 15.7262 63.327C15.6382 63.2317 15.5208 63.1437 15.3742 63.063C15.2348 62.9823 15.0698 62.9127 14.8792 62.854C14.6885 62.788 14.4685 62.733 14.2192 62.689C13.8232 62.6083 13.4785 62.502 13.1852 62.37C12.8918 62.238 12.6462 62.073 12.4482 61.875C12.2502 61.677 12.1035 61.4533 12.0082 61.204C11.9128 60.9473 11.8652 60.6613 11.8652 60.346C11.8652 60.038 11.9312 59.752 12.0632 59.488C12.2025 59.224 12.3895 58.9967 12.6242 58.806C12.8662 58.608 13.1485 58.4577 13.4712 58.355C13.7938 58.245 14.1422 58.19 14.5162 58.19C14.9122 58.19 15.2752 58.2413 15.6052 58.344C15.9352 58.4467 16.2285 58.6007 16.4852 58.806C16.7418 59.004 16.9545 59.2497 17.1232 59.543L16.2872 60.368C16.1405 60.126 15.9755 59.9243 15.7922 59.763C15.6088 59.5943 15.4072 59.4697 15.1872 59.389C14.9672 59.301 14.7325 59.257 14.4832 59.257C14.1972 59.257 13.9478 59.301 13.7352 59.389C13.5225 59.477 13.3538 59.6017 13.2292 59.763C13.1118 59.917 13.0532 60.1003 13.0532 60.313C13.0532 60.467 13.0825 60.61 13.1412 60.742C13.1998 60.8667 13.2878 60.9803 13.4052 61.083C13.5298 61.1783 13.6948 61.2663 13.9002 61.347C14.1055 61.4203 14.3512 61.4863 14.6372 61.545C15.0405 61.633 15.3998 61.7467 15.7152 61.886C16.0305 62.018 16.2982 62.1757 16.5182 62.359C16.7382 62.5423 16.9032 62.7477 17.0132 62.975C17.1305 63.2023 17.1892 63.448 17.1892 63.712C17.1892 64.2033 17.0755 64.6287 16.8482 64.988C16.6208 65.3473 16.2982 65.626 15.8802 65.824C15.4622 66.0147 14.9635 66.11 14.3842 66.11ZM19.3014 66V58.751H20.4344V66H19.3014ZM18.1024 61.325V60.225H21.7764V61.325H18.1024ZM23.2701 66.121C23.0281 66.121 22.8411 66.0513 22.7091 65.912C22.5771 65.7653 22.5111 65.56 22.5111 65.296C22.5111 65.054 22.5808 64.856 22.7201 64.702C22.8594 64.548 23.0428 64.471 23.2701 64.471C23.5121 64.471 23.6991 64.5443 23.8311 64.691C23.9631 64.8303 24.0291 65.032 24.0291 65.296C24.0291 65.538 23.9594 65.736 23.8201 65.89C23.6808 66.044 23.4974 66.121 23.2701 66.121ZM30.4181 66.11C30.1687 66.11 29.9304 66.077 29.7031 66.011C29.4757 65.945 29.2631 65.8497 29.0651 65.725C28.8744 65.6003 28.7021 65.4537 28.5481 65.285C28.3941 65.109 28.2621 64.9183 28.1521 64.713L28.9001 63.932C29.0541 64.152 29.1934 64.328 29.3181 64.46C29.4501 64.592 29.5747 64.6947 29.6921 64.768C29.8094 64.8413 29.9267 64.8927 30.0441 64.922C30.1614 64.944 30.2861 64.955 30.4181 64.955C30.6821 64.955 30.9131 64.8963 31.1111 64.779C31.3091 64.6543 31.4631 64.4857 31.5731 64.273C31.6831 64.0603 31.7381 63.8183 31.7381 63.547V59.4H30.3301V58.3H34.1141V59.4H32.9261V63.657C32.9261 64.009 32.8637 64.3353 32.7391 64.636C32.6217 64.9293 32.4494 65.186 32.2221 65.406C32.0021 65.626 31.7381 65.7983 31.4301 65.923C31.1294 66.0477 30.7921 66.11 30.4181 66.11ZM37.4998 66.11C36.9351 66.11 36.4291 65.9817 35.9818 65.725C35.5418 65.461 35.1935 65.1053 34.9368 64.658C34.6801 64.2033 34.5518 63.6863 34.5518 63.107C34.5518 62.5277 34.6801 62.0143 34.9368 61.567C35.1935 61.1123 35.5418 60.7567 35.9818 60.5C36.4291 60.236 36.9351 60.104 37.4998 60.104C38.0571 60.104 38.5558 60.236 38.9958 60.5C39.4431 60.7567 39.7951 61.1123 40.0518 61.567C40.3085 62.0143 40.4368 62.5277 40.4368 63.107C40.4368 63.6863 40.3085 64.2033 40.0518 64.658C39.7951 65.1053 39.4431 65.461 38.9958 65.725C38.5558 65.9817 38.0571 66.11 37.4998 66.11ZM37.4998 65.076C37.8445 65.076 38.1525 64.9917 38.4238 64.823C38.6951 64.647 38.9078 64.4123 39.0618 64.119C39.2158 63.8183 39.2891 63.481 39.2818 63.107C39.2891 62.7257 39.2158 62.3883 39.0618 62.095C38.9078 61.7943 38.6951 61.5597 38.4238 61.391C38.1525 61.2223 37.8445 61.138 37.4998 61.138C37.1551 61.138 36.8435 61.226 36.5648 61.402C36.2935 61.5707 36.0808 61.8053 35.9268 62.106C35.7728 62.3993 35.6995 62.733 35.7068 63.107C35.6995 63.481 35.7728 63.8183 35.9268 64.119C36.0808 64.4123 36.2935 64.647 36.5648 64.823C36.8435 64.9917 37.1551 65.076 37.4998 65.076ZM43.5964 66.11C43.1124 66.11 42.6761 66.0257 42.2874 65.857C41.8987 65.6883 41.5761 65.439 41.3194 65.109L42.0894 64.449C42.3094 64.7057 42.5477 64.8927 42.8044 65.01C43.0684 65.12 43.3654 65.175 43.6954 65.175C43.8274 65.175 43.9484 65.1603 44.0584 65.131C44.1757 65.0943 44.2747 65.043 44.3554 64.977C44.4434 64.911 44.5094 64.834 44.5534 64.746C44.5974 64.6507 44.6194 64.548 44.6194 64.438C44.6194 64.2473 44.5497 64.0933 44.4104 63.976C44.3371 63.9247 44.2197 63.8697 44.0584 63.811C43.9044 63.745 43.7027 63.679 43.4534 63.613C43.0281 63.503 42.6797 63.3783 42.4084 63.239C42.1371 63.0997 41.9281 62.942 41.7814 62.766C41.6714 62.6267 41.5907 62.4763 41.5394 62.315C41.4881 62.1463 41.4624 61.963 41.4624 61.765C41.4624 61.523 41.5137 61.303 41.6164 61.105C41.7264 60.8997 41.8731 60.7237 42.0564 60.577C42.2471 60.423 42.4671 60.3057 42.7164 60.225C42.9731 60.1443 43.2444 60.104 43.5304 60.104C43.8017 60.104 44.0694 60.1407 44.3334 60.214C44.6047 60.2873 44.8541 60.3937 45.0814 60.533C45.3087 60.6723 45.4994 60.8373 45.6534 61.028L45.0044 61.743C44.8651 61.6037 44.7111 61.4827 44.5424 61.38C44.3811 61.27 44.2161 61.1857 44.0474 61.127C43.8787 61.0683 43.7247 61.039 43.5854 61.039C43.4314 61.039 43.2921 61.0537 43.1674 61.083C43.0427 61.1123 42.9364 61.1563 42.8484 61.215C42.7677 61.2737 42.7054 61.347 42.6614 61.435C42.6174 61.523 42.5954 61.622 42.5954 61.732C42.6027 61.8273 42.6247 61.919 42.6614 62.007C42.7054 62.0877 42.7641 62.1573 42.8374 62.216C42.9181 62.2747 43.0391 62.337 43.2004 62.403C43.3617 62.469 43.5671 62.5313 43.8164 62.59C44.1831 62.6853 44.4837 62.7917 44.7184 62.909C44.9604 63.019 45.1511 63.1473 45.2904 63.294C45.4371 63.4333 45.5397 63.5947 45.5984 63.778C45.6571 63.9613 45.6864 64.1667 45.6864 64.394C45.6864 64.724 45.5911 65.021 45.4004 65.285C45.2171 65.5417 44.9677 65.7433 44.6524 65.89C44.3371 66.0367 43.9851 66.11 43.5964 66.11ZM49.6301 66.11C49.0361 66.11 48.5081 65.9853 48.0461 65.736C47.5914 65.4793 47.2321 65.131 46.9681 64.691C46.7114 64.251 46.5831 63.745 46.5831 63.173C46.5831 62.7183 46.6564 62.304 46.8031 61.93C46.9497 61.556 47.1514 61.2333 47.4081 60.962C47.6721 60.6833 47.9837 60.4707 48.3431 60.324C48.7097 60.17 49.1057 60.093 49.5311 60.093C49.9051 60.093 50.2534 60.1663 50.5761 60.313C50.8987 60.4523 51.1774 60.6467 51.4121 60.896C51.6541 61.1453 51.8374 61.4423 51.9621 61.787C52.0941 62.1243 52.1564 62.4947 52.1491 62.898L52.1381 63.382H47.4191L47.1661 62.48H51.1591L50.9941 62.667V62.403C50.9721 62.161 50.8914 61.9447 50.7521 61.754C50.6127 61.5633 50.4367 61.413 50.2241 61.303C50.0114 61.193 49.7804 61.138 49.5311 61.138C49.1351 61.138 48.8014 61.215 48.5301 61.369C48.2587 61.5157 48.0534 61.7357 47.9141 62.029C47.7747 62.315 47.7051 62.6707 47.7051 63.096C47.7051 63.4993 47.7894 63.8513 47.9581 64.152C48.1267 64.4453 48.3651 64.6727 48.6731 64.834C48.9811 64.9953 49.3367 65.076 49.7401 65.076C50.0261 65.076 50.2901 65.0283 50.5321 64.933C50.7814 64.8377 51.0491 64.6653 51.3351 64.416L51.9071 65.219C51.7311 65.395 51.5147 65.549 51.2581 65.681C51.0087 65.813 50.7411 65.9193 50.4551 66C50.1764 66.0733 49.9014 66.11 49.6301 66.11ZM53.3804 68.42V60.225H54.5244V61.545L54.3484 61.446C54.3924 61.226 54.517 61.017 54.7224 60.819C54.9277 60.6137 55.177 60.4487 55.4704 60.324C55.771 60.192 56.079 60.126 56.3944 60.126C56.915 60.126 57.377 60.2543 57.7804 60.511C58.1837 60.7677 58.5027 61.1197 58.7374 61.567C58.972 62.0143 59.0894 62.5277 59.0894 63.107C59.0894 63.679 58.972 64.1923 58.7374 64.647C58.51 65.0943 58.1947 65.45 57.7914 65.714C57.388 65.9707 56.9334 66.099 56.4274 66.099C56.09 66.099 55.7637 66.033 55.4484 65.901C55.133 65.7617 54.8654 65.5857 54.6454 65.373C54.4254 65.1603 54.2897 64.9403 54.2384 64.713L54.5244 64.559V68.42H53.3804ZM56.2404 65.054C56.5777 65.054 56.8784 64.9697 57.1424 64.801C57.4064 64.6323 57.6154 64.4013 57.7694 64.108C57.9234 63.8147 58.0004 63.481 58.0004 63.107C58.0004 62.733 57.9234 62.403 57.7694 62.117C57.6227 61.8237 57.4174 61.5927 57.1534 61.424C56.8894 61.2553 56.585 61.171 56.2404 61.171C55.8957 61.171 55.5914 61.2553 55.3274 61.424C55.0634 61.5853 54.8544 61.8127 54.7004 62.106C54.5464 62.3993 54.4694 62.733 54.4694 63.107C54.4694 63.481 54.5464 63.8147 54.7004 64.108C54.8544 64.4013 55.0634 64.6323 55.3274 64.801C55.5914 64.9697 55.8957 65.054 56.2404 65.054ZM60.3198 66V57.86H61.4528V61.413L61.2548 61.545C61.3282 61.2883 61.4712 61.0537 61.6838 60.841C61.8965 60.621 62.1495 60.445 62.4428 60.313C62.7362 60.1737 63.0368 60.104 63.3448 60.104C63.7848 60.104 64.1515 60.192 64.4448 60.368C64.7382 60.5367 64.9582 60.797 65.1048 61.149C65.2515 61.501 65.3248 61.9447 65.3248 62.48V66H64.1918V62.557C64.1918 62.227 64.1478 61.9557 64.0598 61.743C63.9718 61.523 63.8362 61.3653 63.6528 61.27C63.4695 61.1673 63.2422 61.1233 62.9708 61.138C62.7508 61.138 62.5492 61.1747 62.3658 61.248C62.1825 61.314 62.0212 61.4093 61.8818 61.534C61.7498 61.6587 61.6435 61.8053 61.5628 61.974C61.4895 62.1353 61.4528 62.3113 61.4528 62.502V66H60.8918C60.7965 66 60.7012 66 60.6058 66C60.5105 66 60.4152 66 60.3198 66ZM10.4767 80V72.751H11.6097V80H10.4767ZM9.27773 75.325V74.225H12.9517V75.325H9.27773ZM13.9834 80V71.86H15.1164V75.413L14.9184 75.545C14.9917 75.2883 15.1347 75.0537 15.3474 74.841C15.5601 74.621 15.8131 74.445 16.1064 74.313C16.3997 74.1737 16.7004 74.104 17.0084 74.104C17.4484 74.104 17.8151 74.192 18.1084 74.368C18.4017 74.5367 18.6217 74.797 18.7684 75.149C18.9151 75.501 18.9884 75.9447 18.9884 76.48V80H17.8554V76.557C17.8554 76.227 17.8114 75.9557 17.7234 75.743C17.6354 75.523 17.4997 75.3653 17.3164 75.27C17.1331 75.1673 16.9057 75.1233 16.6344 75.138C16.4144 75.138 16.2127 75.1747 16.0294 75.248C15.8461 75.314 15.6847 75.4093 15.5454 75.534C15.4134 75.6587 15.3071 75.8053 15.2264 75.974C15.1531 76.1353 15.1164 76.3113 15.1164 76.502V80H14.5554C14.4601 80 14.3647 80 14.2694 80C14.1741 80 14.0787 80 13.9834 80ZM23.2204 80.11C22.6264 80.11 22.0984 79.9853 21.6364 79.736C21.1817 79.4793 20.8224 79.131 20.5584 78.691C20.3017 78.251 20.1734 77.745 20.1734 77.173C20.1734 76.7183 20.2467 76.304 20.3934 75.93C20.5401 75.556 20.7417 75.2333 20.9984 74.962C21.2624 74.6833 21.5741 74.4707 21.9334 74.324C22.3001 74.17 22.6961 74.093 23.1214 74.093C23.4954 74.093 23.8437 74.1663 24.1664 74.313C24.4891 74.4523 24.7677 74.6467 25.0024 74.896C25.2444 75.1453 25.4277 75.4423 25.5524 75.787C25.6844 76.1243 25.7467 76.4947 25.7394 76.898L25.7284 77.382H21.0094L20.7564 76.48H24.7494L24.5844 76.667V76.403C24.5624 76.161 24.4817 75.9447 24.3424 75.754C24.2031 75.5633 24.0271 75.413 23.8144 75.303C23.6017 75.193 23.3707 75.138 23.1214 75.138C22.7254 75.138 22.3917 75.215 22.1204 75.369C21.8491 75.5157 21.6437 75.7357 21.5044 76.029C21.3651 76.315 21.2954 76.6707 21.2954 77.096C21.2954 77.4993 21.3797 77.8513 21.5484 78.152C21.7171 78.4453 21.9554 78.6727 22.2634 78.834C22.5714 78.9953 22.9271 79.076 23.3304 79.076C23.6164 79.076 23.8804 79.0283 24.1224 78.933C24.3717 78.8377 24.6394 78.6653 24.9254 78.416L25.4974 79.219C25.3214 79.395 25.1051 79.549 24.8484 79.681C24.5991 79.813 24.3314 79.9193 24.0454 80C23.7667 80.0733 23.4917 80.11 23.2204 80.11ZM31.9787 80L29.5257 72.3H30.7907L32.2757 77.118C32.3197 77.2353 32.3601 77.3747 32.3967 77.536C32.4334 77.69 32.4664 77.8477 32.4957 78.009C32.5251 78.1703 32.5507 78.3207 32.5727 78.46C32.6021 78.5993 32.6277 78.713 32.6497 78.801L32.3307 78.79C32.4407 78.4013 32.5251 78.1007 32.5837 77.888C32.6497 77.6753 32.7011 77.514 32.7377 77.404C32.7744 77.2867 32.8074 77.1877 32.8367 77.107L34.2227 73.631H35.2897L36.6317 77.107C36.7051 77.283 36.7674 77.459 36.8187 77.635C36.8774 77.8037 36.9287 77.976 36.9727 78.152C37.0167 78.3207 37.0644 78.5003 37.1157 78.691L36.8297 78.768C36.8664 78.57 36.8921 78.416 36.9067 78.306C36.9287 78.1887 36.9471 78.0933 36.9617 78.02C36.9764 77.9467 36.9911 77.877 37.0057 77.811C37.0204 77.7377 37.0424 77.646 37.0717 77.536C37.1084 77.426 37.1561 77.2757 37.2147 77.085L38.6777 72.3H39.9537L37.5007 80H36.6757L34.6407 75.182L34.7397 75.226L32.7817 80H31.9787ZM43.3275 80.11C42.7628 80.11 42.2568 79.9817 41.8095 79.725C41.3695 79.461 41.0211 79.1053 40.7645 78.658C40.5078 78.2033 40.3795 77.6863 40.3795 77.107C40.3795 76.5277 40.5078 76.0143 40.7645 75.567C41.0211 75.1123 41.3695 74.7567 41.8095 74.5C42.2568 74.236 42.7628 74.104 43.3275 74.104C43.8848 74.104 44.3835 74.236 44.8235 74.5C45.2708 74.7567 45.6228 75.1123 45.8795 75.567C46.1361 76.0143 46.2645 76.5277 46.2645 77.107C46.2645 77.6863 46.1361 78.2033 45.8795 78.658C45.6228 79.1053 45.2708 79.461 44.8235 79.725C44.3835 79.9817 43.8848 80.11 43.3275 80.11ZM43.3275 79.076C43.6721 79.076 43.9801 78.9917 44.2515 78.823C44.5228 78.647 44.7355 78.4123 44.8895 78.119C45.0435 77.8183 45.1168 77.481 45.1095 77.107C45.1168 76.7257 45.0435 76.3883 44.8895 76.095C44.7355 75.7943 44.5228 75.5597 44.2515 75.391C43.9801 75.2223 43.6721 75.138 43.3275 75.138C42.9828 75.138 42.6711 75.226 42.3925 75.402C42.1211 75.5707 41.9085 75.8053 41.7545 76.106C41.6005 76.3993 41.5271 76.733 41.5345 77.107C41.5271 77.481 41.6005 77.8183 41.7545 78.119C41.9085 78.4123 42.1211 78.647 42.3925 78.823C42.6711 78.9917 42.9828 79.076 43.3275 79.076ZM47.499 80V74.225H48.643V76.04L48.533 75.6C48.6137 75.3213 48.7494 75.0683 48.94 74.841C49.138 74.6137 49.3617 74.434 49.611 74.302C49.8677 74.17 50.1317 74.104 50.403 74.104C50.5277 74.104 50.645 74.115 50.755 74.137C50.8724 74.159 50.964 74.1847 51.03 74.214L50.733 75.446C50.645 75.4093 50.546 75.38 50.436 75.358C50.3334 75.3287 50.2307 75.314 50.128 75.314C49.93 75.314 49.7394 75.3543 49.556 75.435C49.38 75.5083 49.2224 75.6147 49.083 75.754C48.951 75.886 48.8447 76.0437 48.764 76.227C48.6834 76.403 48.643 76.5973 48.643 76.81V80H47.499ZM52.9696 78.196L52.9146 76.964L55.6756 74.225H57.2046L52.9696 78.196ZM51.9356 80V71.86H53.0686V80H51.9356ZM55.8296 80L53.6516 77.459L54.4546 76.722L57.2816 80H55.8296ZM60.6354 80.11C60.0414 80.11 59.5134 79.9853 59.0514 79.736C58.5968 79.4793 58.2374 79.131 57.9734 78.691C57.7168 78.251 57.5884 77.745 57.5884 77.173C57.5884 76.7183 57.6618 76.304 57.8084 75.93C57.9551 75.556 58.1568 75.2333 58.4134 74.962C58.6774 74.6833 58.9891 74.4707 59.3484 74.324C59.7151 74.17 60.1111 74.093 60.5364 74.093C60.9104 74.093 61.2588 74.1663 61.5814 74.313C61.9041 74.4523 62.1828 74.6467 62.4174 74.896C62.6594 75.1453 62.8428 75.4423 62.9674 75.787C63.0994 76.1243 63.1618 76.4947 63.1544 76.898L63.1434 77.382H58.4244L58.1714 76.48H62.1644L61.9994 76.667V76.403C61.9774 76.161 61.8968 75.9447 61.7574 75.754C61.6181 75.5633 61.4421 75.413 61.2294 75.303C61.0168 75.193 60.7858 75.138 60.5364 75.138C60.1404 75.138 59.8068 75.215 59.5354 75.369C59.2641 75.5157 59.0588 75.7357 58.9194 76.029C58.7801 76.315 58.7104 76.6707 58.7104 77.096C58.7104 77.4993 58.7948 77.8513 58.9634 78.152C59.1321 78.4453 59.3704 78.6727 59.6784 78.834C59.9864 78.9953 60.3421 79.076 60.7454 79.076C61.0314 79.076 61.2954 79.0283 61.5374 78.933C61.7868 78.8377 62.0544 78.6653 62.3404 78.416L62.9124 79.219C62.7364 79.395 62.5201 79.549 62.2634 79.681C62.0141 79.813 61.7464 79.9193 61.4604 80C61.1818 80.0733 60.9068 80.11 60.6354 80.11ZM64.3858 80V74.225H65.5298V76.04L65.4198 75.6C65.5004 75.3213 65.6361 75.0683 65.8268 74.841C66.0248 74.6137 66.2484 74.434 66.4977 74.302C66.7544 74.17 67.0184 74.104 67.2898 74.104C67.4144 74.104 67.5318 74.115 67.6418 74.137C67.7591 74.159 67.8508 74.1847 67.9168 74.214L67.6198 75.446C67.5318 75.4093 67.4328 75.38 67.3228 75.358C67.2201 75.3287 67.1174 75.314 67.0148 75.314C66.8168 75.314 66.6261 75.3543 66.4428 75.435C66.2668 75.5083 66.1091 75.6147 65.9698 75.754C65.8378 75.886 65.7314 76.0437 65.6508 76.227C65.5701 76.403 65.5298 76.5973 65.5298 76.81V80H64.3858Z" fill="black"/>
</svg>
