<svg width="86" height="57" viewBox="0 0 86 57" fill="none" xmlns="http://www.w3.org/2000/svg">
<path d="M86 54.5L1.5 56V30L23.5 15L33.5 0.5H52L84.5 30L86 54.5Z" fill="#FF0000" fill-opacity="0.31"/>
<path d="M3.98997 39V31.3H7.38897C7.91697 31.3 8.36431 31.377 8.73097 31.531C9.09764 31.6777 9.37264 31.894 9.55597 32.18C9.74664 32.4587 9.84197 32.796 9.84197 33.192C9.84197 33.632 9.73197 34.0023 9.51197 34.303C9.29931 34.6037 8.98764 34.8053 8.57697 34.908L8.55497 34.699C8.89964 34.7723 9.19664 34.9007 9.44597 35.084C9.70264 35.2673 9.90064 35.4947 10.04 35.766C10.1793 36.03 10.249 36.3307 10.249 36.668C10.249 37.0567 10.183 37.3977 10.051 37.691C9.91897 37.977 9.72831 38.219 9.47897 38.417C9.22964 38.615 8.93631 38.7617 8.59897 38.857C8.26897 38.9523 7.90231 39 7.49897 39H3.98997ZM5.74997 37.438H7.43297C7.63831 37.438 7.81064 37.405 7.94997 37.339C8.09664 37.273 8.21031 37.1777 8.29097 37.053C8.37164 36.921 8.41197 36.7633 8.41197 36.58C8.41197 36.4113 8.36797 36.2683 8.27997 36.151C8.19931 36.0337 8.08197 35.9457 7.92797 35.887C7.77397 35.821 7.59064 35.788 7.37797 35.788H5.74997V37.438ZM5.74997 34.391H7.12497C7.31564 34.391 7.47697 34.3617 7.60897 34.303C7.74831 34.237 7.85097 34.149 7.91697 34.039C7.99031 33.9217 8.02697 33.7823 8.02697 33.621C8.02697 33.3863 7.94631 33.203 7.78497 33.071C7.62364 32.9317 7.38164 32.862 7.05897 32.862H5.74997V34.391ZM11.5159 39V33.159H13.1879L13.2649 35.062L12.9349 34.699C13.0229 34.3837 13.1659 34.1013 13.3639 33.852C13.5692 33.6027 13.8075 33.4047 14.0789 33.258C14.3502 33.1113 14.6399 33.038 14.9479 33.038C15.0799 33.038 15.2009 33.049 15.3109 33.071C15.4282 33.093 15.5345 33.1187 15.6299 33.148L15.1459 35.095C15.0652 35.0437 14.9552 35.0033 14.8159 34.974C14.6839 34.9373 14.5445 34.919 14.3979 34.919C14.2365 34.919 14.0862 34.9483 13.9469 35.007C13.8075 35.0583 13.6902 35.1353 13.5949 35.238C13.4995 35.3407 13.4225 35.4617 13.3639 35.601C13.3125 35.7403 13.2869 35.898 13.2869 36.074V39H11.5159ZM17.2587 41.53L18.5897 38.395L18.6117 39.297L15.7957 33.159H17.7867L19.0187 36.096C19.0847 36.2427 19.1471 36.4003 19.2057 36.569C19.2644 36.7377 19.3084 36.899 19.3377 37.053L19.0957 37.196C19.1397 37.086 19.1874 36.9503 19.2387 36.789C19.2974 36.6203 19.3597 36.4407 19.4257 36.25L20.5037 33.159H22.5057L20.0197 39L19.0077 41.53H17.2587ZM25.7986 39.11C25.2339 39.11 24.7279 38.978 24.2806 38.714C23.8333 38.45 23.4776 38.0907 23.2136 37.636C22.9569 37.174 22.8286 36.6533 22.8286 36.074C22.8286 35.4947 22.9569 34.9777 23.2136 34.523C23.4776 34.061 23.8333 33.698 24.2806 33.434C24.7279 33.17 25.2339 33.038 25.7986 33.038C26.3193 33.038 26.7959 33.1297 27.2286 33.313C27.6686 33.4963 28.0169 33.753 28.2736 34.083L27.3166 35.227C27.2139 35.1097 27.0929 34.9997 26.9536 34.897C26.8143 34.7943 26.6603 34.7137 26.4916 34.655C26.3229 34.5963 26.1469 34.567 25.9636 34.567C25.6849 34.567 25.4393 34.633 25.2266 34.765C25.0139 34.8897 24.8489 35.0657 24.7316 35.293C24.6143 35.5203 24.5556 35.7807 24.5556 36.074C24.5556 36.3527 24.6143 36.6057 24.7316 36.833C24.8563 37.0603 25.0249 37.24 25.2376 37.372C25.4503 37.504 25.6923 37.57 25.9636 37.57C26.1543 37.57 26.3303 37.548 26.4916 37.504C26.6529 37.4527 26.7996 37.3793 26.9316 37.284C27.0709 37.1887 27.1993 37.0713 27.3166 36.932L28.2626 38.087C28.0133 38.4023 27.6649 38.6517 27.2176 38.835C26.7776 39.0183 26.3046 39.11 25.7986 39.11ZM32.0127 39.11C31.3674 39.11 30.8064 38.9817 30.3297 38.725C29.8531 38.461 29.4827 38.1053 29.2187 37.658C28.9547 37.2033 28.8227 36.6863 28.8227 36.107C28.8227 35.6597 28.8961 35.249 29.0427 34.875C29.1894 34.501 29.3947 34.1783 29.6587 33.907C29.9227 33.6283 30.2344 33.4157 30.5937 33.269C30.9604 33.115 31.3601 33.038 31.7927 33.038C32.2034 33.038 32.5774 33.1113 32.9147 33.258C33.2594 33.4047 33.5564 33.61 33.8057 33.874C34.0551 34.138 34.2457 34.4497 34.3777 34.809C34.5097 35.1683 34.5684 35.5607 34.5537 35.986L34.5427 36.459H29.8897L29.6367 35.469H33.1127L32.9257 35.678V35.458C32.9111 35.2747 32.8524 35.1133 32.7497 34.974C32.6544 34.8273 32.5261 34.7137 32.3647 34.633C32.2034 34.5523 32.0201 34.512 31.8147 34.512C31.5287 34.512 31.2831 34.5707 31.0777 34.688C30.8797 34.798 30.7294 34.963 30.6267 35.183C30.5241 35.3957 30.4727 35.6597 30.4727 35.975C30.4727 36.2977 30.5387 36.58 30.6707 36.822C30.8101 37.0567 31.0081 37.24 31.2647 37.372C31.5287 37.504 31.8404 37.57 32.1997 37.57C32.4491 37.57 32.6691 37.5333 32.8597 37.46C33.0577 37.3867 33.2704 37.262 33.4977 37.086L34.3227 38.252C34.0954 38.45 33.8534 38.6113 33.5967 38.736C33.3401 38.8607 33.0761 38.9523 32.8047 39.011C32.5407 39.077 32.2767 39.11 32.0127 39.11ZM42.8835 39.11C42.3041 39.11 41.7688 39.0147 41.2775 38.824C40.7935 38.626 40.3718 38.351 40.0125 37.999C39.6531 37.6397 39.3745 37.218 39.1765 36.734C38.9858 36.2427 38.8905 35.7037 38.8905 35.117C38.8905 34.545 38.9931 34.017 39.1985 33.533C39.4038 33.049 39.6861 32.631 40.0455 32.279C40.4121 31.9197 40.8411 31.641 41.3325 31.443C41.8311 31.245 42.3738 31.146 42.9605 31.146C43.3271 31.146 43.6865 31.1937 44.0385 31.289C44.3905 31.3843 44.7168 31.5273 45.0175 31.718C45.3255 31.9013 45.5895 32.1213 45.8095 32.378L44.6655 33.687C44.5115 33.5257 44.3465 33.3863 44.1705 33.269C44.0018 33.1443 43.8148 33.049 43.6095 32.983C43.4041 32.917 43.1841 32.884 42.9495 32.884C42.6561 32.884 42.3775 32.939 42.1135 33.049C41.8568 33.1517 41.6295 33.302 41.4315 33.5C41.2408 33.6907 41.0905 33.9253 40.9805 34.204C40.8705 34.4827 40.8155 34.7943 40.8155 35.139C40.8155 35.4763 40.8705 35.7843 40.9805 36.063C41.0905 36.3343 41.2445 36.569 41.4425 36.767C41.6405 36.965 41.8788 37.1153 42.1575 37.218C42.4435 37.3207 42.7588 37.372 43.1035 37.372C43.3381 37.372 43.5618 37.339 43.7745 37.273C43.9871 37.207 44.1815 37.119 44.3575 37.009C44.5408 36.8917 44.7021 36.7597 44.8415 36.613L45.7435 38.043C45.5601 38.2483 45.3145 38.4317 45.0065 38.593C44.7058 38.7543 44.3685 38.8827 43.9945 38.978C43.6278 39.066 43.2575 39.11 42.8835 39.11ZM48.9922 39.099C48.5008 39.099 48.0608 38.9707 47.6722 38.714C47.2908 38.45 46.9865 38.0907 46.7592 37.636C46.5318 37.174 46.4182 36.6533 46.4182 36.074C46.4182 35.48 46.5318 34.9557 46.7592 34.501C46.9865 34.0463 47.2982 33.6907 47.6942 33.434C48.0902 33.17 48.5412 33.038 49.0472 33.038C49.3258 33.038 49.5788 33.0783 49.8062 33.159C50.0408 33.2397 50.2462 33.3533 50.4222 33.5C50.5982 33.6393 50.7485 33.8043 50.8732 33.995C50.9978 34.1783 51.0895 34.3763 51.1482 34.589L50.7852 34.545V33.159H52.5342V39H50.7522V37.592L51.1482 37.581C51.0895 37.7863 50.9942 37.9807 50.8622 38.164C50.7302 38.3473 50.5688 38.5087 50.3782 38.648C50.1875 38.7873 49.9748 38.8973 49.7402 38.978C49.5055 39.0587 49.2562 39.099 48.9922 39.099ZM49.4762 37.614C49.7475 37.614 49.9822 37.5517 50.1802 37.427C50.3782 37.3023 50.5322 37.1263 50.6422 36.899C50.7522 36.6643 50.8072 36.3893 50.8072 36.074C50.8072 35.7587 50.7522 35.4873 50.6422 35.26C50.5322 35.0253 50.3782 34.8457 50.1802 34.721C49.9822 34.589 49.7475 34.523 49.4762 34.523C49.2122 34.523 48.9812 34.589 48.7832 34.721C48.5925 34.8457 48.4422 35.0253 48.3322 35.26C48.2222 35.4873 48.1672 35.7587 48.1672 36.074C48.1672 36.3893 48.2222 36.6643 48.3322 36.899C48.4422 37.1263 48.5925 37.3023 48.7832 37.427C48.9812 37.5517 49.2122 37.614 49.4762 37.614ZM54.0872 39V33.159H55.7592L55.8142 34.347L55.4622 34.479C55.5428 34.215 55.6858 33.9767 55.8912 33.764C56.1038 33.544 56.3568 33.368 56.6502 33.236C56.9435 33.104 57.2515 33.038 57.5742 33.038C58.0142 33.038 58.3845 33.1297 58.6852 33.313C58.9858 33.489 59.2132 33.7567 59.3672 34.116C59.5212 34.468 59.5982 34.9007 59.5982 35.414V39H57.8272V35.557C57.8272 35.3223 57.7942 35.128 57.7282 34.974C57.6622 34.82 57.5595 34.7063 57.4202 34.633C57.2882 34.5523 57.1232 34.5157 56.9252 34.523C56.7712 34.523 56.6282 34.5487 56.4962 34.6C56.3642 34.644 56.2505 34.7137 56.1552 34.809C56.0598 34.897 55.9828 34.9997 55.9242 35.117C55.8728 35.2343 55.8472 35.3627 55.8472 35.502V39H54.9782C54.7728 39 54.5968 39 54.4502 39C54.3035 39 54.1825 39 54.0872 39ZM61.7529 41.53L63.0839 38.395L63.1059 39.297L60.2899 33.159H62.2809L63.5129 36.096C63.5789 36.2427 63.6412 36.4003 63.6999 36.569C63.7585 36.7377 63.8025 36.899 63.8319 37.053L63.5899 37.196C63.6339 37.086 63.6815 36.9503 63.7329 36.789C63.7915 36.6203 63.8539 36.4407 63.9199 36.25L64.9979 33.159H66.9999L64.5139 39L63.5019 41.53H61.7529ZM70.4797 39.11C69.8711 39.11 69.3284 38.978 68.8517 38.714C68.3824 38.45 68.0084 38.0907 67.7297 37.636C67.4584 37.1813 67.3227 36.6607 67.3227 36.074C67.3227 35.4873 67.4584 34.9667 67.7297 34.512C68.0084 34.0573 68.3824 33.698 68.8517 33.434C69.3284 33.17 69.8711 33.038 70.4797 33.038C71.0884 33.038 71.6274 33.17 72.0967 33.434C72.5734 33.698 72.9474 34.0573 73.2187 34.512C73.4901 34.9667 73.6257 35.4873 73.6257 36.074C73.6257 36.6607 73.4901 37.1813 73.2187 37.636C72.9474 38.0907 72.5734 38.45 72.0967 38.714C71.6274 38.978 71.0884 39.11 70.4797 39.11ZM70.4797 37.592C70.7437 37.592 70.9784 37.526 71.1837 37.394C71.3891 37.262 71.5504 37.0823 71.6677 36.855C71.7851 36.6277 71.8401 36.3673 71.8327 36.074C71.8401 35.7807 71.7851 35.5203 71.6677 35.293C71.5504 35.0583 71.3891 34.875 71.1837 34.743C70.9784 34.611 70.7437 34.545 70.4797 34.545C70.2157 34.545 69.9774 34.611 69.7647 34.743C69.5594 34.875 69.3981 35.0583 69.2807 35.293C69.1634 35.5203 69.1084 35.7807 69.1157 36.074C69.1084 36.3673 69.1634 36.6277 69.2807 36.855C69.3981 37.0823 69.5594 37.262 69.7647 37.394C69.9774 37.526 70.2157 37.592 70.4797 37.592ZM74.7766 39V33.159H76.4486L76.5036 34.347L76.1516 34.479C76.2323 34.215 76.3753 33.9767 76.5806 33.764C76.7933 33.544 77.0463 33.368 77.3396 33.236C77.6329 33.104 77.9409 33.038 78.2636 33.038C78.7036 33.038 79.0739 33.1297 79.3746 33.313C79.6753 33.489 79.9026 33.7567 80.0566 34.116C80.2106 34.468 80.2876 34.9007 80.2876 35.414V39H78.5166V35.557C78.5166 35.3223 78.4836 35.128 78.4176 34.974C78.3516 34.82 78.2489 34.7063 78.1096 34.633C77.9776 34.5523 77.8126 34.5157 77.6146 34.523C77.4606 34.523 77.3176 34.5487 77.1856 34.6C77.0536 34.644 76.9399 34.7137 76.8446 34.809C76.7493 34.897 76.6723 34.9997 76.6136 35.117C76.5623 35.2343 76.5366 35.3627 76.5366 35.502V39H75.6676C75.4623 39 75.2863 39 75.1396 39C74.9929 39 74.8719 39 74.7766 39ZM11.1542 53.11C10.7362 53.11 10.3475 53.055 9.9882 52.945C9.6362 52.835 9.31353 52.67 9.0202 52.45C8.7342 52.2227 8.47753 51.944 8.2502 51.614L9.0642 50.679C9.42353 51.1923 9.7682 51.548 10.0982 51.746C10.4282 51.944 10.8205 52.043 11.2752 52.043C11.5539 52.043 11.8069 51.999 12.0342 51.911C12.2615 51.823 12.4412 51.702 12.5732 51.548C12.7052 51.394 12.7712 51.218 12.7712 51.02C12.7712 50.888 12.7492 50.7633 12.7052 50.646C12.6612 50.5287 12.5915 50.4223 12.4962 50.327C12.4082 50.2317 12.2909 50.1437 12.1442 50.063C12.0049 49.9823 11.8399 49.9127 11.6492 49.854C11.4585 49.788 11.2385 49.733 10.9892 49.689C10.5932 49.6083 10.2485 49.502 9.9552 49.37C9.66186 49.238 9.4162 49.073 9.2182 48.875C9.0202 48.677 8.87353 48.4533 8.7782 48.204C8.68286 47.9473 8.6352 47.6613 8.6352 47.346C8.6352 47.038 8.7012 46.752 8.8332 46.488C8.97253 46.224 9.15953 45.9967 9.3942 45.806C9.6362 45.608 9.91853 45.4577 10.2412 45.355C10.5639 45.245 10.9122 45.19 11.2862 45.19C11.6822 45.19 12.0452 45.2413 12.3752 45.344C12.7052 45.4467 12.9985 45.6007 13.2552 45.806C13.5119 46.004 13.7245 46.2497 13.8932 46.543L13.0572 47.368C12.9105 47.126 12.7455 46.9243 12.5622 46.763C12.3789 46.5943 12.1772 46.4697 11.9572 46.389C11.7372 46.301 11.5025 46.257 11.2532 46.257C10.9672 46.257 10.7179 46.301 10.5052 46.389C10.2925 46.477 10.1239 46.6017 9.9992 46.763C9.88186 46.917 9.8232 47.1003 9.8232 47.313C9.8232 47.467 9.85253 47.61 9.9112 47.742C9.96986 47.8667 10.0579 47.9803 10.1752 48.083C10.2999 48.1783 10.4649 48.2663 10.6702 48.347C10.8755 48.4203 11.1212 48.4863 11.4072 48.545C11.8105 48.633 12.1699 48.7467 12.4852 48.886C12.8005 49.018 13.0682 49.1757 13.2882 49.359C13.5082 49.5423 13.6732 49.7477 13.7832 49.975C13.9005 50.2023 13.9592 50.448 13.9592 50.712C13.9592 51.2033 13.8455 51.6287 13.6182 51.988C13.3909 52.3473 13.0682 52.626 12.6502 52.824C12.2322 53.0147 11.7335 53.11 11.1542 53.11ZM16.0715 53V45.751H17.2045V53H16.0715ZM14.8725 48.325V47.225H18.5465V48.325H14.8725ZM20.0401 53.121C19.7981 53.121 19.6111 53.0513 19.4791 52.912C19.3471 52.7653 19.2811 52.56 19.2811 52.296C19.2811 52.054 19.3508 51.856 19.4901 51.702C19.6295 51.548 19.8128 51.471 20.0401 51.471C20.2821 51.471 20.4691 51.5443 20.6011 51.691C20.7331 51.8303 20.7991 52.032 20.7991 52.296C20.7991 52.538 20.7295 52.736 20.5901 52.89C20.4508 53.044 20.2675 53.121 20.0401 53.121ZM25.4501 53V45.3H28.4641C29.0141 45.3 29.5091 45.3917 29.9491 45.575C30.3964 45.7583 30.7777 46.0223 31.0931 46.367C31.4084 46.7117 31.6504 47.1187 31.8191 47.588C31.9877 48.0573 32.0721 48.578 32.0721 49.15C32.0721 49.722 31.9877 50.2463 31.8191 50.723C31.6504 51.1923 31.4084 51.5993 31.0931 51.944C30.7851 52.2813 30.4074 52.5417 29.9601 52.725C29.5127 52.9083 29.0141 53 28.4641 53H25.4501ZM26.6381 51.977L26.6051 51.856H28.4091C28.7977 51.856 29.1424 51.7937 29.4431 51.669C29.7511 51.5443 30.0077 51.3683 30.2131 51.141C30.4257 50.9063 30.5871 50.6203 30.6971 50.283C30.8071 49.9457 30.8621 49.568 30.8621 49.15C30.8621 48.732 30.8071 48.358 30.6971 48.028C30.5871 47.6907 30.4257 47.4047 30.2131 47.17C30.0004 46.9353 29.7437 46.7557 29.4431 46.631C29.1424 46.5063 28.7977 46.444 28.4091 46.444H26.5721L26.6381 46.345V51.977ZM35.9886 53.11C35.4239 53.11 34.9179 52.9817 34.4706 52.725C34.0306 52.461 33.6823 52.1053 33.4256 51.658C33.1689 51.2033 33.0406 50.6863 33.0406 50.107C33.0406 49.5277 33.1689 49.0143 33.4256 48.567C33.6823 48.1123 34.0306 47.7567 34.4706 47.5C34.9179 47.236 35.4239 47.104 35.9886 47.104C36.5459 47.104 37.0446 47.236 37.4846 47.5C37.9319 47.7567 38.2839 48.1123 38.5406 48.567C38.7973 49.0143 38.9256 49.5277 38.9256 50.107C38.9256 50.6863 38.7973 51.2033 38.5406 51.658C38.2839 52.1053 37.9319 52.461 37.4846 52.725C37.0446 52.9817 36.5459 53.11 35.9886 53.11ZM35.9886 52.076C36.3333 52.076 36.6413 51.9917 36.9126 51.823C37.1839 51.647 37.3966 51.4123 37.5506 51.119C37.7046 50.8183 37.7779 50.481 37.7706 50.107C37.7779 49.7257 37.7046 49.3883 37.5506 49.095C37.3966 48.7943 37.1839 48.5597 36.9126 48.391C36.6413 48.2223 36.3333 48.138 35.9886 48.138C35.6439 48.138 35.3323 48.226 35.0536 48.402C34.7823 48.5707 34.5696 48.8053 34.4156 49.106C34.2616 49.3993 34.1883 49.733 34.1956 50.107C34.1883 50.481 34.2616 50.8183 34.4156 51.119C34.5696 51.4123 34.7823 51.647 35.0536 51.823C35.3323 51.9917 35.6439 52.076 35.9886 52.076ZM40.1382 53V47.225H41.2822V48.457L41.0732 48.589C41.1318 48.3983 41.2235 48.215 41.3482 48.039C41.4802 47.863 41.6378 47.709 41.8212 47.577C42.0118 47.4377 42.2135 47.3277 42.4262 47.247C42.6462 47.1663 42.8698 47.126 43.0972 47.126C43.4272 47.126 43.7168 47.181 43.9662 47.291C44.2155 47.401 44.4208 47.566 44.5822 47.786C44.7435 48.006 44.8608 48.281 44.9342 48.611L44.7582 48.567L44.8352 48.38C44.9158 48.2113 45.0258 48.0537 45.1652 47.907C45.3118 47.753 45.4768 47.6173 45.6602 47.5C45.8435 47.3827 46.0378 47.291 46.2432 47.225C46.4485 47.159 46.6502 47.126 46.8482 47.126C47.2808 47.126 47.6365 47.214 47.9152 47.39C48.2012 47.566 48.4138 47.8337 48.5532 48.193C48.6998 48.5523 48.7732 48.9997 48.7732 49.535V53H47.6292V49.601C47.6292 49.271 47.5852 49.0033 47.4972 48.798C47.4165 48.5853 47.2918 48.4277 47.1232 48.325C46.9545 48.2223 46.7382 48.171 46.4742 48.171C46.2688 48.171 46.0745 48.2077 45.8912 48.281C45.7152 48.347 45.5612 48.4423 45.4292 48.567C45.2972 48.6917 45.1945 48.8383 45.1212 49.007C45.0478 49.1683 45.0112 49.348 45.0112 49.546V53H43.8672V49.579C43.8672 49.2783 43.8232 49.0253 43.7352 48.82C43.6472 48.6073 43.5188 48.446 43.3502 48.336C43.1815 48.226 42.9762 48.171 42.7342 48.171C42.5288 48.171 42.3382 48.2077 42.1622 48.281C41.9862 48.347 41.8322 48.4423 41.7002 48.567C41.5682 48.6843 41.4655 48.8273 41.3922 48.996C41.3188 49.1573 41.2822 49.3333 41.2822 49.524V53H40.1382ZM50.477 53V47.225H51.61V53H50.477ZM51.027 45.949C50.785 45.949 50.598 45.8867 50.466 45.762C50.334 45.6373 50.268 45.4613 50.268 45.234C50.268 45.0213 50.334 44.849 50.466 44.717C50.6054 44.585 50.7924 44.519 51.027 44.519C51.269 44.519 51.456 44.5813 51.588 44.706C51.72 44.8307 51.786 45.0067 51.786 45.234C51.786 45.4467 51.7164 45.619 51.577 45.751C51.445 45.883 51.2617 45.949 51.027 45.949ZM53.3516 53V47.225H54.4846V48.413L54.2866 48.545C54.3599 48.2883 54.5029 48.0537 54.7156 47.841C54.9282 47.621 55.1812 47.445 55.4746 47.313C55.7679 47.1737 56.0686 47.104 56.3766 47.104C56.8166 47.104 57.1832 47.192 57.4766 47.368C57.7699 47.5367 57.9899 47.797 58.1366 48.149C58.2832 48.501 58.3566 48.9447 58.3566 49.48V53H57.2236V49.557C57.2236 49.227 57.1796 48.9557 57.0916 48.743C57.0036 48.523 56.8679 48.3653 56.6846 48.27C56.5012 48.1673 56.2739 48.1233 56.0026 48.138C55.7826 48.138 55.5809 48.1747 55.3976 48.248C55.2142 48.314 55.0529 48.4093 54.9136 48.534C54.7816 48.6587 54.6752 48.8053 54.5946 48.974C54.5212 49.1353 54.4846 49.3113 54.4846 49.502V53H53.9236C53.8282 53 53.7329 53 53.6376 53C53.5422 53 53.4469 53 53.3516 53ZM60.0806 53V47.225H61.2136V53H60.0806ZM60.6306 45.949C60.3886 45.949 60.2016 45.8867 60.0696 45.762C59.9376 45.6373 59.8716 45.4613 59.8716 45.234C59.8716 45.0213 59.9376 44.849 60.0696 44.717C60.2089 44.585 60.3959 44.519 60.6306 44.519C60.8726 44.519 61.0596 44.5813 61.1916 44.706C61.3236 44.8307 61.3896 45.0067 61.3896 45.234C61.3896 45.4467 61.3199 45.619 61.1806 45.751C61.0486 45.883 60.8652 45.949 60.6306 45.949ZM65.4081 53.11C64.8728 53.11 64.3924 52.978 63.9671 52.714C63.5491 52.45 63.2154 52.0907 62.9661 51.636C62.7241 51.1813 62.6031 50.6717 62.6031 50.107C62.6031 49.5423 62.7241 49.0327 62.9661 48.578C63.2154 48.1233 63.5491 47.764 63.9671 47.5C64.3924 47.236 64.8728 47.104 65.4081 47.104C65.9214 47.104 66.3871 47.2103 66.8051 47.423C67.2304 47.6283 67.5531 47.9107 67.7731 48.27L67.1461 49.04C67.0288 48.8713 66.8784 48.7173 66.6951 48.578C66.5118 48.4387 66.3174 48.3287 66.1121 48.248C65.9068 48.1673 65.7088 48.127 65.5181 48.127C65.1661 48.127 64.8508 48.215 64.5721 48.391C64.3008 48.5597 64.0844 48.7943 63.9231 49.095C63.7618 49.3957 63.6811 49.733 63.6811 50.107C63.6811 50.481 63.7654 50.8183 63.9341 51.119C64.1028 51.4123 64.3264 51.647 64.6051 51.823C64.8838 51.999 65.1918 52.087 65.5291 52.087C65.7271 52.087 65.9178 52.054 66.1011 51.988C66.2918 51.922 66.4751 51.823 66.6511 51.691C66.8271 51.559 66.9921 51.3977 67.1461 51.207L67.7731 51.977C67.5384 52.307 67.2011 52.5783 66.7611 52.791C66.3284 53.0037 65.8774 53.11 65.4081 53.11ZM69.0208 47.775L68.6028 47.269C68.8888 47.137 69.1235 46.9867 69.3068 46.818C69.4901 46.6493 69.5818 46.5027 69.5818 46.378C69.5818 46.2827 69.5415 46.1983 69.4608 46.125C69.3801 46.0443 69.3068 45.9783 69.2408 45.927C69.0795 45.795 68.9695 45.685 68.9108 45.597C68.8595 45.509 68.8338 45.4173 68.8338 45.322C68.8338 45.146 68.8961 45.0067 69.0208 44.904C69.1455 44.794 69.3068 44.739 69.5048 44.739C69.7101 44.739 69.8935 44.794 70.0548 44.904C70.2235 45.0067 70.3555 45.1497 70.4508 45.333C70.5461 45.5163 70.5938 45.7327 70.5938 45.982C70.5938 46.1727 70.5535 46.3597 70.4728 46.543C70.3921 46.7263 70.2785 46.8987 70.1318 47.06C69.9925 47.2213 69.8275 47.3643 69.6368 47.489C69.4461 47.6137 69.2408 47.709 69.0208 47.775ZM73.7531 53.11C73.2691 53.11 72.8328 53.0257 72.4441 52.857C72.0555 52.6883 71.7328 52.439 71.4761 52.109L72.2461 51.449C72.4661 51.7057 72.7045 51.8927 72.9611 52.01C73.2251 52.12 73.5221 52.175 73.8521 52.175C73.9841 52.175 74.1051 52.1603 74.2151 52.131C74.3325 52.0943 74.4315 52.043 74.5121 51.977C74.6001 51.911 74.6661 51.834 74.7101 51.746C74.7541 51.6507 74.7761 51.548 74.7761 51.438C74.7761 51.2473 74.7065 51.0933 74.5671 50.976C74.4938 50.9247 74.3765 50.8697 74.2151 50.811C74.0611 50.745 73.8595 50.679 73.6101 50.613C73.1848 50.503 72.8365 50.3783 72.5651 50.239C72.2938 50.0997 72.0848 49.942 71.9381 49.766C71.8281 49.6267 71.7475 49.4763 71.6961 49.315C71.6448 49.1463 71.6191 48.963 71.6191 48.765C71.6191 48.523 71.6705 48.303 71.7731 48.105C71.8831 47.8997 72.0298 47.7237 72.2131 47.577C72.4038 47.423 72.6238 47.3057 72.8731 47.225C73.1298 47.1443 73.4011 47.104 73.6871 47.104C73.9585 47.104 74.2261 47.1407 74.4901 47.214C74.7615 47.2873 75.0108 47.3937 75.2381 47.533C75.4655 47.6723 75.6561 47.8373 75.8101 48.028L75.1611 48.743C75.0218 48.6037 74.8678 48.4827 74.6991 48.38C74.5378 48.27 74.3728 48.1857 74.2041 48.127C74.0355 48.0683 73.8815 48.039 73.7421 48.039C73.5881 48.039 73.4488 48.0537 73.3241 48.083C73.1995 48.1123 73.0931 48.1563 73.0051 48.215C72.9245 48.2737 72.8621 48.347 72.8181 48.435C72.7741 48.523 72.7521 48.622 72.7521 48.732C72.7595 48.8273 72.7815 48.919 72.8181 49.007C72.8621 49.0877 72.9208 49.1573 72.9941 49.216C73.0748 49.2747 73.1958 49.337 73.3571 49.403C73.5185 49.469 73.7238 49.5313 73.9731 49.59C74.3398 49.6853 74.6405 49.7917 74.8751 49.909C75.1171 50.019 75.3078 50.1473 75.4471 50.294C75.5938 50.4333 75.6965 50.5947 75.7551 50.778C75.8138 50.9613 75.8431 51.1667 75.8431 51.394C75.8431 51.724 75.7478 52.021 75.5571 52.285C75.3738 52.5417 75.1245 52.7433 74.8091 52.89C74.4938 53.0367 74.1418 53.11 73.7531 53.11Z" fill="black"/>
<path d="M33 24.5C39.5 26.5 45.5 26.5 52 24.5C45.5 21.5 39.5 21.5 33 24.5Z" fill="#949494"/>
<path d="M33 24.5L36 17C41 15.5 44 15.5 49 17L52 24.5C45.5 21.5 39.5 21.5 33 24.5Z" fill="#B0B0B0"/>
<path d="M36.001 16.726C36.0678 7.48065 39.5194 6.49515 41.5 6L41.9621 4.15149C41.9844 4.06246 42.0644 4 42.1562 4H42.8438C42.9356 4 43.0156 4.06246 43.0379 4.15149L43.5 6C45.4806 6.49515 48.9322 7.48065 48.999 16.726C49 16.8599 48.8693 16.9608 48.7407 16.923C43.9808 15.5257 41.0192 15.5257 36.2593 16.923C36.1307 16.9608 36 16.8599 36.001 16.726Z" fill="#D1D1D1"/>
<path d="M36 17L33.0806 24.2984C33.0372 24.407 33.0964 24.5297 33.2083 24.5635C39.559 26.4788 45.441 26.4788 51.7917 24.5635C51.9036 24.5297 51.9628 24.407 51.9194 24.2984L49 17M36 17C36 7.53695 39.4728 6.50791 41.4766 6.00586C41.4925 6.00188 41.5083 6 41.5246 6H43.4754C43.4917 6 43.5075 6.00188 43.5234 6.00586C45.5272 6.50791 49 7.53695 49 17M36 17C41 15.5 44 15.5 49 17" stroke="#484848"/>
<path d="M42.3536 25H42.5H42.6464C42.8728 25 43.0899 25.0899 43.25 25.25C43.4101 25.4101 43.5 25.6272 43.5 25.8536V27.1464C43.5 27.3728 43.4101 27.5899 43.25 27.75C43.0899 27.9101 42.8728 28 42.6464 28H42.3536C42.1272 28 41.9101 27.9101 41.75 27.75C41.5899 27.5899 41.5 27.3728 41.5 27.1464V25.8536C41.5 25.6272 41.5899 25.4101 41.75 25.25C41.9101 25.0899 42.1272 25 42.3536 25Z" fill="black"/>
<path d="M42.5 22.25V25M42.5 25H42.3536C42.1272 25 41.9101 25.0899 41.75 25.25V25.25C41.5899 25.4101 41.5 25.6272 41.5 25.8536V27.1464C41.5 27.3728 41.5899 27.5899 41.75 27.75V27.75C41.9101 27.9101 42.1272 28 42.3536 28H42.6464C42.8728 28 43.0899 27.9101 43.25 27.75V27.75C43.4101 27.5899 43.5 27.3728 43.5 27.1464V25.8536C43.5 25.6272 43.4101 25.4101 43.25 25.25V25.25C43.0899 25.0899 42.8728 25 42.6464 25H42.5Z" stroke="#010101"/>
<path d="M36 17L33.1865 24.0336C33.1194 24.2016 33.2932 24.366 33.4586 24.2929C39.6304 21.569 45.3696 21.569 51.5414 24.2929C51.7068 24.366 51.8806 24.2016 51.8135 24.0336L49 17M36 17C36 7.5 39.5 6.5 41.5 6M36 17C41 15.5 44 15.5 49 17M49 17C49 7.5 45.5 6.5 43.5 6M43.5 6H41.5M43.5 6L43.0379 4.15149C43.0156 4.06246 42.9356 4 42.8438 4H42.1562C42.0644 4 41.9844 4.06246 41.9621 4.15149L41.5 6" stroke="#484848"/>
</svg>
