<svg width="59" height="55" viewBox="0 0 59 55" fill="none" xmlns="http://www.w3.org/2000/svg">
<path d="M22.5 0.5H34.5L57.5 30L59 55H0L1.5 29L22.5 0.5Z" fill="#FF0000" fill-opacity="0.31"/>
<path d="M6.25462 38V30.3H11.6226V31.895H8.06962V36.405H11.7326V38H6.25462ZM7.13462 34.843V33.325H11.1276V34.843H7.13462ZM13.1575 40.42V32.159H14.8295L14.8955 33.468L14.5655 33.369C14.6168 33.127 14.7415 32.907 14.9395 32.709C15.1375 32.511 15.3868 32.3533 15.6875 32.236C15.9955 32.1113 16.3181 32.049 16.6555 32.049C17.1541 32.049 17.5978 32.181 17.9865 32.445C18.3751 32.7017 18.6795 33.0573 18.8995 33.512C19.1268 33.9593 19.2405 34.48 19.2405 35.074C19.2405 35.6607 19.1268 36.1813 18.8995 36.636C18.6795 37.0907 18.3715 37.45 17.9755 37.714C17.5868 37.9707 17.1395 38.099 16.6335 38.099C16.3035 38.099 15.9881 38.0367 15.6875 37.912C15.3868 37.7873 15.1338 37.6187 14.9285 37.406C14.7231 37.1933 14.5875 36.9623 14.5215 36.713L14.9285 36.559V40.42H13.1575ZM16.2045 36.614C16.4685 36.614 16.6995 36.5517 16.8975 36.427C17.0955 36.295 17.2495 36.1153 17.3595 35.888C17.4695 35.6607 17.5245 35.3893 17.5245 35.074C17.5245 34.766 17.4695 34.4983 17.3595 34.271C17.2495 34.0363 17.0955 33.8567 16.8975 33.732C16.7068 33.6 16.4758 33.534 16.2045 33.534C15.9331 33.534 15.6985 33.5963 15.5005 33.721C15.3025 33.8457 15.1485 34.0253 15.0385 34.26C14.9285 34.4947 14.8735 34.766 14.8735 35.074C14.8735 35.3893 14.9285 35.6607 15.0385 35.888C15.1485 36.1153 15.3025 36.295 15.5005 36.427C15.6985 36.5517 15.9331 36.614 16.2045 36.614ZM20.4084 38V29.86H22.1354V33.347L21.7834 33.479C21.8641 33.215 22.0071 32.9767 22.2124 32.764C22.4251 32.544 22.6781 32.368 22.9714 32.236C23.2648 32.104 23.5728 32.038 23.8954 32.038C24.3354 32.038 24.7058 32.1297 25.0064 32.313C25.3071 32.489 25.5344 32.7567 25.6884 33.116C25.8424 33.468 25.9194 33.9007 25.9194 34.414V38H24.1484V34.557C24.1484 34.3223 24.1154 34.128 24.0494 33.974C23.9834 33.82 23.8808 33.7063 23.7414 33.633C23.6094 33.5523 23.4444 33.5157 23.2464 33.523C23.0924 33.523 22.9494 33.5487 22.8174 33.6C22.6854 33.644 22.5718 33.7137 22.4764 33.809C22.3811 33.897 22.3041 33.9997 22.2454 34.117C22.1941 34.2343 22.1684 34.3627 22.1684 34.502V38H21.2994C21.0941 38 20.9181 38 20.7714 38C20.6248 38 20.5038 38 20.4084 38ZM27.3909 38V32.159H29.0629L29.1399 34.062L28.8099 33.699C28.8979 33.3837 29.0409 33.1013 29.2389 32.852C29.4442 32.6027 29.6825 32.4047 29.9539 32.258C30.2252 32.1113 30.5149 32.038 30.8229 32.038C30.9549 32.038 31.0759 32.049 31.1859 32.071C31.3032 32.093 31.4095 32.1187 31.5049 32.148L31.0209 34.095C30.9402 34.0437 30.8302 34.0033 30.6909 33.974C30.5589 33.9373 30.4195 33.919 30.2729 33.919C30.1115 33.919 29.9612 33.9483 29.8219 34.007C29.6825 34.0583 29.5652 34.1353 29.4699 34.238C29.3745 34.3407 29.2975 34.4617 29.2389 34.601C29.1875 34.7403 29.1619 34.898 29.1619 35.074V38H27.3909ZM34.3057 38.099C33.8143 38.099 33.3743 37.9707 32.9857 37.714C32.6043 37.45 32.3 37.0907 32.0727 36.636C31.8453 36.174 31.7317 35.6533 31.7317 35.074C31.7317 34.48 31.8453 33.9557 32.0727 33.501C32.3 33.0463 32.6117 32.6907 33.0077 32.434C33.4037 32.17 33.8547 32.038 34.3607 32.038C34.6393 32.038 34.8923 32.0783 35.1197 32.159C35.3543 32.2397 35.5597 32.3533 35.7357 32.5C35.9117 32.6393 36.062 32.8043 36.1867 32.995C36.3113 33.1783 36.403 33.3763 36.4617 33.589L36.0987 33.545V32.159H37.8477V38H36.0657V36.592L36.4617 36.581C36.403 36.7863 36.3077 36.9807 36.1757 37.164C36.0437 37.3473 35.8823 37.5087 35.6917 37.648C35.501 37.7873 35.2883 37.8973 35.0537 37.978C34.819 38.0587 34.5697 38.099 34.3057 38.099ZM34.7897 36.614C35.061 36.614 35.2957 36.5517 35.4937 36.427C35.6917 36.3023 35.8457 36.1263 35.9557 35.899C36.0657 35.6643 36.1207 35.3893 36.1207 35.074C36.1207 34.7587 36.0657 34.4873 35.9557 34.26C35.8457 34.0253 35.6917 33.8457 35.4937 33.721C35.2957 33.589 35.061 33.523 34.7897 33.523C34.5257 33.523 34.2947 33.589 34.0967 33.721C33.906 33.8457 33.7557 34.0253 33.6457 34.26C33.5357 34.4873 33.4807 34.7587 33.4807 35.074C33.4807 35.3893 33.5357 35.6643 33.6457 35.899C33.7557 36.1263 33.906 36.3023 34.0967 36.427C34.2947 36.5517 34.5257 36.614 34.7897 36.614ZM39.4996 38V32.159H41.2596V38H39.4996ZM40.3796 31.004C40.0496 31.004 39.7893 30.927 39.5986 30.773C39.4153 30.6117 39.3236 30.3843 39.3236 30.091C39.3236 29.827 39.419 29.6107 39.6096 29.442C39.8003 29.2733 40.057 29.189 40.3796 29.189C40.7096 29.189 40.9663 29.2697 41.1496 29.431C41.333 29.585 41.4246 29.805 41.4246 30.091C41.4246 30.3623 41.3293 30.5823 41.1386 30.751C40.9553 30.9197 40.7023 31.004 40.3796 31.004ZM42.9023 38V32.159H44.5743L44.6293 33.215L44.3983 33.226C44.4863 33.0353 44.5963 32.8667 44.7283 32.72C44.8677 32.5733 45.0217 32.4523 45.1903 32.357C45.3663 32.2543 45.546 32.1773 45.7293 32.126C45.92 32.0747 46.1107 32.049 46.3013 32.049C46.5873 32.049 46.8477 32.093 47.0823 32.181C47.317 32.269 47.5223 32.412 47.6983 32.61C47.8743 32.8007 48.0137 33.061 48.1163 33.391L47.8413 33.369L47.9293 33.193C48.0247 33.017 48.1457 32.8593 48.2923 32.72C48.4463 32.5733 48.615 32.4523 48.7983 32.357C48.9817 32.2543 49.1723 32.1773 49.3703 32.126C49.5683 32.0747 49.759 32.049 49.9423 32.049C50.4043 32.049 50.7893 32.1407 51.0973 32.324C51.4053 32.5 51.6363 32.7677 51.7903 33.127C51.9517 33.4863 52.0323 33.9227 52.0323 34.436V38H50.2613V34.579C50.2613 34.3443 50.2283 34.15 50.1623 33.996C50.0963 33.842 49.9973 33.7283 49.8653 33.655C49.7407 33.5743 49.583 33.534 49.3923 33.534C49.2383 33.534 49.0953 33.5597 48.9633 33.611C48.8387 33.6623 48.7287 33.732 48.6333 33.82C48.5453 33.908 48.4757 34.0107 48.4243 34.128C48.373 34.2453 48.3473 34.3773 48.3473 34.524V38H46.5763V34.568C46.5763 34.348 46.5433 34.161 46.4773 34.007C46.4113 33.853 46.3123 33.7357 46.1803 33.655C46.0483 33.5743 45.8943 33.534 45.7183 33.534C45.5643 33.534 45.4213 33.5597 45.2893 33.611C45.1647 33.6623 45.0547 33.732 44.9593 33.82C44.8713 33.908 44.8017 34.0107 44.7503 34.128C44.699 34.2453 44.6733 34.3737 44.6733 34.513V38H42.9023ZM6.86611 52.11C6.44811 52.11 6.05944 52.055 5.70011 51.945C5.34811 51.835 5.02544 51.67 4.73211 51.45C4.44611 51.2227 4.18944 50.944 3.96211 50.614L4.77611 49.679C5.13544 50.1923 5.48011 50.548 5.81011 50.746C6.14011 50.944 6.53244 51.043 6.98711 51.043C7.26578 51.043 7.51878 50.999 7.74611 50.911C7.97344 50.823 8.15311 50.702 8.28511 50.548C8.41711 50.394 8.48311 50.218 8.48311 50.02C8.48311 49.888 8.46111 49.7633 8.41711 49.646C8.37311 49.5287 8.30344 49.4223 8.20811 49.327C8.12011 49.2317 8.00278 49.1437 7.85611 49.063C7.71678 48.9823 7.55178 48.9127 7.36111 48.854C7.17044 48.788 6.95044 48.733 6.70111 48.689C6.30511 48.6083 5.96044 48.502 5.66711 48.37C5.37378 48.238 5.12811 48.073 4.93011 47.875C4.73211 47.677 4.58544 47.4533 4.49011 47.204C4.39478 46.9473 4.34711 46.6613 4.34711 46.346C4.34711 46.038 4.41311 45.752 4.54511 45.488C4.68444 45.224 4.87144 44.9967 5.10611 44.806C5.34811 44.608 5.63044 44.4577 5.95311 44.355C6.27578 44.245 6.62411 44.19 6.99811 44.19C7.39411 44.19 7.75711 44.2413 8.08711 44.344C8.41711 44.4467 8.71044 44.6007 8.96711 44.806C9.22378 45.004 9.43644 45.2497 9.60511 45.543L8.76911 46.368C8.62244 46.126 8.45744 45.9243 8.27411 45.763C8.09078 45.5943 7.88911 45.4697 7.66911 45.389C7.44911 45.301 7.21444 45.257 6.96511 45.257C6.67911 45.257 6.42978 45.301 6.21711 45.389C6.00444 45.477 5.83578 45.6017 5.71111 45.763C5.59378 45.917 5.53511 46.1003 5.53511 46.313C5.53511 46.467 5.56444 46.61 5.62311 46.742C5.68178 46.8667 5.76978 46.9803 5.88711 47.083C6.01178 47.1783 6.17678 47.2663 6.38211 47.347C6.58744 47.4203 6.83311 47.4863 7.11911 47.545C7.52244 47.633 7.88178 47.7467 8.19711 47.886C8.51244 48.018 8.78011 48.1757 9.00011 48.359C9.22011 48.5423 9.38511 48.7477 9.49511 48.975C9.61244 49.2023 9.67111 49.448 9.67111 49.712C9.67111 50.2033 9.55744 50.6287 9.33011 50.988C9.10278 51.3473 8.78011 51.626 8.36211 51.824C7.94411 52.0147 7.44544 52.11 6.86611 52.11ZM11.7834 52V44.751H12.9164V52H11.7834ZM10.5844 47.325V46.225H14.2584V47.325H10.5844ZM15.752 52.121C15.51 52.121 15.323 52.0513 15.191 51.912C15.059 51.7653 14.993 51.56 14.993 51.296C14.993 51.054 15.0627 50.856 15.202 50.702C15.3414 50.548 15.5247 50.471 15.752 50.471C15.994 50.471 16.181 50.5443 16.313 50.691C16.445 50.8303 16.511 51.032 16.511 51.296C16.511 51.538 16.4414 51.736 16.302 51.89C16.1627 52.044 15.9794 52.121 15.752 52.121ZM22.9 52.11C22.6507 52.11 22.4123 52.077 22.185 52.011C21.9577 51.945 21.745 51.8497 21.547 51.725C21.3563 51.6003 21.184 51.4537 21.03 51.285C20.876 51.109 20.744 50.9183 20.634 50.713L21.382 49.932C21.536 50.152 21.6753 50.328 21.8 50.46C21.932 50.592 22.0567 50.6947 22.174 50.768C22.2913 50.8413 22.4087 50.8927 22.526 50.922C22.6433 50.944 22.768 50.955 22.9 50.955C23.164 50.955 23.395 50.8963 23.593 50.779C23.791 50.6543 23.945 50.4857 24.055 50.273C24.165 50.0603 24.22 49.8183 24.22 49.547V45.4H22.812V44.3H26.596V45.4H25.408V49.657C25.408 50.009 25.3457 50.3353 25.221 50.636C25.1037 50.9293 24.9313 51.186 24.704 51.406C24.484 51.626 24.22 51.7983 23.912 51.923C23.6113 52.0477 23.274 52.11 22.9 52.11ZM29.4098 52.11C28.9991 52.11 28.6398 52.0147 28.3318 51.824C28.0311 51.6333 27.7964 51.3657 27.6278 51.021C27.4664 50.6763 27.3858 50.2657 27.3858 49.789V46.225H28.5188V49.481C28.5188 49.8183 28.5701 50.1117 28.6728 50.361C28.7828 50.603 28.9368 50.79 29.1348 50.922C29.3401 51.054 29.5858 51.12 29.8718 51.12C30.0844 51.12 30.2788 51.087 30.4548 51.021C30.6308 50.9477 30.7811 50.8487 30.9058 50.724C31.0378 50.5993 31.1404 50.449 31.2138 50.273C31.2871 50.097 31.3238 49.9063 31.3238 49.701V46.225H32.4568V52H31.3238V50.79L31.5218 50.658C31.4338 50.9293 31.2834 51.175 31.0708 51.395C30.8654 51.615 30.6198 51.791 30.3338 51.923C30.0478 52.0477 29.7398 52.11 29.4098 52.11ZM36.4549 52.11C35.9269 52.11 35.4539 51.9817 35.0359 51.725C34.6252 51.461 34.2989 51.1053 34.0569 50.658C33.8149 50.2033 33.6939 49.6863 33.6939 49.107C33.6939 48.5277 33.8112 48.0143 34.0459 47.567C34.2879 47.1123 34.6142 46.7567 35.0249 46.5C35.4356 46.236 35.9012 46.104 36.4219 46.104C36.7079 46.104 36.9829 46.1517 37.2469 46.247C37.5182 46.335 37.7602 46.4597 37.9729 46.621C38.1856 46.775 38.3506 46.9473 38.4679 47.138C38.5926 47.3213 38.6549 47.5083 38.6549 47.699L38.3249 47.721V43.86H39.4579V52H38.3249V50.625H38.5449C38.5449 50.801 38.4862 50.977 38.3689 51.153C38.2516 51.3217 38.0939 51.4793 37.8959 51.626C37.7052 51.7727 37.4816 51.89 37.2249 51.978C36.9756 52.066 36.7189 52.11 36.4549 52.11ZM36.6089 51.131C36.9536 51.131 37.2579 51.043 37.5219 50.867C37.7859 50.691 37.9912 50.4527 38.1379 50.152C38.2919 49.844 38.3689 49.4957 38.3689 49.107C38.3689 48.7183 38.2919 48.3737 38.1379 48.073C37.9912 47.765 37.7859 47.523 37.5219 47.347C37.2579 47.171 36.9536 47.083 36.6089 47.083C36.2642 47.083 35.9599 47.171 35.6959 47.347C35.4319 47.523 35.2229 47.765 35.0689 48.073C34.9222 48.3737 34.8489 48.7183 34.8489 49.107C34.8489 49.4957 34.9222 49.844 35.0689 50.152C35.2229 50.4527 35.4319 50.691 35.6959 50.867C35.9599 51.043 36.2642 51.131 36.6089 51.131ZM43.7126 52.11C43.1186 52.11 42.5906 51.9853 42.1286 51.736C41.6739 51.4793 41.3146 51.131 41.0506 50.691C40.7939 50.251 40.6656 49.745 40.6656 49.173C40.6656 48.7183 40.7389 48.304 40.8856 47.93C41.0323 47.556 41.2339 47.2333 41.4906 46.962C41.7546 46.6833 42.0663 46.4707 42.4256 46.324C42.7923 46.17 43.1883 46.093 43.6136 46.093C43.9876 46.093 44.3359 46.1663 44.6586 46.313C44.9813 46.4523 45.2599 46.6467 45.4946 46.896C45.7366 47.1453 45.9199 47.4423 46.0446 47.787C46.1766 48.1243 46.2389 48.4947 46.2316 48.898L46.2206 49.382H41.5016L41.2486 48.48H45.2416L45.0766 48.667V48.403C45.0546 48.161 44.9739 47.9447 44.8346 47.754C44.6953 47.5633 44.5193 47.413 44.3066 47.303C44.0939 47.193 43.8629 47.138 43.6136 47.138C43.2176 47.138 42.8839 47.215 42.6126 47.369C42.3413 47.5157 42.1359 47.7357 41.9966 48.029C41.8573 48.315 41.7876 48.6707 41.7876 49.096C41.7876 49.4993 41.8719 49.8513 42.0406 50.152C42.2093 50.4453 42.4476 50.6727 42.7556 50.834C43.0636 50.9953 43.4193 51.076 43.8226 51.076C44.1086 51.076 44.3726 51.0283 44.6146 50.933C44.8639 50.8377 45.1316 50.6653 45.4176 50.416L45.9896 51.219C45.8136 51.395 45.5973 51.549 45.3406 51.681C45.0913 51.813 44.8236 51.9193 44.5376 52C44.2589 52.0733 43.9839 52.11 43.7126 52.11ZM47.3089 46.775L46.8909 46.269C47.1769 46.137 47.4116 45.9867 47.5949 45.818C47.7782 45.6493 47.8699 45.5027 47.8699 45.378C47.8699 45.2827 47.8296 45.1983 47.7489 45.125C47.6682 45.0443 47.5949 44.9783 47.5289 44.927C47.3676 44.795 47.2576 44.685 47.1989 44.597C47.1476 44.509 47.1219 44.4173 47.1219 44.322C47.1219 44.146 47.1842 44.0067 47.3089 43.904C47.4336 43.794 47.5949 43.739 47.7929 43.739C47.9982 43.739 48.1816 43.794 48.3429 43.904C48.5116 44.0067 48.6436 44.1497 48.7389 44.333C48.8342 44.5163 48.8819 44.7327 48.8819 44.982C48.8819 45.1727 48.8416 45.3597 48.7609 45.543C48.6802 45.7263 48.5666 45.8987 48.4199 46.06C48.2806 46.2213 48.1156 46.3643 47.9249 46.489C47.7342 46.6137 47.5289 46.709 47.3089 46.775ZM52.0412 52.11C51.5572 52.11 51.1209 52.0257 50.7322 51.857C50.3436 51.6883 50.0209 51.439 49.7642 51.109L50.5342 50.449C50.7542 50.7057 50.9926 50.8927 51.2492 51.01C51.5132 51.12 51.8102 51.175 52.1402 51.175C52.2722 51.175 52.3932 51.1603 52.5032 51.131C52.6206 51.0943 52.7196 51.043 52.8002 50.977C52.8882 50.911 52.9542 50.834 52.9982 50.746C53.0422 50.6507 53.0642 50.548 53.0642 50.438C53.0642 50.2473 52.9946 50.0933 52.8552 49.976C52.7819 49.9247 52.6646 49.8697 52.5032 49.811C52.3492 49.745 52.1476 49.679 51.8982 49.613C51.4729 49.503 51.1246 49.3783 50.8532 49.239C50.5819 49.0997 50.3729 48.942 50.2262 48.766C50.1162 48.6267 50.0356 48.4763 49.9842 48.315C49.9329 48.1463 49.9072 47.963 49.9072 47.765C49.9072 47.523 49.9586 47.303 50.0612 47.105C50.1712 46.8997 50.3179 46.7237 50.5012 46.577C50.6919 46.423 50.9119 46.3057 51.1612 46.225C51.4179 46.1443 51.6892 46.104 51.9752 46.104C52.2466 46.104 52.5142 46.1407 52.7782 46.214C53.0496 46.2873 53.2989 46.3937 53.5262 46.533C53.7536 46.6723 53.9442 46.8373 54.0982 47.028L53.4492 47.743C53.3099 47.6037 53.1559 47.4827 52.9872 47.38C52.8259 47.27 52.6609 47.1857 52.4922 47.127C52.3236 47.0683 52.1696 47.039 52.0302 47.039C51.8762 47.039 51.7369 47.0537 51.6122 47.083C51.4876 47.1123 51.3812 47.1563 51.2932 47.215C51.2126 47.2737 51.1502 47.347 51.1062 47.435C51.0622 47.523 51.0402 47.622 51.0402 47.732C51.0476 47.8273 51.0696 47.919 51.1062 48.007C51.1502 48.0877 51.2089 48.1573 51.2822 48.216C51.3629 48.2747 51.4839 48.337 51.6452 48.403C51.8066 48.469 52.0119 48.5313 52.2612 48.59C52.6279 48.6853 52.9286 48.7917 53.1632 48.909C53.4052 49.019 53.5959 49.1473 53.7352 49.294C53.8819 49.4333 53.9846 49.5947 54.0432 49.778C54.1019 49.9613 54.1312 50.1667 54.1312 50.394C54.1312 50.724 54.0359 51.021 53.8452 51.285C53.6619 51.5417 53.4126 51.7433 53.0972 51.89C52.7819 52.0367 52.4299 52.11 52.0412 52.11Z" fill="black"/>
<path d="M18 23.5C24.5 25.5 30.5 25.5 37 23.5C30.5 20.5 24.5 20.5 18 23.5Z" fill="#949494"/>
<path d="M18 23.5L21 16C26 14.5 29 14.5 34 16L37 23.5C30.5 20.5 24.5 20.5 18 23.5Z" fill="#B0B0B0"/>
<path d="M21.001 15.726C21.0678 6.48065 24.5194 5.49515 26.5 5L26.9621 3.15149C26.9844 3.06246 27.0644 3 27.1562 3H27.8438C27.9356 3 28.0156 3.06246 28.0379 3.15149L28.5 5C30.4806 5.49515 33.9322 6.48065 33.999 15.726C34 15.8599 33.8693 15.9608 33.7407 15.923C28.9808 14.5257 26.0192 14.5257 21.2593 15.923C21.1307 15.9608 21 15.8599 21.001 15.726Z" fill="#D1D1D1"/>
<path d="M21 16L18.0806 23.2984C18.0372 23.407 18.0964 23.5297 18.2083 23.5635C24.559 25.4788 30.441 25.4788 36.7917 23.5635C36.9036 23.5297 36.9628 23.407 36.9194 23.2984L34 16M21 16C21 6.53695 24.4728 5.50791 26.4766 5.00586C26.4925 5.00188 26.5083 5 26.5246 5H28.4754C28.4917 5 28.5075 5.00188 28.5234 5.00586C30.5272 5.50791 34 6.53695 34 16M21 16C26 14.5 29 14.5 34 16" stroke="#484848"/>
<path d="M27.3536 24H27.5H27.6464C27.8728 24 28.0899 24.0899 28.25 24.25C28.4101 24.4101 28.5 24.6272 28.5 24.8536V26.1464C28.5 26.3728 28.4101 26.5899 28.25 26.75C28.0899 26.9101 27.8728 27 27.6464 27H27.3536C27.1272 27 26.9101 26.9101 26.75 26.75C26.5899 26.5899 26.5 26.3728 26.5 26.1464V24.8536C26.5 24.6272 26.5899 24.4101 26.75 24.25C26.9101 24.0899 27.1272 24 27.3536 24Z" fill="black"/>
<path d="M27.5 21.25V24M27.5 24H27.3536C27.1272 24 26.9101 24.0899 26.75 24.25V24.25C26.5899 24.4101 26.5 24.6272 26.5 24.8536V26.1464C26.5 26.3728 26.5899 26.5899 26.75 26.75V26.75C26.9101 26.9101 27.1272 27 27.3536 27H27.6464C27.8728 27 28.0899 26.9101 28.25 26.75V26.75C28.4101 26.5899 28.5 26.3728 28.5 26.1464V24.8536C28.5 24.6272 28.4101 24.4101 28.25 24.25V24.25C28.0899 24.0899 27.8728 24 27.6464 24H27.5Z" stroke="#010101"/>
<path d="M21 16L18.1865 23.0336C18.1194 23.2016 18.2932 23.366 18.4586 23.2929C24.6304 20.569 30.3696 20.569 36.5414 23.2929C36.7068 23.366 36.8806 23.2016 36.8135 23.0336L34 16M21 16C21 6.5 24.5 5.5 26.5 5M21 16C26 14.5 29 14.5 34 16M34 16C34 6.5 30.5 5.5 28.5 5M28.5 5H26.5M28.5 5L28.0379 3.15149C28.0156 3.06246 27.9356 3 27.8438 3H27.1562C27.0644 3 26.9844 3.06246 26.9621 3.15149L26.5 5" stroke="#484848"/>
</svg>
