<svg width="21" height="26" viewBox="0 0 21 26" fill="none" xmlns="http://www.w3.org/2000/svg">
<path d="M1 21.5C7.5 23.5 13.5 23.5 20 21.5C13.5 18.5 7.5 18.5 1 21.5Z" fill="#949494"/>
<path d="M1 21.5L4 14C9 12.5 12 12.5 17 14L20 21.5C13.5 18.5 7.5 18.5 1 21.5Z" fill="#B0B0B0"/>
<path d="M4.00098 13.726C4.06776 4.48065 7.5194 3.49515 9.5 3L9.96213 1.15149C9.98439 1.06246 10.0644 1 10.1562 1H10.8438C10.9356 1 11.0156 1.06246 11.0379 1.15149L11.5 3C13.4806 3.49515 16.9322 4.48065 16.999 13.726C17 13.8599 16.8693 13.9608 16.7407 13.923C11.9808 12.5257 9.0192 12.5257 4.25927 13.923C4.13073 13.9608 4.00002 13.8599 4.00098 13.726Z" fill="#D1D1D1"/>
<path d="M4 14L1.08063 21.2984C1.03721 21.407 1.09641 21.5297 1.20835 21.5635C7.55898 23.4788 13.441 23.4788 19.7917 21.5635C19.9036 21.5297 19.9628 21.407 19.9194 21.2984L17 14M4 14C4 4.53695 7.47282 3.50791 9.47659 3.00586C9.49246 3.00188 9.50827 3 9.52462 3H11.4754C11.4917 3 11.5075 3.00188 11.5234 3.00586C13.5272 3.50791 17 4.53695 17 14M4 14C9 12.5 12 12.5 17 14" stroke="#484848"/>
<path d="M10.3536 22H10.5H10.6464C10.8728 22 11.0899 22.0899 11.25 22.25C11.4101 22.4101 11.5 22.6272 11.5 22.8536V24.1464C11.5 24.3728 11.4101 24.5899 11.25 24.75C11.0899 24.9101 10.8728 25 10.6464 25H10.3536C10.1272 25 9.91007 24.9101 9.75 24.75C9.58993 24.5899 9.5 24.3728 9.5 24.1464V22.8536C9.5 22.6272 9.58993 22.4101 9.75 22.25C9.91007 22.0899 10.1272 22 10.3536 22Z" fill="black"/>
<path d="M10.5 19.25V22M10.5 22H10.3536C10.1272 22 9.91007 22.0899 9.75 22.25V22.25C9.58993 22.4101 9.5 22.6272 9.5 22.8536V24.1464C9.5 24.3728 9.58993 24.5899 9.75 24.75V24.75C9.91007 24.9101 10.1272 25 10.3536 25H10.6464C10.8728 25 11.0899 24.9101 11.25 24.75V24.75C11.4101 24.5899 11.5 24.3728 11.5 24.1464V22.8536C11.5 22.6272 11.4101 22.4101 11.25 22.25V22.25C11.0899 22.0899 10.8728 22 10.6464 22H10.5Z" stroke="#010101"/>
<path d="M4 14L1.18654 21.0336C1.11938 21.2016 1.29316 21.366 1.45861 21.2929C7.6304 18.569 13.3696 18.569 19.5414 21.2929C19.7068 21.366 19.8806 21.2016 19.8135 21.0336L17 14M4 14C4 4.5 7.5 3.5 9.5 3M4 14C9 12.5 12 12.5 17 14M17 14C17 4.5 13.5 3.5 11.5 3M11.5 3H9.5M11.5 3L11.0379 1.15149C11.0156 1.06246 10.9356 1 10.8438 1H10.1562C10.0644 1 9.98439 1.06246 9.96213 1.15149L9.5 3" stroke="#484848"/>
</svg>
