<svg width="76" height="56" viewBox="0 0 76 56" fill="none" xmlns="http://www.w3.org/2000/svg">
<path d="M30.5 0H45L69.5 31L69 55.5L5.5 55V31L30.5 0Z" fill="#FF0000" fill-opacity="0.31"/>
<path d="M10.2772 39V32.95H7.98921V31.3H14.4902V32.95H12.1472V39H10.2772ZM14.9709 39V33.159H16.6429L16.7199 35.062L16.3899 34.699C16.4779 34.3837 16.6209 34.1013 16.8189 33.852C17.0243 33.6027 17.2626 33.4047 17.5339 33.258C17.8053 33.1113 18.0949 33.038 18.4029 33.038C18.5349 33.038 18.6559 33.049 18.7659 33.071C18.8833 33.093 18.9896 33.1187 19.0849 33.148L18.6009 35.095C18.5203 35.0437 18.4103 35.0033 18.2709 34.974C18.1389 34.9373 17.9996 34.919 17.8529 34.919C17.6916 34.919 17.5413 34.9483 17.4019 35.007C17.2626 35.0583 17.1453 35.1353 17.0499 35.238C16.9546 35.3407 16.8776 35.4617 16.8189 35.601C16.7676 35.7403 16.7419 35.898 16.7419 36.074V39H14.9709ZM22.5127 39.11C21.8674 39.11 21.3064 38.9817 20.8297 38.725C20.3531 38.461 19.9827 38.1053 19.7187 37.658C19.4547 37.2033 19.3227 36.6863 19.3227 36.107C19.3227 35.6597 19.3961 35.249 19.5427 34.875C19.6894 34.501 19.8947 34.1783 20.1587 33.907C20.4227 33.6283 20.7344 33.4157 21.0937 33.269C21.4604 33.115 21.8601 33.038 22.2927 33.038C22.7034 33.038 23.0774 33.1113 23.4147 33.258C23.7594 33.4047 24.0564 33.61 24.3057 33.874C24.5551 34.138 24.7457 34.4497 24.8777 34.809C25.0097 35.1683 25.0684 35.5607 25.0537 35.986L25.0427 36.459H20.3897L20.1367 35.469H23.6127L23.4257 35.678V35.458C23.4111 35.2747 23.3524 35.1133 23.2497 34.974C23.1544 34.8273 23.0261 34.7137 22.8647 34.633C22.7034 34.5523 22.5201 34.512 22.3147 34.512C22.0287 34.512 21.7831 34.5707 21.5777 34.688C21.3797 34.798 21.2294 34.963 21.1267 35.183C21.0241 35.3957 20.9727 35.6597 20.9727 35.975C20.9727 36.2977 21.0387 36.58 21.1707 36.822C21.3101 37.0567 21.5081 37.24 21.7647 37.372C22.0287 37.504 22.3404 37.57 22.6997 37.57C22.9491 37.57 23.1691 37.5333 23.3597 37.46C23.5577 37.3867 23.7704 37.262 23.9977 37.086L24.8227 38.252C24.5954 38.45 24.3534 38.6113 24.0967 38.736C23.8401 38.8607 23.5761 38.9523 23.3047 39.011C23.0407 39.077 22.7767 39.11 22.5127 39.11ZM26.164 39V33.159H27.836L27.891 34.215L27.66 34.226C27.748 34.0353 27.858 33.8667 27.99 33.72C28.1294 33.5733 28.2834 33.4523 28.452 33.357C28.628 33.2543 28.8077 33.1773 28.991 33.126C29.1817 33.0747 29.3724 33.049 29.563 33.049C29.849 33.049 30.1094 33.093 30.344 33.181C30.5787 33.269 30.784 33.412 30.96 33.61C31.136 33.8007 31.2754 34.061 31.378 34.391L31.103 34.369L31.191 34.193C31.2864 34.017 31.4074 33.8593 31.554 33.72C31.708 33.5733 31.8767 33.4523 32.06 33.357C32.2434 33.2543 32.434 33.1773 32.632 33.126C32.83 33.0747 33.0207 33.049 33.204 33.049C33.666 33.049 34.051 33.1407 34.359 33.324C34.667 33.5 34.898 33.7677 35.052 34.127C35.2134 34.4863 35.294 34.9227 35.294 35.436V39H33.523V35.579C33.523 35.3443 33.49 35.15 33.424 34.996C33.358 34.842 33.259 34.7283 33.127 34.655C33.0024 34.5743 32.8447 34.534 32.654 34.534C32.5 34.534 32.357 34.5597 32.225 34.611C32.1004 34.6623 31.9904 34.732 31.895 34.82C31.807 34.908 31.7374 35.0107 31.686 35.128C31.6347 35.2453 31.609 35.3773 31.609 35.524V39H29.838V35.568C29.838 35.348 29.805 35.161 29.739 35.007C29.673 34.853 29.574 34.7357 29.442 34.655C29.31 34.5743 29.156 34.534 28.98 34.534C28.826 34.534 28.683 34.5597 28.551 34.611C28.4264 34.6623 28.3164 34.732 28.221 34.82C28.133 34.908 28.0634 35.0107 28.012 35.128C27.9607 35.2453 27.935 35.3737 27.935 35.513V39H26.164ZM39.5061 39.11C38.8974 39.11 38.3548 38.978 37.8781 38.714C37.4088 38.45 37.0348 38.0907 36.7561 37.636C36.4848 37.1813 36.3491 36.6607 36.3491 36.074C36.3491 35.4873 36.4848 34.9667 36.7561 34.512C37.0348 34.0573 37.4088 33.698 37.8781 33.434C38.3548 33.17 38.8974 33.038 39.5061 33.038C40.1148 33.038 40.6538 33.17 41.1231 33.434C41.5998 33.698 41.9738 34.0573 42.2451 34.512C42.5164 34.9667 42.6521 35.4873 42.6521 36.074C42.6521 36.6607 42.5164 37.1813 42.2451 37.636C41.9738 38.0907 41.5998 38.45 41.1231 38.714C40.6538 38.978 40.1148 39.11 39.5061 39.11ZM39.5061 37.592C39.7701 37.592 40.0048 37.526 40.2101 37.394C40.4154 37.262 40.5768 37.0823 40.6941 36.855C40.8114 36.6277 40.8664 36.3673 40.8591 36.074C40.8664 35.7807 40.8114 35.5203 40.6941 35.293C40.5768 35.0583 40.4154 34.875 40.2101 34.743C40.0048 34.611 39.7701 34.545 39.5061 34.545C39.2421 34.545 39.0038 34.611 38.7911 34.743C38.5858 34.875 38.4244 35.0583 38.3071 35.293C38.1898 35.5203 38.1348 35.7807 38.1421 36.074C38.1348 36.3673 38.1898 36.6277 38.3071 36.855C38.4244 37.0823 38.5858 37.262 38.7911 37.394C39.0038 37.526 39.2421 37.592 39.5061 37.592ZM43.803 39V33.159H45.475L45.53 34.347L45.178 34.479C45.2586 34.215 45.4016 33.9767 45.607 33.764C45.8196 33.544 46.0726 33.368 46.366 33.236C46.6593 33.104 46.9673 33.038 47.29 33.038C47.73 33.038 48.1003 33.1297 48.401 33.313C48.7016 33.489 48.929 33.7567 49.083 34.116C49.237 34.468 49.314 34.9007 49.314 35.414V39H47.543V35.557C47.543 35.3223 47.51 35.128 47.444 34.974C47.378 34.82 47.2753 34.7063 47.136 34.633C47.004 34.5523 46.839 34.5157 46.641 34.523C46.487 34.523 46.344 34.5487 46.212 34.6C46.08 34.644 45.9663 34.7137 45.871 34.809C45.7756 34.897 45.6986 34.9997 45.64 35.117C45.5886 35.2343 45.563 35.3627 45.563 35.502V39H44.694C44.4886 39 44.3126 39 44.166 39C44.0193 39 43.8983 39 43.803 39ZM51.2694 39V31.685H53.0294V39H51.2694ZM50.2354 34.699V33.159H54.1624V34.699H50.2354ZM57.8645 39.11C57.2558 39.11 56.7132 38.978 56.2365 38.714C55.7672 38.45 55.3932 38.0907 55.1145 37.636C54.8432 37.1813 54.7075 36.6607 54.7075 36.074C54.7075 35.4873 54.8432 34.9667 55.1145 34.512C55.3932 34.0573 55.7672 33.698 56.2365 33.434C56.7132 33.17 57.2558 33.038 57.8645 33.038C58.4732 33.038 59.0122 33.17 59.4815 33.434C59.9582 33.698 60.3322 34.0573 60.6035 34.512C60.8748 34.9667 61.0105 35.4873 61.0105 36.074C61.0105 36.6607 60.8748 37.1813 60.6035 37.636C60.3322 38.0907 59.9582 38.45 59.4815 38.714C59.0122 38.978 58.4732 39.11 57.8645 39.11ZM57.8645 37.592C58.1285 37.592 58.3632 37.526 58.5685 37.394C58.7738 37.262 58.9352 37.0823 59.0525 36.855C59.1698 36.6277 59.2248 36.3673 59.2175 36.074C59.2248 35.7807 59.1698 35.5203 59.0525 35.293C58.9352 35.0583 58.7738 34.875 58.5685 34.743C58.3632 34.611 58.1285 34.545 57.8645 34.545C57.6005 34.545 57.3622 34.611 57.1495 34.743C56.9442 34.875 56.7828 35.0583 56.6655 35.293C56.5482 35.5203 56.4932 35.7807 56.5005 36.074C56.4932 36.3673 56.5482 36.6277 56.6655 36.855C56.7828 37.0823 56.9442 37.262 57.1495 37.394C57.3622 37.526 57.6005 37.592 57.8645 37.592ZM62.1614 39V33.159H63.8334L63.8884 34.347L63.5364 34.479C63.617 34.215 63.76 33.9767 63.9654 33.764C64.178 33.544 64.431 33.368 64.7244 33.236C65.0177 33.104 65.3257 33.038 65.6484 33.038C66.0884 33.038 66.4587 33.1297 66.7594 33.313C67.06 33.489 67.2874 33.7567 67.4414 34.116C67.5954 34.468 67.6724 34.9007 67.6724 35.414V39H65.9014V35.557C65.9014 35.3223 65.8684 35.128 65.8024 34.974C65.7364 34.82 65.6337 34.7063 65.4944 34.633C65.3624 34.5523 65.1974 34.5157 64.9994 34.523C64.8454 34.523 64.7024 34.5487 64.5704 34.6C64.4384 34.644 64.3247 34.7137 64.2294 34.809C64.134 34.897 64.057 34.9997 63.9984 35.117C63.947 35.2343 63.9214 35.3627 63.9214 35.502V39H63.0524C62.847 39 62.671 39 62.5244 39C62.3777 39 62.2567 39 62.1614 39ZM13.5619 53.11C13.1439 53.11 12.7552 53.055 12.3959 52.945C12.0439 52.835 11.7212 52.67 11.4279 52.45C11.1419 52.2227 10.8852 51.944 10.6579 51.614L11.4719 50.679C11.8312 51.1923 12.1759 51.548 12.5059 51.746C12.8359 51.944 13.2282 52.043 13.6829 52.043C13.9616 52.043 14.2146 51.999 14.4419 51.911C14.6692 51.823 14.8489 51.702 14.9809 51.548C15.1129 51.394 15.1789 51.218 15.1789 51.02C15.1789 50.888 15.1569 50.7633 15.1129 50.646C15.0689 50.5287 14.9992 50.4223 14.9039 50.327C14.8159 50.2317 14.6986 50.1437 14.5519 50.063C14.4126 49.9823 14.2476 49.9127 14.0569 49.854C13.8662 49.788 13.6462 49.733 13.3969 49.689C13.0009 49.6083 12.6562 49.502 12.3629 49.37C12.0696 49.238 11.8239 49.073 11.6259 48.875C11.4279 48.677 11.2812 48.4533 11.1859 48.204C11.0906 47.9473 11.0429 47.6613 11.0429 47.346C11.0429 47.038 11.1089 46.752 11.2409 46.488C11.3802 46.224 11.5672 45.9967 11.8019 45.806C12.0439 45.608 12.3262 45.4577 12.6489 45.355C12.9716 45.245 13.3199 45.19 13.6939 45.19C14.0899 45.19 14.4529 45.2413 14.7829 45.344C15.1129 45.4467 15.4062 45.6007 15.6629 45.806C15.9196 46.004 16.1322 46.2497 16.3009 46.543L15.4649 47.368C15.3182 47.126 15.1532 46.9243 14.9699 46.763C14.7866 46.5943 14.5849 46.4697 14.3649 46.389C14.1449 46.301 13.9102 46.257 13.6609 46.257C13.3749 46.257 13.1256 46.301 12.9129 46.389C12.7002 46.477 12.5316 46.6017 12.4069 46.763C12.2896 46.917 12.2309 47.1003 12.2309 47.313C12.2309 47.467 12.2602 47.61 12.3189 47.742C12.3776 47.8667 12.4656 47.9803 12.5829 48.083C12.7076 48.1783 12.8726 48.2663 13.0779 48.347C13.2832 48.4203 13.5289 48.4863 13.8149 48.545C14.2182 48.633 14.5776 48.7467 14.8929 48.886C15.2082 49.018 15.4759 49.1757 15.6959 49.359C15.9159 49.5423 16.0809 49.7477 16.1909 49.975C16.3082 50.2023 16.3669 50.448 16.3669 50.712C16.3669 51.2033 16.2532 51.6287 16.0259 51.988C15.7986 52.3473 15.4759 52.626 15.0579 52.824C14.6399 53.0147 14.1412 53.11 13.5619 53.11ZM19.9862 53.11C19.5095 53.11 19.0732 52.978 18.6772 52.714C18.2885 52.45 17.9768 52.0907 17.7422 51.636C17.5075 51.1813 17.3902 50.668 17.3902 50.096C17.3902 49.5167 17.5075 49.0033 17.7422 48.556C17.9842 48.1013 18.3068 47.7457 18.7102 47.489C19.1208 47.2323 19.5792 47.104 20.0852 47.104C20.3858 47.104 20.6608 47.148 20.9102 47.236C21.1595 47.324 21.3758 47.4487 21.5592 47.61C21.7498 47.764 21.9038 47.9437 22.0212 48.149C22.1458 48.3543 22.2228 48.5743 22.2522 48.809L21.9992 48.721V47.225H23.1432V53H21.9992V51.625L22.2632 51.548C22.2192 51.746 22.1275 51.9403 21.9882 52.131C21.8562 52.3143 21.6838 52.4793 21.4712 52.626C21.2658 52.7727 21.0348 52.89 20.7782 52.978C20.5288 53.066 20.2648 53.11 19.9862 53.11ZM20.2832 52.065C20.6278 52.065 20.9322 51.9807 21.1962 51.812C21.4602 51.6433 21.6655 51.4123 21.8122 51.119C21.9662 50.8183 22.0432 50.4773 22.0432 50.096C22.0432 49.722 21.9662 49.3883 21.8122 49.095C21.6655 48.8017 21.4602 48.5707 21.1962 48.402C20.9322 48.2333 20.6278 48.149 20.2832 48.149C19.9458 48.149 19.6452 48.2333 19.3812 48.402C19.1245 48.5707 18.9192 48.8017 18.7652 49.095C18.6185 49.3883 18.5452 49.722 18.5452 50.096C18.5452 50.4773 18.6185 50.8183 18.7652 51.119C18.9192 51.4123 19.1245 51.6433 19.3812 51.812C19.6452 51.9807 19.9458 52.065 20.2832 52.065ZM24.7251 53V47.225H25.8581V48.413L25.6601 48.545C25.7334 48.2883 25.8764 48.0537 26.0891 47.841C26.3018 47.621 26.5548 47.445 26.8481 47.313C27.1414 47.1737 27.4421 47.104 27.7501 47.104C28.1901 47.104 28.5568 47.192 28.8501 47.368C29.1434 47.5367 29.3634 47.797 29.5101 48.149C29.6568 48.501 29.7301 48.9447 29.7301 49.48V53H28.5971V49.557C28.5971 49.227 28.5531 48.9557 28.4651 48.743C28.3771 48.523 28.2414 48.3653 28.0581 48.27C27.8748 48.1673 27.6474 48.1233 27.3761 48.138C27.1561 48.138 26.9544 48.1747 26.7711 48.248C26.5878 48.314 26.4264 48.4093 26.2871 48.534C26.1551 48.6587 26.0488 48.8053 25.9681 48.974C25.8948 49.1353 25.8581 49.3113 25.8581 49.502V53H25.2971C25.2018 53 25.1064 53 25.0111 53C24.9158 53 24.8204 53 24.7251 53ZM31.9821 53V45.751H33.1151V53H31.9821ZM30.7831 48.325V47.225H34.4571V48.325H30.7831ZM37.6571 53.11C37.1804 53.11 36.7441 52.978 36.3481 52.714C35.9594 52.45 35.6477 52.0907 35.4131 51.636C35.1784 51.1813 35.0611 50.668 35.0611 50.096C35.0611 49.5167 35.1784 49.0033 35.4131 48.556C35.6551 48.1013 35.9777 47.7457 36.3811 47.489C36.7917 47.2323 37.2501 47.104 37.7561 47.104C38.0567 47.104 38.3317 47.148 38.5811 47.236C38.8304 47.324 39.0467 47.4487 39.2301 47.61C39.4207 47.764 39.5747 47.9437 39.6921 48.149C39.8167 48.3543 39.8937 48.5743 39.9231 48.809L39.6701 48.721V47.225H40.8141V53H39.6701V51.625L39.9341 51.548C39.8901 51.746 39.7984 51.9403 39.6591 52.131C39.5271 52.3143 39.3547 52.4793 39.1421 52.626C38.9367 52.7727 38.7057 52.89 38.4491 52.978C38.1997 53.066 37.9357 53.11 37.6571 53.11ZM37.9541 52.065C38.2987 52.065 38.6031 51.9807 38.8671 51.812C39.1311 51.6433 39.3364 51.4123 39.4831 51.119C39.6371 50.8183 39.7141 50.4773 39.7141 50.096C39.7141 49.722 39.6371 49.3883 39.4831 49.095C39.3364 48.8017 39.1311 48.5707 38.8671 48.402C38.6031 48.2333 38.2987 48.149 37.9541 48.149C37.6167 48.149 37.3161 48.2333 37.0521 48.402C36.7954 48.5707 36.5901 48.8017 36.4361 49.095C36.2894 49.3883 36.2161 49.722 36.2161 50.096C36.2161 50.4773 36.2894 50.8183 36.4361 51.119C36.5901 51.4123 36.7954 51.6433 37.0521 51.812C37.3161 51.9807 37.6167 52.065 37.9541 52.065ZM44.962 53L47.943 45.3H49.153L52.112 53H50.847L49.087 48.358C49.065 48.3067 49.021 48.182 48.955 47.984C48.8963 47.786 48.8267 47.566 48.746 47.324C48.6653 47.082 48.592 46.862 48.526 46.664C48.46 46.4587 48.416 46.3267 48.394 46.268L48.647 46.257C48.603 46.3817 48.548 46.5393 48.482 46.73C48.4233 46.9207 48.3573 47.1223 48.284 47.335C48.218 47.5477 48.152 47.7493 48.086 47.94C48.02 48.1233 47.965 48.2773 47.921 48.402L46.172 53H44.962ZM46.282 51.086L46.722 49.942H50.22L50.726 51.086H46.282ZM53.1812 53V47.225H54.3142V48.413L54.1162 48.545C54.1895 48.2883 54.3325 48.0537 54.5452 47.841C54.7578 47.621 55.0108 47.445 55.3042 47.313C55.5975 47.1737 55.8982 47.104 56.2062 47.104C56.6462 47.104 57.0128 47.192 57.3062 47.368C57.5995 47.5367 57.8195 47.797 57.9662 48.149C58.1128 48.501 58.1862 48.9447 58.1862 49.48V53H57.0532V49.557C57.0532 49.227 57.0092 48.9557 56.9212 48.743C56.8332 48.523 56.6975 48.3653 56.5142 48.27C56.3308 48.1673 56.1035 48.1233 55.8322 48.138C55.6122 48.138 55.4105 48.1747 55.2272 48.248C55.0438 48.314 54.8825 48.4093 54.7432 48.534C54.6112 48.6587 54.5048 48.8053 54.4242 48.974C54.3508 49.1353 54.3142 49.3113 54.3142 49.502V53H53.7532C53.6578 53 53.5625 53 53.4672 53C53.3718 53 53.2765 53 53.1812 53ZM61.9452 53.11C61.4685 53.11 61.0322 52.978 60.6362 52.714C60.2475 52.45 59.9358 52.0907 59.7012 51.636C59.4665 51.1813 59.3492 50.668 59.3492 50.096C59.3492 49.5167 59.4665 49.0033 59.7012 48.556C59.9432 48.1013 60.2658 47.7457 60.6692 47.489C61.0798 47.2323 61.5382 47.104 62.0442 47.104C62.3448 47.104 62.6198 47.148 62.8692 47.236C63.1185 47.324 63.3348 47.4487 63.5182 47.61C63.7088 47.764 63.8628 47.9437 63.9802 48.149C64.1048 48.3543 64.1818 48.5743 64.2112 48.809L63.9582 48.721V47.225H65.1022V53H63.9582V51.625L64.2222 51.548C64.1782 51.746 64.0865 51.9403 63.9472 52.131C63.8152 52.3143 63.6428 52.4793 63.4302 52.626C63.2248 52.7727 62.9938 52.89 62.7372 52.978C62.4878 53.066 62.2238 53.11 61.9452 53.11ZM62.2422 52.065C62.5868 52.065 62.8912 51.9807 63.1552 51.812C63.4192 51.6433 63.6245 51.4123 63.7712 51.119C63.9252 50.8183 64.0022 50.4773 64.0022 50.096C64.0022 49.722 63.9252 49.3883 63.7712 49.095C63.6245 48.8017 63.4192 48.5707 63.1552 48.402C62.8912 48.2333 62.5868 48.149 62.2422 48.149C61.9048 48.149 61.6042 48.2333 61.3402 48.402C61.0835 48.5707 60.8782 48.8017 60.7242 49.095C60.5775 49.3883 60.5042 49.722 60.5042 50.096C60.5042 50.4773 60.5775 50.8183 60.7242 51.119C60.8782 51.4123 61.0835 51.6433 61.3402 51.812C61.6042 51.9807 61.9048 52.065 62.2422 52.065Z" fill="black"/>
<path d="M29 23.5C35.5 25.5 41.5 25.5 48 23.5C41.5 20.5 35.5 20.5 29 23.5Z" fill="#949494"/>
<path d="M29 23.5L32 16C37 14.5 40 14.5 45 16L48 23.5C41.5 20.5 35.5 20.5 29 23.5Z" fill="#B0B0B0"/>
<path d="M32.001 15.726C32.0678 6.48065 35.5194 5.49515 37.5 5L37.9621 3.15149C37.9844 3.06246 38.0644 3 38.1562 3H38.8438C38.9356 3 39.0156 3.06246 39.0379 3.15149L39.5 5C41.4806 5.49515 44.9322 6.48065 44.999 15.726C45 15.8599 44.8693 15.9608 44.7407 15.923C39.9808 14.5257 37.0192 14.5257 32.2593 15.923C32.1307 15.9608 32 15.8599 32.001 15.726Z" fill="#D1D1D1"/>
<path d="M32 16L29.0806 23.2984C29.0372 23.407 29.0964 23.5297 29.2083 23.5635C35.559 25.4788 41.441 25.4788 47.7917 23.5635C47.9036 23.5297 47.9628 23.407 47.9194 23.2984L45 16M32 16C32 6.53695 35.4728 5.50791 37.4766 5.00586C37.4925 5.00188 37.5083 5 37.5246 5H39.4754C39.4917 5 39.5075 5.00188 39.5234 5.00586C41.5272 5.50791 45 6.53695 45 16M32 16C37 14.5 40 14.5 45 16" stroke="#484848"/>
<path d="M38.3536 24H38.5H38.6464C38.8728 24 39.0899 24.0899 39.25 24.25C39.4101 24.4101 39.5 24.6272 39.5 24.8536V26.1464C39.5 26.3728 39.4101 26.5899 39.25 26.75C39.0899 26.9101 38.8728 27 38.6464 27H38.3536C38.1272 27 37.9101 26.9101 37.75 26.75C37.5899 26.5899 37.5 26.3728 37.5 26.1464V24.8536C37.5 24.6272 37.5899 24.4101 37.75 24.25C37.9101 24.0899 38.1272 24 38.3536 24Z" fill="black"/>
<path d="M38.5 21.25V24M38.5 24H38.3536C38.1272 24 37.9101 24.0899 37.75 24.25V24.25C37.5899 24.4101 37.5 24.6272 37.5 24.8536V26.1464C37.5 26.3728 37.5899 26.5899 37.75 26.75V26.75C37.9101 26.9101 38.1272 27 38.3536 27H38.6464C38.8728 27 39.0899 26.9101 39.25 26.75V26.75C39.4101 26.5899 39.5 26.3728 39.5 26.1464V24.8536C39.5 24.6272 39.4101 24.4101 39.25 24.25V24.25C39.0899 24.0899 38.8728 24 38.6464 24H38.5Z" stroke="#010101"/>
<path d="M32 16L29.1865 23.0336C29.1194 23.2016 29.2932 23.366 29.4586 23.2929C35.6304 20.569 41.3696 20.569 47.5414 23.2929C47.7068 23.366 47.8806 23.2016 47.8135 23.0336L45 16M32 16C32 6.5 35.5 5.5 37.5 5M32 16C37 14.5 40 14.5 45 16M45 16C45 6.5 41.5 5.5 39.5 5M39.5 5H37.5M39.5 5L39.0379 3.15149C39.0156 3.06246 38.9356 3 38.8438 3H38.1562C38.0644 3 37.9844 3.06246 37.9621 3.15149L37.5 5" stroke="#484848"/>
</svg>
