<svg width="86" height="42" viewBox="0 0 86 42" fill="none" xmlns="http://www.w3.org/2000/svg">
<path d="M2.5 0H85.5L84 42H33.5L0.5 35L2.5 0Z" fill="#FF0000" fill-opacity="0.31"/>
<path d="M35.0095 12V4.3H40.3775V5.895H36.8245V10.405H40.4875V12H35.0095ZM35.8895 8.843V7.325H39.8825V8.843H35.8895ZM41.9233 12V3.86H43.6833V12H41.9233ZM48.7622 12.121C48.4982 12.121 48.2452 12.0843 48.0032 12.011C47.7612 11.9377 47.5412 11.8387 47.3432 11.714C47.1525 11.5893 46.9912 11.4463 46.8592 11.285C46.7345 11.1163 46.6502 10.944 46.6062 10.768L46.9912 10.636L46.8922 11.989H45.2532V3.86H47.0242V7.556L46.6612 7.424C46.7052 7.23333 46.7895 7.05733 46.9142 6.896C47.0388 6.72733 47.1965 6.58067 47.3872 6.456C47.5778 6.324 47.7868 6.22133 48.0142 6.148C48.2415 6.07467 48.4762 6.038 48.7182 6.038C49.2242 6.038 49.6715 6.17 50.0602 6.434C50.4562 6.69067 50.7678 7.05 50.9952 7.512C51.2225 7.96667 51.3362 8.48733 51.3362 9.074C51.3362 9.668 51.2225 10.196 50.9952 10.658C50.7752 11.1127 50.4708 11.472 50.0822 11.736C49.6935 11.9927 49.2535 12.121 48.7622 12.121ZM48.3002 10.636C48.5642 10.636 48.7952 10.57 48.9932 10.438C49.1912 10.306 49.3415 10.1263 49.4442 9.899C49.5542 9.66433 49.6092 9.38933 49.6092 9.074C49.6092 8.766 49.5542 8.49467 49.4442 8.26C49.3415 8.02533 49.1912 7.84567 48.9932 7.721C48.7952 7.59633 48.5642 7.534 48.3002 7.534C48.0288 7.534 47.7942 7.59633 47.5962 7.721C47.3982 7.84567 47.2442 8.02533 47.1342 8.26C47.0242 8.49467 46.9692 8.766 46.9692 9.074C46.9692 9.38933 47.0242 9.66433 47.1342 9.899C47.2442 10.1263 47.3982 10.306 47.5962 10.438C47.7942 10.57 48.0288 10.636 48.3002 10.636ZM55.2764 12.11C54.6311 12.11 54.0701 11.9817 53.5934 11.725C53.1167 11.461 52.7464 11.1053 52.4824 10.658C52.2184 10.2033 52.0864 9.68633 52.0864 9.107C52.0864 8.65967 52.1597 8.249 52.3064 7.875C52.4531 7.501 52.6584 7.17833 52.9224 6.907C53.1864 6.62833 53.4981 6.41567 53.8574 6.269C54.2241 6.115 54.6237 6.038 55.0564 6.038C55.4671 6.038 55.8411 6.11133 56.1784 6.258C56.5231 6.40467 56.8201 6.61 57.0694 6.874C57.3187 7.138 57.5094 7.44967 57.6414 7.809C57.7734 8.16833 57.8321 8.56067 57.8174 8.986L57.8064 9.459H53.1534L52.9004 8.469H56.3764L56.1894 8.678V8.458C56.1747 8.27467 56.1161 8.11333 56.0134 7.974C55.9181 7.82733 55.7897 7.71367 55.6284 7.633C55.4671 7.55233 55.2837 7.512 55.0784 7.512C54.7924 7.512 54.5467 7.57067 54.3414 7.688C54.1434 7.798 53.9931 7.963 53.8904 8.183C53.7877 8.39567 53.7364 8.65967 53.7364 8.975C53.7364 9.29767 53.8024 9.58 53.9344 9.822C54.0737 10.0567 54.2717 10.24 54.5284 10.372C54.7924 10.504 55.1041 10.57 55.4634 10.57C55.7127 10.57 55.9327 10.5333 56.1234 10.46C56.3214 10.3867 56.5341 10.262 56.7614 10.086L57.5864 11.252C57.3591 11.45 57.1171 11.6113 56.8604 11.736C56.6037 11.8607 56.3397 11.9523 56.0684 12.011C55.8044 12.077 55.5404 12.11 55.2764 12.11ZM58.9387 12V6.159H60.6107L60.6877 8.062L60.3577 7.699C60.4457 7.38367 60.5887 7.10133 60.7867 6.852C60.992 6.60267 61.2304 6.40467 61.5017 6.258C61.773 6.11133 62.0627 6.038 62.3707 6.038C62.5027 6.038 62.6237 6.049 62.7337 6.071C62.851 6.093 62.9574 6.11867 63.0527 6.148L62.5687 8.095C62.488 8.04367 62.378 8.00333 62.2387 7.974C62.1067 7.93733 61.9674 7.919 61.8207 7.919C61.6594 7.919 61.509 7.94833 61.3697 8.007C61.2304 8.05833 61.113 8.13533 61.0177 8.238C60.9224 8.34067 60.8454 8.46167 60.7867 8.601C60.7354 8.74033 60.7097 8.898 60.7097 9.074V12H58.9387ZM64.6434 12V4.685H66.4034V12H64.6434ZM63.6094 7.699V6.159H67.5364V7.699H63.6094ZM70.6445 12.099C70.1532 12.099 69.7132 11.9707 69.3245 11.714C68.9432 11.45 68.6389 11.0907 68.4115 10.636C68.1842 10.174 68.0705 9.65333 68.0705 9.074C68.0705 8.48 68.1842 7.95567 68.4115 7.501C68.6389 7.04633 68.9505 6.69067 69.3465 6.434C69.7425 6.17 70.1935 6.038 70.6995 6.038C70.9782 6.038 71.2312 6.07833 71.4585 6.159C71.6932 6.23967 71.8985 6.35333 72.0745 6.5C72.2505 6.63933 72.4009 6.80433 72.5255 6.995C72.6502 7.17833 72.7419 7.37633 72.8005 7.589L72.4375 7.545V6.159H74.1865V12H72.4045V10.592L72.8005 10.581C72.7419 10.7863 72.6465 10.9807 72.5145 11.164C72.3825 11.3473 72.2212 11.5087 72.0305 11.648C71.8399 11.7873 71.6272 11.8973 71.3925 11.978C71.1579 12.0587 70.9085 12.099 70.6445 12.099ZM71.1285 10.614C71.3999 10.614 71.6345 10.5517 71.8325 10.427C72.0305 10.3023 72.1845 10.1263 72.2945 9.899C72.4045 9.66433 72.4595 9.38933 72.4595 9.074C72.4595 8.75867 72.4045 8.48733 72.2945 8.26C72.1845 8.02533 72.0305 7.84567 71.8325 7.721C71.6345 7.589 71.3999 7.523 71.1285 7.523C70.8645 7.523 70.6335 7.589 70.4355 7.721C70.2449 7.84567 70.0945 8.02533 69.9845 8.26C69.8745 8.48733 69.8195 8.75867 69.8195 9.074C69.8195 9.38933 69.8745 9.66433 69.9845 9.899C70.0945 10.1263 70.2449 10.3023 70.4355 10.427C70.6335 10.5517 70.8645 10.614 71.1285 10.614ZM30.4755 26.11C30.0575 26.11 29.6688 26.055 29.3095 25.945C28.9575 25.835 28.6348 25.67 28.3415 25.45C28.0555 25.2227 27.7988 24.944 27.5715 24.614L28.3855 23.679C28.7448 24.1923 29.0895 24.548 29.4195 24.746C29.7495 24.944 30.1418 25.043 30.5965 25.043C30.8752 25.043 31.1282 24.999 31.3555 24.911C31.5828 24.823 31.7625 24.702 31.8945 24.548C32.0265 24.394 32.0925 24.218 32.0925 24.02C32.0925 23.888 32.0705 23.7633 32.0265 23.646C31.9825 23.5287 31.9128 23.4223 31.8175 23.327C31.7295 23.2317 31.6122 23.1437 31.4655 23.063C31.3262 22.9823 31.1612 22.9127 30.9705 22.854C30.7798 22.788 30.5598 22.733 30.3105 22.689C29.9145 22.6083 29.5698 22.502 29.2765 22.37C28.9832 22.238 28.7375 22.073 28.5395 21.875C28.3415 21.677 28.1948 21.4533 28.0995 21.204C28.0042 20.9473 27.9565 20.6613 27.9565 20.346C27.9565 20.038 28.0225 19.752 28.1545 19.488C28.2938 19.224 28.4808 18.9967 28.7155 18.806C28.9575 18.608 29.2398 18.4577 29.5625 18.355C29.8852 18.245 30.2335 18.19 30.6075 18.19C31.0035 18.19 31.3665 18.2413 31.6965 18.344C32.0265 18.4467 32.3198 18.6007 32.5765 18.806C32.8332 19.004 33.0458 19.2497 33.2145 19.543L32.3785 20.368C32.2318 20.126 32.0668 19.9243 31.8835 19.763C31.7002 19.5943 31.4985 19.4697 31.2785 19.389C31.0585 19.301 30.8238 19.257 30.5745 19.257C30.2885 19.257 30.0392 19.301 29.8265 19.389C29.6138 19.477 29.4452 19.6017 29.3205 19.763C29.2032 19.917 29.1445 20.1003 29.1445 20.313C29.1445 20.467 29.1738 20.61 29.2325 20.742C29.2912 20.8667 29.3792 20.9803 29.4965 21.083C29.6212 21.1783 29.7862 21.2663 29.9915 21.347C30.1968 21.4203 30.4425 21.4863 30.7285 21.545C31.1318 21.633 31.4912 21.7467 31.8065 21.886C32.1218 22.018 32.3895 22.1757 32.6095 22.359C32.8295 22.5423 32.9945 22.7477 33.1045 22.975C33.2218 23.2023 33.2805 23.448 33.2805 23.712C33.2805 24.2033 33.1668 24.6287 32.9395 24.988C32.7122 25.3473 32.3895 25.626 31.9715 25.824C31.5535 26.0147 31.0548 26.11 30.4755 26.11ZM36.8997 26.11C36.4231 26.11 35.9867 25.978 35.5907 25.714C35.2021 25.45 34.8904 25.0907 34.6557 24.636C34.4211 24.1813 34.3037 23.668 34.3037 23.096C34.3037 22.5167 34.4211 22.0033 34.6557 21.556C34.8977 21.1013 35.2204 20.7457 35.6237 20.489C36.0344 20.2323 36.4927 20.104 36.9987 20.104C37.2994 20.104 37.5744 20.148 37.8237 20.236C38.0731 20.324 38.2894 20.4487 38.4727 20.61C38.6634 20.764 38.8174 20.9437 38.9347 21.149C39.0594 21.3543 39.1364 21.5743 39.1657 21.809L38.9127 21.721V20.225H40.0567V26H38.9127V24.625L39.1767 24.548C39.1327 24.746 39.0411 24.9403 38.9017 25.131C38.7697 25.3143 38.5974 25.4793 38.3847 25.626C38.1794 25.7727 37.9484 25.89 37.6917 25.978C37.4424 26.066 37.1784 26.11 36.8997 26.11ZM37.1967 25.065C37.5414 25.065 37.8457 24.9807 38.1097 24.812C38.3737 24.6433 38.5791 24.4123 38.7257 24.119C38.8797 23.8183 38.9567 23.4773 38.9567 23.096C38.9567 22.722 38.8797 22.3883 38.7257 22.095C38.5791 21.8017 38.3737 21.5707 38.1097 21.402C37.8457 21.2333 37.5414 21.149 37.1967 21.149C36.8594 21.149 36.5587 21.2333 36.2947 21.402C36.0381 21.5707 35.8327 21.8017 35.6787 22.095C35.5321 22.3883 35.4587 22.722 35.4587 23.096C35.4587 23.4773 35.5321 23.8183 35.6787 24.119C35.8327 24.4123 36.0381 24.6433 36.2947 24.812C36.5587 24.9807 36.8594 25.065 37.1967 25.065ZM41.6387 26V20.225H42.7717V21.413L42.5737 21.545C42.647 21.2883 42.79 21.0537 43.0027 20.841C43.2153 20.621 43.4683 20.445 43.7617 20.313C44.055 20.1737 44.3557 20.104 44.6637 20.104C45.1037 20.104 45.4703 20.192 45.7637 20.368C46.057 20.5367 46.277 20.797 46.4237 21.149C46.5703 21.501 46.6437 21.9447 46.6437 22.48V26H45.5107V22.557C45.5107 22.227 45.4667 21.9557 45.3787 21.743C45.2907 21.523 45.155 21.3653 44.9717 21.27C44.7883 21.1673 44.561 21.1233 44.2897 21.138C44.0697 21.138 43.868 21.1747 43.6847 21.248C43.5013 21.314 43.34 21.4093 43.2007 21.534C43.0687 21.6587 42.9623 21.8053 42.8817 21.974C42.8083 22.1353 42.7717 22.3113 42.7717 22.502V26H42.2107C42.1153 26 42.02 26 41.9247 26C41.8293 26 41.734 26 41.6387 26ZM51.2637 26V24.9H52.5067V19.4H51.2637V18.3H54.9377V19.4H53.6947V24.9H54.9377V26H51.2637ZM58.4416 26.11C57.9576 26.11 57.5213 26.0257 57.1326 25.857C56.7439 25.6883 56.4213 25.439 56.1646 25.109L56.9346 24.449C57.1546 24.7057 57.3929 24.8927 57.6496 25.01C57.9136 25.12 58.2106 25.175 58.5406 25.175C58.6726 25.175 58.7936 25.1603 58.9036 25.131C59.0209 25.0943 59.1199 25.043 59.2006 24.977C59.2886 24.911 59.3546 24.834 59.3986 24.746C59.4426 24.6507 59.4646 24.548 59.4646 24.438C59.4646 24.2473 59.3949 24.0933 59.2556 23.976C59.1823 23.9247 59.0649 23.8697 58.9036 23.811C58.7496 23.745 58.5479 23.679 58.2986 23.613C57.8733 23.503 57.5249 23.3783 57.2536 23.239C56.9823 23.0997 56.7733 22.942 56.6266 22.766C56.5166 22.6267 56.4359 22.4763 56.3846 22.315C56.3333 22.1463 56.3076 21.963 56.3076 21.765C56.3076 21.523 56.3589 21.303 56.4616 21.105C56.5716 20.8997 56.7183 20.7237 56.9016 20.577C57.0923 20.423 57.3123 20.3057 57.5616 20.225C57.8183 20.1443 58.0896 20.104 58.3756 20.104C58.6469 20.104 58.9146 20.1407 59.1786 20.214C59.4499 20.2873 59.6993 20.3937 59.9266 20.533C60.1539 20.6723 60.3446 20.8373 60.4986 21.028L59.8496 21.743C59.7103 21.6037 59.5563 21.4827 59.3876 21.38C59.2263 21.27 59.0613 21.1857 58.8926 21.127C58.7239 21.0683 58.5699 21.039 58.4306 21.039C58.2766 21.039 58.1373 21.0537 58.0126 21.083C57.8879 21.1123 57.7816 21.1563 57.6936 21.215C57.6129 21.2737 57.5506 21.347 57.5066 21.435C57.4626 21.523 57.4406 21.622 57.4406 21.732C57.4479 21.8273 57.4699 21.919 57.5066 22.007C57.5506 22.0877 57.6093 22.1573 57.6826 22.216C57.7633 22.2747 57.8843 22.337 58.0456 22.403C58.2069 22.469 58.4123 22.5313 58.6616 22.59C59.0283 22.6853 59.3289 22.7917 59.5636 22.909C59.8056 23.019 59.9963 23.1473 60.1356 23.294C60.2823 23.4333 60.3849 23.5947 60.4436 23.778C60.5023 23.9613 60.5316 24.1667 60.5316 24.394C60.5316 24.724 60.4363 25.021 60.2456 25.285C60.0623 25.5417 59.8129 25.7433 59.4976 25.89C59.1823 26.0367 58.8303 26.11 58.4416 26.11ZM61.9673 26V20.225H63.1003V26H61.9673ZM62.5173 18.949C62.2753 18.949 62.0883 18.8867 61.9563 18.762C61.8243 18.6373 61.7583 18.4613 61.7583 18.234C61.7583 18.0213 61.8243 17.849 61.9563 17.717C62.0956 17.585 62.2826 17.519 62.5173 17.519C62.7593 17.519 62.9463 17.5813 63.0783 17.706C63.2103 17.8307 63.2763 18.0067 63.2763 18.234C63.2763 18.4467 63.2066 18.619 63.0673 18.751C62.9353 18.883 62.7519 18.949 62.5173 18.949ZM67.2508 26.11C66.7228 26.11 66.2498 25.9817 65.8318 25.725C65.4211 25.461 65.0948 25.1053 64.8528 24.658C64.6108 24.2033 64.4898 23.6863 64.4898 23.107C64.4898 22.5277 64.6071 22.0143 64.8418 21.567C65.0838 21.1123 65.4101 20.7567 65.8208 20.5C66.2315 20.236 66.6971 20.104 67.2178 20.104C67.5038 20.104 67.7788 20.1517 68.0428 20.247C68.3141 20.335 68.5561 20.4597 68.7688 20.621C68.9815 20.775 69.1465 20.9473 69.2638 21.138C69.3885 21.3213 69.4508 21.5083 69.4508 21.699L69.1208 21.721V17.86H70.2538V26H69.1208V24.625H69.3408C69.3408 24.801 69.2821 24.977 69.1648 25.153C69.0475 25.3217 68.8898 25.4793 68.6918 25.626C68.5011 25.7727 68.2775 25.89 68.0208 25.978C67.7715 26.066 67.5148 26.11 67.2508 26.11ZM67.4048 25.131C67.7495 25.131 68.0538 25.043 68.3178 24.867C68.5818 24.691 68.7871 24.4527 68.9338 24.152C69.0878 23.844 69.1648 23.4957 69.1648 23.107C69.1648 22.7183 69.0878 22.3737 68.9338 22.073C68.7871 21.765 68.5818 21.523 68.3178 21.347C68.0538 21.171 67.7495 21.083 67.4048 21.083C67.0601 21.083 66.7558 21.171 66.4918 21.347C66.2278 21.523 66.0188 21.765 65.8648 22.073C65.7181 22.3737 65.6448 22.7183 65.6448 23.107C65.6448 23.4957 65.7181 23.844 65.8648 24.152C66.0188 24.4527 66.2278 24.691 66.4918 24.867C66.7558 25.043 67.0601 25.131 67.4048 25.131ZM71.8135 26V20.225H72.9575V22.04L72.8475 21.6C72.9282 21.3213 73.0638 21.0683 73.2545 20.841C73.4525 20.6137 73.6762 20.434 73.9255 20.302C74.1822 20.17 74.4462 20.104 74.7175 20.104C74.8422 20.104 74.9595 20.115 75.0695 20.137C75.1868 20.159 75.2785 20.1847 75.3445 20.214L75.0475 21.446C74.9595 21.4093 74.8605 21.38 74.7505 21.358C74.6478 21.3287 74.5452 21.314 74.4425 21.314C74.2445 21.314 74.0538 21.3543 73.8705 21.435C73.6945 21.5083 73.5368 21.6147 73.3975 21.754C73.2655 21.886 73.1592 22.0437 73.0785 22.227C72.9978 22.403 72.9575 22.5973 72.9575 22.81V26H71.8135ZM78.5989 26.11C78.0343 26.11 77.5283 25.9817 77.0809 25.725C76.6409 25.461 76.2926 25.1053 76.0359 24.658C75.7793 24.2033 75.6509 23.6863 75.6509 23.107C75.6509 22.5277 75.7793 22.0143 76.0359 21.567C76.2926 21.1123 76.6409 20.7567 77.0809 20.5C77.5283 20.236 78.0343 20.104 78.5989 20.104C79.1563 20.104 79.6549 20.236 80.0949 20.5C80.5423 20.7567 80.8943 21.1123 81.1509 21.567C81.4076 22.0143 81.5359 22.5277 81.5359 23.107C81.5359 23.6863 81.4076 24.2033 81.1509 24.658C80.8943 25.1053 80.5423 25.461 80.0949 25.725C79.6549 25.9817 79.1563 26.11 78.5989 26.11ZM78.5989 25.076C78.9436 25.076 79.2516 24.9917 79.5229 24.823C79.7943 24.647 80.0069 24.4123 80.1609 24.119C80.3149 23.8183 80.3883 23.481 80.3809 23.107C80.3883 22.7257 80.3149 22.3883 80.1609 22.095C80.0069 21.7943 79.7943 21.5597 79.5229 21.391C79.2516 21.2223 78.9436 21.138 78.5989 21.138C78.2543 21.138 77.9426 21.226 77.6639 21.402C77.3926 21.5707 77.1799 21.8053 77.0259 22.106C76.8719 22.3993 76.7986 22.733 76.8059 23.107C76.7986 23.481 76.8719 23.8183 77.0259 24.119C77.1799 24.4123 77.3926 24.647 77.6639 24.823C77.9426 24.9917 78.2543 25.076 78.5989 25.076ZM35.8446 40V32.3H37.0106L39.8156 36.865L39.2546 36.854L42.0926 32.3H43.1926V40H42.0046V36.843C42.0046 36.183 42.0193 35.589 42.0486 35.061C42.0853 34.533 42.1439 34.0087 42.2246 33.488L42.3786 33.895L39.8596 37.789H39.1336L36.6916 33.939L36.8126 33.488C36.8933 33.9793 36.9483 34.4853 36.9776 35.006C37.0143 35.5193 37.0326 36.1317 37.0326 36.843V40H35.8446ZM45.2524 40V34.225H46.3854V40H45.2524ZM45.8024 32.949C45.5604 32.949 45.3734 32.8867 45.2414 32.762C45.1094 32.6373 45.0434 32.4613 45.0434 32.234C45.0434 32.0213 45.1094 31.849 45.2414 31.717C45.3808 31.585 45.5678 31.519 45.8024 31.519C46.0444 31.519 46.2314 31.5813 46.3634 31.706C46.4954 31.8307 46.5614 32.0067 46.5614 32.234C46.5614 32.4467 46.4918 32.619 46.3524 32.751C46.2204 32.883 46.0371 32.949 45.8024 32.949ZM50.052 40.11C49.568 40.11 49.1316 40.0257 48.743 39.857C48.3543 39.6883 48.0316 39.439 47.775 39.109L48.545 38.449C48.765 38.7057 49.0033 38.8927 49.26 39.01C49.524 39.12 49.821 39.175 50.151 39.175C50.283 39.175 50.404 39.1603 50.514 39.131C50.6313 39.0943 50.7303 39.043 50.811 38.977C50.899 38.911 50.965 38.834 51.009 38.746C51.053 38.6507 51.075 38.548 51.075 38.438C51.075 38.2473 51.0053 38.0933 50.866 37.976C50.7926 37.9247 50.6753 37.8697 50.514 37.811C50.36 37.745 50.1583 37.679 49.909 37.613C49.4836 37.503 49.1353 37.3783 48.864 37.239C48.5926 37.0997 48.3836 36.942 48.237 36.766C48.127 36.6267 48.0463 36.4763 47.995 36.315C47.9436 36.1463 47.918 35.963 47.918 35.765C47.918 35.523 47.9693 35.303 48.072 35.105C48.182 34.8997 48.3286 34.7237 48.512 34.577C48.7026 34.423 48.9226 34.3057 49.172 34.225C49.4286 34.1443 49.7 34.104 49.986 34.104C50.2573 34.104 50.525 34.1407 50.789 34.214C51.0603 34.2873 51.3096 34.3937 51.537 34.533C51.7643 34.6723 51.955 34.8373 52.109 35.028L51.46 35.743C51.3206 35.6037 51.1666 35.4827 50.998 35.38C50.8366 35.27 50.6716 35.1857 50.503 35.127C50.3343 35.0683 50.1803 35.039 50.041 35.039C49.887 35.039 49.7476 35.0537 49.623 35.083C49.4983 35.1123 49.392 35.1563 49.304 35.215C49.2233 35.2737 49.161 35.347 49.117 35.435C49.073 35.523 49.051 35.622 49.051 35.732C49.0583 35.8273 49.0803 35.919 49.117 36.007C49.161 36.0877 49.2196 36.1573 49.293 36.216C49.3736 36.2747 49.4946 36.337 49.656 36.403C49.8173 36.469 50.0226 36.5313 50.272 36.59C50.6386 36.6853 50.9393 36.7917 51.174 36.909C51.416 37.019 51.6066 37.1473 51.746 37.294C51.8926 37.4333 51.9953 37.5947 52.054 37.778C52.1126 37.9613 52.142 38.1667 52.142 38.394C52.142 38.724 52.0466 39.021 51.856 39.285C51.6726 39.5417 51.4233 39.7433 51.108 39.89C50.7926 40.0367 50.4406 40.11 50.052 40.11ZM55.3156 40.11C54.8316 40.11 54.3953 40.0257 54.0066 39.857C53.618 39.6883 53.2953 39.439 53.0386 39.109L53.8086 38.449C54.0286 38.7057 54.267 38.8927 54.5236 39.01C54.7876 39.12 55.0846 39.175 55.4146 39.175C55.5466 39.175 55.6676 39.1603 55.7776 39.131C55.895 39.0943 55.994 39.043 56.0746 38.977C56.1626 38.911 56.2286 38.834 56.2726 38.746C56.3166 38.6507 56.3386 38.548 56.3386 38.438C56.3386 38.2473 56.269 38.0933 56.1296 37.976C56.0563 37.9247 55.939 37.8697 55.7776 37.811C55.6236 37.745 55.422 37.679 55.1726 37.613C54.7473 37.503 54.399 37.3783 54.1276 37.239C53.8563 37.0997 53.6473 36.942 53.5006 36.766C53.3906 36.6267 53.31 36.4763 53.2586 36.315C53.2073 36.1463 53.1816 35.963 53.1816 35.765C53.1816 35.523 53.233 35.303 53.3356 35.105C53.4456 34.8997 53.5923 34.7237 53.7756 34.577C53.9663 34.423 54.1863 34.3057 54.4356 34.225C54.6923 34.1443 54.9636 34.104 55.2496 34.104C55.521 34.104 55.7886 34.1407 56.0526 34.214C56.324 34.2873 56.5733 34.3937 56.8006 34.533C57.028 34.6723 57.2186 34.8373 57.3726 35.028L56.7236 35.743C56.5843 35.6037 56.4303 35.4827 56.2616 35.38C56.1003 35.27 55.9353 35.1857 55.7666 35.127C55.598 35.0683 55.444 35.039 55.3046 35.039C55.1506 35.039 55.0113 35.0537 54.8866 35.083C54.762 35.1123 54.6556 35.1563 54.5676 35.215C54.487 35.2737 54.4246 35.347 54.3806 35.435C54.3366 35.523 54.3146 35.622 54.3146 35.732C54.322 35.8273 54.344 35.919 54.3806 36.007C54.4246 36.0877 54.4833 36.1573 54.5566 36.216C54.6373 36.2747 54.7583 36.337 54.9196 36.403C55.081 36.469 55.2863 36.5313 55.5356 36.59C55.9023 36.6853 56.203 36.7917 56.4376 36.909C56.6796 37.019 56.8703 37.1473 57.0096 37.294C57.1563 37.4333 57.259 37.5947 57.3176 37.778C57.3763 37.9613 57.4056 38.1667 57.4056 38.394C57.4056 38.724 57.3103 39.021 57.1196 39.285C56.9363 39.5417 56.687 39.7433 56.3716 39.89C56.0563 40.0367 55.7043 40.11 55.3156 40.11ZM58.8413 40V34.225H59.9743V40H58.8413ZM59.3913 32.949C59.1493 32.949 58.9623 32.8867 58.8303 32.762C58.6983 32.6373 58.6323 32.4613 58.6323 32.234C58.6323 32.0213 58.6983 31.849 58.8303 31.717C58.9696 31.585 59.1566 31.519 59.3913 31.519C59.6333 31.519 59.8203 31.5813 59.9523 31.706C60.0843 31.8307 60.1503 32.0067 60.1503 32.234C60.1503 32.4467 60.0806 32.619 59.9413 32.751C59.8093 32.883 59.626 32.949 59.3913 32.949ZM64.3118 40.11C63.7472 40.11 63.2412 39.9817 62.7938 39.725C62.3538 39.461 62.0055 39.1053 61.7488 38.658C61.4922 38.2033 61.3638 37.6863 61.3638 37.107C61.3638 36.5277 61.4922 36.0143 61.7488 35.567C62.0055 35.1123 62.3538 34.7567 62.7938 34.5C63.2412 34.236 63.7472 34.104 64.3118 34.104C64.8692 34.104 65.3678 34.236 65.8078 34.5C66.2552 34.7567 66.6072 35.1123 66.8638 35.567C67.1205 36.0143 67.2488 36.5277 67.2488 37.107C67.2488 37.6863 67.1205 38.2033 66.8638 38.658C66.6072 39.1053 66.2552 39.461 65.8078 39.725C65.3678 39.9817 64.8692 40.11 64.3118 40.11ZM64.3118 39.076C64.6565 39.076 64.9645 38.9917 65.2358 38.823C65.5072 38.647 65.7198 38.4123 65.8738 38.119C66.0278 37.8183 66.1012 37.481 66.0938 37.107C66.1012 36.7257 66.0278 36.3883 65.8738 36.095C65.7198 35.7943 65.5072 35.5597 65.2358 35.391C64.9645 35.2223 64.6565 35.138 64.3118 35.138C63.9672 35.138 63.6555 35.226 63.3768 35.402C63.1055 35.5707 62.8928 35.8053 62.7388 36.106C62.5848 36.3993 62.5115 36.733 62.5188 37.107C62.5115 37.481 62.5848 37.8183 62.7388 38.119C62.8928 38.4123 63.1055 38.647 63.3768 38.823C63.6555 38.9917 63.9672 39.076 64.3118 39.076ZM68.4834 40V34.225H69.6164V35.413L69.4184 35.545C69.4917 35.2883 69.6347 35.0537 69.8474 34.841C70.0601 34.621 70.3131 34.445 70.6064 34.313C70.8997 34.1737 71.2004 34.104 71.5084 34.104C71.9484 34.104 72.3151 34.192 72.6084 34.368C72.9017 34.5367 73.1217 34.797 73.2684 35.149C73.4151 35.501 73.4884 35.9447 73.4884 36.48V40H72.3554V36.557C72.3554 36.227 72.3114 35.9557 72.2234 35.743C72.1354 35.523 71.9997 35.3653 71.8164 35.27C71.6331 35.1673 71.4057 35.1233 71.1344 35.138C70.9144 35.138 70.7127 35.1747 70.5294 35.248C70.3461 35.314 70.1847 35.4093 70.0454 35.534C69.9134 35.6587 69.8071 35.8053 69.7264 35.974C69.6531 36.1353 69.6164 36.3113 69.6164 36.502V40H69.0554C68.9601 40 68.8647 40 68.7694 40C68.6741 40 68.5787 40 68.4834 40Z" fill="black"/>
<path d="M5 26.5C11.5 28.5 17.5 28.5 24 26.5C17.5 23.5 11.5 23.5 5 26.5Z" fill="#949494"/>
<path d="M5 26.5L8 19C13 17.5 16 17.5 21 19L24 26.5C17.5 23.5 11.5 23.5 5 26.5Z" fill="#B0B0B0"/>
<path d="M8.00098 18.726C8.06776 9.48065 11.5194 8.49515 13.5 8L13.9621 6.15149C13.9844 6.06246 14.0644 6 14.1562 6H14.8438C14.9356 6 15.0156 6.06246 15.0379 6.15149L15.5 8C17.4806 8.49515 20.9322 9.48065 20.999 18.726C21 18.8599 20.8693 18.9608 20.7407 18.923C15.9808 17.5257 13.0192 17.5257 8.25927 18.923C8.13073 18.9608 8.00002 18.8599 8.00098 18.726Z" fill="#D1D1D1"/>
<path d="M8 19L5.08063 26.2984C5.03721 26.407 5.09641 26.5297 5.20835 26.5635C11.559 28.4788 17.441 28.4788 23.7917 26.5635C23.9036 26.5297 23.9628 26.407 23.9194 26.2984L21 19M8 19C8 9.53695 11.4728 8.50791 13.4766 8.00586C13.4925 8.00188 13.5083 8 13.5246 8H15.4754C15.4917 8 15.5075 8.00188 15.5234 8.00586C17.5272 8.50791 21 9.53695 21 19M8 19C13 17.5 16 17.5 21 19" stroke="#484848"/>
<path d="M14.3536 27H14.5H14.6464C14.8728 27 15.0899 27.0899 15.25 27.25C15.4101 27.4101 15.5 27.6272 15.5 27.8536V29.1464C15.5 29.3728 15.4101 29.5899 15.25 29.75C15.0899 29.9101 14.8728 30 14.6464 30H14.3536C14.1272 30 13.9101 29.9101 13.75 29.75C13.5899 29.5899 13.5 29.3728 13.5 29.1464V27.8536C13.5 27.6272 13.5899 27.4101 13.75 27.25C13.9101 27.0899 14.1272 27 14.3536 27Z" fill="black"/>
<path d="M14.5 24.25V27M14.5 27H14.3536C14.1272 27 13.9101 27.0899 13.75 27.25V27.25C13.5899 27.4101 13.5 27.6272 13.5 27.8536V29.1464C13.5 29.3728 13.5899 29.5899 13.75 29.75V29.75C13.9101 29.9101 14.1272 30 14.3536 30H14.6464C14.8728 30 15.0899 29.9101 15.25 29.75V29.75C15.4101 29.5899 15.5 29.3728 15.5 29.1464V27.8536C15.5 27.6272 15.4101 27.4101 15.25 27.25V27.25C15.0899 27.0899 14.8728 27 14.6464 27H14.5Z" stroke="#010101"/>
<path d="M8 19L5.18654 26.0336C5.11938 26.2016 5.29316 26.366 5.45861 26.2929C11.6304 23.569 17.3696 23.569 23.5414 26.2929C23.7068 26.366 23.8806 26.2016 23.8135 26.0336L21 19M8 19C8 9.5 11.5 8.5 13.5 8M8 19C13 17.5 16 17.5 21 19M21 19C21 9.5 17.5 8.5 15.5 8M15.5 8H13.5M15.5 8L15.0379 6.15149C15.0156 6.06246 14.9356 6 14.8438 6H14.1562C14.0644 6 13.9844 6.06246 13.9621 6.15149L13.5 8" stroke="#484848"/>
</svg>
