<svg width="75" height="55" viewBox="0 0 75 55" fill="none" xmlns="http://www.w3.org/2000/svg">
<path d="M28 0H47.5L73.5 42.5V54.5H0L1 40.5L28 0Z" fill="#FF0000" fill-opacity="0.31"/>
<path d="M21.0549 38V30.3H22.9249V36.35H26.3569V38H21.0549ZM29.5122 38.099C29.0209 38.099 28.5809 37.9707 28.1922 37.714C27.8109 37.45 27.5065 37.0907 27.2792 36.636C27.0519 36.174 26.9382 35.6533 26.9382 35.074C26.9382 34.48 27.0519 33.9557 27.2792 33.501C27.5065 33.0463 27.8182 32.6907 28.2142 32.434C28.6102 32.17 29.0612 32.038 29.5672 32.038C29.8459 32.038 30.0989 32.0783 30.3262 32.159C30.5609 32.2397 30.7662 32.3533 30.9422 32.5C31.1182 32.6393 31.2685 32.8043 31.3932 32.995C31.5179 33.1783 31.6095 33.3763 31.6682 33.589L31.3052 33.545V32.159H33.0542V38H31.2722V36.592L31.6682 36.581C31.6095 36.7863 31.5142 36.9807 31.3822 37.164C31.2502 37.3473 31.0889 37.5087 30.8982 37.648C30.7075 37.7873 30.4949 37.8973 30.2602 37.978C30.0255 38.0587 29.7762 38.099 29.5122 38.099ZM29.9962 36.614C30.2675 36.614 30.5022 36.5517 30.7002 36.427C30.8982 36.3023 31.0522 36.1263 31.1622 35.899C31.2722 35.6643 31.3272 35.3893 31.3272 35.074C31.3272 34.7587 31.2722 34.4873 31.1622 34.26C31.0522 34.0253 30.8982 33.8457 30.7002 33.721C30.5022 33.589 30.2675 33.523 29.9962 33.523C29.7322 33.523 29.5012 33.589 29.3032 33.721C29.1125 33.8457 28.9622 34.0253 28.8522 34.26C28.7422 34.4873 28.6872 34.7587 28.6872 35.074C28.6872 35.3893 28.7422 35.6643 28.8522 35.899C28.9622 36.1263 29.1125 36.3023 29.3032 36.427C29.5012 36.5517 29.7322 36.614 29.9962 36.614ZM40.8696 38.11C40.3636 38.11 39.9053 38.0513 39.4946 37.934C39.0913 37.8093 38.7319 37.6333 38.4166 37.406C38.1013 37.1713 37.8189 36.8963 37.5696 36.581L38.7026 35.294C39.0693 35.7853 39.4359 36.1153 39.8026 36.284C40.1766 36.4527 40.5616 36.537 40.9576 36.537C41.1556 36.537 41.3353 36.5113 41.4966 36.46C41.6579 36.4087 41.7826 36.3353 41.8706 36.24C41.9586 36.1373 42.0026 36.0127 42.0026 35.866C42.0026 35.756 41.9733 35.657 41.9146 35.569C41.8633 35.481 41.7899 35.404 41.6946 35.338C41.5993 35.272 41.4856 35.2133 41.3536 35.162C41.2216 35.1033 41.0823 35.0557 40.9356 35.019C40.7889 34.975 40.6386 34.9383 40.4846 34.909C40.0593 34.8137 39.6889 34.6963 39.3736 34.557C39.0583 34.4177 38.7943 34.249 38.5816 34.051C38.3763 33.8457 38.2223 33.6147 38.1196 33.358C38.0169 33.094 37.9656 32.8007 37.9656 32.478C37.9656 32.1333 38.0426 31.818 38.1966 31.532C38.3579 31.2387 38.5706 30.9893 38.8346 30.784C39.1059 30.5713 39.4176 30.41 39.7696 30.3C40.1216 30.1827 40.4883 30.124 40.8696 30.124C41.3756 30.124 41.8083 30.179 42.1676 30.289C42.5343 30.3917 42.8459 30.542 43.1026 30.74C43.3666 30.938 43.5903 31.1763 43.7736 31.455L42.6186 32.566C42.4646 32.3753 42.2959 32.2177 42.1126 32.093C41.9366 31.9683 41.7459 31.873 41.5406 31.807C41.3426 31.741 41.1373 31.708 40.9246 31.708C40.7046 31.708 40.5139 31.7373 40.3526 31.796C40.1986 31.8473 40.0776 31.9243 39.9896 32.027C39.9016 32.1223 39.8576 32.2397 39.8576 32.379C39.8576 32.5037 39.8943 32.61 39.9676 32.698C40.0409 32.786 40.1399 32.8667 40.2646 32.94C40.3893 33.006 40.5323 33.0647 40.6936 33.116C40.8549 33.16 41.0236 33.1967 41.1996 33.226C41.6029 33.3067 41.9659 33.413 42.2886 33.545C42.6186 33.677 42.9009 33.8383 43.1356 34.029C43.3776 34.2197 43.5609 34.447 43.6856 34.711C43.8176 34.9677 43.8836 35.2683 43.8836 35.613C43.8836 36.1483 43.7516 36.603 43.4876 36.977C43.2309 37.3437 42.8753 37.626 42.4206 37.824C41.9733 38.0147 41.4563 38.11 40.8696 38.11ZM47.2583 38.099C46.767 38.099 46.327 37.9707 45.9383 37.714C45.557 37.45 45.2526 37.0907 45.0253 36.636C44.798 36.174 44.6843 35.6533 44.6843 35.074C44.6843 34.48 44.798 33.9557 45.0253 33.501C45.2526 33.0463 45.5643 32.6907 45.9603 32.434C46.3563 32.17 46.8073 32.038 47.3133 32.038C47.592 32.038 47.845 32.0783 48.0723 32.159C48.307 32.2397 48.5123 32.3533 48.6883 32.5C48.8643 32.6393 49.0146 32.8043 49.1393 32.995C49.264 33.1783 49.3556 33.3763 49.4143 33.589L49.0513 33.545V32.159H50.8003V38H49.0183V36.592L49.4143 36.581C49.3556 36.7863 49.2603 36.9807 49.1283 37.164C48.9963 37.3473 48.835 37.5087 48.6443 37.648C48.4536 37.7873 48.241 37.8973 48.0063 37.978C47.7716 38.0587 47.5223 38.099 47.2583 38.099ZM47.7423 36.614C48.0136 36.614 48.2483 36.5517 48.4463 36.427C48.6443 36.3023 48.7983 36.1263 48.9083 35.899C49.0183 35.6643 49.0733 35.3893 49.0733 35.074C49.0733 34.7587 49.0183 34.4873 48.9083 34.26C48.7983 34.0253 48.6443 33.8457 48.4463 33.721C48.2483 33.589 48.0136 33.523 47.7423 33.523C47.4783 33.523 47.2473 33.589 47.0493 33.721C46.8586 33.8457 46.7083 34.0253 46.5983 34.26C46.4883 34.4873 46.4333 34.7587 46.4333 35.074C46.4333 35.3893 46.4883 35.6643 46.5983 35.899C46.7083 36.1263 46.8586 36.3023 47.0493 36.427C47.2473 36.5517 47.4783 36.614 47.7423 36.614ZM52.3643 38V29.86H54.1243V38H52.3643ZM5.42959 52.11C5.01159 52.11 4.62292 52.055 4.26359 51.945C3.91159 51.835 3.58892 51.67 3.29559 51.45C3.00959 51.2227 2.75292 50.944 2.52559 50.614L3.33959 49.679C3.69892 50.1923 4.04359 50.548 4.37359 50.746C4.70359 50.944 5.09592 51.043 5.55059 51.043C5.82925 51.043 6.08225 50.999 6.30959 50.911C6.53692 50.823 6.71659 50.702 6.84859 50.548C6.98059 50.394 7.04659 50.218 7.04659 50.02C7.04659 49.888 7.02459 49.7633 6.98059 49.646C6.93659 49.5287 6.86692 49.4223 6.77159 49.327C6.68359 49.2317 6.56625 49.1437 6.41959 49.063C6.28025 48.9823 6.11525 48.9127 5.92459 48.854C5.73392 48.788 5.51392 48.733 5.26459 48.689C4.86859 48.6083 4.52392 48.502 4.23059 48.37C3.93725 48.238 3.69159 48.073 3.49359 47.875C3.29559 47.677 3.14892 47.4533 3.05359 47.204C2.95825 46.9473 2.91059 46.6613 2.91059 46.346C2.91059 46.038 2.97659 45.752 3.10859 45.488C3.24792 45.224 3.43492 44.9967 3.66959 44.806C3.91159 44.608 4.19392 44.4577 4.51659 44.355C4.83925 44.245 5.18759 44.19 5.56159 44.19C5.95759 44.19 6.32059 44.2413 6.65059 44.344C6.98059 44.4467 7.27392 44.6007 7.53059 44.806C7.78725 45.004 7.99992 45.2497 8.16859 45.543L7.33259 46.368C7.18592 46.126 7.02092 45.9243 6.83759 45.763C6.65425 45.5943 6.45259 45.4697 6.23259 45.389C6.01259 45.301 5.77792 45.257 5.52859 45.257C5.24259 45.257 4.99325 45.301 4.78059 45.389C4.56792 45.477 4.39925 45.6017 4.27459 45.763C4.15725 45.917 4.09859 46.1003 4.09859 46.313C4.09859 46.467 4.12792 46.61 4.18659 46.742C4.24525 46.8667 4.33325 46.9803 4.45059 47.083C4.57525 47.1783 4.74025 47.2663 4.94559 47.347C5.15092 47.4203 5.39659 47.4863 5.68259 47.545C6.08592 47.633 6.44525 47.7467 6.76059 47.886C7.07592 48.018 7.34359 48.1757 7.56359 48.359C7.78359 48.5423 7.94859 48.7477 8.05859 48.975C8.17592 49.2023 8.23459 49.448 8.23459 49.712C8.23459 50.2033 8.12092 50.6287 7.89359 50.988C7.66625 51.3473 7.34359 51.626 6.92559 51.824C6.50759 52.0147 6.00892 52.11 5.42959 52.11ZM11.8538 52.11C11.3772 52.11 10.9408 51.978 10.5448 51.714C10.1562 51.45 9.84451 51.0907 9.60984 50.636C9.37518 50.1813 9.25784 49.668 9.25784 49.096C9.25784 48.5167 9.37518 48.0033 9.60984 47.556C9.85184 47.1013 10.1745 46.7457 10.5778 46.489C10.9885 46.2323 11.4468 46.104 11.9528 46.104C12.2535 46.104 12.5285 46.148 12.7778 46.236C13.0272 46.324 13.2435 46.4487 13.4268 46.61C13.6175 46.764 13.7715 46.9437 13.8888 47.149C14.0135 47.3543 14.0905 47.5743 14.1198 47.809L13.8668 47.721V46.225H15.0108V52H13.8668V50.625L14.1308 50.548C14.0868 50.746 13.9952 50.9403 13.8558 51.131C13.7238 51.3143 13.5515 51.4793 13.3388 51.626C13.1335 51.7727 12.9025 51.89 12.6458 51.978C12.3965 52.066 12.1325 52.11 11.8538 52.11ZM12.1508 51.065C12.4955 51.065 12.7998 50.9807 13.0638 50.812C13.3278 50.6433 13.5332 50.4123 13.6798 50.119C13.8338 49.8183 13.9108 49.4773 13.9108 49.096C13.9108 48.722 13.8338 48.3883 13.6798 48.095C13.5332 47.8017 13.3278 47.5707 13.0638 47.402C12.7998 47.2333 12.4955 47.149 12.1508 47.149C11.8135 47.149 11.5128 47.2333 11.2488 47.402C10.9922 47.5707 10.7868 47.8017 10.6328 48.095C10.4862 48.3883 10.4128 48.722 10.4128 49.096C10.4128 49.4773 10.4862 49.8183 10.6328 50.119C10.7868 50.4123 10.9922 50.6433 11.2488 50.812C11.5128 50.9807 11.8135 51.065 12.1508 51.065ZM19.0458 52.11C18.5104 52.11 18.0301 51.978 17.6048 51.714C17.1868 51.45 16.8531 51.0907 16.6038 50.636C16.3618 50.1813 16.2408 49.6717 16.2408 49.107C16.2408 48.5423 16.3618 48.0327 16.6038 47.578C16.8531 47.1233 17.1868 46.764 17.6048 46.5C18.0301 46.236 18.5104 46.104 19.0458 46.104C19.5591 46.104 20.0248 46.2103 20.4428 46.423C20.8681 46.6283 21.1908 46.9107 21.4108 47.27L20.7838 48.04C20.6664 47.8713 20.5161 47.7173 20.3328 47.578C20.1494 47.4387 19.9551 47.3287 19.7498 47.248C19.5444 47.1673 19.3464 47.127 19.1558 47.127C18.8038 47.127 18.4884 47.215 18.2098 47.391C17.9384 47.5597 17.7221 47.7943 17.5608 48.095C17.3994 48.3957 17.3188 48.733 17.3188 49.107C17.3188 49.481 17.4031 49.8183 17.5718 50.119C17.7404 50.4123 17.9641 50.647 18.2428 50.823C18.5214 50.999 18.8294 51.087 19.1668 51.087C19.3648 51.087 19.5554 51.054 19.7388 50.988C19.9294 50.922 20.1128 50.823 20.2888 50.691C20.4648 50.559 20.6298 50.3977 20.7838 50.207L21.4108 50.977C21.1761 51.307 20.8388 51.5783 20.3988 51.791C19.9661 52.0037 19.5151 52.11 19.0458 52.11ZM22.4795 52V46.225H23.6235V48.04L23.5135 47.6C23.5942 47.3213 23.7298 47.0683 23.9205 46.841C24.1185 46.6137 24.3422 46.434 24.5915 46.302C24.8482 46.17 25.1122 46.104 25.3835 46.104C25.5082 46.104 25.6255 46.115 25.7355 46.137C25.8528 46.159 25.9445 46.1847 26.0105 46.214L25.7135 47.446C25.6255 47.4093 25.5265 47.38 25.4165 47.358C25.3138 47.3287 25.2112 47.314 25.1085 47.314C24.9105 47.314 24.7198 47.3543 24.5365 47.435C24.3605 47.5083 24.2028 47.6147 24.0635 47.754C23.9315 47.886 23.8252 48.0437 23.7445 48.227C23.6638 48.403 23.6235 48.5973 23.6235 48.81V52H22.4795ZM29.364 52.11C28.77 52.11 28.242 51.9853 27.78 51.736C27.3253 51.4793 26.966 51.131 26.702 50.691C26.4453 50.251 26.317 49.745 26.317 49.173C26.317 48.7183 26.3903 48.304 26.537 47.93C26.6836 47.556 26.8853 47.2333 27.142 46.962C27.406 46.6833 27.7176 46.4707 28.077 46.324C28.4436 46.17 28.8396 46.093 29.265 46.093C29.639 46.093 29.9873 46.1663 30.31 46.313C30.6326 46.4523 30.9113 46.6467 31.146 46.896C31.388 47.1453 31.5713 47.4423 31.696 47.787C31.828 48.1243 31.8903 48.4947 31.883 48.898L31.872 49.382H27.153L26.9 48.48H30.893L30.728 48.667V48.403C30.706 48.161 30.6253 47.9447 30.486 47.754C30.3466 47.5633 30.1706 47.413 29.958 47.303C29.7453 47.193 29.5143 47.138 29.265 47.138C28.869 47.138 28.5353 47.215 28.264 47.369C27.9926 47.5157 27.7873 47.7357 27.648 48.029C27.5086 48.315 27.439 48.6707 27.439 49.096C27.439 49.4993 27.5233 49.8513 27.692 50.152C27.8606 50.4453 28.099 50.6727 28.407 50.834C28.715 50.9953 29.0706 51.076 29.474 51.076C29.76 51.076 30.024 51.0283 30.266 50.933C30.5153 50.8377 30.783 50.6653 31.069 50.416L31.641 51.219C31.465 51.395 31.2486 51.549 30.992 51.681C30.7426 51.813 30.475 51.9193 30.189 52C29.9103 52.0733 29.6353 52.11 29.364 52.11ZM35.5233 52.11C34.9953 52.11 34.5223 51.9817 34.1043 51.725C33.6936 51.461 33.3673 51.1053 33.1253 50.658C32.8833 50.2033 32.7623 49.6863 32.7623 49.107C32.7623 48.5277 32.8796 48.0143 33.1143 47.567C33.3563 47.1123 33.6826 46.7567 34.0933 46.5C34.5039 46.236 34.9696 46.104 35.4903 46.104C35.7763 46.104 36.0513 46.1517 36.3153 46.247C36.5866 46.335 36.8286 46.4597 37.0413 46.621C37.2539 46.775 37.4189 46.9473 37.5363 47.138C37.6609 47.3213 37.7233 47.5083 37.7233 47.699L37.3933 47.721V43.86H38.5263V52H37.3933V50.625H37.6133C37.6133 50.801 37.5546 50.977 37.4373 51.153C37.3199 51.3217 37.1623 51.4793 36.9643 51.626C36.7736 51.7727 36.5499 51.89 36.2933 51.978C36.0439 52.066 35.7873 52.11 35.5233 52.11ZM35.6773 51.131C36.0219 51.131 36.3263 51.043 36.5903 50.867C36.8543 50.691 37.0596 50.4527 37.2063 50.152C37.3603 49.844 37.4373 49.4957 37.4373 49.107C37.4373 48.7183 37.3603 48.3737 37.2063 48.073C37.0596 47.765 36.8543 47.523 36.5903 47.347C36.3263 47.171 36.0219 47.083 35.6773 47.083C35.3326 47.083 35.0283 47.171 34.7643 47.347C34.5003 47.523 34.2913 47.765 34.1373 48.073C33.9906 48.3737 33.9173 48.7183 33.9173 49.107C33.9173 49.4957 33.9906 49.844 34.1373 50.152C34.2913 50.4527 34.5003 50.691 34.7643 50.867C35.0283 51.043 35.3326 51.131 35.6773 51.131ZM48.482 52V44.3H49.67V52H48.482ZM43.455 52V44.3H44.643V52H43.455ZM43.972 48.733V47.589H49.01V48.733H43.972ZM54.2321 52.11C53.6381 52.11 53.1101 51.9853 52.6481 51.736C52.1935 51.4793 51.8341 51.131 51.5701 50.691C51.3135 50.251 51.1851 49.745 51.1851 49.173C51.1851 48.7183 51.2585 48.304 51.4051 47.93C51.5518 47.556 51.7535 47.2333 52.0101 46.962C52.2741 46.6833 52.5858 46.4707 52.9451 46.324C53.3118 46.17 53.7078 46.093 54.1331 46.093C54.5071 46.093 54.8555 46.1663 55.1781 46.313C55.5008 46.4523 55.7795 46.6467 56.0141 46.896C56.2561 47.1453 56.4395 47.4423 56.5641 47.787C56.6961 48.1243 56.7585 48.4947 56.7511 48.898L56.7401 49.382H52.0211L51.7681 48.48H55.7611L55.5961 48.667V48.403C55.5741 48.161 55.4935 47.9447 55.3541 47.754C55.2148 47.5633 55.0388 47.413 54.8261 47.303C54.6135 47.193 54.3825 47.138 54.1331 47.138C53.7371 47.138 53.4035 47.215 53.1321 47.369C52.8608 47.5157 52.6555 47.7357 52.5161 48.029C52.3768 48.315 52.3071 48.6707 52.3071 49.096C52.3071 49.4993 52.3915 49.8513 52.5601 50.152C52.7288 50.4453 52.9671 50.6727 53.2751 50.834C53.5831 50.9953 53.9388 51.076 54.3421 51.076C54.6281 51.076 54.8921 51.0283 55.1341 50.933C55.3835 50.8377 55.6511 50.6653 55.9371 50.416L56.5091 51.219C56.3331 51.395 56.1168 51.549 55.8601 51.681C55.6108 51.813 55.3431 51.9193 55.0571 52C54.7785 52.0733 54.5035 52.11 54.2321 52.11ZM60.2044 52.11C59.7278 52.11 59.2914 51.978 58.8954 51.714C58.5068 51.45 58.1951 51.0907 57.9604 50.636C57.7258 50.1813 57.6084 49.668 57.6084 49.096C57.6084 48.5167 57.7258 48.0033 57.9604 47.556C58.2024 47.1013 58.5251 46.7457 58.9284 46.489C59.3391 46.2323 59.7974 46.104 60.3034 46.104C60.6041 46.104 60.8791 46.148 61.1284 46.236C61.3778 46.324 61.5941 46.4487 61.7774 46.61C61.9681 46.764 62.1221 46.9437 62.2394 47.149C62.3641 47.3543 62.4411 47.5743 62.4704 47.809L62.2174 47.721V46.225H63.3614V52H62.2174V50.625L62.4814 50.548C62.4374 50.746 62.3458 50.9403 62.2064 51.131C62.0744 51.3143 61.9021 51.4793 61.6894 51.626C61.4841 51.7727 61.2531 51.89 60.9964 51.978C60.7471 52.066 60.4831 52.11 60.2044 52.11ZM60.5014 51.065C60.8461 51.065 61.1504 50.9807 61.4144 50.812C61.6784 50.6433 61.8838 50.4123 62.0304 50.119C62.1844 49.8183 62.2614 49.4773 62.2614 49.096C62.2614 48.722 62.1844 48.3883 62.0304 48.095C61.8838 47.8017 61.6784 47.5707 61.4144 47.402C61.1504 47.2333 60.8461 47.149 60.5014 47.149C60.1641 47.149 59.8634 47.2333 59.5994 47.402C59.3428 47.5707 59.1374 47.8017 58.9834 48.095C58.8368 48.3883 58.7634 48.722 58.7634 49.096C58.7634 49.4773 58.8368 49.8183 58.9834 50.119C59.1374 50.4123 59.3428 50.6433 59.5994 50.812C59.8634 50.9807 60.1641 51.065 60.5014 51.065ZM64.9434 52V46.225H66.0874V48.04L65.9774 47.6C66.058 47.3213 66.1937 47.0683 66.3844 46.841C66.5824 46.6137 66.806 46.434 67.0554 46.302C67.312 46.17 67.576 46.104 67.8474 46.104C67.972 46.104 68.0894 46.115 68.1994 46.137C68.3167 46.159 68.4084 46.1847 68.4744 46.214L68.1774 47.446C68.0894 47.4093 67.9904 47.38 67.8804 47.358C67.7777 47.3287 67.675 47.314 67.5724 47.314C67.3744 47.314 67.1837 47.3543 67.0004 47.435C66.8244 47.5083 66.6667 47.6147 66.5274 47.754C66.3954 47.886 66.289 48.0437 66.2084 48.227C66.1277 48.403 66.0874 48.5973 66.0874 48.81V52H64.9434ZM70.3097 52V44.751H71.4427V52H70.3097ZM69.1107 47.325V46.225H72.7847V47.325H69.1107Z" fill="black"/>
<path d="M28 23.5C34.5 25.5 40.5 25.5 47 23.5C40.5 20.5 34.5 20.5 28 23.5Z" fill="#949494"/>
<path d="M28 23.5L31 16C36 14.5 39 14.5 44 16L47 23.5C40.5 20.5 34.5 20.5 28 23.5Z" fill="#B0B0B0"/>
<path d="M31.001 15.726C31.0678 6.48065 34.5194 5.49515 36.5 5L36.9621 3.15149C36.9844 3.06246 37.0644 3 37.1562 3H37.8438C37.9356 3 38.0156 3.06246 38.0379 3.15149L38.5 5C40.4806 5.49515 43.9322 6.48065 43.999 15.726C44 15.8599 43.8693 15.9608 43.7407 15.923C38.9808 14.5257 36.0192 14.5257 31.2593 15.923C31.1307 15.9608 31 15.8599 31.001 15.726Z" fill="#D1D1D1"/>
<path d="M31 16L28.0806 23.2984C28.0372 23.407 28.0964 23.5297 28.2083 23.5635C34.559 25.4788 40.441 25.4788 46.7917 23.5635C46.9036 23.5297 46.9628 23.407 46.9194 23.2984L44 16M31 16C31 6.53695 34.4728 5.50791 36.4766 5.00586C36.4925 5.00188 36.5083 5 36.5246 5H38.4754C38.4917 5 38.5075 5.00188 38.5234 5.00586C40.5272 5.50791 44 6.53695 44 16M31 16C36 14.5 39 14.5 44 16" stroke="#484848"/>
<path d="M37.3536 24H37.5H37.6464C37.8728 24 38.0899 24.0899 38.25 24.25C38.4101 24.4101 38.5 24.6272 38.5 24.8536V26.1464C38.5 26.3728 38.4101 26.5899 38.25 26.75C38.0899 26.9101 37.8728 27 37.6464 27H37.3536C37.1272 27 36.9101 26.9101 36.75 26.75C36.5899 26.5899 36.5 26.3728 36.5 26.1464V24.8536C36.5 24.6272 36.5899 24.4101 36.75 24.25C36.9101 24.0899 37.1272 24 37.3536 24Z" fill="black"/>
<path d="M37.5 21.25V24M37.5 24H37.3536C37.1272 24 36.9101 24.0899 36.75 24.25V24.25C36.5899 24.4101 36.5 24.6272 36.5 24.8536V26.1464C36.5 26.3728 36.5899 26.5899 36.75 26.75V26.75C36.9101 26.9101 37.1272 27 37.3536 27H37.6464C37.8728 27 38.0899 26.9101 38.25 26.75V26.75C38.4101 26.5899 38.5 26.3728 38.5 26.1464V24.8536C38.5 24.6272 38.4101 24.4101 38.25 24.25V24.25C38.0899 24.0899 37.8728 24 37.6464 24H37.5Z" stroke="#010101"/>
<path d="M31 16L28.1865 23.0336C28.1194 23.2016 28.2932 23.366 28.4586 23.2929C34.6304 20.569 40.3696 20.569 46.5414 23.2929C46.7068 23.366 46.8806 23.2016 46.8135 23.0336L44 16M31 16C31 6.5 34.5 5.5 36.5 5M31 16C36 14.5 39 14.5 44 16M44 16C44 6.5 40.5 5.5 38.5 5M38.5 5H36.5M38.5 5L38.0379 3.15149C38.0156 3.06246 37.9356 3 37.8438 3H37.1562C37.0644 3 36.9844 3.06246 36.9621 3.15149L36.5 5" stroke="#484848"/>
</svg>
