<svg width="71" height="55" viewBox="0 0 71 55" fill="none" xmlns="http://www.w3.org/2000/svg">
<path d="M71 54.5H0.5L2 29.5L28.5 0.5L45 1.5L71 30.5V54.5Z" fill="#FF0000" fill-opacity="0.31"/>
<path d="M9.18919 38V30.3H12.5112C12.9952 30.3 13.4242 30.41 13.7982 30.63C14.1795 30.85 14.4802 31.1507 14.7002 31.532C14.9275 31.9133 15.0412 32.3423 15.0412 32.819C15.0412 33.3177 14.9275 33.765 14.7002 34.161C14.4802 34.5497 14.1795 34.8577 13.7982 35.085C13.4242 35.3123 12.9952 35.426 12.5112 35.426H11.0592V38H9.18919ZM11.0262 33.787H12.2472C12.4085 33.787 12.5552 33.7467 12.6872 33.666C12.8192 33.5853 12.9255 33.4753 13.0062 33.336C13.0869 33.1967 13.1272 33.0353 13.1272 32.852C13.1272 32.6613 13.0869 32.5 13.0062 32.368C12.9255 32.236 12.8192 32.1333 12.6872 32.06C12.5552 31.9867 12.4085 31.95 12.2472 31.95H11.0262V33.787ZM18.334 38.099C17.8426 38.099 17.4026 37.9707 17.014 37.714C16.6326 37.45 16.3283 37.0907 16.101 36.636C15.8736 36.174 15.76 35.6533 15.76 35.074C15.76 34.48 15.8736 33.9557 16.101 33.501C16.3283 33.0463 16.64 32.6907 17.036 32.434C17.432 32.17 17.883 32.038 18.389 32.038C18.6676 32.038 18.9206 32.0783 19.148 32.159C19.3826 32.2397 19.588 32.3533 19.764 32.5C19.94 32.6393 20.0903 32.8043 20.215 32.995C20.3396 33.1783 20.4313 33.3763 20.49 33.589L20.127 33.545V32.159H21.876V38H20.094V36.592L20.49 36.581C20.4313 36.7863 20.336 36.9807 20.204 37.164C20.072 37.3473 19.9106 37.5087 19.72 37.648C19.5293 37.7873 19.3166 37.8973 19.082 37.978C18.8473 38.0587 18.598 38.099 18.334 38.099ZM18.818 36.614C19.0893 36.614 19.324 36.5517 19.522 36.427C19.72 36.3023 19.874 36.1263 19.984 35.899C20.094 35.6643 20.149 35.3893 20.149 35.074C20.149 34.7587 20.094 34.4873 19.984 34.26C19.874 34.0253 19.72 33.8457 19.522 33.721C19.324 33.589 19.0893 33.523 18.818 33.523C18.554 33.523 18.323 33.589 18.125 33.721C17.9343 33.8457 17.784 34.0253 17.674 34.26C17.564 34.4873 17.509 34.7587 17.509 35.074C17.509 35.3893 17.564 35.6643 17.674 35.899C17.784 36.1263 17.9343 36.3023 18.125 36.427C18.323 36.5517 18.554 36.614 18.818 36.614ZM23.4289 38V32.159H25.1009L25.1559 33.347L24.8039 33.479C24.8846 33.215 25.0276 32.9767 25.2329 32.764C25.4456 32.544 25.6986 32.368 25.9919 32.236C26.2853 32.104 26.5933 32.038 26.9159 32.038C27.3559 32.038 27.7263 32.1297 28.0269 32.313C28.3276 32.489 28.5549 32.7567 28.7089 33.116C28.8629 33.468 28.9399 33.9007 28.9399 34.414V38H27.1689V34.557C27.1689 34.3223 27.1359 34.128 27.0699 33.974C27.0039 33.82 26.9013 33.7063 26.7619 33.633C26.6299 33.5523 26.4649 33.5157 26.2669 33.523C26.1129 33.523 25.9699 33.5487 25.8379 33.6C25.7059 33.644 25.5923 33.7137 25.4969 33.809C25.4016 33.897 25.3246 33.9997 25.2659 34.117C25.2146 34.2343 25.1889 34.3627 25.1889 34.502V38H24.3199C24.1146 38 23.9386 38 23.7919 38C23.6453 38 23.5243 38 23.4289 38ZM33.0844 40.53C32.6077 40.53 32.131 40.4603 31.6544 40.321C31.185 40.1817 30.8037 40.002 30.5104 39.782L31.1264 38.55C31.2804 38.6527 31.449 38.7407 31.6324 38.814C31.823 38.8947 32.021 38.957 32.2264 39.001C32.4317 39.045 32.6407 39.067 32.8534 39.067C33.2274 39.067 33.5317 39.012 33.7664 38.902C34.001 38.792 34.177 38.6233 34.2944 38.396C34.4117 38.176 34.4704 37.8973 34.4704 37.56V36.581L34.8114 36.636C34.76 36.878 34.6317 37.098 34.4264 37.296C34.2284 37.494 33.9827 37.6553 33.6894 37.78C33.396 37.8973 33.0844 37.956 32.7544 37.956C32.2264 37.956 31.7534 37.835 31.3354 37.593C30.9247 37.3437 30.5984 37.0027 30.3564 36.57C30.1217 36.13 30.0044 35.624 30.0044 35.052C30.0044 34.4653 30.1217 33.9483 30.3564 33.501C30.591 33.0463 30.9137 32.6907 31.3244 32.434C31.735 32.17 32.197 32.038 32.7104 32.038C32.9304 32.038 33.1394 32.0637 33.3374 32.115C33.5427 32.1663 33.7297 32.236 33.8984 32.324C34.0744 32.4047 34.2284 32.5037 34.3604 32.621C34.4997 32.731 34.6097 32.852 34.6904 32.984C34.7784 33.116 34.837 33.2517 34.8664 33.391L34.5034 33.479L34.5694 32.159H36.2414V37.527C36.2414 38.0037 36.168 38.4253 36.0214 38.792C35.882 39.166 35.673 39.4813 35.3944 39.738C35.123 40.002 34.793 40.2 34.4044 40.332C34.0157 40.464 33.5757 40.53 33.0844 40.53ZM33.1284 36.592C33.4144 36.592 33.66 36.5297 33.8654 36.405C34.078 36.273 34.2394 36.0933 34.3494 35.866C34.4667 35.6387 34.5254 35.371 34.5254 35.063C34.5254 34.755 34.4667 34.4873 34.3494 34.26C34.2394 34.0253 34.078 33.8457 33.8654 33.721C33.66 33.589 33.4144 33.523 33.1284 33.523C32.8497 33.523 32.6077 33.589 32.4024 33.721C32.197 33.8457 32.0357 34.0253 31.9184 34.26C31.8084 34.4873 31.7534 34.755 31.7534 35.063C31.7534 35.371 31.8084 35.6387 31.9184 35.866C32.0357 36.0933 32.197 36.273 32.4024 36.405C32.6077 36.5297 32.8497 36.592 33.1284 36.592ZM39.6748 38.121C39.2422 38.121 38.8718 38.0293 38.5638 37.846C38.2632 37.6553 38.0285 37.384 37.8598 37.032C37.6985 36.68 37.6178 36.2583 37.6178 35.767V32.159H39.3888V35.525C39.3888 35.7597 39.4255 35.9613 39.4988 36.13C39.5722 36.2987 39.6822 36.4307 39.8288 36.526C39.9755 36.614 40.1515 36.658 40.3568 36.658C40.5108 36.658 40.6502 36.6323 40.7748 36.581C40.9068 36.5297 41.0168 36.46 41.1048 36.372C41.2002 36.2767 41.2735 36.1703 41.3248 36.053C41.3762 35.9283 41.4018 35.7927 41.4018 35.646V32.159H43.1728V38H41.5118L41.4348 36.801L41.7648 36.669C41.6768 36.9477 41.5302 37.197 41.3248 37.417C41.1195 37.6297 40.8738 37.802 40.5878 37.934C40.3018 38.0587 39.9975 38.121 39.6748 38.121ZM44.8404 38V32.159H46.6004V38H44.8404ZM45.7204 31.004C45.3904 31.004 45.1301 30.927 44.9394 30.773C44.7561 30.6117 44.6644 30.3843 44.6644 30.091C44.6644 29.827 44.7598 29.6107 44.9504 29.442C45.1411 29.2733 45.3978 29.189 45.7204 29.189C46.0504 29.189 46.3071 29.2697 46.4904 29.431C46.6738 29.585 46.7654 29.805 46.7654 30.091C46.7654 30.3623 46.6701 30.5823 46.4794 30.751C46.2961 30.9197 46.0431 31.004 45.7204 31.004ZM48.7381 38V30.685H50.4981V38H48.7381ZM47.7041 33.699V32.159H51.6311V33.699H47.7041ZM55.1462 38.11C54.5816 38.11 54.0756 37.978 53.6282 37.714C53.1809 37.45 52.8252 37.0907 52.5612 36.636C52.3046 36.174 52.1762 35.6533 52.1762 35.074C52.1762 34.4947 52.3046 33.9777 52.5612 33.523C52.8252 33.061 53.1809 32.698 53.6282 32.434C54.0756 32.17 54.5816 32.038 55.1462 32.038C55.6669 32.038 56.1436 32.1297 56.5762 32.313C57.0162 32.4963 57.3646 32.753 57.6212 33.083L56.6642 34.227C56.5616 34.1097 56.4406 33.9997 56.3012 33.897C56.1619 33.7943 56.0079 33.7137 55.8392 33.655C55.6706 33.5963 55.4946 33.567 55.3112 33.567C55.0326 33.567 54.7869 33.633 54.5742 33.765C54.3616 33.8897 54.1966 34.0657 54.0792 34.293C53.9619 34.5203 53.9032 34.7807 53.9032 35.074C53.9032 35.3527 53.9619 35.6057 54.0792 35.833C54.2039 36.0603 54.3726 36.24 54.5852 36.372C54.7979 36.504 55.0399 36.57 55.3112 36.57C55.5019 36.57 55.6779 36.548 55.8392 36.504C56.0006 36.4527 56.1472 36.3793 56.2792 36.284C56.4186 36.1887 56.5469 36.0713 56.6642 35.932L57.6102 37.087C57.3609 37.4023 57.0126 37.6517 56.5652 37.835C56.1252 38.0183 55.6522 38.11 55.1462 38.11ZM58.5774 38V29.86H60.3044V33.347L59.9524 33.479C60.0331 33.215 60.1761 32.9767 60.3814 32.764C60.5941 32.544 60.8471 32.368 61.1404 32.236C61.4337 32.104 61.7417 32.038 62.0644 32.038C62.5044 32.038 62.8747 32.1297 63.1754 32.313C63.4761 32.489 63.7034 32.7567 63.8574 33.116C64.0114 33.468 64.0884 33.9007 64.0884 34.414V38H62.3174V34.557C62.3174 34.3223 62.2844 34.128 62.2184 33.974C62.1524 33.82 62.0497 33.7063 61.9104 33.633C61.7784 33.5523 61.6134 33.5157 61.4154 33.523C61.2614 33.523 61.1184 33.5487 60.9864 33.6C60.8544 33.644 60.7407 33.7137 60.6454 33.809C60.5501 33.897 60.4731 33.9997 60.4144 34.117C60.3631 34.2343 60.3374 34.3627 60.3374 34.502V38H59.4684C59.2631 38 59.0871 38 58.9404 38C58.7937 38 58.6727 38 58.5774 38ZM7.49111 52.11C7.07311 52.11 6.68444 52.055 6.32511 51.945C5.97311 51.835 5.65044 51.67 5.35711 51.45C5.07111 51.2227 4.81444 50.944 4.58711 50.614L5.40111 49.679C5.76044 50.1923 6.10511 50.548 6.43511 50.746C6.76511 50.944 7.15744 51.043 7.61211 51.043C7.89078 51.043 8.14378 50.999 8.37111 50.911C8.59844 50.823 8.77811 50.702 8.91011 50.548C9.04211 50.394 9.10811 50.218 9.10811 50.02C9.10811 49.888 9.08611 49.7633 9.04211 49.646C8.99811 49.5287 8.92844 49.4223 8.83311 49.327C8.74511 49.2317 8.62778 49.1437 8.48111 49.063C8.34178 48.9823 8.17678 48.9127 7.98611 48.854C7.79544 48.788 7.57544 48.733 7.32611 48.689C6.93011 48.6083 6.58544 48.502 6.29211 48.37C5.99878 48.238 5.75311 48.073 5.55511 47.875C5.35711 47.677 5.21044 47.4533 5.11511 47.204C5.01978 46.9473 4.97211 46.6613 4.97211 46.346C4.97211 46.038 5.03811 45.752 5.17011 45.488C5.30944 45.224 5.49644 44.9967 5.73111 44.806C5.97311 44.608 6.25544 44.4577 6.57811 44.355C6.90078 44.245 7.24911 44.19 7.62311 44.19C8.01911 44.19 8.38211 44.2413 8.71211 44.344C9.04211 44.4467 9.33544 44.6007 9.59211 44.806C9.84878 45.004 10.0614 45.2497 10.2301 45.543L9.39411 46.368C9.24744 46.126 9.08244 45.9243 8.89911 45.763C8.71578 45.5943 8.51411 45.4697 8.29411 45.389C8.07411 45.301 7.83944 45.257 7.59011 45.257C7.30411 45.257 7.05478 45.301 6.84211 45.389C6.62944 45.477 6.46078 45.6017 6.33611 45.763C6.21878 45.917 6.16011 46.1003 6.16011 46.313C6.16011 46.467 6.18944 46.61 6.24811 46.742C6.30678 46.8667 6.39478 46.9803 6.51211 47.083C6.63678 47.1783 6.80178 47.2663 7.00711 47.347C7.21244 47.4203 7.45811 47.4863 7.74411 47.545C8.14744 47.633 8.50678 47.7467 8.82211 47.886C9.13744 48.018 9.40511 48.1757 9.62511 48.359C9.84511 48.5423 10.0101 48.7477 10.1201 48.975C10.2374 49.2023 10.2961 49.448 10.2961 49.712C10.2961 50.2033 10.1824 50.6287 9.95511 50.988C9.72778 51.3473 9.40511 51.626 8.98711 51.824C8.56911 52.0147 8.07044 52.11 7.49111 52.11ZM12.4084 52V44.751H13.5414V52H12.4084ZM11.2094 47.325V46.225H14.8834V47.325H11.2094ZM16.377 52.121C16.135 52.121 15.948 52.0513 15.816 51.912C15.684 51.7653 15.618 51.56 15.618 51.296C15.618 51.054 15.6877 50.856 15.827 50.702C15.9664 50.548 16.1497 50.471 16.377 50.471C16.619 50.471 16.806 50.5443 16.938 50.691C17.07 50.8303 17.136 51.032 17.136 51.296C17.136 51.538 17.0664 51.736 16.927 51.89C16.7877 52.044 16.6044 52.121 16.377 52.121ZM25.23 52.11C24.6727 52.11 24.152 52.011 23.668 51.813C23.184 51.6077 22.7587 51.3253 22.392 50.966C22.0253 50.6067 21.7393 50.1887 21.534 49.712C21.336 49.228 21.237 48.7073 21.237 48.15C21.237 47.6 21.336 47.0867 21.534 46.61C21.7393 46.1333 22.0217 45.719 22.381 45.367C22.7477 45.0077 23.173 44.729 23.657 44.531C24.141 44.333 24.6617 44.234 25.219 44.234C25.6077 44.234 25.9853 44.289 26.352 44.399C26.726 44.509 27.0633 44.663 27.364 44.861C27.6647 45.059 27.9103 45.2863 28.101 45.543L27.331 46.346C27.111 46.1333 26.8837 45.9573 26.649 45.818C26.4217 45.6787 26.187 45.5723 25.945 45.499C25.703 45.4257 25.461 45.389 25.219 45.389C24.823 45.389 24.4563 45.4587 24.119 45.598C23.789 45.7373 23.4957 45.9317 23.239 46.181C22.9897 46.4303 22.7953 46.7237 22.656 47.061C22.5167 47.391 22.447 47.754 22.447 48.15C22.447 48.5313 22.5203 48.8943 22.667 49.239C22.8137 49.5763 23.0153 49.8733 23.272 50.13C23.536 50.3867 23.8367 50.5883 24.174 50.735C24.5187 50.8817 24.8817 50.955 25.263 50.955C25.549 50.955 25.8203 50.9147 26.077 50.834C26.3337 50.746 26.561 50.625 26.759 50.471C26.957 50.317 27.111 50.141 27.221 49.943C27.331 49.7377 27.386 49.5213 27.386 49.294V49.074L27.551 49.228H25.197V48.051H28.607C28.6217 48.1317 28.6327 48.2123 28.64 48.293C28.6473 48.3663 28.651 48.4397 28.651 48.513C28.6583 48.579 28.662 48.645 28.662 48.711C28.662 49.217 28.574 49.679 28.398 50.097C28.222 50.5077 27.9763 50.8633 27.661 51.164C27.353 51.4647 26.99 51.6993 26.572 51.868C26.1613 52.0293 25.714 52.11 25.23 52.11ZM32.6179 52.11C32.0239 52.11 31.4959 51.9853 31.0339 51.736C30.5792 51.4793 30.2199 51.131 29.9559 50.691C29.6992 50.251 29.5709 49.745 29.5709 49.173C29.5709 48.7183 29.6442 48.304 29.7909 47.93C29.9375 47.556 30.1392 47.2333 30.3959 46.962C30.6599 46.6833 30.9715 46.4707 31.3309 46.324C31.6975 46.17 32.0935 46.093 32.5189 46.093C32.8929 46.093 33.2412 46.1663 33.5639 46.313C33.8865 46.4523 34.1652 46.6467 34.3999 46.896C34.6419 47.1453 34.8252 47.4423 34.9499 47.787C35.0819 48.1243 35.1442 48.4947 35.1369 48.898L35.1259 49.382H30.4069L30.1539 48.48H34.1469L33.9819 48.667V48.403C33.9599 48.161 33.8792 47.9447 33.7399 47.754C33.6005 47.5633 33.4245 47.413 33.2119 47.303C32.9992 47.193 32.7682 47.138 32.5189 47.138C32.1229 47.138 31.7892 47.215 31.5179 47.369C31.2465 47.5157 31.0412 47.7357 30.9019 48.029C30.7625 48.315 30.6929 48.6707 30.6929 49.096C30.6929 49.4993 30.7772 49.8513 30.9459 50.152C31.1145 50.4453 31.3529 50.6727 31.6609 50.834C31.9689 50.9953 32.3245 51.076 32.7279 51.076C33.0139 51.076 33.2779 51.0283 33.5199 50.933C33.7692 50.8377 34.0369 50.6653 34.3229 50.416L34.8949 51.219C34.7189 51.395 34.5025 51.549 34.2459 51.681C33.9965 51.813 33.7289 51.9193 33.4429 52C33.1642 52.0733 32.8892 52.11 32.6179 52.11ZM36.3682 52V46.225H37.5122V48.04L37.4022 47.6C37.4828 47.3213 37.6185 47.0683 37.8092 46.841C38.0072 46.6137 38.2308 46.434 38.4802 46.302C38.7368 46.17 39.0008 46.104 39.2722 46.104C39.3968 46.104 39.5142 46.115 39.6242 46.137C39.7415 46.159 39.8332 46.1847 39.8992 46.214L39.6022 47.446C39.5142 47.4093 39.4152 47.38 39.3052 47.358C39.2025 47.3287 39.0998 47.314 38.9972 47.314C38.7992 47.314 38.6085 47.3543 38.4252 47.435C38.2492 47.5083 38.0915 47.6147 37.9522 47.754C37.8202 47.886 37.7138 48.0437 37.6332 48.227C37.5525 48.403 37.5122 48.5973 37.5122 48.81V52H36.3682ZM41.7345 52V44.751H42.8675V52H41.7345ZM40.5355 47.325V46.225H44.2095V47.325H40.5355ZM45.2412 52V46.225H46.3852V48.04L46.2752 47.6C46.3559 47.3213 46.4916 47.0683 46.6822 46.841C46.8802 46.6137 47.1039 46.434 47.3532 46.302C47.6099 46.17 47.8739 46.104 48.1452 46.104C48.2699 46.104 48.3872 46.115 48.4972 46.137C48.6146 46.159 48.7062 46.1847 48.7722 46.214L48.4752 47.446C48.3872 47.4093 48.2882 47.38 48.1782 47.358C48.0756 47.3287 47.9729 47.314 47.8702 47.314C47.6722 47.314 47.4816 47.3543 47.2982 47.435C47.1222 47.5083 46.9646 47.6147 46.8252 47.754C46.6932 47.886 46.5869 48.0437 46.5062 48.227C46.4256 48.403 46.3852 48.5973 46.3852 48.81V52H45.2412ZM51.7017 52.11C51.2911 52.11 50.9317 52.0147 50.6237 51.824C50.3231 51.6333 50.0884 51.3657 49.9197 51.021C49.7584 50.6763 49.6777 50.2657 49.6777 49.789V46.225H50.8107V49.481C50.8107 49.8183 50.8621 50.1117 50.9647 50.361C51.0747 50.603 51.2287 50.79 51.4267 50.922C51.6321 51.054 51.8777 51.12 52.1637 51.12C52.3764 51.12 52.5707 51.087 52.7467 51.021C52.9227 50.9477 53.0731 50.8487 53.1977 50.724C53.3297 50.5993 53.4324 50.449 53.5057 50.273C53.5791 50.097 53.6157 49.9063 53.6157 49.701V46.225H54.7487V52H53.6157V50.79L53.8137 50.658C53.7257 50.9293 53.5754 51.175 53.3627 51.395C53.1574 51.615 52.9117 51.791 52.6257 51.923C52.3397 52.0477 52.0317 52.11 51.7017 52.11ZM58.7469 52.11C58.2189 52.11 57.7459 51.9817 57.3279 51.725C56.9172 51.461 56.5909 51.1053 56.3489 50.658C56.1069 50.2033 55.9859 49.6863 55.9859 49.107C55.9859 48.5277 56.1032 48.0143 56.3379 47.567C56.5799 47.1123 56.9062 46.7567 57.3169 46.5C57.7276 46.236 58.1932 46.104 58.7139 46.104C58.9999 46.104 59.2749 46.1517 59.5389 46.247C59.8102 46.335 60.0522 46.4597 60.2649 46.621C60.4776 46.775 60.6426 46.9473 60.7599 47.138C60.8846 47.3213 60.9469 47.5083 60.9469 47.699L60.6169 47.721V43.86H61.7499V52H60.6169V50.625H60.8369C60.8369 50.801 60.7782 50.977 60.6609 51.153C60.5436 51.3217 60.3859 51.4793 60.1879 51.626C59.9972 51.7727 59.7736 51.89 59.5169 51.978C59.2676 52.066 59.0109 52.11 58.7469 52.11ZM58.9009 51.131C59.2456 51.131 59.5499 51.043 59.8139 50.867C60.0779 50.691 60.2832 50.4527 60.4299 50.152C60.5839 49.844 60.6609 49.4957 60.6609 49.107C60.6609 48.7183 60.5839 48.3737 60.4299 48.073C60.2832 47.765 60.0779 47.523 59.8139 47.347C59.5499 47.171 59.2456 47.083 58.9009 47.083C58.5562 47.083 58.2519 47.171 57.9879 47.347C57.7239 47.523 57.5149 47.765 57.3609 48.073C57.2142 48.3737 57.1409 48.7183 57.1409 49.107C57.1409 49.4957 57.2142 49.844 57.3609 50.152C57.5149 50.4527 57.7239 50.691 57.9879 50.867C58.2519 51.043 58.5562 51.131 58.9009 51.131ZM66.0046 52.11C65.4106 52.11 64.8826 51.9853 64.4206 51.736C63.9659 51.4793 63.6066 51.131 63.3426 50.691C63.0859 50.251 62.9576 49.745 62.9576 49.173C62.9576 48.7183 63.0309 48.304 63.1776 47.93C63.3242 47.556 63.5259 47.2333 63.7826 46.962C64.0466 46.6833 64.3582 46.4707 64.7176 46.324C65.0842 46.17 65.4802 46.093 65.9056 46.093C66.2796 46.093 66.6279 46.1663 66.9506 46.313C67.2732 46.4523 67.5519 46.6467 67.7866 46.896C68.0286 47.1453 68.2119 47.4423 68.3366 47.787C68.4686 48.1243 68.5309 48.4947 68.5236 48.898L68.5126 49.382H63.7936L63.5406 48.48H67.5336L67.3686 48.667V48.403C67.3466 48.161 67.2659 47.9447 67.1266 47.754C66.9872 47.5633 66.8112 47.413 66.5986 47.303C66.3859 47.193 66.1549 47.138 65.9056 47.138C65.5096 47.138 65.1759 47.215 64.9046 47.369C64.6332 47.5157 64.4279 47.7357 64.2886 48.029C64.1492 48.315 64.0796 48.6707 64.0796 49.096C64.0796 49.4993 64.1639 49.8513 64.3326 50.152C64.5012 50.4453 64.7396 50.6727 65.0476 50.834C65.3556 50.9953 65.7112 51.076 66.1146 51.076C66.4006 51.076 66.6646 51.0283 66.9066 50.933C67.1559 50.8377 67.4236 50.6653 67.7096 50.416L68.2816 51.219C68.1056 51.395 67.8892 51.549 67.6326 51.681C67.3832 51.813 67.1156 51.9193 66.8296 52C66.5509 52.0733 66.2759 52.11 66.0046 52.11Z" fill="black"/>
<path d="M28 25.5C34.5 27.5 40.5 27.5 47 25.5C40.5 22.5 34.5 22.5 28 25.5Z" fill="#949494"/>
<path d="M28 25.5L31 18C36 16.5 39 16.5 44 18L47 25.5C40.5 22.5 34.5 22.5 28 25.5Z" fill="#B0B0B0"/>
<path d="M31.001 17.726C31.0678 8.48065 34.5194 7.49515 36.5 7L36.9621 5.15149C36.9844 5.06246 37.0644 5 37.1562 5H37.8438C37.9356 5 38.0156 5.06246 38.0379 5.15149L38.5 7C40.4806 7.49515 43.9322 8.48065 43.999 17.726C44 17.8599 43.8693 17.9608 43.7407 17.923C38.9808 16.5257 36.0192 16.5257 31.2593 17.923C31.1307 17.9608 31 17.8599 31.001 17.726Z" fill="#D1D1D1"/>
<path d="M31 18L28.0806 25.2984C28.0372 25.407 28.0964 25.5297 28.2083 25.5635C34.559 27.4788 40.441 27.4788 46.7917 25.5635C46.9036 25.5297 46.9628 25.407 46.9194 25.2984L44 18M31 18C31 8.53695 34.4728 7.50791 36.4766 7.00586C36.4925 7.00188 36.5083 7 36.5246 7H38.4754C38.4917 7 38.5075 7.00188 38.5234 7.00586C40.5272 7.50791 44 8.53695 44 18M31 18C36 16.5 39 16.5 44 18" stroke="#484848"/>
<path d="M37.3536 26H37.5H37.6464C37.8728 26 38.0899 26.0899 38.25 26.25C38.4101 26.4101 38.5 26.6272 38.5 26.8536V28.1464C38.5 28.3728 38.4101 28.5899 38.25 28.75C38.0899 28.9101 37.8728 29 37.6464 29H37.3536C37.1272 29 36.9101 28.9101 36.75 28.75C36.5899 28.5899 36.5 28.3728 36.5 28.1464V26.8536C36.5 26.6272 36.5899 26.4101 36.75 26.25C36.9101 26.0899 37.1272 26 37.3536 26Z" fill="black"/>
<path d="M37.5 23.25V26M37.5 26H37.3536C37.1272 26 36.9101 26.0899 36.75 26.25V26.25C36.5899 26.4101 36.5 26.6272 36.5 26.8536V28.1464C36.5 28.3728 36.5899 28.5899 36.75 28.75V28.75C36.9101 28.9101 37.1272 29 37.3536 29H37.6464C37.8728 29 38.0899 28.9101 38.25 28.75V28.75C38.4101 28.5899 38.5 28.3728 38.5 28.1464V26.8536C38.5 26.6272 38.4101 26.4101 38.25 26.25V26.25C38.0899 26.0899 37.8728 26 37.6464 26H37.5Z" stroke="#010101"/>
<path d="M31 18L28.1865 25.0336C28.1194 25.2016 28.2932 25.366 28.4586 25.2929C34.6304 22.569 40.3696 22.569 46.5414 25.2929C46.7068 25.366 46.8806 25.2016 46.8135 25.0336L44 18M31 18C31 8.5 34.5 7.5 36.5 7M31 18C36 16.5 39 16.5 44 18M44 18C44 8.5 40.5 7.5 38.5 7M38.5 7H36.5M38.5 7L38.0379 5.15149C38.0156 5.06246 37.9356 5 37.8438 5H37.1562C37.0644 5 36.9844 5.06246 36.9621 5.15149L36.5 7" stroke="#484848"/>
</svg>
