<svg width="95" height="54" viewBox="0 0 95 54" fill="none" xmlns="http://www.w3.org/2000/svg">
<path d="M64.5 0.5H95V54L0.5 51.5L3.5 25.5L45.5 13.5L64.5 0.5Z" fill="#FF0000" fill-opacity="0.31"/>
<path d="M83.5657 4H78.4343C78.0349 4 77.7967 4.44507 78.0182 4.77735L79.416 6.87404C79.4708 6.95617 79.5 7.05268 79.5 7.15139V8.5V12.5C79.5 12.7761 79.2761 13 79 13H75H72.1514C72.0527 13 71.9562 12.9708 71.874 12.916L69.7773 11.5182C69.4451 11.2967 69 11.5349 69 11.9343V17.0657C69 17.4651 69.4451 17.7033 69.7774 17.4818L71.874 16.084C71.9562 16.0292 72.0527 16 72.1514 16H75H79C79.2761 16 79.5 16.2239 79.5 16.5V20V35.882C79.5 35.9596 79.4819 36.0361 79.4472 36.1056L78.3618 38.2764C78.1956 38.6088 78.4373 39 78.809 39H83.191C83.5627 39 83.8044 38.6088 83.6382 38.2764L82.5528 36.1056C82.5181 36.0361 82.5 35.9596 82.5 35.882V20V16.5C82.5 16.2239 82.7239 16 83 16H87H89.8486C89.9473 16 90.0438 16.0292 90.126 16.084L92.2227 17.4818C92.5549 17.7033 93 17.4651 93 17.0657V11.9343C93 11.5349 92.5549 11.2967 92.2227 11.5182L90.126 12.916C90.0438 12.9708 89.9473 13 89.8486 13H87H83C82.7239 13 82.5 12.7761 82.5 12.5V8.5V7.15139C82.5 7.05268 82.5292 6.95617 82.584 6.87404L83.9818 4.77735C84.2033 4.44507 83.9651 4 83.5657 4Z" fill="#4F4533"/>
<path d="M79.5 8.5V12.5C79.5 12.7761 79.2761 13 79 13H75M79.5 8.5V7.15139C79.5 7.05268 79.4708 6.95617 79.416 6.87404L78.0182 4.77735C77.7967 4.44507 78.0349 4 78.4343 4H83.5657C83.9651 4 84.2033 4.44507 83.9818 4.77735L82.584 6.87404C82.5292 6.95617 82.5 7.05268 82.5 7.15139V8.5M79.5 8.5C77 8.5 75 10.5 75 13M75 13H72.1514C72.0527 13 71.9562 12.9708 71.874 12.916L69.7773 11.5182C69.4451 11.2967 69 11.5349 69 11.9343V17.0657C69 17.4651 69.4451 17.7033 69.7774 17.4818L71.874 16.084C71.9562 16.0292 72.0527 16 72.1514 16H75M82.5 8.5V12.5C82.5 12.7761 82.7239 13 83 13H87M82.5 8.5C85 8.5 87 10.5 87 13M87 13H89.8486C89.9473 13 90.0438 12.9708 90.126 12.916L92.2227 11.5182C92.5549 11.2967 93 11.5349 93 11.9343V17.0657C93 17.4651 92.5549 17.7033 92.2226 17.4818L90.126 16.084C90.0438 16.0292 89.9473 16 89.8486 16H87M87 16H83C82.7239 16 82.5 16.2239 82.5 16.5V20M87 16C87 18.5 85 20 82.5 20M82.5 20V35.882C82.5 35.9596 82.5181 36.0361 82.5528 36.1056L83.6382 38.2764C83.8044 38.6088 83.5627 39 83.191 39H78.809C78.4373 39 78.1956 38.6088 78.3618 38.2764L79.4472 36.1056C79.4819 36.0361 79.5 35.9596 79.5 35.882V20M79.5 20V16.5C79.5 16.2239 79.2761 16 79 16H75M79.5 20C77 20 75 18.5 75 16" stroke="black"/>
<path d="M17.7585 35.11C17.1791 35.11 16.6438 35.0147 16.1525 34.824C15.6685 34.626 15.2468 34.351 14.8875 33.999C14.5281 33.6397 14.2495 33.218 14.0515 32.734C13.8608 32.2427 13.7655 31.7037 13.7655 31.117C13.7655 30.545 13.8681 30.017 14.0735 29.533C14.2788 29.049 14.5611 28.631 14.9205 28.279C15.2871 27.9197 15.7161 27.641 16.2075 27.443C16.7061 27.245 17.2488 27.146 17.8355 27.146C18.2021 27.146 18.5615 27.1937 18.9135 27.289C19.2655 27.3843 19.5918 27.5273 19.8925 27.718C20.2005 27.9013 20.4645 28.1213 20.6845 28.378L19.5405 29.687C19.3865 29.5257 19.2215 29.3863 19.0455 29.269C18.8768 29.1443 18.6898 29.049 18.4845 28.983C18.2791 28.917 18.0591 28.884 17.8245 28.884C17.5311 28.884 17.2525 28.939 16.9885 29.049C16.7318 29.1517 16.5045 29.302 16.3065 29.5C16.1158 29.6907 15.9655 29.9253 15.8555 30.204C15.7455 30.4827 15.6905 30.7943 15.6905 31.139C15.6905 31.4763 15.7455 31.7843 15.8555 32.063C15.9655 32.3343 16.1195 32.569 16.3175 32.767C16.5155 32.965 16.7538 33.1153 17.0325 33.218C17.3185 33.3207 17.6338 33.372 17.9785 33.372C18.2131 33.372 18.4368 33.339 18.6495 33.273C18.8621 33.207 19.0565 33.119 19.2325 33.009C19.4158 32.8917 19.5771 32.7597 19.7165 32.613L20.6185 34.043C20.4351 34.2483 20.1895 34.4317 19.8815 34.593C19.5808 34.7543 19.2435 34.8827 18.8695 34.978C18.5028 35.066 18.1325 35.11 17.7585 35.11ZM24.4942 35.11C23.8488 35.11 23.2878 34.9817 22.8112 34.725C22.3345 34.461 21.9642 34.1053 21.7002 33.658C21.4362 33.2033 21.3042 32.6863 21.3042 32.107C21.3042 31.6597 21.3775 31.249 21.5242 30.875C21.6708 30.501 21.8762 30.1783 22.1402 29.907C22.4042 29.6283 22.7158 29.4157 23.0752 29.269C23.4418 29.115 23.8415 29.038 24.2742 29.038C24.6848 29.038 25.0588 29.1113 25.3962 29.258C25.7408 29.4047 26.0378 29.61 26.2872 29.874C26.5365 30.138 26.7272 30.4497 26.8592 30.809C26.9912 31.1683 27.0498 31.5607 27.0352 31.986L27.0242 32.459H22.3712L22.1182 31.469H25.5942L25.4072 31.678V31.458C25.3925 31.2747 25.3338 31.1133 25.2312 30.974C25.1358 30.8273 25.0075 30.7137 24.8462 30.633C24.6848 30.5523 24.5015 30.512 24.2962 30.512C24.0102 30.512 23.7645 30.5707 23.5592 30.688C23.3612 30.798 23.2108 30.963 23.1082 31.183C23.0055 31.3957 22.9542 31.6597 22.9542 31.975C22.9542 32.2977 23.0202 32.58 23.1522 32.822C23.2915 33.0567 23.4895 33.24 23.7462 33.372C24.0102 33.504 24.3218 33.57 24.6812 33.57C24.9305 33.57 25.1505 33.5333 25.3412 33.46C25.5392 33.3867 25.7518 33.262 25.9792 33.086L26.8042 34.252C26.5768 34.45 26.3348 34.6113 26.0782 34.736C25.8215 34.8607 25.5575 34.9523 25.2862 35.011C25.0222 35.077 24.7582 35.11 24.4942 35.11ZM30.3675 35.121C29.8615 35.121 29.4105 34.9927 29.0145 34.736C28.6258 34.472 28.3178 34.1127 28.0905 33.658C27.8632 33.196 27.7495 32.6717 27.7495 32.085C27.7495 31.4983 27.8632 30.9777 28.0905 30.523C28.3178 30.061 28.6295 29.698 29.0255 29.434C29.4215 29.17 29.8762 29.038 30.3895 29.038C30.6535 29.038 30.9065 29.0783 31.1485 29.159C31.3905 29.2397 31.6105 29.3497 31.8085 29.489C32.0065 29.6283 32.1678 29.7897 32.2925 29.973C32.4172 30.149 32.4905 30.3323 32.5125 30.523L32.0945 30.622V26.86H33.8655V35H32.2265L32.1275 33.669L32.4795 33.724C32.4575 33.9073 32.3842 34.0833 32.2595 34.252C32.1422 34.4207 31.9882 34.571 31.7975 34.703C31.6068 34.8277 31.3868 34.9267 31.1375 35C30.8955 35.0807 30.6388 35.121 30.3675 35.121ZM30.8185 33.658C31.0898 33.658 31.3245 33.592 31.5225 33.46C31.7205 33.328 31.8708 33.1447 31.9735 32.91C32.0835 32.6753 32.1385 32.4003 32.1385 32.085C32.1385 31.7623 32.0835 31.4837 31.9735 31.249C31.8708 31.0143 31.7205 30.831 31.5225 30.699C31.3245 30.567 31.0898 30.501 30.8185 30.501C30.5472 30.501 30.3125 30.567 30.1145 30.699C29.9238 30.831 29.7735 31.0143 29.6635 31.249C29.5535 31.4837 29.4985 31.7623 29.4985 32.085C29.4985 32.4003 29.5535 32.6753 29.6635 32.91C29.7735 33.1447 29.9238 33.328 30.1145 33.46C30.3125 33.592 30.5472 33.658 30.8185 33.658ZM37.5098 35.099C37.0184 35.099 36.5784 34.9707 36.1898 34.714C35.8084 34.45 35.5041 34.0907 35.2768 33.636C35.0494 33.174 34.9358 32.6533 34.9358 32.074C34.9358 31.48 35.0494 30.9557 35.2768 30.501C35.5041 30.0463 35.8158 29.6907 36.2118 29.434C36.6078 29.17 37.0588 29.038 37.5648 29.038C37.8434 29.038 38.0964 29.0783 38.3238 29.159C38.5584 29.2397 38.7638 29.3533 38.9398 29.5C39.1158 29.6393 39.2661 29.8043 39.3908 29.995C39.5154 30.1783 39.6071 30.3763 39.6658 30.589L39.3028 30.545V29.159H41.0518V35H39.2698V33.592L39.6658 33.581C39.6071 33.7863 39.5118 33.9807 39.3798 34.164C39.2478 34.3473 39.0864 34.5087 38.8958 34.648C38.7051 34.7873 38.4924 34.8973 38.2578 34.978C38.0231 35.0587 37.7738 35.099 37.5098 35.099ZM37.9938 33.614C38.2651 33.614 38.4998 33.5517 38.6978 33.427C38.8958 33.3023 39.0498 33.1263 39.1598 32.899C39.2698 32.6643 39.3248 32.3893 39.3248 32.074C39.3248 31.7587 39.2698 31.4873 39.1598 31.26C39.0498 31.0253 38.8958 30.8457 38.6978 30.721C38.4998 30.589 38.2651 30.523 37.9938 30.523C37.7298 30.523 37.4988 30.589 37.3008 30.721C37.1101 30.8457 36.9598 31.0253 36.8498 31.26C36.7398 31.4873 36.6848 31.7587 36.6848 32.074C36.6848 32.3893 36.7398 32.6643 36.8498 32.899C36.9598 33.1263 37.1101 33.3023 37.3008 33.427C37.4988 33.5517 37.7298 33.614 37.9938 33.614ZM42.6047 35V29.159H44.2767L44.3537 31.062L44.0237 30.699C44.1117 30.3837 44.2547 30.1013 44.4527 29.852C44.6581 29.6027 44.8964 29.4047 45.1677 29.258C45.4391 29.1113 45.7287 29.038 46.0367 29.038C46.1687 29.038 46.2897 29.049 46.3997 29.071C46.5171 29.093 46.6234 29.1187 46.7187 29.148L46.2347 31.095C46.1541 31.0437 46.0441 31.0033 45.9047 30.974C45.7727 30.9373 45.6334 30.919 45.4867 30.919C45.3254 30.919 45.1751 30.9483 45.0357 31.007C44.8964 31.0583 44.7791 31.1353 44.6837 31.238C44.5884 31.3407 44.5114 31.4617 44.4527 31.601C44.4014 31.7403 44.3757 31.898 44.3757 32.074V35H42.6047ZM54.819 35.11C54.2397 35.11 53.7044 35.0147 53.213 34.824C52.729 34.626 52.3074 34.351 51.948 33.999C51.5887 33.6397 51.31 33.218 51.112 32.734C50.9214 32.2427 50.826 31.7037 50.826 31.117C50.826 30.545 50.9287 30.017 51.134 29.533C51.3394 29.049 51.6217 28.631 51.981 28.279C52.3477 27.9197 52.7767 27.641 53.268 27.443C53.7667 27.245 54.3094 27.146 54.896 27.146C55.2627 27.146 55.622 27.1937 55.974 27.289C56.326 27.3843 56.6524 27.5273 56.953 27.718C57.261 27.9013 57.525 28.1213 57.745 28.378L56.601 29.687C56.447 29.5257 56.282 29.3863 56.106 29.269C55.9374 29.1443 55.7504 29.049 55.545 28.983C55.3397 28.917 55.1197 28.884 54.885 28.884C54.5917 28.884 54.313 28.939 54.049 29.049C53.7924 29.1517 53.565 29.302 53.367 29.5C53.1764 29.6907 53.026 29.9253 52.916 30.204C52.806 30.4827 52.751 30.7943 52.751 31.139C52.751 31.4763 52.806 31.7843 52.916 32.063C53.026 32.3343 53.18 32.569 53.378 32.767C53.576 32.965 53.8144 33.1153 54.093 33.218C54.379 33.3207 54.6944 33.372 55.039 33.372C55.2737 33.372 55.4974 33.339 55.71 33.273C55.9227 33.207 56.117 33.119 56.293 33.009C56.4764 32.8917 56.6377 32.7597 56.777 32.613L57.679 34.043C57.4957 34.2483 57.25 34.4317 56.942 34.593C56.6414 34.7543 56.304 34.8827 55.93 34.978C55.5634 35.066 55.193 35.11 54.819 35.11ZM58.8707 35V29.159H60.6307V35H58.8707ZM59.7507 28.004C59.4207 28.004 59.1604 27.927 58.9697 27.773C58.7864 27.6117 58.6947 27.3843 58.6947 27.091C58.6947 26.827 58.7901 26.6107 58.9807 26.442C59.1714 26.2733 59.4281 26.189 59.7507 26.189C60.0807 26.189 60.3374 26.2697 60.5207 26.431C60.7041 26.585 60.7957 26.805 60.7957 27.091C60.7957 27.3623 60.7004 27.5823 60.5097 27.751C60.3264 27.9197 60.0734 28.004 59.7507 28.004ZM62.7684 35V27.685H64.5284V35H62.7684ZM61.7344 30.699V29.159H65.6614V30.699H61.7344ZM67.4042 37.53L68.7352 34.395L68.7572 35.297L65.9412 29.159H67.9322L69.1642 32.096C69.2302 32.2427 69.2926 32.4003 69.3512 32.569C69.4099 32.7377 69.4539 32.899 69.4832 33.053L69.2412 33.196C69.2852 33.086 69.3329 32.9503 69.3842 32.789C69.4429 32.6203 69.5052 32.4407 69.5712 32.25L70.6492 29.159H72.6512L70.1652 35L69.1532 37.53H67.4042ZM7.61704 49.11C7.08171 49.11 6.59037 49.0147 6.14304 48.824C5.69571 48.6333 5.30704 48.362 4.97704 48.01C4.64704 47.6507 4.39037 47.229 4.20704 46.745C4.03104 46.261 3.94304 45.7293 3.94304 45.15C3.94304 44.6 4.03837 44.0903 4.22904 43.621C4.42704 43.1443 4.69837 42.7263 5.04304 42.367C5.38771 42.0077 5.78737 41.729 6.24204 41.531C6.69671 41.333 7.18804 41.234 7.71604 41.234C8.09004 41.234 8.45304 41.2927 8.80504 41.41C9.16437 41.52 9.48704 41.6777 9.77304 41.883C10.0664 42.081 10.3047 42.3083 10.488 42.565L9.69604 43.39C9.48337 43.1773 9.26704 43.0013 9.04704 42.862C8.83437 42.7153 8.61437 42.6053 8.38704 42.532C8.16704 42.4587 7.94337 42.422 7.71604 42.422C7.35671 42.422 7.01937 42.4917 6.70404 42.631C6.39604 42.763 6.12471 42.95 5.89004 43.192C5.66271 43.434 5.48304 43.7237 5.35104 44.061C5.21904 44.391 5.15304 44.754 5.15304 45.15C5.15304 45.568 5.21537 45.9493 5.34004 46.294C5.47204 46.6313 5.65537 46.921 5.89004 47.163C6.12471 47.405 6.40337 47.592 6.72604 47.724C7.05604 47.8487 7.41904 47.911 7.81504 47.911C8.05704 47.911 8.29537 47.878 8.53004 47.812C8.76471 47.746 8.98471 47.6507 9.19004 47.526C9.39537 47.4013 9.58237 47.2547 9.75104 47.086L10.345 48.054C10.1764 48.252 9.94537 48.4317 9.65204 48.593C9.36604 48.7543 9.04337 48.8827 8.68404 48.978C8.33204 49.066 7.97637 49.11 7.61704 49.11ZM11.6729 49V40.86H12.8059V44.413L12.6079 44.545C12.6812 44.2883 12.8242 44.0537 13.0369 43.841C13.2495 43.621 13.5025 43.445 13.7959 43.313C14.0892 43.1737 14.3899 43.104 14.6979 43.104C15.1379 43.104 15.5045 43.192 15.7979 43.368C16.0912 43.5367 16.3112 43.797 16.4579 44.149C16.6045 44.501 16.6779 44.9447 16.6779 45.48V49H15.5449V45.557C15.5449 45.227 15.5009 44.9557 15.4129 44.743C15.3249 44.523 15.1892 44.3653 15.0059 44.27C14.8225 44.1673 14.5952 44.1233 14.3239 44.138C14.1039 44.138 13.9022 44.1747 13.7189 44.248C13.5355 44.314 13.3742 44.4093 13.2349 44.534C13.1029 44.6587 12.9965 44.8053 12.9159 44.974C12.8425 45.1353 12.8059 45.3113 12.8059 45.502V49H12.2449C12.1495 49 12.0542 49 11.9589 49C11.8635 49 11.7682 49 11.6729 49ZM18.2149 49V43.225H19.3589V45.04L19.2489 44.6C19.3295 44.3213 19.4652 44.0683 19.6559 43.841C19.8539 43.6137 20.0775 43.434 20.3269 43.302C20.5835 43.17 20.8475 43.104 21.1189 43.104C21.2435 43.104 21.3609 43.115 21.4709 43.137C21.5882 43.159 21.6799 43.1847 21.7459 43.214L21.4489 44.446C21.3609 44.4093 21.2619 44.38 21.1519 44.358C21.0492 44.3287 20.9465 44.314 20.8439 44.314C20.6459 44.314 20.4552 44.3543 20.2719 44.435C20.0959 44.5083 19.9382 44.6147 19.7989 44.754C19.6669 44.886 19.5605 45.0437 19.4799 45.227C19.3992 45.403 19.3589 45.5973 19.3589 45.81V49H18.2149ZM22.8384 49V43.225H23.9714V49H22.8384ZM23.3884 41.949C23.1464 41.949 22.9594 41.8867 22.8274 41.762C22.6954 41.6373 22.6294 41.4613 22.6294 41.234C22.6294 41.0213 22.6954 40.849 22.8274 40.717C22.9667 40.585 23.1537 40.519 23.3884 40.519C23.6304 40.519 23.8174 40.5813 23.9494 40.706C24.0814 40.8307 24.1474 41.0067 24.1474 41.234C24.1474 41.4467 24.0777 41.619 23.9384 41.751C23.8064 41.883 23.623 41.949 23.3884 41.949ZM27.6379 49.11C27.1539 49.11 26.7176 49.0257 26.3289 48.857C25.9402 48.6883 25.6176 48.439 25.3609 48.109L26.1309 47.449C26.3509 47.7057 26.5892 47.8927 26.8459 48.01C27.1099 48.12 27.4069 48.175 27.7369 48.175C27.8689 48.175 27.9899 48.1603 28.0999 48.131C28.2172 48.0943 28.3162 48.043 28.3969 47.977C28.4849 47.911 28.5509 47.834 28.5949 47.746C28.6389 47.6507 28.6609 47.548 28.6609 47.438C28.6609 47.2473 28.5912 47.0933 28.4519 46.976C28.3786 46.9247 28.2612 46.8697 28.0999 46.811C27.9459 46.745 27.7442 46.679 27.4949 46.613C27.0696 46.503 26.7212 46.3783 26.4499 46.239C26.1786 46.0997 25.9696 45.942 25.8229 45.766C25.7129 45.6267 25.6322 45.4763 25.5809 45.315C25.5296 45.1463 25.5039 44.963 25.5039 44.765C25.5039 44.523 25.5552 44.303 25.6579 44.105C25.7679 43.8997 25.9146 43.7237 26.0979 43.577C26.2886 43.423 26.5086 43.3057 26.7579 43.225C27.0146 43.1443 27.2859 43.104 27.5719 43.104C27.8432 43.104 28.1109 43.1407 28.3749 43.214C28.6462 43.2873 28.8956 43.3937 29.1229 43.533C29.3502 43.6723 29.5409 43.8373 29.6949 44.028L29.0459 44.743C28.9066 44.6037 28.7526 44.4827 28.5839 44.38C28.4226 44.27 28.2576 44.1857 28.0889 44.127C27.9202 44.0683 27.7662 44.039 27.6269 44.039C27.4729 44.039 27.3336 44.0537 27.2089 44.083C27.0842 44.1123 26.9779 44.1563 26.8899 44.215C26.8092 44.2737 26.7469 44.347 26.7029 44.435C26.6589 44.523 26.6369 44.622 26.6369 44.732C26.6442 44.8273 26.6662 44.919 26.7029 45.007C26.7469 45.0877 26.8056 45.1573 26.8789 45.216C26.9596 45.2747 27.0806 45.337 27.2419 45.403C27.4032 45.469 27.6086 45.5313 27.8579 45.59C28.2246 45.6853 28.5252 45.7917 28.7599 45.909C29.0019 46.019 29.1926 46.1473 29.3319 46.294C29.4786 46.4333 29.5812 46.5947 29.6399 46.778C29.6986 46.9613 29.7279 47.1667 29.7279 47.394C29.7279 47.724 29.6326 48.021 29.4419 48.285C29.2586 48.5417 29.0092 48.7433 28.6939 48.89C28.3786 49.0367 28.0266 49.11 27.6379 49.11ZM31.6916 49V41.751H32.8246V49H31.6916ZM30.4926 44.325V43.225H34.1666V44.325H30.4926ZM38.9963 49V41.751H40.1293V49H38.9963ZM37.7973 44.325V43.225H41.4713V44.325H37.7973ZM42.5029 49V40.86H43.6359V44.413L43.4379 44.545C43.5113 44.2883 43.6543 44.0537 43.8669 43.841C44.0796 43.621 44.3326 43.445 44.6259 43.313C44.9193 43.1737 45.2199 43.104 45.5279 43.104C45.9679 43.104 46.3346 43.192 46.6279 43.368C46.9213 43.5367 47.1413 43.797 47.2879 44.149C47.4346 44.501 47.5079 44.9447 47.5079 45.48V49H46.3749V45.557C46.3749 45.227 46.3309 44.9557 46.2429 44.743C46.1549 44.523 46.0193 44.3653 45.8359 44.27C45.6526 44.1673 45.4253 44.1233 45.1539 44.138C44.9339 44.138 44.7323 44.1747 44.5489 44.248C44.3656 44.314 44.2043 44.4093 44.0649 44.534C43.9329 44.6587 43.8266 44.8053 43.7459 44.974C43.6726 45.1353 43.6359 45.3113 43.6359 45.502V49H43.0749C42.9796 49 42.8843 49 42.7889 49C42.6936 49 42.5983 49 42.5029 49ZM51.7399 49.11C51.1459 49.11 50.6179 48.9853 50.1559 48.736C49.7013 48.4793 49.3419 48.131 49.0779 47.691C48.8213 47.251 48.6929 46.745 48.6929 46.173C48.6929 45.7183 48.7663 45.304 48.9129 44.93C49.0596 44.556 49.2613 44.2333 49.5179 43.962C49.7819 43.6833 50.0936 43.4707 50.4529 43.324C50.8196 43.17 51.2156 43.093 51.6409 43.093C52.0149 43.093 52.3633 43.1663 52.6859 43.313C53.0086 43.4523 53.2873 43.6467 53.5219 43.896C53.7639 44.1453 53.9473 44.4423 54.0719 44.787C54.2039 45.1243 54.2663 45.4947 54.2589 45.898L54.2479 46.382H49.5289L49.2759 45.48H53.2689L53.1039 45.667V45.403C53.0819 45.161 53.0013 44.9447 52.8619 44.754C52.7226 44.5633 52.5466 44.413 52.3339 44.303C52.1213 44.193 51.8903 44.138 51.6409 44.138C51.2449 44.138 50.9113 44.215 50.6399 44.369C50.3686 44.5157 50.1633 44.7357 50.0239 45.029C49.8846 45.315 49.8149 45.6707 49.8149 46.096C49.8149 46.4993 49.8993 46.8513 50.0679 47.152C50.2366 47.4453 50.4749 47.6727 50.7829 47.834C51.0909 47.9953 51.4466 48.076 51.8499 48.076C52.1359 48.076 52.3999 48.0283 52.6419 47.933C52.8913 47.8377 53.1589 47.6653 53.4449 47.416L54.0169 48.219C53.8409 48.395 53.6246 48.549 53.3679 48.681C53.1186 48.813 52.8509 48.9193 52.5649 49C52.2863 49.0733 52.0113 49.11 51.7399 49.11ZM59.8493 46.668L59.7833 45.337L63.8203 41.3H65.3823L59.8493 46.668ZM58.8593 49V41.3H60.0473V49H58.8593ZM63.9633 49L61.0152 45.062L61.8953 44.303L65.4483 49H63.9633ZM66.8169 49V43.225H67.9499V49H66.8169ZM67.3669 41.949C67.1249 41.949 66.9379 41.8867 66.8059 41.762C66.6739 41.6373 66.6079 41.4613 66.6079 41.234C66.6079 41.0213 66.6739 40.849 66.8059 40.717C66.9452 40.585 67.1322 40.519 67.3669 40.519C67.6089 40.519 67.7959 40.5813 67.9279 40.706C68.0599 40.8307 68.1259 41.0067 68.1259 41.234C68.1259 41.4467 68.0562 41.619 67.9169 41.751C67.7849 41.883 67.6016 41.949 67.3669 41.949ZM69.6914 49V43.225H70.8244V44.413L70.6264 44.545C70.6997 44.2883 70.8427 44.0537 71.0554 43.841C71.2681 43.621 71.5211 43.445 71.8144 43.313C72.1077 43.1737 72.4084 43.104 72.7164 43.104C73.1564 43.104 73.5231 43.192 73.8164 43.368C74.1097 43.5367 74.3297 43.797 74.4764 44.149C74.6231 44.501 74.6964 44.9447 74.6964 45.48V49H73.5634V45.557C73.5634 45.227 73.5194 44.9557 73.4314 44.743C73.3434 44.523 73.2077 44.3653 73.0244 44.27C72.8411 44.1673 72.6137 44.1233 72.3424 44.138C72.1224 44.138 71.9207 44.1747 71.7374 44.248C71.5541 44.314 71.3927 44.4093 71.2534 44.534C71.1214 44.6587 71.0151 44.8053 70.9344 44.974C70.8611 45.1353 70.8244 45.3113 70.8244 45.502V49H70.2634C70.1681 49 70.0727 49 69.9774 49C69.8821 49 69.7867 49 69.6914 49ZM78.8184 51.53C78.4077 51.53 77.9971 51.464 77.5864 51.332C77.1831 51.2073 76.8567 51.0423 76.6074 50.837L77.0254 49.957C77.1721 50.067 77.3444 50.1623 77.5424 50.243C77.7404 50.331 77.9494 50.397 78.1694 50.441C78.3894 50.4923 78.6057 50.518 78.8184 50.518C79.2217 50.518 79.5591 50.452 79.8304 50.32C80.1017 50.188 80.3071 49.9937 80.4464 49.737C80.5857 49.4803 80.6554 49.1613 80.6554 48.78V47.669L80.7764 47.746C80.7397 47.9733 80.6187 48.1933 80.4134 48.406C80.2154 48.6113 79.9661 48.78 79.6654 48.912C79.3647 49.044 79.0567 49.11 78.7414 49.11C78.1914 49.11 77.7001 48.9817 77.2674 48.725C76.8421 48.461 76.5047 48.1053 76.2554 47.658C76.0061 47.2033 75.8814 46.6863 75.8814 46.107C75.8814 45.5277 76.0024 45.0143 76.2444 44.567C76.4937 44.1123 76.8311 43.7567 77.2564 43.5C77.6891 43.236 78.1731 43.104 78.7084 43.104C78.9284 43.104 79.1411 43.1333 79.3464 43.192C79.5517 43.2433 79.7424 43.3203 79.9184 43.423C80.0944 43.5183 80.2521 43.6247 80.3914 43.742C80.5307 43.8593 80.6444 43.984 80.7324 44.116C80.8204 44.248 80.8754 44.3727 80.8974 44.49L80.6554 44.578V43.225H81.7884V48.648C81.7884 49.11 81.7187 49.517 81.5794 49.869C81.4474 50.2283 81.2531 50.529 80.9964 50.771C80.7397 51.0203 80.4281 51.2073 80.0614 51.332C79.6947 51.464 79.2804 51.53 78.8184 51.53ZM78.8624 48.065C79.2217 48.065 79.5407 47.9807 79.8194 47.812C80.0981 47.6433 80.3144 47.4123 80.4684 47.119C80.6224 46.8257 80.6994 46.4883 80.6994 46.107C80.6994 45.7257 80.6187 45.3883 80.4574 45.095C80.3034 44.7943 80.0871 44.5597 79.8084 44.391C79.5371 44.2223 79.2217 44.138 78.8624 44.138C78.5104 44.138 78.1951 44.226 77.9164 44.402C77.6451 44.5707 77.4287 44.8053 77.2674 45.106C77.1134 45.3993 77.0364 45.733 77.0364 46.107C77.0364 46.481 77.1134 46.8183 77.2674 47.119C77.4287 47.4123 77.6451 47.6433 77.9164 47.812C78.1951 47.9807 78.5104 48.065 78.8624 48.065Z" fill="black"/>
</svg>
