<svg width="96" height="40" viewBox="0 0 96 40" fill="none" xmlns="http://www.w3.org/2000/svg">
<path d="M0.5 0H34L93 11V33L25 40H8.5L2 25.5L0.5 0Z" fill="#FF0000" fill-opacity="0.31"/>
<path d="M18.5657 3H13.4343C13.0349 3 12.7967 3.44507 13.0182 3.77735L14.416 5.87404C14.4708 5.95617 14.5 6.05268 14.5 6.15139V7.5V11.5C14.5 11.7761 14.2761 12 14 12H10H7.15139C7.05268 12 6.95617 11.9708 6.87404 11.916L4.77735 10.5182C4.44507 10.2967 4 10.5349 4 10.9343V16.0657C4 16.4651 4.44507 16.7033 4.77735 16.4818L6.87404 15.084C6.95617 15.0292 7.05268 15 7.15139 15H10H14C14.2761 15 14.5 15.2239 14.5 15.5V19V34.882C14.5 34.9596 14.4819 35.0361 14.4472 35.1056L13.3618 37.2764C13.1956 37.6088 13.4373 38 13.809 38H18.191C18.5627 38 18.8044 37.6088 18.6382 37.2764L17.5528 35.1056C17.5181 35.0361 17.5 34.9596 17.5 34.882V19V15.5C17.5 15.2239 17.7239 15 18 15H22H24.8486C24.9473 15 25.0438 15.0292 25.126 15.084L27.2227 16.4818C27.5549 16.7033 28 16.4651 28 16.0657V10.9343C28 10.5349 27.5549 10.2967 27.2227 10.5182L25.126 11.916C25.0438 11.9708 24.9473 12 24.8486 12H22H18C17.7239 12 17.5 11.7761 17.5 11.5V7.5V6.15139C17.5 6.05268 17.5292 5.95617 17.584 5.87404L18.9818 3.77735C19.2033 3.44507 18.9651 3 18.5657 3Z" fill="#4F4533"/>
<path d="M14.5 7.5V11.5C14.5 11.7761 14.2761 12 14 12H10M14.5 7.5V6.15139C14.5 6.05268 14.4708 5.95617 14.416 5.87404L13.0182 3.77735C12.7967 3.44507 13.0349 3 13.4343 3H18.5657C18.9651 3 19.2033 3.44507 18.9818 3.77735L17.584 5.87404C17.5292 5.95617 17.5 6.05268 17.5 6.15139V7.5M14.5 7.5C12 7.5 10 9.5 10 12M10 12H7.15139C7.05268 12 6.95617 11.9708 6.87404 11.916L4.77735 10.5182C4.44507 10.2967 4 10.5349 4 10.9343V16.0657C4 16.4651 4.44507 16.7033 4.77735 16.4818L6.87404 15.084C6.95617 15.0292 7.05268 15 7.15139 15H10M17.5 7.5V11.5C17.5 11.7761 17.7239 12 18 12H22M17.5 7.5C20 7.5 22 9.5 22 12M22 12H24.8486C24.9473 12 25.0438 11.9708 25.126 11.916L27.2227 10.5182C27.5549 10.2967 28 10.5349 28 10.9343V16.0657C28 16.4651 27.5549 16.7033 27.2226 16.4818L25.126 15.084C25.0438 15.0292 24.9473 15 24.8486 15H22M22 15H18C17.7239 15 17.5 15.2239 17.5 15.5V19M22 15C22 17.5 20 19 17.5 19M17.5 19V34.882C17.5 34.9596 17.5181 35.0361 17.5528 35.1056L18.6382 37.2764C18.8044 37.6088 18.5627 38 18.191 38H13.809C13.4373 38 13.1956 37.6088 13.3618 37.2764L14.4472 35.1056C14.4819 35.0361 14.5 34.9596 14.5 34.882V19M14.5 19V15.5C14.5 15.2239 14.2761 15 14 15H10M14.5 19C12 19 10 17.5 10 15" stroke="black"/>
<path d="M44.2117 16V8.3H46.0817V16H44.2117ZM39.4377 16V8.3H41.3077V16H39.4377ZM40.1637 12.997L40.1747 11.325H45.2017V12.997H40.1637ZM50.606 16.11C49.9607 16.11 49.3997 15.9817 48.923 15.725C48.4463 15.461 48.076 15.1053 47.812 14.658C47.548 14.2033 47.416 13.6863 47.416 13.107C47.416 12.6597 47.4893 12.249 47.636 11.875C47.7827 11.501 47.988 11.1783 48.252 10.907C48.516 10.6283 48.8277 10.4157 49.187 10.269C49.5537 10.115 49.9533 10.038 50.386 10.038C50.7967 10.038 51.1707 10.1113 51.508 10.258C51.8527 10.4047 52.1497 10.61 52.399 10.874C52.6483 11.138 52.839 11.4497 52.971 11.809C53.103 12.1683 53.1617 12.5607 53.147 12.986L53.136 13.459H48.483L48.23 12.469H51.706L51.519 12.678V12.458C51.5043 12.2747 51.4457 12.1133 51.343 11.974C51.2477 11.8273 51.1193 11.7137 50.958 11.633C50.7967 11.5523 50.6133 11.512 50.408 11.512C50.122 11.512 49.8763 11.5707 49.671 11.688C49.473 11.798 49.3227 11.963 49.22 12.183C49.1173 12.3957 49.066 12.6597 49.066 12.975C49.066 13.2977 49.132 13.58 49.264 13.822C49.4033 14.0567 49.6013 14.24 49.858 14.372C50.122 14.504 50.4337 14.57 50.793 14.57C51.0423 14.57 51.2623 14.5333 51.453 14.46C51.651 14.3867 51.8637 14.262 52.091 14.086L52.916 15.252C52.6887 15.45 52.4467 15.6113 52.19 15.736C51.9333 15.8607 51.6693 15.9523 51.398 16.011C51.134 16.077 50.87 16.11 50.606 16.11ZM54.2793 16V7.86H56.0393V16H54.2793ZM57.6091 18.42V10.159H59.2811L59.3471 11.468L59.0171 11.369C59.0685 11.127 59.1931 10.907 59.3911 10.709C59.5891 10.511 59.8385 10.3533 60.1391 10.236C60.4471 10.1113 60.7698 10.049 61.1071 10.049C61.6058 10.049 62.0495 10.181 62.4381 10.445C62.8268 10.7017 63.1311 11.0573 63.3511 11.512C63.5785 11.9593 63.6921 12.48 63.6921 13.074C63.6921 13.6607 63.5785 14.1813 63.3511 14.636C63.1311 15.0907 62.8231 15.45 62.4271 15.714C62.0385 15.9707 61.5911 16.099 61.0851 16.099C60.7551 16.099 60.4398 16.0367 60.1391 15.912C59.8385 15.7873 59.5855 15.6187 59.3801 15.406C59.1748 15.1933 59.0391 14.9623 58.9731 14.713L59.3801 14.559V18.42H57.6091ZM60.6561 14.614C60.9201 14.614 61.1511 14.5517 61.3491 14.427C61.5471 14.295 61.7011 14.1153 61.8111 13.888C61.9211 13.6607 61.9761 13.3893 61.9761 13.074C61.9761 12.766 61.9211 12.4983 61.8111 12.271C61.7011 12.0363 61.5471 11.8567 61.3491 11.732C61.1585 11.6 60.9275 11.534 60.6561 11.534C60.3848 11.534 60.1501 11.5963 59.9521 11.721C59.7541 11.8457 59.6001 12.0253 59.4901 12.26C59.3801 12.4947 59.3251 12.766 59.3251 13.074C59.3251 13.3893 59.3801 13.6607 59.4901 13.888C59.6001 14.1153 59.7541 14.295 59.9521 14.427C60.1501 14.5517 60.3848 14.614 60.6561 14.614ZM67.6431 16.11C66.9978 16.11 66.4368 15.9817 65.9601 15.725C65.4834 15.461 65.1131 15.1053 64.8491 14.658C64.5851 14.2033 64.4531 13.6863 64.4531 13.107C64.4531 12.6597 64.5264 12.249 64.6731 11.875C64.8198 11.501 65.0251 11.1783 65.2891 10.907C65.5531 10.6283 65.8648 10.4157 66.2241 10.269C66.5908 10.115 66.9904 10.038 67.4231 10.038C67.8338 10.038 68.2078 10.1113 68.5451 10.258C68.8898 10.4047 69.1868 10.61 69.4361 10.874C69.6854 11.138 69.8761 11.4497 70.0081 11.809C70.1401 12.1683 70.1988 12.5607 70.1841 12.986L70.1731 13.459H65.5201L65.2671 12.469H68.7431L68.5561 12.678V12.458C68.5414 12.2747 68.4828 12.1133 68.3801 11.974C68.2848 11.8273 68.1564 11.7137 67.9951 11.633C67.8338 11.5523 67.6504 11.512 67.4451 11.512C67.1591 11.512 66.9134 11.5707 66.7081 11.688C66.5101 11.798 66.3598 11.963 66.2571 12.183C66.1544 12.3957 66.1031 12.6597 66.1031 12.975C66.1031 13.2977 66.1691 13.58 66.3011 13.822C66.4404 14.0567 66.6384 14.24 66.8951 14.372C67.1591 14.504 67.4708 14.57 67.8301 14.57C68.0794 14.57 68.2994 14.5333 68.4901 14.46C68.6881 14.3867 68.9008 14.262 69.1281 14.086L69.9531 15.252C69.7258 15.45 69.4838 15.6113 69.2271 15.736C68.9704 15.8607 68.7064 15.9523 68.4351 16.011C68.1711 16.077 67.9071 16.11 67.6431 16.11ZM71.3054 16V10.159H72.9774L73.0544 12.062L72.7244 11.699C72.8124 11.3837 72.9554 11.1013 73.1534 10.852C73.3587 10.6027 73.5971 10.4047 73.8684 10.258C74.1397 10.1113 74.4294 10.038 74.7374 10.038C74.8694 10.038 74.9904 10.049 75.1004 10.071C75.2177 10.093 75.3241 10.1187 75.4194 10.148L74.9354 12.095C74.8547 12.0437 74.7447 12.0033 74.6054 11.974C74.4734 11.9373 74.3341 11.919 74.1874 11.919C74.0261 11.919 73.8757 11.9483 73.7364 12.007C73.5971 12.0583 73.4797 12.1353 73.3844 12.238C73.2891 12.3407 73.2121 12.4617 73.1534 12.601C73.1021 12.7403 73.0764 12.898 73.0764 13.074V16H71.3054ZM25.8319 30.11C25.4139 30.11 25.0253 30.055 24.6659 29.945C24.3139 29.835 23.9913 29.67 23.6979 29.45C23.4119 29.2227 23.1553 28.944 22.9279 28.614L23.7419 27.679C24.1013 28.1923 24.4459 28.548 24.7759 28.746C25.1059 28.944 25.4983 29.043 25.9529 29.043C26.2316 29.043 26.4846 28.999 26.7119 28.911C26.9393 28.823 27.1189 28.702 27.2509 28.548C27.3829 28.394 27.4489 28.218 27.4489 28.02C27.4489 27.888 27.4269 27.7633 27.3829 27.646C27.3389 27.5287 27.2693 27.4223 27.1739 27.327C27.0859 27.2317 26.9686 27.1437 26.8219 27.063C26.6826 26.9823 26.5176 26.9127 26.3269 26.854C26.1363 26.788 25.9163 26.733 25.6669 26.689C25.2709 26.6083 24.9263 26.502 24.6329 26.37C24.3396 26.238 24.0939 26.073 23.8959 25.875C23.6979 25.677 23.5513 25.4533 23.4559 25.204C23.3606 24.9473 23.3129 24.6613 23.3129 24.346C23.3129 24.038 23.3789 23.752 23.5109 23.488C23.6503 23.224 23.8373 22.9967 24.0719 22.806C24.3139 22.608 24.5963 22.4577 24.9189 22.355C25.2416 22.245 25.5899 22.19 25.9639 22.19C26.3599 22.19 26.7229 22.2413 27.0529 22.344C27.3829 22.4467 27.6763 22.6007 27.9329 22.806C28.1896 23.004 28.4023 23.2497 28.5709 23.543L27.7349 24.368C27.5883 24.126 27.4233 23.9243 27.2399 23.763C27.0566 23.5943 26.8549 23.4697 26.6349 23.389C26.4149 23.301 26.1803 23.257 25.9309 23.257C25.6449 23.257 25.3956 23.301 25.1829 23.389C24.9703 23.477 24.8016 23.6017 24.6769 23.763C24.5596 23.917 24.5009 24.1003 24.5009 24.313C24.5009 24.467 24.5303 24.61 24.5889 24.742C24.6476 24.8667 24.7356 24.9803 24.8529 25.083C24.9776 25.1783 25.1426 25.2663 25.3479 25.347C25.5533 25.4203 25.7989 25.4863 26.0849 25.545C26.4883 25.633 26.8476 25.7467 27.1629 25.886C27.4783 26.018 27.7459 26.1757 27.9659 26.359C28.1859 26.5423 28.3509 26.7477 28.4609 26.975C28.5783 27.2023 28.6369 27.448 28.6369 27.712C28.6369 28.2033 28.5233 28.6287 28.2959 28.988C28.0686 29.3473 27.7459 29.626 27.3279 29.824C26.9099 30.0147 26.4113 30.11 25.8319 30.11ZM30.7492 30V22.751H31.8822V30H30.7492ZM29.5502 25.325V24.225H33.2242V25.325H29.5502ZM34.7179 30.121C34.4759 30.121 34.2889 30.0513 34.1569 29.912C34.0249 29.7653 33.9589 29.56 33.9589 29.296C33.9589 29.054 34.0285 28.856 34.1679 28.702C34.3072 28.548 34.4905 28.471 34.7179 28.471C34.9599 28.471 35.1469 28.5443 35.2789 28.691C35.4109 28.8303 35.4769 29.032 35.4769 29.296C35.4769 29.538 35.4072 29.736 35.2679 29.89C35.1285 30.044 34.9452 30.121 34.7179 30.121ZM39.3248 30L42.3058 22.3H43.5158L46.4748 30H45.2098L43.4498 25.358C43.4278 25.3067 43.3838 25.182 43.3178 24.984C43.2591 24.786 43.1895 24.566 43.1088 24.324C43.0281 24.082 42.9548 23.862 42.8888 23.664C42.8228 23.4587 42.7788 23.3267 42.7568 23.268L43.0098 23.257C42.9658 23.3817 42.9108 23.5393 42.8448 23.73C42.7861 23.9207 42.7201 24.1223 42.6468 24.335C42.5808 24.5477 42.5148 24.7493 42.4488 24.94C42.3828 25.1233 42.3278 25.2773 42.2838 25.402L40.5348 30H39.3248ZM40.6448 28.086L41.0848 26.942H44.5828L45.0888 28.086H40.6448ZM47.544 30V24.225H48.677V25.413L48.479 25.545C48.5523 25.2883 48.6953 25.0537 48.908 24.841C49.1206 24.621 49.3736 24.445 49.667 24.313C49.9603 24.1737 50.261 24.104 50.569 24.104C51.009 24.104 51.3756 24.192 51.669 24.368C51.9623 24.5367 52.1823 24.797 52.329 25.149C52.4756 25.501 52.549 25.9447 52.549 26.48V30H51.416V26.557C51.416 26.227 51.372 25.9557 51.284 25.743C51.196 25.523 51.0603 25.3653 50.877 25.27C50.6936 25.1673 50.4663 25.1233 50.195 25.138C49.975 25.138 49.7733 25.1747 49.59 25.248C49.4066 25.314 49.2453 25.4093 49.106 25.534C48.974 25.6587 48.8676 25.8053 48.787 25.974C48.7136 26.1353 48.677 26.3113 48.677 26.502V30H48.116C48.0206 30 47.9253 30 47.83 30C47.7346 30 47.6393 30 47.544 30ZM54.8009 30V22.751H55.9339V30H54.8009ZM53.6019 25.325V24.225H57.2759V25.325H53.6019ZM58.3076 30V21.86H59.4406V25.413L59.2426 25.545C59.316 25.2883 59.459 25.0537 59.6716 24.841C59.8843 24.621 60.1373 24.445 60.4306 24.313C60.724 24.1737 61.0246 24.104 61.3326 24.104C61.7726 24.104 62.1393 24.192 62.4326 24.368C62.726 24.5367 62.946 24.797 63.0926 25.149C63.2393 25.501 63.3126 25.9447 63.3126 26.48V30H62.1796V26.557C62.1796 26.227 62.1356 25.9557 62.0476 25.743C61.9596 25.523 61.824 25.3653 61.6406 25.27C61.4573 25.1673 61.23 25.1233 60.9586 25.138C60.7386 25.138 60.537 25.1747 60.3536 25.248C60.1703 25.314 60.009 25.4093 59.8696 25.534C59.7376 25.6587 59.6313 25.8053 59.5506 25.974C59.4773 26.1353 59.4406 26.3113 59.4406 26.502V30H58.8796C58.7843 30 58.689 30 58.5936 30C58.4983 30 58.403 30 58.3076 30ZM67.4456 30.11C66.881 30.11 66.375 29.9817 65.9276 29.725C65.4876 29.461 65.1393 29.1053 64.8826 28.658C64.626 28.2033 64.4976 27.6863 64.4976 27.107C64.4976 26.5277 64.626 26.0143 64.8826 25.567C65.1393 25.1123 65.4876 24.7567 65.9276 24.5C66.375 24.236 66.881 24.104 67.4456 24.104C68.003 24.104 68.5016 24.236 68.9416 24.5C69.389 24.7567 69.741 25.1123 69.9976 25.567C70.2543 26.0143 70.3826 26.5277 70.3826 27.107C70.3826 27.6863 70.2543 28.2033 69.9976 28.658C69.741 29.1053 69.389 29.461 68.9416 29.725C68.5016 29.9817 68.003 30.11 67.4456 30.11ZM67.4456 29.076C67.7903 29.076 68.0983 28.9917 68.3696 28.823C68.641 28.647 68.8536 28.4123 69.0076 28.119C69.1616 27.8183 69.235 27.481 69.2276 27.107C69.235 26.7257 69.1616 26.3883 69.0076 26.095C68.8536 25.7943 68.641 25.5597 68.3696 25.391C68.0983 25.2223 67.7903 25.138 67.4456 25.138C67.101 25.138 66.7893 25.226 66.5106 25.402C66.2393 25.5707 66.0266 25.8053 65.8726 26.106C65.7186 26.3993 65.6453 26.733 65.6526 27.107C65.6453 27.481 65.7186 27.8183 65.8726 28.119C66.0266 28.4123 66.2393 28.647 66.5106 28.823C66.7893 28.9917 67.101 29.076 67.4456 29.076ZM71.6172 30V24.225H72.7502V25.413L72.5522 25.545C72.6255 25.2883 72.7685 25.0537 72.9812 24.841C73.1939 24.621 73.4469 24.445 73.7402 24.313C74.0335 24.1737 74.3342 24.104 74.6422 24.104C75.0822 24.104 75.4489 24.192 75.7422 24.368C76.0355 24.5367 76.2555 24.797 76.4022 25.149C76.5489 25.501 76.6222 25.9447 76.6222 26.48V30H75.4892V26.557C75.4892 26.227 75.4452 25.9557 75.3572 25.743C75.2692 25.523 75.1335 25.3653 74.9502 25.27C74.7669 25.1673 74.5395 25.1233 74.2682 25.138C74.0482 25.138 73.8465 25.1747 73.6632 25.248C73.4799 25.314 73.3185 25.4093 73.1792 25.534C73.0472 25.6587 72.9409 25.8053 72.8602 25.974C72.7869 26.1353 72.7502 26.3113 72.7502 26.502V30H72.1892C72.0939 30 71.9985 30 71.9032 30C71.8079 30 71.7125 30 71.6172 30ZM79.0735 32.53L80.2395 29.835L80.2505 30.737L77.3685 24.225H78.6885L80.4925 28.471C80.5291 28.5443 80.5731 28.658 80.6245 28.812C80.6758 28.9587 80.7198 29.1053 80.7565 29.252L80.4705 29.318C80.5291 29.164 80.5841 29.01 80.6355 28.856C80.6941 28.702 80.7491 28.548 80.8005 28.394L82.3075 24.225H83.6495L81.2735 30L80.2945 32.53H79.0735ZM84.3431 24.775L83.9251 24.269C84.2111 24.137 84.4457 23.9867 84.6291 23.818C84.8124 23.6493 84.9041 23.5027 84.9041 23.378C84.9041 23.2827 84.8637 23.1983 84.7831 23.125C84.7024 23.0443 84.6291 22.9783 84.5631 22.927C84.4017 22.795 84.2917 22.685 84.2331 22.597C84.1817 22.509 84.1561 22.4173 84.1561 22.322C84.1561 22.146 84.2184 22.0067 84.3431 21.904C84.4677 21.794 84.6291 21.739 84.8271 21.739C85.0324 21.739 85.2157 21.794 85.3771 21.904C85.5457 22.0067 85.6777 22.1497 85.7731 22.333C85.8684 22.5163 85.9161 22.7327 85.9161 22.982C85.9161 23.1727 85.8757 23.3597 85.7951 23.543C85.7144 23.7263 85.6007 23.8987 85.4541 24.06C85.3147 24.2213 85.1497 24.3643 84.9591 24.489C84.7684 24.6137 84.5631 24.709 84.3431 24.775ZM89.0754 30.11C88.5914 30.11 88.1551 30.0257 87.7664 29.857C87.3777 29.6883 87.0551 29.439 86.7984 29.109L87.5684 28.449C87.7884 28.7057 88.0267 28.8927 88.2834 29.01C88.5474 29.12 88.8444 29.175 89.1744 29.175C89.3064 29.175 89.4274 29.1603 89.5374 29.131C89.6547 29.0943 89.7537 29.043 89.8344 28.977C89.9224 28.911 89.9884 28.834 90.0324 28.746C90.0764 28.6507 90.0984 28.548 90.0984 28.438C90.0984 28.2473 90.0287 28.0933 89.8894 27.976C89.8161 27.9247 89.6987 27.8697 89.5374 27.811C89.3834 27.745 89.1817 27.679 88.9324 27.613C88.5071 27.503 88.1587 27.3783 87.8874 27.239C87.6161 27.0997 87.4071 26.942 87.2604 26.766C87.1504 26.6267 87.0697 26.4763 87.0184 26.315C86.9671 26.1463 86.9414 25.963 86.9414 25.765C86.9414 25.523 86.9927 25.303 87.0954 25.105C87.2054 24.8997 87.3521 24.7237 87.5354 24.577C87.7261 24.423 87.9461 24.3057 88.1954 24.225C88.4521 24.1443 88.7234 24.104 89.0094 24.104C89.2807 24.104 89.5484 24.1407 89.8124 24.214C90.0837 24.2873 90.3331 24.3937 90.5604 24.533C90.7877 24.6723 90.9784 24.8373 91.1324 25.028L90.4834 25.743C90.3441 25.6037 90.1901 25.4827 90.0214 25.38C89.8601 25.27 89.6951 25.1857 89.5264 25.127C89.3577 25.0683 89.2037 25.039 89.0644 25.039C88.9104 25.039 88.7711 25.0537 88.6464 25.083C88.5217 25.1123 88.4154 25.1563 88.3274 25.215C88.2467 25.2737 88.1844 25.347 88.1404 25.435C88.0964 25.523 88.0744 25.622 88.0744 25.732C88.0817 25.8273 88.1037 25.919 88.1404 26.007C88.1844 26.0877 88.2431 26.1573 88.3164 26.216C88.3971 26.2747 88.5181 26.337 88.6794 26.403C88.8407 26.469 89.0461 26.5313 89.2954 26.59C89.6621 26.6853 89.9627 26.7917 90.1974 26.909C90.4394 27.019 90.6301 27.1473 90.7694 27.294C90.9161 27.4333 91.0187 27.5947 91.0774 27.778C91.1361 27.9613 91.1654 28.1667 91.1654 28.394C91.1654 28.724 91.0701 29.021 90.8794 29.285C90.6961 29.5417 90.4467 29.7433 90.1314 29.89C89.8161 30.0367 89.4641 30.11 89.0754 30.11Z" fill="black"/>
</svg>
