<svg width="73" height="72" viewBox="0 0 73 72" fill="none" xmlns="http://www.w3.org/2000/svg">
<path d="M21 0H47L70.5 50V72L2.5 71L4 47.5L21 0Z" fill="#FF0000" fill-opacity="0.31"/>
<path d="M37.5657 5H32.4343C32.0349 5 31.7967 5.44507 32.0182 5.77735L33.416 7.87404C33.4708 7.95617 33.5 8.05268 33.5 8.15139V9.5V13.5C33.5 13.7761 33.2761 14 33 14H29H26.1514C26.0527 14 25.9562 13.9708 25.874 13.916L23.7773 12.5182C23.4451 12.2967 23 12.5349 23 12.9343V18.0657C23 18.4651 23.4451 18.7033 23.7774 18.4818L25.874 17.084C25.9562 17.0292 26.0527 17 26.1514 17H29H33C33.2761 17 33.5 17.2239 33.5 17.5V21V36.882C33.5 36.9596 33.4819 37.0361 33.4472 37.1056L32.3618 39.2764C32.1956 39.6088 32.4373 40 32.809 40H37.191C37.5627 40 37.8044 39.6088 37.6382 39.2764L36.5528 37.1056C36.5181 37.0361 36.5 36.9596 36.5 36.882V21V17.5C36.5 17.2239 36.7239 17 37 17H41H43.8486C43.9473 17 44.0438 17.0292 44.126 17.084L46.2227 18.4818C46.5549 18.7033 47 18.4651 47 18.0657V12.9343C47 12.5349 46.5549 12.2967 46.2227 12.5182L44.126 13.916C44.0438 13.9708 43.9473 14 43.8486 14H41H37C36.7239 14 36.5 13.7761 36.5 13.5V9.5V8.15139C36.5 8.05268 36.5292 7.95617 36.584 7.87404L37.9818 5.77735C38.2033 5.44507 37.9651 5 37.5657 5Z" fill="#4F4533"/>
<path d="M33.5 9.5V13.5C33.5 13.7761 33.2761 14 33 14H29M33.5 9.5V8.15139C33.5 8.05268 33.4708 7.95617 33.416 7.87404L32.0182 5.77735C31.7967 5.44507 32.0349 5 32.4343 5H37.5657C37.9651 5 38.2033 5.44507 37.9818 5.77735L36.584 7.87404C36.5292 7.95617 36.5 8.05268 36.5 8.15139V9.5M33.5 9.5C31 9.5 29 11.5 29 14M29 14H26.1514C26.0527 14 25.9562 13.9708 25.874 13.916L23.7773 12.5182C23.4451 12.2967 23 12.5349 23 12.9343V18.0657C23 18.4651 23.4451 18.7033 23.7774 18.4818L25.874 17.084C25.9562 17.0292 26.0527 17 26.1514 17H29M36.5 9.5V13.5C36.5 13.7761 36.7239 14 37 14H41M36.5 9.5C39 9.5 41 11.5 41 14M41 14H43.8486C43.9473 14 44.0438 13.9708 44.126 13.916L46.2227 12.5182C46.5549 12.2967 47 12.5349 47 12.9343V18.0657C47 18.4651 46.5549 18.7033 46.2226 18.4818L44.126 17.084C44.0438 17.0292 43.9473 17 43.8486 17H41M41 17H37C36.7239 17 36.5 17.2239 36.5 17.5V21M41 17C41 19.5 39 21 36.5 21M36.5 21V36.882C36.5 36.9596 36.5181 37.0361 36.5528 37.1056L37.6382 39.2764C37.8044 39.6088 37.5627 40 37.191 40H32.809C32.4373 40 32.1956 39.6088 32.3618 39.2764L33.4472 37.1056C33.4819 37.0361 33.5 36.9596 33.5 36.882V21M33.5 21V17.5C33.5 17.2239 33.2761 17 33 17H29M33.5 21C31 21 29 19.5 29 17" stroke="black"/>
<path d="M17.6594 54V46.3H19.3314L22.1364 50.865L20.9374 50.854L23.7754 46.3H25.3814V54H23.5664V51.602C23.5664 50.942 23.5811 50.348 23.6104 49.82C23.6471 49.292 23.7057 48.7677 23.7864 48.247L23.9954 48.819L21.8614 52.13H21.1354L19.0454 48.841L19.2544 48.247C19.3351 48.7383 19.3901 49.2443 19.4194 49.765C19.4561 50.2783 19.4744 50.8907 19.4744 51.602V54H17.6594ZM27.2286 54V48.159H28.9886V54H27.2286ZM28.1086 47.004C27.7786 47.004 27.5183 46.927 27.3276 46.773C27.1443 46.6117 27.0526 46.3843 27.0526 46.091C27.0526 45.827 27.148 45.6107 27.3386 45.442C27.5293 45.2733 27.786 45.189 28.1086 45.189C28.4386 45.189 28.6953 45.2697 28.8786 45.431C29.062 45.585 29.1536 45.805 29.1536 46.091C29.1536 46.3623 29.0583 46.5823 28.8676 46.751C28.6843 46.9197 28.4313 47.004 28.1086 47.004ZM30.6533 54V45.86H32.4133V54H30.6533ZM34.3461 54V47.873C34.3461 47.4917 34.4268 47.147 34.5881 46.839C34.7568 46.531 34.9878 46.289 35.2811 46.113C35.5818 45.9297 35.9301 45.838 36.3261 45.838C36.6048 45.838 36.8615 45.8783 37.0961 45.959C37.3308 46.0397 37.5398 46.1533 37.7231 46.3L37.2171 47.587C37.1218 47.5357 37.0301 47.4953 36.9421 47.466C36.8541 47.4367 36.7735 47.422 36.7001 47.422C36.5681 47.422 36.4581 47.444 36.3701 47.488C36.2821 47.532 36.2161 47.6017 36.1721 47.697C36.1355 47.785 36.1171 47.895 36.1171 48.027V54H35.2371C35.0391 54 34.8631 54 34.7091 54C34.5625 54 34.4415 54 34.3461 54ZM33.4991 49.776V48.324H37.3161V49.776H33.4991ZM40.8367 54.11C40.228 54.11 39.6853 53.978 39.2087 53.714C38.7393 53.45 38.3653 53.0907 38.0867 52.636C37.8153 52.1813 37.6797 51.6607 37.6797 51.074C37.6797 50.4873 37.8153 49.9667 38.0867 49.512C38.3653 49.0573 38.7393 48.698 39.2087 48.434C39.6853 48.17 40.228 48.038 40.8367 48.038C41.4453 48.038 41.9843 48.17 42.4537 48.434C42.9303 48.698 43.3043 49.0573 43.5757 49.512C43.847 49.9667 43.9827 50.4873 43.9827 51.074C43.9827 51.6607 43.847 52.1813 43.5757 52.636C43.3043 53.0907 42.9303 53.45 42.4537 53.714C41.9843 53.978 41.4453 54.11 40.8367 54.11ZM40.8367 52.592C41.1007 52.592 41.3353 52.526 41.5407 52.394C41.746 52.262 41.9073 52.0823 42.0247 51.855C42.142 51.6277 42.197 51.3673 42.1897 51.074C42.197 50.7807 42.142 50.5203 42.0247 50.293C41.9073 50.0583 41.746 49.875 41.5407 49.743C41.3353 49.611 41.1007 49.545 40.8367 49.545C40.5727 49.545 40.3343 49.611 40.1217 49.743C39.9163 49.875 39.755 50.0583 39.6377 50.293C39.5203 50.5203 39.4653 50.7807 39.4727 51.074C39.4653 51.3673 39.5203 51.6277 39.6377 51.855C39.755 52.0823 39.9163 52.262 40.1217 52.394C40.3343 52.526 40.5727 52.592 40.8367 52.592ZM45.1335 54V48.159H46.8055L46.8825 50.062L46.5525 49.699C46.6405 49.3837 46.7835 49.1013 46.9815 48.852C47.1869 48.6027 47.4252 48.4047 47.6965 48.258C47.9679 48.1113 48.2575 48.038 48.5655 48.038C48.6975 48.038 48.8185 48.049 48.9285 48.071C49.0459 48.093 49.1522 48.1187 49.2475 48.148L48.7635 50.095C48.6829 50.0437 48.5729 50.0033 48.4335 49.974C48.3015 49.9373 48.1622 49.919 48.0155 49.919C47.8542 49.919 47.7039 49.9483 47.5645 50.007C47.4252 50.0583 47.3079 50.1353 47.2125 50.238C47.1172 50.3407 47.0402 50.4617 46.9815 50.601C46.9302 50.7403 46.9045 50.898 46.9045 51.074V54H45.1335ZM52.1033 54.121C51.5973 54.121 51.1463 53.9927 50.7503 53.736C50.3617 53.472 50.0537 53.1127 49.8263 52.658C49.599 52.196 49.4853 51.6717 49.4853 51.085C49.4853 50.4983 49.599 49.9777 49.8263 49.523C50.0537 49.061 50.3653 48.698 50.7613 48.434C51.1573 48.17 51.612 48.038 52.1253 48.038C52.3893 48.038 52.6423 48.0783 52.8843 48.159C53.1263 48.2397 53.3463 48.3497 53.5443 48.489C53.7423 48.6283 53.9037 48.7897 54.0283 48.973C54.153 49.149 54.2263 49.3323 54.2483 49.523L53.8303 49.622V45.86H55.6013V54H53.9623L53.8633 52.669L54.2153 52.724C54.1933 52.9073 54.12 53.0833 53.9953 53.252C53.878 53.4207 53.724 53.571 53.5333 53.703C53.3427 53.8277 53.1227 53.9267 52.8733 54C52.6313 54.0807 52.3747 54.121 52.1033 54.121ZM52.5543 52.658C52.8257 52.658 53.0603 52.592 53.2583 52.46C53.4563 52.328 53.6067 52.1447 53.7093 51.91C53.8193 51.6753 53.8743 51.4003 53.8743 51.085C53.8743 50.7623 53.8193 50.4837 53.7093 50.249C53.6067 50.0143 53.4563 49.831 53.2583 49.699C53.0603 49.567 52.8257 49.501 52.5543 49.501C52.283 49.501 52.0483 49.567 51.8503 49.699C51.6597 49.831 51.5093 50.0143 51.3993 50.249C51.2893 50.4837 51.2343 50.7623 51.2343 51.085C51.2343 51.4003 51.2893 51.6753 51.3993 51.91C51.5093 52.1447 51.6597 52.328 51.8503 52.46C52.0483 52.592 52.283 52.658 52.5543 52.658ZM7.77578 68.11C7.35778 68.11 6.96911 68.055 6.60978 67.945C6.25778 67.835 5.93511 67.67 5.64178 67.45C5.35578 67.2227 5.09911 66.944 4.87178 66.614L5.68578 65.679C6.04511 66.1923 6.38978 66.548 6.71978 66.746C7.04978 66.944 7.44211 67.043 7.89678 67.043C8.17544 67.043 8.42844 66.999 8.65578 66.911C8.88311 66.823 9.06278 66.702 9.19478 66.548C9.32678 66.394 9.39278 66.218 9.39278 66.02C9.39278 65.888 9.37078 65.7633 9.32678 65.646C9.28278 65.5287 9.21311 65.4223 9.11778 65.327C9.02978 65.2317 8.91244 65.1437 8.76578 65.063C8.62644 64.9823 8.46144 64.9127 8.27078 64.854C8.08011 64.788 7.86011 64.733 7.61078 64.689C7.21478 64.6083 6.87011 64.502 6.57678 64.37C6.28344 64.238 6.03778 64.073 5.83978 63.875C5.64178 63.677 5.49511 63.4533 5.39978 63.204C5.30444 62.9473 5.25678 62.6613 5.25678 62.346C5.25678 62.038 5.32278 61.752 5.45478 61.488C5.59411 61.224 5.78111 60.9967 6.01578 60.806C6.25778 60.608 6.54011 60.4577 6.86278 60.355C7.18544 60.245 7.53378 60.19 7.90778 60.19C8.30378 60.19 8.66678 60.2413 8.99678 60.344C9.32678 60.4467 9.62011 60.6007 9.87678 60.806C10.1334 61.004 10.3461 61.2497 10.5148 61.543L9.67878 62.368C9.53211 62.126 9.36711 61.9243 9.18378 61.763C9.00044 61.5943 8.79878 61.4697 8.57878 61.389C8.35878 61.301 8.12411 61.257 7.87478 61.257C7.58878 61.257 7.33944 61.301 7.12678 61.389C6.91411 61.477 6.74544 61.6017 6.62078 61.763C6.50344 61.917 6.44478 62.1003 6.44478 62.313C6.44478 62.467 6.47411 62.61 6.53278 62.742C6.59144 62.8667 6.67944 62.9803 6.79678 63.083C6.92144 63.1783 7.08644 63.2663 7.29178 63.347C7.49711 63.4203 7.74278 63.4863 8.02878 63.545C8.43211 63.633 8.79144 63.7467 9.10678 63.886C9.42211 64.018 9.68978 64.1757 9.90978 64.359C10.1298 64.5423 10.2948 64.7477 10.4048 64.975C10.5221 65.2023 10.5808 65.448 10.5808 65.712C10.5808 66.2033 10.4671 66.6287 10.2398 66.988C10.0124 67.3473 9.68978 67.626 9.27178 67.824C8.85378 68.0147 8.35511 68.11 7.77578 68.11ZM12.693 68V60.751H13.826V68H12.693ZM11.494 63.325V62.225H15.168V63.325H11.494ZM16.6617 68.121C16.4197 68.121 16.2327 68.0513 16.1007 67.912C15.9687 67.7653 15.9027 67.56 15.9027 67.296C15.9027 67.054 15.9724 66.856 16.1117 66.702C16.251 66.548 16.4344 66.471 16.6617 66.471C16.9037 66.471 17.0907 66.5443 17.2227 66.691C17.3547 66.8303 17.4207 67.032 17.4207 67.296C17.4207 67.538 17.351 67.736 17.2117 67.89C17.0724 68.044 16.889 68.121 16.6617 68.121ZM22.0717 68V60.3H25.2837C25.775 60.3 26.1893 60.3733 26.5267 60.52C26.864 60.6667 27.117 60.8867 27.2857 61.18C27.4617 61.466 27.5497 61.818 27.5497 62.236C27.5497 62.654 27.4323 63.0097 27.1977 63.303C26.9703 63.5963 26.6513 63.798 26.2407 63.908V63.688C26.5853 63.7613 26.886 63.8933 27.1427 64.084C27.3993 64.2673 27.5973 64.4983 27.7367 64.777C27.8833 65.0557 27.9567 65.3747 27.9567 65.734C27.9567 66.1007 27.898 66.427 27.7807 66.713C27.6707 66.9917 27.502 67.2263 27.2747 67.417C27.0547 67.6077 26.787 67.7543 26.4717 67.857C26.1563 67.9523 25.797 68 25.3937 68H22.0717ZM23.2597 66.856H25.3277C25.6283 66.856 25.8813 66.812 26.0867 66.724C26.2993 66.636 26.4607 66.5077 26.5707 66.339C26.688 66.163 26.7467 65.954 26.7467 65.712C26.7467 65.4847 26.6843 65.2903 26.5597 65.129C26.4423 64.9677 26.2737 64.8467 26.0537 64.766C25.8337 64.678 25.5733 64.634 25.2727 64.634H23.2597V66.856ZM23.2597 63.49H25.2177C25.4377 63.49 25.632 63.446 25.8007 63.358C25.9767 63.27 26.1123 63.149 26.2077 62.995C26.3103 62.841 26.3617 62.665 26.3617 62.467C26.3617 62.137 26.2517 61.884 26.0317 61.708C25.8117 61.532 25.4963 61.444 25.0857 61.444H23.2597V63.49ZM29.273 68V62.225H30.417V64.04L30.307 63.6C30.3876 63.3213 30.5233 63.0683 30.714 62.841C30.912 62.6137 31.1356 62.434 31.385 62.302C31.6416 62.17 31.9056 62.104 32.177 62.104C32.3016 62.104 32.419 62.115 32.529 62.137C32.6463 62.159 32.738 62.1847 32.804 62.214L32.507 63.446C32.419 63.4093 32.32 63.38 32.21 63.358C32.1073 63.3287 32.0046 63.314 31.902 63.314C31.704 63.314 31.5133 63.3543 31.33 63.435C31.154 63.5083 30.9963 63.6147 30.857 63.754C30.725 63.886 30.6186 64.0437 30.538 64.227C30.4573 64.403 30.417 64.5973 30.417 64.81V68H29.273ZM33.8965 68V62.225H35.0295V68H33.8965ZM34.4465 60.949C34.2045 60.949 34.0175 60.8867 33.8855 60.762C33.7535 60.6373 33.6875 60.4613 33.6875 60.234C33.6875 60.0213 33.7535 59.849 33.8855 59.717C34.0248 59.585 34.2118 59.519 34.4465 59.519C34.6885 59.519 34.8755 59.5813 35.0075 59.706C35.1395 59.8307 35.2055 60.0067 35.2055 60.234C35.2055 60.4467 35.1358 60.619 34.9965 60.751C34.8645 60.883 34.6811 60.949 34.4465 60.949ZM39.18 68.11C38.652 68.11 38.179 67.9817 37.761 67.725C37.3503 67.461 37.024 67.1053 36.782 66.658C36.54 66.2033 36.419 65.6863 36.419 65.107C36.419 64.5277 36.5363 64.0143 36.771 63.567C37.013 63.1123 37.3393 62.7567 37.75 62.5C38.1607 62.236 38.6263 62.104 39.147 62.104C39.433 62.104 39.708 62.1517 39.972 62.247C40.2433 62.335 40.4853 62.4597 40.698 62.621C40.9107 62.775 41.0757 62.9473 41.193 63.138C41.3177 63.3213 41.38 63.5083 41.38 63.699L41.05 63.721V59.86H42.183V68H41.05V66.625H41.27C41.27 66.801 41.2113 66.977 41.094 67.153C40.9767 67.3217 40.819 67.4793 40.621 67.626C40.4303 67.7727 40.2067 67.89 39.95 67.978C39.7007 68.066 39.444 68.11 39.18 68.11ZM39.334 67.131C39.6787 67.131 39.983 67.043 40.247 66.867C40.511 66.691 40.7163 66.4527 40.863 66.152C41.017 65.844 41.094 65.4957 41.094 65.107C41.094 64.7183 41.017 64.3737 40.863 64.073C40.7163 63.765 40.511 63.523 40.247 63.347C39.983 63.171 39.6787 63.083 39.334 63.083C38.9893 63.083 38.685 63.171 38.421 63.347C38.157 63.523 37.948 63.765 37.794 64.073C37.6473 64.3737 37.574 64.7183 37.574 65.107C37.574 65.4957 37.6473 65.844 37.794 66.152C37.948 66.4527 38.157 66.691 38.421 66.867C38.685 67.043 38.9893 67.131 39.334 67.131ZM46.3277 70.53C45.917 70.53 45.5064 70.464 45.0957 70.332C44.6924 70.2073 44.366 70.0423 44.1167 69.837L44.5347 68.957C44.6814 69.067 44.8537 69.1623 45.0517 69.243C45.2497 69.331 45.4587 69.397 45.6787 69.441C45.8987 69.4923 46.115 69.518 46.3277 69.518C46.731 69.518 47.0684 69.452 47.3397 69.32C47.611 69.188 47.8164 68.9937 47.9557 68.737C48.095 68.4803 48.1647 68.1613 48.1647 67.78V66.669L48.2857 66.746C48.249 66.9733 48.128 67.1933 47.9227 67.406C47.7247 67.6113 47.4754 67.78 47.1747 67.912C46.874 68.044 46.566 68.11 46.2507 68.11C45.7007 68.11 45.2094 67.9817 44.7767 67.725C44.3514 67.461 44.014 67.1053 43.7647 66.658C43.5154 66.2033 43.3907 65.6863 43.3907 65.107C43.3907 64.5277 43.5117 64.0143 43.7537 63.567C44.003 63.1123 44.3404 62.7567 44.7657 62.5C45.1984 62.236 45.6824 62.104 46.2177 62.104C46.4377 62.104 46.6504 62.1333 46.8557 62.192C47.061 62.2433 47.2517 62.3203 47.4277 62.423C47.6037 62.5183 47.7614 62.6247 47.9007 62.742C48.04 62.8593 48.1537 62.984 48.2417 63.116C48.3297 63.248 48.3847 63.3727 48.4067 63.49L48.1647 63.578V62.225H49.2977V67.648C49.2977 68.11 49.228 68.517 49.0887 68.869C48.9567 69.2283 48.7624 69.529 48.5057 69.771C48.249 70.0203 47.9374 70.2073 47.5707 70.332C47.204 70.464 46.7897 70.53 46.3277 70.53ZM46.3717 67.065C46.731 67.065 47.05 66.9807 47.3287 66.812C47.6074 66.6433 47.8237 66.4123 47.9777 66.119C48.1317 65.8257 48.2087 65.4883 48.2087 65.107C48.2087 64.7257 48.128 64.3883 47.9667 64.095C47.8127 63.7943 47.5964 63.5597 47.3177 63.391C47.0464 63.2223 46.731 63.138 46.3717 63.138C46.0197 63.138 45.7044 63.226 45.4257 63.402C45.1544 63.5707 44.938 63.8053 44.7767 64.106C44.6227 64.3993 44.5457 64.733 44.5457 65.107C44.5457 65.481 44.6227 65.8183 44.7767 66.119C44.938 66.4123 45.1544 66.6433 45.4257 66.812C45.7044 66.9807 46.0197 67.065 46.3717 67.065ZM53.5812 68.11C52.9872 68.11 52.4592 67.9853 51.9972 67.736C51.5426 67.4793 51.1832 67.131 50.9192 66.691C50.6626 66.251 50.5342 65.745 50.5342 65.173C50.5342 64.7183 50.6076 64.304 50.7542 63.93C50.9009 63.556 51.1026 63.2333 51.3592 62.962C51.6232 62.6833 51.9349 62.4707 52.2942 62.324C52.6609 62.17 53.0569 62.093 53.4822 62.093C53.8562 62.093 54.2046 62.1663 54.5272 62.313C54.8499 62.4523 55.1286 62.6467 55.3632 62.896C55.6052 63.1453 55.7886 63.4423 55.9132 63.787C56.0452 64.1243 56.1076 64.4947 56.1002 64.898L56.0892 65.382H51.3702L51.1172 64.48H55.1102L54.9452 64.667V64.403C54.9232 64.161 54.8426 63.9447 54.7032 63.754C54.5639 63.5633 54.3879 63.413 54.1752 63.303C53.9626 63.193 53.7316 63.138 53.4822 63.138C53.0862 63.138 52.7526 63.215 52.4812 63.369C52.2099 63.5157 52.0046 63.7357 51.8652 64.029C51.7259 64.315 51.6562 64.6707 51.6562 65.096C51.6562 65.4993 51.7406 65.8513 51.9092 66.152C52.0779 66.4453 52.3162 66.6727 52.6242 66.834C52.9322 66.9953 53.2879 67.076 53.6912 67.076C53.9772 67.076 54.2412 67.0283 54.4832 66.933C54.7326 66.8377 55.0002 66.6653 55.2862 66.416L55.8582 67.219C55.6822 67.395 55.4659 67.549 55.2092 67.681C54.9599 67.813 54.6922 67.9193 54.4062 68C54.1276 68.0733 53.8526 68.11 53.5812 68.11ZM58.0466 68V60.751H59.1796V68H58.0466ZM56.8476 63.325V62.225H60.5216V63.325H56.8476ZM61.3992 62.775L60.9812 62.269C61.2672 62.137 61.5019 61.9867 61.6852 61.818C61.8686 61.6493 61.9602 61.5027 61.9602 61.378C61.9602 61.2827 61.9199 61.1983 61.8392 61.125C61.7586 61.0443 61.6852 60.9783 61.6192 60.927C61.4579 60.795 61.3479 60.685 61.2892 60.597C61.2379 60.509 61.2122 60.4173 61.2122 60.322C61.2122 60.146 61.2746 60.0067 61.3992 59.904C61.5239 59.794 61.6852 59.739 61.8832 59.739C62.0886 59.739 62.2719 59.794 62.4332 59.904C62.6019 60.0067 62.7339 60.1497 62.8292 60.333C62.9246 60.5163 62.9722 60.7327 62.9722 60.982C62.9722 61.1727 62.9319 61.3597 62.8512 61.543C62.7706 61.7263 62.6569 61.8987 62.5102 62.06C62.3709 62.2213 62.2059 62.3643 62.0152 62.489C61.8246 62.6137 61.6192 62.709 61.3992 62.775ZM66.1316 68.11C65.6476 68.11 65.2112 68.0257 64.8226 67.857C64.4339 67.6883 64.1112 67.439 63.8546 67.109L64.6246 66.449C64.8446 66.7057 65.0829 66.8927 65.3396 67.01C65.6036 67.12 65.9006 67.175 66.2306 67.175C66.3626 67.175 66.4836 67.1603 66.5936 67.131C66.7109 67.0943 66.8099 67.043 66.8906 66.977C66.9786 66.911 67.0446 66.834 67.0886 66.746C67.1326 66.6507 67.1546 66.548 67.1546 66.438C67.1546 66.2473 67.0849 66.0933 66.9456 65.976C66.8722 65.9247 66.7549 65.8697 66.5936 65.811C66.4396 65.745 66.2379 65.679 65.9886 65.613C65.5632 65.503 65.2149 65.3783 64.9436 65.239C64.6722 65.0997 64.4632 64.942 64.3166 64.766C64.2066 64.6267 64.1259 64.4763 64.0746 64.315C64.0232 64.1463 63.9976 63.963 63.9976 63.765C63.9976 63.523 64.0489 63.303 64.1516 63.105C64.2616 62.8997 64.4082 62.7237 64.5916 62.577C64.7822 62.423 65.0022 62.3057 65.2516 62.225C65.5082 62.1443 65.7796 62.104 66.0656 62.104C66.3369 62.104 66.6046 62.1407 66.8686 62.214C67.1399 62.2873 67.3892 62.3937 67.6166 62.533C67.8439 62.6723 68.0346 62.8373 68.1886 63.028L67.5396 63.743C67.4002 63.6037 67.2462 63.4827 67.0776 63.38C66.9162 63.27 66.7512 63.1857 66.5826 63.127C66.4139 63.0683 66.2599 63.039 66.1206 63.039C65.9666 63.039 65.8272 63.0537 65.7026 63.083C65.5779 63.1123 65.4716 63.1563 65.3836 63.215C65.3029 63.2737 65.2406 63.347 65.1966 63.435C65.1526 63.523 65.1306 63.622 65.1306 63.732C65.1379 63.8273 65.1599 63.919 65.1966 64.007C65.2406 64.0877 65.2992 64.1573 65.3726 64.216C65.4532 64.2747 65.5742 64.337 65.7356 64.403C65.8969 64.469 66.1022 64.5313 66.3516 64.59C66.7182 64.6853 67.0189 64.7917 67.2536 64.909C67.4956 65.019 67.6862 65.1473 67.8256 65.294C67.9722 65.4333 68.0749 65.5947 68.1336 65.778C68.1922 65.9613 68.2216 66.1667 68.2216 66.394C68.2216 66.724 68.1262 67.021 67.9356 67.285C67.7522 67.5417 67.5029 67.7433 67.1876 67.89C66.8722 68.0367 66.5202 68.11 66.1316 68.11Z" fill="black"/>
</svg>
