<svg width="70" height="70" viewBox="0 0 70 70" fill="none" xmlns="http://www.w3.org/2000/svg">
<path d="M19.5 0.5H47L56.5 31.5L68.5 43.5L69.5 69.5H0L1 42.5L11 32.5L19.5 0.5Z" fill="#FF0000" fill-opacity="0.31"/>
<path d="M35.5657 5H30.4343C30.0349 5 29.7967 5.44507 30.0182 5.77735L31.416 7.87404C31.4708 7.95617 31.5 8.05268 31.5 8.15139V9.5V13.5C31.5 13.7761 31.2761 14 31 14H27H24.1514C24.0527 14 23.9562 13.9708 23.874 13.916L21.7773 12.5182C21.4451 12.2967 21 12.5349 21 12.9343V18.0657C21 18.4651 21.4451 18.7033 21.7774 18.4818L23.874 17.084C23.9562 17.0292 24.0527 17 24.1514 17H27H31C31.2761 17 31.5 17.2239 31.5 17.5V21V36.882C31.5 36.9596 31.4819 37.0361 31.4472 37.1056L30.3618 39.2764C30.1956 39.6088 30.4373 40 30.809 40H35.191C35.5627 40 35.8044 39.6088 35.6382 39.2764L34.5528 37.1056C34.5181 37.0361 34.5 36.9596 34.5 36.882V21V17.5C34.5 17.2239 34.7239 17 35 17H39H41.8486C41.9473 17 42.0438 17.0292 42.126 17.084L44.2227 18.4818C44.5549 18.7033 45 18.4651 45 18.0657V12.9343C45 12.5349 44.5549 12.2967 44.2227 12.5182L42.126 13.916C42.0438 13.9708 41.9473 14 41.8486 14H39H35C34.7239 14 34.5 13.7761 34.5 13.5V9.5V8.15139C34.5 8.05268 34.5292 7.95617 34.584 7.87404L35.9818 5.77735C36.2033 5.44507 35.9651 5 35.5657 5Z" fill="#4F4533"/>
<path d="M31.5 9.5V13.5C31.5 13.7761 31.2761 14 31 14H27M31.5 9.5V8.15139C31.5 8.05268 31.4708 7.95617 31.416 7.87404L30.0182 5.77735C29.7967 5.44507 30.0349 5 30.4343 5H35.5657C35.9651 5 36.2033 5.44507 35.9818 5.77735L34.584 7.87404C34.5292 7.95617 34.5 8.05268 34.5 8.15139V9.5M31.5 9.5C29 9.5 27 11.5 27 14M27 14H24.1514C24.0527 14 23.9562 13.9708 23.874 13.916L21.7773 12.5182C21.4451 12.2967 21 12.5349 21 12.9343V18.0657C21 18.4651 21.4451 18.7033 21.7774 18.4818L23.874 17.084C23.9562 17.0292 24.0527 17 24.1514 17H27M34.5 9.5V13.5C34.5 13.7761 34.7239 14 35 14H39M34.5 9.5C37 9.5 39 11.5 39 14M39 14H41.8486C41.9473 14 42.0438 13.9708 42.126 13.916L44.2227 12.5182C44.5549 12.2967 45 12.5349 45 12.9343V18.0657C45 18.4651 44.5549 18.7033 44.2226 18.4818L42.126 17.084C42.0438 17.0292 41.9473 17 41.8486 17H39M39 17H35C34.7239 17 34.5 17.2239 34.5 17.5V21M39 17C39 19.5 37 21 34.5 21M34.5 21V36.882C34.5 36.9596 34.5181 37.0361 34.5528 37.1056L35.6382 39.2764C35.8044 39.6088 35.5627 40 35.191 40H30.809C30.4373 40 30.1956 39.6088 30.3618 39.2764L31.4472 37.1056C31.4819 37.0361 31.5 36.9596 31.5 36.882V21M31.5 21V17.5C31.5 17.2239 31.2761 17 31 17H27M31.5 21C29 21 27 19.5 27 17" stroke="black"/>
<path d="M7.14671 52V44.3H8.81871L11.6237 48.865L10.4247 48.854L13.2627 44.3H14.8687V52H13.0537V49.602C13.0537 48.942 13.0684 48.348 13.0977 47.82C13.1344 47.292 13.193 46.7677 13.2737 46.247L13.4827 46.819L11.3487 50.13H10.6227L8.53271 46.841L8.74171 46.247C8.82238 46.7383 8.87738 47.2443 8.90671 47.765C8.94338 48.2783 8.96171 48.8907 8.96171 49.602V52H7.14671ZM19.3669 52.11C18.7583 52.11 18.2156 51.978 17.7389 51.714C17.2696 51.45 16.8956 51.0907 16.6169 50.636C16.3456 50.1813 16.2099 49.6607 16.2099 49.074C16.2099 48.4873 16.3456 47.9667 16.6169 47.512C16.8956 47.0573 17.2696 46.698 17.7389 46.434C18.2156 46.17 18.7583 46.038 19.3669 46.038C19.9756 46.038 20.5146 46.17 20.9839 46.434C21.4606 46.698 21.8346 47.0573 22.1059 47.512C22.3773 47.9667 22.5129 48.4873 22.5129 49.074C22.5129 49.6607 22.3773 50.1813 22.1059 50.636C21.8346 51.0907 21.4606 51.45 20.9839 51.714C20.5146 51.978 19.9756 52.11 19.3669 52.11ZM19.3669 50.592C19.6309 50.592 19.8656 50.526 20.0709 50.394C20.2763 50.262 20.4376 50.0823 20.5549 49.855C20.6723 49.6277 20.7273 49.3673 20.7199 49.074C20.7273 48.7807 20.6723 48.5203 20.5549 48.293C20.4376 48.0583 20.2763 47.875 20.0709 47.743C19.8656 47.611 19.6309 47.545 19.3669 47.545C19.1029 47.545 18.8646 47.611 18.6519 47.743C18.4466 47.875 18.2853 48.0583 18.1679 48.293C18.0506 48.5203 17.9956 48.7807 18.0029 49.074C17.9956 49.3673 18.0506 49.6277 18.1679 49.855C18.2853 50.0823 18.4466 50.262 18.6519 50.394C18.8646 50.526 19.1029 50.592 19.3669 50.592ZM23.6638 52V46.159H25.3358L25.3908 47.347L25.0388 47.479C25.1195 47.215 25.2625 46.9767 25.4678 46.764C25.6805 46.544 25.9335 46.368 26.2268 46.236C26.5201 46.104 26.8281 46.038 27.1508 46.038C27.5908 46.038 27.9611 46.1297 28.2618 46.313C28.5625 46.489 28.7898 46.7567 28.9438 47.116C29.0978 47.468 29.1748 47.9007 29.1748 48.414V52H27.4038V48.557C27.4038 48.3223 27.3708 48.128 27.3048 47.974C27.2388 47.82 27.1361 47.7063 26.9968 47.633C26.8648 47.5523 26.6998 47.5157 26.5018 47.523C26.3478 47.523 26.2048 47.5487 26.0728 47.6C25.9408 47.644 25.8271 47.7137 25.7318 47.809C25.6365 47.897 25.5595 47.9997 25.5008 48.117C25.4495 48.2343 25.4238 48.3627 25.4238 48.502V52H24.5548C24.3495 52 24.1735 52 24.0268 52C23.8801 52 23.7591 52 23.6638 52ZM31.1302 52V44.685H32.8902V52H31.1302ZM30.0962 47.699V46.159H34.0232V47.699H30.0962ZM35.128 52V46.159H36.888V52H35.128ZM36.008 45.004C35.678 45.004 35.4177 44.927 35.227 44.773C35.0437 44.6117 34.952 44.3843 34.952 44.091C34.952 43.827 35.0474 43.6107 35.238 43.442C35.4287 43.2733 35.6854 43.189 36.008 43.189C36.338 43.189 36.5947 43.2697 36.778 43.431C36.9614 43.585 37.053 43.805 37.053 44.091C37.053 44.3623 36.9577 44.5823 36.767 44.751C36.5837 44.9197 36.3307 45.004 36.008 45.004ZM41.1047 52.11C40.5401 52.11 40.0341 51.978 39.5867 51.714C39.1394 51.45 38.7837 51.0907 38.5197 50.636C38.2631 50.174 38.1347 49.6533 38.1347 49.074C38.1347 48.4947 38.2631 47.9777 38.5197 47.523C38.7837 47.061 39.1394 46.698 39.5867 46.434C40.0341 46.17 40.5401 46.038 41.1047 46.038C41.6254 46.038 42.1021 46.1297 42.5347 46.313C42.9747 46.4963 43.3231 46.753 43.5797 47.083L42.6227 48.227C42.5201 48.1097 42.3991 47.9997 42.2597 47.897C42.1204 47.7943 41.9664 47.7137 41.7977 47.655C41.6291 47.5963 41.4531 47.567 41.2697 47.567C40.9911 47.567 40.7454 47.633 40.5327 47.765C40.3201 47.8897 40.1551 48.0657 40.0377 48.293C39.9204 48.5203 39.8617 48.7807 39.8617 49.074C39.8617 49.3527 39.9204 49.6057 40.0377 49.833C40.1624 50.0603 40.3311 50.24 40.5437 50.372C40.7564 50.504 40.9984 50.57 41.2697 50.57C41.4604 50.57 41.6364 50.548 41.7977 50.504C41.9591 50.4527 42.1057 50.3793 42.2377 50.284C42.3771 50.1887 42.5054 50.0713 42.6227 49.932L43.5687 51.087C43.3194 51.4023 42.9711 51.6517 42.5237 51.835C42.0837 52.0183 41.6107 52.11 41.1047 52.11ZM47.3189 52.11C46.6735 52.11 46.1125 51.9817 45.6359 51.725C45.1592 51.461 44.7889 51.1053 44.5249 50.658C44.2609 50.2033 44.1289 49.6863 44.1289 49.107C44.1289 48.6597 44.2022 48.249 44.3489 47.875C44.4955 47.501 44.7009 47.1783 44.9649 46.907C45.2289 46.6283 45.5405 46.4157 45.8999 46.269C46.2665 46.115 46.6662 46.038 47.0989 46.038C47.5095 46.038 47.8835 46.1113 48.2209 46.258C48.5655 46.4047 48.8625 46.61 49.1119 46.874C49.3612 47.138 49.5519 47.4497 49.6839 47.809C49.8159 48.1683 49.8745 48.5607 49.8599 48.986L49.8489 49.459H45.1959L44.9429 48.469H48.4189L48.2319 48.678V48.458C48.2172 48.2747 48.1585 48.1133 48.0559 47.974C47.9605 47.8273 47.8322 47.7137 47.6709 47.633C47.5095 47.5523 47.3262 47.512 47.1209 47.512C46.8349 47.512 46.5892 47.5707 46.3839 47.688C46.1859 47.798 46.0355 47.963 45.9329 48.183C45.8302 48.3957 45.7789 48.6597 45.7789 48.975C45.7789 49.2977 45.8449 49.58 45.9769 49.822C46.1162 50.0567 46.3142 50.24 46.5709 50.372C46.8349 50.504 47.1465 50.57 47.5059 50.57C47.7552 50.57 47.9752 50.5333 48.1659 50.46C48.3639 50.3867 48.5765 50.262 48.8039 50.086L49.6289 51.252C49.4015 51.45 49.1595 51.6113 48.9029 51.736C48.6462 51.8607 48.3822 51.9523 48.1109 52.011C47.8469 52.077 47.5829 52.11 47.3189 52.11ZM50.9922 52V43.86H52.7522V52H50.9922ZM54.333 52V43.86H56.093V52H54.333ZM60.3054 52.11C59.6967 52.11 59.1541 51.978 58.6774 51.714C58.2081 51.45 57.8341 51.0907 57.5554 50.636C57.2841 50.1813 57.1484 49.6607 57.1484 49.074C57.1484 48.4873 57.2841 47.9667 57.5554 47.512C57.8341 47.0573 58.2081 46.698 58.6774 46.434C59.1541 46.17 59.6967 46.038 60.3054 46.038C60.9141 46.038 61.4531 46.17 61.9224 46.434C62.3991 46.698 62.7731 47.0573 63.0444 47.512C63.3157 47.9667 63.4514 48.4873 63.4514 49.074C63.4514 49.6607 63.3157 50.1813 63.0444 50.636C62.7731 51.0907 62.3991 51.45 61.9224 51.714C61.4531 51.978 60.9141 52.11 60.3054 52.11ZM60.3054 50.592C60.5694 50.592 60.8041 50.526 61.0094 50.394C61.2147 50.262 61.3761 50.0823 61.4934 49.855C61.6107 49.6277 61.6657 49.3673 61.6584 49.074C61.6657 48.7807 61.6107 48.5203 61.4934 48.293C61.3761 48.0583 61.2147 47.875 61.0094 47.743C60.8041 47.611 60.5694 47.545 60.3054 47.545C60.0414 47.545 59.8031 47.611 59.5904 47.743C59.3851 47.875 59.2237 48.0583 59.1064 48.293C58.9891 48.5203 58.9341 48.7807 58.9414 49.074C58.9341 49.3673 58.9891 49.6277 59.1064 49.855C59.2237 50.0823 59.3851 50.262 59.5904 50.394C59.8031 50.526 60.0414 50.592 60.3054 50.592ZM6.92568 66.11C6.50768 66.11 6.11901 66.055 5.75968 65.945C5.40768 65.835 5.08501 65.67 4.79168 65.45C4.50568 65.2227 4.24901 64.944 4.02168 64.614L4.83568 63.679C5.19501 64.1923 5.53968 64.548 5.86968 64.746C6.19968 64.944 6.59201 65.043 7.04668 65.043C7.32535 65.043 7.57835 64.999 7.80568 64.911C8.03301 64.823 8.21268 64.702 8.34468 64.548C8.47668 64.394 8.54268 64.218 8.54268 64.02C8.54268 63.888 8.52068 63.7633 8.47668 63.646C8.43268 63.5287 8.36301 63.4223 8.26768 63.327C8.17968 63.2317 8.06235 63.1437 7.91568 63.063C7.77635 62.9823 7.61135 62.9127 7.42068 62.854C7.23001 62.788 7.01001 62.733 6.76068 62.689C6.36468 62.6083 6.02001 62.502 5.72668 62.37C5.43335 62.238 5.18768 62.073 4.98968 61.875C4.79168 61.677 4.64501 61.4533 4.54968 61.204C4.45435 60.9473 4.40668 60.6613 4.40668 60.346C4.40668 60.038 4.47268 59.752 4.60468 59.488C4.74401 59.224 4.93101 58.9967 5.16568 58.806C5.40768 58.608 5.69001 58.4577 6.01268 58.355C6.33535 58.245 6.68368 58.19 7.05768 58.19C7.45368 58.19 7.81668 58.2413 8.14668 58.344C8.47668 58.4467 8.77001 58.6007 9.02668 58.806C9.28335 59.004 9.49601 59.2497 9.66468 59.543L8.82868 60.368C8.68201 60.126 8.51701 59.9243 8.33368 59.763C8.15035 59.5943 7.94868 59.4697 7.72868 59.389C7.50868 59.301 7.27401 59.257 7.02468 59.257C6.73868 59.257 6.48935 59.301 6.27668 59.389C6.06401 59.477 5.89535 59.6017 5.77068 59.763C5.65335 59.917 5.59468 60.1003 5.59468 60.313C5.59468 60.467 5.62401 60.61 5.68268 60.742C5.74135 60.8667 5.82935 60.9803 5.94668 61.083C6.07135 61.1783 6.23635 61.2663 6.44168 61.347C6.64701 61.4203 6.89268 61.4863 7.17868 61.545C7.58201 61.633 7.94135 61.7467 8.25668 61.886C8.57201 62.018 8.83968 62.1757 9.05968 62.359C9.27968 62.5423 9.44468 62.7477 9.55468 62.975C9.67201 63.2023 9.73068 63.448 9.73068 63.712C9.73068 64.2033 9.61701 64.6287 9.38968 64.988C9.16235 65.3473 8.83968 65.626 8.42168 65.824C8.00368 66.0147 7.50501 66.11 6.92568 66.11ZM11.8429 66V58.751H12.9759V66H11.8429ZM10.6439 61.325V60.225H14.3179V61.325H10.6439ZM15.8116 66.121C15.5696 66.121 15.3826 66.0513 15.2506 65.912C15.1186 65.7653 15.0526 65.56 15.0526 65.296C15.0526 65.054 15.1223 64.856 15.2616 64.702C15.401 64.548 15.5843 64.471 15.8116 64.471C16.0536 64.471 16.2406 64.5443 16.3726 64.691C16.5046 64.8303 16.5706 65.032 16.5706 65.296C16.5706 65.538 16.501 65.736 16.3616 65.89C16.2223 66.044 16.039 66.121 15.8116 66.121ZM22.9596 66.11C22.7102 66.11 22.4719 66.077 22.2446 66.011C22.0172 65.945 21.8046 65.8497 21.6066 65.725C21.4159 65.6003 21.2436 65.4537 21.0896 65.285C20.9356 65.109 20.8036 64.9183 20.6936 64.713L21.4416 63.932C21.5956 64.152 21.7349 64.328 21.8596 64.46C21.9916 64.592 22.1162 64.6947 22.2336 64.768C22.3509 64.8413 22.4682 64.8927 22.5856 64.922C22.7029 64.944 22.8276 64.955 22.9596 64.955C23.2236 64.955 23.4546 64.8963 23.6526 64.779C23.8506 64.6543 24.0046 64.4857 24.1146 64.273C24.2246 64.0603 24.2796 63.8183 24.2796 63.547V59.4H22.8716V58.3H26.6556V59.4H25.4676V63.657C25.4676 64.009 25.4052 64.3353 25.2806 64.636C25.1632 64.9293 24.9909 65.186 24.7636 65.406C24.5436 65.626 24.2796 65.7983 23.9716 65.923C23.6709 66.0477 23.3336 66.11 22.9596 66.11ZM30.0413 66.11C29.4767 66.11 28.9707 65.9817 28.5233 65.725C28.0833 65.461 27.735 65.1053 27.4783 64.658C27.2217 64.2033 27.0933 63.6863 27.0933 63.107C27.0933 62.5277 27.2217 62.0143 27.4783 61.567C27.735 61.1123 28.0833 60.7567 28.5233 60.5C28.9707 60.236 29.4767 60.104 30.0413 60.104C30.5987 60.104 31.0973 60.236 31.5373 60.5C31.9847 60.7567 32.3367 61.1123 32.5933 61.567C32.85 62.0143 32.9783 62.5277 32.9783 63.107C32.9783 63.6863 32.85 64.2033 32.5933 64.658C32.3367 65.1053 31.9847 65.461 31.5373 65.725C31.0973 65.9817 30.5987 66.11 30.0413 66.11ZM30.0413 65.076C30.386 65.076 30.694 64.9917 30.9653 64.823C31.2367 64.647 31.4493 64.4123 31.6033 64.119C31.7573 63.8183 31.8307 63.481 31.8233 63.107C31.8307 62.7257 31.7573 62.3883 31.6033 62.095C31.4493 61.7943 31.2367 61.5597 30.9653 61.391C30.694 61.2223 30.386 61.138 30.0413 61.138C29.6967 61.138 29.385 61.226 29.1063 61.402C28.835 61.5707 28.6223 61.8053 28.4683 62.106C28.3143 62.3993 28.241 62.733 28.2483 63.107C28.241 63.481 28.3143 63.8183 28.4683 64.119C28.6223 64.4123 28.835 64.647 29.1063 64.823C29.385 64.9917 29.6967 65.076 30.0413 65.076ZM36.1379 66.11C35.6539 66.11 35.2176 66.0257 34.8289 65.857C34.4402 65.6883 34.1176 65.439 33.8609 65.109L34.6309 64.449C34.8509 64.7057 35.0892 64.8927 35.3459 65.01C35.6099 65.12 35.9069 65.175 36.2369 65.175C36.3689 65.175 36.4899 65.1603 36.5999 65.131C36.7172 65.0943 36.8162 65.043 36.8969 64.977C36.9849 64.911 37.0509 64.834 37.0949 64.746C37.1389 64.6507 37.1609 64.548 37.1609 64.438C37.1609 64.2473 37.0912 64.0933 36.9519 63.976C36.8786 63.9247 36.7612 63.8697 36.5999 63.811C36.4459 63.745 36.2442 63.679 35.9949 63.613C35.5696 63.503 35.2212 63.3783 34.9499 63.239C34.6786 63.0997 34.4696 62.942 34.3229 62.766C34.2129 62.6267 34.1322 62.4763 34.0809 62.315C34.0296 62.1463 34.0039 61.963 34.0039 61.765C34.0039 61.523 34.0552 61.303 34.1579 61.105C34.2679 60.8997 34.4146 60.7237 34.5979 60.577C34.7886 60.423 35.0086 60.3057 35.2579 60.225C35.5146 60.1443 35.7859 60.104 36.0719 60.104C36.3432 60.104 36.6109 60.1407 36.8749 60.214C37.1462 60.2873 37.3956 60.3937 37.6229 60.533C37.8502 60.6723 38.0409 60.8373 38.1949 61.028L37.5459 61.743C37.4066 61.6037 37.2526 61.4827 37.0839 61.38C36.9226 61.27 36.7576 61.1857 36.5889 61.127C36.4202 61.0683 36.2662 61.039 36.1269 61.039C35.9729 61.039 35.8336 61.0537 35.7089 61.083C35.5842 61.1123 35.4779 61.1563 35.3899 61.215C35.3092 61.2737 35.2469 61.347 35.2029 61.435C35.1589 61.523 35.1369 61.622 35.1369 61.732C35.1442 61.8273 35.1662 61.919 35.2029 62.007C35.2469 62.0877 35.3056 62.1573 35.3789 62.216C35.4596 62.2747 35.5806 62.337 35.7419 62.403C35.9032 62.469 36.1086 62.5313 36.3579 62.59C36.7246 62.6853 37.0252 62.7917 37.2599 62.909C37.5019 63.019 37.6926 63.1473 37.8319 63.294C37.9786 63.4333 38.0812 63.5947 38.1399 63.778C38.1986 63.9613 38.2279 64.1667 38.2279 64.394C38.2279 64.724 38.1326 65.021 37.9419 65.285C37.7586 65.5417 37.5092 65.7433 37.1939 65.89C36.8786 66.0367 36.5266 66.11 36.1379 66.11ZM42.1716 66.11C41.5776 66.11 41.0496 65.9853 40.5876 65.736C40.1329 65.4793 39.7736 65.131 39.5096 64.691C39.2529 64.251 39.1246 63.745 39.1246 63.173C39.1246 62.7183 39.1979 62.304 39.3446 61.93C39.4912 61.556 39.6929 61.2333 39.9496 60.962C40.2136 60.6833 40.5252 60.4707 40.8846 60.324C41.2512 60.17 41.6472 60.093 42.0726 60.093C42.4466 60.093 42.7949 60.1663 43.1176 60.313C43.4402 60.4523 43.7189 60.6467 43.9536 60.896C44.1956 61.1453 44.3789 61.4423 44.5036 61.787C44.6356 62.1243 44.6979 62.4947 44.6906 62.898L44.6796 63.382H39.9606L39.7076 62.48H43.7006L43.5356 62.667V62.403C43.5136 62.161 43.4329 61.9447 43.2936 61.754C43.1542 61.5633 42.9782 61.413 42.7656 61.303C42.5529 61.193 42.3219 61.138 42.0726 61.138C41.6766 61.138 41.3429 61.215 41.0716 61.369C40.8002 61.5157 40.5949 61.7357 40.4556 62.029C40.3162 62.315 40.2466 62.6707 40.2466 63.096C40.2466 63.4993 40.3309 63.8513 40.4996 64.152C40.6682 64.4453 40.9066 64.6727 41.2146 64.834C41.5226 64.9953 41.8782 65.076 42.2816 65.076C42.5676 65.076 42.8316 65.0283 43.0736 64.933C43.3229 64.8377 43.5906 64.6653 43.8766 64.416L44.4486 65.219C44.2726 65.395 44.0562 65.549 43.7996 65.681C43.5502 65.813 43.2826 65.9193 42.9966 66C42.7179 66.0733 42.4429 66.11 42.1716 66.11ZM45.9219 68.42V60.225H47.0659V61.545L46.8899 61.446C46.9339 61.226 47.0585 61.017 47.2639 60.819C47.4692 60.6137 47.7185 60.4487 48.0119 60.324C48.3125 60.192 48.6205 60.126 48.9359 60.126C49.4565 60.126 49.9185 60.2543 50.3219 60.511C50.7252 60.7677 51.0442 61.1197 51.2789 61.567C51.5135 62.0143 51.6309 62.5277 51.6309 63.107C51.6309 63.679 51.5135 64.1923 51.2789 64.647C51.0515 65.0943 50.7362 65.45 50.3329 65.714C49.9295 65.9707 49.4749 66.099 48.9689 66.099C48.6315 66.099 48.3052 66.033 47.9899 65.901C47.6745 65.7617 47.4069 65.5857 47.1869 65.373C46.9669 65.1603 46.8312 64.9403 46.7799 64.713L47.0659 64.559V68.42H45.9219ZM48.7819 65.054C49.1192 65.054 49.4199 64.9697 49.6839 64.801C49.9479 64.6323 50.1569 64.4013 50.3109 64.108C50.4649 63.8147 50.5419 63.481 50.5419 63.107C50.5419 62.733 50.4649 62.403 50.3109 62.117C50.1642 61.8237 49.9589 61.5927 49.6949 61.424C49.4309 61.2553 49.1265 61.171 48.7819 61.171C48.4372 61.171 48.1329 61.2553 47.8689 61.424C47.6049 61.5853 47.3959 61.8127 47.2419 62.106C47.0879 62.3993 47.0109 62.733 47.0109 63.107C47.0109 63.481 47.0879 63.8147 47.2419 64.108C47.3959 64.4013 47.6049 64.6323 47.8689 64.801C48.1329 64.9697 48.4372 65.054 48.7819 65.054ZM52.8613 66V57.86H53.9943V61.413L53.7963 61.545C53.8697 61.2883 54.0127 61.0537 54.2253 60.841C54.438 60.621 54.691 60.445 54.9843 60.313C55.2777 60.1737 55.5783 60.104 55.8863 60.104C56.3263 60.104 56.693 60.192 56.9863 60.368C57.2797 60.5367 57.4997 60.797 57.6463 61.149C57.793 61.501 57.8663 61.9447 57.8663 62.48V66H56.7333V62.557C56.7333 62.227 56.6893 61.9557 56.6013 61.743C56.5133 61.523 56.3777 61.3653 56.1943 61.27C56.011 61.1673 55.7837 61.1233 55.5123 61.138C55.2923 61.138 55.0907 61.1747 54.9073 61.248C54.724 61.314 54.5627 61.4093 54.4233 61.534C54.2913 61.6587 54.185 61.8053 54.1043 61.974C54.031 62.1353 53.9943 62.3113 53.9943 62.502V66H53.4333C53.338 66 53.2427 66 53.1473 66C53.052 66 52.9567 66 52.8613 66ZM59.2493 60.775L58.8313 60.269C59.1173 60.137 59.352 59.9867 59.5353 59.818C59.7187 59.6493 59.8103 59.5027 59.8103 59.378C59.8103 59.2827 59.77 59.1983 59.6893 59.125C59.6087 59.0443 59.5353 58.9783 59.4693 58.927C59.308 58.795 59.198 58.685 59.1393 58.597C59.088 58.509 59.0623 58.4173 59.0623 58.322C59.0623 58.146 59.1247 58.0067 59.2493 57.904C59.374 57.794 59.5353 57.739 59.7333 57.739C59.9387 57.739 60.122 57.794 60.2833 57.904C60.452 58.0067 60.584 58.1497 60.6793 58.333C60.7747 58.5163 60.8223 58.7327 60.8223 58.982C60.8223 59.1727 60.782 59.3597 60.7013 59.543C60.6207 59.7263 60.507 59.8987 60.3603 60.06C60.221 60.2213 60.056 60.3643 59.8653 60.489C59.6747 60.6137 59.4693 60.709 59.2493 60.775ZM63.9816 66.11C63.4976 66.11 63.0613 66.0257 62.6726 65.857C62.284 65.6883 61.9613 65.439 61.7046 65.109L62.4746 64.449C62.6946 64.7057 62.933 64.8927 63.1896 65.01C63.4536 65.12 63.7506 65.175 64.0806 65.175C64.2126 65.175 64.3336 65.1603 64.4436 65.131C64.561 65.0943 64.66 65.043 64.7406 64.977C64.8286 64.911 64.8946 64.834 64.9386 64.746C64.9826 64.6507 65.0046 64.548 65.0046 64.438C65.0046 64.2473 64.935 64.0933 64.7956 63.976C64.7223 63.9247 64.605 63.8697 64.4436 63.811C64.2896 63.745 64.088 63.679 63.8386 63.613C63.4133 63.503 63.065 63.3783 62.7936 63.239C62.5223 63.0997 62.3133 62.942 62.1666 62.766C62.0566 62.6267 61.976 62.4763 61.9246 62.315C61.8733 62.1463 61.8476 61.963 61.8476 61.765C61.8476 61.523 61.899 61.303 62.0016 61.105C62.1116 60.8997 62.2583 60.7237 62.4416 60.577C62.6323 60.423 62.8523 60.3057 63.1016 60.225C63.3583 60.1443 63.6296 60.104 63.9156 60.104C64.187 60.104 64.4546 60.1407 64.7186 60.214C64.99 60.2873 65.2393 60.3937 65.4666 60.533C65.694 60.6723 65.8846 60.8373 66.0386 61.028L65.3896 61.743C65.2503 61.6037 65.0963 61.4827 64.9276 61.38C64.7663 61.27 64.6013 61.1857 64.4326 61.127C64.264 61.0683 64.11 61.039 63.9706 61.039C63.8166 61.039 63.6773 61.0537 63.5526 61.083C63.428 61.1123 63.3216 61.1563 63.2336 61.215C63.153 61.2737 63.0906 61.347 63.0466 61.435C63.0026 61.523 62.9806 61.622 62.9806 61.732C62.988 61.8273 63.01 61.919 63.0466 62.007C63.0906 62.0877 63.1493 62.1573 63.2226 62.216C63.3033 62.2747 63.4243 62.337 63.5856 62.403C63.747 62.469 63.9523 62.5313 64.2016 62.59C64.5683 62.6853 64.869 62.7917 65.1036 62.909C65.3456 63.019 65.5363 63.1473 65.6756 63.294C65.8223 63.4333 65.925 63.5947 65.9836 63.778C66.0423 63.9613 66.0716 64.1667 66.0716 64.394C66.0716 64.724 65.9763 65.021 65.7856 65.285C65.6023 65.5417 65.353 65.7433 65.0376 65.89C64.7223 66.0367 64.3703 66.11 63.9816 66.11Z" fill="black"/>
</svg>
