<svg width="65" height="66" viewBox="0 0 65 66" fill="none" xmlns="http://www.w3.org/2000/svg">
<path d="M17.5 0.5L46 1L63.5 42.5L64.5 65.5H0V42.5L17.5 0.5Z" fill="#FF0000" fill-opacity="0.31"/>
<path d="M33.5657 4H28.4343C28.0349 4 27.7967 4.44507 28.0182 4.77735L29.416 6.87404C29.4708 6.95617 29.5 7.05268 29.5 7.15139V8.5V12.5C29.5 12.7761 29.2761 13 29 13H25H22.1514C22.0527 13 21.9562 12.9708 21.874 12.916L19.7773 11.5182C19.4451 11.2967 19 11.5349 19 11.9343V17.0657C19 17.4651 19.4451 17.7033 19.7774 17.4818L21.874 16.084C21.9562 16.0292 22.0527 16 22.1514 16H25H29C29.2761 16 29.5 16.2239 29.5 16.5V20V35.882C29.5 35.9596 29.4819 36.0361 29.4472 36.1056L28.3618 38.2764C28.1956 38.6088 28.4373 39 28.809 39H33.191C33.5627 39 33.8044 38.6088 33.6382 38.2764L32.5528 36.1056C32.5181 36.0361 32.5 35.9596 32.5 35.882V20V16.5C32.5 16.2239 32.7239 16 33 16H37H39.8486C39.9473 16 40.0438 16.0292 40.126 16.084L42.2227 17.4818C42.5549 17.7033 43 17.4651 43 17.0657V11.9343C43 11.5349 42.5549 11.2967 42.2227 11.5182L40.126 12.916C40.0438 12.9708 39.9473 13 39.8486 13H37H33C32.7239 13 32.5 12.7761 32.5 12.5V8.5V7.15139C32.5 7.05268 32.5292 6.95617 32.584 6.87404L33.9818 4.77735C34.2033 4.44507 33.9651 4 33.5657 4Z" fill="#4F4533"/>
<path d="M29.5 8.5V12.5C29.5 12.7761 29.2761 13 29 13H25M29.5 8.5V7.15139C29.5 7.05268 29.4708 6.95617 29.416 6.87404L28.0182 4.77735C27.7967 4.44507 28.0349 4 28.4343 4H33.5657C33.9651 4 34.2033 4.44507 33.9818 4.77735L32.584 6.87404C32.5292 6.95617 32.5 7.05268 32.5 7.15139V8.5M29.5 8.5C27 8.5 25 10.5 25 13M25 13H22.1514C22.0527 13 21.9562 12.9708 21.874 12.916L19.7773 11.5182C19.4451 11.2967 19 11.5349 19 11.9343V17.0657C19 17.4651 19.4451 17.7033 19.7774 17.4818L21.874 16.084C21.9562 16.0292 22.0527 16 22.1514 16H25M32.5 8.5V12.5C32.5 12.7761 32.7239 13 33 13H37M32.5 8.5C35 8.5 37 10.5 37 13M37 13H39.8486C39.9473 13 40.0438 12.9708 40.126 12.916L42.2227 11.5182C42.5549 11.2967 43 11.5349 43 11.9343V17.0657C43 17.4651 42.5549 17.7033 42.2226 17.4818L40.126 16.084C40.0438 16.0292 39.9473 16 39.8486 16H37M37 16H33C32.7239 16 32.5 16.2239 32.5 16.5V20M37 16C37 18.5 35 20 32.5 20M32.5 20V35.882C32.5 35.9596 32.5181 36.0361 32.5528 36.1056L33.6382 38.2764C33.8044 38.6088 33.5627 39 33.191 39H28.809C28.4373 39 28.1956 38.6088 28.3618 38.2764L29.4472 36.1056C29.4819 36.0361 29.5 35.9596 29.5 35.882V20M29.5 20V16.5C29.5 16.2239 29.2761 16 29 16H25M29.5 20C27 20 25 18.5 25 16" stroke="black"/>
<path d="M13.2243 49V41.3H16.5463C17.0303 41.3 17.4593 41.41 17.8333 41.63C18.2147 41.85 18.5153 42.1507 18.7353 42.532C18.9627 42.9133 19.0763 43.3423 19.0763 43.819C19.0763 44.3177 18.9627 44.765 18.7353 45.161C18.5153 45.5497 18.2147 45.8577 17.8333 46.085C17.4593 46.3123 17.0303 46.426 16.5463 46.426H15.0943V49H13.2243ZM15.0613 44.787H16.2823C16.4437 44.787 16.5903 44.7467 16.7223 44.666C16.8543 44.5853 16.9607 44.4753 17.0413 44.336C17.122 44.1967 17.1623 44.0353 17.1623 43.852C17.1623 43.6613 17.122 43.5 17.0413 43.368C16.9607 43.236 16.8543 43.1333 16.7223 43.06C16.5903 42.9867 16.4437 42.95 16.2823 42.95H15.0613V44.787ZM22.3691 49.099C21.8778 49.099 21.4378 48.9707 21.0491 48.714C20.6678 48.45 20.3635 48.0907 20.1361 47.636C19.9088 47.174 19.7951 46.6533 19.7951 46.074C19.7951 45.48 19.9088 44.9557 20.1361 44.501C20.3635 44.0463 20.6751 43.6907 21.0711 43.434C21.4671 43.17 21.9181 43.038 22.4241 43.038C22.7028 43.038 22.9558 43.0783 23.1831 43.159C23.4178 43.2397 23.6231 43.3533 23.7991 43.5C23.9751 43.6393 24.1255 43.8043 24.2501 43.995C24.3748 44.1783 24.4665 44.3763 24.5251 44.589L24.1621 44.545V43.159H25.9111V49H24.1291V47.592L24.5251 47.581C24.4665 47.7863 24.3711 47.9807 24.2391 48.164C24.1071 48.3473 23.9458 48.5087 23.7551 48.648C23.5645 48.7873 23.3518 48.8973 23.1171 48.978C22.8825 49.0587 22.6331 49.099 22.3691 49.099ZM22.8531 47.614C23.1245 47.614 23.3591 47.5517 23.5571 47.427C23.7551 47.3023 23.9091 47.1263 24.0191 46.899C24.1291 46.6643 24.1841 46.3893 24.1841 46.074C24.1841 45.7587 24.1291 45.4873 24.0191 45.26C23.9091 45.0253 23.7551 44.8457 23.5571 44.721C23.3591 44.589 23.1245 44.523 22.8531 44.523C22.5891 44.523 22.3581 44.589 22.1601 44.721C21.9695 44.8457 21.8191 45.0253 21.7091 45.26C21.5991 45.4873 21.5441 45.7587 21.5441 46.074C21.5441 46.3893 21.5991 46.6643 21.7091 46.899C21.8191 47.1263 21.9695 47.3023 22.1601 47.427C22.3581 47.5517 22.5891 47.614 22.8531 47.614ZM28.0722 51.53L29.4032 48.395L29.4252 49.297L26.6092 43.159H28.6002L29.8322 46.096C29.8982 46.2427 29.9605 46.4003 30.0192 46.569C30.0779 46.7377 30.1219 46.899 30.1512 47.053L29.9092 47.196C29.9532 47.086 30.0009 46.9503 30.0522 46.789C30.1109 46.6203 30.1732 46.4407 30.2392 46.25L31.3172 43.159H33.3192L30.8332 49L29.8212 51.53H28.0722ZM36.0181 49.11C35.4461 49.11 34.9401 49.0183 34.5001 48.835C34.0674 48.6517 33.7227 48.406 33.4661 48.098L34.5331 47.174C34.7604 47.4013 35.0171 47.57 35.3031 47.68C35.5891 47.7827 35.8604 47.834 36.1171 47.834C36.2197 47.834 36.3114 47.823 36.3921 47.801C36.4727 47.779 36.5387 47.7497 36.5901 47.713C36.6487 47.669 36.6927 47.6213 36.7221 47.57C36.7514 47.5113 36.7661 47.4453 36.7661 47.372C36.7661 47.2253 36.7001 47.1117 36.5681 47.031C36.5021 46.9943 36.3921 46.9503 36.2381 46.899C36.0841 46.8477 35.8861 46.789 35.6441 46.723C35.2994 46.635 34.9987 46.5323 34.7421 46.415C34.4927 46.2903 34.2874 46.1473 34.1261 45.986C33.9794 45.832 33.8657 45.6633 33.7851 45.48C33.7044 45.2893 33.6641 45.0767 33.6641 44.842C33.6641 44.5707 33.7264 44.325 33.8511 44.105C33.9831 43.885 34.1554 43.6943 34.3681 43.533C34.5881 43.3717 34.8374 43.2507 35.1161 43.17C35.4021 43.082 35.6954 43.038 35.9961 43.038C36.3187 43.038 36.6267 43.0747 36.9201 43.148C37.2134 43.2213 37.4847 43.324 37.7341 43.456C37.9907 43.588 38.2181 43.7457 38.4161 43.929L37.4921 44.963C37.3601 44.8383 37.2097 44.7283 37.0411 44.633C36.8797 44.5303 36.7111 44.4497 36.5351 44.391C36.3591 44.3323 36.1977 44.303 36.0511 44.303C35.9411 44.303 35.8421 44.314 35.7541 44.336C35.6734 44.3507 35.6037 44.38 35.5451 44.424C35.4864 44.4607 35.4424 44.5083 35.4131 44.567C35.3837 44.6183 35.3691 44.6807 35.3691 44.754C35.3691 44.8273 35.3874 44.897 35.4241 44.963C35.4681 45.029 35.5267 45.084 35.6001 45.128C35.6734 45.172 35.7907 45.2233 35.9521 45.282C36.1134 45.3333 36.3334 45.3993 36.6121 45.48C36.9567 45.5753 37.2537 45.6817 37.5031 45.799C37.7524 45.9163 37.9504 46.0557 38.0971 46.217C38.2144 46.3417 38.3024 46.4883 38.3611 46.657C38.4197 46.8183 38.4491 46.9943 38.4491 47.185C38.4491 47.559 38.3427 47.8927 38.1301 48.186C37.9247 48.472 37.6387 48.6993 37.2721 48.868C36.9054 49.0293 36.4874 49.11 36.0181 49.11ZM42.2454 49.11C41.6367 49.11 41.094 48.978 40.6174 48.714C40.148 48.45 39.774 48.0907 39.4954 47.636C39.224 47.1813 39.0884 46.6607 39.0884 46.074C39.0884 45.4873 39.224 44.9667 39.4954 44.512C39.774 44.0573 40.148 43.698 40.6174 43.434C41.094 43.17 41.6367 43.038 42.2454 43.038C42.854 43.038 43.393 43.17 43.8624 43.434C44.339 43.698 44.713 44.0573 44.9844 44.512C45.2557 44.9667 45.3914 45.4873 45.3914 46.074C45.3914 46.6607 45.2557 47.1813 44.9844 47.636C44.713 48.0907 44.339 48.45 43.8624 48.714C43.393 48.978 42.854 49.11 42.2454 49.11ZM42.2454 47.592C42.5094 47.592 42.744 47.526 42.9494 47.394C43.1547 47.262 43.316 47.0823 43.4334 46.855C43.5507 46.6277 43.6057 46.3673 43.5984 46.074C43.6057 45.7807 43.5507 45.5203 43.4334 45.293C43.316 45.0583 43.1547 44.875 42.9494 44.743C42.744 44.611 42.5094 44.545 42.2454 44.545C41.9814 44.545 41.743 44.611 41.5304 44.743C41.325 44.875 41.1637 45.0583 41.0464 45.293C40.929 45.5203 40.874 45.7807 40.8814 46.074C40.874 46.3673 40.929 46.6277 41.0464 46.855C41.1637 47.0823 41.325 47.262 41.5304 47.394C41.743 47.526 41.9814 47.592 42.2454 47.592ZM46.5422 49V43.159H48.2142L48.2692 44.347L47.9172 44.479C47.9979 44.215 48.1409 43.9767 48.3462 43.764C48.5589 43.544 48.8119 43.368 49.1052 43.236C49.3986 43.104 49.7066 43.038 50.0292 43.038C50.4692 43.038 50.8396 43.1297 51.1402 43.313C51.4409 43.489 51.6682 43.7567 51.8222 44.116C51.9762 44.468 52.0532 44.9007 52.0532 45.414V49H50.2822V45.557C50.2822 45.3223 50.2492 45.128 50.1832 44.974C50.1172 44.82 50.0146 44.7063 49.8752 44.633C49.7432 44.5523 49.5782 44.5157 49.3802 44.523C49.2262 44.523 49.0832 44.5487 48.9512 44.6C48.8192 44.644 48.7056 44.7137 48.6102 44.809C48.5149 44.897 48.4379 44.9997 48.3792 45.117C48.3279 45.2343 48.3022 45.3627 48.3022 45.502V49H47.4332C47.2279 49 47.0519 49 46.9052 49C46.7586 49 46.6376 49 46.5422 49ZM5.67177 63.11C5.25377 63.11 4.86511 63.055 4.50577 62.945C4.15377 62.835 3.83111 62.67 3.53777 62.45C3.25177 62.2227 2.99511 61.944 2.76777 61.614L3.58177 60.679C3.94111 61.1923 4.28577 61.548 4.61577 61.746C4.94577 61.944 5.33811 62.043 5.79277 62.043C6.07144 62.043 6.32444 61.999 6.55177 61.911C6.77911 61.823 6.95877 61.702 7.09077 61.548C7.22277 61.394 7.28877 61.218 7.28877 61.02C7.28877 60.888 7.26677 60.7633 7.22277 60.646C7.17877 60.5287 7.10911 60.4223 7.01377 60.327C6.92577 60.2317 6.80844 60.1437 6.66177 60.063C6.52244 59.9823 6.35744 59.9127 6.16677 59.854C5.97611 59.788 5.75611 59.733 5.50677 59.689C5.11077 59.6083 4.76611 59.502 4.47277 59.37C4.17944 59.238 3.93377 59.073 3.73577 58.875C3.53777 58.677 3.39111 58.4533 3.29577 58.204C3.20044 57.9473 3.15277 57.6613 3.15277 57.346C3.15277 57.038 3.21877 56.752 3.35077 56.488C3.49011 56.224 3.67711 55.9967 3.91177 55.806C4.15377 55.608 4.43611 55.4577 4.75877 55.355C5.08144 55.245 5.42977 55.19 5.80377 55.19C6.19977 55.19 6.56277 55.2413 6.89277 55.344C7.22277 55.4467 7.51611 55.6007 7.77277 55.806C8.02944 56.004 8.24211 56.2497 8.41077 56.543L7.57477 57.368C7.42811 57.126 7.26311 56.9243 7.07977 56.763C6.89644 56.5943 6.69477 56.4697 6.47477 56.389C6.25477 56.301 6.02011 56.257 5.77077 56.257C5.48477 56.257 5.23544 56.301 5.02277 56.389C4.81011 56.477 4.64144 56.6017 4.51677 56.763C4.39944 56.917 4.34077 57.1003 4.34077 57.313C4.34077 57.467 4.37011 57.61 4.42877 57.742C4.48744 57.8667 4.57544 57.9803 4.69277 58.083C4.81744 58.1783 4.98244 58.2663 5.18777 58.347C5.39311 58.4203 5.63877 58.4863 5.92477 58.545C6.32811 58.633 6.68744 58.7467 7.00277 58.886C7.31811 59.018 7.58577 59.1757 7.80577 59.359C8.02577 59.5423 8.19077 59.7477 8.30077 59.975C8.41811 60.2023 8.47677 60.448 8.47677 60.712C8.47677 61.2033 8.36311 61.6287 8.13577 61.988C7.90844 62.3473 7.58577 62.626 7.16777 62.824C6.74977 63.0147 6.25111 63.11 5.67177 63.11ZM12.096 63.11C11.6194 63.11 11.183 62.978 10.787 62.714C10.3984 62.45 10.0867 62.0907 9.85203 61.636C9.61736 61.1813 9.50003 60.668 9.50003 60.096C9.50003 59.5167 9.61736 59.0033 9.85203 58.556C10.094 58.1013 10.4167 57.7457 10.82 57.489C11.2307 57.2323 11.689 57.104 12.195 57.104C12.4957 57.104 12.7707 57.148 13.02 57.236C13.2694 57.324 13.4857 57.4487 13.669 57.61C13.8597 57.764 14.0137 57.9437 14.131 58.149C14.2557 58.3543 14.3327 58.5743 14.362 58.809L14.109 58.721V57.225H15.253V63H14.109V61.625L14.373 61.548C14.329 61.746 14.2374 61.9403 14.098 62.131C13.966 62.3143 13.7937 62.4793 13.581 62.626C13.3757 62.7727 13.1447 62.89 12.888 62.978C12.6387 63.066 12.3747 63.11 12.096 63.11ZM12.393 62.065C12.7377 62.065 13.042 61.9807 13.306 61.812C13.57 61.6433 13.7754 61.4123 13.922 61.119C14.076 60.8183 14.153 60.4773 14.153 60.096C14.153 59.722 14.076 59.3883 13.922 59.095C13.7754 58.8017 13.57 58.5707 13.306 58.402C13.042 58.2333 12.7377 58.149 12.393 58.149C12.0557 58.149 11.755 58.2333 11.491 58.402C11.2344 58.5707 11.029 58.8017 10.875 59.095C10.7284 59.3883 10.655 59.722 10.655 60.096C10.655 60.4773 10.7284 60.8183 10.875 61.119C11.029 61.4123 11.2344 61.6433 11.491 61.812C11.755 61.9807 12.0557 62.065 12.393 62.065ZM16.835 63V57.225H17.968V58.413L17.77 58.545C17.8433 58.2883 17.9863 58.0537 18.199 57.841C18.4116 57.621 18.6646 57.445 18.958 57.313C19.2513 57.1737 19.552 57.104 19.86 57.104C20.3 57.104 20.6666 57.192 20.96 57.368C21.2533 57.5367 21.4733 57.797 21.62 58.149C21.7666 58.501 21.84 58.9447 21.84 59.48V63H20.707V59.557C20.707 59.227 20.663 58.9557 20.575 58.743C20.487 58.523 20.3513 58.3653 20.168 58.27C19.9846 58.1673 19.7573 58.1233 19.486 58.138C19.266 58.138 19.0643 58.1747 18.881 58.248C18.6976 58.314 18.5363 58.4093 18.397 58.534C18.265 58.6587 18.1586 58.8053 18.078 58.974C18.0046 59.1353 17.968 59.3113 17.968 59.502V63H17.407C17.3116 63 17.2163 63 17.121 63C17.0256 63 16.9303 63 16.835 63ZM25.943 63L28.924 55.3H30.134L33.093 63H31.828L30.068 58.358C30.046 58.3067 30.002 58.182 29.936 57.984C29.8773 57.786 29.8076 57.566 29.727 57.324C29.6463 57.082 29.573 56.862 29.507 56.664C29.441 56.4587 29.397 56.3267 29.375 56.268L29.628 56.257C29.584 56.3817 29.529 56.5393 29.463 56.73C29.4043 56.9207 29.3383 57.1223 29.265 57.335C29.199 57.5477 29.133 57.7493 29.067 57.94C29.001 58.1233 28.946 58.2773 28.902 58.402L27.153 63H25.943ZM27.263 61.086L27.703 59.942H31.201L31.707 61.086H27.263ZM34.1621 63V57.225H35.2951V58.413L35.0971 58.545C35.1705 58.2883 35.3135 58.0537 35.5261 57.841C35.7388 57.621 35.9918 57.445 36.2851 57.313C36.5785 57.1737 36.8791 57.104 37.1871 57.104C37.6271 57.104 37.9938 57.192 38.2871 57.368C38.5805 57.5367 38.8005 57.797 38.9471 58.149C39.0938 58.501 39.1671 58.9447 39.1671 59.48V63H38.0341V59.557C38.0341 59.227 37.9901 58.9557 37.9021 58.743C37.8141 58.523 37.6785 58.3653 37.4951 58.27C37.3118 58.1673 37.0845 58.1233 36.8131 58.138C36.5931 58.138 36.3915 58.1747 36.2081 58.248C36.0248 58.314 35.8635 58.4093 35.7241 58.534C35.5921 58.6587 35.4858 58.8053 35.4051 58.974C35.3318 59.1353 35.2951 59.3113 35.2951 59.502V63H34.7341C34.6388 63 34.5435 63 34.4481 63C34.3528 63 34.2575 63 34.1621 63ZM43.1131 63.11C42.5851 63.11 42.1121 62.9817 41.6941 62.725C41.2834 62.461 40.9571 62.1053 40.7151 61.658C40.4731 61.2033 40.3521 60.6863 40.3521 60.107C40.3521 59.5277 40.4694 59.0143 40.7041 58.567C40.9461 58.1123 41.2724 57.7567 41.6831 57.5C42.0938 57.236 42.5594 57.104 43.0801 57.104C43.3661 57.104 43.6411 57.1517 43.9051 57.247C44.1764 57.335 44.4184 57.4597 44.6311 57.621C44.8438 57.775 45.0088 57.9473 45.1261 58.138C45.2508 58.3213 45.3131 58.5083 45.3131 58.699L44.9831 58.721V54.86H46.1161V63H44.9831V61.625H45.2031C45.2031 61.801 45.1444 61.977 45.0271 62.153C44.9098 62.3217 44.7521 62.4793 44.5541 62.626C44.3634 62.7727 44.1398 62.89 43.8831 62.978C43.6338 63.066 43.3771 63.11 43.1131 63.11ZM43.2671 62.131C43.6118 62.131 43.9161 62.043 44.1801 61.867C44.4441 61.691 44.6494 61.4527 44.7961 61.152C44.9501 60.844 45.0271 60.4957 45.0271 60.107C45.0271 59.7183 44.9501 59.3737 44.7961 59.073C44.6494 58.765 44.4441 58.523 44.1801 58.347C43.9161 58.171 43.6118 58.083 43.2671 58.083C42.9224 58.083 42.6181 58.171 42.3541 58.347C42.0901 58.523 41.8811 58.765 41.7271 59.073C41.5804 59.3737 41.5071 59.7183 41.5071 60.107C41.5071 60.4957 41.5804 60.844 41.7271 61.152C41.8811 61.4527 42.0901 61.691 42.3541 61.867C42.6181 62.043 42.9224 62.131 43.2671 62.131ZM47.6758 63V57.225H48.8198V59.04L48.7098 58.6C48.7905 58.3213 48.9261 58.0683 49.1168 57.841C49.3148 57.6137 49.5385 57.434 49.7878 57.302C50.0445 57.17 50.3085 57.104 50.5798 57.104C50.7045 57.104 50.8218 57.115 50.9318 57.137C51.0491 57.159 51.1408 57.1847 51.2068 57.214L50.9098 58.446C50.8218 58.4093 50.7228 58.38 50.6128 58.358C50.5101 58.3287 50.4075 58.314 50.3048 58.314C50.1068 58.314 49.9161 58.3543 49.7328 58.435C49.5568 58.5083 49.3991 58.6147 49.2598 58.754C49.1278 58.886 49.0215 59.0437 48.9408 59.227C48.8601 59.403 48.8198 59.5973 48.8198 59.81V63H47.6758ZM54.5602 63.11C53.9662 63.11 53.4382 62.9853 52.9762 62.736C52.5216 62.4793 52.1622 62.131 51.8982 61.691C51.6416 61.251 51.5132 60.745 51.5132 60.173C51.5132 59.7183 51.5866 59.304 51.7332 58.93C51.8799 58.556 52.0816 58.2333 52.3382 57.962C52.6022 57.6833 52.9139 57.4707 53.2732 57.324C53.6399 57.17 54.0359 57.093 54.4612 57.093C54.8352 57.093 55.1836 57.1663 55.5062 57.313C55.8289 57.4523 56.1076 57.6467 56.3422 57.896C56.5842 58.1453 56.7676 58.4423 56.8922 58.787C57.0242 59.1243 57.0866 59.4947 57.0792 59.898L57.0682 60.382H52.3492L52.0962 59.48H56.0892L55.9242 59.667V59.403C55.9022 59.161 55.8216 58.9447 55.6822 58.754C55.5429 58.5633 55.3669 58.413 55.1542 58.303C54.9416 58.193 54.7106 58.138 54.4612 58.138C54.0652 58.138 53.7316 58.215 53.4602 58.369C53.1889 58.5157 52.9836 58.7357 52.8442 59.029C52.7049 59.315 52.6352 59.6707 52.6352 60.096C52.6352 60.4993 52.7196 60.8513 52.8882 61.152C53.0569 61.4453 53.2952 61.6727 53.6032 61.834C53.9112 61.9953 54.2669 62.076 54.6702 62.076C54.9562 62.076 55.2202 62.0283 55.4622 61.933C55.7116 61.8377 55.9792 61.6653 56.2652 61.416L56.8372 62.219C56.6612 62.395 56.4449 62.549 56.1882 62.681C55.9389 62.813 55.6712 62.9193 55.3852 63C55.1066 63.0733 54.8316 63.11 54.5602 63.11ZM60.2356 63.11C59.7516 63.11 59.3152 63.0257 58.9266 62.857C58.5379 62.6883 58.2152 62.439 57.9586 62.109L58.7286 61.449C58.9486 61.7057 59.1869 61.8927 59.4436 62.01C59.7076 62.12 60.0046 62.175 60.3346 62.175C60.4666 62.175 60.5876 62.1603 60.6976 62.131C60.8149 62.0943 60.9139 62.043 60.9946 61.977C61.0826 61.911 61.1486 61.834 61.1926 61.746C61.2366 61.6507 61.2586 61.548 61.2586 61.438C61.2586 61.2473 61.1889 61.0933 61.0496 60.976C60.9762 60.9247 60.8589 60.8697 60.6976 60.811C60.5436 60.745 60.3419 60.679 60.0926 60.613C59.6672 60.503 59.3189 60.3783 59.0476 60.239C58.7762 60.0997 58.5672 59.942 58.4206 59.766C58.3106 59.6267 58.2299 59.4763 58.1786 59.315C58.1272 59.1463 58.1016 58.963 58.1016 58.765C58.1016 58.523 58.1529 58.303 58.2556 58.105C58.3656 57.8997 58.5122 57.7237 58.6956 57.577C58.8862 57.423 59.1062 57.3057 59.3556 57.225C59.6122 57.1443 59.8836 57.104 60.1696 57.104C60.4409 57.104 60.7086 57.1407 60.9726 57.214C61.2439 57.2873 61.4932 57.3937 61.7206 57.533C61.9479 57.6723 62.1386 57.8373 62.2926 58.028L61.6436 58.743C61.5042 58.6037 61.3502 58.4827 61.1816 58.38C61.0202 58.27 60.8552 58.1857 60.6866 58.127C60.5179 58.0683 60.3639 58.039 60.2246 58.039C60.0706 58.039 59.9312 58.0537 59.8066 58.083C59.6819 58.1123 59.5756 58.1563 59.4876 58.215C59.4069 58.2737 59.3446 58.347 59.3006 58.435C59.2566 58.523 59.2346 58.622 59.2346 58.732C59.2419 58.8273 59.2639 58.919 59.3006 59.007C59.3446 59.0877 59.4032 59.1573 59.4766 59.216C59.5572 59.2747 59.6782 59.337 59.8396 59.403C60.0009 59.469 60.2062 59.5313 60.4556 59.59C60.8222 59.6853 61.1229 59.7917 61.3576 59.909C61.5996 60.019 61.7902 60.1473 61.9296 60.294C62.0762 60.4333 62.1789 60.5947 62.2376 60.778C62.2962 60.9613 62.3256 61.1667 62.3256 61.394C62.3256 61.724 62.2302 62.021 62.0396 62.285C61.8562 62.5417 61.6069 62.7433 61.2916 62.89C60.9762 63.0367 60.6242 63.11 60.2356 63.11Z" fill="black"/>
</svg>
