<svg width="89" height="55" viewBox="0 0 89 55" fill="none" xmlns="http://www.w3.org/2000/svg">
<path d="M87 54H1.5L0.5 0H24L40 11L68 14.5L88 28L87 54Z" fill="#FF0000" fill-opacity="0.31"/>
<path d="M17.5657 2H12.4343C12.0349 2 11.7967 2.44507 12.0182 2.77735L13.416 4.87404C13.4708 4.95617 13.5 5.05268 13.5 5.15139V6.5V10.5C13.5 10.7761 13.2761 11 13 11H9H6.15139C6.05268 11 5.95617 10.9708 5.87404 10.916L3.77735 9.51823C3.44507 9.29671 3 9.53491 3 9.93426V15.0657C3 15.4651 3.44507 15.7033 3.77735 15.4818L5.87404 14.084C5.95617 14.0292 6.05268 14 6.15139 14H9H13C13.2761 14 13.5 14.2239 13.5 14.5V18V33.882C13.5 33.9596 13.4819 34.0361 13.4472 34.1056L12.3618 36.2764C12.1956 36.6088 12.4373 37 12.809 37H17.191C17.5627 37 17.8044 36.6088 17.6382 36.2764L16.5528 34.1056C16.5181 34.0361 16.5 33.9596 16.5 33.882V18V14.5C16.5 14.2239 16.7239 14 17 14H21H23.8486C23.9473 14 24.0438 14.0292 24.126 14.084L26.2227 15.4818C26.5549 15.7033 27 15.4651 27 15.0657V9.93426C27 9.53491 26.5549 9.29671 26.2227 9.51823L24.126 10.916C24.0438 10.9708 23.9473 11 23.8486 11H21H17C16.7239 11 16.5 10.7761 16.5 10.5V6.5V5.15139C16.5 5.05268 16.5292 4.95617 16.584 4.87404L17.9818 2.77735C18.2033 2.44507 17.9651 2 17.5657 2Z" fill="#4F4533"/>
<path d="M13.5 6.5V10.5C13.5 10.7761 13.2761 11 13 11H9M13.5 6.5V5.15139C13.5 5.05268 13.4708 4.95617 13.416 4.87404L12.0182 2.77735C11.7967 2.44507 12.0349 2 12.4343 2H17.5657C17.9651 2 18.2033 2.44507 17.9818 2.77735L16.584 4.87404C16.5292 4.95617 16.5 5.05268 16.5 5.15139V6.5M13.5 6.5C11 6.5 9 8.5 9 11M9 11H6.15139C6.05268 11 5.95617 10.9708 5.87404 10.916L3.77735 9.51823C3.44507 9.29671 3 9.53491 3 9.93426V15.0657C3 15.4651 3.44507 15.7033 3.77735 15.4818L5.87404 14.084C5.95617 14.0292 6.05268 14 6.15139 14H9M16.5 6.5V10.5C16.5 10.7761 16.7239 11 17 11H21M16.5 6.5C19 6.5 21 8.5 21 11M21 11H23.8486C23.9473 11 24.0438 10.9708 24.126 10.916L26.2227 9.51823C26.5549 9.29671 27 9.53491 27 9.93426V15.0657C27 15.4651 26.5549 15.7033 26.2226 15.4818L24.126 14.084C24.0438 14.0292 23.9473 14 23.8486 14H21M21 14H17C16.7239 14 16.5 14.2239 16.5 14.5V18M21 14C21 16.5 19 18 16.5 18M16.5 18V33.882C16.5 33.9596 16.5181 34.0361 16.5528 34.1056L17.6382 36.2764C17.8044 36.6088 17.5627 37 17.191 37H12.809C12.4373 37 12.1956 36.6088 12.3618 36.2764L13.4472 34.1056C13.4819 34.0361 13.5 33.9596 13.5 33.882V18M13.5 18V14.5C13.5 14.2239 13.2761 14 13 14H9M13.5 18C11 18 9 16.5 9 14" stroke="black"/>
<path d="M39.3474 23V15.3H42.6694C43.1534 15.3 43.5824 15.41 43.9564 15.63C44.3377 15.85 44.6384 16.1507 44.8584 16.532C45.0857 16.9133 45.1994 17.3423 45.1994 17.819C45.1994 18.3177 45.0857 18.765 44.8584 19.161C44.6384 19.5497 44.3377 19.8577 43.9564 20.085C43.5824 20.3123 43.1534 20.426 42.6694 20.426H41.2174V23H39.3474ZM41.1844 18.787H42.4054C42.5667 18.787 42.7134 18.7467 42.8454 18.666C42.9774 18.5853 43.0837 18.4753 43.1644 18.336C43.2451 18.1967 43.2854 18.0353 43.2854 17.852C43.2854 17.6613 43.2451 17.5 43.1644 17.368C43.0837 17.236 42.9774 17.1333 42.8454 17.06C42.7134 16.9867 42.5667 16.95 42.4054 16.95H41.1844V18.787ZM46.4436 23V17.159H48.1156L48.1926 19.062L47.8626 18.699C47.9506 18.3837 48.0936 18.1013 48.2916 17.852C48.4969 17.6027 48.7353 17.4047 49.0066 17.258C49.2779 17.1113 49.5676 17.038 49.8756 17.038C50.0076 17.038 50.1286 17.049 50.2386 17.071C50.3559 17.093 50.4623 17.1187 50.5576 17.148L50.0736 19.095C49.9929 19.0437 49.8829 19.0033 49.7436 18.974C49.6116 18.9373 49.4723 18.919 49.3256 18.919C49.1643 18.919 49.0139 18.9483 48.8746 19.007C48.7353 19.0583 48.6179 19.1353 48.5226 19.238C48.4273 19.3407 48.3503 19.4617 48.2916 19.601C48.2403 19.7403 48.2146 19.898 48.2146 20.074V23H46.4436ZM51.5485 23V17.159H53.3085V23H51.5485ZM52.4285 16.004C52.0985 16.004 51.8381 15.927 51.6475 15.773C51.4641 15.6117 51.3725 15.3843 51.3725 15.091C51.3725 14.827 51.4678 14.6107 51.6585 14.442C51.8491 14.2733 52.1058 14.189 52.4285 14.189C52.7585 14.189 53.0151 14.2697 53.1985 14.431C53.3818 14.585 53.4735 14.805 53.4735 15.091C53.4735 15.3623 53.3781 15.5823 53.1875 15.751C53.0041 15.9197 52.7511 16.004 52.4285 16.004ZM57.5252 23.11C56.9605 23.11 56.4545 22.978 56.0072 22.714C55.5598 22.45 55.2042 22.0907 54.9402 21.636C54.6835 21.174 54.5552 20.6533 54.5552 20.074C54.5552 19.4947 54.6835 18.9777 54.9402 18.523C55.2042 18.061 55.5598 17.698 56.0072 17.434C56.4545 17.17 56.9605 17.038 57.5252 17.038C58.0458 17.038 58.5225 17.1297 58.9552 17.313C59.3952 17.4963 59.7435 17.753 60.0002 18.083L59.0432 19.227C58.9405 19.1097 58.8195 18.9997 58.6802 18.897C58.5408 18.7943 58.3868 18.7137 58.2182 18.655C58.0495 18.5963 57.8735 18.567 57.6902 18.567C57.4115 18.567 57.1658 18.633 56.9532 18.765C56.7405 18.8897 56.5755 19.0657 56.4582 19.293C56.3408 19.5203 56.2822 19.7807 56.2822 20.074C56.2822 20.3527 56.3408 20.6057 56.4582 20.833C56.5828 21.0603 56.7515 21.24 56.9642 21.372C57.1768 21.504 57.4188 21.57 57.6902 21.57C57.8808 21.57 58.0568 21.548 58.2182 21.504C58.3795 21.4527 58.5262 21.3793 58.6582 21.284C58.7975 21.1887 58.9258 21.0713 59.0432 20.932L59.9892 22.087C59.7398 22.4023 59.3915 22.6517 58.9442 22.835C58.5042 23.0183 58.0312 23.11 57.5252 23.11ZM63.7393 23.11C63.094 23.11 62.533 22.9817 62.0563 22.725C61.5796 22.461 61.2093 22.1053 60.9453 21.658C60.6813 21.2033 60.5493 20.6863 60.5493 20.107C60.5493 19.6597 60.6226 19.249 60.7693 18.875C60.916 18.501 61.1213 18.1783 61.3853 17.907C61.6493 17.6283 61.961 17.4157 62.3203 17.269C62.687 17.115 63.0866 17.038 63.5193 17.038C63.93 17.038 64.304 17.1113 64.6413 17.258C64.986 17.4047 65.283 17.61 65.5323 17.874C65.7816 18.138 65.9723 18.4497 66.1043 18.809C66.2363 19.1683 66.295 19.5607 66.2803 19.986L66.2693 20.459H61.6163L61.3633 19.469H64.8393L64.6523 19.678V19.458C64.6376 19.2747 64.579 19.1133 64.4763 18.974C64.381 18.8273 64.2526 18.7137 64.0913 18.633C63.93 18.5523 63.7466 18.512 63.5413 18.512C63.2553 18.512 63.0096 18.5707 62.8043 18.688C62.6063 18.798 62.456 18.963 62.3533 19.183C62.2506 19.3957 62.1993 19.6597 62.1993 19.975C62.1993 20.2977 62.2653 20.58 62.3973 20.822C62.5366 21.0567 62.7346 21.24 62.9913 21.372C63.2553 21.504 63.567 21.57 63.9263 21.57C64.1756 21.57 64.3956 21.5333 64.5863 21.46C64.7843 21.3867 64.997 21.262 65.2243 21.086L66.0493 22.252C65.822 22.45 65.58 22.6113 65.3233 22.736C65.0666 22.8607 64.8026 22.9523 64.5313 23.011C64.2673 23.077 64.0033 23.11 63.7393 23.11ZM20.9808 37V29.3H22.0478L26.7558 35.603L26.5798 35.702C26.5505 35.5187 26.5248 35.3207 26.5028 35.108C26.4808 34.888 26.4588 34.657 26.4368 34.415C26.4222 34.1657 26.4075 33.9053 26.3928 33.634C26.3855 33.3553 26.3782 33.0657 26.3708 32.765C26.3635 32.4643 26.3598 32.1527 26.3598 31.83V29.3H27.5478V37H26.4588L21.8278 30.928L21.9488 30.774C21.9855 31.2213 22.0148 31.6027 22.0368 31.918C22.0662 32.226 22.0882 32.49 22.1028 32.71C22.1248 32.9227 22.1395 33.0987 22.1468 33.238C22.1542 33.37 22.1578 33.48 22.1578 33.568C22.1652 33.656 22.1688 33.733 22.1688 33.799V37H20.9808ZM32.0135 37.11C31.4488 37.11 30.9428 36.9817 30.4955 36.725C30.0555 36.461 29.7072 36.1053 29.4505 35.658C29.1938 35.2033 29.0655 34.6863 29.0655 34.107C29.0655 33.5277 29.1938 33.0143 29.4505 32.567C29.7072 32.1123 30.0555 31.7567 30.4955 31.5C30.9428 31.236 31.4488 31.104 32.0135 31.104C32.5708 31.104 33.0695 31.236 33.5095 31.5C33.9568 31.7567 34.3088 32.1123 34.5655 32.567C34.8222 33.0143 34.9505 33.5277 34.9505 34.107C34.9505 34.6863 34.8222 35.2033 34.5655 35.658C34.3088 36.1053 33.9568 36.461 33.5095 36.725C33.0695 36.9817 32.5708 37.11 32.0135 37.11ZM32.0135 36.076C32.3582 36.076 32.6662 35.9917 32.9375 35.823C33.2088 35.647 33.4215 35.4123 33.5755 35.119C33.7295 34.8183 33.8028 34.481 33.7955 34.107C33.8028 33.7257 33.7295 33.3883 33.5755 33.095C33.4215 32.7943 33.2088 32.5597 32.9375 32.391C32.6662 32.2223 32.3582 32.138 32.0135 32.138C31.6688 32.138 31.3572 32.226 31.0785 32.402C30.8072 32.5707 30.5945 32.8053 30.4405 33.106C30.2865 33.3993 30.2132 33.733 30.2205 34.107C30.2132 34.481 30.2865 34.8183 30.4405 35.119C30.5945 35.4123 30.8072 35.647 31.0785 35.823C31.3572 35.9917 31.6688 36.076 32.0135 36.076ZM36.9001 37V29.751H38.0331V37H36.9001ZM35.7011 32.325V31.225H39.3751V32.325H35.7011ZM40.4067 37V31.225H41.5507V33.04L41.4407 32.6C41.5214 32.3213 41.6571 32.0683 41.8477 31.841C42.0457 31.6137 42.2694 31.434 42.5187 31.302C42.7754 31.17 43.0394 31.104 43.3107 31.104C43.4354 31.104 43.5527 31.115 43.6627 31.137C43.7801 31.159 43.8717 31.1847 43.9377 31.214L43.6407 32.446C43.5527 32.4093 43.4537 32.38 43.3437 32.358C43.2411 32.3287 43.1384 32.314 43.0357 32.314C42.8377 32.314 42.6471 32.3543 42.4637 32.435C42.2877 32.5083 42.1301 32.6147 41.9907 32.754C41.8587 32.886 41.7524 33.0437 41.6717 33.227C41.5911 33.403 41.5507 33.5973 41.5507 33.81V37H40.4067ZM47.2912 37.11C46.6972 37.11 46.1692 36.9853 45.7072 36.736C45.2525 36.4793 44.8932 36.131 44.6292 35.691C44.3725 35.251 44.2442 34.745 44.2442 34.173C44.2442 33.7183 44.3175 33.304 44.4642 32.93C44.6109 32.556 44.8125 32.2333 45.0692 31.962C45.3332 31.6833 45.6449 31.4707 46.0042 31.324C46.3709 31.17 46.7669 31.093 47.1922 31.093C47.5662 31.093 47.9145 31.1663 48.2372 31.313C48.5599 31.4523 48.8385 31.6467 49.0732 31.896C49.3152 32.1453 49.4985 32.4423 49.6232 32.787C49.7552 33.1243 49.8175 33.4947 49.8102 33.898L49.7992 34.382H45.0802L44.8272 33.48H48.8202L48.6552 33.667V33.403C48.6332 33.161 48.5525 32.9447 48.4132 32.754C48.2739 32.5633 48.0979 32.413 47.8852 32.303C47.6725 32.193 47.4415 32.138 47.1922 32.138C46.7962 32.138 46.4625 32.215 46.1912 32.369C45.9199 32.5157 45.7145 32.7357 45.5752 33.029C45.4359 33.315 45.3662 33.6707 45.3662 34.096C45.3662 34.4993 45.4505 34.8513 45.6192 35.152C45.7879 35.4453 46.0262 35.6727 46.3342 35.834C46.6422 35.9953 46.9979 36.076 47.4012 36.076C47.6872 36.076 47.9512 36.0283 48.1932 35.933C48.4425 35.8377 48.7102 35.6653 48.9962 35.416L49.5682 36.219C49.3922 36.395 49.1759 36.549 48.9192 36.681C48.6699 36.813 48.4022 36.9193 48.1162 37C47.8375 37.0733 47.5625 37.11 47.2912 37.11ZM54.4105 37V29.3H57.4245C57.9745 29.3 58.4695 29.3917 58.9095 29.575C59.3569 29.7583 59.7382 30.0223 60.0535 30.367C60.3689 30.7117 60.6109 31.1187 60.7795 31.588C60.9482 32.0573 61.0325 32.578 61.0325 33.15C61.0325 33.722 60.9482 34.2463 60.7795 34.723C60.6109 35.1923 60.3689 35.5993 60.0535 35.944C59.7455 36.2813 59.3679 36.5417 58.9205 36.725C58.4732 36.9083 57.9745 37 57.4245 37H54.4105ZM55.5985 35.977L55.5655 35.856H57.3695C57.7582 35.856 58.1029 35.7937 58.4035 35.669C58.7115 35.5443 58.9682 35.3683 59.1735 35.141C59.3862 34.9063 59.5475 34.6203 59.6575 34.283C59.7675 33.9457 59.8225 33.568 59.8225 33.15C59.8225 32.732 59.7675 32.358 59.6575 32.028C59.5475 31.6907 59.3862 31.4047 59.1735 31.17C58.9609 30.9353 58.7042 30.7557 58.4035 30.631C58.1029 30.5063 57.7582 30.444 57.3695 30.444H55.5325L55.5985 30.345V35.977ZM64.575 37.11C64.0984 37.11 63.662 36.978 63.266 36.714C62.8774 36.45 62.5657 36.0907 62.331 35.636C62.0964 35.1813 61.979 34.668 61.979 34.096C61.979 33.5167 62.0964 33.0033 62.331 32.556C62.573 32.1013 62.8957 31.7457 63.299 31.489C63.7097 31.2323 64.168 31.104 64.674 31.104C64.9747 31.104 65.2497 31.148 65.499 31.236C65.7484 31.324 65.9647 31.4487 66.148 31.61C66.3387 31.764 66.4927 31.9437 66.61 32.149C66.7347 32.3543 66.8117 32.5743 66.841 32.809L66.588 32.721V31.225H67.732V37H66.588V35.625L66.852 35.548C66.808 35.746 66.7164 35.9403 66.577 36.131C66.445 36.3143 66.2727 36.4793 66.06 36.626C65.8547 36.7727 65.6237 36.89 65.367 36.978C65.1177 37.066 64.8537 37.11 64.575 37.11ZM64.872 36.065C65.2167 36.065 65.521 35.9807 65.785 35.812C66.049 35.6433 66.2544 35.4123 66.401 35.119C66.555 34.8183 66.632 34.4773 66.632 34.096C66.632 33.722 66.555 33.3883 66.401 33.095C66.2544 32.8017 66.049 32.5707 65.785 32.402C65.521 32.2333 65.2167 32.149 64.872 32.149C64.5347 32.149 64.234 32.2333 63.97 32.402C63.7134 32.5707 63.508 32.8017 63.354 33.095C63.2074 33.3883 63.134 33.722 63.134 34.096C63.134 34.4773 63.2074 34.8183 63.354 35.119C63.508 35.4123 63.7134 35.6433 63.97 35.812C64.234 35.9807 64.5347 36.065 64.872 36.065ZM69.292 37V31.225H70.436V32.457L70.227 32.589C70.2856 32.3983 70.3773 32.215 70.502 32.039C70.634 31.863 70.7916 31.709 70.975 31.577C71.1656 31.4377 71.3673 31.3277 71.58 31.247C71.8 31.1663 72.0236 31.126 72.251 31.126C72.581 31.126 72.8706 31.181 73.12 31.291C73.3693 31.401 73.5746 31.566 73.736 31.786C73.8973 32.006 74.0146 32.281 74.088 32.611L73.912 32.567L73.989 32.38C74.0696 32.2113 74.1796 32.0537 74.319 31.907C74.4656 31.753 74.6306 31.6173 74.814 31.5C74.9973 31.3827 75.1916 31.291 75.397 31.225C75.6023 31.159 75.804 31.126 76.002 31.126C76.4346 31.126 76.7903 31.214 77.069 31.39C77.355 31.566 77.5676 31.8337 77.707 32.193C77.8536 32.5523 77.927 32.9997 77.927 33.535V37H76.783V33.601C76.783 33.271 76.739 33.0033 76.651 32.798C76.5703 32.5853 76.4456 32.4277 76.277 32.325C76.1083 32.2223 75.892 32.171 75.628 32.171C75.4226 32.171 75.2283 32.2077 75.045 32.281C74.869 32.347 74.715 32.4423 74.583 32.567C74.451 32.6917 74.3483 32.8383 74.275 33.007C74.2016 33.1683 74.165 33.348 74.165 33.546V37H73.021V33.579C73.021 33.2783 72.977 33.0253 72.889 32.82C72.801 32.6073 72.6726 32.446 72.504 32.336C72.3353 32.226 72.13 32.171 71.888 32.171C71.6826 32.171 71.492 32.2077 71.316 32.281C71.14 32.347 70.986 32.4423 70.854 32.567C70.722 32.6843 70.6193 32.8273 70.546 32.996C70.4726 33.1573 70.436 33.3333 70.436 33.524V37H69.292ZM82.1389 37.11C81.5449 37.11 81.0169 36.9853 80.5549 36.736C80.1002 36.4793 79.7409 36.131 79.4769 35.691C79.2202 35.251 79.0919 34.745 79.0919 34.173C79.0919 33.7183 79.1652 33.304 79.3119 32.93C79.4585 32.556 79.6602 32.2333 79.9169 31.962C80.1809 31.6833 80.4925 31.4707 80.8519 31.324C81.2185 31.17 81.6145 31.093 82.0399 31.093C82.4139 31.093 82.7622 31.1663 83.0849 31.313C83.4075 31.4523 83.6862 31.6467 83.9209 31.896C84.1629 32.1453 84.3462 32.4423 84.4709 32.787C84.6029 33.1243 84.6652 33.4947 84.6579 33.898L84.6469 34.382H79.9279L79.6749 33.48H83.6679L83.5029 33.667V33.403C83.4809 33.161 83.4002 32.9447 83.2609 32.754C83.1215 32.5633 82.9455 32.413 82.7329 32.303C82.5202 32.193 82.2892 32.138 82.0399 32.138C81.6439 32.138 81.3102 32.215 81.0389 32.369C80.7675 32.5157 80.5622 32.7357 80.4229 33.029C80.2835 33.315 80.2139 33.6707 80.2139 34.096C80.2139 34.4993 80.2982 34.8513 80.4669 35.152C80.6355 35.4453 80.8739 35.6727 81.1819 35.834C81.4899 35.9953 81.8455 36.076 82.2489 36.076C82.5349 36.076 82.7989 36.0283 83.0409 35.933C83.2902 35.8377 83.5579 35.6653 83.8439 35.416L84.4159 36.219C84.2399 36.395 84.0235 36.549 83.7669 36.681C83.5175 36.813 83.2499 36.9193 82.9639 37C82.6852 37.0733 82.4102 37.11 82.1389 37.11ZM26.117 51.11C25.589 51.11 25.116 50.9817 24.698 50.725C24.2873 50.461 23.961 50.1053 23.719 49.658C23.477 49.2033 23.356 48.6863 23.356 48.107C23.356 47.5277 23.4733 47.0143 23.708 46.567C23.95 46.1123 24.2763 45.7567 24.687 45.5C25.0977 45.236 25.5633 45.104 26.084 45.104C26.37 45.104 26.645 45.1517 26.909 45.247C27.1803 45.335 27.4223 45.4597 27.635 45.621C27.8477 45.775 28.0127 45.9473 28.13 46.138C28.2547 46.3213 28.317 46.5083 28.317 46.699L27.987 46.721V42.86H29.12V51H27.987V49.625H28.207C28.207 49.801 28.1483 49.977 28.031 50.153C27.9137 50.3217 27.756 50.4793 27.558 50.626C27.3673 50.7727 27.1437 50.89 26.887 50.978C26.6377 51.066 26.381 51.11 26.117 51.11ZM26.271 50.131C26.6157 50.131 26.92 50.043 27.184 49.867C27.448 49.691 27.6533 49.4527 27.8 49.152C27.954 48.844 28.031 48.4957 28.031 48.107C28.031 47.7183 27.954 47.3737 27.8 47.073C27.6533 46.765 27.448 46.523 27.184 46.347C26.92 46.171 26.6157 46.083 26.271 46.083C25.9263 46.083 25.622 46.171 25.358 46.347C25.094 46.523 24.885 46.765 24.731 47.073C24.5843 47.3737 24.511 47.7183 24.511 48.107C24.511 48.4957 24.5843 48.844 24.731 49.152C24.885 49.4527 25.094 49.691 25.358 49.867C25.622 50.043 25.9263 50.131 26.271 50.131ZM33.3747 51.11C32.7807 51.11 32.2527 50.9853 31.7907 50.736C31.336 50.4793 30.9767 50.131 30.7127 49.691C30.456 49.251 30.3277 48.745 30.3277 48.173C30.3277 47.7183 30.401 47.304 30.5477 46.93C30.6944 46.556 30.896 46.2333 31.1527 45.962C31.4167 45.6833 31.7284 45.4707 32.0877 45.324C32.4544 45.17 32.8504 45.093 33.2757 45.093C33.6497 45.093 33.998 45.1663 34.3207 45.313C34.6434 45.4523 34.922 45.6467 35.1567 45.896C35.3987 46.1453 35.582 46.4423 35.7067 46.787C35.8387 47.1243 35.901 47.4947 35.8937 47.898L35.8827 48.382H31.1637L30.9107 47.48H34.9037L34.7387 47.667V47.403C34.7167 47.161 34.636 46.9447 34.4967 46.754C34.3574 46.5633 34.1814 46.413 33.9687 46.303C33.756 46.193 33.525 46.138 33.2757 46.138C32.8797 46.138 32.546 46.215 32.2747 46.369C32.0034 46.5157 31.798 46.7357 31.6587 47.029C31.5194 47.315 31.4497 47.6707 31.4497 48.096C31.4497 48.4993 31.534 48.8513 31.7027 49.152C31.8714 49.4453 32.1097 49.6727 32.4177 49.834C32.7257 49.9953 33.0814 50.076 33.4847 50.076C33.7707 50.076 34.0347 50.0283 34.2767 49.933C34.526 49.8377 34.7937 49.6653 35.0797 49.416L35.6517 50.219C35.4757 50.395 35.2594 50.549 35.0027 50.681C34.7534 50.813 34.4857 50.9193 34.1997 51C33.921 51.0733 33.646 51.11 33.3747 51.11ZM40.494 51V43.3H41.682V49.856H45.29V51H40.494ZM49.1741 51.11C48.6095 51.11 48.1035 50.9817 47.6561 50.725C47.2161 50.461 46.8678 50.1053 46.6111 49.658C46.3545 49.2033 46.2261 48.6863 46.2261 48.107C46.2261 47.5277 46.3545 47.0143 46.6111 46.567C46.8678 46.1123 47.2161 45.7567 47.6561 45.5C48.1035 45.236 48.6095 45.104 49.1741 45.104C49.7315 45.104 50.2301 45.236 50.6701 45.5C51.1175 45.7567 51.4695 46.1123 51.7261 46.567C51.9828 47.0143 52.1111 47.5277 52.1111 48.107C52.1111 48.6863 51.9828 49.2033 51.7261 49.658C51.4695 50.1053 51.1175 50.461 50.6701 50.725C50.2301 50.9817 49.7315 51.11 49.1741 51.11ZM49.1741 50.076C49.5188 50.076 49.8268 49.9917 50.0981 49.823C50.3695 49.647 50.5821 49.4123 50.7361 49.119C50.8901 48.8183 50.9635 48.481 50.9561 48.107C50.9635 47.7257 50.8901 47.3883 50.7361 47.095C50.5821 46.7943 50.3695 46.5597 50.0981 46.391C49.8268 46.2223 49.5188 46.138 49.1741 46.138C48.8295 46.138 48.5178 46.226 48.2391 46.402C47.9678 46.5707 47.7551 46.8053 47.6011 47.106C47.4471 47.3993 47.3738 47.733 47.3811 48.107C47.3738 48.481 47.4471 48.8183 47.6011 49.119C47.7551 49.4123 47.9678 49.647 48.2391 49.823C48.5178 49.9917 48.8295 50.076 49.1741 50.076ZM55.3697 51.11C54.959 51.11 54.5997 51.0147 54.2917 50.824C53.991 50.6333 53.7564 50.3657 53.5877 50.021C53.4264 49.6763 53.3457 49.2657 53.3457 48.789V45.225H54.4787V48.481C54.4787 48.8183 54.53 49.1117 54.6327 49.361C54.7427 49.603 54.8967 49.79 55.0947 49.922C55.3 50.054 55.5457 50.12 55.8317 50.12C56.0444 50.12 56.2387 50.087 56.4147 50.021C56.5907 49.9477 56.741 49.8487 56.8657 49.724C56.9977 49.5993 57.1004 49.449 57.1737 49.273C57.247 49.097 57.2837 48.9063 57.2837 48.701V45.225H58.4167V51H57.2837V49.79L57.4817 49.658C57.3937 49.9293 57.2434 50.175 57.0307 50.395C56.8254 50.615 56.5797 50.791 56.2937 50.923C56.0077 51.0477 55.6997 51.11 55.3697 51.11ZM60.0059 51V45.225H61.1499V47.04L61.0399 46.6C61.1205 46.3213 61.2562 46.0683 61.4469 45.841C61.6449 45.6137 61.8685 45.434 62.1179 45.302C62.3745 45.17 62.6385 45.104 62.9099 45.104C63.0345 45.104 63.1519 45.115 63.2619 45.137C63.3792 45.159 63.4709 45.1847 63.5369 45.214L63.2399 46.446C63.1519 46.4093 63.0529 46.38 62.9429 46.358C62.8402 46.3287 62.7375 46.314 62.6349 46.314C62.4369 46.314 62.2462 46.3543 62.0629 46.435C61.8869 46.5083 61.7292 46.6147 61.5899 46.754C61.4579 46.886 61.3515 47.0437 61.2709 47.227C61.1902 47.403 61.1499 47.5973 61.1499 47.81V51H60.0059ZM66.6043 51.11C66.0763 51.11 65.6033 50.9817 65.1853 50.725C64.7747 50.461 64.4483 50.1053 64.2063 49.658C63.9643 49.2033 63.8433 48.6863 63.8433 48.107C63.8433 47.5277 63.9607 47.0143 64.1953 46.567C64.4373 46.1123 64.7637 45.7567 65.1743 45.5C65.585 45.236 66.0507 45.104 66.5713 45.104C66.8573 45.104 67.1323 45.1517 67.3963 45.247C67.6677 45.335 67.9097 45.4597 68.1223 45.621C68.335 45.775 68.5 45.9473 68.6173 46.138C68.742 46.3213 68.8043 46.5083 68.8043 46.699L68.4743 46.721V42.86H69.6073V51H68.4743V49.625H68.6943C68.6943 49.801 68.6357 49.977 68.5183 50.153C68.401 50.3217 68.2433 50.4793 68.0453 50.626C67.8547 50.7727 67.631 50.89 67.3743 50.978C67.125 51.066 66.8683 51.11 66.6043 51.11ZM66.7583 50.131C67.103 50.131 67.4073 50.043 67.6713 49.867C67.9353 49.691 68.1407 49.4527 68.2873 49.152C68.4413 48.844 68.5183 48.4957 68.5183 48.107C68.5183 47.7183 68.4413 47.3737 68.2873 47.073C68.1407 46.765 67.9353 46.523 67.6713 46.347C67.4073 46.171 67.103 46.083 66.7583 46.083C66.4137 46.083 66.1093 46.171 65.8453 46.347C65.5813 46.523 65.3723 46.765 65.2183 47.073C65.0717 47.3737 64.9983 47.7183 64.9983 48.107C64.9983 48.4957 65.0717 48.844 65.2183 49.152C65.3723 49.4527 65.5813 49.691 65.8453 49.867C66.1093 50.043 66.4137 50.131 66.7583 50.131ZM73.862 51.11C73.268 51.11 72.74 50.9853 72.278 50.736C71.8233 50.4793 71.464 50.131 71.2 49.691C70.9433 49.251 70.815 48.745 70.815 48.173C70.815 47.7183 70.8883 47.304 71.035 46.93C71.1817 46.556 71.3833 46.2333 71.64 45.962C71.904 45.6833 72.2157 45.4707 72.575 45.324C72.9417 45.17 73.3377 45.093 73.763 45.093C74.137 45.093 74.4853 45.1663 74.808 45.313C75.1307 45.4523 75.4093 45.6467 75.644 45.896C75.886 46.1453 76.0693 46.4423 76.194 46.787C76.326 47.1243 76.3883 47.4947 76.381 47.898L76.37 48.382H71.651L71.398 47.48H75.391L75.226 47.667V47.403C75.204 47.161 75.1233 46.9447 74.984 46.754C74.8447 46.5633 74.6687 46.413 74.456 46.303C74.2433 46.193 74.0123 46.138 73.763 46.138C73.367 46.138 73.0333 46.215 72.762 46.369C72.4907 46.5157 72.2853 46.7357 72.146 47.029C72.0067 47.315 71.937 47.6707 71.937 48.096C71.937 48.4993 72.0213 48.8513 72.19 49.152C72.3587 49.4453 72.597 49.6727 72.905 49.834C73.213 49.9953 73.5687 50.076 73.972 50.076C74.258 50.076 74.522 50.0283 74.764 49.933C75.0133 49.8377 75.281 49.6653 75.567 49.416L76.139 50.219C75.963 50.395 75.7467 50.549 75.49 50.681C75.2407 50.813 74.973 50.9193 74.687 51C74.4083 51.0733 74.1333 51.11 73.862 51.11ZM79.5373 51.11C79.0533 51.11 78.617 51.0257 78.2283 50.857C77.8396 50.6883 77.517 50.439 77.2603 50.109L78.0303 49.449C78.2503 49.7057 78.4886 49.8927 78.7453 50.01C79.0093 50.12 79.3063 50.175 79.6363 50.175C79.7683 50.175 79.8893 50.1603 79.9993 50.131C80.1166 50.0943 80.2156 50.043 80.2963 49.977C80.3843 49.911 80.4503 49.834 80.4943 49.746C80.5383 49.6507 80.5603 49.548 80.5603 49.438C80.5603 49.2473 80.4906 49.0933 80.3513 48.976C80.278 48.9247 80.1606 48.8697 79.9993 48.811C79.8453 48.745 79.6436 48.679 79.3943 48.613C78.969 48.503 78.6206 48.3783 78.3493 48.239C78.078 48.0997 77.869 47.942 77.7223 47.766C77.6123 47.6267 77.5316 47.4763 77.4803 47.315C77.429 47.1463 77.4033 46.963 77.4033 46.765C77.4033 46.523 77.4546 46.303 77.5573 46.105C77.6673 45.8997 77.814 45.7237 77.9973 45.577C78.188 45.423 78.408 45.3057 78.6573 45.225C78.914 45.1443 79.1853 45.104 79.4713 45.104C79.7426 45.104 80.0103 45.1407 80.2743 45.214C80.5456 45.2873 80.795 45.3937 81.0223 45.533C81.2496 45.6723 81.4403 45.8373 81.5943 46.028L80.9453 46.743C80.806 46.6037 80.652 46.4827 80.4833 46.38C80.322 46.27 80.157 46.1857 79.9883 46.127C79.8196 46.0683 79.6656 46.039 79.5263 46.039C79.3723 46.039 79.233 46.0537 79.1083 46.083C78.9836 46.1123 78.8773 46.1563 78.7893 46.215C78.7086 46.2737 78.6463 46.347 78.6023 46.435C78.5583 46.523 78.5363 46.622 78.5363 46.732C78.5436 46.8273 78.5656 46.919 78.6023 47.007C78.6463 47.0877 78.705 47.1573 78.7783 47.216C78.859 47.2747 78.98 47.337 79.1413 47.403C79.3026 47.469 79.508 47.5313 79.7573 47.59C80.124 47.6853 80.4246 47.7917 80.6593 47.909C80.9013 48.019 81.092 48.1473 81.2313 48.294C81.378 48.4333 81.4806 48.5947 81.5393 48.778C81.598 48.9613 81.6273 49.1667 81.6273 49.394C81.6273 49.724 81.532 50.021 81.3413 50.285C81.158 50.5417 80.9086 50.7433 80.5933 50.89C80.278 51.0367 79.926 51.11 79.5373 51.11Z" fill="black"/>
</svg>
