<svg width="92" height="52" viewBox="0 0 92 52" fill="none" xmlns="http://www.w3.org/2000/svg">
<path d="M0.5 41L2.5 0.5H29.5L45 17L91.5 22V51.5H15.5L0.5 41Z" fill="#FF0000" fill-opacity="0.31"/>
<path d="M19.5657 4H14.4343C14.0349 4 13.7967 4.44507 14.0182 4.77735L15.416 6.87404C15.4708 6.95617 15.5 7.05268 15.5 7.15139V8.5V12.5C15.5 12.7761 15.2761 13 15 13H11H8.15139C8.05268 13 7.95617 12.9708 7.87404 12.916L5.77735 11.5182C5.44507 11.2967 5 11.5349 5 11.9343V17.0657C5 17.4651 5.44507 17.7033 5.77735 17.4818L7.87404 16.084C7.95617 16.0292 8.05268 16 8.15139 16H11H15C15.2761 16 15.5 16.2239 15.5 16.5V20V35.882C15.5 35.9596 15.4819 36.0361 15.4472 36.1056L14.3618 38.2764C14.1956 38.6088 14.4373 39 14.809 39H19.191C19.5627 39 19.8044 38.6088 19.6382 38.2764L18.5528 36.1056C18.5181 36.0361 18.5 35.9596 18.5 35.882V20V16.5C18.5 16.2239 18.7239 16 19 16H23H25.8486C25.9473 16 26.0438 16.0292 26.126 16.084L28.2227 17.4818C28.5549 17.7033 29 17.4651 29 17.0657V11.9343C29 11.5349 28.5549 11.2967 28.2227 11.5182L26.126 12.916C26.0438 12.9708 25.9473 13 25.8486 13H23H19C18.7239 13 18.5 12.7761 18.5 12.5V8.5V7.15139C18.5 7.05268 18.5292 6.95617 18.584 6.87404L19.9818 4.77735C20.2033 4.44507 19.9651 4 19.5657 4Z" fill="#4F4533"/>
<path d="M15.5 8.5V12.5C15.5 12.7761 15.2761 13 15 13H11M15.5 8.5V7.15139C15.5 7.05268 15.4708 6.95617 15.416 6.87404L14.0182 4.77735C13.7967 4.44507 14.0349 4 14.4343 4H19.5657C19.9651 4 20.2033 4.44507 19.9818 4.77735L18.584 6.87404C18.5292 6.95617 18.5 7.05268 18.5 7.15139V8.5M15.5 8.5C13 8.5 11 10.5 11 13M11 13H8.15139C8.05268 13 7.95617 12.9708 7.87404 12.916L5.77735 11.5182C5.44507 11.2967 5 11.5349 5 11.9343V17.0657C5 17.4651 5.44507 17.7033 5.77735 17.4818L7.87404 16.084C7.95617 16.0292 8.05268 16 8.15139 16H11M18.5 8.5V12.5C18.5 12.7761 18.7239 13 19 13H23M18.5 8.5C21 8.5 23 10.5 23 13M23 13H25.8486C25.9473 13 26.0438 12.9708 26.126 12.916L28.2227 11.5182C28.5549 11.2967 29 11.5349 29 11.9343V17.0657C29 17.4651 28.5549 17.7033 28.2226 17.4818L26.126 16.084C26.0438 16.0292 25.9473 16 25.8486 16H23M23 16H19C18.7239 16 18.5 16.2239 18.5 16.5V20M23 16C23 18.5 21 20 18.5 20M18.5 20V35.882C18.5 35.9596 18.5181 36.0361 18.5528 36.1056L19.6382 38.2764C19.8044 38.6088 19.5627 39 19.191 39H14.809C14.4373 39 14.1956 38.6088 14.3618 38.2764L15.4472 36.1056C15.4819 36.0361 15.5 35.9596 15.5 35.882V20M15.5 20V16.5C15.5 16.2239 15.2761 16 15 16H11M15.5 20C13 20 11 18.5 11 16" stroke="black"/>
<path d="M30.7959 33.11C30.2899 33.11 29.8315 33.0513 29.4209 32.934C29.0175 32.8093 28.6582 32.6333 28.3429 32.406C28.0275 32.1713 27.7452 31.8963 27.4959 31.581L28.6289 30.294C28.9955 30.7853 29.3622 31.1153 29.7289 31.284C30.1029 31.4527 30.4879 31.537 30.8839 31.537C31.0819 31.537 31.2615 31.5113 31.4229 31.46C31.5842 31.4087 31.7089 31.3353 31.7969 31.24C31.8849 31.1373 31.9289 31.0127 31.9289 30.866C31.9289 30.756 31.8995 30.657 31.8409 30.569C31.7895 30.481 31.7162 30.404 31.6209 30.338C31.5255 30.272 31.4119 30.2133 31.2799 30.162C31.1479 30.1033 31.0085 30.0557 30.8619 30.019C30.7152 29.975 30.5649 29.9383 30.4109 29.909C29.9855 29.8137 29.6152 29.6963 29.2999 29.557C28.9845 29.4177 28.7205 29.249 28.5079 29.051C28.3025 28.8457 28.1485 28.6147 28.0459 28.358C27.9432 28.094 27.8919 27.8007 27.8919 27.478C27.8919 27.1333 27.9689 26.818 28.1229 26.532C28.2842 26.2387 28.4969 25.9893 28.7609 25.784C29.0322 25.5713 29.3439 25.41 29.6959 25.3C30.0479 25.1827 30.4145 25.124 30.7959 25.124C31.3019 25.124 31.7345 25.179 32.0939 25.289C32.4605 25.3917 32.7722 25.542 33.0289 25.74C33.2929 25.938 33.5165 26.1763 33.6999 26.455L32.5449 27.566C32.3909 27.3753 32.2222 27.2177 32.0389 27.093C31.8629 26.9683 31.6722 26.873 31.4669 26.807C31.2689 26.741 31.0635 26.708 30.8509 26.708C30.6309 26.708 30.4402 26.7373 30.2789 26.796C30.1249 26.8473 30.0039 26.9243 29.9159 27.027C29.8279 27.1223 29.7839 27.2397 29.7839 27.379C29.7839 27.5037 29.8205 27.61 29.8939 27.698C29.9672 27.786 30.0662 27.8667 30.1909 27.94C30.3155 28.006 30.4585 28.0647 30.6199 28.116C30.7812 28.16 30.9499 28.1967 31.1259 28.226C31.5292 28.3067 31.8922 28.413 32.2149 28.545C32.5449 28.677 32.8272 28.8383 33.0619 29.029C33.3039 29.2197 33.4872 29.447 33.6119 29.711C33.7439 29.9677 33.8099 30.2683 33.8099 30.613C33.8099 31.1483 33.6779 31.603 33.4139 31.977C33.1572 32.3437 32.8015 32.626 32.3469 32.824C31.8995 33.0147 31.3825 33.11 30.7959 33.11ZM35.5126 33V25.685H37.2726V33H35.5126ZM34.4786 28.699V27.159H38.4056V28.699H34.4786ZM40.0384 33.121C39.7377 33.121 39.503 33.0367 39.3344 32.868C39.173 32.6993 39.0924 32.4573 39.0924 32.142C39.0924 31.8487 39.1804 31.6103 39.3564 31.427C39.5324 31.2437 39.7597 31.152 40.0384 31.152C40.339 31.152 40.5737 31.24 40.7424 31.416C40.911 31.5847 40.9954 31.8267 40.9954 32.142C40.9954 32.428 40.9074 32.6627 40.7314 32.846C40.5554 33.0293 40.3244 33.121 40.0384 33.121ZM49.522 33.11C48.906 33.11 48.3487 33.011 47.85 32.813C47.3513 32.615 46.9223 32.3363 46.563 31.977C46.2037 31.6177 45.9287 31.196 45.738 30.712C45.5473 30.2207 45.452 29.689 45.452 29.117C45.452 28.545 45.551 28.0207 45.749 27.544C45.9543 27.06 46.244 26.6383 46.618 26.279C46.992 25.9197 47.432 25.641 47.938 25.443C48.4513 25.245 49.0087 25.146 49.61 25.146C50.0353 25.146 50.435 25.201 50.809 25.311C51.1903 25.421 51.535 25.5713 51.843 25.762C52.151 25.9527 52.4113 26.1727 52.624 26.422L51.491 27.621C51.3077 27.445 51.117 27.2983 50.919 27.181C50.7283 27.0637 50.523 26.972 50.303 26.906C50.083 26.8327 49.8483 26.796 49.599 26.796C49.2763 26.796 48.9793 26.8547 48.708 26.972C48.444 27.0893 48.2093 27.2543 48.004 27.467C47.806 27.6723 47.652 27.918 47.542 28.204C47.432 28.4827 47.377 28.787 47.377 29.117C47.377 29.447 47.4357 29.755 47.553 30.041C47.6703 30.327 47.8317 30.5763 48.037 30.789C48.2423 30.9943 48.4843 31.1593 48.763 31.284C49.049 31.4013 49.3533 31.46 49.676 31.46C49.9033 31.46 50.116 31.4233 50.314 31.35C50.5193 31.2767 50.6953 31.1777 50.842 31.053C50.9887 30.9283 51.106 30.7817 51.194 30.613C51.282 30.437 51.326 30.25 51.326 30.052V29.766L51.568 30.14H49.445V28.677H53.064C53.0787 28.7577 53.0897 28.8677 53.097 29.007C53.1043 29.1463 53.108 29.282 53.108 29.414C53.1153 29.546 53.119 29.645 53.119 29.711C53.119 30.2097 53.0273 30.668 52.844 31.086C52.668 31.4967 52.4187 31.8523 52.096 32.153C51.7733 32.4537 51.392 32.6883 50.952 32.857C50.512 33.0257 50.0353 33.11 49.522 33.11ZM57.1475 33.11C56.5022 33.11 55.9412 32.9817 55.4645 32.725C54.9878 32.461 54.6175 32.1053 54.3535 31.658C54.0895 31.2033 53.9575 30.6863 53.9575 30.107C53.9575 29.6597 54.0308 29.249 54.1775 28.875C54.3242 28.501 54.5295 28.1783 54.7935 27.907C55.0575 27.6283 55.3692 27.4157 55.7285 27.269C56.0952 27.115 56.4948 27.038 56.9275 27.038C57.3382 27.038 57.7122 27.1113 58.0495 27.258C58.3942 27.4047 58.6912 27.61 58.9405 27.874C59.1898 28.138 59.3805 28.4497 59.5125 28.809C59.6445 29.1683 59.7032 29.5607 59.6885 29.986L59.6775 30.459H55.0245L54.7715 29.469H58.2475L58.0605 29.678V29.458C58.0458 29.2747 57.9872 29.1133 57.8845 28.974C57.7892 28.8273 57.6608 28.7137 57.4995 28.633C57.3382 28.5523 57.1548 28.512 56.9495 28.512C56.6635 28.512 56.4178 28.5707 56.2125 28.688C56.0145 28.798 55.8642 28.963 55.7615 29.183C55.6588 29.3957 55.6075 29.6597 55.6075 29.975C55.6075 30.2977 55.6735 30.58 55.8055 30.822C55.9448 31.0567 56.1428 31.24 56.3995 31.372C56.6635 31.504 56.9752 31.57 57.3345 31.57C57.5838 31.57 57.8038 31.5333 57.9945 31.46C58.1925 31.3867 58.4052 31.262 58.6325 31.086L59.4575 32.252C59.2302 32.45 58.9882 32.6113 58.7315 32.736C58.4748 32.8607 58.2108 32.9523 57.9395 33.011C57.6755 33.077 57.4115 33.11 57.1475 33.11ZM63.5598 33.11C62.9511 33.11 62.4085 32.978 61.9318 32.714C61.4625 32.45 61.0885 32.0907 60.8098 31.636C60.5385 31.1813 60.4028 30.6607 60.4028 30.074C60.4028 29.4873 60.5385 28.9667 60.8098 28.512C61.0885 28.0573 61.4625 27.698 61.9318 27.434C62.4085 27.17 62.9511 27.038 63.5598 27.038C64.1685 27.038 64.7075 27.17 65.1768 27.434C65.6535 27.698 66.0275 28.0573 66.2988 28.512C66.5701 28.9667 66.7058 29.4873 66.7058 30.074C66.7058 30.6607 66.5701 31.1813 66.2988 31.636C66.0275 32.0907 65.6535 32.45 65.1768 32.714C64.7075 32.978 64.1685 33.11 63.5598 33.11ZM63.5598 31.592C63.8238 31.592 64.0585 31.526 64.2638 31.394C64.4691 31.262 64.6305 31.0823 64.7478 30.855C64.8651 30.6277 64.9201 30.3673 64.9128 30.074C64.9201 29.7807 64.8651 29.5203 64.7478 29.293C64.6305 29.0583 64.4691 28.875 64.2638 28.743C64.0585 28.611 63.8238 28.545 63.5598 28.545C63.2958 28.545 63.0575 28.611 62.8448 28.743C62.6395 28.875 62.4781 29.0583 62.3608 29.293C62.2435 29.5203 62.1885 29.7807 62.1958 30.074C62.1885 30.3673 62.2435 30.6277 62.3608 30.855C62.4781 31.0823 62.6395 31.262 62.8448 31.394C63.0575 31.526 63.2958 31.592 63.5598 31.592ZM67.8567 33V27.159H69.5287L69.6057 29.062L69.2757 28.699C69.3637 28.3837 69.5067 28.1013 69.7047 27.852C69.91 27.6027 70.1484 27.4047 70.4197 27.258C70.691 27.1113 70.9807 27.038 71.2887 27.038C71.4207 27.038 71.5417 27.049 71.6517 27.071C71.769 27.093 71.8754 27.1187 71.9707 27.148L71.4867 29.095C71.406 29.0437 71.296 29.0033 71.1567 28.974C71.0247 28.9373 70.8854 28.919 70.7387 28.919C70.5774 28.919 70.427 28.9483 70.2877 29.007C70.1484 29.0583 70.031 29.1353 69.9357 29.238C69.8404 29.3407 69.7634 29.4617 69.7047 29.601C69.6534 29.7403 69.6277 29.898 69.6277 30.074V33H67.8567ZM75.3744 35.53C74.8977 35.53 74.4211 35.4603 73.9444 35.321C73.4751 35.1817 73.0937 35.002 72.8004 34.782L73.4164 33.55C73.5704 33.6527 73.7391 33.7407 73.9224 33.814C74.1131 33.8947 74.3111 33.957 74.5164 34.001C74.7217 34.045 74.9307 34.067 75.1434 34.067C75.5174 34.067 75.8217 34.012 76.0564 33.902C76.2911 33.792 76.4671 33.6233 76.5844 33.396C76.7017 33.176 76.7604 32.8973 76.7604 32.56V31.581L77.1014 31.636C77.0501 31.878 76.9217 32.098 76.7164 32.296C76.5184 32.494 76.2727 32.6553 75.9794 32.78C75.6861 32.8973 75.3744 32.956 75.0444 32.956C74.5164 32.956 74.0434 32.835 73.6254 32.593C73.2147 32.3437 72.8884 32.0027 72.6464 31.57C72.4117 31.13 72.2944 30.624 72.2944 30.052C72.2944 29.4653 72.4117 28.9483 72.6464 28.501C72.8811 28.0463 73.2037 27.6907 73.6144 27.434C74.0251 27.17 74.4871 27.038 75.0004 27.038C75.2204 27.038 75.4294 27.0637 75.6274 27.115C75.8327 27.1663 76.0197 27.236 76.1884 27.324C76.3644 27.4047 76.5184 27.5037 76.6504 27.621C76.7897 27.731 76.8997 27.852 76.9804 27.984C77.0684 28.116 77.1271 28.2517 77.1564 28.391L76.7934 28.479L76.8594 27.159H78.5314V32.527C78.5314 33.0037 78.4581 33.4253 78.3114 33.792C78.1721 34.166 77.9631 34.4813 77.6844 34.738C77.4131 35.002 77.0831 35.2 76.6944 35.332C76.3057 35.464 75.8657 35.53 75.3744 35.53ZM75.4184 31.592C75.7044 31.592 75.9501 31.5297 76.1554 31.405C76.3681 31.273 76.5294 31.0933 76.6394 30.866C76.7567 30.6387 76.8154 30.371 76.8154 30.063C76.8154 29.755 76.7567 29.4873 76.6394 29.26C76.5294 29.0253 76.3681 28.8457 76.1554 28.721C75.9501 28.589 75.7044 28.523 75.4184 28.523C75.1397 28.523 74.8977 28.589 74.6924 28.721C74.4871 28.8457 74.3257 29.0253 74.2084 29.26C74.0984 29.4873 74.0434 29.755 74.0434 30.063C74.0434 30.371 74.0984 30.6387 74.2084 30.866C74.3257 31.0933 74.4871 31.273 74.6924 31.405C74.8977 31.5297 75.1397 31.592 75.4184 31.592ZM82.8428 33.11C82.1975 33.11 81.6365 32.9817 81.1598 32.725C80.6831 32.461 80.3128 32.1053 80.0488 31.658C79.7848 31.2033 79.6528 30.6863 79.6528 30.107C79.6528 29.6597 79.7261 29.249 79.8728 28.875C80.0195 28.501 80.2248 28.1783 80.4888 27.907C80.7528 27.6283 81.0645 27.4157 81.4238 27.269C81.7905 27.115 82.1901 27.038 82.6228 27.038C83.0335 27.038 83.4075 27.1113 83.7448 27.258C84.0895 27.4047 84.3865 27.61 84.6358 27.874C84.8851 28.138 85.0758 28.4497 85.2078 28.809C85.3398 29.1683 85.3985 29.5607 85.3838 29.986L85.3728 30.459H80.7198L80.4668 29.469H83.9428L83.7558 29.678V29.458C83.7411 29.2747 83.6825 29.1133 83.5798 28.974C83.4845 28.8273 83.3561 28.7137 83.1948 28.633C83.0335 28.5523 82.8501 28.512 82.6448 28.512C82.3588 28.512 82.1131 28.5707 81.9078 28.688C81.7098 28.798 81.5595 28.963 81.4568 29.183C81.3541 29.3957 81.3028 29.6597 81.3028 29.975C81.3028 30.2977 81.3688 30.58 81.5008 30.822C81.6401 31.0567 81.8381 31.24 82.0948 31.372C82.3588 31.504 82.6705 31.57 83.0298 31.57C83.2791 31.57 83.4991 31.5333 83.6898 31.46C83.8878 31.3867 84.1005 31.262 84.3278 31.086L85.1528 32.252C84.9255 32.45 84.6835 32.6113 84.4268 32.736C84.1701 32.8607 83.9061 32.9523 83.6348 33.011C83.3708 33.077 83.1068 33.11 82.8428 33.11ZM27.9101 47.11C27.4921 47.11 27.1034 47.055 26.7441 46.945C26.3921 46.835 26.0694 46.67 25.7761 46.45C25.4901 46.2227 25.2334 45.944 25.0061 45.614L25.8201 44.679C26.1794 45.1923 26.5241 45.548 26.8541 45.746C27.1841 45.944 27.5764 46.043 28.0311 46.043C28.3097 46.043 28.5627 45.999 28.7901 45.911C29.0174 45.823 29.1971 45.702 29.3291 45.548C29.4611 45.394 29.5271 45.218 29.5271 45.02C29.5271 44.888 29.5051 44.7633 29.4611 44.646C29.4171 44.5287 29.3474 44.4223 29.2521 44.327C29.1641 44.2317 29.0467 44.1437 28.9001 44.063C28.7607 43.9823 28.5957 43.9127 28.4051 43.854C28.2144 43.788 27.9944 43.733 27.7451 43.689C27.3491 43.6083 27.0044 43.502 26.7111 43.37C26.4177 43.238 26.1721 43.073 25.9741 42.875C25.7761 42.677 25.6294 42.4533 25.5341 42.204C25.4387 41.9473 25.3911 41.6613 25.3911 41.346C25.3911 41.038 25.4571 40.752 25.5891 40.488C25.7284 40.224 25.9154 39.9967 26.1501 39.806C26.3921 39.608 26.6744 39.4577 26.9971 39.355C27.3197 39.245 27.6681 39.19 28.0421 39.19C28.4381 39.19 28.8011 39.2413 29.1311 39.344C29.4611 39.4467 29.7544 39.6007 30.0111 39.806C30.2677 40.004 30.4804 40.2497 30.6491 40.543L29.8131 41.368C29.6664 41.126 29.5014 40.9243 29.3181 40.763C29.1347 40.5943 28.9331 40.4697 28.7131 40.389C28.4931 40.301 28.2584 40.257 28.0091 40.257C27.7231 40.257 27.4737 40.301 27.2611 40.389C27.0484 40.477 26.8797 40.6017 26.7551 40.763C26.6377 40.917 26.5791 41.1003 26.5791 41.313C26.5791 41.467 26.6084 41.61 26.6671 41.742C26.7257 41.8667 26.8137 41.9803 26.9311 42.083C27.0557 42.1783 27.2207 42.2663 27.4261 42.347C27.6314 42.4203 27.8771 42.4863 28.1631 42.545C28.5664 42.633 28.9257 42.7467 29.2411 42.886C29.5564 43.018 29.8241 43.1757 30.0441 43.359C30.2641 43.5423 30.4291 43.7477 30.5391 43.975C30.6564 44.2023 30.7151 44.448 30.7151 44.712C30.7151 45.2033 30.6014 45.6287 30.3741 45.988C30.1467 46.3473 29.8241 46.626 29.4061 46.824C28.9881 47.0147 28.4894 47.11 27.9101 47.11ZM32.8273 47V39.751H33.9603V47H32.8273ZM31.6283 42.325V41.225H35.3023V42.325H31.6283ZM36.796 47.121C36.554 47.121 36.367 47.0513 36.235 46.912C36.103 46.7653 36.037 46.56 36.037 46.296C36.037 46.054 36.1067 45.856 36.246 45.702C36.3853 45.548 36.5687 45.471 36.796 45.471C37.038 45.471 37.225 45.5443 37.357 45.691C37.489 45.8303 37.555 46.032 37.555 46.296C37.555 46.538 37.4853 46.736 37.346 46.89C37.2067 47.044 37.0233 47.121 36.796 47.121ZM45.6489 47.11C45.0916 47.11 44.5709 47.011 44.0869 46.813C43.6029 46.6077 43.1776 46.3253 42.8109 45.966C42.4443 45.6067 42.1583 45.1887 41.9529 44.712C41.7549 44.228 41.6559 43.7073 41.6559 43.15C41.6559 42.6 41.7549 42.0867 41.9529 41.61C42.1583 41.1333 42.4406 40.719 42.7999 40.367C43.1666 40.0077 43.5919 39.729 44.0759 39.531C44.5599 39.333 45.0806 39.234 45.6379 39.234C46.0266 39.234 46.4043 39.289 46.7709 39.399C47.1449 39.509 47.4823 39.663 47.7829 39.861C48.0836 40.059 48.3293 40.2863 48.5199 40.543L47.7499 41.346C47.5299 41.1333 47.3026 40.9573 47.0679 40.818C46.8406 40.6787 46.6059 40.5723 46.3639 40.499C46.1219 40.4257 45.8799 40.389 45.6379 40.389C45.2419 40.389 44.8753 40.4587 44.5379 40.598C44.2079 40.7373 43.9146 40.9317 43.6579 41.181C43.4086 41.4303 43.2143 41.7237 43.0749 42.061C42.9356 42.391 42.8659 42.754 42.8659 43.15C42.8659 43.5313 42.9393 43.8943 43.0859 44.239C43.2326 44.5763 43.4343 44.8733 43.6909 45.13C43.9549 45.3867 44.2556 45.5883 44.5929 45.735C44.9376 45.8817 45.3006 45.955 45.6819 45.955C45.9679 45.955 46.2393 45.9147 46.4959 45.834C46.7526 45.746 46.9799 45.625 47.1779 45.471C47.3759 45.317 47.5299 45.141 47.6399 44.943C47.7499 44.7377 47.8049 44.5213 47.8049 44.294V44.074L47.9699 44.228H45.6159V43.051H49.0259C49.0406 43.1317 49.0516 43.2123 49.0589 43.293C49.0663 43.3663 49.0699 43.4397 49.0699 43.513C49.0773 43.579 49.0809 43.645 49.0809 43.711C49.0809 44.217 48.9929 44.679 48.8169 45.097C48.6409 45.5077 48.3953 45.8633 48.0799 46.164C47.7719 46.4647 47.4089 46.6993 46.9909 46.868C46.5803 47.0293 46.1329 47.11 45.6489 47.11ZM53.0368 47.11C52.4428 47.11 51.9148 46.9853 51.4528 46.736C50.9981 46.4793 50.6388 46.131 50.3748 45.691C50.1181 45.251 49.9898 44.745 49.9898 44.173C49.9898 43.7183 50.0631 43.304 50.2098 42.93C50.3565 42.556 50.5581 42.2333 50.8148 41.962C51.0788 41.6833 51.3905 41.4707 51.7498 41.324C52.1165 41.17 52.5125 41.093 52.9378 41.093C53.3118 41.093 53.6601 41.1663 53.9828 41.313C54.3055 41.4523 54.5841 41.6467 54.8188 41.896C55.0608 42.1453 55.2441 42.4423 55.3688 42.787C55.5008 43.1243 55.5631 43.4947 55.5558 43.898L55.5448 44.382H50.8258L50.5728 43.48H54.5658L54.4008 43.667V43.403C54.3788 43.161 54.2981 42.9447 54.1588 42.754C54.0195 42.5633 53.8435 42.413 53.6308 42.303C53.4181 42.193 53.1871 42.138 52.9378 42.138C52.5418 42.138 52.2081 42.215 51.9368 42.369C51.6655 42.5157 51.4601 42.7357 51.3208 43.029C51.1815 43.315 51.1118 43.6707 51.1118 44.096C51.1118 44.4993 51.1961 44.8513 51.3648 45.152C51.5335 45.4453 51.7718 45.6727 52.0798 45.834C52.3878 45.9953 52.7435 46.076 53.1468 46.076C53.4328 46.076 53.6968 46.0283 53.9388 45.933C54.1881 45.8377 54.4558 45.6653 54.7418 45.416L55.3138 46.219C55.1378 46.395 54.9215 46.549 54.6648 46.681C54.4155 46.813 54.1478 46.9193 53.8618 47C53.5831 47.0733 53.3081 47.11 53.0368 47.11ZM59.3831 47.11C58.8185 47.11 58.3125 46.9817 57.8651 46.725C57.4251 46.461 57.0768 46.1053 56.8201 45.658C56.5635 45.2033 56.4351 44.6863 56.4351 44.107C56.4351 43.5277 56.5635 43.0143 56.8201 42.567C57.0768 42.1123 57.4251 41.7567 57.8651 41.5C58.3125 41.236 58.8185 41.104 59.3831 41.104C59.9405 41.104 60.4391 41.236 60.8791 41.5C61.3265 41.7567 61.6785 42.1123 61.9351 42.567C62.1918 43.0143 62.3201 43.5277 62.3201 44.107C62.3201 44.6863 62.1918 45.2033 61.9351 45.658C61.6785 46.1053 61.3265 46.461 60.8791 46.725C60.4391 46.9817 59.9405 47.11 59.3831 47.11ZM59.3831 46.076C59.7278 46.076 60.0358 45.9917 60.3071 45.823C60.5785 45.647 60.7911 45.4123 60.9451 45.119C61.0991 44.8183 61.1725 44.481 61.1651 44.107C61.1725 43.7257 61.0991 43.3883 60.9451 43.095C60.7911 42.7943 60.5785 42.5597 60.3071 42.391C60.0358 42.2223 59.7278 42.138 59.3831 42.138C59.0385 42.138 58.7268 42.226 58.4481 42.402C58.1768 42.5707 57.9641 42.8053 57.8101 43.106C57.6561 43.3993 57.5828 43.733 57.5901 44.107C57.5828 44.481 57.6561 44.8183 57.8101 45.119C57.9641 45.4123 58.1768 45.647 58.4481 45.823C58.7268 45.9917 59.0385 46.076 59.3831 46.076ZM63.5547 47V41.225H64.6987V43.04L64.5887 42.6C64.6694 42.3213 64.805 42.0683 64.9957 41.841C65.1937 41.6137 65.4174 41.434 65.6667 41.302C65.9234 41.17 66.1874 41.104 66.4587 41.104C66.5834 41.104 66.7007 41.115 66.8107 41.137C66.928 41.159 67.0197 41.1847 67.0857 41.214L66.7887 42.446C66.7007 42.4093 66.6017 42.38 66.4917 42.358C66.389 42.3287 66.2864 42.314 66.1837 42.314C65.9857 42.314 65.795 42.3543 65.6117 42.435C65.4357 42.5083 65.278 42.6147 65.1387 42.754C65.0067 42.886 64.9004 43.0437 64.8197 43.227C64.739 43.403 64.6987 43.5973 64.6987 43.81V47H63.5547ZM70.4151 49.53C70.0044 49.53 69.5938 49.464 69.1831 49.332C68.7798 49.2073 68.4534 49.0423 68.2041 48.837L68.6221 47.957C68.7688 48.067 68.9411 48.1623 69.1391 48.243C69.3371 48.331 69.5461 48.397 69.7661 48.441C69.9861 48.4923 70.2024 48.518 70.4151 48.518C70.8184 48.518 71.1558 48.452 71.4271 48.32C71.6984 48.188 71.9038 47.9937 72.0431 47.737C72.1824 47.4803 72.2521 47.1613 72.2521 46.78V45.669L72.3731 45.746C72.3364 45.9733 72.2154 46.1933 72.0101 46.406C71.8121 46.6113 71.5628 46.78 71.2621 46.912C70.9614 47.044 70.6534 47.11 70.3381 47.11C69.7881 47.11 69.2968 46.9817 68.8641 46.725C68.4388 46.461 68.1014 46.1053 67.8521 45.658C67.6028 45.2033 67.4781 44.6863 67.4781 44.107C67.4781 43.5277 67.5991 43.0143 67.8411 42.567C68.0904 42.1123 68.4278 41.7567 68.8531 41.5C69.2858 41.236 69.7698 41.104 70.3051 41.104C70.5251 41.104 70.7378 41.1333 70.9431 41.192C71.1484 41.2433 71.3391 41.3203 71.5151 41.423C71.6911 41.5183 71.8488 41.6247 71.9881 41.742C72.1274 41.8593 72.2411 41.984 72.3291 42.116C72.4171 42.248 72.4721 42.3727 72.4941 42.49L72.2521 42.578V41.225H73.3851V46.648C73.3851 47.11 73.3154 47.517 73.1761 47.869C73.0441 48.2283 72.8498 48.529 72.5931 48.771C72.3364 49.0203 72.0248 49.2073 71.6581 49.332C71.2914 49.464 70.8771 49.53 70.4151 49.53ZM70.4591 46.065C70.8184 46.065 71.1374 45.9807 71.4161 45.812C71.6948 45.6433 71.9111 45.4123 72.0651 45.119C72.2191 44.8257 72.2961 44.4883 72.2961 44.107C72.2961 43.7257 72.2154 43.3883 72.0541 43.095C71.9001 42.7943 71.6838 42.5597 71.4051 42.391C71.1338 42.2223 70.8184 42.138 70.4591 42.138C70.1071 42.138 69.7918 42.226 69.5131 42.402C69.2418 42.5707 69.0254 42.8053 68.8641 43.106C68.7101 43.3993 68.6331 43.733 68.6331 44.107C68.6331 44.481 68.7101 44.8183 68.8641 45.119C69.0254 45.4123 69.2418 45.6433 69.5131 45.812C69.7918 45.9807 70.1071 46.065 70.4591 46.065ZM77.6686 47.11C77.0746 47.11 76.5466 46.9853 76.0846 46.736C75.63 46.4793 75.2706 46.131 75.0066 45.691C74.75 45.251 74.6216 44.745 74.6216 44.173C74.6216 43.7183 74.695 43.304 74.8416 42.93C74.9883 42.556 75.19 42.2333 75.4466 41.962C75.7106 41.6833 76.0223 41.4707 76.3816 41.324C76.7483 41.17 77.1443 41.093 77.5696 41.093C77.9436 41.093 78.292 41.1663 78.6146 41.313C78.9373 41.4523 79.216 41.6467 79.4506 41.896C79.6926 42.1453 79.876 42.4423 80.0006 42.787C80.1326 43.1243 80.195 43.4947 80.1876 43.898L80.1766 44.382H75.4576L75.2046 43.48H79.1976L79.0326 43.667V43.403C79.0106 43.161 78.93 42.9447 78.7906 42.754C78.6513 42.5633 78.4753 42.413 78.2626 42.303C78.05 42.193 77.819 42.138 77.5696 42.138C77.1736 42.138 76.84 42.215 76.5686 42.369C76.2973 42.5157 76.092 42.7357 75.9526 43.029C75.8133 43.315 75.7436 43.6707 75.7436 44.096C75.7436 44.4993 75.828 44.8513 75.9966 45.152C76.1653 45.4453 76.4036 45.6727 76.7116 45.834C77.0196 45.9953 77.3753 46.076 77.7786 46.076C78.0646 46.076 78.3286 46.0283 78.5706 45.933C78.82 45.8377 79.0876 45.6653 79.3736 45.416L79.9456 46.219C79.7696 46.395 79.5533 46.549 79.2966 46.681C79.0473 46.813 78.7796 46.9193 78.4936 47C78.215 47.0733 77.94 47.11 77.6686 47.11ZM81.265 41.775L80.847 41.269C81.133 41.137 81.3676 40.9867 81.551 40.818C81.7343 40.6493 81.826 40.5027 81.826 40.378C81.826 40.2827 81.7856 40.1983 81.705 40.125C81.6243 40.0443 81.551 39.9783 81.485 39.927C81.3236 39.795 81.2136 39.685 81.155 39.597C81.1036 39.509 81.078 39.4173 81.078 39.322C81.078 39.146 81.1403 39.0067 81.265 38.904C81.3896 38.794 81.551 38.739 81.749 38.739C81.9543 38.739 82.1376 38.794 82.299 38.904C82.4676 39.0067 82.5996 39.1497 82.695 39.333C82.7903 39.5163 82.838 39.7327 82.838 39.982C82.838 40.1727 82.7976 40.3597 82.717 40.543C82.6363 40.7263 82.5226 40.8987 82.376 41.06C82.2366 41.2213 82.0716 41.3643 81.881 41.489C81.6903 41.6137 81.485 41.709 81.265 41.775ZM85.9973 47.11C85.5133 47.11 85.0769 47.0257 84.6883 46.857C84.2996 46.6883 83.9769 46.439 83.7203 46.109L84.4903 45.449C84.7103 45.7057 84.9486 45.8927 85.2053 46.01C85.4693 46.12 85.7663 46.175 86.0963 46.175C86.2283 46.175 86.3493 46.1603 86.4593 46.131C86.5766 46.0943 86.6756 46.043 86.7563 45.977C86.8443 45.911 86.9103 45.834 86.9543 45.746C86.9983 45.6507 87.0203 45.548 87.0203 45.438C87.0203 45.2473 86.9506 45.0933 86.8113 44.976C86.7379 44.9247 86.6206 44.8697 86.4593 44.811C86.3053 44.745 86.1036 44.679 85.8543 44.613C85.4289 44.503 85.0806 44.3783 84.8093 44.239C84.5379 44.0997 84.3289 43.942 84.1823 43.766C84.0723 43.6267 83.9916 43.4763 83.9403 43.315C83.8889 43.1463 83.8633 42.963 83.8633 42.765C83.8633 42.523 83.9146 42.303 84.0173 42.105C84.1273 41.8997 84.2739 41.7237 84.4573 41.577C84.6479 41.423 84.8679 41.3057 85.1173 41.225C85.3739 41.1443 85.6453 41.104 85.9313 41.104C86.2026 41.104 86.4703 41.1407 86.7343 41.214C87.0056 41.2873 87.2549 41.3937 87.4823 41.533C87.7096 41.6723 87.9003 41.8373 88.0543 42.028L87.4053 42.743C87.2659 42.6037 87.1119 42.4827 86.9433 42.38C86.7819 42.27 86.6169 42.1857 86.4483 42.127C86.2796 42.0683 86.1256 42.039 85.9863 42.039C85.8323 42.039 85.6929 42.0537 85.5683 42.083C85.4436 42.1123 85.3373 42.1563 85.2493 42.215C85.1686 42.2737 85.1063 42.347 85.0623 42.435C85.0183 42.523 84.9963 42.622 84.9963 42.732C85.0036 42.8273 85.0256 42.919 85.0623 43.007C85.1063 43.0877 85.1649 43.1573 85.2383 43.216C85.3189 43.2747 85.4399 43.337 85.6013 43.403C85.7626 43.469 85.9679 43.5313 86.2173 43.59C86.5839 43.6853 86.8846 43.7917 87.1193 43.909C87.3613 44.019 87.5519 44.1473 87.6913 44.294C87.8379 44.4333 87.9406 44.5947 87.9993 44.778C88.0579 44.9613 88.0873 45.1667 88.0873 45.394C88.0873 45.724 87.9919 46.021 87.8013 46.285C87.6179 46.5417 87.3686 46.7433 87.0533 46.89C86.7379 47.0367 86.3859 47.11 85.9973 47.11Z" fill="black"/>
</svg>
