<svg width="63" height="69" viewBox="0 0 63 69" fill="none" xmlns="http://www.w3.org/2000/svg">
<path d="M62.5 68.5H0.5L6.5 35.5L24 0H41.5L57.5 29.5L62.5 53.5V68.5Z" fill="#FF0000" fill-opacity="0.31"/>
<path d="M13.8635 37V29.3H17.0865C17.6512 29.3 18.1682 29.3953 18.6375 29.586C19.1068 29.7693 19.5102 30.0333 19.8475 30.378C20.1922 30.7227 20.4562 31.1297 20.6395 31.599C20.8228 32.0683 20.9145 32.5853 20.9145 33.15C20.9145 33.7147 20.8228 34.2353 20.6395 34.712C20.4562 35.1813 20.1922 35.5883 19.8475 35.933C19.5102 36.2703 19.1068 36.5343 18.6375 36.725C18.1682 36.9083 17.6512 37 17.0865 37H13.8635ZM15.7335 35.724L15.4805 35.35H17.0315C17.3395 35.35 17.6145 35.2987 17.8565 35.196C18.0985 35.086 18.3038 34.9357 18.4725 34.745C18.6485 34.5543 18.7842 34.3233 18.8795 34.052C18.9748 33.7807 19.0225 33.48 19.0225 33.15C19.0225 32.82 18.9748 32.5193 18.8795 32.248C18.7842 31.9767 18.6485 31.7457 18.4725 31.555C18.3038 31.3643 18.0985 31.2177 17.8565 31.115C17.6145 31.005 17.3395 30.95 17.0315 30.95H15.4475L15.7335 30.598V35.724ZM22.1736 37V31.159H23.8456L23.9226 33.062L23.5926 32.699C23.6806 32.3837 23.8236 32.1013 24.0216 31.852C24.2269 31.6027 24.4652 31.4047 24.7366 31.258C25.0079 31.1113 25.2976 31.038 25.6056 31.038C25.7376 31.038 25.8586 31.049 25.9686 31.071C26.0859 31.093 26.1922 31.1187 26.2876 31.148L25.8036 33.095C25.7229 33.0437 25.6129 33.0033 25.4736 32.974C25.3416 32.9373 25.2022 32.919 25.0556 32.919C24.8942 32.919 24.7439 32.9483 24.6046 33.007C24.4652 33.0583 24.3479 33.1353 24.2526 33.238C24.1572 33.3407 24.0802 33.4617 24.0216 33.601C23.9702 33.7403 23.9446 33.898 23.9446 34.074V37H22.1736ZM29.0884 37.099C28.597 37.099 28.157 36.9707 27.7684 36.714C27.387 36.45 27.0827 36.0907 26.8554 35.636C26.628 35.174 26.5144 34.6533 26.5144 34.074C26.5144 33.48 26.628 32.9557 26.8554 32.501C27.0827 32.0463 27.3944 31.6907 27.7904 31.434C28.1864 31.17 28.6374 31.038 29.1434 31.038C29.422 31.038 29.675 31.0783 29.9024 31.159C30.137 31.2397 30.3424 31.3533 30.5184 31.5C30.6944 31.6393 30.8447 31.8043 30.9694 31.995C31.094 32.1783 31.1857 32.3763 31.2444 32.589L30.8814 32.545V31.159H32.6304V37H30.8484V35.592L31.2444 35.581C31.1857 35.7863 31.0904 35.9807 30.9584 36.164C30.8264 36.3473 30.665 36.5087 30.4744 36.648C30.2837 36.7873 30.071 36.8973 29.8364 36.978C29.6017 37.0587 29.3524 37.099 29.0884 37.099ZM29.5724 35.614C29.8437 35.614 30.0784 35.5517 30.2764 35.427C30.4744 35.3023 30.6284 35.1263 30.7384 34.899C30.8484 34.6643 30.9034 34.3893 30.9034 34.074C30.9034 33.7587 30.8484 33.4873 30.7384 33.26C30.6284 33.0253 30.4744 32.8457 30.2764 32.721C30.0784 32.589 29.8437 32.523 29.5724 32.523C29.3084 32.523 29.0774 32.589 28.8794 32.721C28.6887 32.8457 28.5384 33.0253 28.4284 33.26C28.3184 33.4873 28.2634 33.7587 28.2634 34.074C28.2634 34.3893 28.3184 34.6643 28.4284 34.899C28.5384 35.1263 28.6887 35.3023 28.8794 35.427C29.0774 35.5517 29.3084 35.614 29.5724 35.614ZM34.1833 39.42V31.159H35.8553L35.9213 32.468L35.5913 32.369C35.6427 32.127 35.7673 31.907 35.9653 31.709C36.1633 31.511 36.4127 31.3533 36.7133 31.236C37.0213 31.1113 37.344 31.049 37.6813 31.049C38.18 31.049 38.6237 31.181 39.0123 31.445C39.401 31.7017 39.7053 32.0573 39.9253 32.512C40.1527 32.9593 40.2663 33.48 40.2663 34.074C40.2663 34.6607 40.1527 35.1813 39.9253 35.636C39.7053 36.0907 39.3973 36.45 39.0013 36.714C38.6127 36.9707 38.1653 37.099 37.6593 37.099C37.3293 37.099 37.014 37.0367 36.7133 36.912C36.4127 36.7873 36.1597 36.6187 35.9543 36.406C35.749 36.1933 35.6133 35.9623 35.5473 35.713L35.9543 35.559V39.42H34.1833ZM37.2303 35.614C37.4943 35.614 37.7253 35.5517 37.9233 35.427C38.1213 35.295 38.2753 35.1153 38.3853 34.888C38.4953 34.6607 38.5503 34.3893 38.5503 34.074C38.5503 33.766 38.4953 33.4983 38.3853 33.271C38.2753 33.0363 38.1213 32.8567 37.9233 32.732C37.7327 32.6 37.5017 32.534 37.2303 32.534C36.959 32.534 36.7243 32.5963 36.5263 32.721C36.3283 32.8457 36.1743 33.0253 36.0643 33.26C35.9543 33.4947 35.8993 33.766 35.8993 34.074C35.8993 34.3893 35.9543 34.6607 36.0643 34.888C36.1743 35.1153 36.3283 35.295 36.5263 35.427C36.7243 35.5517 36.959 35.614 37.2303 35.614ZM44.2173 37.11C43.572 37.11 43.011 36.9817 42.5343 36.725C42.0577 36.461 41.6873 36.1053 41.4233 35.658C41.1593 35.2033 41.0273 34.6863 41.0273 34.107C41.0273 33.6597 41.1007 33.249 41.2473 32.875C41.394 32.501 41.5993 32.1783 41.8633 31.907C42.1273 31.6283 42.439 31.4157 42.7983 31.269C43.165 31.115 43.5647 31.038 43.9973 31.038C44.408 31.038 44.782 31.1113 45.1193 31.258C45.464 31.4047 45.761 31.61 46.0103 31.874C46.2597 32.138 46.4503 32.4497 46.5823 32.809C46.7143 33.1683 46.773 33.5607 46.7583 33.986L46.7473 34.459H42.0943L41.8413 33.469H45.3173L45.1303 33.678V33.458C45.1157 33.2747 45.057 33.1133 44.9543 32.974C44.859 32.8273 44.7307 32.7137 44.5693 32.633C44.408 32.5523 44.2247 32.512 44.0193 32.512C43.7333 32.512 43.4877 32.5707 43.2823 32.688C43.0843 32.798 42.934 32.963 42.8313 33.183C42.7287 33.3957 42.6773 33.6597 42.6773 33.975C42.6773 34.2977 42.7433 34.58 42.8753 34.822C43.0147 35.0567 43.2127 35.24 43.4693 35.372C43.7333 35.504 44.045 35.57 44.4043 35.57C44.6537 35.57 44.8737 35.5333 45.0643 35.46C45.2623 35.3867 45.475 35.262 45.7023 35.086L46.5273 36.252C46.3 36.45 46.058 36.6113 45.8013 36.736C45.5447 36.8607 45.2807 36.9523 45.0093 37.011C44.7453 37.077 44.4813 37.11 44.2173 37.11ZM47.8796 37V31.159H49.5516L49.6286 33.062L49.2986 32.699C49.3866 32.3837 49.5296 32.1013 49.7276 31.852C49.933 31.6027 50.1713 31.4047 50.4426 31.258C50.714 31.1113 51.0036 31.038 51.3116 31.038C51.4436 31.038 51.5646 31.049 51.6746 31.071C51.792 31.093 51.8983 31.1187 51.9936 31.148L51.5096 33.095C51.429 33.0437 51.319 33.0033 51.1796 32.974C51.0476 32.9373 50.9083 32.919 50.7616 32.919C50.6003 32.919 50.45 32.9483 50.3106 33.007C50.1713 33.0583 50.054 33.1353 49.9586 33.238C49.8633 33.3407 49.7863 33.4617 49.7276 33.601C49.6763 33.7403 49.6506 33.898 49.6506 34.074V37H47.8796ZM14.4374 51.11C14.0194 51.11 13.6307 51.055 13.2714 50.945C12.9194 50.835 12.5967 50.67 12.3034 50.45C12.0174 50.2227 11.7607 49.944 11.5334 49.614L12.3474 48.679C12.7067 49.1923 13.0514 49.548 13.3814 49.746C13.7114 49.944 14.1037 50.043 14.5584 50.043C14.8371 50.043 15.0901 49.999 15.3174 49.911C15.5447 49.823 15.7244 49.702 15.8564 49.548C15.9884 49.394 16.0544 49.218 16.0544 49.02C16.0544 48.888 16.0324 48.7633 15.9884 48.646C15.9444 48.5287 15.8747 48.4223 15.7794 48.327C15.6914 48.2317 15.5741 48.1437 15.4274 48.063C15.2881 47.9823 15.1231 47.9127 14.9324 47.854C14.7417 47.788 14.5217 47.733 14.2724 47.689C13.8764 47.6083 13.5317 47.502 13.2384 47.37C12.9451 47.238 12.6994 47.073 12.5014 46.875C12.3034 46.677 12.1567 46.4533 12.0614 46.204C11.9661 45.9473 11.9184 45.6613 11.9184 45.346C11.9184 45.038 11.9844 44.752 12.1164 44.488C12.2557 44.224 12.4427 43.9967 12.6774 43.806C12.9194 43.608 13.2017 43.4577 13.5244 43.355C13.8471 43.245 14.1954 43.19 14.5694 43.19C14.9654 43.19 15.3284 43.2413 15.6584 43.344C15.9884 43.4467 16.2817 43.6007 16.5384 43.806C16.7951 44.004 17.0077 44.2497 17.1764 44.543L16.3404 45.368C16.1937 45.126 16.0287 44.9243 15.8454 44.763C15.6621 44.5943 15.4604 44.4697 15.2404 44.389C15.0204 44.301 14.7857 44.257 14.5364 44.257C14.2504 44.257 14.0011 44.301 13.7884 44.389C13.5757 44.477 13.4071 44.6017 13.2824 44.763C13.1651 44.917 13.1064 45.1003 13.1064 45.313C13.1064 45.467 13.1357 45.61 13.1944 45.742C13.2531 45.8667 13.3411 45.9803 13.4584 46.083C13.5831 46.1783 13.7481 46.2663 13.9534 46.347C14.1587 46.4203 14.4044 46.4863 14.6904 46.545C15.0937 46.633 15.4531 46.7467 15.7684 46.886C16.0837 47.018 16.3514 47.1757 16.5714 47.359C16.7914 47.5423 16.9564 47.7477 17.0664 47.975C17.1837 48.2023 17.2424 48.448 17.2424 48.712C17.2424 49.2033 17.1287 49.6287 16.9014 49.988C16.6741 50.3473 16.3514 50.626 15.9334 50.824C15.5154 51.0147 15.0167 51.11 14.4374 51.11ZM19.3547 51V43.751H20.4877V51H19.3547ZM18.1557 46.325V45.225H21.8297V46.325H18.1557ZM23.3233 51.121C23.0813 51.121 22.8943 51.0513 22.7623 50.912C22.6303 50.7653 22.5643 50.56 22.5643 50.296C22.5643 50.054 22.634 49.856 22.7733 49.702C22.9127 49.548 23.096 49.471 23.3233 49.471C23.5653 49.471 23.7523 49.5443 23.8843 49.691C24.0163 49.8303 24.0823 50.032 24.0823 50.296C24.0823 50.538 24.0127 50.736 23.8733 50.89C23.734 51.044 23.5507 51.121 23.3233 51.121ZM30.4713 51.11C30.2219 51.11 29.9836 51.077 29.7563 51.011C29.5289 50.945 29.3163 50.8497 29.1183 50.725C28.9276 50.6003 28.7553 50.4537 28.6013 50.285C28.4473 50.109 28.3153 49.9183 28.2053 49.713L28.9533 48.932C29.1073 49.152 29.2466 49.328 29.3713 49.46C29.5033 49.592 29.6279 49.6947 29.7453 49.768C29.8626 49.8413 29.9799 49.8927 30.0973 49.922C30.2146 49.944 30.3393 49.955 30.4713 49.955C30.7353 49.955 30.9663 49.8963 31.1643 49.779C31.3623 49.6543 31.5163 49.4857 31.6263 49.273C31.7363 49.0603 31.7913 48.8183 31.7913 48.547V44.4H30.3833V43.3H34.1673V44.4H32.9793V48.657C32.9793 49.009 32.9169 49.3353 32.7923 49.636C32.6749 49.9293 32.5026 50.186 32.2753 50.406C32.0553 50.626 31.7913 50.7983 31.4833 50.923C31.1826 51.0477 30.8453 51.11 30.4713 51.11ZM37.553 51.11C36.9884 51.11 36.4824 50.9817 36.035 50.725C35.595 50.461 35.2467 50.1053 34.99 49.658C34.7334 49.2033 34.605 48.6863 34.605 48.107C34.605 47.5277 34.7334 47.0143 34.99 46.567C35.2467 46.1123 35.595 45.7567 36.035 45.5C36.4824 45.236 36.9884 45.104 37.553 45.104C38.1104 45.104 38.609 45.236 39.049 45.5C39.4964 45.7567 39.8484 46.1123 40.105 46.567C40.3617 47.0143 40.49 47.5277 40.49 48.107C40.49 48.6863 40.3617 49.2033 40.105 49.658C39.8484 50.1053 39.4964 50.461 39.049 50.725C38.609 50.9817 38.1104 51.11 37.553 51.11ZM37.553 50.076C37.8977 50.076 38.2057 49.9917 38.477 49.823C38.7484 49.647 38.961 49.4123 39.115 49.119C39.269 48.8183 39.3424 48.481 39.335 48.107C39.3424 47.7257 39.269 47.3883 39.115 47.095C38.961 46.7943 38.7484 46.5597 38.477 46.391C38.2057 46.2223 37.8977 46.138 37.553 46.138C37.2084 46.138 36.8967 46.226 36.618 46.402C36.3467 46.5707 36.134 46.8053 35.98 47.106C35.826 47.3993 35.7527 47.733 35.76 48.107C35.7527 48.481 35.826 48.8183 35.98 49.119C36.134 49.4123 36.3467 49.647 36.618 49.823C36.8967 49.9917 37.2084 50.076 37.553 50.076ZM41.7246 51V42.86H42.8576V46.413L42.6596 46.545C42.733 46.2883 42.876 46.0537 43.0886 45.841C43.3013 45.621 43.5543 45.445 43.8476 45.313C44.141 45.1737 44.4416 45.104 44.7496 45.104C45.1896 45.104 45.5563 45.192 45.8496 45.368C46.143 45.5367 46.363 45.797 46.5096 46.149C46.6563 46.501 46.7296 46.9447 46.7296 47.48V51H45.5966V47.557C45.5966 47.227 45.5526 46.9557 45.4646 46.743C45.3766 46.523 45.241 46.3653 45.0576 46.27C44.8743 46.1673 44.647 46.1233 44.3756 46.138C44.1556 46.138 43.954 46.1747 43.7706 46.248C43.5873 46.314 43.426 46.4093 43.2866 46.534C43.1546 46.6587 43.0483 46.8053 42.9676 46.974C42.8943 47.1353 42.8576 47.3113 42.8576 47.502V51H42.2966C42.2013 51 42.106 51 42.0106 51C41.9153 51 41.82 51 41.7246 51ZM48.2666 51V45.225H49.3996V46.413L49.2016 46.545C49.2749 46.2883 49.4179 46.0537 49.6306 45.841C49.8433 45.621 50.0963 45.445 50.3896 45.313C50.6829 45.1737 50.9836 45.104 51.2916 45.104C51.7316 45.104 52.0983 45.192 52.3916 45.368C52.6849 45.5367 52.9049 45.797 53.0516 46.149C53.1983 46.501 53.2716 46.9447 53.2716 47.48V51H52.1386V47.557C52.1386 47.227 52.0946 46.9557 52.0066 46.743C51.9186 46.523 51.7829 46.3653 51.5996 46.27C51.4163 46.1673 51.1889 46.1233 50.9176 46.138C50.6976 46.138 50.4959 46.1747 50.3126 46.248C50.1293 46.314 49.9679 46.4093 49.8286 46.534C49.6966 46.6587 49.5903 46.8053 49.5096 46.974C49.4363 47.1353 49.3996 47.3113 49.3996 47.502V51H48.8386C48.7433 51 48.6479 51 48.5526 51C48.4573 51 48.3619 51 48.2666 51ZM4.78825 65V57.751H5.92125V65H4.78825ZM3.58925 60.325V59.225H7.26325V60.325H3.58925ZM8.29493 65V56.86H9.42793V60.413L9.22993 60.545C9.30326 60.2883 9.44626 60.0537 9.65893 59.841C9.8716 59.621 10.1246 59.445 10.4179 59.313C10.7113 59.1737 11.0119 59.104 11.3199 59.104C11.7599 59.104 12.1266 59.192 12.4199 59.368C12.7133 59.5367 12.9333 59.797 13.0799 60.149C13.2266 60.501 13.2999 60.9447 13.2999 61.48V65H12.1669V61.557C12.1669 61.227 12.1229 60.9557 12.0349 60.743C11.9469 60.523 11.8113 60.3653 11.6279 60.27C11.4446 60.1673 11.2173 60.1233 10.9459 60.138C10.7259 60.138 10.5243 60.1747 10.3409 60.248C10.1576 60.314 9.99626 60.4093 9.85693 60.534C9.72493 60.6587 9.6186 60.8053 9.53793 60.974C9.4646 61.1353 9.42793 61.3113 9.42793 61.502V65H8.86693C8.7716 65 8.67626 65 8.58093 65C8.4856 65 8.39026 65 8.29493 65ZM17.5319 65.11C16.9379 65.11 16.4099 64.9853 15.9479 64.736C15.4933 64.4793 15.1339 64.131 14.8699 63.691C14.6133 63.251 14.4849 62.745 14.4849 62.173C14.4849 61.7183 14.5583 61.304 14.7049 60.93C14.8516 60.556 15.0533 60.2333 15.3099 59.962C15.5739 59.6833 15.8856 59.4707 16.2449 59.324C16.6116 59.17 17.0076 59.093 17.4329 59.093C17.8069 59.093 18.1553 59.1663 18.4779 59.313C18.8006 59.4523 19.0793 59.6467 19.3139 59.896C19.5559 60.1453 19.7393 60.4423 19.8639 60.787C19.9959 61.1243 20.0583 61.4947 20.0509 61.898L20.0399 62.382H15.3209L15.0679 61.48H19.0609L18.8959 61.667V61.403C18.8739 61.161 18.7933 60.9447 18.6539 60.754C18.5146 60.5633 18.3386 60.413 18.1259 60.303C17.9133 60.193 17.6823 60.138 17.4329 60.138C17.0369 60.138 16.7033 60.215 16.4319 60.369C16.1606 60.5157 15.9553 60.7357 15.8159 61.029C15.6766 61.315 15.6069 61.6707 15.6069 62.096C15.6069 62.4993 15.6913 62.8513 15.8599 63.152C16.0286 63.4453 16.2669 63.6727 16.5749 63.834C16.8829 63.9953 17.2386 64.076 17.6419 64.076C17.9279 64.076 18.1919 64.0283 18.4339 63.933C18.6833 63.8377 18.9509 63.6653 19.2369 63.416L19.8089 64.219C19.6329 64.395 19.4166 64.549 19.1599 64.681C18.9106 64.813 18.6429 64.9193 18.3569 65C18.0783 65.0733 17.8033 65.11 17.5319 65.11ZM24.6512 65V57.3H27.8632C28.3546 57.3 28.7689 57.3733 29.1062 57.52C29.4436 57.6667 29.6966 57.8867 29.8652 58.18C30.0412 58.466 30.1292 58.818 30.1292 59.236C30.1292 59.654 30.0119 60.0097 29.7772 60.303C29.5499 60.5963 29.2309 60.798 28.8202 60.908V60.688C29.1649 60.7613 29.4656 60.8933 29.7222 61.084C29.9789 61.2673 30.1769 61.4983 30.3162 61.777C30.4629 62.0557 30.5362 62.3747 30.5362 62.734C30.5362 63.1007 30.4776 63.427 30.3602 63.713C30.2502 63.9917 30.0816 64.2263 29.8542 64.417C29.6342 64.6077 29.3666 64.7543 29.0512 64.857C28.7359 64.9523 28.3766 65 27.9732 65H24.6512ZM25.8392 63.856H27.9072C28.2079 63.856 28.4609 63.812 28.6662 63.724C28.8789 63.636 29.0402 63.5077 29.1502 63.339C29.2676 63.163 29.3262 62.954 29.3262 62.712C29.3262 62.4847 29.2639 62.2903 29.1392 62.129C29.0219 61.9677 28.8532 61.8467 28.6332 61.766C28.4132 61.678 28.1529 61.634 27.8522 61.634H25.8392V63.856ZM25.8392 60.49H27.7972C28.0172 60.49 28.2116 60.446 28.3802 60.358C28.5562 60.27 28.6919 60.149 28.7872 59.995C28.8899 59.841 28.9412 59.665 28.9412 59.467C28.9412 59.137 28.8312 58.884 28.6112 58.708C28.3912 58.532 28.0759 58.444 27.6652 58.444H25.8392V60.49ZM34.0638 65.11C33.5871 65.11 33.1508 64.978 32.7548 64.714C32.3661 64.45 32.0545 64.0907 31.8198 63.636C31.5851 63.1813 31.4678 62.668 31.4678 62.096C31.4678 61.5167 31.5851 61.0033 31.8198 60.556C32.0618 60.1013 32.3845 59.7457 32.7878 59.489C33.1985 59.2323 33.6568 59.104 34.1628 59.104C34.4635 59.104 34.7385 59.148 34.9878 59.236C35.2371 59.324 35.4535 59.4487 35.6368 59.61C35.8275 59.764 35.9815 59.9437 36.0988 60.149C36.2235 60.3543 36.3005 60.5743 36.3298 60.809L36.0768 60.721V59.225H37.2208V65H36.0768V63.625L36.3408 63.548C36.2968 63.746 36.2051 63.9403 36.0658 64.131C35.9338 64.3143 35.7615 64.4793 35.5488 64.626C35.3435 64.7727 35.1125 64.89 34.8558 64.978C34.6065 65.066 34.3425 65.11 34.0638 65.11ZM34.3608 64.065C34.7055 64.065 35.0098 63.9807 35.2738 63.812C35.5378 63.6433 35.7431 63.4123 35.8898 63.119C36.0438 62.8183 36.1208 62.4773 36.1208 62.096C36.1208 61.722 36.0438 61.3883 35.8898 61.095C35.7431 60.8017 35.5378 60.5707 35.2738 60.402C35.0098 60.2333 34.7055 60.149 34.3608 60.149C34.0235 60.149 33.7228 60.2333 33.4588 60.402C33.2021 60.5707 32.9968 60.8017 32.8428 61.095C32.6961 61.3883 32.6228 61.722 32.6228 62.096C32.6228 62.4773 32.6961 62.8183 32.8428 63.119C32.9968 63.4123 33.2021 63.6433 33.4588 63.812C33.7228 63.9807 34.0235 64.065 34.3608 64.065ZM38.8027 67.42V59.225H39.9467V60.545L39.7707 60.446C39.8147 60.226 39.9394 60.017 40.1447 59.819C40.3501 59.6137 40.5994 59.4487 40.8927 59.324C41.1934 59.192 41.5014 59.126 41.8167 59.126C42.3374 59.126 42.7994 59.2543 43.2027 59.511C43.6061 59.7677 43.9251 60.1197 44.1597 60.567C44.3944 61.0143 44.5117 61.5277 44.5117 62.107C44.5117 62.679 44.3944 63.1923 44.1597 63.647C43.9324 64.0943 43.6171 64.45 43.2137 64.714C42.8104 64.9707 42.3557 65.099 41.8497 65.099C41.5124 65.099 41.1861 65.033 40.8707 64.901C40.5554 64.7617 40.2877 64.5857 40.0677 64.373C39.8477 64.1603 39.7121 63.9403 39.6607 63.713L39.9467 63.559V67.42H38.8027ZM41.6627 64.054C42.0001 64.054 42.3007 63.9697 42.5647 63.801C42.8287 63.6323 43.0377 63.4013 43.1917 63.108C43.3457 62.8147 43.4227 62.481 43.4227 62.107C43.4227 61.733 43.3457 61.403 43.1917 61.117C43.0451 60.8237 42.8397 60.5927 42.5757 60.424C42.3117 60.2553 42.0074 60.171 41.6627 60.171C41.3181 60.171 41.0137 60.2553 40.7497 60.424C40.4857 60.5853 40.2767 60.8127 40.1227 61.106C39.9687 61.3993 39.8917 61.733 39.8917 62.107C39.8917 62.481 39.9687 62.8147 40.1227 63.108C40.2767 63.4013 40.4857 63.6323 40.7497 63.801C41.0137 63.9697 41.3181 64.054 41.6627 64.054ZM46.4572 65V57.751H47.5902V65H46.4572ZM45.2582 60.325V59.225H48.9322V60.325H45.2582ZM50.1509 65V59.225H51.2839V65H50.1509ZM50.7009 57.949C50.4589 57.949 50.2719 57.8867 50.1399 57.762C50.0079 57.6373 49.9419 57.4613 49.9419 57.234C49.9419 57.0213 50.0079 56.849 50.1399 56.717C50.2792 56.585 50.4662 56.519 50.7009 56.519C50.9429 56.519 51.1299 56.5813 51.2619 56.706C51.3939 56.8307 51.4599 57.0067 51.4599 57.234C51.4599 57.4467 51.3902 57.619 51.2509 57.751C51.1189 57.883 50.9355 57.949 50.7009 57.949ZM54.9504 65.11C54.4664 65.11 54.0301 65.0257 53.6414 64.857C53.2527 64.6883 52.9301 64.439 52.6734 64.109L53.4434 63.449C53.6634 63.7057 53.9017 63.8927 54.1584 64.01C54.4224 64.12 54.7194 64.175 55.0494 64.175C55.1814 64.175 55.3024 64.1603 55.4124 64.131C55.5297 64.0943 55.6287 64.043 55.7094 63.977C55.7974 63.911 55.8634 63.834 55.9074 63.746C55.9514 63.6507 55.9734 63.548 55.9734 63.438C55.9734 63.2473 55.9037 63.0933 55.7644 62.976C55.6911 62.9247 55.5737 62.8697 55.4124 62.811C55.2584 62.745 55.0567 62.679 54.8074 62.613C54.3821 62.503 54.0337 62.3783 53.7624 62.239C53.4911 62.0997 53.2821 61.942 53.1354 61.766C53.0254 61.6267 52.9447 61.4763 52.8934 61.315C52.8421 61.1463 52.8164 60.963 52.8164 60.765C52.8164 60.523 52.8677 60.303 52.9704 60.105C53.0804 59.8997 53.2271 59.7237 53.4104 59.577C53.6011 59.423 53.8211 59.3057 54.0704 59.225C54.3271 59.1443 54.5984 59.104 54.8844 59.104C55.1557 59.104 55.4234 59.1407 55.6874 59.214C55.9587 59.2873 56.2081 59.3937 56.4354 59.533C56.6627 59.6723 56.8534 59.8373 57.0074 60.028L56.3584 60.743C56.2191 60.6037 56.0651 60.4827 55.8964 60.38C55.7351 60.27 55.5701 60.1857 55.4014 60.127C55.2327 60.0683 55.0787 60.039 54.9394 60.039C54.7854 60.039 54.6461 60.0537 54.5214 60.083C54.3967 60.1123 54.2904 60.1563 54.2024 60.215C54.1217 60.2737 54.0594 60.347 54.0154 60.435C53.9714 60.523 53.9494 60.622 53.9494 60.732C53.9567 60.8273 53.9787 60.919 54.0154 61.007C54.0594 61.0877 54.1181 61.1573 54.1914 61.216C54.2721 61.2747 54.3931 61.337 54.5544 61.403C54.7157 61.469 54.9211 61.5313 55.1704 61.59C55.5371 61.6853 55.8377 61.7917 56.0724 61.909C56.3144 62.019 56.5051 62.1473 56.6444 62.294C56.7911 62.4333 56.8937 62.5947 56.9524 62.778C57.0111 62.9613 57.0404 63.1667 57.0404 63.394C57.0404 63.724 56.9451 64.021 56.7544 64.285C56.5711 64.5417 56.3217 64.7433 56.0064 64.89C55.6911 65.0367 55.3391 65.11 54.9504 65.11ZM59.0041 65V57.751H60.1371V65H59.0041ZM57.8051 60.325V59.225H61.4791V60.325H57.8051Z" fill="black"/>
<path d="M23 24.5C29.5 26.5 35.5 26.5 42 24.5C35.5 21.5 29.5 21.5 23 24.5Z" fill="#949494"/>
<path d="M23 24.5L26 17C31 15.5 34 15.5 39 17L42 24.5C35.5 21.5 29.5 21.5 23 24.5Z" fill="#B0B0B0"/>
<path d="M26.001 16.726C26.0678 7.48065 29.5194 6.49515 31.5 6L31.9621 4.15149C31.9844 4.06246 32.0644 4 32.1562 4H32.8438C32.9356 4 33.0156 4.06246 33.0379 4.15149L33.5 6C35.4806 6.49515 38.9322 7.48065 38.999 16.726C39 16.8599 38.8693 16.9608 38.7407 16.923C33.9808 15.5257 31.0192 15.5257 26.2593 16.923C26.1307 16.9608 26 16.8599 26.001 16.726Z" fill="#D1D1D1"/>
<path d="M26 17L23.0806 24.2984C23.0372 24.407 23.0964 24.5297 23.2083 24.5635C29.559 26.4788 35.441 26.4788 41.7917 24.5635C41.9036 24.5297 41.9628 24.407 41.9194 24.2984L39 17M26 17C26 7.53695 29.4728 6.50791 31.4766 6.00586C31.4925 6.00188 31.5083 6 31.5246 6H33.4754C33.4917 6 33.5075 6.00188 33.5234 6.00586C35.5272 6.50791 39 7.53695 39 17M26 17C31 15.5 34 15.5 39 17" stroke="#484848"/>
<path d="M32.3536 25H32.5H32.6464C32.8728 25 33.0899 25.0899 33.25 25.25C33.4101 25.4101 33.5 25.6272 33.5 25.8536V27.1464C33.5 27.3728 33.4101 27.5899 33.25 27.75C33.0899 27.9101 32.8728 28 32.6464 28H32.3536C32.1272 28 31.9101 27.9101 31.75 27.75C31.5899 27.5899 31.5 27.3728 31.5 27.1464V25.8536C31.5 25.6272 31.5899 25.4101 31.75 25.25C31.9101 25.0899 32.1272 25 32.3536 25Z" fill="black"/>
<path d="M32.5 22.25V25M32.5 25H32.3536C32.1272 25 31.9101 25.0899 31.75 25.25V25.25C31.5899 25.4101 31.5 25.6272 31.5 25.8536V27.1464C31.5 27.3728 31.5899 27.5899 31.75 27.75V27.75C31.9101 27.9101 32.1272 28 32.3536 28H32.6464C32.8728 28 33.0899 27.9101 33.25 27.75V27.75C33.4101 27.5899 33.5 27.3728 33.5 27.1464V25.8536C33.5 25.6272 33.4101 25.4101 33.25 25.25V25.25C33.0899 25.0899 32.8728 25 32.6464 25H32.5Z" stroke="#010101"/>
<path d="M26 17L23.1865 24.0336C23.1194 24.2016 23.2932 24.366 23.4586 24.2929C29.6304 21.569 35.3696 21.569 41.5414 24.2929C41.7068 24.366 41.8806 24.2016 41.8135 24.0336L39 17M26 17C26 7.5 29.5 6.5 31.5 6M26 17C31 15.5 34 15.5 39 17M39 17C39 7.5 35.5 6.5 33.5 6M33.5 6H31.5M33.5 6L33.0379 4.15149C33.0156 4.06246 32.9356 4 32.8438 4H32.1562C32.0644 4 31.9844 4.06246 31.9621 4.15149L31.5 6" stroke="#484848"/>
</svg>
