<svg width="1037" height="968" viewBox="0 0 1037 968" fill="none" xmlns="http://www.w3.org/2000/svg">
<path d="M235.935 83.0663L4.61302 319.872C4.26226 320.232 4.23205 320.795 4.54241 321.19L62.8196 395.271C62.9374 395.42 63.01 395.601 63.0288 395.79L78.9913 556.912C78.9971 556.971 79.008 557.028 79.024 557.085L119.471 700.397C119.49 700.465 119.502 700.536 119.507 700.607L130.477 877.626C130.492 877.867 130.593 878.095 130.763 878.267L164.926 912.918C165.26 913.257 165.786 913.313 166.185 913.054L211.016 883.815C211.316 883.62 211.696 883.6 212.015 883.761L280.045 918.269C280.331 918.414 280.669 918.413 280.954 918.267L337.375 889.32C337.75 889.128 338.205 889.191 338.514 889.479L418.374 963.917C418.735 964.253 419.286 964.276 419.673 963.972L492.85 906.617C492.949 906.54 493.062 906.482 493.183 906.446L551.878 889.036C551.959 889.012 552.037 888.978 552.109 888.934L751.786 768.629C751.927 768.544 752.086 768.495 752.249 768.487L855.1 763.021C855.357 763.008 855.598 762.896 855.775 762.708L920.407 694.099C920.469 694.033 920.539 693.976 920.616 693.93L988.793 652.625C988.929 652.543 989.043 652.429 989.127 652.294L1034.16 579.046C1034.37 578.713 1034.36 578.292 1034.14 577.967L954.137 458.206C954.047 458.071 953.991 457.916 953.974 457.754L942.527 348.255C942.509 348.088 942.45 347.928 942.354 347.789L907.638 297.7C907.547 297.568 907.489 297.417 907.469 297.259L897.026 217.198C897.009 217.067 896.966 216.941 896.9 216.827L867.591 166.158C867.531 166.054 867.49 165.939 867.47 165.82L856.145 96.8805C856.062 96.3788 855.617 96.0189 855.109 96.0438L734.222 101.989C734.076 101.996 733.933 102.036 733.803 102.104L649 147L559.202 181.921C559.069 181.973 558.926 181.996 558.783 181.988L471.352 177.02C471.124 177.007 470.908 176.916 470.738 176.763L418.751 129.727C418.588 129.58 418.478 129.383 418.439 129.167L400.587 32.4716C400.532 32.1734 400.345 31.9164 400.078 31.7726L349.044 4.29269C348.71 4.11328 348.304 4.13731 347.995 4.35478L236.076 82.9467C236.025 82.9822 235.978 83.0222 235.935 83.0663Z" fill="#F2DEAA" stroke="black" stroke-width="7" stroke-linejoin="round"/>
<path d="M930 331L773 406.5M773 406.5L432 411M773 406.5L800 534.5C802.5 550 784.5 561.5 776.5 561L330.5 561C320 561 303 544 305 497L305 34.5M483.5 914.5L449.023 767.097C449.008 767.032 448.999 766.967 448.997 766.901L440 485.5L422 326.5M422 326.5L452.5 161.5M422 326.5L198.104 326.5C198.035 326.5 197.966 326.493 197.899 326.479L185.5 323.884M12.5001 313L154.913 317.497C154.971 317.499 155.029 317.506 155.086 317.518L185.5 323.884M185.5 323.884L189.498 482.923C189.499 482.974 189.505 483.026 189.514 483.076L201.487 548.928C201.496 548.976 201.501 549.025 201.502 549.073L209.5 789" stroke="#AEAEAE" stroke-width="3" stroke-linejoin="round"/>
<path d="M235.935 83.0663L4.61302 319.872C4.26226 320.232 4.23205 320.795 4.54241 321.19L62.8196 395.271C62.9374 395.42 63.01 395.601 63.0288 395.79L78.9913 556.912C78.9971 556.971 79.008 557.028 79.024 557.085L119.471 700.397C119.49 700.465 119.502 700.536 119.507 700.607L130.477 877.626C130.492 877.867 130.593 878.095 130.763 878.267L164.926 912.918C165.26 913.257 165.786 913.313 166.185 913.054L211.016 883.815C211.316 883.62 211.696 883.6 212.015 883.761L280.045 918.269C280.331 918.414 280.669 918.413 280.954 918.267L337.375 889.32C337.75 889.128 338.205 889.191 338.514 889.479L418.374 963.917C418.735 964.253 419.286 964.276 419.673 963.972L492.85 906.617C492.949 906.54 493.062 906.482 493.183 906.446L551.878 889.036C551.959 889.012 552.037 888.978 552.109 888.934L751.786 768.629C751.927 768.544 752.086 768.495 752.249 768.487L855.1 763.021C855.357 763.008 855.598 762.896 855.775 762.708L920.407 694.099C920.469 694.033 920.539 693.976 920.616 693.93L988.793 652.625C988.929 652.543 989.043 652.429 989.127 652.294L1034.16 579.046C1034.37 578.713 1034.36 578.292 1034.14 577.967L954.137 458.206C954.047 458.071 953.991 457.916 953.974 457.754L942.527 348.255C942.509 348.088 942.45 347.928 942.354 347.789L907.638 297.7C907.547 297.568 907.489 297.417 907.469 297.259L897.026 217.198C897.009 217.067 896.966 216.941 896.9 216.827L867.591 166.158C867.531 166.054 867.49 165.939 867.47 165.82L856.145 96.8805C856.062 96.3788 855.617 96.0189 855.109 96.0438L734.222 101.989C734.076 101.996 733.933 102.036 733.803 102.104L649 147L559.202 181.921C559.069 181.973 558.926 181.996 558.783 181.988L471.352 177.02C471.124 177.007 470.908 176.916 470.738 176.763L418.751 129.727C418.588 129.58 418.478 129.383 418.439 129.167L400.587 32.4716C400.532 32.1734 400.345 31.9164 400.078 31.7726L349.044 4.29269C348.71 4.11328 348.304 4.13731 347.995 4.35478L236.076 82.9467C236.025 82.9822 235.978 83.0222 235.935 83.0663Z" stroke="black" stroke-width="7" stroke-linejoin="round"/>
<path d="M505.853 438.466L505.804 435.667L508.968 435.612L508.723 421.614L505.56 421.669L505.511 418.869L514.862 418.706L514.91 421.506L511.747 421.561L511.991 435.559L515.155 435.504L515.204 438.303L505.853 438.466ZM518.575 431.663L518.525 428.808L526.588 428.667L526.638 431.523L518.575 431.663ZM536.316 438.019C535.103 438.04 533.988 437.807 532.972 437.321C531.973 436.816 531.168 436.139 530.556 435.291C529.944 434.443 529.629 433.496 529.61 432.451C529.6 431.872 529.665 431.33 529.806 430.823C529.965 430.298 530.199 429.817 530.509 429.383C530.837 428.948 531.232 428.549 531.692 428.186C532.153 427.823 532.688 427.496 533.299 427.206L533.142 427.796C532.653 427.618 532.211 427.402 531.814 427.148C531.436 426.874 531.104 426.562 530.818 426.213C530.531 425.863 530.31 425.484 530.154 425.076C530.016 424.668 529.943 424.24 529.935 423.792C529.918 422.803 530.173 421.902 530.7 421.09C531.246 420.278 531.972 419.621 532.878 419.12C533.803 418.618 534.834 418.357 535.973 418.338C537.111 418.318 538.142 418.542 539.065 419.012C540.007 419.481 540.755 420.112 541.311 420.905C541.884 421.698 542.18 422.589 542.197 423.578C542.205 424.026 542.138 424.456 541.996 424.869C541.872 425.282 541.683 425.659 541.427 426C541.172 426.34 540.841 426.654 540.436 426.941C540.049 427.228 539.605 427.478 539.105 427.692L539.012 427.218C539.576 427.432 540.085 427.713 540.539 428.059C541.012 428.406 541.42 428.8 541.764 429.242C542.108 429.684 542.368 430.156 542.545 430.657C542.74 431.157 542.843 431.678 542.852 432.22C542.871 433.283 542.589 434.25 542.007 435.119C541.424 435.988 540.634 436.683 539.635 437.205C538.654 437.726 537.548 437.997 536.316 438.019ZM536.268 435.219C536.958 435.207 537.572 435.066 538.108 434.795C538.664 434.524 539.096 434.162 539.406 433.708C539.715 433.255 539.865 432.739 539.855 432.16C539.844 431.544 539.676 431.006 539.35 430.545C539.025 430.065 538.579 429.69 538.015 429.42C537.469 429.149 536.85 429.02 536.16 429.032C535.469 429.044 534.856 429.195 534.319 429.484C533.783 429.774 533.36 430.164 533.051 430.654C532.742 431.127 532.593 431.671 532.604 432.287C532.614 432.846 532.781 433.348 533.106 433.79C533.431 434.232 533.867 434.589 534.413 434.859C534.959 435.111 535.577 435.231 536.268 435.219ZM536.113 426.344C536.71 426.334 537.24 426.213 537.703 425.981C538.184 425.748 538.552 425.443 538.807 425.065C539.08 424.668 539.212 424.218 539.203 423.714C539.194 423.21 539.047 422.765 538.76 422.378C538.492 421.99 538.113 421.689 537.624 421.473C537.153 421.239 536.619 421.127 536.022 421.137C535.425 421.148 534.885 421.278 534.404 421.529C533.942 421.762 533.574 422.076 533.301 422.473C533.046 422.869 532.923 423.32 532.932 423.824C532.941 424.327 533.079 424.773 533.348 425.16C533.634 425.529 534.013 425.821 534.483 426.037C534.972 426.252 535.515 426.355 536.113 426.344ZM552.924 437.925C551.431 437.951 550.136 437.563 549.039 436.76C547.961 435.958 547.12 434.815 546.515 433.332C545.91 431.83 545.59 430.044 545.553 427.972C545.517 425.9 545.775 424.113 546.328 422.61C546.88 421.088 547.681 419.907 548.73 419.067C549.799 418.227 551.079 417.794 552.572 417.768C554.065 417.742 555.36 418.13 556.457 418.932C557.554 419.735 558.405 420.886 559.01 422.388C559.615 423.871 559.935 425.649 559.971 427.72C560.007 429.792 559.749 431.589 559.197 433.111C558.645 434.614 557.834 435.785 556.766 436.625C555.698 437.466 554.417 437.899 552.924 437.925ZM552.876 435.181C554.239 435.157 555.282 434.504 556.007 433.222C556.731 431.921 557.072 430.104 557.032 427.772C556.991 425.439 556.586 423.644 555.817 422.388C555.048 421.113 553.983 420.488 552.62 420.511C551.258 420.535 550.215 421.197 549.49 422.498C548.766 423.78 548.424 425.588 548.465 427.921C548.506 430.254 548.911 432.058 549.68 433.333C550.448 434.589 551.514 435.205 552.876 435.181Z" fill="black"/>
<path d="M218.862 320V317.2H222.026V303.2H218.862V300.4H228.214V303.2H225.05V317.2H228.214V320H218.862ZM239.548 313.42V310.564H247.612V313.42H239.548ZM265.024 320.084C263.81 320.084 262.7 319.832 261.692 319.328C260.702 318.805 259.909 318.115 259.312 317.256C258.714 316.397 258.416 315.445 258.416 314.4C258.416 313.821 258.49 313.28 258.64 312.776C258.808 312.253 259.05 311.777 259.368 311.348C259.704 310.919 260.105 310.527 260.572 310.172C261.038 309.817 261.58 309.5 262.196 309.22L262.028 309.808C261.542 309.621 261.104 309.397 260.712 309.136C260.338 308.856 260.012 308.539 259.732 308.184C259.452 307.829 259.237 307.447 259.088 307.036C258.957 306.625 258.892 306.196 258.892 305.748C258.892 304.759 259.162 303.863 259.704 303.06C260.264 302.257 261.001 301.613 261.916 301.128C262.849 300.643 263.885 300.4 265.024 300.4C266.162 300.4 267.189 300.643 268.104 301.128C269.037 301.613 269.774 302.257 270.316 303.06C270.876 303.863 271.156 304.759 271.156 305.748C271.156 306.196 271.081 306.625 270.932 307.036C270.801 307.447 270.605 307.82 270.344 308.156C270.082 308.492 269.746 308.8 269.336 309.08C268.944 309.36 268.496 309.603 267.992 309.808L267.908 309.332C268.468 309.556 268.972 309.845 269.42 310.2C269.886 310.555 270.288 310.956 270.624 311.404C270.96 311.852 271.212 312.328 271.38 312.832C271.566 313.336 271.66 313.859 271.66 314.4C271.66 315.464 271.361 316.425 270.764 317.284C270.166 318.143 269.364 318.824 268.356 319.328C267.366 319.832 266.256 320.084 265.024 320.084ZM265.024 317.284C265.714 317.284 266.33 317.153 266.872 316.892C267.432 316.631 267.87 316.276 268.188 315.828C268.505 315.38 268.664 314.867 268.664 314.288C268.664 313.672 268.505 313.131 268.188 312.664C267.87 312.179 267.432 311.796 266.872 311.516C266.33 311.236 265.714 311.096 265.024 311.096C264.333 311.096 263.717 311.236 263.176 311.516C262.634 311.796 262.205 312.179 261.888 312.664C261.57 313.131 261.412 313.672 261.412 314.288C261.412 314.848 261.57 315.352 261.888 315.8C262.205 316.248 262.634 316.612 263.176 316.892C263.717 317.153 264.333 317.284 265.024 317.284ZM265.024 308.408C265.621 308.408 266.153 308.296 266.62 308.072C267.105 307.848 267.478 307.549 267.74 307.176C268.02 306.784 268.16 306.336 268.16 305.832C268.16 305.328 268.02 304.88 267.74 304.488C267.478 304.096 267.105 303.788 266.62 303.564C266.153 303.321 265.621 303.2 265.024 303.2C264.426 303.2 263.885 303.321 263.4 303.564C262.933 303.788 262.56 304.096 262.28 304.488C262.018 304.88 261.888 305.328 261.888 305.832C261.888 306.336 262.018 306.784 262.28 307.176C262.56 307.549 262.933 307.848 263.4 308.072C263.885 308.296 264.426 308.408 265.024 308.408ZM281.63 320.28C280.137 320.28 278.849 319.869 277.766 319.048C276.702 318.227 275.881 317.069 275.302 315.576C274.724 314.064 274.434 312.272 274.434 310.2C274.434 308.128 274.724 306.345 275.302 304.852C275.881 303.34 276.702 302.173 277.766 301.352C278.849 300.531 280.137 300.12 281.63 300.12C283.124 300.12 284.412 300.531 285.494 301.352C286.577 302.173 287.408 303.34 287.986 304.852C288.565 306.345 288.854 308.128 288.854 310.2C288.854 312.272 288.565 314.064 287.986 315.576C287.408 317.069 286.577 318.227 285.494 319.048C284.412 319.869 283.124 320.28 281.63 320.28ZM281.63 317.536C282.993 317.536 284.048 316.901 284.794 315.632C285.541 314.344 285.914 312.533 285.914 310.2C285.914 307.867 285.541 306.065 284.794 304.796C284.048 303.508 282.993 302.864 281.63 302.864C280.268 302.864 279.213 303.508 278.466 304.796C277.72 306.065 277.346 307.867 277.346 310.2C277.346 312.533 277.72 314.344 278.466 315.632C279.213 316.901 280.268 317.536 281.63 317.536Z" fill="black"/>
<path d="M215.173 563.151L234.761 562.467L235.047 570.638C235.09 571.888 234.941 572.949 234.597 573.82C234.254 574.691 233.717 575.354 232.986 575.809C232.274 576.282 231.386 576.537 230.323 576.575C229.26 576.612 228.344 576.345 227.577 575.774C226.811 575.222 226.27 574.428 225.953 573.393L226.513 573.374C226.357 574.257 226.048 575.034 225.586 575.703C225.142 576.373 224.572 576.897 223.876 577.276C223.18 577.674 222.375 577.889 221.461 577.921C220.528 577.953 219.692 577.833 218.954 577.56C218.236 577.305 217.624 576.897 217.119 576.335C216.614 575.793 216.217 575.125 215.928 574.332C215.657 573.538 215.504 572.628 215.468 571.602L215.173 563.151ZM218.189 566.072L218.373 571.332C218.4 572.097 218.534 572.737 218.776 573.252C219.019 573.785 219.36 574.184 219.798 574.449C220.257 574.731 220.793 574.862 221.409 574.841C221.987 574.82 222.476 574.645 222.876 574.313C223.276 574 223.568 573.561 223.754 572.994C223.958 572.426 224.047 571.76 224.02 570.995L223.842 565.874L218.189 566.072ZM226.752 565.773L226.926 570.754C226.945 571.313 227.075 571.804 227.313 572.225C227.553 572.665 227.873 572.999 228.273 573.228C228.674 573.476 229.126 573.591 229.63 573.573C230.469 573.544 231.103 573.241 231.531 572.666C231.96 572.091 232.155 571.281 232.119 570.236L231.957 565.591L226.752 565.773ZM215.73 587.106C215.687 585.893 215.984 584.771 216.621 583.74C217.258 582.728 218.144 581.903 219.28 581.266C220.416 580.629 221.711 580.285 223.166 580.234C224.64 580.182 225.956 580.435 227.115 580.993C228.293 581.568 229.227 582.357 229.916 583.36C230.605 584.382 230.972 585.537 231.017 586.824C231.044 587.589 230.956 588.292 230.755 588.934C230.553 589.576 230.255 590.138 229.861 590.619C229.486 591.117 229.043 591.525 228.531 591.842C228.019 592.177 227.467 592.393 226.872 592.488L227.074 591.837L230.879 591.704L230.981 594.614L216.29 595.127L216.188 592.217L219.686 592.095L219.906 592.759C219.398 592.665 218.895 592.449 218.398 592.112C217.92 591.792 217.485 591.368 217.093 590.84C216.701 590.331 216.382 589.754 216.136 589.109C215.89 588.482 215.754 587.814 215.73 587.106ZM218.414 587.768C218.445 588.645 218.687 589.412 219.139 590.068C219.592 590.725 220.198 591.227 220.957 591.574C221.735 591.939 222.61 592.105 223.58 592.071C224.531 592.037 225.373 591.812 226.106 591.394C226.839 590.995 227.408 590.452 227.814 589.765C228.219 589.079 228.407 588.297 228.376 587.42C228.346 586.562 228.105 585.805 227.653 585.148C227.201 584.51 226.595 584.009 225.835 583.643C225.076 583.296 224.22 583.139 223.269 583.172C222.299 583.206 221.438 583.423 220.686 583.823C219.954 584.24 219.384 584.783 218.978 585.451C218.572 586.138 218.384 586.91 218.414 587.768ZM216.43 599.151L231.122 598.638L231.222 601.52L228.2 601.626L227.847 601.134C228.506 601.298 229.116 601.641 229.676 602.163C230.254 602.684 230.724 603.312 231.086 604.047C231.467 604.781 231.671 605.539 231.698 606.323C231.737 607.442 231.546 608.383 231.124 609.145C230.721 609.906 230.078 610.488 229.196 610.893C228.314 611.297 227.191 611.523 225.83 611.571L216.875 611.883L216.774 609.001L225.533 608.695C226.373 608.666 227.059 608.53 227.592 608.287C228.144 608.044 228.533 607.685 228.759 607.21C229.004 606.734 229.096 606.152 229.034 605.463C229.015 604.904 228.904 604.394 228.701 603.934C228.517 603.473 228.26 603.071 227.93 602.728C227.601 602.403 227.219 602.146 226.783 601.956C226.366 601.783 225.915 601.706 225.43 601.723L216.531 602.033L216.481 600.606C216.473 600.364 216.464 600.121 216.456 599.879C216.447 599.636 216.439 599.394 216.43 599.151ZM210.805 622.594C210.769 621.549 210.9 620.499 211.199 619.442C211.481 618.405 211.872 617.561 212.372 616.908L214.647 617.893C214.381 618.276 214.153 618.723 213.966 619.234C213.76 619.745 213.61 620.283 213.518 620.846C213.407 621.411 213.361 621.963 213.38 622.504C213.415 623.53 213.613 624.383 213.973 625.061C214.333 625.74 214.846 626.245 215.511 626.576C216.176 626.908 216.994 627.057 217.964 627.023L220.79 626.924L220.605 627.239C220.024 627.166 219.453 626.878 218.894 626.374C218.354 625.889 217.903 625.269 217.54 624.516C217.178 623.763 216.983 622.985 216.955 622.183C216.906 620.784 217.189 619.523 217.803 618.399C218.437 617.294 219.312 616.404 220.428 615.73C221.562 615.056 222.866 614.692 224.34 614.641C225.814 614.59 227.13 614.852 228.29 615.428C229.469 616.021 230.403 616.848 231.094 617.907C231.804 618.984 232.183 620.204 232.23 621.566C232.25 622.125 232.194 622.669 232.063 623.197C231.951 623.724 231.772 624.215 231.526 624.672C231.299 625.128 231.043 625.539 230.757 625.904C230.471 626.269 230.164 626.569 229.836 626.805C229.508 627.04 229.195 627.191 228.899 627.258L228.654 626.65L232.096 626.53L232.196 629.412L218.401 629.894C217.225 629.935 216.184 629.794 215.276 629.47C214.35 629.166 213.568 628.699 212.929 628.067C212.272 627.437 211.769 626.66 211.419 625.739C211.051 624.818 210.846 623.769 210.805 622.594ZM219.624 622.398C219.656 623.312 219.899 624.116 220.352 624.81C220.806 625.504 221.413 626.034 222.173 626.4C222.933 626.765 223.798 626.931 224.768 626.898C225.738 626.864 226.589 626.628 227.321 626.192C228.072 625.774 228.65 625.202 229.054 624.478C229.459 623.773 229.646 622.964 229.614 622.049C229.582 621.154 229.33 620.36 228.858 619.666C228.405 618.991 227.789 618.462 227.009 618.078C226.25 617.712 225.394 617.546 224.442 617.579C223.491 617.612 222.64 617.838 221.889 618.257C221.157 618.693 220.588 619.264 220.183 619.969C219.779 620.693 219.592 621.503 219.624 622.398ZM217.606 640.832C217.553 639.32 217.823 637.966 218.417 636.769C219.029 635.589 219.883 634.644 220.979 633.934C222.076 633.242 223.351 632.87 224.807 632.819C225.963 632.779 227.024 632.929 227.988 633.269C228.953 633.608 229.791 634.093 230.504 634.722C231.237 635.368 231.805 636.142 232.211 637.044C232.635 637.963 232.866 638.963 232.904 640.045C232.937 640.997 232.781 641.889 232.437 642.723C232.111 643.556 231.641 644.282 231.028 644.902C230.415 645.539 229.676 646.032 228.81 646.38C227.964 646.746 227.027 646.937 226.001 646.954L224.768 646.969L224.349 634.965L226.621 634.241L226.976 644.399L226.486 643.996L227.157 643.972C227.771 643.895 228.314 643.67 228.787 643.299C229.259 642.927 229.626 642.466 229.887 641.916C230.148 641.365 230.267 640.772 230.245 640.138C230.21 639.131 229.985 638.289 229.569 637.612C229.172 636.935 228.594 636.432 227.835 636.104C227.095 635.775 226.184 635.629 225.102 635.667C224.076 635.703 223.188 635.948 222.438 636.404C221.707 636.859 221.15 637.486 220.767 638.284C220.384 639.082 220.21 639.993 220.246 641.02C220.271 641.747 220.416 642.414 220.68 643.022C220.945 643.647 221.407 644.313 222.067 645.018L220.075 646.545C219.611 646.113 219.2 645.576 218.842 644.935C218.484 644.312 218.19 643.641 217.959 642.92C217.748 642.218 217.63 641.522 217.606 640.832ZM218.219 650.362L232.91 649.849L233.011 652.759L228.394 652.921L229.504 652.602C230.22 652.782 230.876 653.105 231.471 653.57C232.067 654.053 232.544 654.606 232.902 655.229C233.26 655.87 233.452 656.536 233.476 657.226C233.487 657.543 233.469 657.843 233.423 658.124C233.377 658.425 233.32 658.66 233.252 658.831L230.091 658.185C230.176 657.958 230.242 657.703 230.289 657.421C230.354 657.157 230.382 656.895 230.373 656.634C230.355 656.13 230.236 655.649 230.014 655.189C229.812 654.748 229.528 654.357 229.161 654.015C228.813 653.69 228.403 653.434 227.929 653.245C227.474 653.055 226.976 652.97 226.435 652.989L218.32 653.272L218.219 650.362ZM218.696 664.014L237.136 663.37L237.237 666.252L218.796 666.896L218.696 664.014ZM230.482 660.548L233.28 660.451L233.606 669.797L230.808 669.895L230.482 660.548ZM218.962 679.663C218.909 678.152 219.179 676.798 219.773 675.601C220.385 674.421 221.239 673.476 222.335 672.765C223.432 672.073 224.707 671.702 226.163 671.651C227.319 671.611 228.38 671.761 229.344 672.1C230.309 672.44 231.147 672.925 231.86 673.553C232.593 674.2 233.162 674.974 233.567 675.875C233.991 676.794 234.222 677.795 234.26 678.877C234.293 679.828 234.137 680.721 233.793 681.555C233.467 682.388 232.997 683.114 232.384 683.733C231.771 684.371 231.032 684.864 230.166 685.212C229.32 685.577 228.383 685.769 227.357 685.786L226.124 685.801L225.705 673.796L227.977 673.073L228.332 683.23L227.842 682.827L228.513 682.804C229.127 682.726 229.67 682.502 230.143 682.131C230.615 681.759 230.982 681.298 231.243 680.747C231.504 680.197 231.623 679.604 231.601 678.97C231.566 677.962 231.341 677.12 230.925 676.444C230.528 675.767 229.95 675.264 229.191 674.935C228.451 674.606 227.54 674.461 226.458 674.499C225.432 674.534 224.544 674.78 223.794 675.236C223.063 675.691 222.506 676.318 222.123 677.115C221.74 677.913 221.566 678.825 221.602 679.851C221.627 680.579 221.772 681.246 222.036 681.853C222.301 682.479 222.763 683.145 223.423 683.85L221.431 685.377C220.967 684.945 220.556 684.408 220.198 683.767C219.84 683.144 219.546 682.473 219.315 681.752C219.104 681.05 218.986 680.354 218.962 679.663ZM219.575 689.194L234.266 688.681L234.368 691.591L229.75 691.752L230.86 691.434C231.576 691.614 232.232 691.937 232.827 692.401C233.423 692.885 233.9 693.438 234.258 694.061C234.616 694.702 234.808 695.367 234.832 696.058C234.843 696.375 234.825 696.674 234.779 696.956C234.733 697.257 234.676 697.492 234.608 697.663L231.447 697.016C231.533 696.789 231.598 696.535 231.645 696.253C231.71 695.989 231.738 695.727 231.729 695.466C231.712 694.962 231.592 694.48 231.37 694.021C231.168 693.58 230.884 693.188 230.517 692.846C230.169 692.522 229.759 692.266 229.285 692.077C228.83 691.887 228.333 691.802 227.792 691.821L219.676 692.104L219.575 689.194ZM220.715 721.839L240.303 721.155L240.408 724.177L220.82 724.861L220.715 721.839ZM220.268 709.051L239.856 708.366L239.962 711.389L220.374 712.073L220.268 709.051ZM228.625 710.075L231.535 709.974L231.983 722.79L229.073 722.892L228.625 710.075ZM221.112 733.221L235.628 727.699L235.758 730.608L224.886 734.574L224.919 733.928L233.646 737.518L233.706 739.253L225.225 743.471L225.142 742.718L236.266 745.943L236.367 748.854L221.503 744.414L221.434 742.427L230.637 738.015L230.576 738.662L221.181 735.179L221.112 733.221ZM215.418 754.679L222.377 757.406L220.083 757.514L236.393 749.604L236.511 752.962L225.869 757.928C225.686 758.028 225.401 758.15 225.014 758.294C224.645 758.438 224.276 758.563 223.906 758.669L223.713 757.947C224.11 758.083 224.506 758.209 224.903 758.326C225.3 758.462 225.696 758.588 226.093 758.705L236.832 762.168L236.951 765.582L222.049 760.051L215.526 757.785L215.418 754.679Z" fill="black"/>
<path d="M312 373.346H314.8V376.51H328.8V373.346H331.6V382.698H328.8V379.534H314.8V382.698H312V373.346ZM318.58 394.033H321.436V402.097H318.58V394.033ZM312 414.02L314.296 413.096L321.044 419.088C321.38 419.405 321.763 419.732 322.192 420.068C322.64 420.423 323.097 420.759 323.564 421.076C324.031 421.393 324.488 421.645 324.936 421.832C325.403 422.037 325.841 422.14 326.252 422.14C326.849 422.14 327.353 422.019 327.764 421.776C328.193 421.552 328.52 421.216 328.744 420.768C328.968 420.339 329.08 419.816 329.08 419.2C329.08 418.659 328.921 418.127 328.604 417.604C328.287 417.081 327.839 416.605 327.26 416.176C326.681 415.747 326.009 415.411 325.244 415.168L326.7 412.844C327.783 413.161 328.707 413.637 329.472 414.272C330.256 414.925 330.853 415.7 331.264 416.596C331.675 417.511 331.88 418.5 331.88 419.564C331.88 420.665 331.647 421.645 331.18 422.504C330.732 423.363 330.097 424.035 329.276 424.52C328.473 425.005 327.54 425.248 326.476 425.248C326.047 425.248 325.608 425.201 325.16 425.108C324.712 425.015 324.245 424.865 323.76 424.66C323.293 424.455 322.799 424.193 322.276 423.876C321.772 423.559 321.24 423.176 320.68 422.728C320.12 422.299 319.532 421.804 318.916 421.244L314.072 416.792L314.912 416.232V425.864H312V414.02ZM313.372 432.832H329.276L328.492 433.868L326.448 430.004L329.08 429.192L331.88 434.428V435.884H313.372V432.832ZM312 429.724H314.912V439.076H312V429.724ZM311.804 447.952C311.804 446.664 312.093 445.497 312.672 444.452C313.269 443.407 314.119 442.539 315.22 441.848L317.096 443.528C316.125 444.405 315.463 445.171 315.108 445.824C314.753 446.477 314.576 447.187 314.576 447.952C314.576 448.717 314.744 449.408 315.08 450.024C315.416 450.64 315.873 451.125 316.452 451.48C317.031 451.853 317.675 452.04 318.384 452.04C319.131 452.04 319.793 451.863 320.372 451.508C320.969 451.172 321.436 450.715 321.772 450.136C322.127 449.557 322.304 448.904 322.304 448.176C322.304 447.821 322.276 447.485 322.22 447.168C322.183 446.851 322.08 446.468 321.912 446.02C321.744 445.572 321.483 444.984 321.128 444.256L323.284 442.66L331.6 443.808V454.392H328.8V445.712L329.332 446.3L323.116 445.376L323.928 444.676C324.115 444.863 324.292 445.18 324.46 445.628C324.647 446.076 324.796 446.571 324.908 447.112C325.039 447.672 325.104 448.204 325.104 448.708C325.104 449.903 324.824 450.967 324.264 451.9C323.723 452.852 322.967 453.599 321.996 454.14C321.025 454.7 319.915 454.98 318.664 454.98C317.376 454.98 316.209 454.672 315.164 454.056C314.137 453.44 313.316 452.6 312.7 451.536C312.103 450.472 311.804 449.277 311.804 447.952Z" fill="black"/>
<path d="M603.846 554V551.2H607.01V537.2H603.846V534.4H613.198V537.2H610.034V551.2H613.198V554H603.846ZM624.533 547.42V544.564H632.597V547.42H624.533ZM644.52 554L643.596 551.704L649.588 544.956C649.905 544.62 650.232 544.237 650.568 543.808C650.923 543.36 651.259 542.903 651.576 542.436C651.893 541.969 652.145 541.512 652.332 541.064C652.537 540.597 652.64 540.159 652.64 539.748C652.64 539.151 652.519 538.647 652.276 538.236C652.052 537.807 651.716 537.48 651.268 537.256C650.839 537.032 650.316 536.92 649.7 536.92C649.159 536.92 648.627 537.079 648.104 537.396C647.581 537.713 647.105 538.161 646.676 538.74C646.247 539.319 645.911 539.991 645.668 540.756L643.344 539.3C643.661 538.217 644.137 537.293 644.772 536.528C645.425 535.744 646.2 535.147 647.096 534.736C648.011 534.325 649 534.12 650.064 534.12C651.165 534.12 652.145 534.353 653.004 534.82C653.863 535.268 654.535 535.903 655.02 536.724C655.505 537.527 655.748 538.46 655.748 539.524C655.748 539.953 655.701 540.392 655.608 540.84C655.515 541.288 655.365 541.755 655.16 542.24C654.955 542.707 654.693 543.201 654.376 543.724C654.059 544.228 653.676 544.76 653.228 545.32C652.799 545.88 652.304 546.468 651.744 547.084L647.292 551.928L646.732 551.088H656.364V554H644.52ZM663.332 552.628V536.724L664.368 537.508L660.504 539.552L659.692 536.92L664.928 534.12H666.384V552.628H663.332ZM660.224 554V551.088H669.576V554H660.224ZM678.452 554.196C677.164 554.196 675.997 553.907 674.952 553.328C673.907 552.731 673.039 551.881 672.348 550.78L674.028 548.904C674.905 549.875 675.671 550.537 676.324 550.892C676.977 551.247 677.687 551.424 678.452 551.424C679.217 551.424 679.908 551.256 680.524 550.92C681.14 550.584 681.625 550.127 681.98 549.548C682.353 548.969 682.54 548.325 682.54 547.616C682.54 546.869 682.363 546.207 682.008 545.628C681.672 545.031 681.215 544.564 680.636 544.228C680.057 543.873 679.404 543.696 678.676 543.696C678.321 543.696 677.985 543.724 677.668 543.78C677.351 543.817 676.968 543.92 676.52 544.088C676.072 544.256 675.484 544.517 674.756 544.872L673.16 542.716L674.308 534.4H684.892V537.2H676.212L676.8 536.668L675.876 542.884L675.176 542.072C675.363 541.885 675.68 541.708 676.128 541.54C676.576 541.353 677.071 541.204 677.612 541.092C678.172 540.961 678.704 540.896 679.208 540.896C680.403 540.896 681.467 541.176 682.4 541.736C683.352 542.277 684.099 543.033 684.64 544.004C685.2 544.975 685.48 546.085 685.48 547.336C685.48 548.624 685.172 549.791 684.556 550.836C683.94 551.863 683.1 552.684 682.036 553.3C680.972 553.897 679.777 554.196 678.452 554.196Z" fill="black"/>
<path d="M822.846 375.79L821.619 373.273L824.463 371.886L818.326 359.303L815.482 360.69L814.254 358.173L822.66 354.074L823.887 356.59L821.044 357.977L827.181 370.56L830.025 369.173L831.252 371.69L822.846 375.79ZM838.555 360.807L837.303 358.24L844.551 354.705L845.803 357.272L838.555 360.807ZM864.373 355.629C863.283 356.161 862.174 356.421 861.047 356.41C859.929 356.374 858.913 356.101 858 355.591C857.086 355.081 856.401 354.357 855.942 353.417C855.689 352.897 855.519 352.378 855.432 351.859C855.354 351.316 855.363 350.782 855.46 350.257C855.574 349.723 855.763 349.195 856.027 348.672C856.291 348.148 856.638 347.626 857.069 347.104L857.176 347.706C856.658 347.751 856.165 347.742 855.698 347.679C855.24 347.591 854.807 347.449 854.4 347.253C853.993 347.057 853.633 346.807 853.318 346.504C853.021 346.192 852.774 345.835 852.577 345.432C852.144 344.543 851.994 343.619 852.129 342.66C852.28 341.693 852.661 340.791 853.27 339.954C853.896 339.109 854.721 338.436 855.744 337.937C856.768 337.438 857.797 337.206 858.832 337.241C859.884 337.268 860.829 337.524 861.667 338.008C862.522 338.484 863.167 339.167 863.6 340.056C863.797 340.458 863.918 340.877 863.964 341.312C864.026 341.738 864.014 342.16 863.926 342.576C863.838 342.993 863.671 343.417 863.425 343.848C863.196 344.272 862.899 344.686 862.536 345.092L862.252 344.701C862.854 344.657 863.433 344.696 863.992 344.818C864.567 344.932 865.103 345.117 865.602 345.373C866.1 345.628 866.535 345.945 866.907 346.325C867.296 346.696 867.609 347.125 867.846 347.611C868.312 348.568 868.465 349.563 868.305 350.596C868.145 351.63 867.722 352.594 867.037 353.489C866.368 354.376 865.481 355.089 864.373 355.629ZM863.146 353.112C863.767 352.81 864.263 352.422 864.635 351.95C865.024 351.47 865.263 350.959 865.351 350.417C865.44 349.875 865.358 349.344 865.104 348.824C864.834 348.27 864.454 347.853 863.964 347.573C863.466 347.276 862.904 347.124 862.278 347.118C861.669 347.104 861.054 347.248 860.433 347.551C859.813 347.853 859.32 348.249 858.956 348.738C858.593 349.227 858.375 349.759 858.302 350.335C858.221 350.893 858.316 351.449 858.586 352.003C858.832 352.506 859.195 352.89 859.677 353.153C860.158 353.417 860.704 353.556 861.313 353.57C861.914 353.568 862.525 353.415 863.146 353.112ZM859.255 345.135C859.792 344.873 860.221 344.539 860.542 344.133C860.88 343.719 861.085 343.287 861.156 342.837C861.236 342.362 861.165 341.898 860.944 341.445C860.723 340.992 860.401 340.65 859.978 340.421C859.571 340.183 859.1 340.07 858.566 340.081C858.04 340.068 857.509 340.192 856.972 340.454C856.435 340.716 856.002 341.062 855.672 341.493C855.351 341.899 855.15 342.339 855.07 342.814C855.007 343.281 855.086 343.741 855.307 344.194C855.528 344.647 855.842 344.993 856.249 345.23C856.664 345.443 857.13 345.548 857.648 345.545C858.182 345.533 858.718 345.397 859.255 345.135ZM879.385 348.525C878.043 349.18 876.706 349.375 875.372 349.112C874.056 348.84 872.81 348.16 871.636 347.071C870.453 345.966 869.407 344.482 868.499 342.62C867.591 340.758 867.069 339.029 866.935 337.433C866.792 335.82 867.019 334.411 867.615 333.207C868.228 331.994 869.206 331.06 870.548 330.406C871.89 329.751 873.228 329.555 874.561 329.819C875.894 330.083 877.152 330.767 878.335 331.872C879.51 332.961 880.551 334.436 881.46 336.299C882.368 338.161 882.893 339.898 883.036 341.511C883.171 343.107 882.931 344.511 882.318 345.724C881.705 346.937 880.728 347.871 879.385 348.525ZM878.183 346.059C879.407 345.462 880.077 344.429 880.192 342.961C880.298 341.476 879.84 339.685 878.817 337.587C877.794 335.49 876.669 334.035 875.441 333.221C874.206 332.391 872.976 332.274 871.751 332.872C870.526 333.469 869.86 334.51 869.754 335.995C869.639 337.463 870.093 339.246 871.116 341.343C872.139 343.441 873.268 344.904 874.504 345.735C875.732 346.548 876.958 346.656 878.183 346.059Z" fill="black"/>
<path d="M457.15 673.49L459.949 673.393L460.059 676.555L474.05 676.066L473.94 672.904L476.738 672.806L477.065 682.153L474.266 682.25L474.156 679.088L460.165 679.577L460.275 682.739L457.477 682.837L457.15 673.49ZM464.448 693.935L467.302 693.835L467.584 701.894L464.73 701.994L464.448 693.935ZM460.062 717.562L475.956 717.007L475.209 718.069L473.031 714.279L475.633 713.376L478.615 718.511L478.665 719.966L460.169 720.612L460.062 717.562ZM458.582 714.503L461.493 714.402L461.819 723.748L458.909 723.85L458.582 714.503ZM459.023 732.727C458.978 731.44 459.226 730.264 459.768 729.199C460.329 728.133 461.147 727.236 462.224 726.508L464.157 728.121C463.218 729.032 462.582 729.82 462.25 730.485C461.919 731.15 461.766 731.865 461.793 732.63C461.82 733.395 462.012 734.08 462.369 734.684C462.726 735.287 463.2 735.756 463.791 736.091C464.382 736.444 465.032 736.608 465.741 736.583C466.488 736.557 467.144 736.357 467.71 735.982C468.295 735.625 468.745 735.152 469.061 734.562C469.395 733.971 469.55 733.312 469.524 732.585C469.512 732.23 469.472 731.895 469.405 731.58C469.357 731.264 469.241 730.885 469.057 730.444C468.874 730.002 468.592 729.423 468.212 728.708L470.311 727.038L478.662 727.895L479.031 738.472L476.233 738.57L475.93 729.895L476.482 730.464L470.238 729.758L471.025 729.03C471.218 729.21 471.406 729.521 471.59 729.963C471.792 730.404 471.959 730.893 472.089 731.43C472.24 731.985 472.323 732.515 472.341 733.018C472.383 734.212 472.14 735.286 471.613 736.238C471.105 737.208 470.376 737.981 469.424 738.556C468.474 739.149 467.374 739.468 466.124 739.511C464.837 739.556 463.66 739.289 462.594 738.71C461.546 738.13 460.696 737.32 460.043 736.278C459.409 735.235 459.069 734.052 459.023 732.727Z" fill="black"/>
</svg>
