<svg width="92" height="68" viewBox="0 0 92 68" fill="none" xmlns="http://www.w3.org/2000/svg">
<path d="M35.5 0.5H60L85 41.5V68L7 67.5V41L35.5 0.5Z" fill="#FF0000" fill-opacity="0.31"/>
<path d="M49.5657 4H44.4343C44.0349 4 43.7967 4.44507 44.0182 4.77735L45.416 6.87404C45.4708 6.95617 45.5 7.05268 45.5 7.15139V8.5V12.5C45.5 12.7761 45.2761 13 45 13H41H38.1514C38.0527 13 37.9562 12.9708 37.874 12.916L35.7773 11.5182C35.4451 11.2967 35 11.5349 35 11.9343V17.0657C35 17.4651 35.4451 17.7033 35.7774 17.4818L37.874 16.084C37.9562 16.0292 38.0527 16 38.1514 16H41H45C45.2761 16 45.5 16.2239 45.5 16.5V20V35.882C45.5 35.9596 45.4819 36.0361 45.4472 36.1056L44.3618 38.2764C44.1956 38.6088 44.4373 39 44.809 39H49.191C49.5627 39 49.8044 38.6088 49.6382 38.2764L48.5528 36.1056C48.5181 36.0361 48.5 35.9596 48.5 35.882V20V16.5C48.5 16.2239 48.7239 16 49 16H53H55.8486C55.9473 16 56.0438 16.0292 56.126 16.084L58.2227 17.4818C58.5549 17.7033 59 17.4651 59 17.0657V11.9343C59 11.5349 58.5549 11.2967 58.2227 11.5182L56.126 12.916C56.0438 12.9708 55.9473 13 55.8486 13H53H49C48.7239 13 48.5 12.7761 48.5 12.5V8.5V7.15139C48.5 7.05268 48.5292 6.95617 48.584 6.87404L49.9818 4.77735C50.2033 4.44507 49.9651 4 49.5657 4Z" fill="#4F4533"/>
<path d="M45.5 8.5V12.5C45.5 12.7761 45.2761 13 45 13H41M45.5 8.5V7.15139C45.5 7.05268 45.4708 6.95617 45.416 6.87404L44.0182 4.77735C43.7967 4.44507 44.0349 4 44.4343 4H49.5657C49.9651 4 50.2033 4.44507 49.9818 4.77735L48.584 6.87404C48.5292 6.95617 48.5 7.05268 48.5 7.15139V8.5M45.5 8.5C43 8.5 41 10.5 41 13M41 13H38.1514C38.0527 13 37.9562 12.9708 37.874 12.916L35.7773 11.5182C35.4451 11.2967 35 11.5349 35 11.9343V17.0657C35 17.4651 35.4451 17.7033 35.7774 17.4818L37.874 16.084C37.9562 16.0292 38.0527 16 38.1514 16H41M48.5 8.5V12.5C48.5 12.7761 48.7239 13 49 13H53M48.5 8.5C51 8.5 53 10.5 53 13M53 13H55.8486C55.9473 13 56.0438 12.9708 56.126 12.916L58.2227 11.5182C58.5549 11.2967 59 11.5349 59 11.9343V17.0657C59 17.4651 58.5549 17.7033 58.2226 17.4818L56.126 16.084C56.0438 16.0292 55.9473 16 55.8486 16H53M53 16H49C48.7239 16 48.5 16.2239 48.5 16.5V20M53 16C53 18.5 51 20 48.5 20M48.5 20V35.882C48.5 35.9596 48.5181 36.0361 48.5528 36.1056L49.6382 38.2764C49.8044 38.6088 49.5627 39 49.191 39H44.809C44.4373 39 44.1956 38.6088 44.3618 38.2764L45.4472 36.1056C45.4819 36.0361 45.5 35.9596 45.5 35.882V20M45.5 20V16.5C45.5 16.2239 45.2761 16 45 16H41M45.5 20C43 20 41 18.5 41 16" stroke="black"/>
<path d="M9.82689 50V42.3H13.2259C13.7539 42.3 14.2012 42.377 14.5679 42.531C14.9346 42.6777 15.2096 42.894 15.3929 43.18C15.5836 43.4587 15.6789 43.796 15.6789 44.192C15.6789 44.632 15.5689 45.0023 15.3489 45.303C15.1362 45.6037 14.8246 45.8053 14.4139 45.908L14.3919 45.699C14.7366 45.7723 15.0336 45.9007 15.2829 46.084C15.5396 46.2673 15.7376 46.4947 15.8769 46.766C16.0162 47.03 16.0859 47.3307 16.0859 47.668C16.0859 48.0567 16.0199 48.3977 15.8879 48.691C15.7559 48.977 15.5652 49.219 15.3159 49.417C15.0666 49.615 14.7732 49.7617 14.4359 49.857C14.1059 49.9523 13.7392 50 13.3359 50H9.82689ZM11.5869 48.438H13.2699C13.4752 48.438 13.6476 48.405 13.7869 48.339C13.9336 48.273 14.0472 48.1777 14.1279 48.053C14.2086 47.921 14.2489 47.7633 14.2489 47.58C14.2489 47.4113 14.2049 47.2683 14.1169 47.151C14.0362 47.0337 13.9189 46.9457 13.7649 46.887C13.6109 46.821 13.4276 46.788 13.2149 46.788H11.5869V48.438ZM11.5869 45.391H12.9619C13.1526 45.391 13.3139 45.3617 13.4459 45.303C13.5852 45.237 13.6879 45.149 13.7539 45.039C13.8272 44.9217 13.8639 44.7823 13.8639 44.621C13.8639 44.3863 13.7832 44.203 13.6219 44.071C13.4606 43.9317 13.2186 43.862 12.8959 43.862H11.5869V45.391ZM17.3528 50V44.159H19.0248L19.1018 46.062L18.7718 45.699C18.8598 45.3837 19.0028 45.1013 19.2008 44.852C19.4061 44.6027 19.6444 44.4047 19.9158 44.258C20.1871 44.1113 20.4768 44.038 20.7848 44.038C20.9168 44.038 21.0378 44.049 21.1478 44.071C21.2651 44.093 21.3714 44.1187 21.4668 44.148L20.9828 46.095C20.9021 46.0437 20.7921 46.0033 20.6528 45.974C20.5208 45.9373 20.3814 45.919 20.2348 45.919C20.0734 45.919 19.9231 45.9483 19.7838 46.007C19.6444 46.0583 19.5271 46.1353 19.4318 46.238C19.3364 46.3407 19.2594 46.4617 19.2008 46.601C19.1494 46.7403 19.1238 46.898 19.1238 47.074V50H17.3528ZM22.4576 50V44.159H24.2176V50H22.4576ZM23.3376 43.004C23.0076 43.004 22.7473 42.927 22.5566 42.773C22.3733 42.6117 22.2816 42.3843 22.2816 42.091C22.2816 41.827 22.377 41.6107 22.5676 41.442C22.7583 41.2733 23.015 41.189 23.3376 41.189C23.6676 41.189 23.9243 41.2697 24.1076 41.431C24.291 41.585 24.3826 41.805 24.3826 42.091C24.3826 42.3623 24.2873 42.5823 24.0966 42.751C23.9133 42.9197 23.6603 43.004 23.3376 43.004ZM28.5443 52.53C28.0677 52.53 27.591 52.4603 27.1143 52.321C26.645 52.1817 26.2637 52.002 25.9703 51.782L26.5863 50.55C26.7403 50.6527 26.909 50.7407 27.0923 50.814C27.283 50.8947 27.481 50.957 27.6863 51.001C27.8917 51.045 28.1007 51.067 28.3133 51.067C28.6873 51.067 28.9917 51.012 29.2263 50.902C29.461 50.792 29.637 50.6233 29.7543 50.396C29.8717 50.176 29.9303 49.8973 29.9303 49.56V48.581L30.2713 48.636C30.22 48.878 30.0917 49.098 29.8863 49.296C29.6883 49.494 29.4427 49.6553 29.1493 49.78C28.856 49.8973 28.5443 49.956 28.2143 49.956C27.6863 49.956 27.2133 49.835 26.7953 49.593C26.3847 49.3437 26.0583 49.0027 25.8163 48.57C25.5817 48.13 25.4643 47.624 25.4643 47.052C25.4643 46.4653 25.5817 45.9483 25.8163 45.501C26.051 45.0463 26.3737 44.6907 26.7843 44.434C27.195 44.17 27.657 44.038 28.1703 44.038C28.3903 44.038 28.5993 44.0637 28.7973 44.115C29.0027 44.1663 29.1897 44.236 29.3583 44.324C29.5343 44.4047 29.6883 44.5037 29.8203 44.621C29.9597 44.731 30.0697 44.852 30.1503 44.984C30.2383 45.116 30.297 45.2517 30.3263 45.391L29.9633 45.479L30.0293 44.159H31.7013V49.527C31.7013 50.0037 31.628 50.4253 31.4813 50.792C31.342 51.166 31.133 51.4813 30.8543 51.738C30.583 52.002 30.253 52.2 29.8643 52.332C29.4757 52.464 29.0357 52.53 28.5443 52.53ZM28.5883 48.592C28.8743 48.592 29.12 48.5297 29.3253 48.405C29.538 48.273 29.6993 48.0933 29.8093 47.866C29.9267 47.6387 29.9853 47.371 29.9853 47.063C29.9853 46.755 29.9267 46.4873 29.8093 46.26C29.6993 46.0253 29.538 45.8457 29.3253 45.721C29.12 45.589 28.8743 45.523 28.5883 45.523C28.3097 45.523 28.0677 45.589 27.8623 45.721C27.657 45.8457 27.4957 46.0253 27.3783 46.26C27.2683 46.4873 27.2133 46.755 27.2133 47.063C27.2133 47.371 27.2683 47.6387 27.3783 47.866C27.4957 48.0933 27.657 48.273 27.8623 48.405C28.0677 48.5297 28.3097 48.592 28.5883 48.592ZM33.2297 50V41.86H34.9567V45.347L34.6047 45.479C34.6854 45.215 34.8284 44.9767 35.0337 44.764C35.2464 44.544 35.4994 44.368 35.7927 44.236C36.0861 44.104 36.3941 44.038 36.7167 44.038C37.1567 44.038 37.5271 44.1297 37.8277 44.313C38.1284 44.489 38.3557 44.7567 38.5097 45.116C38.6637 45.468 38.7407 45.9007 38.7407 46.414V50H36.9697V46.557C36.9697 46.3223 36.9367 46.128 36.8707 45.974C36.8047 45.82 36.7021 45.7063 36.5627 45.633C36.4307 45.5523 36.2657 45.5157 36.0677 45.523C35.9137 45.523 35.7707 45.5487 35.6387 45.6C35.5067 45.644 35.3931 45.7137 35.2977 45.809C35.2024 45.897 35.1254 45.9997 35.0667 46.117C35.0154 46.2343 34.9897 46.3627 34.9897 46.502V50H34.1207C33.9154 50 33.7394 50 33.5927 50C33.4461 50 33.3251 50 33.2297 50ZM42.3682 50.099C41.8768 50.099 41.4368 49.9707 41.0482 49.714C40.6668 49.45 40.3625 49.0907 40.1352 48.636C39.9078 48.174 39.7942 47.6533 39.7942 47.074C39.7942 46.48 39.9078 45.9557 40.1352 45.501C40.3625 45.0463 40.6742 44.6907 41.0702 44.434C41.4662 44.17 41.9172 44.038 42.4232 44.038C42.7018 44.038 42.9548 44.0783 43.1822 44.159C43.4168 44.2397 43.6222 44.3533 43.7982 44.5C43.9742 44.6393 44.1245 44.8043 44.2492 44.995C44.3738 45.1783 44.4655 45.3763 44.5242 45.589L44.1612 45.545V44.159H45.9102V50H44.1282V48.592L44.5242 48.581C44.4655 48.7863 44.3702 48.9807 44.2382 49.164C44.1062 49.3473 43.9448 49.5087 43.7542 49.648C43.5635 49.7873 43.3508 49.8973 43.1162 49.978C42.8815 50.0587 42.6322 50.099 42.3682 50.099ZM42.8522 48.614C43.1235 48.614 43.3582 48.5517 43.5562 48.427C43.7542 48.3023 43.9082 48.1263 44.0182 47.899C44.1282 47.6643 44.1832 47.3893 44.1832 47.074C44.1832 46.7587 44.1282 46.4873 44.0182 46.26C43.9082 46.0253 43.7542 45.8457 43.5562 45.721C43.3582 45.589 43.1235 45.523 42.8522 45.523C42.5882 45.523 42.3572 45.589 42.1592 45.721C41.9685 45.8457 41.8182 46.0253 41.7082 46.26C41.5982 46.4873 41.5432 46.7587 41.5432 47.074C41.5432 47.3893 41.5982 47.6643 41.7082 47.899C41.8182 48.1263 41.9685 48.3023 42.1592 48.427C42.3572 48.5517 42.5882 48.614 42.8522 48.614ZM47.4521 50V44.159H49.1241L49.1791 45.215L48.9481 45.226C49.0361 45.0353 49.1461 44.8667 49.2781 44.72C49.4175 44.5733 49.5715 44.4523 49.7401 44.357C49.9161 44.2543 50.0958 44.1773 50.2791 44.126C50.4698 44.0747 50.6605 44.049 50.8511 44.049C51.1371 44.049 51.3975 44.093 51.6321 44.181C51.8668 44.269 52.0721 44.412 52.2481 44.61C52.4241 44.8007 52.5635 45.061 52.6661 45.391L52.3911 45.369L52.4791 45.193C52.5745 45.017 52.6955 44.8593 52.8421 44.72C52.9961 44.5733 53.1648 44.4523 53.3481 44.357C53.5315 44.2543 53.7221 44.1773 53.9201 44.126C54.1181 44.0747 54.3088 44.049 54.4921 44.049C54.9541 44.049 55.3391 44.1407 55.6471 44.324C55.9551 44.5 56.1861 44.7677 56.3401 45.127C56.5015 45.4863 56.5821 45.9227 56.5821 46.436V50H54.8111V46.579C54.8111 46.3443 54.7781 46.15 54.7121 45.996C54.6461 45.842 54.5471 45.7283 54.4151 45.655C54.2905 45.5743 54.1328 45.534 53.9421 45.534C53.7881 45.534 53.6451 45.5597 53.5131 45.611C53.3885 45.6623 53.2785 45.732 53.1831 45.82C53.0951 45.908 53.0255 46.0107 52.9741 46.128C52.9228 46.2453 52.8971 46.3773 52.8971 46.524V50H51.1261V46.568C51.1261 46.348 51.0931 46.161 51.0271 46.007C50.9611 45.853 50.8621 45.7357 50.7301 45.655C50.5981 45.5743 50.4441 45.534 50.2681 45.534C50.1141 45.534 49.9711 45.5597 49.8391 45.611C49.7145 45.6623 49.6045 45.732 49.5091 45.82C49.4211 45.908 49.3515 46.0107 49.3001 46.128C49.2488 46.2453 49.2231 46.3737 49.2231 46.513V50H47.4521ZM65.2526 50.11C64.6733 50.11 64.138 50.0147 63.6466 49.824C63.1626 49.626 62.741 49.351 62.3816 48.999C62.0223 48.6397 61.7436 48.218 61.5456 47.734C61.355 47.2427 61.2596 46.7037 61.2596 46.117C61.2596 45.545 61.3623 45.017 61.5676 44.533C61.773 44.049 62.0553 43.631 62.4146 43.279C62.7813 42.9197 63.2103 42.641 63.7016 42.443C64.2003 42.245 64.743 42.146 65.3296 42.146C65.6963 42.146 66.0556 42.1937 66.4076 42.289C66.7596 42.3843 67.086 42.5273 67.3866 42.718C67.6946 42.9013 67.9586 43.1213 68.1786 43.378L67.0346 44.687C66.8806 44.5257 66.7156 44.3863 66.5396 44.269C66.371 44.1443 66.184 44.049 65.9786 43.983C65.7733 43.917 65.5533 43.884 65.3186 43.884C65.0253 43.884 64.7466 43.939 64.4826 44.049C64.226 44.1517 63.9986 44.302 63.8006 44.5C63.61 44.6907 63.4596 44.9253 63.3496 45.204C63.2396 45.4827 63.1846 45.7943 63.1846 46.139C63.1846 46.4763 63.2396 46.7843 63.3496 47.063C63.4596 47.3343 63.6136 47.569 63.8116 47.767C64.0096 47.965 64.248 48.1153 64.5266 48.218C64.8126 48.3207 65.128 48.372 65.4726 48.372C65.7073 48.372 65.931 48.339 66.1436 48.273C66.3563 48.207 66.5506 48.119 66.7266 48.009C66.91 47.8917 67.0713 47.7597 67.2106 47.613L68.1126 49.043C67.9293 49.2483 67.6836 49.4317 67.3756 49.593C67.075 49.7543 66.7376 49.8827 66.3636 49.978C65.997 50.066 65.6266 50.11 65.2526 50.11ZM69.3043 50V44.159H71.0643V50H69.3043ZM70.1843 43.004C69.8543 43.004 69.594 42.927 69.4033 42.773C69.22 42.6117 69.1283 42.3843 69.1283 42.091C69.1283 41.827 69.2236 41.6107 69.4143 41.442C69.605 41.2733 69.8616 41.189 70.1843 41.189C70.5143 41.189 70.771 41.2697 70.9543 41.431C71.1376 41.585 71.2293 41.805 71.2293 42.091C71.2293 42.3623 71.134 42.5823 70.9433 42.751C70.76 42.9197 70.507 43.004 70.1843 43.004ZM73.202 50V42.685H74.962V50H73.202ZM72.168 45.699V44.159H76.095V45.699H72.168ZM77.8378 52.53L79.1688 49.395L79.1908 50.297L76.3748 44.159H78.3658L79.5978 47.096C79.6638 47.2427 79.7262 47.4003 79.7848 47.569C79.8435 47.7377 79.8875 47.899 79.9168 48.053L79.6748 48.196C79.7188 48.086 79.7665 47.9503 79.8178 47.789C79.8765 47.6203 79.9388 47.4407 80.0048 47.25L81.0828 44.159H83.0848L80.5988 50L79.5868 52.53H77.8378ZM21.0678 64.11C20.6498 64.11 20.2611 64.055 19.9018 63.945C19.5498 63.835 19.2271 63.67 18.9338 63.45C18.6478 63.2227 18.3911 62.944 18.1638 62.614L18.9778 61.679C19.3371 62.1923 19.6818 62.548 20.0118 62.746C20.3418 62.944 20.7341 63.043 21.1888 63.043C21.4674 63.043 21.7204 62.999 21.9478 62.911C22.1751 62.823 22.3548 62.702 22.4868 62.548C22.6188 62.394 22.6848 62.218 22.6848 62.02C22.6848 61.888 22.6628 61.7633 22.6188 61.646C22.5748 61.5287 22.5051 61.4223 22.4098 61.327C22.3218 61.2317 22.2044 61.1437 22.0578 61.063C21.9184 60.9823 21.7534 60.9127 21.5628 60.854C21.3721 60.788 21.1521 60.733 20.9028 60.689C20.5068 60.6083 20.1621 60.502 19.8688 60.37C19.5754 60.238 19.3298 60.073 19.1318 59.875C18.9338 59.677 18.7871 59.4533 18.6918 59.204C18.5964 58.9473 18.5488 58.6613 18.5488 58.346C18.5488 58.038 18.6148 57.752 18.7468 57.488C18.8861 57.224 19.0731 56.9967 19.3078 56.806C19.5498 56.608 19.8321 56.4577 20.1548 56.355C20.4774 56.245 20.8258 56.19 21.1998 56.19C21.5958 56.19 21.9588 56.2413 22.2888 56.344C22.6188 56.4467 22.9121 56.6007 23.1688 56.806C23.4254 57.004 23.6381 57.2497 23.8068 57.543L22.9708 58.368C22.8241 58.126 22.6591 57.9243 22.4758 57.763C22.2924 57.5943 22.0908 57.4697 21.8708 57.389C21.6508 57.301 21.4161 57.257 21.1668 57.257C20.8808 57.257 20.6314 57.301 20.4188 57.389C20.2061 57.477 20.0374 57.6017 19.9128 57.763C19.7954 57.917 19.7368 58.1003 19.7368 58.313C19.7368 58.467 19.7661 58.61 19.8248 58.742C19.8834 58.8667 19.9714 58.9803 20.0888 59.083C20.2134 59.1783 20.3784 59.2663 20.5838 59.347C20.7891 59.4203 21.0348 59.4863 21.3208 59.545C21.7241 59.633 22.0834 59.7467 22.3988 59.886C22.7141 60.018 22.9818 60.1757 23.2018 60.359C23.4218 60.5423 23.5868 60.7477 23.6968 60.975C23.8141 61.2023 23.8728 61.448 23.8728 61.712C23.8728 62.2033 23.7591 62.6287 23.5318 62.988C23.3044 63.3473 22.9818 63.626 22.5638 63.824C22.1458 64.0147 21.6471 64.11 21.0678 64.11ZM25.985 64V56.751H27.118V64H25.985ZM24.786 59.325V58.225H28.46V59.325H24.786ZM29.9537 64.121C29.7117 64.121 29.5247 64.0513 29.3927 63.912C29.2607 63.7653 29.1947 63.56 29.1947 63.296C29.1947 63.054 29.2644 62.856 29.4037 62.702C29.543 62.548 29.7264 62.471 29.9537 62.471C30.1957 62.471 30.3827 62.5443 30.5147 62.691C30.6467 62.8303 30.7127 63.032 30.7127 63.296C30.7127 63.538 30.643 63.736 30.5037 63.89C30.3644 64.044 30.181 64.121 29.9537 64.121ZM40.3906 64V56.3H41.5786V64H40.3906ZM35.3636 64V56.3H36.5516V64H35.3636ZM35.8806 60.733V59.589H40.9186V60.733H35.8806ZM46.1408 64.11C45.5468 64.11 45.0188 63.9853 44.5568 63.736C44.1021 63.4793 43.7428 63.131 43.4788 62.691C43.2221 62.251 43.0938 61.745 43.0938 61.173C43.0938 60.7183 43.1671 60.304 43.3138 59.93C43.4605 59.556 43.6621 59.2333 43.9188 58.962C44.1828 58.6833 44.4945 58.4707 44.8538 58.324C45.2205 58.17 45.6165 58.093 46.0418 58.093C46.4158 58.093 46.7641 58.1663 47.0868 58.313C47.4095 58.4523 47.6881 58.6467 47.9228 58.896C48.1648 59.1453 48.3481 59.4423 48.4728 59.787C48.6048 60.1243 48.6671 60.4947 48.6598 60.898L48.6488 61.382H43.9298L43.6768 60.48H47.6698L47.5048 60.667V60.403C47.4828 60.161 47.4021 59.9447 47.2628 59.754C47.1235 59.5633 46.9475 59.413 46.7348 59.303C46.5221 59.193 46.2911 59.138 46.0418 59.138C45.6458 59.138 45.3121 59.215 45.0408 59.369C44.7695 59.5157 44.5641 59.7357 44.4248 60.029C44.2855 60.315 44.2158 60.6707 44.2158 61.096C44.2158 61.4993 44.3001 61.8513 44.4688 62.152C44.6375 62.4453 44.8758 62.6727 45.1838 62.834C45.4918 62.9953 45.8475 63.076 46.2508 63.076C46.5368 63.076 46.8008 63.0283 47.0428 62.933C47.2921 62.8377 47.5598 62.6653 47.8458 62.416L48.4178 63.219C48.2418 63.395 48.0255 63.549 47.7688 63.681C47.5195 63.813 47.2518 63.9193 46.9658 64C46.6871 64.0733 46.4121 64.11 46.1408 64.11ZM49.8911 64V58.225H51.0241V59.413L50.8261 59.545C50.8995 59.2883 51.0425 59.0537 51.2551 58.841C51.4678 58.621 51.7208 58.445 52.0141 58.313C52.3075 58.1737 52.6081 58.104 52.9161 58.104C53.3561 58.104 53.7228 58.192 54.0161 58.368C54.3095 58.5367 54.5295 58.797 54.6761 59.149C54.8228 59.501 54.8961 59.9447 54.8961 60.48V64H53.7631V60.557C53.7631 60.227 53.7191 59.9557 53.6311 59.743C53.5431 59.523 53.4075 59.3653 53.2241 59.27C53.0408 59.1673 52.8135 59.1233 52.5421 59.138C52.3221 59.138 52.1205 59.1747 51.9371 59.248C51.7538 59.314 51.5925 59.4093 51.4531 59.534C51.3211 59.6587 51.2148 59.8053 51.1341 59.974C51.0608 60.1353 51.0241 60.3113 51.0241 60.502V64H50.4631C50.3678 64 50.2725 64 50.1771 64C50.0818 64 49.9865 64 49.8911 64ZM56.4331 64V58.225H57.5771V60.04L57.4671 59.6C57.5478 59.3213 57.6834 59.0683 57.8741 58.841C58.0721 58.6137 58.2958 58.434 58.5451 58.302C58.8018 58.17 59.0658 58.104 59.3371 58.104C59.4618 58.104 59.5791 58.115 59.6891 58.137C59.8064 58.159 59.8981 58.1847 59.9641 58.214L59.6671 59.446C59.5791 59.4093 59.4801 59.38 59.3701 59.358C59.2674 59.3287 59.1648 59.314 59.0621 59.314C58.8641 59.314 58.6734 59.3543 58.4901 59.435C58.3141 59.5083 58.1564 59.6147 58.0171 59.754C57.8851 59.886 57.7788 60.0437 57.6981 60.227C57.6174 60.403 57.5771 60.5973 57.5771 60.81V64H56.4331ZM61.8376 66.53L63.0036 63.835L63.0146 64.737L60.1326 58.225H61.4526L63.2566 62.471C63.2933 62.5443 63.3373 62.658 63.3886 62.812C63.44 62.9587 63.484 63.1053 63.5206 63.252L63.2346 63.318C63.2933 63.164 63.3483 63.01 63.3996 62.856C63.4583 62.702 63.5133 62.548 63.5646 62.394L65.0716 58.225H66.4136L64.0376 64L63.0586 66.53H61.8376ZM67.1072 58.775L66.6892 58.269C66.9752 58.137 67.2099 57.9867 67.3932 57.818C67.5766 57.6493 67.6682 57.5027 67.6682 57.378C67.6682 57.2827 67.6279 57.1983 67.5472 57.125C67.4666 57.0443 67.3932 56.9783 67.3272 56.927C67.1659 56.795 67.0559 56.685 66.9972 56.597C66.9459 56.509 66.9202 56.4173 66.9202 56.322C66.9202 56.146 66.9826 56.0067 67.1072 55.904C67.2319 55.794 67.3932 55.739 67.5912 55.739C67.7966 55.739 67.9799 55.794 68.1412 55.904C68.3099 56.0067 68.4419 56.1497 68.5372 56.333C68.6326 56.5163 68.6802 56.7327 68.6802 56.982C68.6802 57.1727 68.6399 57.3597 68.5592 57.543C68.4786 57.7263 68.3649 57.8987 68.2182 58.06C68.0789 58.2213 67.9139 58.3643 67.7232 58.489C67.5326 58.6137 67.3272 58.709 67.1072 58.775ZM71.8396 64.11C71.3556 64.11 70.9192 64.0257 70.5306 63.857C70.1419 63.6883 69.8192 63.439 69.5626 63.109L70.3326 62.449C70.5526 62.7057 70.7909 62.8927 71.0476 63.01C71.3116 63.12 71.6086 63.175 71.9386 63.175C72.0706 63.175 72.1916 63.1603 72.3016 63.131C72.4189 63.0943 72.5179 63.043 72.5986 62.977C72.6866 62.911 72.7526 62.834 72.7966 62.746C72.8406 62.6507 72.8626 62.548 72.8626 62.438C72.8626 62.2473 72.7929 62.0933 72.6536 61.976C72.5802 61.9247 72.4629 61.8697 72.3016 61.811C72.1476 61.745 71.9459 61.679 71.6966 61.613C71.2712 61.503 70.9229 61.3783 70.6516 61.239C70.3802 61.0997 70.1712 60.942 70.0246 60.766C69.9146 60.6267 69.8339 60.4763 69.7826 60.315C69.7312 60.1463 69.7056 59.963 69.7056 59.765C69.7056 59.523 69.7569 59.303 69.8596 59.105C69.9696 58.8997 70.1162 58.7237 70.2996 58.577C70.4902 58.423 70.7102 58.3057 70.9596 58.225C71.2162 58.1443 71.4876 58.104 71.7736 58.104C72.0449 58.104 72.3126 58.1407 72.5766 58.214C72.8479 58.2873 73.0972 58.3937 73.3246 58.533C73.5519 58.6723 73.7426 58.8373 73.8966 59.028L73.2476 59.743C73.1082 59.6037 72.9542 59.4827 72.7856 59.38C72.6242 59.27 72.4592 59.1857 72.2906 59.127C72.1219 59.0683 71.9679 59.039 71.8286 59.039C71.6746 59.039 71.5352 59.0537 71.4106 59.083C71.2859 59.1123 71.1796 59.1563 71.0916 59.215C71.0109 59.2737 70.9486 59.347 70.9046 59.435C70.8606 59.523 70.8386 59.622 70.8386 59.732C70.8459 59.8273 70.8679 59.919 70.9046 60.007C70.9486 60.0877 71.0072 60.1573 71.0806 60.216C71.1612 60.2747 71.2822 60.337 71.4436 60.403C71.6049 60.469 71.8102 60.5313 72.0596 60.59C72.4262 60.6853 72.7269 60.7917 72.9616 60.909C73.2036 61.019 73.3942 61.1473 73.5336 61.294C73.6802 61.4333 73.7829 61.5947 73.8416 61.778C73.9002 61.9613 73.9296 62.1667 73.9296 62.394C73.9296 62.724 73.8342 63.021 73.6436 63.285C73.4602 63.5417 73.2109 63.7433 72.8956 63.89C72.5802 64.0367 72.2282 64.11 71.8396 64.11Z" fill="black"/>
</svg>
