<svg width="89" height="43" viewBox="0 0 89 43" fill="none" xmlns="http://www.w3.org/2000/svg">
<path d="M0 36.5V9L62 0H88.5L87.5 43H63L0 36.5Z" fill="#FF0000" fill-opacity="0.31"/>
<path d="M75.5657 4H70.4343C70.0349 4 69.7967 4.44507 70.0182 4.77735L71.416 6.87404C71.4708 6.95617 71.5 7.05268 71.5 7.15139V8.5V12.5C71.5 12.7761 71.2761 13 71 13H67H64.1514C64.0527 13 63.9562 12.9708 63.874 12.916L61.7773 11.5182C61.4451 11.2967 61 11.5349 61 11.9343V17.0657C61 17.4651 61.4451 17.7033 61.7774 17.4818L63.874 16.084C63.9562 16.0292 64.0527 16 64.1514 16H67H71C71.2761 16 71.5 16.2239 71.5 16.5V20V35.882C71.5 35.9596 71.4819 36.0361 71.4472 36.1056L70.3618 38.2764C70.1956 38.6088 70.4373 39 70.809 39H75.191C75.5627 39 75.8044 38.6088 75.6382 38.2764L74.5528 36.1056C74.5181 36.0361 74.5 35.9596 74.5 35.882V20V16.5C74.5 16.2239 74.7239 16 75 16H79H81.8486C81.9473 16 82.0438 16.0292 82.126 16.084L84.2227 17.4818C84.5549 17.7033 85 17.4651 85 17.0657V11.9343C85 11.5349 84.5549 11.2967 84.2227 11.5182L82.126 12.916C82.0438 12.9708 81.9473 13 81.8486 13H79H75C74.7239 13 74.5 12.7761 74.5 12.5V8.5V7.15139C74.5 7.05268 74.5292 6.95617 74.584 6.87404L75.9818 4.77735C76.2033 4.44507 75.9651 4 75.5657 4Z" fill="#4F4533"/>
<path d="M71.5 8.5V12.5C71.5 12.7761 71.2761 13 71 13H67M71.5 8.5V7.15139C71.5 7.05268 71.4708 6.95617 71.416 6.87404L70.0182 4.77735C69.7967 4.44507 70.0349 4 70.4343 4H75.5657C75.9651 4 76.2033 4.44507 75.9818 4.77735L74.584 6.87404C74.5292 6.95617 74.5 7.05268 74.5 7.15139V8.5M71.5 8.5C69 8.5 67 10.5 67 13M67 13H64.1514C64.0527 13 63.9562 12.9708 63.874 12.916L61.7773 11.5182C61.4451 11.2967 61 11.5349 61 11.9343V17.0657C61 17.4651 61.4451 17.7033 61.7774 17.4818L63.874 16.084C63.9562 16.0292 64.0527 16 64.1514 16H67M74.5 8.5V12.5C74.5 12.7761 74.7239 13 75 13H79M74.5 8.5C77 8.5 79 10.5 79 13M79 13H81.8486C81.9473 13 82.0438 12.9708 82.126 12.916L84.2227 11.5182C84.5549 11.2967 85 11.5349 85 11.9343V17.0657C85 17.4651 84.5549 17.7033 84.2226 17.4818L82.126 16.084C82.0438 16.0292 81.9473 16 81.8486 16H79M79 16H75C74.7239 16 74.5 16.2239 74.5 16.5V20M79 16C79 18.5 77 20 74.5 20M74.5 20V35.882C74.5 35.9596 74.5181 36.0361 74.5528 36.1056L75.6382 38.2764C75.8044 38.6088 75.5627 39 75.191 39H70.809C70.4373 39 70.1956 38.6088 70.3618 38.2764L71.4472 36.1056C71.4819 36.0361 71.5 35.9596 71.5 35.882V20M71.5 20V16.5C71.5 16.2239 71.2761 16 71 16H67M71.5 20C69 20 67 18.5 67 16" stroke="black"/>
<path d="M15.4011 18V10.3H20.7691V11.895H17.2161V16.405H20.8791V18H15.4011ZM16.2811 14.843V13.325H20.2741V14.843H16.2811ZM24.1875 18.121C23.7549 18.121 23.3845 18.0293 23.0765 17.846C22.7759 17.6553 22.5412 17.384 22.3725 17.032C22.2112 16.68 22.1305 16.2583 22.1305 15.767V12.159H23.9015V15.525C23.9015 15.7597 23.9382 15.9613 24.0115 16.13C24.0849 16.2987 24.1949 16.4307 24.3415 16.526C24.4882 16.614 24.6642 16.658 24.8695 16.658C25.0235 16.658 25.1629 16.6323 25.2875 16.581C25.4195 16.5297 25.5295 16.46 25.6175 16.372C25.7129 16.2767 25.7862 16.1703 25.8375 16.053C25.8889 15.9283 25.9145 15.7927 25.9145 15.646V12.159H27.6855V18H26.0245L25.9475 16.801L26.2775 16.669C26.1895 16.9477 26.0429 17.197 25.8375 17.417C25.6322 17.6297 25.3865 17.802 25.1005 17.934C24.8145 18.0587 24.5102 18.121 24.1875 18.121ZM29.2541 18V12.159H30.9261L31.0031 14.062L30.6731 13.699C30.7611 13.3837 30.9041 13.1013 31.1021 12.852C31.3075 12.6027 31.5458 12.4047 31.8171 12.258C32.0885 12.1113 32.3781 12.038 32.6861 12.038C32.8181 12.038 32.9391 12.049 33.0491 12.071C33.1665 12.093 33.2728 12.1187 33.3681 12.148L32.8841 14.095C32.8035 14.0437 32.6935 14.0033 32.5541 13.974C32.4221 13.9373 32.2828 13.919 32.1361 13.919C31.9748 13.919 31.8245 13.9483 31.6851 14.007C31.5458 14.0583 31.4285 14.1353 31.3331 14.238C31.2378 14.3407 31.1608 14.4617 31.1021 14.601C31.0508 14.7403 31.0251 14.898 31.0251 15.074V18H29.2541ZM36.7959 18.11C36.1506 18.11 35.5896 17.9817 35.1129 17.725C34.6363 17.461 34.2659 17.1053 34.0019 16.658C33.7379 16.2033 33.6059 15.6863 33.6059 15.107C33.6059 14.6597 33.6793 14.249 33.8259 13.875C33.9726 13.501 34.1779 13.1783 34.4419 12.907C34.7059 12.6283 35.0176 12.4157 35.3769 12.269C35.7436 12.115 36.1433 12.038 36.5759 12.038C36.9866 12.038 37.3606 12.1113 37.6979 12.258C38.0426 12.4047 38.3396 12.61 38.5889 12.874C38.8383 13.138 39.0289 13.4497 39.1609 13.809C39.2929 14.1683 39.3516 14.5607 39.3369 14.986L39.3259 15.459H34.6729L34.4199 14.469H37.8959L37.7089 14.678V14.458C37.6943 14.2747 37.6356 14.1133 37.5329 13.974C37.4376 13.8273 37.3093 13.7137 37.1479 13.633C36.9866 13.5523 36.8033 13.512 36.5979 13.512C36.3119 13.512 36.0663 13.5707 35.8609 13.688C35.6629 13.798 35.5126 13.963 35.4099 14.183C35.3073 14.3957 35.2559 14.6597 35.2559 14.975C35.2559 15.2977 35.3219 15.58 35.4539 15.822C35.5933 16.0567 35.7913 16.24 36.0479 16.372C36.3119 16.504 36.6236 16.57 36.9829 16.57C37.2323 16.57 37.4523 16.5333 37.6429 16.46C37.8409 16.3867 38.0536 16.262 38.2809 16.086L39.1059 17.252C38.8786 17.45 38.6366 17.6113 38.3799 17.736C38.1233 17.8607 37.8593 17.9523 37.5879 18.011C37.3239 18.077 37.0599 18.11 36.7959 18.11ZM42.1522 16.284L41.5032 14.964L44.2312 12.159H46.5522L42.1522 16.284ZM40.4582 18V9.86H42.2182V18H40.4582ZM44.4182 18L42.3612 15.338L43.6042 14.37L46.4972 18H44.4182ZM49.2529 18.099C48.7616 18.099 48.3216 17.9707 47.9329 17.714C47.5516 17.45 47.2473 17.0907 47.0199 16.636C46.7926 16.174 46.6789 15.6533 46.6789 15.074C46.6789 14.48 46.7926 13.9557 47.0199 13.501C47.2473 13.0463 47.5589 12.6907 47.9549 12.434C48.3509 12.17 48.8019 12.038 49.3079 12.038C49.5866 12.038 49.8396 12.0783 50.0669 12.159C50.3016 12.2397 50.5069 12.3533 50.6829 12.5C50.8589 12.6393 51.0093 12.8043 51.1339 12.995C51.2586 13.1783 51.3503 13.3763 51.4089 13.589L51.0459 13.545V12.159H52.7949V18H51.0129V16.592L51.4089 16.581C51.3503 16.7863 51.2549 16.9807 51.1229 17.164C50.9909 17.3473 50.8296 17.5087 50.6389 17.648C50.4483 17.7873 50.2356 17.8973 50.0009 17.978C49.7663 18.0587 49.5169 18.099 49.2529 18.099ZM49.7369 16.614C50.0083 16.614 50.2429 16.5517 50.4409 16.427C50.6389 16.3023 50.7929 16.1263 50.9029 15.899C51.0129 15.6643 51.0679 15.3893 51.0679 15.074C51.0679 14.7587 51.0129 14.4873 50.9029 14.26C50.7929 14.0253 50.6389 13.8457 50.4409 13.721C50.2429 13.589 50.0083 13.523 49.7369 13.523C49.4729 13.523 49.2419 13.589 49.0439 13.721C48.8533 13.8457 48.7029 14.0253 48.5929 14.26C48.4829 14.4873 48.4279 14.7587 48.4279 15.074C48.4279 15.3893 48.4829 15.6643 48.5929 15.899C48.7029 16.1263 48.8533 16.3023 49.0439 16.427C49.2419 16.5517 49.4729 16.614 49.7369 16.614ZM6.31777 32.11C5.89977 32.11 5.5111 32.055 5.15177 31.945C4.79977 31.835 4.4771 31.67 4.18377 31.45C3.89777 31.2227 3.6411 30.944 3.41377 30.614L4.22777 29.679C4.5871 30.1923 4.93177 30.548 5.26177 30.746C5.59177 30.944 5.9841 31.043 6.43877 31.043C6.71744 31.043 6.97044 30.999 7.19777 30.911C7.4251 30.823 7.60477 30.702 7.73677 30.548C7.86877 30.394 7.93477 30.218 7.93477 30.02C7.93477 29.888 7.91277 29.7633 7.86877 29.646C7.82477 29.5287 7.7551 29.4223 7.65977 29.327C7.57177 29.2317 7.45444 29.1437 7.30777 29.063C7.16844 28.9823 7.00344 28.9127 6.81277 28.854C6.6221 28.788 6.4021 28.733 6.15277 28.689C5.75677 28.6083 5.4121 28.502 5.11877 28.37C4.82544 28.238 4.57977 28.073 4.38177 27.875C4.18377 27.677 4.0371 27.4533 3.94177 27.204C3.84644 26.9473 3.79877 26.6613 3.79877 26.346C3.79877 26.038 3.86477 25.752 3.99677 25.488C4.1361 25.224 4.3231 24.9967 4.55777 24.806C4.79977 24.608 5.0821 24.4577 5.40477 24.355C5.72744 24.245 6.07577 24.19 6.44977 24.19C6.84577 24.19 7.20877 24.2413 7.53877 24.344C7.86877 24.4467 8.1621 24.6007 8.41877 24.806C8.67544 25.004 8.8881 25.2497 9.05677 25.543L8.22077 26.368C8.0741 26.126 7.9091 25.9243 7.72577 25.763C7.54244 25.5943 7.34077 25.4697 7.12077 25.389C6.90077 25.301 6.6661 25.257 6.41677 25.257C6.13077 25.257 5.88144 25.301 5.66877 25.389C5.4561 25.477 5.28744 25.6017 5.16277 25.763C5.04544 25.917 4.98677 26.1003 4.98677 26.313C4.98677 26.467 5.0161 26.61 5.07477 26.742C5.13344 26.8667 5.22144 26.9803 5.33877 27.083C5.46344 27.1783 5.62844 27.2663 5.83377 27.347C6.0391 27.4203 6.28477 27.4863 6.57077 27.545C6.9741 27.633 7.33344 27.7467 7.64877 27.886C7.9641 28.018 8.23177 28.1757 8.45177 28.359C8.67177 28.5423 8.83677 28.7477 8.94677 28.975C9.0641 29.2023 9.12277 29.448 9.12277 29.712C9.12277 30.2033 9.0091 30.6287 8.78177 30.988C8.55444 31.3473 8.23177 31.626 7.81377 31.824C7.39577 32.0147 6.8971 32.11 6.31777 32.11ZM11.235 32V24.751H12.368V32H11.235ZM10.036 27.325V26.225H13.71V27.325H10.036ZM15.2037 32.121C14.9617 32.121 14.7747 32.0513 14.6427 31.912C14.5107 31.7653 14.4447 31.56 14.4447 31.296C14.4447 31.054 14.5144 30.856 14.6537 30.702C14.793 30.548 14.9764 30.471 15.2037 30.471C15.4457 30.471 15.6327 30.5443 15.7647 30.691C15.8967 30.8303 15.9627 31.032 15.9627 31.296C15.9627 31.538 15.893 31.736 15.7537 31.89C15.6144 32.044 15.431 32.121 15.2037 32.121ZM20.6136 32V24.3H23.7486C24.1666 24.3 24.5443 24.4063 24.8816 24.619C25.2263 24.8243 25.5013 25.1067 25.7066 25.466C25.912 25.8253 26.0146 26.225 26.0146 26.665C26.0146 27.105 25.912 27.5047 25.7066 27.864C25.5013 28.2233 25.2263 28.513 24.8816 28.733C24.5443 28.9457 24.1666 29.052 23.7486 29.052H21.8016V32H20.6136ZM21.8016 27.908H23.7266C23.9246 27.908 24.1043 27.853 24.2656 27.743C24.427 27.6257 24.5553 27.4753 24.6506 27.292C24.7533 27.1013 24.8046 26.8923 24.8046 26.665C24.8046 26.4377 24.7533 26.2323 24.6506 26.049C24.5553 25.8657 24.427 25.719 24.2656 25.609C24.1043 25.499 23.9246 25.444 23.7266 25.444H21.8016V27.908ZM29.4139 32.11C28.9372 32.11 28.5009 31.978 28.1049 31.714C27.7162 31.45 27.4046 31.0907 27.1699 30.636C26.9352 30.1813 26.8179 29.668 26.8179 29.096C26.8179 28.5167 26.9352 28.0033 27.1699 27.556C27.4119 27.1013 27.7346 26.7457 28.1379 26.489C28.5486 26.2323 29.0069 26.104 29.5129 26.104C29.8136 26.104 30.0886 26.148 30.3379 26.236C30.5872 26.324 30.8036 26.4487 30.9869 26.61C31.1776 26.764 31.3316 26.9437 31.4489 27.149C31.5736 27.3543 31.6506 27.5743 31.6799 27.809L31.4269 27.721V26.225H32.5709V32H31.4269V30.625L31.6909 30.548C31.6469 30.746 31.5552 30.9403 31.4159 31.131C31.2839 31.3143 31.1116 31.4793 30.8989 31.626C30.6936 31.7727 30.4626 31.89 30.2059 31.978C29.9566 32.066 29.6926 32.11 29.4139 32.11ZM29.7109 31.065C30.0556 31.065 30.3599 30.9807 30.6239 30.812C30.8879 30.6433 31.0932 30.4123 31.2399 30.119C31.3939 29.8183 31.4709 29.4773 31.4709 29.096C31.4709 28.722 31.3939 28.3883 31.2399 28.095C31.0932 27.8017 30.8879 27.5707 30.6239 27.402C30.3599 27.2333 30.0556 27.149 29.7109 27.149C29.3736 27.149 29.0729 27.2333 28.8089 27.402C28.5522 27.5707 28.3469 27.8017 28.1929 28.095C28.0462 28.3883 27.9729 28.722 27.9729 29.096C27.9729 29.4773 28.0462 29.8183 28.1929 30.119C28.3469 30.4123 28.5522 30.6433 28.8089 30.812C29.0729 30.9807 29.3736 31.065 29.7109 31.065ZM34.8678 32V24.751H36.0008V32H34.8678ZM33.6688 27.325V26.225H37.3428V27.325H33.6688ZM38.3745 32V26.225H39.5185V28.04L39.4085 27.6C39.4892 27.3213 39.6249 27.0683 39.8155 26.841C40.0135 26.6137 40.2372 26.434 40.4865 26.302C40.7432 26.17 41.0072 26.104 41.2785 26.104C41.4032 26.104 41.5205 26.115 41.6305 26.137C41.7479 26.159 41.8395 26.1847 41.9055 26.214L41.6085 27.446C41.5205 27.4093 41.4215 27.38 41.3115 27.358C41.2089 27.3287 41.1062 27.314 41.0035 27.314C40.8055 27.314 40.6149 27.3543 40.4315 27.435C40.2555 27.5083 40.0979 27.6147 39.9585 27.754C39.8265 27.886 39.7202 28.0437 39.6395 28.227C39.5589 28.403 39.5185 28.5973 39.5185 28.81V32H38.3745ZM42.998 32V26.225H44.131V32H42.998ZM43.548 24.949C43.306 24.949 43.119 24.8867 42.987 24.762C42.855 24.6373 42.789 24.4613 42.789 24.234C42.789 24.0213 42.855 23.849 42.987 23.717C43.1264 23.585 43.3134 23.519 43.548 23.519C43.79 23.519 43.977 23.5813 44.109 23.706C44.241 23.8307 44.307 24.0067 44.307 24.234C44.307 24.4467 44.2374 24.619 44.098 24.751C43.966 24.883 43.7827 24.949 43.548 24.949ZM48.3256 32.11C47.7902 32.11 47.3099 31.978 46.8846 31.714C46.4666 31.45 46.1329 31.0907 45.8836 30.636C45.6416 30.1813 45.5206 29.6717 45.5206 29.107C45.5206 28.5423 45.6416 28.0327 45.8836 27.578C46.1329 27.1233 46.4666 26.764 46.8846 26.5C47.3099 26.236 47.7902 26.104 48.3256 26.104C48.8389 26.104 49.3046 26.2103 49.7226 26.423C50.1479 26.6283 50.4706 26.9107 50.6906 27.27L50.0636 28.04C49.9462 27.8713 49.7959 27.7173 49.6126 27.578C49.4292 27.4387 49.2349 27.3287 49.0296 27.248C48.8242 27.1673 48.6262 27.127 48.4356 27.127C48.0836 27.127 47.7682 27.215 47.4896 27.391C47.2182 27.5597 47.0019 27.7943 46.8406 28.095C46.6792 28.3957 46.5986 28.733 46.5986 29.107C46.5986 29.481 46.6829 29.8183 46.8516 30.119C47.0202 30.4123 47.2439 30.647 47.5226 30.823C47.8012 30.999 48.1092 31.087 48.4466 31.087C48.6446 31.087 48.8352 31.054 49.0186 30.988C49.2092 30.922 49.3926 30.823 49.5686 30.691C49.7446 30.559 49.9096 30.3977 50.0636 30.207L50.6906 30.977C50.4559 31.307 50.1186 31.5783 49.6786 31.791C49.2459 32.0037 48.7949 32.11 48.3256 32.11ZM52.7933 30.196L52.7383 28.964L55.4993 26.225H57.0283L52.7933 30.196ZM51.7593 32V23.86H52.8923V32H51.7593ZM55.6533 32L53.4753 29.459L54.2783 28.722L57.1053 32H55.6533ZM57.8572 26.775L57.4392 26.269C57.7252 26.137 57.9599 25.9867 58.1432 25.818C58.3266 25.6493 58.4182 25.5027 58.4182 25.378C58.4182 25.2827 58.3779 25.1983 58.2972 25.125C58.2166 25.0443 58.1432 24.9783 58.0772 24.927C57.9159 24.795 57.8059 24.685 57.7472 24.597C57.6959 24.509 57.6702 24.4173 57.6702 24.322C57.6702 24.146 57.7326 24.0067 57.8572 23.904C57.9819 23.794 58.1432 23.739 58.3412 23.739C58.5466 23.739 58.7299 23.794 58.8912 23.904C59.0599 24.0067 59.1919 24.1497 59.2872 24.333C59.3826 24.5163 59.4302 24.7327 59.4302 24.982C59.4302 25.1727 59.3899 25.3597 59.3092 25.543C59.2286 25.7263 59.1149 25.8987 58.9682 26.06C58.8289 26.2213 58.6639 26.3643 58.4732 26.489C58.2826 26.6137 58.0772 26.709 57.8572 26.775ZM62.5896 32.11C62.1056 32.11 61.6692 32.0257 61.2806 31.857C60.8919 31.6883 60.5692 31.439 60.3126 31.109L61.0826 30.449C61.3026 30.7057 61.5409 30.8927 61.7976 31.01C62.0616 31.12 62.3586 31.175 62.6886 31.175C62.8206 31.175 62.9416 31.1603 63.0516 31.131C63.1689 31.0943 63.2679 31.043 63.3486 30.977C63.4366 30.911 63.5026 30.834 63.5466 30.746C63.5906 30.6507 63.6126 30.548 63.6126 30.438C63.6126 30.2473 63.5429 30.0933 63.4036 29.976C63.3302 29.9247 63.2129 29.8697 63.0516 29.811C62.8976 29.745 62.6959 29.679 62.4466 29.613C62.0212 29.503 61.6729 29.3783 61.4016 29.239C61.1302 29.0997 60.9212 28.942 60.7746 28.766C60.6646 28.6267 60.5839 28.4763 60.5326 28.315C60.4812 28.1463 60.4556 27.963 60.4556 27.765C60.4556 27.523 60.5069 27.303 60.6096 27.105C60.7196 26.8997 60.8662 26.7237 61.0496 26.577C61.2402 26.423 61.4602 26.3057 61.7096 26.225C61.9662 26.1443 62.2376 26.104 62.5236 26.104C62.7949 26.104 63.0626 26.1407 63.3266 26.214C63.5979 26.2873 63.8472 26.3937 64.0746 26.533C64.3019 26.6723 64.4926 26.8373 64.6466 27.028L63.9976 27.743C63.8582 27.6037 63.7042 27.4827 63.5356 27.38C63.3742 27.27 63.2092 27.1857 63.0406 27.127C62.8719 27.0683 62.7179 27.039 62.5786 27.039C62.4246 27.039 62.2852 27.0537 62.1606 27.083C62.0359 27.1123 61.9296 27.1563 61.8416 27.215C61.7609 27.2737 61.6986 27.347 61.6546 27.435C61.6106 27.523 61.5886 27.622 61.5886 27.732C61.5959 27.8273 61.6179 27.919 61.6546 28.007C61.6986 28.0877 61.7572 28.1573 61.8306 28.216C61.9112 28.2747 62.0322 28.337 62.1936 28.403C62.3549 28.469 62.5602 28.5313 62.8096 28.59C63.1762 28.6853 63.4769 28.7917 63.7116 28.909C63.9536 29.019 64.1442 29.1473 64.2836 29.294C64.4302 29.4333 64.5329 29.5947 64.5916 29.778C64.6502 29.9613 64.6796 30.1667 64.6796 30.394C64.6796 30.724 64.5842 31.021 64.3936 31.285C64.2102 31.5417 63.9609 31.7433 63.6456 31.89C63.3302 32.0367 62.9782 32.11 62.5896 32.11Z" fill="black"/>
</svg>
