<svg width="110" height="58" viewBox="0 0 110 58" fill="none" xmlns="http://www.w3.org/2000/svg">
<path d="M109 58L0.5 57V46L11 0.5H31.5L109 46V58Z" fill="#FF0000" fill-opacity="0.31"/>
<path d="M25.5657 4H20.4343C20.0349 4 19.7967 4.44507 20.0182 4.77735L21.416 6.87404C21.4708 6.95617 21.5 7.05268 21.5 7.15139V8.5V12.5C21.5 12.7761 21.2761 13 21 13H17H14.1514C14.0527 13 13.9562 12.9708 13.874 12.916L11.7773 11.5182C11.4451 11.2967 11 11.5349 11 11.9343V17.0657C11 17.4651 11.4451 17.7033 11.7774 17.4818L13.874 16.084C13.9562 16.0292 14.0527 16 14.1514 16H17H21C21.2761 16 21.5 16.2239 21.5 16.5V20V35.882C21.5 35.9596 21.4819 36.0361 21.4472 36.1056L20.3618 38.2764C20.1956 38.6088 20.4373 39 20.809 39H25.191C25.5627 39 25.8044 38.6088 25.6382 38.2764L24.5528 36.1056C24.5181 36.0361 24.5 35.9596 24.5 35.882V20V16.5C24.5 16.2239 24.7239 16 25 16H29H31.8486C31.9473 16 32.0438 16.0292 32.126 16.084L34.2227 17.4818C34.5549 17.7033 35 17.4651 35 17.0657V11.9343C35 11.5349 34.5549 11.2967 34.2227 11.5182L32.126 12.916C32.0438 12.9708 31.9473 13 31.8486 13H29H25C24.7239 13 24.5 12.7761 24.5 12.5V8.5V7.15139C24.5 7.05268 24.5292 6.95617 24.584 6.87404L25.9818 4.77735C26.2033 4.44507 25.9651 4 25.5657 4Z" fill="#4F4533"/>
<path d="M21.5 8.5V12.5C21.5 12.7761 21.2761 13 21 13H17M21.5 8.5V7.15139C21.5 7.05268 21.4708 6.95617 21.416 6.87404L20.0182 4.77735C19.7967 4.44507 20.0349 4 20.4343 4H25.5657C25.9651 4 26.2033 4.44507 25.9818 4.77735L24.584 6.87404C24.5292 6.95617 24.5 7.05268 24.5 7.15139V8.5M21.5 8.5C19 8.5 17 10.5 17 13M17 13H14.1514C14.0527 13 13.9562 12.9708 13.874 12.916L11.7773 11.5182C11.4451 11.2967 11 11.5349 11 11.9343V17.0657C11 17.4651 11.4451 17.7033 11.7774 17.4818L13.874 16.084C13.9562 16.0292 14.0527 16 14.1514 16H17M24.5 8.5V12.5C24.5 12.7761 24.7239 13 25 13H29M24.5 8.5C27 8.5 29 10.5 29 13M29 13H31.8486C31.9473 13 32.0438 12.9708 32.126 12.916L34.2227 11.5182C34.5549 11.2967 35 11.5349 35 11.9343V17.0657C35 17.4651 34.5549 17.7033 34.2226 17.4818L32.126 16.084C32.0438 16.0292 31.9473 16 31.8486 16H29M29 16H25C24.7239 16 24.5 16.2239 24.5 16.5V20M29 16C29 18.5 27 20 24.5 20M24.5 20V35.882C24.5 35.9596 24.5181 36.0361 24.5528 36.1056L25.6382 38.2764C25.8044 38.6088 25.5627 39 25.191 39H20.809C20.4373 39 20.1956 38.6088 20.3618 38.2764L21.4472 36.1056C21.4819 36.0361 21.5 35.9596 21.5 35.882V20M21.5 20V16.5C21.5 16.2239 21.2761 16 21 16H17M21.5 20C19 20 17 18.5 17 16" stroke="black"/>
<path d="M38.4045 41V33.3H40.2745V39.35H43.7065V41H38.4045ZM47.4558 41.11C46.8471 41.11 46.3045 40.978 45.8278 40.714C45.3585 40.45 44.9845 40.0907 44.7058 39.636C44.4345 39.1813 44.2988 38.6607 44.2988 38.074C44.2988 37.4873 44.4345 36.9667 44.7058 36.512C44.9845 36.0573 45.3585 35.698 45.8278 35.434C46.3045 35.17 46.8471 35.038 47.4558 35.038C48.0645 35.038 48.6035 35.17 49.0728 35.434C49.5495 35.698 49.9235 36.0573 50.1948 36.512C50.4661 36.9667 50.6018 37.4873 50.6018 38.074C50.6018 38.6607 50.4661 39.1813 50.1948 39.636C49.9235 40.0907 49.5495 40.45 49.0728 40.714C48.6035 40.978 48.0645 41.11 47.4558 41.11ZM47.4558 39.592C47.7198 39.592 47.9545 39.526 48.1598 39.394C48.3651 39.262 48.5265 39.0823 48.6438 38.855C48.7611 38.6277 48.8161 38.3673 48.8088 38.074C48.8161 37.7807 48.7611 37.5203 48.6438 37.293C48.5265 37.0583 48.3651 36.875 48.1598 36.743C47.9545 36.611 47.7198 36.545 47.4558 36.545C47.1918 36.545 46.9535 36.611 46.7408 36.743C46.5355 36.875 46.3741 37.0583 46.2568 37.293C46.1395 37.5203 46.0845 37.7807 46.0918 38.074C46.0845 38.3673 46.1395 38.6277 46.2568 38.855C46.3741 39.0823 46.5355 39.262 46.7408 39.394C46.9535 39.526 47.1918 39.592 47.4558 39.592ZM54.4257 43.53C53.949 43.53 53.4723 43.4603 52.9957 43.321C52.5263 43.1817 52.145 43.002 51.8517 42.782L52.4677 41.55C52.6217 41.6527 52.7903 41.7407 52.9737 41.814C53.1643 41.8947 53.3623 41.957 53.5677 42.001C53.773 42.045 53.982 42.067 54.1947 42.067C54.5687 42.067 54.873 42.012 55.1077 41.902C55.3423 41.792 55.5183 41.6233 55.6357 41.396C55.753 41.176 55.8117 40.8973 55.8117 40.56V39.581L56.1527 39.636C56.1013 39.878 55.973 40.098 55.7677 40.296C55.5697 40.494 55.324 40.6553 55.0307 40.78C54.7373 40.8973 54.4257 40.956 54.0957 40.956C53.5677 40.956 53.0947 40.835 52.6767 40.593C52.266 40.3437 51.9397 40.0027 51.6977 39.57C51.463 39.13 51.3457 38.624 51.3457 38.052C51.3457 37.4653 51.463 36.9483 51.6977 36.501C51.9323 36.0463 52.255 35.6907 52.6657 35.434C53.0763 35.17 53.5383 35.038 54.0517 35.038C54.2717 35.038 54.4807 35.0637 54.6787 35.115C54.884 35.1663 55.071 35.236 55.2397 35.324C55.4157 35.4047 55.5697 35.5037 55.7017 35.621C55.841 35.731 55.951 35.852 56.0317 35.984C56.1197 36.116 56.1783 36.2517 56.2077 36.391L55.8447 36.479L55.9107 35.159H57.5827V40.527C57.5827 41.0037 57.5093 41.4253 57.3627 41.792C57.2233 42.166 57.0143 42.4813 56.7357 42.738C56.4643 43.002 56.1343 43.2 55.7457 43.332C55.357 43.464 54.917 43.53 54.4257 43.53ZM54.4697 39.592C54.7557 39.592 55.0013 39.5297 55.2067 39.405C55.4193 39.273 55.5807 39.0933 55.6907 38.866C55.808 38.6387 55.8667 38.371 55.8667 38.063C55.8667 37.755 55.808 37.4873 55.6907 37.26C55.5807 37.0253 55.4193 36.8457 55.2067 36.721C55.0013 36.589 54.7557 36.523 54.4697 36.523C54.191 36.523 53.949 36.589 53.7437 36.721C53.5383 36.8457 53.377 37.0253 53.2597 37.26C53.1497 37.4873 53.0947 37.755 53.0947 38.063C53.0947 38.371 53.1497 38.6387 53.2597 38.866C53.377 39.0933 53.5383 39.273 53.7437 39.405C53.949 39.5297 54.191 39.592 54.4697 39.592ZM61.2671 41.099C60.7757 41.099 60.3357 40.9707 59.9471 40.714C59.5657 40.45 59.2614 40.0907 59.0341 39.636C58.8067 39.174 58.6931 38.6533 58.6931 38.074C58.6931 37.48 58.8067 36.9557 59.0341 36.501C59.2614 36.0463 59.5731 35.6907 59.9691 35.434C60.3651 35.17 60.8161 35.038 61.3221 35.038C61.6007 35.038 61.8537 35.0783 62.0811 35.159C62.3157 35.2397 62.5211 35.3533 62.6971 35.5C62.8731 35.6393 63.0234 35.8043 63.1481 35.995C63.2727 36.1783 63.3644 36.3763 63.4231 36.589L63.0601 36.545V35.159H64.8091V41H63.0271V39.592L63.4231 39.581C63.3644 39.7863 63.2691 39.9807 63.1371 40.164C63.0051 40.3473 62.8437 40.5087 62.6531 40.648C62.4624 40.7873 62.2497 40.8973 62.0151 40.978C61.7804 41.0587 61.5311 41.099 61.2671 41.099ZM61.7511 39.614C62.0224 39.614 62.2571 39.5517 62.4551 39.427C62.6531 39.3023 62.8071 39.1263 62.9171 38.899C63.0271 38.6643 63.0821 38.3893 63.0821 38.074C63.0821 37.7587 63.0271 37.4873 62.9171 37.26C62.8071 37.0253 62.6531 36.8457 62.4551 36.721C62.2571 36.589 62.0224 36.523 61.7511 36.523C61.4871 36.523 61.2561 36.589 61.0581 36.721C60.8674 36.8457 60.7171 37.0253 60.6071 37.26C60.4971 37.4873 60.4421 37.7587 60.4421 38.074C60.4421 38.3893 60.4971 38.6643 60.6071 38.899C60.7171 39.1263 60.8674 39.3023 61.0581 39.427C61.2561 39.5517 61.4871 39.614 61.7511 39.614ZM66.3621 41V35.159H68.0341L68.0891 36.347L67.7371 36.479C67.8177 36.215 67.9607 35.9767 68.1661 35.764C68.3787 35.544 68.6317 35.368 68.9251 35.236C69.2184 35.104 69.5264 35.038 69.8491 35.038C70.2891 35.038 70.6594 35.1297 70.9601 35.313C71.2607 35.489 71.4881 35.7567 71.6421 36.116C71.7961 36.468 71.8731 36.9007 71.8731 37.414V41H70.1021V37.557C70.1021 37.3223 70.0691 37.128 70.0031 36.974C69.9371 36.82 69.8344 36.7063 69.6951 36.633C69.5631 36.5523 69.3981 36.5157 69.2001 36.523C69.0461 36.523 68.9031 36.5487 68.7711 36.6C68.6391 36.644 68.5254 36.7137 68.4301 36.809C68.3347 36.897 68.2577 36.9997 68.1991 37.117C68.1477 37.2343 68.1221 37.3627 68.1221 37.502V41H67.2531C67.0477 41 66.8717 41 66.7251 41C66.5784 41 66.4574 41 66.3621 41ZM6.12343 55.11C5.70543 55.11 5.31677 55.055 4.95743 54.945C4.60543 54.835 4.28277 54.67 3.98943 54.45C3.70343 54.2227 3.44677 53.944 3.21943 53.614L4.03343 52.679C4.39277 53.1923 4.73743 53.548 5.06743 53.746C5.39743 53.944 5.78977 54.043 6.24443 54.043C6.5231 54.043 6.7761 53.999 7.00343 53.911C7.23077 53.823 7.41043 53.702 7.54243 53.548C7.67443 53.394 7.74043 53.218 7.74043 53.02C7.74043 52.888 7.71843 52.7633 7.67443 52.646C7.63043 52.5287 7.56077 52.4223 7.46543 52.327C7.37743 52.2317 7.2601 52.1437 7.11343 52.063C6.9741 51.9823 6.8091 51.9127 6.61843 51.854C6.42777 51.788 6.20777 51.733 5.95843 51.689C5.56243 51.6083 5.21777 51.502 4.92443 51.37C4.6311 51.238 4.38543 51.073 4.18743 50.875C3.98943 50.677 3.84277 50.4533 3.74743 50.204C3.6521 49.9473 3.60443 49.6613 3.60443 49.346C3.60443 49.038 3.67043 48.752 3.80243 48.488C3.94177 48.224 4.12877 47.9967 4.36343 47.806C4.60543 47.608 4.88777 47.4577 5.21043 47.355C5.5331 47.245 5.88143 47.19 6.25543 47.19C6.65143 47.19 7.01443 47.2413 7.34443 47.344C7.67443 47.4467 7.96777 47.6007 8.22443 47.806C8.4811 48.004 8.69377 48.2497 8.86243 48.543L8.02643 49.368C7.87977 49.126 7.71477 48.9243 7.53143 48.763C7.3481 48.5943 7.14643 48.4697 6.92643 48.389C6.70643 48.301 6.47177 48.257 6.22243 48.257C5.93643 48.257 5.6871 48.301 5.47443 48.389C5.26177 48.477 5.0931 48.6017 4.96843 48.763C4.8511 48.917 4.79243 49.1003 4.79243 49.313C4.79243 49.467 4.82177 49.61 4.88043 49.742C4.9391 49.8667 5.0271 49.9803 5.14443 50.083C5.2691 50.1783 5.4341 50.2663 5.63943 50.347C5.84477 50.4203 6.09043 50.4863 6.37643 50.545C6.77977 50.633 7.1391 50.7467 7.45443 50.886C7.76977 51.018 8.03743 51.1757 8.25743 51.359C8.47743 51.5423 8.64243 51.7477 8.75243 51.975C8.86977 52.2023 8.92843 52.448 8.92843 52.712C8.92843 53.2033 8.81477 53.6287 8.58743 53.988C8.3601 54.3473 8.03743 54.626 7.61943 54.824C7.20143 55.0147 6.70277 55.11 6.12343 55.11ZM11.0407 55V47.751H12.1737V55H11.0407ZM9.84169 50.325V49.225H13.5157V50.325H9.84169ZM15.0094 55.121C14.7674 55.121 14.5804 55.0513 14.4484 54.912C14.3164 54.7653 14.2504 54.56 14.2504 54.296C14.2504 54.054 14.32 53.856 14.4594 53.702C14.5987 53.548 14.782 53.471 15.0094 53.471C15.2514 53.471 15.4384 53.5443 15.5704 53.691C15.7024 53.8303 15.7684 54.032 15.7684 54.296C15.7684 54.538 15.6987 54.736 15.5594 54.89C15.42 55.044 15.2367 55.121 15.0094 55.121ZM21.8823 55V48.444H19.7263V47.3H25.2923V48.444H23.0703V55H21.8823ZM26.4712 55V46.86H27.6042V50.413L27.4062 50.545C27.4795 50.2883 27.6225 50.0537 27.8352 49.841C28.0479 49.621 28.3009 49.445 28.5942 49.313C28.8875 49.1737 29.1882 49.104 29.4962 49.104C29.9362 49.104 30.3029 49.192 30.5962 49.368C30.8895 49.5367 31.1095 49.797 31.2562 50.149C31.4029 50.501 31.4762 50.9447 31.4762 51.48V55H30.3432V51.557C30.3432 51.227 30.2992 50.9557 30.2112 50.743C30.1232 50.523 29.9875 50.3653 29.8042 50.27C29.6209 50.1673 29.3935 50.1233 29.1222 50.138C28.9022 50.138 28.7005 50.1747 28.5172 50.248C28.3339 50.314 28.1725 50.4093 28.0332 50.534C27.9012 50.6587 27.7949 50.8053 27.7142 50.974C27.6409 51.1353 27.6042 51.3113 27.6042 51.502V55H27.0432C26.9479 55 26.8525 55 26.7572 55C26.6619 55 26.5665 55 26.4712 55ZM35.6092 55.11C35.0445 55.11 34.5385 54.9817 34.0912 54.725C33.6512 54.461 33.3029 54.1053 33.0462 53.658C32.7895 53.2033 32.6612 52.6863 32.6612 52.107C32.6612 51.5277 32.7895 51.0143 33.0462 50.567C33.3029 50.1123 33.6512 49.7567 34.0912 49.5C34.5385 49.236 35.0445 49.104 35.6092 49.104C36.1665 49.104 36.6652 49.236 37.1052 49.5C37.5525 49.7567 37.9045 50.1123 38.1612 50.567C38.4179 51.0143 38.5462 51.5277 38.5462 52.107C38.5462 52.6863 38.4179 53.2033 38.1612 53.658C37.9045 54.1053 37.5525 54.461 37.1052 54.725C36.6652 54.9817 36.1665 55.11 35.6092 55.11ZM35.6092 54.076C35.9539 54.076 36.2619 53.9917 36.5332 53.823C36.8045 53.647 37.0172 53.4123 37.1712 53.119C37.3252 52.8183 37.3985 52.481 37.3912 52.107C37.3985 51.7257 37.3252 51.3883 37.1712 51.095C37.0172 50.7943 36.8045 50.5597 36.5332 50.391C36.2619 50.2223 35.9539 50.138 35.6092 50.138C35.2645 50.138 34.9529 50.226 34.6742 50.402C34.4029 50.5707 34.1902 50.8053 34.0362 51.106C33.8822 51.3993 33.8089 51.733 33.8162 52.107C33.8089 52.481 33.8822 52.8183 34.0362 53.119C34.1902 53.4123 34.4029 53.647 34.6742 53.823C34.9529 53.9917 35.2645 54.076 35.6092 54.076ZM39.7588 55V49.225H40.9028V50.457L40.6938 50.589C40.7524 50.3983 40.8441 50.215 40.9688 50.039C41.1008 49.863 41.2584 49.709 41.4418 49.577C41.6324 49.4377 41.8341 49.3277 42.0468 49.247C42.2668 49.1663 42.4904 49.126 42.7178 49.126C43.0478 49.126 43.3374 49.181 43.5868 49.291C43.8361 49.401 44.0414 49.566 44.2028 49.786C44.3641 50.006 44.4814 50.281 44.5548 50.611L44.3788 50.567L44.4558 50.38C44.5364 50.2113 44.6464 50.0537 44.7858 49.907C44.9324 49.753 45.0974 49.6173 45.2808 49.5C45.4641 49.3827 45.6584 49.291 45.8638 49.225C46.0691 49.159 46.2708 49.126 46.4688 49.126C46.9014 49.126 47.2571 49.214 47.5358 49.39C47.8218 49.566 48.0344 49.8337 48.1738 50.193C48.3204 50.5523 48.3938 50.9997 48.3938 51.535V55H47.2498V51.601C47.2498 51.271 47.2058 51.0033 47.1178 50.798C47.0371 50.5853 46.9124 50.4277 46.7438 50.325C46.5751 50.2223 46.3588 50.171 46.0948 50.171C45.8894 50.171 45.6951 50.2077 45.5118 50.281C45.3358 50.347 45.1818 50.4423 45.0498 50.567C44.9178 50.6917 44.8151 50.8383 44.7418 51.007C44.6684 51.1683 44.6318 51.348 44.6318 51.546V55H43.4878V51.579C43.4878 51.2783 43.4438 51.0253 43.3558 50.82C43.2678 50.6073 43.1394 50.446 42.9708 50.336C42.8021 50.226 42.5968 50.171 42.3548 50.171C42.1494 50.171 41.9588 50.2077 41.7828 50.281C41.6068 50.347 41.4528 50.4423 41.3208 50.567C41.1888 50.6843 41.0861 50.8273 41.0128 50.996C40.9394 51.1573 40.9028 51.3333 40.9028 51.524V55H39.7588ZM52.1327 55.11C51.656 55.11 51.2197 54.978 50.8237 54.714C50.435 54.45 50.1233 54.0907 49.8887 53.636C49.654 53.1813 49.5367 52.668 49.5367 52.096C49.5367 51.5167 49.654 51.0033 49.8887 50.556C50.1307 50.1013 50.4533 49.7457 50.8567 49.489C51.2673 49.2323 51.7257 49.104 52.2317 49.104C52.5323 49.104 52.8073 49.148 53.0567 49.236C53.306 49.324 53.5223 49.4487 53.7057 49.61C53.8963 49.764 54.0503 49.9437 54.1677 50.149C54.2923 50.3543 54.3693 50.5743 54.3987 50.809L54.1457 50.721V49.225H55.2897V55H54.1457V53.625L54.4097 53.548C54.3657 53.746 54.274 53.9403 54.1347 54.131C54.0027 54.3143 53.8303 54.4793 53.6177 54.626C53.4123 54.7727 53.1813 54.89 52.9247 54.978C52.6753 55.066 52.4113 55.11 52.1327 55.11ZM52.4297 54.065C52.7743 54.065 53.0787 53.9807 53.3427 53.812C53.6067 53.6433 53.812 53.4123 53.9587 53.119C54.1127 52.8183 54.1897 52.4773 54.1897 52.096C54.1897 51.722 54.1127 51.3883 53.9587 51.095C53.812 50.8017 53.6067 50.5707 53.3427 50.402C53.0787 50.2333 52.7743 50.149 52.4297 50.149C52.0923 50.149 51.7917 50.2333 51.5277 50.402C51.271 50.5707 51.0657 50.8017 50.9117 51.095C50.765 51.3883 50.6917 51.722 50.6917 52.096C50.6917 52.4773 50.765 52.8183 50.9117 53.119C51.0657 53.4123 51.271 53.6433 51.5277 53.812C51.7917 53.9807 52.0923 54.065 52.4297 54.065ZM58.7966 55.11C58.3126 55.11 57.8763 55.0257 57.4876 54.857C57.0989 54.6883 56.7763 54.439 56.5196 54.109L57.2896 53.449C57.5096 53.7057 57.7479 53.8927 58.0046 54.01C58.2686 54.12 58.5656 54.175 58.8956 54.175C59.0276 54.175 59.1486 54.1603 59.2586 54.131C59.3759 54.0943 59.4749 54.043 59.5556 53.977C59.6436 53.911 59.7096 53.834 59.7536 53.746C59.7976 53.6507 59.8196 53.548 59.8196 53.438C59.8196 53.2473 59.7499 53.0933 59.6106 52.976C59.5373 52.9247 59.4199 52.8697 59.2586 52.811C59.1046 52.745 58.9029 52.679 58.6536 52.613C58.2283 52.503 57.8799 52.3783 57.6086 52.239C57.3373 52.0997 57.1283 51.942 56.9816 51.766C56.8716 51.6267 56.7909 51.4763 56.7396 51.315C56.6883 51.1463 56.6626 50.963 56.6626 50.765C56.6626 50.523 56.7139 50.303 56.8166 50.105C56.9266 49.8997 57.0733 49.7237 57.2566 49.577C57.4473 49.423 57.6673 49.3057 57.9166 49.225C58.1733 49.1443 58.4446 49.104 58.7306 49.104C59.0019 49.104 59.2696 49.1407 59.5336 49.214C59.8049 49.2873 60.0543 49.3937 60.2816 49.533C60.5089 49.6723 60.6996 49.8373 60.8536 50.028L60.2046 50.743C60.0653 50.6037 59.9113 50.4827 59.7426 50.38C59.5813 50.27 59.4163 50.1857 59.2476 50.127C59.0789 50.0683 58.9249 50.039 58.7856 50.039C58.6316 50.039 58.4923 50.0537 58.3676 50.083C58.2429 50.1123 58.1366 50.1563 58.0486 50.215C57.9679 50.2737 57.9056 50.347 57.8616 50.435C57.8176 50.523 57.7956 50.622 57.7956 50.732C57.8029 50.8273 57.8249 50.919 57.8616 51.007C57.9056 51.0877 57.9643 51.1573 58.0376 51.216C58.1183 51.2747 58.2393 51.337 58.4006 51.403C58.5619 51.469 58.7673 51.5313 59.0166 51.59C59.3833 51.6853 59.6839 51.7917 59.9186 51.909C60.1606 52.019 60.3513 52.1473 60.4906 52.294C60.6373 52.4333 60.7399 52.5947 60.7986 52.778C60.8573 52.9613 60.8866 53.1667 60.8866 53.394C60.8866 53.724 60.7913 54.021 60.6006 54.285C60.4173 54.5417 60.1679 54.7433 59.8526 54.89C59.5373 55.0367 59.1853 55.11 58.7966 55.11ZM64.7013 55L67.6823 47.3H68.8923L71.8513 55H70.5863L68.8263 50.358C68.8043 50.3067 68.7603 50.182 68.6943 49.984C68.6356 49.786 68.5659 49.566 68.4853 49.324C68.4046 49.082 68.3313 48.862 68.2653 48.664C68.1993 48.4587 68.1553 48.3267 68.1333 48.268L68.3863 48.257C68.3423 48.3817 68.2873 48.5393 68.2213 48.73C68.1626 48.9207 68.0966 49.1223 68.0233 49.335C67.9573 49.5477 67.8913 49.7493 67.8253 49.94C67.7593 50.1233 67.7043 50.2773 67.6603 50.402L65.9113 55H64.7013ZM66.0213 53.086L66.4613 51.942H69.9593L70.4653 53.086H66.0213ZM76.9186 57.42V53.625H77.1386C77.1386 53.801 77.0799 53.977 76.9626 54.153C76.8452 54.3217 76.6876 54.4793 76.4896 54.626C76.2916 54.7727 76.0716 54.89 75.8296 54.978C75.5876 55.066 75.3382 55.11 75.0816 55.11C74.5609 55.11 74.0952 54.9817 73.6846 54.725C73.2739 54.461 72.9476 54.1053 72.7056 53.658C72.4709 53.2033 72.3536 52.6863 72.3536 52.107C72.3536 51.5277 72.4709 51.0143 72.7056 50.567C72.9402 50.1123 73.2592 49.7567 73.6626 49.5C74.0732 49.236 74.5352 49.104 75.0486 49.104C75.3346 49.104 75.6059 49.1517 75.8626 49.247C76.1266 49.3423 76.3612 49.467 76.5666 49.621C76.7792 49.775 76.9442 49.9473 77.0616 50.138C77.1862 50.3213 77.2486 50.5083 77.2486 50.699L76.9186 50.721V49.214H78.0516V57.42H76.9186ZM75.2026 54.065C75.5472 54.065 75.8516 53.9807 76.1156 53.812C76.3796 53.6433 76.5849 53.4123 76.7316 53.119C76.8856 52.8257 76.9626 52.4883 76.9626 52.107C76.9626 51.7257 76.8856 51.3883 76.7316 51.095C76.5849 50.7943 76.3796 50.5597 76.1156 50.391C75.8516 50.2223 75.5472 50.138 75.2026 50.138C74.8579 50.138 74.5536 50.226 74.2896 50.402C74.0256 50.5707 73.8166 50.8053 73.6626 51.106C73.5159 51.3993 73.4426 51.733 73.4426 52.107C73.4426 52.481 73.5159 52.8183 73.6626 53.119C73.8166 53.4123 74.0256 53.6433 74.2896 53.812C74.5536 53.9807 74.8579 54.065 75.2026 54.065ZM81.6583 55.11C81.2476 55.11 80.8883 55.0147 80.5803 54.824C80.2796 54.6333 80.045 54.3657 79.8763 54.021C79.715 53.6763 79.6343 53.2657 79.6343 52.789V49.225H80.7673V52.481C80.7673 52.8183 80.8186 53.1117 80.9213 53.361C81.0313 53.603 81.1853 53.79 81.3833 53.922C81.5886 54.054 81.8343 54.12 82.1203 54.12C82.333 54.12 82.5273 54.087 82.7033 54.021C82.8793 53.9477 83.0296 53.8487 83.1543 53.724C83.2863 53.5993 83.389 53.449 83.4623 53.273C83.5356 53.097 83.5723 52.9063 83.5723 52.701V49.225H84.7053V55H83.5723V53.79L83.7703 53.658C83.6823 53.9293 83.532 54.175 83.3193 54.395C83.114 54.615 82.8683 54.791 82.5823 54.923C82.2963 55.0477 81.9883 55.11 81.6583 55.11ZM86.4814 55V49.225H87.6144V55H86.4814ZM87.0314 47.949C86.7894 47.949 86.6024 47.8867 86.4704 47.762C86.3384 47.6373 86.2724 47.4613 86.2724 47.234C86.2724 47.0213 86.3384 46.849 86.4704 46.717C86.6098 46.585 86.7968 46.519 87.0314 46.519C87.2734 46.519 87.4604 46.5813 87.5924 46.706C87.7244 46.8307 87.7904 47.0067 87.7904 47.234C87.7904 47.4467 87.7208 47.619 87.5814 47.751C87.4494 47.883 87.2661 47.949 87.0314 47.949ZM89.356 55V49.225H90.489V50.413L90.291 50.545C90.3643 50.2883 90.5073 50.0537 90.72 49.841C90.9326 49.621 91.1856 49.445 91.479 49.313C91.7723 49.1737 92.073 49.104 92.381 49.104C92.821 49.104 93.1876 49.192 93.481 49.368C93.7743 49.5367 93.9943 49.797 94.141 50.149C94.2876 50.501 94.361 50.9447 94.361 51.48V55H93.228V51.557C93.228 51.227 93.184 50.9557 93.096 50.743C93.008 50.523 92.8723 50.3653 92.689 50.27C92.5056 50.1673 92.2783 50.1233 92.007 50.138C91.787 50.138 91.5853 50.1747 91.402 50.248C91.2186 50.314 91.0573 50.4093 90.918 50.534C90.786 50.6587 90.6796 50.8053 90.599 50.974C90.5256 51.1353 90.489 51.3113 90.489 51.502V55H89.928C89.8326 55 89.7373 55 89.642 55C89.5466 55 89.4513 55 89.356 55ZM98.12 55.11C97.6433 55.11 97.207 54.978 96.811 54.714C96.4223 54.45 96.1106 54.0907 95.876 53.636C95.6413 53.1813 95.524 52.668 95.524 52.096C95.524 51.5167 95.6413 51.0033 95.876 50.556C96.118 50.1013 96.4406 49.7457 96.844 49.489C97.2546 49.2323 97.713 49.104 98.219 49.104C98.5196 49.104 98.7946 49.148 99.044 49.236C99.2933 49.324 99.5096 49.4487 99.693 49.61C99.8836 49.764 100.038 49.9437 100.155 50.149C100.28 50.3543 100.357 50.5743 100.386 50.809L100.133 50.721V49.225H101.277V55H100.133V53.625L100.397 53.548C100.353 53.746 100.261 53.9403 100.122 54.131C99.99 54.3143 99.8176 54.4793 99.605 54.626C99.3996 54.7727 99.1686 54.89 98.912 54.978C98.6626 55.066 98.3986 55.11 98.12 55.11ZM98.417 54.065C98.7616 54.065 99.066 53.9807 99.33 53.812C99.594 53.6433 99.7993 53.4123 99.946 53.119C100.1 52.8183 100.177 52.4773 100.177 52.096C100.177 51.722 100.1 51.3883 99.946 51.095C99.7993 50.8017 99.594 50.5707 99.33 50.402C99.066 50.2333 98.7616 50.149 98.417 50.149C98.0796 50.149 97.779 50.2333 97.515 50.402C97.2583 50.5707 97.053 50.8017 96.899 51.095C96.7523 51.3883 96.679 51.722 96.679 52.096C96.679 52.4773 96.7523 52.8183 96.899 53.119C97.053 53.4123 97.2583 53.6433 97.515 53.812C97.779 53.9807 98.0796 54.065 98.417 54.065ZM104.784 55.11C104.3 55.11 103.864 55.0257 103.475 54.857C103.086 54.6883 102.764 54.439 102.507 54.109L103.277 53.449C103.497 53.7057 103.735 53.8927 103.992 54.01C104.256 54.12 104.553 54.175 104.883 54.175C105.015 54.175 105.136 54.1603 105.246 54.131C105.363 54.0943 105.462 54.043 105.543 53.977C105.631 53.911 105.697 53.834 105.741 53.746C105.785 53.6507 105.807 53.548 105.807 53.438C105.807 53.2473 105.737 53.0933 105.598 52.976C105.525 52.9247 105.407 52.8697 105.246 52.811C105.092 52.745 104.89 52.679 104.641 52.613C104.216 52.503 103.867 52.3783 103.596 52.239C103.325 52.0997 103.116 51.942 102.969 51.766C102.859 51.6267 102.778 51.4763 102.727 51.315C102.676 51.1463 102.65 50.963 102.65 50.765C102.65 50.523 102.701 50.303 102.804 50.105C102.914 49.8997 103.061 49.7237 103.244 49.577C103.435 49.423 103.655 49.3057 103.904 49.225C104.161 49.1443 104.432 49.104 104.718 49.104C104.989 49.104 105.257 49.1407 105.521 49.214C105.792 49.2873 106.042 49.3937 106.269 49.533C106.496 49.6723 106.687 49.8373 106.841 50.028L106.192 50.743C106.053 50.6037 105.899 50.4827 105.73 50.38C105.569 50.27 105.404 50.1857 105.235 50.127C105.066 50.0683 104.912 50.039 104.773 50.039C104.619 50.039 104.48 50.0537 104.355 50.083C104.23 50.1123 104.124 50.1563 104.036 50.215C103.955 50.2737 103.893 50.347 103.849 50.435C103.805 50.523 103.783 50.622 103.783 50.732C103.79 50.8273 103.812 50.919 103.849 51.007C103.893 51.0877 103.952 51.1573 104.025 51.216C104.106 51.2747 104.227 51.337 104.388 51.403C104.549 51.469 104.755 51.5313 105.004 51.59C105.371 51.6853 105.671 51.7917 105.906 51.909C106.148 52.019 106.339 52.1473 106.478 52.294C106.625 52.4333 106.727 52.5947 106.786 52.778C106.845 52.9613 106.874 53.1667 106.874 53.394C106.874 53.724 106.779 54.021 106.588 54.285C106.405 54.5417 106.155 54.7433 105.84 54.89C105.525 55.0367 105.173 55.11 104.784 55.11Z" fill="black"/>
</svg>
