<svg width="65" height="68" viewBox="0 0 65 68" fill="none" xmlns="http://www.w3.org/2000/svg">
<path d="M22.5 0H46.5L62.5 39.5L64.5 67H0L1 40.5L22.5 0Z" fill="#FF0000" fill-opacity="0.31"/>
<path d="M36.5657 4H31.4343C31.0349 4 30.7967 4.44507 31.0182 4.77735L32.416 6.87404C32.4708 6.95617 32.5 7.05268 32.5 7.15139V8.5V12.5C32.5 12.7761 32.2761 13 32 13H28H25.1514C25.0527 13 24.9562 12.9708 24.874 12.916L22.7773 11.5182C22.4451 11.2967 22 11.5349 22 11.9343V17.0657C22 17.4651 22.4451 17.7033 22.7774 17.4818L24.874 16.084C24.9562 16.0292 25.0527 16 25.1514 16H28H32C32.2761 16 32.5 16.2239 32.5 16.5V20V35.882C32.5 35.9596 32.4819 36.0361 32.4472 36.1056L31.3618 38.2764C31.1956 38.6088 31.4373 39 31.809 39H36.191C36.5627 39 36.8044 38.6088 36.6382 38.2764L35.5528 36.1056C35.5181 36.0361 35.5 35.9596 35.5 35.882V20V16.5C35.5 16.2239 35.7239 16 36 16H40H42.8486C42.9473 16 43.0438 16.0292 43.126 16.084L45.2227 17.4818C45.5549 17.7033 46 17.4651 46 17.0657V11.9343C46 11.5349 45.5549 11.2967 45.2227 11.5182L43.126 12.916C43.0438 12.9708 42.9473 13 42.8486 13H40H36C35.7239 13 35.5 12.7761 35.5 12.5V8.5V7.15139C35.5 7.05268 35.5292 6.95617 35.584 6.87404L36.9818 4.77735C37.2033 4.44507 36.9651 4 36.5657 4Z" fill="#4F4533"/>
<path d="M32.5 8.5V12.5C32.5 12.7761 32.2761 13 32 13H28M32.5 8.5V7.15139C32.5 7.05268 32.4708 6.95617 32.416 6.87404L31.0182 4.77735C30.7967 4.44507 31.0349 4 31.4343 4H36.5657C36.9651 4 37.2033 4.44507 36.9818 4.77735L35.584 6.87404C35.5292 6.95617 35.5 7.05268 35.5 7.15139V8.5M32.5 8.5C30 8.5 28 10.5 28 13M28 13H25.1514C25.0527 13 24.9562 12.9708 24.874 12.916L22.7773 11.5182C22.4451 11.2967 22 11.5349 22 11.9343V17.0657C22 17.4651 22.4451 17.7033 22.7774 17.4818L24.874 16.084C24.9562 16.0292 25.0527 16 25.1514 16H28M35.5 8.5V12.5C35.5 12.7761 35.7239 13 36 13H40M35.5 8.5C38 8.5 40 10.5 40 13M40 13H42.8486C42.9473 13 43.0438 12.9708 43.126 12.916L45.2227 11.5182C45.5549 11.2967 46 11.5349 46 11.9343V17.0657C46 17.4651 45.5549 17.7033 45.2226 17.4818L43.126 16.084C43.0438 16.0292 42.9473 16 42.8486 16H40M40 16H36C35.7239 16 35.5 16.2239 35.5 16.5V20M40 16C40 18.5 38 20 35.5 20M35.5 20V35.882C35.5 35.9596 35.5181 36.0361 35.5528 36.1056L36.6382 38.2764C36.8044 38.6088 36.5627 39 36.191 39H31.809C31.4373 39 31.1956 38.6088 31.3618 38.2764L32.4472 36.1056C32.4819 36.0361 32.5 35.9596 32.5 35.882V20M32.5 20V16.5C32.5 16.2239 32.2761 16 32 16H28M32.5 20C30 20 28 18.5 28 16" stroke="black"/>
<path d="M5.95677 49V41.3H9.42177C9.9131 41.3 10.3568 41.4063 10.7528 41.619C11.1561 41.8317 11.4714 42.125 11.6988 42.499C11.9261 42.8657 12.0398 43.2837 12.0398 43.753C12.0398 44.237 11.9261 44.6733 11.6988 45.062C11.4714 45.4433 11.1598 45.744 10.7638 45.964C10.3678 46.184 9.92044 46.294 9.42177 46.294H7.73877V49H5.95677ZM10.2248 49L8.26677 45.524L10.1808 45.249L12.3588 49H10.2248ZM7.73877 44.864H9.25677C9.44744 44.864 9.61244 44.8237 9.75177 44.743C9.89844 44.655 10.0084 44.534 10.0818 44.38C10.1624 44.226 10.2028 44.05 10.2028 43.852C10.2028 43.654 10.1588 43.4817 10.0708 43.335C9.98277 43.181 9.85444 43.0637 9.68577 42.983C9.52444 42.9023 9.32644 42.862 9.09177 42.862H7.73877V44.864ZM16.0286 49.11C15.4199 49.11 14.8772 48.978 14.4006 48.714C13.9312 48.45 13.5572 48.0907 13.2786 47.636C13.0072 47.1813 12.8716 46.6607 12.8716 46.074C12.8716 45.4873 13.0072 44.9667 13.2786 44.512C13.5572 44.0573 13.9312 43.698 14.4006 43.434C14.8772 43.17 15.4199 43.038 16.0286 43.038C16.6372 43.038 17.1762 43.17 17.6456 43.434C18.1222 43.698 18.4962 44.0573 18.7676 44.512C19.0389 44.9667 19.1746 45.4873 19.1746 46.074C19.1746 46.6607 19.0389 47.1813 18.7676 47.636C18.4962 48.0907 18.1222 48.45 17.6456 48.714C17.1762 48.978 16.6372 49.11 16.0286 49.11ZM16.0286 47.592C16.2926 47.592 16.5272 47.526 16.7326 47.394C16.9379 47.262 17.0992 47.0823 17.2166 46.855C17.3339 46.6277 17.3889 46.3673 17.3816 46.074C17.3889 45.7807 17.3339 45.5203 17.2166 45.293C17.0992 45.0583 16.9379 44.875 16.7326 44.743C16.5272 44.611 16.2926 44.545 16.0286 44.545C15.7646 44.545 15.5262 44.611 15.3136 44.743C15.1082 44.875 14.9469 45.0583 14.8296 45.293C14.7122 45.5203 14.6572 45.7807 14.6646 46.074C14.6572 46.3673 14.7122 46.6277 14.8296 46.855C14.9469 47.0823 15.1082 47.262 15.3136 47.394C15.5262 47.526 15.7646 47.592 16.0286 47.592ZM23.0754 49.11C22.4668 49.11 21.9241 48.978 21.4474 48.714C20.9781 48.45 20.6041 48.0907 20.3254 47.636C20.0541 47.1813 19.9184 46.6607 19.9184 46.074C19.9184 45.4873 20.0541 44.9667 20.3254 44.512C20.6041 44.0573 20.9781 43.698 21.4474 43.434C21.9241 43.17 22.4668 43.038 23.0754 43.038C23.6841 43.038 24.2231 43.17 24.6924 43.434C25.1691 43.698 25.5431 44.0573 25.8144 44.512C26.0858 44.9667 26.2214 45.4873 26.2214 46.074C26.2214 46.6607 26.0858 47.1813 25.8144 47.636C25.5431 48.0907 25.1691 48.45 24.6924 48.714C24.2231 48.978 23.6841 49.11 23.0754 49.11ZM23.0754 47.592C23.3394 47.592 23.5741 47.526 23.7794 47.394C23.9848 47.262 24.1461 47.0823 24.2634 46.855C24.3808 46.6277 24.4358 46.3673 24.4284 46.074C24.4358 45.7807 24.3808 45.5203 24.2634 45.293C24.1461 45.0583 23.9848 44.875 23.7794 44.743C23.5741 44.611 23.3394 44.545 23.0754 44.545C22.8114 44.545 22.5731 44.611 22.3604 44.743C22.1551 44.875 21.9938 45.0583 21.8764 45.293C21.7591 45.5203 21.7041 45.7807 21.7114 46.074C21.7041 46.3673 21.7591 46.6277 21.8764 46.855C21.9938 47.0823 22.1551 47.262 22.3604 47.394C22.5731 47.526 22.8114 47.592 23.0754 47.592ZM29.3413 49.11C28.7693 49.11 28.2633 49.0183 27.8233 48.835C27.3906 48.6517 27.046 48.406 26.7893 48.098L27.8563 47.174C28.0836 47.4013 28.3403 47.57 28.6263 47.68C28.9123 47.7827 29.1836 47.834 29.4403 47.834C29.543 47.834 29.6346 47.823 29.7153 47.801C29.796 47.779 29.862 47.7497 29.9133 47.713C29.972 47.669 30.016 47.6213 30.0453 47.57C30.0746 47.5113 30.0893 47.4453 30.0893 47.372C30.0893 47.2253 30.0233 47.1117 29.8913 47.031C29.8253 46.9943 29.7153 46.9503 29.5613 46.899C29.4073 46.8477 29.2093 46.789 28.9673 46.723C28.6226 46.635 28.322 46.5323 28.0653 46.415C27.816 46.2903 27.6106 46.1473 27.4493 45.986C27.3026 45.832 27.189 45.6633 27.1083 45.48C27.0276 45.2893 26.9873 45.0767 26.9873 44.842C26.9873 44.5707 27.0496 44.325 27.1743 44.105C27.3063 43.885 27.4786 43.6943 27.6913 43.533C27.9113 43.3717 28.1606 43.2507 28.4393 43.17C28.7253 43.082 29.0186 43.038 29.3193 43.038C29.642 43.038 29.95 43.0747 30.2433 43.148C30.5366 43.2213 30.808 43.324 31.0573 43.456C31.314 43.588 31.5413 43.7457 31.7393 43.929L30.8153 44.963C30.6833 44.8383 30.533 44.7283 30.3643 44.633C30.203 44.5303 30.0343 44.4497 29.8583 44.391C29.6823 44.3323 29.521 44.303 29.3743 44.303C29.2643 44.303 29.1653 44.314 29.0773 44.336C28.9966 44.3507 28.927 44.38 28.8683 44.424C28.8096 44.4607 28.7656 44.5083 28.7363 44.567C28.707 44.6183 28.6923 44.6807 28.6923 44.754C28.6923 44.8273 28.7106 44.897 28.7473 44.963C28.7913 45.029 28.85 45.084 28.9233 45.128C28.9966 45.172 29.114 45.2233 29.2753 45.282C29.4366 45.3333 29.6566 45.3993 29.9353 45.48C30.28 45.5753 30.577 45.6817 30.8263 45.799C31.0756 45.9163 31.2736 46.0557 31.4203 46.217C31.5376 46.3417 31.6256 46.4883 31.6843 46.657C31.743 46.8183 31.7723 46.9943 31.7723 47.185C31.7723 47.559 31.666 47.8927 31.4533 48.186C31.248 48.472 30.962 48.6993 30.5953 48.868C30.2286 49.0293 29.8106 49.11 29.3413 49.11ZM35.6016 49.11C34.9563 49.11 34.3953 48.9817 33.9186 48.725C33.4419 48.461 33.0716 48.1053 32.8076 47.658C32.5436 47.2033 32.4116 46.6863 32.4116 46.107C32.4116 45.6597 32.4849 45.249 32.6316 44.875C32.7783 44.501 32.9836 44.1783 33.2476 43.907C33.5116 43.6283 33.8233 43.4157 34.1826 43.269C34.5493 43.115 34.9489 43.038 35.3816 43.038C35.7923 43.038 36.1663 43.1113 36.5036 43.258C36.8483 43.4047 37.1453 43.61 37.3946 43.874C37.6439 44.138 37.8346 44.4497 37.9666 44.809C38.0986 45.1683 38.1573 45.5607 38.1426 45.986L38.1316 46.459H33.4786L33.2256 45.469H36.7016L36.5146 45.678V45.458C36.4999 45.2747 36.4413 45.1133 36.3386 44.974C36.2433 44.8273 36.1149 44.7137 35.9536 44.633C35.7923 44.5523 35.6089 44.512 35.4036 44.512C35.1176 44.512 34.8719 44.5707 34.6666 44.688C34.4686 44.798 34.3183 44.963 34.2156 45.183C34.1129 45.3957 34.0616 45.6597 34.0616 45.975C34.0616 46.2977 34.1276 46.58 34.2596 46.822C34.3989 47.0567 34.5969 47.24 34.8536 47.372C35.1176 47.504 35.4293 47.57 35.7886 47.57C36.0379 47.57 36.2579 47.5333 36.4486 47.46C36.6466 47.3867 36.8593 47.262 37.0866 47.086L37.9116 48.252C37.6843 48.45 37.4423 48.6113 37.1856 48.736C36.9289 48.8607 36.6649 48.9523 36.3936 49.011C36.1296 49.077 35.8656 49.11 35.6016 49.11ZM40.9495 49L38.5075 43.159H40.4545L41.9065 47.526L41.4775 47.57L42.9735 43.159H44.8985L42.3355 49H40.9495ZM48.4385 49.11C47.7932 49.11 47.2322 48.9817 46.7555 48.725C46.2788 48.461 45.9085 48.1053 45.6445 47.658C45.3805 47.2033 45.2485 46.6863 45.2485 46.107C45.2485 45.6597 45.3218 45.249 45.4685 44.875C45.6152 44.501 45.8205 44.1783 46.0845 43.907C46.3485 43.6283 46.6602 43.4157 47.0195 43.269C47.3862 43.115 47.7858 43.038 48.2185 43.038C48.6292 43.038 49.0032 43.1113 49.3405 43.258C49.6852 43.4047 49.9822 43.61 50.2315 43.874C50.4808 44.138 50.6715 44.4497 50.8035 44.809C50.9355 45.1683 50.9942 45.5607 50.9795 45.986L50.9685 46.459H46.3155L46.0625 45.469H49.5385L49.3515 45.678V45.458C49.3368 45.2747 49.2782 45.1133 49.1755 44.974C49.0802 44.8273 48.9518 44.7137 48.7905 44.633C48.6292 44.5523 48.4458 44.512 48.2405 44.512C47.9545 44.512 47.7088 44.5707 47.5035 44.688C47.3055 44.798 47.1552 44.963 47.0525 45.183C46.9498 45.3957 46.8985 45.6597 46.8985 45.975C46.8985 46.2977 46.9645 46.58 47.0965 46.822C47.2358 47.0567 47.4338 47.24 47.6905 47.372C47.9545 47.504 48.2662 47.57 48.6255 47.57C48.8748 47.57 49.0948 47.5333 49.2855 47.46C49.4835 47.3867 49.6962 47.262 49.9235 47.086L50.7485 48.252C50.5212 48.45 50.2792 48.6113 50.0225 48.736C49.7658 48.8607 49.5018 48.9523 49.2305 49.011C48.9665 49.077 48.7025 49.11 48.4385 49.11ZM52.1118 49V40.86H53.8718V49H52.1118ZM55.8934 49V41.685H57.6534V49H55.8934ZM54.8594 44.699V43.159H58.7864V44.699H54.8594ZM7.93252 63.11C7.51452 63.11 7.12585 63.055 6.76652 62.945C6.41452 62.835 6.09185 62.67 5.79852 62.45C5.51252 62.2227 5.25585 61.944 5.02852 61.614L5.84252 60.679C6.20185 61.1923 6.54652 61.548 6.87652 61.746C7.20652 61.944 7.59885 62.043 8.05352 62.043C8.33218 62.043 8.58518 61.999 8.81252 61.911C9.03985 61.823 9.21952 61.702 9.35152 61.548C9.48352 61.394 9.54952 61.218 9.54952 61.02C9.54952 60.888 9.52752 60.7633 9.48352 60.646C9.43952 60.5287 9.36985 60.4223 9.27452 60.327C9.18652 60.2317 9.06918 60.1437 8.92252 60.063C8.78318 59.9823 8.61818 59.9127 8.42752 59.854C8.23685 59.788 8.01685 59.733 7.76752 59.689C7.37152 59.6083 7.02685 59.502 6.73352 59.37C6.44018 59.238 6.19452 59.073 5.99652 58.875C5.79852 58.677 5.65185 58.4533 5.55652 58.204C5.46118 57.9473 5.41352 57.6613 5.41352 57.346C5.41352 57.038 5.47952 56.752 5.61152 56.488C5.75085 56.224 5.93785 55.9967 6.17252 55.806C6.41452 55.608 6.69685 55.4577 7.01952 55.355C7.34218 55.245 7.69052 55.19 8.06452 55.19C8.46052 55.19 8.82352 55.2413 9.15352 55.344C9.48352 55.4467 9.77685 55.6007 10.0335 55.806C10.2902 56.004 10.5028 56.2497 10.6715 56.543L9.83552 57.368C9.68885 57.126 9.52385 56.9243 9.34052 56.763C9.15718 56.5943 8.95552 56.4697 8.73552 56.389C8.51552 56.301 8.28085 56.257 8.03152 56.257C7.74552 56.257 7.49618 56.301 7.28352 56.389C7.07085 56.477 6.90218 56.6017 6.77752 56.763C6.66018 56.917 6.60152 57.1003 6.60152 57.313C6.60152 57.467 6.63085 57.61 6.68952 57.742C6.74818 57.8667 6.83618 57.9803 6.95352 58.083C7.07818 58.1783 7.24318 58.2663 7.44852 58.347C7.65385 58.4203 7.89952 58.4863 8.18552 58.545C8.58885 58.633 8.94818 58.7467 9.26352 58.886C9.57885 59.018 9.84652 59.1757 10.0665 59.359C10.2865 59.5423 10.4515 59.7477 10.5615 59.975C10.6788 60.2023 10.7375 60.448 10.7375 60.712C10.7375 61.2033 10.6238 61.6287 10.3965 61.988C10.1692 62.3473 9.84652 62.626 9.42852 62.824C9.01052 63.0147 8.51185 63.11 7.93252 63.11ZM12.8498 63V55.751H13.9828V63H12.8498ZM11.6508 58.325V57.225H15.3248V58.325H11.6508ZM16.8185 63.121C16.5765 63.121 16.3895 63.0513 16.2575 62.912C16.1255 62.7653 16.0595 62.56 16.0595 62.296C16.0595 62.054 16.1291 61.856 16.2685 61.702C16.4078 61.548 16.5911 61.471 16.8185 61.471C17.0605 61.471 17.2475 61.5443 17.3795 61.691C17.5115 61.8303 17.5775 62.032 17.5775 62.296C17.5775 62.538 17.5078 62.736 17.3685 62.89C17.2291 63.044 17.0458 63.121 16.8185 63.121ZM27.2554 63V55.3H28.4434V63H27.2554ZM22.2284 63V55.3H23.4164V63H22.2284ZM22.7454 59.733V58.589H27.7834V59.733H22.7454ZM33.0056 63.11C32.4116 63.11 31.8836 62.9853 31.4216 62.736C30.9669 62.4793 30.6076 62.131 30.3436 61.691C30.0869 61.251 29.9586 60.745 29.9586 60.173C29.9586 59.7183 30.0319 59.304 30.1786 58.93C30.3252 58.556 30.5269 58.2333 30.7836 57.962C31.0476 57.6833 31.3592 57.4707 31.7186 57.324C32.0852 57.17 32.4812 57.093 32.9066 57.093C33.2806 57.093 33.6289 57.1663 33.9516 57.313C34.2742 57.4523 34.5529 57.6467 34.7876 57.896C35.0296 58.1453 35.2129 58.4423 35.3376 58.787C35.4696 59.1243 35.5319 59.4947 35.5246 59.898L35.5136 60.382H30.7946L30.5416 59.48H34.5346L34.3696 59.667V59.403C34.3476 59.161 34.2669 58.9447 34.1276 58.754C33.9882 58.5633 33.8122 58.413 33.5996 58.303C33.3869 58.193 33.1559 58.138 32.9066 58.138C32.5106 58.138 32.1769 58.215 31.9056 58.369C31.6342 58.5157 31.4289 58.7357 31.2896 59.029C31.1502 59.315 31.0806 59.6707 31.0806 60.096C31.0806 60.4993 31.1649 60.8513 31.3336 61.152C31.5022 61.4453 31.7406 61.6727 32.0486 61.834C32.3566 61.9953 32.7122 62.076 33.1156 62.076C33.4016 62.076 33.6656 62.0283 33.9076 61.933C34.1569 61.8377 34.4246 61.6653 34.7106 61.416L35.2826 62.219C35.1066 62.395 34.8902 62.549 34.6336 62.681C34.3842 62.813 34.1166 62.9193 33.8306 63C33.5519 63.0733 33.2769 63.11 33.0056 63.11ZM36.7779 63V54.86H37.9109V63H36.7779ZM42.1042 63.11C41.5102 63.11 40.9822 62.9853 40.5202 62.736C40.0655 62.4793 39.7062 62.131 39.4422 61.691C39.1855 61.251 39.0572 60.745 39.0572 60.173C39.0572 59.7183 39.1305 59.304 39.2772 58.93C39.4239 58.556 39.6255 58.2333 39.8822 57.962C40.1462 57.6833 40.4579 57.4707 40.8172 57.324C41.1839 57.17 41.5799 57.093 42.0052 57.093C42.3792 57.093 42.7275 57.1663 43.0502 57.313C43.3729 57.4523 43.6515 57.6467 43.8862 57.896C44.1282 58.1453 44.3115 58.4423 44.4362 58.787C44.5682 59.1243 44.6305 59.4947 44.6232 59.898L44.6122 60.382H39.8932L39.6402 59.48H43.6332L43.4682 59.667V59.403C43.4462 59.161 43.3655 58.9447 43.2262 58.754C43.0869 58.5633 42.9109 58.413 42.6982 58.303C42.4855 58.193 42.2545 58.138 42.0052 58.138C41.6092 58.138 41.2755 58.215 41.0042 58.369C40.7329 58.5157 40.5275 58.7357 40.3882 59.029C40.2489 59.315 40.1792 59.6707 40.1792 60.096C40.1792 60.4993 40.2635 60.8513 40.4322 61.152C40.6009 61.4453 40.8392 61.6727 41.1472 61.834C41.4552 61.9953 41.8109 62.076 42.2142 62.076C42.5002 62.076 42.7642 62.0283 43.0062 61.933C43.2555 61.8377 43.5232 61.6653 43.8092 61.416L44.3812 62.219C44.2052 62.395 43.9889 62.549 43.7322 62.681C43.4829 62.813 43.2152 62.9193 42.9292 63C42.6505 63.0733 42.3755 63.11 42.1042 63.11ZM45.8545 63V57.225H46.9875V58.413L46.7895 58.545C46.8628 58.2883 47.0058 58.0537 47.2185 57.841C47.4312 57.621 47.6842 57.445 47.9775 57.313C48.2708 57.1737 48.5715 57.104 48.8795 57.104C49.3195 57.104 49.6862 57.192 49.9795 57.368C50.2728 57.5367 50.4928 57.797 50.6395 58.149C50.7862 58.501 50.8595 58.9447 50.8595 59.48V63H49.7265V59.557C49.7265 59.227 49.6825 58.9557 49.5945 58.743C49.5065 58.523 49.3708 58.3653 49.1875 58.27C49.0042 58.1673 48.7768 58.1233 48.5055 58.138C48.2855 58.138 48.0838 58.1747 47.9005 58.248C47.7172 58.314 47.5558 58.4093 47.4165 58.534C47.2845 58.6587 47.1782 58.8053 47.0975 58.974C47.0242 59.1353 46.9875 59.3113 46.9875 59.502V63H46.4265C46.3312 63 46.2358 63 46.1405 63C46.0452 63 45.9498 63 45.8545 63ZM52.2425 57.775L51.8245 57.269C52.1105 57.137 52.3452 56.9867 52.5285 56.818C52.7118 56.6493 52.8035 56.5027 52.8035 56.378C52.8035 56.2827 52.7632 56.1983 52.6825 56.125C52.6018 56.0443 52.5285 55.9783 52.4625 55.927C52.3012 55.795 52.1912 55.685 52.1325 55.597C52.0812 55.509 52.0555 55.4173 52.0555 55.322C52.0555 55.146 52.1178 55.0067 52.2425 54.904C52.3672 54.794 52.5285 54.739 52.7265 54.739C52.9318 54.739 53.1152 54.794 53.2765 54.904C53.4452 55.0067 53.5772 55.1497 53.6725 55.333C53.7678 55.5163 53.8155 55.7327 53.8155 55.982C53.8155 56.1727 53.7752 56.3597 53.6945 56.543C53.6138 56.7263 53.5002 56.8987 53.3535 57.06C53.2142 57.2213 53.0492 57.3643 52.8585 57.489C52.6678 57.6137 52.4625 57.709 52.2425 57.775ZM56.9748 63.11C56.4908 63.11 56.0545 63.0257 55.6658 62.857C55.2771 62.6883 54.9545 62.439 54.6978 62.109L55.4678 61.449C55.6878 61.7057 55.9261 61.8927 56.1828 62.01C56.4468 62.12 56.7438 62.175 57.0738 62.175C57.2058 62.175 57.3268 62.1603 57.4368 62.131C57.5541 62.0943 57.6531 62.043 57.7338 61.977C57.8218 61.911 57.8878 61.834 57.9318 61.746C57.9758 61.6507 57.9978 61.548 57.9978 61.438C57.9978 61.2473 57.9281 61.0933 57.7888 60.976C57.7155 60.9247 57.5981 60.8697 57.4368 60.811C57.2828 60.745 57.0811 60.679 56.8318 60.613C56.4065 60.503 56.0581 60.3783 55.7868 60.239C55.5155 60.0997 55.3065 59.942 55.1598 59.766C55.0498 59.6267 54.9691 59.4763 54.9178 59.315C54.8665 59.1463 54.8408 58.963 54.8408 58.765C54.8408 58.523 54.8921 58.303 54.9948 58.105C55.1048 57.8997 55.2515 57.7237 55.4348 57.577C55.6255 57.423 55.8455 57.3057 56.0948 57.225C56.3515 57.1443 56.6228 57.104 56.9088 57.104C57.1801 57.104 57.4478 57.1407 57.7118 57.214C57.9831 57.2873 58.2325 57.3937 58.4598 57.533C58.6871 57.6723 58.8778 57.8373 59.0318 58.028L58.3828 58.743C58.2435 58.6037 58.0895 58.4827 57.9208 58.38C57.7595 58.27 57.5945 58.1857 57.4258 58.127C57.2571 58.0683 57.1031 58.039 56.9638 58.039C56.8098 58.039 56.6705 58.0537 56.5458 58.083C56.4211 58.1123 56.3148 58.1563 56.2268 58.215C56.1461 58.2737 56.0838 58.347 56.0398 58.435C55.9958 58.523 55.9738 58.622 55.9738 58.732C55.9811 58.8273 56.0031 58.919 56.0398 59.007C56.0838 59.0877 56.1425 59.1573 56.2158 59.216C56.2965 59.2747 56.4175 59.337 56.5788 59.403C56.7401 59.469 56.9455 59.5313 57.1948 59.59C57.5615 59.6853 57.8621 59.7917 58.0968 59.909C58.3388 60.019 58.5295 60.1473 58.6688 60.294C58.8155 60.4333 58.9181 60.5947 58.9768 60.778C59.0355 60.9613 59.0648 61.1667 59.0648 61.394C59.0648 61.724 58.9695 62.021 58.7788 62.285C58.5955 62.5417 58.3461 62.7433 58.0308 62.89C57.7155 63.0367 57.3635 63.11 56.9748 63.11Z" fill="black"/>
</svg>
