<svg width="85" height="73" viewBox="0 0 85 73" fill="none" xmlns="http://www.w3.org/2000/svg">
<path d="M32 0.5H54L83 59V71H1.5V58L32 0.5Z" fill="#FF0000" fill-opacity="0.31"/>
<path d="M45.5657 5H40.4343C40.0349 5 39.7967 5.44507 40.0182 5.77735L41.416 7.87404C41.4708 7.95617 41.5 8.05268 41.5 8.15139V9.5V13.5C41.5 13.7761 41.2761 14 41 14H37H34.1514C34.0527 14 33.9562 13.9708 33.874 13.916L31.7773 12.5182C31.4451 12.2967 31 12.5349 31 12.9343V18.0657C31 18.4651 31.4451 18.7033 31.7774 18.4818L33.874 17.084C33.9562 17.0292 34.0527 17 34.1514 17H37H41C41.2761 17 41.5 17.2239 41.5 17.5V21V36.882C41.5 36.9596 41.4819 37.0361 41.4472 37.1056L40.3618 39.2764C40.1956 39.6088 40.4373 40 40.809 40H45.191C45.5627 40 45.8044 39.6088 45.6382 39.2764L44.5528 37.1056C44.5181 37.0361 44.5 36.9596 44.5 36.882V21V17.5C44.5 17.2239 44.7239 17 45 17H49H51.8486C51.9473 17 52.0438 17.0292 52.126 17.084L54.2227 18.4818C54.5549 18.7033 55 18.4651 55 18.0657V12.9343C55 12.5349 54.5549 12.2967 54.2227 12.5182L52.126 13.916C52.0438 13.9708 51.9473 14 51.8486 14H49H45C44.7239 14 44.5 13.7761 44.5 13.5V9.5V8.15139C44.5 8.05268 44.5292 7.95617 44.584 7.87404L45.9818 5.77735C46.2033 5.44507 45.9651 5 45.5657 5Z" fill="#4F4533"/>
<path d="M41.5 9.5V13.5C41.5 13.7761 41.2761 14 41 14H37M41.5 9.5V8.15139C41.5 8.05268 41.4708 7.95617 41.416 7.87404L40.0182 5.77735C39.7967 5.44507 40.0349 5 40.4343 5H45.5657C45.9651 5 46.2033 5.44507 45.9818 5.77735L44.584 7.87404C44.5292 7.95617 44.5 8.05268 44.5 8.15139V9.5M41.5 9.5C39 9.5 37 11.5 37 14M37 14H34.1514C34.0527 14 33.9562 13.9708 33.874 13.916L31.7773 12.5182C31.4451 12.2967 31 12.5349 31 12.9343V18.0657C31 18.4651 31.4451 18.7033 31.7774 18.4818L33.874 17.084C33.9562 17.0292 34.0527 17 34.1514 17H37M44.5 9.5V13.5C44.5 13.7761 44.7239 14 45 14H49M44.5 9.5C47 9.5 49 11.5 49 14M49 14H51.8486C51.9473 14 52.0438 13.9708 52.126 13.916L54.2227 12.5182C54.5549 12.2967 55 12.5349 55 12.9343V18.0657C55 18.4651 54.5549 18.7033 54.2226 18.4818L52.126 17.084C52.0438 17.0292 51.9473 17 51.8486 17H49M49 17H45C44.7239 17 44.5 17.2239 44.5 17.5V21M49 17C49 19.5 47 21 44.5 21M44.5 21V36.882C44.5 36.9596 44.5181 37.0361 44.5528 37.1056L45.6382 39.2764C45.8044 39.6088 45.5627 40 45.191 40H40.809C40.4373 40 40.1956 39.6088 40.3618 39.2764L41.4472 37.1056C41.4819 37.0361 41.5 36.9596 41.5 36.882V21M41.5 21V17.5C41.5 17.2239 41.2761 17 41 17H37M41.5 21C39 21 37 19.5 37 17" stroke="black"/>
<path d="M26.975 54V47.95H24.687V46.3H31.188V47.95H28.845V54H26.975ZM33.9783 54.11C33.3696 54.11 32.8269 53.978 32.3503 53.714C31.8809 53.45 31.5069 53.0907 31.2283 52.636C30.9569 52.1813 30.8213 51.6607 30.8213 51.074C30.8213 50.4873 30.9569 49.9667 31.2283 49.512C31.5069 49.0573 31.8809 48.698 32.3503 48.434C32.8269 48.17 33.3696 48.038 33.9783 48.038C34.5869 48.038 35.1259 48.17 35.5953 48.434C36.0719 48.698 36.4459 49.0573 36.7173 49.512C36.9886 49.9667 37.1243 50.4873 37.1243 51.074C37.1243 51.6607 36.9886 52.1813 36.7173 52.636C36.4459 53.0907 36.0719 53.45 35.5953 53.714C35.1259 53.978 34.5869 54.11 33.9783 54.11ZM33.9783 52.592C34.2423 52.592 34.4769 52.526 34.6823 52.394C34.8876 52.262 35.0489 52.0823 35.1663 51.855C35.2836 51.6277 35.3386 51.3673 35.3313 51.074C35.3386 50.7807 35.2836 50.5203 35.1663 50.293C35.0489 50.0583 34.8876 49.875 34.6823 49.743C34.4769 49.611 34.2423 49.545 33.9783 49.545C33.7143 49.545 33.4759 49.611 33.2633 49.743C33.0579 49.875 32.8966 50.0583 32.7793 50.293C32.6619 50.5203 32.6069 50.7807 32.6143 51.074C32.6069 51.3673 32.6619 51.6277 32.7793 51.855C32.8966 52.0823 33.0579 52.262 33.2633 52.394C33.4759 52.526 33.7143 52.592 33.9783 52.592ZM41.0251 54.11C40.4165 54.11 39.8738 53.978 39.3971 53.714C38.9278 53.45 38.5538 53.0907 38.2751 52.636C38.0038 52.1813 37.8681 51.6607 37.8681 51.074C37.8681 50.4873 38.0038 49.9667 38.2751 49.512C38.5538 49.0573 38.9278 48.698 39.3971 48.434C39.8738 48.17 40.4165 48.038 41.0251 48.038C41.6338 48.038 42.1728 48.17 42.6421 48.434C43.1188 48.698 43.4928 49.0573 43.7641 49.512C44.0355 49.9667 44.1711 50.4873 44.1711 51.074C44.1711 51.6607 44.0355 52.1813 43.7641 52.636C43.4928 53.0907 43.1188 53.45 42.6421 53.714C42.1728 53.978 41.6338 54.11 41.0251 54.11ZM41.0251 52.592C41.2891 52.592 41.5238 52.526 41.7291 52.394C41.9345 52.262 42.0958 52.0823 42.2131 51.855C42.3305 51.6277 42.3855 51.3673 42.3781 51.074C42.3855 50.7807 42.3305 50.5203 42.2131 50.293C42.0958 50.0583 41.9345 49.875 41.7291 49.743C41.5238 49.611 41.2891 49.545 41.0251 49.545C40.7611 49.545 40.5228 49.611 40.3101 49.743C40.1048 49.875 39.9435 50.0583 39.8261 50.293C39.7088 50.5203 39.6538 50.7807 39.6611 51.074C39.6538 51.3673 39.7088 51.6277 39.8261 51.855C39.9435 52.0823 40.1048 52.262 40.3101 52.394C40.5228 52.526 40.7611 52.592 41.0251 52.592ZM48.105 54.11C47.4597 54.11 46.8987 53.9817 46.422 53.725C45.9453 53.461 45.575 53.1053 45.311 52.658C45.047 52.2033 44.915 51.6863 44.915 51.107C44.915 50.6597 44.9883 50.249 45.135 49.875C45.2817 49.501 45.487 49.1783 45.751 48.907C46.015 48.6283 46.3267 48.4157 46.686 48.269C47.0527 48.115 47.4523 48.038 47.885 48.038C48.2957 48.038 48.6697 48.1113 49.007 48.258C49.3517 48.4047 49.6487 48.61 49.898 48.874C50.1473 49.138 50.338 49.4497 50.47 49.809C50.602 50.1683 50.6607 50.5607 50.646 50.986L50.635 51.459H45.982L45.729 50.469H49.205L49.018 50.678V50.458C49.0033 50.2747 48.9447 50.1133 48.842 49.974C48.7467 49.8273 48.6183 49.7137 48.457 49.633C48.2957 49.5523 48.1123 49.512 47.907 49.512C47.621 49.512 47.3753 49.5707 47.17 49.688C46.972 49.798 46.8217 49.963 46.719 50.183C46.6163 50.3957 46.565 50.6597 46.565 50.975C46.565 51.2977 46.631 51.58 46.763 51.822C46.9023 52.0567 47.1003 52.24 47.357 52.372C47.621 52.504 47.9327 52.57 48.292 52.57C48.5413 52.57 48.7613 52.5333 48.952 52.46C49.15 52.3867 49.3627 52.262 49.59 52.086L50.415 53.252C50.1877 53.45 49.9457 53.6113 49.689 53.736C49.4323 53.8607 49.1683 53.9523 48.897 54.011C48.633 54.077 48.369 54.11 48.105 54.11ZM51.7783 54V45.86H53.5383V54H51.7783ZM57.7837 54.11C57.1384 54.11 56.5774 53.9817 56.1007 53.725C55.6241 53.461 55.2537 53.1053 54.9897 52.658C54.7257 52.2033 54.5937 51.6863 54.5937 51.107C54.5937 50.6597 54.6671 50.249 54.8137 49.875C54.9604 49.501 55.1657 49.1783 55.4297 48.907C55.6937 48.6283 56.0054 48.4157 56.3647 48.269C56.7314 48.115 57.1311 48.038 57.5637 48.038C57.9744 48.038 58.3484 48.1113 58.6857 48.258C59.0304 48.4047 59.3274 48.61 59.5767 48.874C59.8261 49.138 60.0167 49.4497 60.1487 49.809C60.2807 50.1683 60.3394 50.5607 60.3247 50.986L60.3137 51.459H55.6607L55.4077 50.469H58.8837L58.6967 50.678V50.458C58.6821 50.2747 58.6234 50.1133 58.5207 49.974C58.4254 49.8273 58.2971 49.7137 58.1357 49.633C57.9744 49.5523 57.7911 49.512 57.5857 49.512C57.2997 49.512 57.0541 49.5707 56.8487 49.688C56.6507 49.798 56.5004 49.963 56.3977 50.183C56.2951 50.3957 56.2437 50.6597 56.2437 50.975C56.2437 51.2977 56.3097 51.58 56.4417 51.822C56.5811 52.0567 56.7791 52.24 57.0357 52.372C57.2997 52.504 57.6114 52.57 57.9707 52.57C58.2201 52.57 58.4401 52.5333 58.6307 52.46C58.8287 52.3867 59.0414 52.262 59.2687 52.086L60.0937 53.252C59.8664 53.45 59.6244 53.6113 59.3677 53.736C59.1111 53.8607 58.8471 53.9523 58.5757 54.011C58.3117 54.077 58.0477 54.11 57.7837 54.11ZM4.15078 68.11C3.73278 68.11 3.34411 68.055 2.98478 67.945C2.63278 67.835 2.31011 67.67 2.01678 67.45C1.73078 67.2227 1.47411 66.944 1.24678 66.614L2.06078 65.679C2.42011 66.1923 2.76478 66.548 3.09478 66.746C3.42478 66.944 3.81711 67.043 4.27178 67.043C4.55044 67.043 4.80344 66.999 5.03078 66.911C5.25811 66.823 5.43778 66.702 5.56978 66.548C5.70178 66.394 5.76778 66.218 5.76778 66.02C5.76778 65.888 5.74578 65.7633 5.70178 65.646C5.65778 65.5287 5.58811 65.4223 5.49278 65.327C5.40478 65.2317 5.28744 65.1437 5.14078 65.063C5.00144 64.9823 4.83644 64.9127 4.64578 64.854C4.45511 64.788 4.23511 64.733 3.98578 64.689C3.58978 64.6083 3.24511 64.502 2.95178 64.37C2.65844 64.238 2.41278 64.073 2.21478 63.875C2.01678 63.677 1.87011 63.4533 1.77478 63.204C1.67944 62.9473 1.63178 62.6613 1.63178 62.346C1.63178 62.038 1.69778 61.752 1.82978 61.488C1.96911 61.224 2.15611 60.9967 2.39078 60.806C2.63278 60.608 2.91511 60.4577 3.23778 60.355C3.56044 60.245 3.90878 60.19 4.28278 60.19C4.67878 60.19 5.04178 60.2413 5.37178 60.344C5.70178 60.4467 5.99511 60.6007 6.25178 60.806C6.50844 61.004 6.72111 61.2497 6.88978 61.543L6.05378 62.368C5.90711 62.126 5.74211 61.9243 5.55878 61.763C5.37544 61.5943 5.17378 61.4697 4.95378 61.389C4.73378 61.301 4.49911 61.257 4.24978 61.257C3.96378 61.257 3.71444 61.301 3.50178 61.389C3.28911 61.477 3.12044 61.6017 2.99578 61.763C2.87844 61.917 2.81978 62.1003 2.81978 62.313C2.81978 62.467 2.84911 62.61 2.90778 62.742C2.96644 62.8667 3.05444 62.9803 3.17178 63.083C3.29644 63.1783 3.46144 63.2663 3.66678 63.347C3.87211 63.4203 4.11778 63.4863 4.40378 63.545C4.80711 63.633 5.16644 63.7467 5.48178 63.886C5.79711 64.018 6.06478 64.1757 6.28478 64.359C6.50478 64.5423 6.66978 64.7477 6.77978 64.975C6.89711 65.2023 6.95578 65.448 6.95578 65.712C6.95578 66.2033 6.84211 66.6287 6.61478 66.988C6.38744 67.3473 6.06478 67.626 5.64678 67.824C5.22878 68.0147 4.73011 68.11 4.15078 68.11ZM9.06804 68V60.751H10.201V68H9.06804ZM7.86904 63.325V62.225H11.543V63.325H7.86904ZM13.0367 68.121C12.7947 68.121 12.6077 68.0513 12.4757 67.912C12.3437 67.7653 12.2777 67.56 12.2777 67.296C12.2777 67.054 12.3474 66.856 12.4867 66.702C12.626 66.548 12.8094 66.471 13.0367 66.471C13.2787 66.471 13.4657 66.5443 13.5977 66.691C13.7297 66.8303 13.7957 67.032 13.7957 67.296C13.7957 67.538 13.726 67.736 13.5867 67.89C13.4474 68.044 13.264 68.121 13.0367 68.121ZM18.4467 68V60.3H19.6127L22.4177 64.865L21.8567 64.854L24.6947 60.3H25.7947V68H24.6067V64.843C24.6067 64.183 24.6213 63.589 24.6507 63.061C24.6873 62.533 24.746 62.0087 24.8267 61.488L24.9807 61.895L22.4617 65.789H21.7357L19.2937 61.939L19.4147 61.488C19.4953 61.9793 19.5503 62.4853 19.5797 63.006C19.6163 63.5193 19.6347 64.1317 19.6347 64.843V68H18.4467ZM29.8895 68.11C29.4128 68.11 28.9765 67.978 28.5805 67.714C28.1918 67.45 27.8802 67.0907 27.6455 66.636C27.4108 66.1813 27.2935 65.668 27.2935 65.096C27.2935 64.5167 27.4108 64.0033 27.6455 63.556C27.8875 63.1013 28.2102 62.7457 28.6135 62.489C29.0242 62.2323 29.4825 62.104 29.9885 62.104C30.2892 62.104 30.5642 62.148 30.8135 62.236C31.0628 62.324 31.2792 62.4487 31.4625 62.61C31.6532 62.764 31.8072 62.9437 31.9245 63.149C32.0492 63.3543 32.1262 63.5743 32.1555 63.809L31.9025 63.721V62.225H33.0465V68H31.9025V66.625L32.1665 66.548C32.1225 66.746 32.0308 66.9403 31.8915 67.131C31.7595 67.3143 31.5872 67.4793 31.3745 67.626C31.1692 67.7727 30.9382 67.89 30.6815 67.978C30.4322 68.066 30.1682 68.11 29.8895 68.11ZM30.1865 67.065C30.5312 67.065 30.8355 66.9807 31.0995 66.812C31.3635 66.6433 31.5688 66.4123 31.7155 66.119C31.8695 65.8183 31.9465 65.4773 31.9465 65.096C31.9465 64.722 31.8695 64.3883 31.7155 64.095C31.5688 63.8017 31.3635 63.5707 31.0995 63.402C30.8355 63.2333 30.5312 63.149 30.1865 63.149C29.8492 63.149 29.5485 63.2333 29.2845 63.402C29.0278 63.5707 28.8225 63.8017 28.6685 64.095C28.5218 64.3883 28.4485 64.722 28.4485 65.096C28.4485 65.4773 28.5218 65.8183 28.6685 66.119C28.8225 66.4123 29.0278 66.6433 29.2845 66.812C29.5485 66.9807 29.8492 67.065 30.1865 67.065ZM34.6284 68V62.225H35.7724V64.04L35.6624 63.6C35.7431 63.3213 35.8788 63.0683 36.0694 62.841C36.2674 62.6137 36.4911 62.434 36.7404 62.302C36.9971 62.17 37.2611 62.104 37.5324 62.104C37.6571 62.104 37.7744 62.115 37.8844 62.137C38.0018 62.159 38.0934 62.1847 38.1594 62.214L37.8624 63.446C37.7744 63.4093 37.6754 63.38 37.5654 63.358C37.4628 63.3287 37.3601 63.314 37.2574 63.314C37.0594 63.314 36.8688 63.3543 36.6854 63.435C36.5094 63.5083 36.3518 63.6147 36.2124 63.754C36.0804 63.886 35.9741 64.0437 35.8934 64.227C35.8128 64.403 35.7724 64.5973 35.7724 64.81V68H34.6284ZM41.4888 70.53C41.0781 70.53 40.6675 70.464 40.2568 70.332C39.8535 70.2073 39.5271 70.0423 39.2778 69.837L39.6958 68.957C39.8425 69.067 40.0148 69.1623 40.2128 69.243C40.4108 69.331 40.6198 69.397 40.8398 69.441C41.0598 69.4923 41.2761 69.518 41.4888 69.518C41.8921 69.518 42.2295 69.452 42.5008 69.32C42.7721 69.188 42.9775 68.9937 43.1168 68.737C43.2562 68.4803 43.3258 68.1613 43.3258 67.78V66.669L43.4468 66.746C43.4101 66.9733 43.2891 67.1933 43.0838 67.406C42.8858 67.6113 42.6365 67.78 42.3358 67.912C42.0351 68.044 41.7271 68.11 41.4118 68.11C40.8618 68.11 40.3705 67.9817 39.9378 67.725C39.5125 67.461 39.1751 67.1053 38.9258 66.658C38.6765 66.2033 38.5518 65.6863 38.5518 65.107C38.5518 64.5277 38.6728 64.0143 38.9148 63.567C39.1641 63.1123 39.5015 62.7567 39.9268 62.5C40.3595 62.236 40.8435 62.104 41.3788 62.104C41.5988 62.104 41.8115 62.1333 42.0168 62.192C42.2221 62.2433 42.4128 62.3203 42.5888 62.423C42.7648 62.5183 42.9225 62.6247 43.0618 62.742C43.2011 62.8593 43.3148 62.984 43.4028 63.116C43.4908 63.248 43.5458 63.3727 43.5678 63.49L43.3258 63.578V62.225H44.4588V67.648C44.4588 68.11 44.3892 68.517 44.2498 68.869C44.1178 69.2283 43.9235 69.529 43.6668 69.771C43.4101 70.0203 43.0985 70.2073 42.7318 70.332C42.3651 70.464 41.9508 70.53 41.4888 70.53ZM41.5328 67.065C41.8921 67.065 42.2111 66.9807 42.4898 66.812C42.7685 66.6433 42.9848 66.4123 43.1388 66.119C43.2928 65.8257 43.3698 65.4883 43.3698 65.107C43.3698 64.7257 43.2891 64.3883 43.1278 64.095C42.9738 63.7943 42.7575 63.5597 42.4788 63.391C42.2075 63.2223 41.8921 63.138 41.5328 63.138C41.1808 63.138 40.8655 63.226 40.5868 63.402C40.3155 63.5707 40.0991 63.8053 39.9378 64.106C39.7838 64.3993 39.7068 64.733 39.7068 65.107C39.7068 65.481 39.7838 65.8183 39.9378 66.119C40.0991 66.4123 40.3155 66.6433 40.5868 66.812C40.8655 66.9807 41.1808 67.065 41.5328 67.065ZM47.9854 68.11C47.5748 68.11 47.2154 68.0147 46.9074 67.824C46.6068 67.6333 46.3721 67.3657 46.2034 67.021C46.0421 66.6763 45.9614 66.2657 45.9614 65.789V62.225H47.0944V65.481C47.0944 65.8183 47.1458 66.1117 47.2484 66.361C47.3584 66.603 47.5124 66.79 47.7104 66.922C47.9158 67.054 48.1614 67.12 48.4474 67.12C48.6601 67.12 48.8544 67.087 49.0304 67.021C49.2064 66.9477 49.3568 66.8487 49.4814 66.724C49.6134 66.5993 49.7161 66.449 49.7894 66.273C49.8628 66.097 49.8994 65.9063 49.8994 65.701V62.225H51.0324V68H49.8994V66.79L50.0974 66.658C50.0094 66.9293 49.8591 67.175 49.6464 67.395C49.4411 67.615 49.1954 67.791 48.9094 67.923C48.6234 68.0477 48.3154 68.11 47.9854 68.11ZM55.3166 68.11C54.7226 68.11 54.1946 67.9853 53.7326 67.736C53.2779 67.4793 52.9186 67.131 52.6546 66.691C52.3979 66.251 52.2696 65.745 52.2696 65.173C52.2696 64.7183 52.3429 64.304 52.4896 63.93C52.6363 63.556 52.8379 63.2333 53.0946 62.962C53.3586 62.6833 53.6703 62.4707 54.0296 62.324C54.3963 62.17 54.7923 62.093 55.2176 62.093C55.5916 62.093 55.9399 62.1663 56.2626 62.313C56.5853 62.4523 56.8639 62.6467 57.0986 62.896C57.3406 63.1453 57.5239 63.4423 57.6486 63.787C57.7806 64.1243 57.8429 64.4947 57.8356 64.898L57.8246 65.382H53.1056L52.8526 64.48H56.8456L56.6806 64.667V64.403C56.6586 64.161 56.5779 63.9447 56.4386 63.754C56.2993 63.5633 56.1233 63.413 55.9106 63.303C55.6979 63.193 55.4669 63.138 55.2176 63.138C54.8216 63.138 54.4879 63.215 54.2166 63.369C53.9453 63.5157 53.7399 63.7357 53.6006 64.029C53.4613 64.315 53.3916 64.6707 53.3916 65.096C53.3916 65.4993 53.4759 65.8513 53.6446 66.152C53.8133 66.4453 54.0516 66.6727 54.3596 66.834C54.6676 66.9953 55.0233 67.076 55.4266 67.076C55.7126 67.076 55.9766 67.0283 56.2186 66.933C56.4679 66.8377 56.7356 66.6653 57.0216 66.416L57.5936 67.219C57.4176 67.395 57.2013 67.549 56.9446 67.681C56.6953 67.813 56.4276 67.9193 56.1416 68C55.8629 68.0733 55.5879 68.11 55.3166 68.11ZM59.0669 68V62.225H60.2109V64.04L60.1009 63.6C60.1816 63.3213 60.3172 63.0683 60.5079 62.841C60.7059 62.6137 60.9296 62.434 61.1789 62.302C61.4356 62.17 61.6996 62.104 61.9709 62.104C62.0956 62.104 62.2129 62.115 62.3229 62.137C62.4402 62.159 62.5319 62.1847 62.5979 62.214L62.3009 63.446C62.2129 63.4093 62.1139 63.38 62.0039 63.358C61.9012 63.3287 61.7986 63.314 61.6959 63.314C61.4979 63.314 61.3072 63.3543 61.1239 63.435C60.9479 63.5083 60.7902 63.6147 60.6509 63.754C60.5189 63.886 60.4126 64.0437 60.3319 64.227C60.2512 64.403 60.2109 64.5973 60.2109 64.81V68H59.0669ZM63.6904 68V62.225H64.8234V68H63.6904ZM64.2404 60.949C63.9984 60.949 63.8114 60.8867 63.6794 60.762C63.5474 60.6373 63.4814 60.4613 63.4814 60.234C63.4814 60.0213 63.5474 59.849 63.6794 59.717C63.8188 59.585 64.0058 59.519 64.2404 59.519C64.4824 59.519 64.6694 59.5813 64.8014 59.706C64.9334 59.8307 64.9994 60.0067 64.9994 60.234C64.9994 60.4467 64.9298 60.619 64.7904 60.751C64.6584 60.883 64.4751 60.949 64.2404 60.949ZM67.2799 68V60.751H68.4129V68H67.2799ZM66.0809 63.325V62.225H69.7549V63.325H66.0809ZM73.4279 68.11C72.8339 68.11 72.3059 67.9853 71.8439 67.736C71.3893 67.4793 71.0299 67.131 70.7659 66.691C70.5093 66.251 70.3809 65.745 70.3809 65.173C70.3809 64.7183 70.4543 64.304 70.6009 63.93C70.7476 63.556 70.9493 63.2333 71.2059 62.962C71.4699 62.6833 71.7816 62.4707 72.1409 62.324C72.5076 62.17 72.9036 62.093 73.3289 62.093C73.7029 62.093 74.0513 62.1663 74.3739 62.313C74.6966 62.4523 74.9753 62.6467 75.2099 62.896C75.4519 63.1453 75.6353 63.4423 75.7599 63.787C75.8919 64.1243 75.9543 64.4947 75.9469 64.898L75.9359 65.382H71.2169L70.9639 64.48H74.9569L74.7919 64.667V64.403C74.7699 64.161 74.6893 63.9447 74.5499 63.754C74.4106 63.5633 74.2346 63.413 74.0219 63.303C73.8093 63.193 73.5783 63.138 73.3289 63.138C72.9329 63.138 72.5993 63.215 72.3279 63.369C72.0566 63.5157 71.8513 63.7357 71.7119 64.029C71.5726 64.315 71.5029 64.6707 71.5029 65.096C71.5029 65.4993 71.5873 65.8513 71.7559 66.152C71.9246 66.4453 72.1629 66.6727 72.4709 66.834C72.7789 66.9953 73.1346 67.076 73.5379 67.076C73.8239 67.076 74.0879 67.0283 74.3299 66.933C74.5793 66.8377 74.8469 66.6653 75.1329 66.416L75.7049 67.219C75.5289 67.395 75.3126 67.549 75.0559 67.681C74.8066 67.813 74.5389 67.9193 74.2529 68C73.9743 68.0733 73.6993 68.11 73.4279 68.11ZM77.0242 62.775L76.6062 62.269C76.8922 62.137 77.1269 61.9867 77.3102 61.818C77.4936 61.6493 77.5852 61.5027 77.5852 61.378C77.5852 61.2827 77.5449 61.1983 77.4642 61.125C77.3836 61.0443 77.3102 60.9783 77.2442 60.927C77.0829 60.795 76.9729 60.685 76.9142 60.597C76.8629 60.509 76.8372 60.4173 76.8372 60.322C76.8372 60.146 76.8996 60.0067 77.0242 59.904C77.1489 59.794 77.3102 59.739 77.5082 59.739C77.7136 59.739 77.8969 59.794 78.0582 59.904C78.2269 60.0067 78.3589 60.1497 78.4542 60.333C78.5496 60.5163 78.5972 60.7327 78.5972 60.982C78.5972 61.1727 78.5569 61.3597 78.4762 61.543C78.3956 61.7263 78.2819 61.8987 78.1352 62.06C77.9959 62.2213 77.8309 62.3643 77.6402 62.489C77.4496 62.6137 77.2442 62.709 77.0242 62.775ZM81.7566 68.11C81.2726 68.11 80.8362 68.0257 80.4476 67.857C80.0589 67.6883 79.7362 67.439 79.4796 67.109L80.2496 66.449C80.4696 66.7057 80.7079 66.8927 80.9646 67.01C81.2286 67.12 81.5256 67.175 81.8556 67.175C81.9876 67.175 82.1086 67.1603 82.2186 67.131C82.3359 67.0943 82.4349 67.043 82.5156 66.977C82.6036 66.911 82.6696 66.834 82.7136 66.746C82.7576 66.6507 82.7796 66.548 82.7796 66.438C82.7796 66.2473 82.7099 66.0933 82.5706 65.976C82.4972 65.9247 82.3799 65.8697 82.2186 65.811C82.0646 65.745 81.8629 65.679 81.6136 65.613C81.1882 65.503 80.8399 65.3783 80.5686 65.239C80.2972 65.0997 80.0882 64.942 79.9416 64.766C79.8316 64.6267 79.7509 64.4763 79.6996 64.315C79.6482 64.1463 79.6226 63.963 79.6226 63.765C79.6226 63.523 79.6739 63.303 79.7766 63.105C79.8866 62.8997 80.0332 62.7237 80.2166 62.577C80.4072 62.423 80.6272 62.3057 80.8766 62.225C81.1332 62.1443 81.4046 62.104 81.6906 62.104C81.9619 62.104 82.2296 62.1407 82.4936 62.214C82.7649 62.2873 83.0142 62.3937 83.2416 62.533C83.4689 62.6723 83.6596 62.8373 83.8136 63.028L83.1646 63.743C83.0252 63.6037 82.8712 63.4827 82.7026 63.38C82.5412 63.27 82.3762 63.1857 82.2076 63.127C82.0389 63.0683 81.8849 63.039 81.7456 63.039C81.5916 63.039 81.4522 63.0537 81.3276 63.083C81.2029 63.1123 81.0966 63.1563 81.0086 63.215C80.9279 63.2737 80.8656 63.347 80.8216 63.435C80.7776 63.523 80.7556 63.622 80.7556 63.732C80.7629 63.8273 80.7849 63.919 80.8216 64.007C80.8656 64.0877 80.9242 64.1573 80.9976 64.216C81.0782 64.2747 81.1992 64.337 81.3606 64.403C81.5219 64.469 81.7272 64.5313 81.9766 64.59C82.3432 64.6853 82.6439 64.7917 82.8786 64.909C83.1206 65.019 83.3112 65.1473 83.4506 65.294C83.5972 65.4333 83.6999 65.5947 83.7586 65.778C83.8172 65.9613 83.8466 66.1667 83.8466 66.394C83.8466 66.724 83.7512 67.021 83.5606 67.285C83.3772 67.5417 83.1279 67.7433 82.8126 67.89C82.4972 68.0367 82.1452 68.11 81.7566 68.11Z" fill="black"/>
</svg>
