<svg width="78" height="50" viewBox="0 0 78 50" fill="none" xmlns="http://www.w3.org/2000/svg">
<path d="M18.2673 26V18.3H21.6663C22.1943 18.3 22.6417 18.377 23.0083 18.531C23.375 18.6777 23.65 18.894 23.8333 19.18C24.024 19.4587 24.1193 19.796 24.1193 20.192C24.1193 20.632 24.0093 21.0023 23.7893 21.303C23.5767 21.6037 23.265 21.8053 22.8543 21.908L22.8323 21.699C23.177 21.7723 23.474 21.9007 23.7233 22.084C23.98 22.2673 24.178 22.4947 24.3173 22.766C24.4566 23.03 24.5263 23.3307 24.5263 23.668C24.5263 24.0567 24.4603 24.3977 24.3283 24.691C24.1963 24.977 24.0057 25.219 23.7563 25.417C23.507 25.615 23.2137 25.7617 22.8763 25.857C22.5463 25.9523 22.1796 26 21.7763 26H18.2673ZM20.0273 24.438H21.7103C21.9156 24.438 22.088 24.405 22.2273 24.339C22.374 24.273 22.4877 24.1777 22.5683 24.053C22.649 23.921 22.6893 23.7633 22.6893 23.58C22.6893 23.4113 22.6453 23.2683 22.5573 23.151C22.4766 23.0337 22.3593 22.9457 22.2053 22.887C22.0513 22.821 21.868 22.788 21.6553 22.788H20.0273V24.438ZM20.0273 21.391H21.4023C21.593 21.391 21.7543 21.3617 21.8863 21.303C22.0256 21.237 22.1283 21.149 22.1943 21.039C22.2676 20.9217 22.3043 20.7823 22.3043 20.621C22.3043 20.3863 22.2236 20.203 22.0623 20.071C21.901 19.9317 21.659 19.862 21.3363 19.862H20.0273V21.391ZM28.5325 26.11C27.9238 26.11 27.3811 25.978 26.9045 25.714C26.4351 25.45 26.0611 25.0907 25.7825 24.636C25.5111 24.1813 25.3755 23.6607 25.3755 23.074C25.3755 22.4873 25.5111 21.9667 25.7825 21.512C26.0611 21.0573 26.4351 20.698 26.9045 20.434C27.3811 20.17 27.9238 20.038 28.5325 20.038C29.1411 20.038 29.6801 20.17 30.1495 20.434C30.6261 20.698 31.0001 21.0573 31.2715 21.512C31.5428 21.9667 31.6785 22.4873 31.6785 23.074C31.6785 23.6607 31.5428 24.1813 31.2715 24.636C31.0001 25.0907 30.6261 25.45 30.1495 25.714C29.6801 25.978 29.1411 26.11 28.5325 26.11ZM28.5325 24.592C28.7965 24.592 29.0311 24.526 29.2365 24.394C29.4418 24.262 29.6031 24.0823 29.7205 23.855C29.8378 23.6277 29.8928 23.3673 29.8855 23.074C29.8928 22.7807 29.8378 22.5203 29.7205 22.293C29.6031 22.0583 29.4418 21.875 29.2365 21.743C29.0311 21.611 28.7965 21.545 28.5325 21.545C28.2685 21.545 28.0301 21.611 27.8175 21.743C27.6121 21.875 27.4508 22.0583 27.3335 22.293C27.2161 22.5203 27.1611 22.7807 27.1685 23.074C27.1611 23.3673 27.2161 23.6277 27.3335 23.855C27.4508 24.0823 27.6121 24.262 27.8175 24.394C28.0301 24.526 28.2685 24.592 28.5325 24.592ZM34.8203 26.121C34.3877 26.121 34.0173 26.0293 33.7093 25.846C33.4087 25.6553 33.174 25.384 33.0053 25.032C32.844 24.68 32.7633 24.2583 32.7633 23.767V20.159H34.5343V23.525C34.5343 23.7597 34.571 23.9613 34.6443 24.13C34.7177 24.2987 34.8277 24.4307 34.9743 24.526C35.121 24.614 35.297 24.658 35.5023 24.658C35.6563 24.658 35.7957 24.6323 35.9203 24.581C36.0523 24.5297 36.1623 24.46 36.2503 24.372C36.3457 24.2767 36.419 24.1703 36.4703 24.053C36.5217 23.9283 36.5473 23.7927 36.5473 23.646V20.159H38.3183V26H36.6573L36.5803 24.801L36.9103 24.669C36.8223 24.9477 36.6757 25.197 36.4703 25.417C36.265 25.6297 36.0193 25.802 35.7333 25.934C35.4473 26.0587 35.143 26.121 34.8203 26.121ZM39.887 26V20.159H41.559L41.614 21.347L41.262 21.479C41.3426 21.215 41.4856 20.9767 41.691 20.764C41.9036 20.544 42.1566 20.368 42.45 20.236C42.7433 20.104 43.0513 20.038 43.374 20.038C43.814 20.038 44.1843 20.1297 44.485 20.313C44.7856 20.489 45.013 20.7567 45.167 21.116C45.321 21.468 45.398 21.9007 45.398 22.414V26H43.627V22.557C43.627 22.3223 43.594 22.128 43.528 21.974C43.462 21.82 43.3593 21.7063 43.22 21.633C43.088 21.5523 42.923 21.5157 42.725 21.523C42.571 21.523 42.428 21.5487 42.296 21.6C42.164 21.644 42.0503 21.7137 41.955 21.809C41.8596 21.897 41.7826 21.9997 41.724 22.117C41.6726 22.2343 41.647 22.3627 41.647 22.502V26H40.778C40.5726 26 40.3966 26 40.25 26C40.1033 26 39.9823 26 39.887 26ZM47.3534 26V18.685H49.1134V26H47.3534ZM46.3194 21.699V20.159H50.2464V21.699H46.3194ZM51.3512 26V20.159H53.1112V26H51.3512ZM52.2312 19.004C51.9012 19.004 51.6409 18.927 51.4502 18.773C51.2669 18.6117 51.1752 18.3843 51.1752 18.091C51.1752 17.827 51.2705 17.6107 51.4612 17.442C51.6519 17.2733 51.9085 17.189 52.2312 17.189C52.5612 17.189 52.8179 17.2697 53.0012 17.431C53.1845 17.585 53.2762 17.805 53.2762 18.091C53.2762 18.3623 53.1809 18.5823 52.9902 18.751C52.8069 18.9197 52.5539 19.004 52.2312 19.004ZM55.1279 26V19.873C55.1279 19.4917 55.2086 19.147 55.3699 18.839C55.5386 18.531 55.7696 18.289 56.0629 18.113C56.3636 17.9297 56.7119 17.838 57.1079 17.838C57.3866 17.838 57.6432 17.8783 57.8779 17.959C58.1126 18.0397 58.3216 18.1533 58.5049 18.3L57.9989 19.587C57.9036 19.5357 57.8119 19.4953 57.7239 19.466C57.6359 19.4367 57.5552 19.422 57.4819 19.422C57.3499 19.422 57.2399 19.444 57.1519 19.488C57.0639 19.532 56.9979 19.6017 56.9539 19.697C56.9172 19.785 56.8989 19.895 56.8989 20.027V26H56.0189C55.8209 26 55.6449 26 55.4909 26C55.3442 26 55.2232 26 55.1279 26ZM54.2809 21.776V20.324H58.0979V21.776H54.2809ZM61.0742 26.121C60.6416 26.121 60.2712 26.0293 59.9632 25.846C59.6626 25.6553 59.4279 25.384 59.2592 25.032C59.0979 24.68 59.0172 24.2583 59.0172 23.767V20.159H60.7882V23.525C60.7882 23.7597 60.8249 23.9613 60.8982 24.13C60.9716 24.2987 61.0816 24.4307 61.2282 24.526C61.3749 24.614 61.5509 24.658 61.7562 24.658C61.9102 24.658 62.0496 24.6323 62.1742 24.581C62.3062 24.5297 62.4162 24.46 62.5042 24.372C62.5996 24.2767 62.6729 24.1703 62.7242 24.053C62.7756 23.9283 62.8012 23.7927 62.8012 23.646V20.159H64.5722V26H62.9112L62.8342 24.801L63.1642 24.669C63.0762 24.9477 62.9296 25.197 62.7242 25.417C62.5189 25.6297 62.2732 25.802 61.9872 25.934C61.7012 26.0587 61.3969 26.121 61.0742 26.121ZM66.1519 26V17.86H67.9119V26H66.1519ZM26.8495 40.11C26.4315 40.11 26.0428 40.055 25.6835 39.945C25.3315 39.835 25.0088 39.67 24.7155 39.45C24.4295 39.2227 24.1728 38.944 23.9455 38.614L24.7595 37.679C25.1188 38.1923 25.4635 38.548 25.7935 38.746C26.1235 38.944 26.5158 39.043 26.9705 39.043C27.2492 39.043 27.5022 38.999 27.7295 38.911C27.9568 38.823 28.1365 38.702 28.2685 38.548C28.4005 38.394 28.4665 38.218 28.4665 38.02C28.4665 37.888 28.4445 37.7633 28.4005 37.646C28.3565 37.5287 28.2868 37.4223 28.1915 37.327C28.1035 37.2317 27.9862 37.1437 27.8395 37.063C27.7002 36.9823 27.5352 36.9127 27.3445 36.854C27.1538 36.788 26.9338 36.733 26.6845 36.689C26.2885 36.6083 25.9438 36.502 25.6505 36.37C25.3572 36.238 25.1115 36.073 24.9135 35.875C24.7155 35.677 24.5688 35.4533 24.4735 35.204C24.3782 34.9473 24.3305 34.6613 24.3305 34.346C24.3305 34.038 24.3965 33.752 24.5285 33.488C24.6678 33.224 24.8548 32.9967 25.0895 32.806C25.3315 32.608 25.6138 32.4577 25.9365 32.355C26.2592 32.245 26.6075 32.19 26.9815 32.19C27.3775 32.19 27.7405 32.2413 28.0705 32.344C28.4005 32.4467 28.6938 32.6007 28.9505 32.806C29.2072 33.004 29.4198 33.2497 29.5885 33.543L28.7525 34.368C28.6058 34.126 28.4408 33.9243 28.2575 33.763C28.0742 33.5943 27.8725 33.4697 27.6525 33.389C27.4325 33.301 27.1978 33.257 26.9485 33.257C26.6625 33.257 26.4132 33.301 26.2005 33.389C25.9878 33.477 25.8192 33.6017 25.6945 33.763C25.5772 33.917 25.5185 34.1003 25.5185 34.313C25.5185 34.467 25.5478 34.61 25.6065 34.742C25.6652 34.8667 25.7532 34.9803 25.8705 35.083C25.9952 35.1783 26.1602 35.2663 26.3655 35.347C26.5708 35.4203 26.8165 35.4863 27.1025 35.545C27.5058 35.633 27.8652 35.7467 28.1805 35.886C28.4958 36.018 28.7635 36.1757 28.9835 36.359C29.2035 36.5423 29.3685 36.7477 29.4785 36.975C29.5958 37.2023 29.6545 37.448 29.6545 37.712C29.6545 38.2033 29.5408 38.6287 29.3135 38.988C29.0862 39.3473 28.7635 39.626 28.3455 39.824C27.9275 40.0147 27.4288 40.11 26.8495 40.11ZM31.7668 40V32.751H32.8998V40H31.7668ZM30.5678 35.325V34.225H34.2418V35.325H30.5678ZM35.7354 40.121C35.4934 40.121 35.3064 40.0513 35.1744 39.912C35.0424 39.7653 34.9764 39.56 34.9764 39.296C34.9764 39.054 35.0461 38.856 35.1854 38.702C35.3248 38.548 35.5081 38.471 35.7354 38.471C35.9774 38.471 36.1644 38.5443 36.2964 38.691C36.4284 38.8303 36.4944 39.032 36.4944 39.296C36.4944 39.538 36.4248 39.736 36.2854 39.89C36.1461 40.044 35.9628 40.121 35.7354 40.121ZM44.3684 40.11C43.8257 40.11 43.3234 40.011 42.8614 39.813C42.4067 39.615 42.007 39.34 41.6624 38.988C41.325 38.6287 41.061 38.2107 40.8704 37.734C40.687 37.25 40.5954 36.722 40.5954 36.15C40.5954 35.578 40.687 35.0537 40.8704 34.577C41.061 34.093 41.325 33.675 41.6624 33.323C42.007 32.9637 42.4067 32.685 42.8614 32.487C43.3234 32.289 43.8257 32.19 44.3684 32.19C44.911 32.19 45.4097 32.289 45.8644 32.487C46.3264 32.685 46.726 32.9637 47.0634 33.323C47.408 33.6823 47.672 34.104 47.8554 34.588C48.046 35.0647 48.1414 35.5853 48.1414 36.15C48.1414 36.7147 48.046 37.239 47.8554 37.723C47.672 38.1997 47.408 38.6177 47.0634 38.977C46.726 39.3363 46.3264 39.615 45.8644 39.813C45.4097 40.011 44.911 40.11 44.3684 40.11ZM44.3684 38.955C44.7424 38.955 45.0834 38.8853 45.3914 38.746C45.7067 38.6067 45.978 38.4123 46.2054 38.163C46.4327 37.9063 46.6087 37.6093 46.7334 37.272C46.8654 36.9273 46.9314 36.5533 46.9314 36.15C46.9314 35.7467 46.8654 35.3763 46.7334 35.039C46.6087 34.6943 46.4327 34.3973 46.2054 34.148C45.978 33.8913 45.7067 33.6933 45.3914 33.554C45.0834 33.4147 44.7424 33.345 44.3684 33.345C43.9944 33.345 43.6497 33.4147 43.3344 33.554C43.0264 33.6933 42.755 33.8877 42.5204 34.137C42.293 34.3863 42.117 34.6833 41.9924 35.028C41.8677 35.3653 41.8054 35.7393 41.8054 36.15C41.8054 36.5533 41.8677 36.9273 41.9924 37.272C42.117 37.6167 42.293 37.9137 42.5204 38.163C42.755 38.4123 43.0264 38.6067 43.3344 38.746C43.6497 38.8853 43.9944 38.955 44.3684 38.955ZM49.4859 40V31.86H50.6189V40H49.4859ZM54.3392 40.11C53.8625 40.11 53.4262 39.978 53.0302 39.714C52.6415 39.45 52.3299 39.0907 52.0952 38.636C51.8605 38.1813 51.7432 37.668 51.7432 37.096C51.7432 36.5167 51.8605 36.0033 52.0952 35.556C52.3372 35.1013 52.6599 34.7457 53.0632 34.489C53.4739 34.2323 53.9322 34.104 54.4382 34.104C54.7389 34.104 55.0139 34.148 55.2632 34.236C55.5125 34.324 55.7289 34.4487 55.9122 34.61C56.1029 34.764 56.2569 34.9437 56.3742 35.149C56.4989 35.3543 56.5759 35.5743 56.6052 35.809L56.3522 35.721V34.225H57.4962V40H56.3522V38.625L56.6162 38.548C56.5722 38.746 56.4805 38.9403 56.3412 39.131C56.2092 39.3143 56.0369 39.4793 55.8242 39.626C55.6189 39.7727 55.3879 39.89 55.1312 39.978C54.8819 40.066 54.6179 40.11 54.3392 40.11ZM54.6362 39.065C54.9809 39.065 55.2852 38.9807 55.5492 38.812C55.8132 38.6433 56.0185 38.4123 56.1652 38.119C56.3192 37.8183 56.3962 37.4773 56.3962 37.096C56.3962 36.722 56.3192 36.3883 56.1652 36.095C56.0185 35.8017 55.8132 35.5707 55.5492 35.402C55.2852 35.2333 54.9809 35.149 54.6362 35.149C54.2989 35.149 53.9982 35.2333 53.7342 35.402C53.4775 35.5707 53.2722 35.8017 53.1182 36.095C52.9715 36.3883 52.8982 36.722 52.8982 37.096C52.8982 37.4773 52.9715 37.8183 53.1182 38.119C53.2722 38.4123 53.4775 38.6433 53.7342 38.812C53.9982 38.9807 54.2989 39.065 54.6362 39.065ZM59.7051 40V33.576C59.7051 33.246 59.7785 32.9527 59.9251 32.696C60.0718 32.4393 60.2735 32.2377 60.5301 32.091C60.7868 31.9443 61.0838 31.871 61.4211 31.871C61.6558 31.871 61.8758 31.915 62.0811 32.003C62.2865 32.091 62.4515 32.2083 62.5761 32.355L62.1911 33.224C62.0958 33.136 61.9895 33.0663 61.8721 33.015C61.7621 32.9563 61.6558 32.927 61.5531 32.927C61.3991 32.927 61.2671 32.9527 61.1571 33.004C61.0545 33.048 60.9775 33.1213 60.9261 33.224C60.8748 33.3193 60.8491 33.4367 60.8491 33.576V40H60.2771C60.1818 40 60.0865 40 59.9911 40C59.8958 40 59.8005 40 59.7051 40ZM58.7811 35.369V34.324H62.2131V35.369H58.7811Z" fill="black"/>
<path d="M14 7V14M14 31V14M22 14H14M14 14H6" stroke="#484848" stroke-width="4"/>
</svg>
