<svg width="76" height="32" viewBox="0 0 76 32" fill="none" xmlns="http://www.w3.org/2000/svg">
<path d="M23.6206 24.11C23.0633 24.11 22.5426 24.011 22.0586 23.813C21.5746 23.6077 21.1493 23.3253 20.7826 22.966C20.4159 22.6067 20.1299 22.1887 19.9246 21.712C19.7266 21.228 19.6276 20.7073 19.6276 20.15C19.6276 19.6 19.7266 19.0867 19.9246 18.61C20.1299 18.1333 20.4123 17.719 20.7716 17.367C21.1383 17.0077 21.5636 16.729 22.0476 16.531C22.5316 16.333 23.0523 16.234 23.6096 16.234C23.9983 16.234 24.3759 16.289 24.7426 16.399C25.1166 16.509 25.4539 16.663 25.7546 16.861C26.0553 17.059 26.3009 17.2863 26.4916 17.543L25.7216 18.346C25.5016 18.1333 25.2743 17.9573 25.0396 17.818C24.8123 17.6787 24.5776 17.5723 24.3356 17.499C24.0936 17.4257 23.8516 17.389 23.6096 17.389C23.2136 17.389 22.8469 17.4587 22.5096 17.598C22.1796 17.7373 21.8863 17.9317 21.6296 18.181C21.3803 18.4303 21.1859 18.7237 21.0466 19.061C20.9073 19.391 20.8376 19.754 20.8376 20.15C20.8376 20.5313 20.9109 20.8943 21.0576 21.239C21.2043 21.5763 21.4059 21.8733 21.6626 22.13C21.9266 22.3867 22.2273 22.5883 22.5646 22.735C22.9093 22.8817 23.2723 22.955 23.6536 22.955C23.9396 22.955 24.2109 22.9147 24.4676 22.834C24.7243 22.746 24.9516 22.625 25.1496 22.471C25.3476 22.317 25.5016 22.141 25.6116 21.943C25.7216 21.7377 25.7766 21.5213 25.7766 21.294V21.074L25.9416 21.228H23.5876V20.051H26.9976C27.0123 20.1317 27.0233 20.2123 27.0306 20.293C27.0379 20.3663 27.0416 20.4397 27.0416 20.513C27.0489 20.579 27.0526 20.645 27.0526 20.711C27.0526 21.217 26.9646 21.679 26.7886 22.097C26.6126 22.5077 26.3669 22.8633 26.0516 23.164C25.7436 23.4647 25.3806 23.6993 24.9626 23.868C24.5519 24.0293 24.1046 24.11 23.6206 24.11ZM30.3375 24.11C29.9268 24.11 29.5675 24.0147 29.2595 23.824C28.9588 23.6333 28.7242 23.3657 28.5555 23.021C28.3942 22.6763 28.3135 22.2657 28.3135 21.789V18.225H29.4465V21.481C29.4465 21.8183 29.4978 22.1117 29.6005 22.361C29.7105 22.603 29.8645 22.79 30.0625 22.922C30.2678 23.054 30.5135 23.12 30.7995 23.12C31.0122 23.12 31.2065 23.087 31.3825 23.021C31.5585 22.9477 31.7088 22.8487 31.8335 22.724C31.9655 22.5993 32.0682 22.449 32.1415 22.273C32.2148 22.097 32.2515 21.9063 32.2515 21.701V18.225H33.3845V24H32.2515V22.79L32.4495 22.658C32.3615 22.9293 32.2112 23.175 31.9985 23.395C31.7932 23.615 31.5475 23.791 31.2615 23.923C30.9755 24.0477 30.6675 24.11 30.3375 24.11ZM34.9736 24V18.225H36.1066V19.413L35.9086 19.545C35.982 19.2883 36.125 19.0537 36.3376 18.841C36.5503 18.621 36.8033 18.445 37.0966 18.313C37.39 18.1737 37.6906 18.104 37.9986 18.104C38.4386 18.104 38.8053 18.192 39.0986 18.368C39.392 18.5367 39.612 18.797 39.7586 19.149C39.9053 19.501 39.9786 19.9447 39.9786 20.48V24H38.8456V20.557C38.8456 20.227 38.8016 19.9557 38.7136 19.743C38.6256 19.523 38.49 19.3653 38.3066 19.27C38.1233 19.1673 37.896 19.1233 37.6246 19.138C37.4046 19.138 37.203 19.1747 37.0196 19.248C36.8363 19.314 36.675 19.4093 36.5356 19.534C36.4036 19.6587 36.2973 19.8053 36.2166 19.974C36.1433 20.1353 36.1066 20.3113 36.1066 20.502V24H35.5456C35.4503 24 35.355 24 35.2596 24C35.1643 24 35.069 24 34.9736 24ZM41.5156 24V18.225H42.6486V19.413L42.4506 19.545C42.524 19.2883 42.667 19.0537 42.8796 18.841C43.0923 18.621 43.3453 18.445 43.6386 18.313C43.932 18.1737 44.2326 18.104 44.5406 18.104C44.9806 18.104 45.3473 18.192 45.6406 18.368C45.934 18.5367 46.154 18.797 46.3006 19.149C46.4473 19.501 46.5206 19.9447 46.5206 20.48V24H45.3876V20.557C45.3876 20.227 45.3436 19.9557 45.2556 19.743C45.1676 19.523 45.032 19.3653 44.8486 19.27C44.6653 19.1673 44.438 19.1233 44.1666 19.138C43.9466 19.138 43.745 19.1747 43.5616 19.248C43.3783 19.314 43.217 19.4093 43.0776 19.534C42.9456 19.6587 42.8393 19.8053 42.7586 19.974C42.6853 20.1353 42.6486 20.3113 42.6486 20.502V24H42.0876C41.9923 24 41.897 24 41.8016 24C41.7063 24 41.611 24 41.5156 24ZM48.2446 24V18.225H49.3776V24H48.2446ZM48.7946 16.949C48.5526 16.949 48.3656 16.8867 48.2336 16.762C48.1016 16.6373 48.0356 16.4613 48.0356 16.234C48.0356 16.0213 48.1016 15.849 48.2336 15.717C48.373 15.585 48.56 15.519 48.7946 15.519C49.0366 15.519 49.2236 15.5813 49.3556 15.706C49.4876 15.8307 49.5536 16.0067 49.5536 16.234C49.5536 16.4467 49.484 16.619 49.3446 16.751C49.2126 16.883 49.0293 16.949 48.7946 16.949ZM53.0441 24.11C52.5601 24.11 52.1238 24.0257 51.7351 23.857C51.3465 23.6883 51.0238 23.439 50.7671 23.109L51.5371 22.449C51.7571 22.7057 51.9955 22.8927 52.2521 23.01C52.5161 23.12 52.8131 23.175 53.1431 23.175C53.2751 23.175 53.3961 23.1603 53.5061 23.131C53.6235 23.0943 53.7225 23.043 53.8031 22.977C53.8911 22.911 53.9571 22.834 54.0011 22.746C54.0451 22.6507 54.0671 22.548 54.0671 22.438C54.0671 22.2473 53.9975 22.0933 53.8581 21.976C53.7848 21.9247 53.6675 21.8697 53.5061 21.811C53.3521 21.745 53.1505 21.679 52.9011 21.613C52.4758 21.503 52.1275 21.3783 51.8561 21.239C51.5848 21.0997 51.3758 20.942 51.2291 20.766C51.1191 20.6267 51.0385 20.4763 50.9871 20.315C50.9358 20.1463 50.9101 19.963 50.9101 19.765C50.9101 19.523 50.9615 19.303 51.0641 19.105C51.1741 18.8997 51.3208 18.7237 51.5041 18.577C51.6948 18.423 51.9148 18.3057 52.1641 18.225C52.4208 18.1443 52.6921 18.104 52.9781 18.104C53.2495 18.104 53.5171 18.1407 53.7811 18.214C54.0525 18.2873 54.3018 18.3937 54.5291 18.533C54.7565 18.6723 54.9471 18.8373 55.1011 19.028L54.4521 19.743C54.3128 19.6037 54.1588 19.4827 53.9901 19.38C53.8288 19.27 53.6638 19.1857 53.4951 19.127C53.3265 19.0683 53.1725 19.039 53.0331 19.039C52.8791 19.039 52.7398 19.0537 52.6151 19.083C52.4905 19.1123 52.3841 19.1563 52.2961 19.215C52.2155 19.2737 52.1531 19.347 52.1091 19.435C52.0651 19.523 52.0431 19.622 52.0431 19.732C52.0505 19.8273 52.0725 19.919 52.1091 20.007C52.1531 20.0877 52.2118 20.1573 52.2851 20.216C52.3658 20.2747 52.4868 20.337 52.6481 20.403C52.8095 20.469 53.0148 20.5313 53.2641 20.59C53.6308 20.6853 53.9315 20.7917 54.1661 20.909C54.4081 21.019 54.5988 21.1473 54.7381 21.294C54.8848 21.4333 54.9875 21.5947 55.0461 21.778C55.1048 21.9613 55.1341 22.1667 55.1341 22.394C55.1341 22.724 55.0388 23.021 54.8481 23.285C54.6648 23.5417 54.4155 23.7433 54.1001 23.89C53.7848 24.0367 53.4328 24.11 53.0441 24.11ZM58.9788 24.11C58.4142 24.11 57.9082 23.9817 57.4608 23.725C57.0208 23.461 56.6725 23.1053 56.4158 22.658C56.1592 22.2033 56.0308 21.6863 56.0308 21.107C56.0308 20.5277 56.1592 20.0143 56.4158 19.567C56.6725 19.1123 57.0208 18.7567 57.4608 18.5C57.9082 18.236 58.4142 18.104 58.9788 18.104C59.5362 18.104 60.0348 18.236 60.4748 18.5C60.9222 18.7567 61.2742 19.1123 61.5308 19.567C61.7875 20.0143 61.9158 20.5277 61.9158 21.107C61.9158 21.6863 61.7875 22.2033 61.5308 22.658C61.2742 23.1053 60.9222 23.461 60.4748 23.725C60.0348 23.9817 59.5362 24.11 58.9788 24.11ZM58.9788 23.076C59.3235 23.076 59.6315 22.9917 59.9028 22.823C60.1742 22.647 60.3868 22.4123 60.5408 22.119C60.6948 21.8183 60.7682 21.481 60.7608 21.107C60.7682 20.7257 60.6948 20.3883 60.5408 20.095C60.3868 19.7943 60.1742 19.5597 59.9028 19.391C59.6315 19.2223 59.3235 19.138 58.9788 19.138C58.6342 19.138 58.3225 19.226 58.0438 19.402C57.7725 19.5707 57.5598 19.8053 57.4058 20.106C57.2518 20.3993 57.1785 20.733 57.1858 21.107C57.1785 21.481 57.2518 21.8183 57.4058 22.119C57.5598 22.4123 57.7725 22.647 58.0438 22.823C58.3225 22.9917 58.6342 23.076 58.9788 23.076ZM63.1504 24V18.225H64.2834V19.413L64.0854 19.545C64.1587 19.2883 64.3017 19.0537 64.5144 18.841C64.7271 18.621 64.9801 18.445 65.2734 18.313C65.5667 18.1737 65.8674 18.104 66.1754 18.104C66.6154 18.104 66.9821 18.192 67.2754 18.368C67.5687 18.5367 67.7887 18.797 67.9354 19.149C68.0821 19.501 68.1554 19.9447 68.1554 20.48V24H67.0224V20.557C67.0224 20.227 66.9784 19.9557 66.8904 19.743C66.8024 19.523 66.6667 19.3653 66.4834 19.27C66.3001 19.1673 66.0727 19.1233 65.8014 19.138C65.5814 19.138 65.3797 19.1747 65.1964 19.248C65.0131 19.314 64.8517 19.4093 64.7124 19.534C64.5804 19.6587 64.4741 19.8053 64.3934 19.974C64.3201 20.1353 64.2834 20.3113 64.2834 20.502V24H63.7224C63.6271 24 63.5317 24 63.4364 24C63.3411 24 63.2457 24 63.1504 24Z" fill="black"/>
<path d="M12 3V10M12 27V10M20 10H12M12 10H4" stroke="#484848" stroke-width="4"/>
</svg>
