<svg width="96" height="48" viewBox="0 0 96 48" fill="none" xmlns="http://www.w3.org/2000/svg">
<path d="M31.073 26V18.3H32.943V24.35H36.375V26H31.073ZM39.5303 26.099C39.0389 26.099 38.5989 25.9707 38.2103 25.714C37.8289 25.45 37.5246 25.0907 37.2973 24.636C37.0699 24.174 36.9563 23.6533 36.9563 23.074C36.9563 22.48 37.0699 21.9557 37.2973 21.501C37.5246 21.0463 37.8363 20.6907 38.2323 20.434C38.6283 20.17 39.0793 20.038 39.5853 20.038C39.8639 20.038 40.1169 20.0783 40.3443 20.159C40.5789 20.2397 40.7843 20.3533 40.9603 20.5C41.1363 20.6393 41.2866 20.8043 41.4113 20.995C41.5359 21.1783 41.6276 21.3763 41.6863 21.589L41.3233 21.545V20.159H43.0723V26H41.2903V24.592L41.6863 24.581C41.6276 24.7863 41.5323 24.9807 41.4003 25.164C41.2683 25.3473 41.1069 25.5087 40.9163 25.648C40.7256 25.7873 40.5129 25.8973 40.2783 25.978C40.0436 26.0587 39.7943 26.099 39.5303 26.099ZM40.0143 24.614C40.2856 24.614 40.5203 24.5517 40.7183 24.427C40.9163 24.3023 41.0703 24.1263 41.1803 23.899C41.2903 23.6643 41.3453 23.3893 41.3453 23.074C41.3453 22.7587 41.2903 22.4873 41.1803 22.26C41.0703 22.0253 40.9163 21.8457 40.7183 21.721C40.5203 21.589 40.2856 21.523 40.0143 21.523C39.7503 21.523 39.5193 21.589 39.3213 21.721C39.1306 21.8457 38.9803 22.0253 38.8703 22.26C38.7603 22.4873 38.7053 22.7587 38.7053 23.074C38.7053 23.3893 38.7603 23.6643 38.8703 23.899C38.9803 24.1263 39.1306 24.3023 39.3213 24.427C39.5193 24.5517 39.7503 24.614 40.0143 24.614ZM45.2333 28.53L46.5643 25.395L46.5863 26.297L43.7703 20.159H45.7613L46.9933 23.096C47.0593 23.2427 47.1217 23.4003 47.1803 23.569C47.239 23.7377 47.283 23.899 47.3123 24.053L47.0703 24.196C47.1143 24.086 47.162 23.9503 47.2133 23.789C47.272 23.6203 47.3343 23.4407 47.4003 23.25L48.4783 20.159H50.4803L47.9943 26L46.9823 28.53H45.2333ZM51.8016 26V18.685H53.5616V26H51.8016ZM50.7676 21.699V20.159H54.6946V21.699H50.7676ZM58.3967 26.11C57.7881 26.11 57.2454 25.978 56.7687 25.714C56.2994 25.45 55.9254 25.0907 55.6467 24.636C55.3754 24.1813 55.2397 23.6607 55.2397 23.074C55.2397 22.4873 55.3754 21.9667 55.6467 21.512C55.9254 21.0573 56.2994 20.698 56.7687 20.434C57.2454 20.17 57.7881 20.038 58.3967 20.038C59.0054 20.038 59.5444 20.17 60.0137 20.434C60.4904 20.698 60.8644 21.0573 61.1357 21.512C61.4071 21.9667 61.5427 22.4873 61.5427 23.074C61.5427 23.6607 61.4071 24.1813 61.1357 24.636C60.8644 25.0907 60.4904 25.45 60.0137 25.714C59.5444 25.978 59.0054 26.11 58.3967 26.11ZM58.3967 24.592C58.6607 24.592 58.8954 24.526 59.1007 24.394C59.3061 24.262 59.4674 24.0823 59.5847 23.855C59.7021 23.6277 59.7571 23.3673 59.7497 23.074C59.7571 22.7807 59.7021 22.5203 59.5847 22.293C59.4674 22.0583 59.3061 21.875 59.1007 21.743C58.8954 21.611 58.6607 21.545 58.3967 21.545C58.1327 21.545 57.8944 21.611 57.6817 21.743C57.4764 21.875 57.3151 22.0583 57.1977 22.293C57.0804 22.5203 57.0254 22.7807 57.0327 23.074C57.0254 23.3673 57.0804 23.6277 57.1977 23.855C57.3151 24.0823 57.4764 24.262 57.6817 24.394C57.8944 24.526 58.1327 24.592 58.3967 24.592ZM62.6936 26V20.159H64.3656L64.4206 21.347L64.0686 21.479C64.1493 21.215 64.2923 20.9767 64.4976 20.764C64.7103 20.544 64.9633 20.368 65.2566 20.236C65.5499 20.104 65.8579 20.038 66.1806 20.038C66.6206 20.038 66.9909 20.1297 67.2916 20.313C67.5923 20.489 67.8196 20.7567 67.9736 21.116C68.1276 21.468 68.2046 21.9007 68.2046 22.414V26H66.4336V22.557C66.4336 22.3223 66.4006 22.128 66.3346 21.974C66.2686 21.82 66.1659 21.7063 66.0266 21.633C65.8946 21.5523 65.7296 21.5157 65.5316 21.523C65.3776 21.523 65.2346 21.5487 65.1026 21.6C64.9706 21.644 64.8569 21.7137 64.7616 21.809C64.6663 21.897 64.5893 21.9997 64.5306 22.117C64.4793 22.2343 64.4536 22.3627 64.4536 22.502V26H63.5846C63.3793 26 63.2033 26 63.0566 26C62.9099 26 62.7889 26 62.6936 26ZM9.77578 40.11C9.35778 40.11 8.96911 40.055 8.60978 39.945C8.25778 39.835 7.93511 39.67 7.64178 39.45C7.35578 39.2227 7.09911 38.944 6.87178 38.614L7.68578 37.679C8.04511 38.1923 8.38978 38.548 8.71978 38.746C9.04978 38.944 9.44211 39.043 9.89678 39.043C10.1754 39.043 10.4284 38.999 10.6558 38.911C10.8831 38.823 11.0628 38.702 11.1948 38.548C11.3268 38.394 11.3928 38.218 11.3928 38.02C11.3928 37.888 11.3708 37.7633 11.3268 37.646C11.2828 37.5287 11.2131 37.4223 11.1178 37.327C11.0298 37.2317 10.9124 37.1437 10.7658 37.063C10.6264 36.9823 10.4614 36.9127 10.2708 36.854C10.0801 36.788 9.86011 36.733 9.61078 36.689C9.21478 36.6083 8.87011 36.502 8.57678 36.37C8.28344 36.238 8.03778 36.073 7.83978 35.875C7.64178 35.677 7.49511 35.4533 7.39978 35.204C7.30444 34.9473 7.25678 34.6613 7.25678 34.346C7.25678 34.038 7.32278 33.752 7.45478 33.488C7.59411 33.224 7.78111 32.9967 8.01578 32.806C8.25778 32.608 8.54011 32.4577 8.86278 32.355C9.18544 32.245 9.53378 32.19 9.90778 32.19C10.3038 32.19 10.6668 32.2413 10.9968 32.344C11.3268 32.4467 11.6201 32.6007 11.8768 32.806C12.1334 33.004 12.3461 33.2497 12.5148 33.543L11.6788 34.368C11.5321 34.126 11.3671 33.9243 11.1838 33.763C11.0004 33.5943 10.7988 33.4697 10.5788 33.389C10.3588 33.301 10.1241 33.257 9.87478 33.257C9.58878 33.257 9.33944 33.301 9.12678 33.389C8.91411 33.477 8.74544 33.6017 8.62078 33.763C8.50344 33.917 8.44478 34.1003 8.44478 34.313C8.44478 34.467 8.47411 34.61 8.53278 34.742C8.59144 34.8667 8.67944 34.9803 8.79678 35.083C8.92144 35.1783 9.08644 35.2663 9.29178 35.347C9.49711 35.4203 9.74278 35.4863 10.0288 35.545C10.4321 35.633 10.7914 35.7467 11.1068 35.886C11.4221 36.018 11.6898 36.1757 11.9098 36.359C12.1298 36.5423 12.2948 36.7477 12.4048 36.975C12.5221 37.2023 12.5808 37.448 12.5808 37.712C12.5808 38.2033 12.4671 38.6287 12.2398 38.988C12.0124 39.3473 11.6898 39.626 11.2718 39.824C10.8538 40.0147 10.3551 40.11 9.77578 40.11ZM14.693 40V32.751H15.826V40H14.693ZM13.494 35.325V34.225H17.168V35.325H13.494ZM18.6617 40.121C18.4197 40.121 18.2327 40.0513 18.1007 39.912C17.9687 39.7653 17.9027 39.56 17.9027 39.296C17.9027 39.054 17.9724 38.856 18.1117 38.702C18.251 38.548 18.4344 38.471 18.6617 38.471C18.9037 38.471 19.0907 38.5443 19.2227 38.691C19.3547 38.8303 19.4207 39.032 19.4207 39.296C19.4207 39.538 19.351 39.736 19.2117 39.89C19.0724 40.044 18.889 40.121 18.6617 40.121ZM24.0717 40V32.3H27.3497C27.7897 32.3 28.193 32.41 28.5597 32.63C28.9337 32.8427 29.2307 33.136 29.4507 33.51C29.6707 33.8767 29.7807 34.291 29.7807 34.753C29.7807 35.171 29.6707 35.5597 29.4507 35.919C29.2307 36.2783 28.9373 36.568 28.5707 36.788C28.204 37.0007 27.797 37.107 27.3497 37.107H25.2597V40H24.0717ZM28.6477 40L26.6897 36.524L27.9107 36.249L30.0887 40.011L28.6477 40ZM25.2597 35.963H27.4597C27.6723 35.963 27.863 35.9117 28.0317 35.809C28.2003 35.699 28.3323 35.5523 28.4277 35.369C28.523 35.1783 28.5707 34.9693 28.5707 34.742C28.5707 34.4853 28.5083 34.2617 28.3837 34.071C28.2663 33.873 28.0977 33.719 27.8777 33.609C27.665 33.499 27.423 33.444 27.1517 33.444H25.2597V35.963ZM33.8152 40.11C33.2506 40.11 32.7446 39.9817 32.2972 39.725C31.8572 39.461 31.5089 39.1053 31.2522 38.658C30.9956 38.2033 30.8672 37.6863 30.8672 37.107C30.8672 36.5277 30.9956 36.0143 31.2522 35.567C31.5089 35.1123 31.8572 34.7567 32.2972 34.5C32.7446 34.236 33.2506 34.104 33.8152 34.104C34.3726 34.104 34.8712 34.236 35.3112 34.5C35.7586 34.7567 36.1106 35.1123 36.3672 35.567C36.6239 36.0143 36.7522 36.5277 36.7522 37.107C36.7522 37.6863 36.6239 38.2033 36.3672 38.658C36.1106 39.1053 35.7586 39.461 35.3112 39.725C34.8712 39.9817 34.3726 40.11 33.8152 40.11ZM33.8152 39.076C34.1599 39.076 34.4679 38.9917 34.7392 38.823C35.0106 38.647 35.2232 38.4123 35.3772 38.119C35.5312 37.8183 35.6046 37.481 35.5972 37.107C35.6046 36.7257 35.5312 36.3883 35.3772 36.095C35.2232 35.7943 35.0106 35.5597 34.7392 35.391C34.4679 35.2223 34.1599 35.138 33.8152 35.138C33.4706 35.138 33.1589 35.226 32.8802 35.402C32.6089 35.5707 32.3962 35.8053 32.2422 36.106C32.0882 36.3993 32.0149 36.733 32.0222 37.107C32.0149 37.481 32.0882 37.8183 32.2422 38.119C32.3962 38.4123 32.6089 38.647 32.8802 38.823C33.1589 38.9917 33.4706 39.076 33.8152 39.076ZM39.9118 40.11C39.4278 40.11 38.9915 40.0257 38.6028 39.857C38.2142 39.6883 37.8915 39.439 37.6348 39.109L38.4048 38.449C38.6248 38.7057 38.8632 38.8927 39.1198 39.01C39.3838 39.12 39.6808 39.175 40.0108 39.175C40.1428 39.175 40.2638 39.1603 40.3738 39.131C40.4912 39.0943 40.5902 39.043 40.6708 38.977C40.7588 38.911 40.8248 38.834 40.8688 38.746C40.9128 38.6507 40.9348 38.548 40.9348 38.438C40.9348 38.2473 40.8652 38.0933 40.7258 37.976C40.6525 37.9247 40.5352 37.8697 40.3738 37.811C40.2198 37.745 40.0182 37.679 39.7688 37.613C39.3435 37.503 38.9952 37.3783 38.7238 37.239C38.4525 37.0997 38.2435 36.942 38.0968 36.766C37.9868 36.6267 37.9062 36.4763 37.8548 36.315C37.8035 36.1463 37.7778 35.963 37.7778 35.765C37.7778 35.523 37.8292 35.303 37.9318 35.105C38.0418 34.8997 38.1885 34.7237 38.3718 34.577C38.5625 34.423 38.7825 34.3057 39.0318 34.225C39.2885 34.1443 39.5598 34.104 39.8458 34.104C40.1172 34.104 40.3848 34.1407 40.6488 34.214C40.9202 34.2873 41.1695 34.3937 41.3968 34.533C41.6242 34.6723 41.8148 34.8373 41.9688 35.028L41.3198 35.743C41.1805 35.6037 41.0265 35.4827 40.8578 35.38C40.6965 35.27 40.5315 35.1857 40.3628 35.127C40.1942 35.0683 40.0402 35.039 39.9008 35.039C39.7468 35.039 39.6075 35.0537 39.4828 35.083C39.3582 35.1123 39.2518 35.1563 39.1638 35.215C39.0832 35.2737 39.0208 35.347 38.9768 35.435C38.9328 35.523 38.9108 35.622 38.9108 35.732C38.9182 35.8273 38.9402 35.919 38.9768 36.007C39.0208 36.0877 39.0795 36.1573 39.1528 36.216C39.2335 36.2747 39.3545 36.337 39.5158 36.403C39.6772 36.469 39.8825 36.5313 40.1318 36.59C40.4985 36.6853 40.7992 36.7917 41.0338 36.909C41.2758 37.019 41.4665 37.1473 41.6058 37.294C41.7525 37.4333 41.8552 37.5947 41.9138 37.778C41.9725 37.9613 42.0018 38.1667 42.0018 38.394C42.0018 38.724 41.9065 39.021 41.7158 39.285C41.5325 39.5417 41.2832 39.7433 40.9678 39.89C40.6525 40.0367 40.3005 40.11 39.9118 40.11ZM45.9455 40.11C45.3515 40.11 44.8235 39.9853 44.3615 39.736C43.9068 39.4793 43.5475 39.131 43.2835 38.691C43.0268 38.251 42.8985 37.745 42.8985 37.173C42.8985 36.7183 42.9718 36.304 43.1185 35.93C43.2652 35.556 43.4668 35.2333 43.7235 34.962C43.9875 34.6833 44.2992 34.4707 44.6585 34.324C45.0252 34.17 45.4212 34.093 45.8465 34.093C46.2205 34.093 46.5688 34.1663 46.8915 34.313C47.2142 34.4523 47.4928 34.6467 47.7275 34.896C47.9695 35.1453 48.1528 35.4423 48.2775 35.787C48.4095 36.1243 48.4718 36.4947 48.4645 36.898L48.4535 37.382H43.7345L43.4815 36.48H47.4745L47.3095 36.667V36.403C47.2875 36.161 47.2068 35.9447 47.0675 35.754C46.9282 35.5633 46.7522 35.413 46.5395 35.303C46.3268 35.193 46.0958 35.138 45.8465 35.138C45.4505 35.138 45.1168 35.215 44.8455 35.369C44.5742 35.5157 44.3688 35.7357 44.2295 36.029C44.0902 36.315 44.0205 36.6707 44.0205 37.096C44.0205 37.4993 44.1048 37.8513 44.2735 38.152C44.4422 38.4453 44.6805 38.6727 44.9885 38.834C45.2965 38.9953 45.6522 39.076 46.0555 39.076C46.3415 39.076 46.6055 39.0283 46.8475 38.933C47.0968 38.8377 47.3645 38.6653 47.6505 38.416L48.2225 39.219C48.0465 39.395 47.8302 39.549 47.5735 39.681C47.3242 39.813 47.0565 39.9193 46.7705 40C46.4918 40.0733 46.2168 40.11 45.9455 40.11ZM55.3748 40.11C54.8101 40.11 54.3041 39.9817 53.8568 39.725C53.4168 39.461 53.0685 39.1053 52.8118 38.658C52.5551 38.2033 52.4268 37.6863 52.4268 37.107C52.4268 36.5277 52.5551 36.0143 52.8118 35.567C53.0685 35.1123 53.4168 34.7567 53.8568 34.5C54.3041 34.236 54.8101 34.104 55.3748 34.104C55.9321 34.104 56.4308 34.236 56.8708 34.5C57.3181 34.7567 57.6701 35.1123 57.9268 35.567C58.1835 36.0143 58.3118 36.5277 58.3118 37.107C58.3118 37.6863 58.1835 38.2033 57.9268 38.658C57.6701 39.1053 57.3181 39.461 56.8708 39.725C56.4308 39.9817 55.9321 40.11 55.3748 40.11ZM55.3748 39.076C55.7195 39.076 56.0275 38.9917 56.2988 38.823C56.5701 38.647 56.7828 38.4123 56.9368 38.119C57.0908 37.8183 57.1641 37.481 57.1568 37.107C57.1641 36.7257 57.0908 36.3883 56.9368 36.095C56.7828 35.7943 56.5701 35.5597 56.2988 35.391C56.0275 35.2223 55.7195 35.138 55.3748 35.138C55.0301 35.138 54.7185 35.226 54.4398 35.402C54.1685 35.5707 53.9558 35.8053 53.8018 36.106C53.6478 36.3993 53.5745 36.733 53.5818 37.107C53.5745 37.481 53.6478 37.8183 53.8018 38.119C53.9558 38.4123 54.1685 38.647 54.4398 38.823C54.7185 38.9917 55.0301 39.076 55.3748 39.076ZM59.9586 40V33.576C59.9586 33.246 60.0319 32.9527 60.1786 32.696C60.3252 32.4393 60.5269 32.2377 60.7836 32.091C61.0402 31.9443 61.3372 31.871 61.6746 31.871C61.9092 31.871 62.1292 31.915 62.3346 32.003C62.5399 32.091 62.7049 32.2083 62.8296 32.355L62.4446 33.224C62.3492 33.136 62.2429 33.0663 62.1256 33.015C62.0156 32.9563 61.9092 32.927 61.8066 32.927C61.6526 32.927 61.5206 32.9527 61.4106 33.004C61.3079 33.048 61.2309 33.1213 61.1796 33.224C61.1282 33.3193 61.1026 33.4367 61.1026 33.576V40H60.5306C60.4352 40 60.3399 40 60.2446 40C60.1492 40 60.0539 40 59.9586 40ZM59.0346 35.369V34.324H62.4666V35.369H59.0346ZM67.0189 40V32.3H68.2069V38.856H71.8149V40H67.0189ZM73.5049 40V34.225H74.6379V40H73.5049ZM74.0549 32.949C73.8129 32.949 73.6259 32.8867 73.4939 32.762C73.3619 32.6373 73.2959 32.4613 73.2959 32.234C73.2959 32.0213 73.3619 31.849 73.4939 31.717C73.6332 31.585 73.8202 31.519 74.0549 31.519C74.2969 31.519 74.4839 31.5813 74.6159 31.706C74.7479 31.8307 74.8139 32.0067 74.8139 32.234C74.8139 32.4467 74.7442 32.619 74.6049 32.751C74.4729 32.883 74.2895 32.949 74.0549 32.949ZM76.3574 40V34.225H77.5014V35.457L77.2924 35.589C77.3511 35.3983 77.4427 35.215 77.5674 35.039C77.6994 34.863 77.8571 34.709 78.0404 34.577C78.2311 34.4377 78.4327 34.3277 78.6454 34.247C78.8654 34.1663 79.0891 34.126 79.3164 34.126C79.6464 34.126 79.9361 34.181 80.1854 34.291C80.4347 34.401 80.6401 34.566 80.8014 34.786C80.9627 35.006 81.0801 35.281 81.1534 35.611L80.9774 35.567L81.0544 35.38C81.1351 35.2113 81.2451 35.0537 81.3844 34.907C81.5311 34.753 81.6961 34.6173 81.8794 34.5C82.0627 34.3827 82.2571 34.291 82.4624 34.225C82.6677 34.159 82.8694 34.126 83.0674 34.126C83.5001 34.126 83.8557 34.214 84.1344 34.39C84.4204 34.566 84.6331 34.8337 84.7724 35.193C84.9191 35.5523 84.9924 35.9997 84.9924 36.535V40H83.8484V36.601C83.8484 36.271 83.8044 36.0033 83.7164 35.798C83.6357 35.5853 83.5111 35.4277 83.3424 35.325C83.1737 35.2223 82.9574 35.171 82.6934 35.171C82.4881 35.171 82.2937 35.2077 82.1104 35.281C81.9344 35.347 81.7804 35.4423 81.6484 35.567C81.5164 35.6917 81.4137 35.8383 81.3404 36.007C81.2671 36.1683 81.2304 36.348 81.2304 36.546V40H80.0864V36.579C80.0864 36.2783 80.0424 36.0253 79.9544 35.82C79.8664 35.6073 79.7381 35.446 79.5694 35.336C79.4007 35.226 79.1954 35.171 78.9534 35.171C78.7481 35.171 78.5574 35.2077 78.3814 35.281C78.2054 35.347 78.0514 35.4423 77.9194 35.567C77.7874 35.6843 77.6847 35.8273 77.6114 35.996C77.5381 36.1573 77.5014 36.3333 77.5014 36.524V40H76.3574ZM88.7313 40.11C88.2546 40.11 87.8183 39.978 87.4223 39.714C87.0336 39.45 86.722 39.0907 86.4873 38.636C86.2526 38.1813 86.1353 37.668 86.1353 37.096C86.1353 36.5167 86.2526 36.0033 86.4873 35.556C86.7293 35.1013 87.052 34.7457 87.4553 34.489C87.866 34.2323 88.3243 34.104 88.8303 34.104C89.131 34.104 89.406 34.148 89.6553 34.236C89.9046 34.324 90.121 34.4487 90.3043 34.61C90.495 34.764 90.649 34.9437 90.7663 35.149C90.891 35.3543 90.968 35.5743 90.9973 35.809L90.7443 35.721V34.225H91.8883V40H90.7443V38.625L91.0083 38.548C90.9643 38.746 90.8726 38.9403 90.7333 39.131C90.6013 39.3143 90.429 39.4793 90.2163 39.626C90.011 39.7727 89.78 39.89 89.5233 39.978C89.274 40.066 89.01 40.11 88.7313 40.11ZM89.0283 39.065C89.373 39.065 89.6773 38.9807 89.9413 38.812C90.2053 38.6433 90.4106 38.4123 90.5573 38.119C90.7113 37.8183 90.7883 37.4773 90.7883 37.096C90.7883 36.722 90.7113 36.3883 90.5573 36.095C90.4106 35.8017 90.2053 35.5707 89.9413 35.402C89.6773 35.2333 89.373 35.149 89.0283 35.149C88.691 35.149 88.3903 35.2333 88.1263 35.402C87.8696 35.5707 87.6643 35.8017 87.5103 36.095C87.3636 36.3883 87.2903 36.722 87.2903 37.096C87.2903 37.4773 87.3636 37.8183 87.5103 38.119C87.6643 38.4123 87.8696 38.6433 88.1263 38.812C88.3903 38.9807 88.691 39.065 89.0283 39.065Z" fill="black"/>
<path d="M76 6V13M76 30V13M84 13H76M76 13H68" stroke="#484848" stroke-width="4"/>
</svg>
