<svg width="54" height="43" viewBox="0 0 54 43" fill="none" xmlns="http://www.w3.org/2000/svg">
<path d="M4.22448 11V3.3H7.35948C7.77748 3.3 8.15515 3.40633 8.49248 3.619C8.83715 3.82433 9.11215 4.10667 9.31748 4.466C9.52282 4.82533 9.62548 5.225 9.62548 5.665C9.62548 6.105 9.52282 6.50467 9.31748 6.864C9.11215 7.22333 8.83715 7.513 8.49248 7.733C8.15515 7.94567 7.77748 8.052 7.35948 8.052H5.41248V11H4.22448ZM5.41248 6.908H7.33748C7.53548 6.908 7.71515 6.853 7.87648 6.743C8.03782 6.62567 8.16615 6.47533 8.26148 6.292C8.36415 6.10133 8.41548 5.89233 8.41548 5.665C8.41548 5.43767 8.36415 5.23233 8.26148 5.049C8.16615 4.86567 8.03782 4.719 7.87648 4.609C7.71515 4.499 7.53548 4.444 7.33748 4.444H5.41248V6.908ZM13.0247 11.11C12.5481 11.11 12.1117 10.978 11.7157 10.714C11.3271 10.45 11.0154 10.0907 10.7807 9.636C10.5461 9.18133 10.4287 8.668 10.4287 8.096C10.4287 7.51667 10.5461 7.00333 10.7807 6.556C11.0227 6.10133 11.3454 5.74567 11.7487 5.489C12.1594 5.23233 12.6177 5.104 13.1237 5.104C13.4244 5.104 13.6994 5.148 13.9487 5.236C14.1981 5.324 14.4144 5.44867 14.5977 5.61C14.7884 5.764 14.9424 5.94367 15.0597 6.149C15.1844 6.35433 15.2614 6.57433 15.2907 6.809L15.0377 6.721V5.225H16.1817V11H15.0377V9.625L15.3017 9.548C15.2577 9.746 15.1661 9.94033 15.0267 10.131C14.8947 10.3143 14.7224 10.4793 14.5097 10.626C14.3044 10.7727 14.0734 10.89 13.8167 10.978C13.5674 11.066 13.3034 11.11 13.0247 11.11ZM13.3217 10.065C13.6664 10.065 13.9707 9.98067 14.2347 9.812C14.4987 9.64333 14.7041 9.41233 14.8507 9.119C15.0047 8.81833 15.0817 8.47733 15.0817 8.096C15.0817 7.722 15.0047 7.38833 14.8507 7.095C14.7041 6.80167 14.4987 6.57067 14.2347 6.402C13.9707 6.23333 13.6664 6.149 13.3217 6.149C12.9844 6.149 12.6837 6.23333 12.4197 6.402C12.1631 6.57067 11.9577 6.80167 11.8037 7.095C11.6571 7.38833 11.5837 7.722 11.5837 8.096C11.5837 8.47733 11.6571 8.81833 11.8037 9.119C11.9577 9.41233 12.1631 9.64333 12.4197 9.812C12.6837 9.98067 12.9844 10.065 13.3217 10.065ZM17.7637 11V5.225H18.9077V7.04L18.7977 6.6C18.8783 6.32133 19.014 6.06833 19.2047 5.841C19.4027 5.61367 19.6263 5.434 19.8757 5.302C20.1323 5.17 20.3963 5.104 20.6677 5.104C20.7923 5.104 20.9097 5.115 21.0197 5.137C21.137 5.159 21.2287 5.18467 21.2947 5.214L20.9977 6.446C20.9097 6.40933 20.8107 6.38 20.7007 6.358C20.598 6.32867 20.4953 6.314 20.3927 6.314C20.1947 6.314 20.004 6.35433 19.8207 6.435C19.6447 6.50833 19.487 6.61467 19.3477 6.754C19.2157 6.886 19.1093 7.04367 19.0287 7.227C18.948 7.403 18.9077 7.59733 18.9077 7.81V11H17.7637ZM24.5491 11.11C23.9845 11.11 23.4785 10.9817 23.0311 10.725C22.5911 10.461 22.2428 10.1053 21.9861 9.658C21.7295 9.20333 21.6011 8.68633 21.6011 8.107C21.6011 7.52767 21.7295 7.01433 21.9861 6.567C22.2428 6.11233 22.5911 5.75667 23.0311 5.5C23.4785 5.236 23.9845 5.104 24.5491 5.104C25.1065 5.104 25.6051 5.236 26.0451 5.5C26.4925 5.75667 26.8445 6.11233 27.1011 6.567C27.3578 7.01433 27.4861 7.52767 27.4861 8.107C27.4861 8.68633 27.3578 9.20333 27.1011 9.658C26.8445 10.1053 26.4925 10.461 26.0451 10.725C25.6051 10.9817 25.1065 11.11 24.5491 11.11ZM24.5491 10.076C24.8938 10.076 25.2018 9.99167 25.4731 9.823C25.7445 9.647 25.9571 9.41233 26.1111 9.119C26.2651 8.81833 26.3385 8.481 26.3311 8.107C26.3385 7.72567 26.2651 7.38833 26.1111 7.095C25.9571 6.79433 25.7445 6.55967 25.4731 6.391C25.2018 6.22233 24.8938 6.138 24.5491 6.138C24.2045 6.138 23.8928 6.226 23.6141 6.402C23.3428 6.57067 23.1301 6.80533 22.9761 7.106C22.8221 7.39933 22.7488 7.733 22.7561 8.107C22.7488 8.481 22.8221 8.81833 22.9761 9.119C23.1301 9.41233 23.3428 9.647 23.6141 9.823C23.8928 9.99167 24.2045 10.076 24.5491 10.076ZM29.9249 11L27.9559 5.225L29.0999 5.214L30.5079 9.537L30.2549 9.515L31.7839 6.138H32.4659L34.0059 9.526L33.7089 9.548L35.1279 5.225H36.2719L34.3249 11H33.5439L31.9379 7.326L32.1909 7.359L30.6949 11H29.9249ZM39.3646 11.11C38.8879 11.11 38.4516 10.978 38.0556 10.714C37.6669 10.45 37.3553 10.0907 37.1206 9.636C36.8859 9.18133 36.7686 8.668 36.7686 8.096C36.7686 7.51667 36.8859 7.00333 37.1206 6.556C37.3626 6.10133 37.6853 5.74567 38.0886 5.489C38.4993 5.23233 38.9576 5.104 39.4636 5.104C39.7643 5.104 40.0393 5.148 40.2886 5.236C40.5379 5.324 40.7543 5.44867 40.9376 5.61C41.1283 5.764 41.2823 5.94367 41.3996 6.149C41.5243 6.35433 41.6013 6.57433 41.6306 6.809L41.3776 6.721V5.225H42.5216V11H41.3776V9.625L41.6416 9.548C41.5976 9.746 41.5059 9.94033 41.3666 10.131C41.2346 10.3143 41.0623 10.4793 40.8496 10.626C40.6443 10.7727 40.4133 10.89 40.1566 10.978C39.9073 11.066 39.6433 11.11 39.3646 11.11ZM39.6616 10.065C40.0063 10.065 40.3106 9.98067 40.5746 9.812C40.8386 9.64333 41.0439 9.41233 41.1906 9.119C41.3446 8.81833 41.4216 8.47733 41.4216 8.096C41.4216 7.722 41.3446 7.38833 41.1906 7.095C41.0439 6.80167 40.8386 6.57067 40.5746 6.402C40.3106 6.23333 40.0063 6.149 39.6616 6.149C39.3243 6.149 39.0236 6.23333 38.7596 6.402C38.5029 6.57067 38.2976 6.80167 38.1436 7.095C37.9969 7.38833 37.9236 7.722 37.9236 8.096C37.9236 8.47733 37.9969 8.81833 38.1436 9.119C38.2976 9.41233 38.5029 9.64333 38.7596 9.812C39.0236 9.98067 39.3243 10.065 39.6616 10.065ZM44.1035 11V5.225H45.2365V6.413L45.0385 6.545C45.1119 6.28833 45.2549 6.05367 45.4675 5.841C45.6802 5.621 45.9332 5.445 46.2265 5.313C46.5199 5.17367 46.8205 5.104 47.1285 5.104C47.5685 5.104 47.9352 5.192 48.2285 5.368C48.5219 5.53667 48.7419 5.797 48.8885 6.149C49.0352 6.501 49.1085 6.94467 49.1085 7.48V11H47.9755V7.557C47.9755 7.227 47.9315 6.95567 47.8435 6.743C47.7555 6.523 47.6199 6.36533 47.4365 6.27C47.2532 6.16733 47.0259 6.12333 46.7545 6.138C46.5345 6.138 46.3329 6.17467 46.1495 6.248C45.9662 6.314 45.8049 6.40933 45.6655 6.534C45.5335 6.65867 45.4272 6.80533 45.3465 6.974C45.2732 7.13533 45.2365 7.31133 45.2365 7.502V11H44.6755C44.5802 11 44.4849 11 44.3895 11C44.2942 11 44.1989 11 44.1035 11Z" fill="black"/>
<path d="M27 15V22M27 39V22M35 22H27M27 22H19" stroke="#484848" stroke-width="4"/>
</svg>
