<svg width="79" height="34" viewBox="0 0 79 34" fill="none" xmlns="http://www.w3.org/2000/svg">
<path d="M19.7499 26V18.3H20.9159L23.7209 22.865L23.1599 22.854L25.9979 18.3H27.0979V26H25.9099V22.843C25.9099 22.183 25.9245 21.589 25.9539 21.061C25.9905 20.533 26.0492 20.0087 26.1299 19.488L26.2839 19.895L23.7649 23.789H23.0389L20.5969 19.939L20.7179 19.488C20.7985 19.9793 20.8535 20.4853 20.8829 21.006C20.9195 21.5193 20.9379 22.1317 20.9379 22.843V26H19.7499ZM31.1927 26.11C30.716 26.11 30.2797 25.978 29.8837 25.714C29.495 25.45 29.1834 25.0907 28.9487 24.636C28.714 24.1813 28.5967 23.668 28.5967 23.096C28.5967 22.5167 28.714 22.0033 28.9487 21.556C29.1907 21.1013 29.5134 20.7457 29.9167 20.489C30.3274 20.2323 30.7857 20.104 31.2917 20.104C31.5924 20.104 31.8674 20.148 32.1167 20.236C32.366 20.324 32.5824 20.4487 32.7657 20.61C32.9564 20.764 33.1104 20.9437 33.2277 21.149C33.3524 21.3543 33.4294 21.5743 33.4587 21.809L33.2057 21.721V20.225H34.3497V26H33.2057V24.625L33.4697 24.548C33.4257 24.746 33.334 24.9403 33.1947 25.131C33.0627 25.3143 32.8904 25.4793 32.6777 25.626C32.4724 25.7727 32.2414 25.89 31.9847 25.978C31.7354 26.066 31.4714 26.11 31.1927 26.11ZM31.4897 25.065C31.8344 25.065 32.1387 24.9807 32.4027 24.812C32.6667 24.6433 32.872 24.4123 33.0187 24.119C33.1727 23.8183 33.2497 23.4773 33.2497 23.096C33.2497 22.722 33.1727 22.3883 33.0187 22.095C32.872 21.8017 32.6667 21.5707 32.4027 21.402C32.1387 21.2333 31.8344 21.149 31.4897 21.149C31.1524 21.149 30.8517 21.2333 30.5877 21.402C30.331 21.5707 30.1257 21.8017 29.9717 22.095C29.825 22.3883 29.7517 22.722 29.7517 23.096C29.7517 23.4773 29.825 23.8183 29.9717 24.119C30.1257 24.4123 30.331 24.6433 30.5877 24.812C30.8517 24.9807 31.1524 25.065 31.4897 25.065ZM35.9316 26V20.225H37.0756V22.04L36.9656 21.6C37.0463 21.3213 37.182 21.0683 37.3726 20.841C37.5706 20.6137 37.7943 20.434 38.0436 20.302C38.3003 20.17 38.5643 20.104 38.8356 20.104C38.9603 20.104 39.0776 20.115 39.1876 20.137C39.305 20.159 39.3966 20.1847 39.4626 20.214L39.1656 21.446C39.0776 21.4093 38.9786 21.38 38.8686 21.358C38.766 21.3287 38.6633 21.314 38.5606 21.314C38.3626 21.314 38.172 21.3543 37.9886 21.435C37.8126 21.5083 37.655 21.6147 37.5156 21.754C37.3836 21.886 37.2773 22.0437 37.1966 22.227C37.116 22.403 37.0756 22.5973 37.0756 22.81V26H35.9316ZM41.3362 28.53L42.5022 25.835L42.5132 26.737L39.6312 20.225H40.9512L42.7552 24.471C42.7918 24.5443 42.8358 24.658 42.8872 24.812C42.9385 24.9587 42.9825 25.1053 43.0192 25.252L42.7332 25.318C42.7918 25.164 42.8468 25.01 42.8982 24.856C42.9568 24.702 43.0118 24.548 43.0632 24.394L44.5702 20.225H45.9122L43.5362 26L42.5572 28.53H41.3362ZM48.5774 26.11C48.0934 26.11 47.657 26.0257 47.2684 25.857C46.8797 25.6883 46.557 25.439 46.3004 25.109L47.0704 24.449C47.2904 24.7057 47.5287 24.8927 47.7854 25.01C48.0494 25.12 48.3464 25.175 48.6764 25.175C48.8084 25.175 48.9294 25.1603 49.0394 25.131C49.1567 25.0943 49.2557 25.043 49.3364 24.977C49.4244 24.911 49.4904 24.834 49.5344 24.746C49.5784 24.6507 49.6004 24.548 49.6004 24.438C49.6004 24.2473 49.5307 24.0933 49.3914 23.976C49.318 23.9247 49.2007 23.8697 49.0394 23.811C48.8854 23.745 48.6837 23.679 48.4344 23.613C48.009 23.503 47.6607 23.3783 47.3894 23.239C47.118 23.0997 46.909 22.942 46.7624 22.766C46.6524 22.6267 46.5717 22.4763 46.5204 22.315C46.469 22.1463 46.4434 21.963 46.4434 21.765C46.4434 21.523 46.4947 21.303 46.5974 21.105C46.7074 20.8997 46.854 20.7237 47.0374 20.577C47.228 20.423 47.448 20.3057 47.6974 20.225C47.954 20.1443 48.2254 20.104 48.5114 20.104C48.7827 20.104 49.0504 20.1407 49.3144 20.214C49.5857 20.2873 49.835 20.3937 50.0624 20.533C50.2897 20.6723 50.4804 20.8373 50.6344 21.028L49.9854 21.743C49.846 21.6037 49.692 21.4827 49.5234 21.38C49.362 21.27 49.197 21.1857 49.0284 21.127C48.8597 21.0683 48.7057 21.039 48.5664 21.039C48.4124 21.039 48.273 21.0537 48.1484 21.083C48.0237 21.1123 47.9174 21.1563 47.8294 21.215C47.7487 21.2737 47.6864 21.347 47.6424 21.435C47.5984 21.523 47.5764 21.622 47.5764 21.732C47.5837 21.8273 47.6057 21.919 47.6424 22.007C47.6864 22.0877 47.745 22.1573 47.8184 22.216C47.899 22.2747 48.02 22.337 48.1814 22.403C48.3427 22.469 48.548 22.5313 48.7974 22.59C49.164 22.6853 49.4647 22.7917 49.6994 22.909C49.9414 23.019 50.132 23.1473 50.2714 23.294C50.418 23.4333 50.5207 23.5947 50.5794 23.778C50.638 23.9613 50.6674 24.1667 50.6674 24.394C50.6674 24.724 50.572 25.021 50.3814 25.285C50.198 25.5417 49.9487 25.7433 49.6334 25.89C49.318 26.0367 48.966 26.11 48.5774 26.11ZM53.808 26L51.366 20.225H52.587L54.347 24.548L54.138 24.647L56.019 20.225H57.185L54.622 26H53.808ZM60.2826 26.11C59.8059 26.11 59.3696 25.978 58.9736 25.714C58.5849 25.45 58.2732 25.0907 58.0386 24.636C57.8039 24.1813 57.6866 23.668 57.6866 23.096C57.6866 22.5167 57.8039 22.0033 58.0386 21.556C58.2806 21.1013 58.6032 20.7457 59.0066 20.489C59.4172 20.2323 59.8756 20.104 60.3816 20.104C60.6822 20.104 60.9572 20.148 61.2066 20.236C61.4559 20.324 61.6722 20.4487 61.8556 20.61C62.0462 20.764 62.2002 20.9437 62.3176 21.149C62.4422 21.3543 62.5192 21.5743 62.5486 21.809L62.2956 21.721V20.225H63.4396V26H62.2956V24.625L62.5596 24.548C62.5156 24.746 62.4239 24.9403 62.2846 25.131C62.1526 25.3143 61.9802 25.4793 61.7676 25.626C61.5622 25.7727 61.3312 25.89 61.0746 25.978C60.8252 26.066 60.5612 26.11 60.2826 26.11ZM60.5796 25.065C60.9242 25.065 61.2286 24.9807 61.4926 24.812C61.7566 24.6433 61.9619 24.4123 62.1086 24.119C62.2626 23.8183 62.3396 23.4773 62.3396 23.096C62.3396 22.722 62.2626 22.3883 62.1086 22.095C61.9619 21.8017 61.7566 21.5707 61.4926 21.402C61.2286 21.2333 60.9242 21.149 60.5796 21.149C60.2422 21.149 59.9416 21.2333 59.6776 21.402C59.4209 21.5707 59.2156 21.8017 59.0616 22.095C58.9149 22.3883 58.8416 22.722 58.8416 23.096C58.8416 23.4773 58.9149 23.8183 59.0616 24.119C59.2156 24.4123 59.4209 24.6433 59.6776 24.812C59.9416 24.9807 60.2422 25.065 60.5796 25.065ZM65.0435 26V17.86H66.1765V26H65.0435ZM70.3698 26.11C69.7758 26.11 69.2478 25.9853 68.7858 25.736C68.3311 25.4793 67.9718 25.131 67.7078 24.691C67.4511 24.251 67.3228 23.745 67.3228 23.173C67.3228 22.7183 67.3961 22.304 67.5428 21.93C67.6895 21.556 67.8911 21.2333 68.1478 20.962C68.4118 20.6833 68.7235 20.4707 69.0828 20.324C69.4495 20.17 69.8455 20.093 70.2708 20.093C70.6448 20.093 70.9931 20.1663 71.3158 20.313C71.6385 20.4523 71.9171 20.6467 72.1518 20.896C72.3938 21.1453 72.5771 21.4423 72.7018 21.787C72.8338 22.1243 72.8961 22.4947 72.8888 22.898L72.8778 23.382H68.1588L67.9058 22.48H71.8988L71.7338 22.667V22.403C71.7118 22.161 71.6311 21.9447 71.4918 21.754C71.3525 21.5633 71.1765 21.413 70.9638 21.303C70.7511 21.193 70.5201 21.138 70.2708 21.138C69.8748 21.138 69.5411 21.215 69.2698 21.369C68.9985 21.5157 68.7931 21.7357 68.6538 22.029C68.5145 22.315 68.4448 22.6707 68.4448 23.096C68.4448 23.4993 68.5291 23.8513 68.6978 24.152C68.8665 24.4453 69.1048 24.6727 69.4128 24.834C69.7208 24.9953 70.0765 25.076 70.4798 25.076C70.7658 25.076 71.0298 25.0283 71.2718 24.933C71.5211 24.8377 71.7888 24.6653 72.0748 24.416L72.6468 25.219C72.4708 25.395 72.2545 25.549 71.9978 25.681C71.7485 25.813 71.4808 25.9193 71.1948 26C70.9161 26.0733 70.6411 26.11 70.3698 26.11Z" fill="black"/>
<path d="M11 6V13M11 30V13M19 13H11M11 13H3" stroke="#484848" stroke-width="4"/>
</svg>
