<svg width="70" height="75" viewBox="0 0 70 75" fill="none" xmlns="http://www.w3.org/2000/svg">
<path d="M0.127658 45.7722L25.2136 1.0111C25.3905 0.695462 25.7241 0.5 26.0859 0.5H43.918C44.2778 0.5 44.6098 0.69322 44.7875 1.00599L69.3695 44.2702C69.455 44.4208 69.5 44.5911 69.5 44.7643V55.7145C69.5 55.9011 69.4478 56.084 69.3493 56.2425L58.2934 74.0279C58.111 74.3215 57.7898 74.5 57.4442 74.5H8.43207C8.15634 74.5 7.89285 74.3862 7.70387 74.1854L0.2718 66.2888C0.0972138 66.1033 0 65.8582 0 65.6034V46.2611C0 46.0899 0.0439561 45.9216 0.127658 45.7722Z" fill="#FF0000" fill-opacity="0.31"/>
<path d="M22.7258 40L25.7728 32.3H27.3568L30.3818 40H28.4898L27.0378 36.095C26.9791 35.941 26.9205 35.776 26.8618 35.6C26.8031 35.424 26.7445 35.2443 26.6858 35.061C26.6271 34.8703 26.5685 34.687 26.5098 34.511C26.4585 34.3277 26.4145 34.159 26.3778 34.005L26.7078 33.994C26.6638 34.1773 26.6125 34.357 26.5538 34.533C26.5025 34.709 26.4475 34.885 26.3888 35.061C26.3375 35.2297 26.2788 35.402 26.2128 35.578C26.1468 35.7467 26.0845 35.9227 26.0258 36.106L24.5738 40H22.7258ZM24.1778 38.526L24.7608 37.118H28.3028L28.8748 38.526H24.1778ZM31.1665 40V31.86H32.9265V40H31.1665ZM34.9481 40V32.685H36.7081V40H34.9481ZM33.9141 35.699V34.159H37.8411V35.699H33.9141ZM40.9492 40.099C40.4579 40.099 40.0179 39.9707 39.6292 39.714C39.2479 39.45 38.9435 39.0907 38.7162 38.636C38.4889 38.174 38.3752 37.6533 38.3752 37.074C38.3752 36.48 38.4889 35.9557 38.7162 35.501C38.9435 35.0463 39.2552 34.6907 39.6512 34.434C40.0472 34.17 40.4982 34.038 41.0042 34.038C41.2829 34.038 41.5359 34.0783 41.7632 34.159C41.9979 34.2397 42.2032 34.3533 42.3792 34.5C42.5552 34.6393 42.7055 34.8043 42.8302 34.995C42.9549 35.1783 43.0465 35.3763 43.1052 35.589L42.7422 35.545V34.159H44.4912V40H42.7092V38.592L43.1052 38.581C43.0465 38.7863 42.9512 38.9807 42.8192 39.164C42.6872 39.3473 42.5259 39.5087 42.3352 39.648C42.1445 39.7873 41.9319 39.8973 41.6972 39.978C41.4625 40.0587 41.2132 40.099 40.9492 40.099ZM41.4332 38.614C41.7045 38.614 41.9392 38.5517 42.1372 38.427C42.3352 38.3023 42.4892 38.1263 42.5992 37.899C42.7092 37.6643 42.7642 37.3893 42.7642 37.074C42.7642 36.7587 42.7092 36.4873 42.5992 36.26C42.4892 36.0253 42.3352 35.8457 42.1372 35.721C41.9392 35.589 41.7045 35.523 41.4332 35.523C41.1692 35.523 40.9382 35.589 40.7402 35.721C40.5495 35.8457 40.3992 36.0253 40.2892 36.26C40.1792 36.4873 40.1242 36.7587 40.1242 37.074C40.1242 37.3893 40.1792 37.6643 40.2892 37.899C40.3992 38.1263 40.5495 38.3023 40.7402 38.427C40.9382 38.5517 41.1692 38.614 41.4332 38.614ZM6.58469 54.11C6.04202 54.11 5.53969 54.011 5.07769 53.813C4.62302 53.615 4.22336 53.34 3.87869 52.988C3.54136 52.6287 3.27736 52.2107 3.08669 51.734C2.90336 51.25 2.81169 50.722 2.81169 50.15C2.81169 49.578 2.90336 49.0537 3.08669 48.577C3.27736 48.093 3.54136 47.675 3.87869 47.323C4.22336 46.9637 4.62302 46.685 5.07769 46.487C5.53969 46.289 6.04202 46.19 6.58469 46.19C7.12736 46.19 7.62603 46.289 8.08069 46.487C8.54269 46.685 8.94236 46.9637 9.27969 47.323C9.62436 47.6823 9.88836 48.104 10.0717 48.588C10.2624 49.0647 10.3577 49.5853 10.3577 50.15C10.3577 50.7147 10.2624 51.239 10.0717 51.723C9.88836 52.1997 9.62436 52.6177 9.27969 52.977C8.94236 53.3363 8.54269 53.615 8.08069 53.813C7.62603 54.011 7.12736 54.11 6.58469 54.11ZM6.58469 52.955C6.95869 52.955 7.29969 52.8853 7.60769 52.746C7.92302 52.6067 8.19436 52.4123 8.42169 52.163C8.64903 51.9063 8.82503 51.6093 8.94969 51.272C9.08169 50.9273 9.14769 50.5533 9.14769 50.15C9.14769 49.7467 9.08169 49.3763 8.94969 49.039C8.82503 48.6943 8.64903 48.3973 8.42169 48.148C8.19436 47.8913 7.92302 47.6933 7.60769 47.554C7.29969 47.4147 6.95869 47.345 6.58469 47.345C6.21069 47.345 5.86602 47.4147 5.55069 47.554C5.24269 47.6933 4.97136 47.8877 4.73669 48.137C4.50936 48.3863 4.33336 48.6833 4.20869 49.028C4.08402 49.3653 4.02169 49.7393 4.02169 50.15C4.02169 50.5533 4.08402 50.9273 4.20869 51.272C4.33336 51.6167 4.50936 51.9137 4.73669 52.163C4.97136 52.4123 5.24269 52.6067 5.55069 52.746C5.86602 52.8853 6.21069 52.955 6.58469 52.955ZM13.7042 54.11C13.2935 54.11 12.9342 54.0147 12.6262 53.824C12.3255 53.6333 12.0909 53.3657 11.9222 53.021C11.7609 52.6763 11.6802 52.2657 11.6802 51.789V48.225H12.8132V51.481C12.8132 51.8183 12.8645 52.1117 12.9672 52.361C13.0772 52.603 13.2312 52.79 13.4292 52.922C13.6345 53.054 13.8802 53.12 14.1662 53.12C14.3789 53.12 14.5732 53.087 14.7492 53.021C14.9252 52.9477 15.0755 52.8487 15.2002 52.724C15.3322 52.5993 15.4349 52.449 15.5082 52.273C15.5815 52.097 15.6182 51.9063 15.6182 51.701V48.225H16.7512V54H15.6182V52.79L15.8162 52.658C15.7282 52.9293 15.5779 53.175 15.3652 53.395C15.1599 53.615 14.9142 53.791 14.6282 53.923C14.3422 54.0477 14.0342 54.11 13.7042 54.11ZM18.3403 54V48.225H19.4843V50.04L19.3743 49.6C19.455 49.3213 19.5907 49.0683 19.7813 48.841C19.9793 48.6137 20.203 48.434 20.4523 48.302C20.709 48.17 20.973 48.104 21.2443 48.104C21.369 48.104 21.4863 48.115 21.5963 48.137C21.7137 48.159 21.8053 48.1847 21.8713 48.214L21.5743 49.446C21.4863 49.4093 21.3873 49.38 21.2773 49.358C21.1747 49.3287 21.072 49.314 20.9693 49.314C20.7713 49.314 20.5807 49.3543 20.3973 49.435C20.2213 49.5083 20.0637 49.6147 19.9243 49.754C19.7923 49.886 19.686 50.0437 19.6053 50.227C19.5247 50.403 19.4843 50.5973 19.4843 50.81V54H18.3403ZM26.1459 54V46.3H27.3339V52.856H30.9419V54H26.1459ZM34.452 54.11C33.9753 54.11 33.539 53.978 33.143 53.714C32.7543 53.45 32.4427 53.0907 32.208 52.636C31.9733 52.1813 31.856 51.668 31.856 51.096C31.856 50.5167 31.9733 50.0033 32.208 49.556C32.45 49.1013 32.7727 48.7457 33.176 48.489C33.5867 48.2323 34.045 48.104 34.551 48.104C34.8517 48.104 35.1267 48.148 35.376 48.236C35.6253 48.324 35.8417 48.4487 36.025 48.61C36.2157 48.764 36.3697 48.9437 36.487 49.149C36.6117 49.3543 36.6887 49.5743 36.718 49.809L36.465 49.721V48.225H37.609V54H36.465V52.625L36.729 52.548C36.685 52.746 36.5933 52.9403 36.454 53.131C36.322 53.3143 36.1497 53.4793 35.937 53.626C35.7317 53.7727 35.5007 53.89 35.244 53.978C34.9947 54.066 34.7307 54.11 34.452 54.11ZM34.749 53.065C35.0937 53.065 35.398 52.9807 35.662 52.812C35.926 52.6433 36.1313 52.4123 36.278 52.119C36.432 51.8183 36.509 51.4773 36.509 51.096C36.509 50.722 36.432 50.3883 36.278 50.095C36.1313 49.8017 35.926 49.5707 35.662 49.402C35.398 49.2333 35.0937 49.149 34.749 49.149C34.4117 49.149 34.111 49.2333 33.847 49.402C33.5903 49.5707 33.385 49.8017 33.231 50.095C33.0843 50.3883 33.011 50.722 33.011 51.096C33.011 51.4773 33.0843 51.8183 33.231 52.119C33.385 52.4123 33.5903 52.6433 33.847 52.812C34.111 52.9807 34.4117 53.065 34.749 53.065ZM41.5999 54.11C41.0719 54.11 40.5989 53.9817 40.1809 53.725C39.7703 53.461 39.4439 53.1053 39.2019 52.658C38.9599 52.2033 38.8389 51.6863 38.8389 51.107C38.8389 50.5277 38.9563 50.0143 39.1909 49.567C39.4329 49.1123 39.7593 48.7567 40.1699 48.5C40.5806 48.236 41.0463 48.104 41.5669 48.104C41.8529 48.104 42.1279 48.1517 42.3919 48.247C42.6633 48.335 42.9053 48.4597 43.1179 48.621C43.3306 48.775 43.4956 48.9473 43.6129 49.138C43.7376 49.3213 43.7999 49.5083 43.7999 49.699L43.4699 49.721V45.86H44.6029V54H43.4699V52.625H43.6899C43.6899 52.801 43.6313 52.977 43.5139 53.153C43.3966 53.3217 43.2389 53.4793 43.0409 53.626C42.8503 53.7727 42.6266 53.89 42.3699 53.978C42.1206 54.066 41.8639 54.11 41.5999 54.11ZM41.7539 53.131C42.0986 53.131 42.4029 53.043 42.6669 52.867C42.9309 52.691 43.1363 52.4527 43.2829 52.152C43.4369 51.844 43.5139 51.4957 43.5139 51.107C43.5139 50.7183 43.4369 50.3737 43.2829 50.073C43.1363 49.765 42.9309 49.523 42.6669 49.347C42.4029 49.171 42.0986 49.083 41.7539 49.083C41.4093 49.083 41.1049 49.171 40.8409 49.347C40.5769 49.523 40.3679 49.765 40.2139 50.073C40.0673 50.3737 39.9939 50.7183 39.9939 51.107C39.9939 51.4957 40.0673 51.844 40.2139 52.152C40.3679 52.4527 40.5769 52.691 40.8409 52.867C41.1049 53.043 41.4093 53.131 41.7539 53.131ZM47.1306 56.53L48.2966 53.835L48.3076 54.737L45.4256 48.225H46.7456L48.5496 52.471C48.5863 52.5443 48.6303 52.658 48.6816 52.812C48.7329 52.9587 48.7769 53.1053 48.8136 53.252L48.5276 53.318C48.5863 53.164 48.6413 53.01 48.6926 52.856C48.7513 52.702 48.8063 52.548 48.8576 52.394L50.3646 48.225H51.7066L49.3306 54L48.3516 56.53H47.1306ZM58.2332 54.11C57.6685 54.11 57.1625 53.9817 56.7152 53.725C56.2752 53.461 55.9269 53.1053 55.6702 52.658C55.4135 52.2033 55.2852 51.6863 55.2852 51.107C55.2852 50.5277 55.4135 50.0143 55.6702 49.567C55.9269 49.1123 56.2752 48.7567 56.7152 48.5C57.1625 48.236 57.6685 48.104 58.2332 48.104C58.7905 48.104 59.2892 48.236 59.7292 48.5C60.1765 48.7567 60.5285 49.1123 60.7852 49.567C61.0419 50.0143 61.1702 50.5277 61.1702 51.107C61.1702 51.6863 61.0419 52.2033 60.7852 52.658C60.5285 53.1053 60.1765 53.461 59.7292 53.725C59.2892 53.9817 58.7905 54.11 58.2332 54.11ZM58.2332 53.076C58.5779 53.076 58.8859 52.9917 59.1572 52.823C59.4285 52.647 59.6412 52.4123 59.7952 52.119C59.9492 51.8183 60.0225 51.481 60.0152 51.107C60.0225 50.7257 59.9492 50.3883 59.7952 50.095C59.6412 49.7943 59.4285 49.5597 59.1572 49.391C58.8859 49.2223 58.5779 49.138 58.2332 49.138C57.8885 49.138 57.5769 49.226 57.2982 49.402C57.0269 49.5707 56.8142 49.8053 56.6602 50.106C56.5062 50.3993 56.4329 50.733 56.4402 51.107C56.4329 51.481 56.5062 51.8183 56.6602 52.119C56.8142 52.4123 57.0269 52.647 57.2982 52.823C57.5769 52.9917 57.8885 53.076 58.2332 53.076ZM62.8169 54V47.576C62.8169 47.246 62.8903 46.9527 63.0369 46.696C63.1836 46.4393 63.3853 46.2377 63.6419 46.091C63.8986 45.9443 64.1956 45.871 64.5329 45.871C64.7676 45.871 64.9876 45.915 65.1929 46.003C65.3983 46.091 65.5633 46.2083 65.6879 46.355L65.3029 47.224C65.2076 47.136 65.1013 47.0663 64.9839 47.015C64.8739 46.9563 64.7676 46.927 64.6649 46.927C64.5109 46.927 64.3789 46.9527 64.2689 47.004C64.1663 47.048 64.0893 47.1213 64.0379 47.224C63.9866 47.3193 63.9609 47.4367 63.9609 47.576V54H63.3889C63.2936 54 63.1983 54 63.1029 54C63.0076 54 62.9123 54 62.8169 54ZM61.8929 49.369V48.324H65.3249V49.369H61.8929ZM10.9826 68V60.751H12.1156V68H10.9826ZM9.78359 63.325V62.225H13.4576V63.325H9.78359ZM14.4893 68V59.86H15.6223V63.413L15.4243 63.545C15.4976 63.2883 15.6406 63.0537 15.8533 62.841C16.0659 62.621 16.3189 62.445 16.6123 62.313C16.9056 62.1737 17.2063 62.104 17.5143 62.104C17.9543 62.104 18.3209 62.192 18.6143 62.368C18.9076 62.5367 19.1276 62.797 19.2743 63.149C19.4209 63.501 19.4943 63.9447 19.4943 64.48V68H18.3613V64.557C18.3613 64.227 18.3173 63.9557 18.2293 63.743C18.1413 63.523 18.0056 63.3653 17.8223 63.27C17.6389 63.1673 17.4116 63.1233 17.1403 63.138C16.9203 63.138 16.7186 63.1747 16.5353 63.248C16.3519 63.314 16.1906 63.4093 16.0513 63.534C15.9193 63.6587 15.8129 63.8053 15.7323 63.974C15.6589 64.1353 15.6223 64.3113 15.6223 64.502V68H15.0613C14.9659 68 14.8706 68 14.7753 68C14.6799 68 14.5846 68 14.4893 68ZM23.7263 68.11C23.1323 68.11 22.6043 67.9853 22.1423 67.736C21.6876 67.4793 21.3283 67.131 21.0643 66.691C20.8076 66.251 20.6793 65.745 20.6793 65.173C20.6793 64.7183 20.7526 64.304 20.8993 63.93C21.0459 63.556 21.2476 63.2333 21.5043 62.962C21.7683 62.6833 22.0799 62.4707 22.4393 62.324C22.8059 62.17 23.2019 62.093 23.6273 62.093C24.0013 62.093 24.3496 62.1663 24.6723 62.313C24.9949 62.4523 25.2736 62.6467 25.5083 62.896C25.7503 63.1453 25.9336 63.4423 26.0583 63.787C26.1903 64.1243 26.2526 64.4947 26.2453 64.898L26.2343 65.382H21.5153L21.2623 64.48H25.2553L25.0903 64.667V64.403C25.0683 64.161 24.9876 63.9447 24.8483 63.754C24.7089 63.5633 24.5329 63.413 24.3203 63.303C24.1076 63.193 23.8766 63.138 23.6273 63.138C23.2313 63.138 22.8976 63.215 22.6263 63.369C22.3549 63.5157 22.1496 63.7357 22.0103 64.029C21.8709 64.315 21.8013 64.6707 21.8013 65.096C21.8013 65.4993 21.8856 65.8513 22.0543 66.152C22.2229 66.4453 22.4613 66.6727 22.7693 66.834C23.0773 66.9953 23.4329 67.076 23.8363 67.076C24.1223 67.076 24.3863 67.0283 24.6283 66.933C24.8776 66.8377 25.1453 66.6653 25.4313 66.416L26.0033 67.219C25.8273 67.395 25.6109 67.549 25.3543 67.681C25.1049 67.813 24.8373 67.9193 24.5513 68C24.2726 68.0733 23.9976 68.11 23.7263 68.11ZM33.2216 68.11C32.8036 68.11 32.4149 68.055 32.0556 67.945C31.7036 67.835 31.3809 67.67 31.0876 67.45C30.8016 67.2227 30.5449 66.944 30.3176 66.614L31.1316 65.679C31.4909 66.1923 31.8356 66.548 32.1656 66.746C32.4956 66.944 32.8879 67.043 33.3426 67.043C33.6212 67.043 33.8742 66.999 34.1016 66.911C34.3289 66.823 34.5086 66.702 34.6406 66.548C34.7726 66.394 34.8386 66.218 34.8386 66.02C34.8386 65.888 34.8166 65.7633 34.7726 65.646C34.7286 65.5287 34.6589 65.4223 34.5636 65.327C34.4756 65.2317 34.3582 65.1437 34.2116 65.063C34.0722 64.9823 33.9072 64.9127 33.7166 64.854C33.5259 64.788 33.3059 64.733 33.0566 64.689C32.6606 64.6083 32.3159 64.502 32.0226 64.37C31.7292 64.238 31.4836 64.073 31.2856 63.875C31.0876 63.677 30.9409 63.4533 30.8456 63.204C30.7502 62.9473 30.7026 62.6613 30.7026 62.346C30.7026 62.038 30.7686 61.752 30.9006 61.488C31.0399 61.224 31.2269 60.9967 31.4616 60.806C31.7036 60.608 31.9859 60.4577 32.3086 60.355C32.6312 60.245 32.9796 60.19 33.3536 60.19C33.7496 60.19 34.1126 60.2413 34.4426 60.344C34.7726 60.4467 35.0659 60.6007 35.3226 60.806C35.5792 61.004 35.7919 61.2497 35.9606 61.543L35.1246 62.368C34.9779 62.126 34.8129 61.9243 34.6296 61.763C34.4462 61.5943 34.2446 61.4697 34.0246 61.389C33.8046 61.301 33.5699 61.257 33.3206 61.257C33.0346 61.257 32.7852 61.301 32.5726 61.389C32.3599 61.477 32.1912 61.6017 32.0666 61.763C31.9492 61.917 31.8906 62.1003 31.8906 62.313C31.8906 62.467 31.9199 62.61 31.9786 62.742C32.0372 62.8667 32.1252 62.9803 32.2426 63.083C32.3672 63.1783 32.5322 63.2663 32.7376 63.347C32.9429 63.4203 33.1886 63.4863 33.4746 63.545C33.8779 63.633 34.2372 63.7467 34.5526 63.886C34.8679 64.018 35.1356 64.1757 35.3556 64.359C35.5756 64.5423 35.7406 64.7477 35.8506 64.975C35.9679 65.2023 36.0266 65.448 36.0266 65.712C36.0266 66.2033 35.9129 66.6287 35.6856 66.988C35.4582 67.3473 35.1356 67.626 34.7176 67.824C34.2996 68.0147 33.8009 68.11 33.2216 68.11ZM37.4238 68V62.225H38.5568V63.413L38.3588 63.545C38.4322 63.2883 38.5752 63.0537 38.7878 62.841C39.0005 62.621 39.2535 62.445 39.5468 62.313C39.8402 62.1737 40.1408 62.104 40.4488 62.104C40.8888 62.104 41.2555 62.192 41.5488 62.368C41.8422 62.5367 42.0622 62.797 42.2088 63.149C42.3555 63.501 42.4288 63.9447 42.4288 64.48V68H41.2958V64.557C41.2958 64.227 41.2518 63.9557 41.1638 63.743C41.0758 63.523 40.9402 63.3653 40.7568 63.27C40.5735 63.1673 40.3462 63.1233 40.0748 63.138C39.8548 63.138 39.6532 63.1747 39.4698 63.248C39.2865 63.314 39.1252 63.4093 38.9858 63.534C38.8538 63.6587 38.7475 63.8053 38.6668 63.974C38.5935 64.1353 38.5568 64.3113 38.5568 64.502V68H37.9958C37.9005 68 37.8052 68 37.7098 68C37.6145 68 37.5192 68 37.4238 68ZM46.5618 68.11C45.9972 68.11 45.4912 67.9817 45.0438 67.725C44.6038 67.461 44.2555 67.1053 43.9988 66.658C43.7422 66.2033 43.6138 65.6863 43.6138 65.107C43.6138 64.5277 43.7422 64.0143 43.9988 63.567C44.2555 63.1123 44.6038 62.7567 45.0438 62.5C45.4912 62.236 45.9972 62.104 46.5618 62.104C47.1192 62.104 47.6178 62.236 48.0578 62.5C48.5052 62.7567 48.8572 63.1123 49.1138 63.567C49.3705 64.0143 49.4988 64.5277 49.4988 65.107C49.4988 65.6863 49.3705 66.2033 49.1138 66.658C48.8572 67.1053 48.5052 67.461 48.0578 67.725C47.6178 67.9817 47.1192 68.11 46.5618 68.11ZM46.5618 67.076C46.9065 67.076 47.2145 66.9917 47.4858 66.823C47.7572 66.647 47.9698 66.4123 48.1238 66.119C48.2778 65.8183 48.3512 65.481 48.3438 65.107C48.3512 64.7257 48.2778 64.3883 48.1238 64.095C47.9698 63.7943 47.7572 63.5597 47.4858 63.391C47.2145 63.2223 46.9065 63.138 46.5618 63.138C46.2172 63.138 45.9055 63.226 45.6268 63.402C45.3555 63.5707 45.1428 63.8053 44.9888 64.106C44.8348 64.3993 44.7615 64.733 44.7688 65.107C44.7615 65.481 44.8348 65.8183 44.9888 66.119C45.1428 66.4123 45.3555 66.647 45.6268 66.823C45.9055 66.9917 46.2172 67.076 46.5618 67.076ZM51.9376 68L49.9686 62.225L51.1126 62.214L52.5206 66.537L52.2676 66.515L53.7966 63.138H54.4786L56.0186 66.526L55.7216 66.548L57.1406 62.225H58.2846L56.3376 68H55.5566L53.9506 64.326L54.2036 64.359L52.7076 68H51.9376Z" fill="black"/>
<path d="M36.5 4.5V11.5M36.5 28.5V11.5M44.5 11.5H36.5M36.5 11.5H28.5" stroke="#484848" stroke-width="4"/>
</svg>
