<svg width="64" height="56" viewBox="0 0 64 56" fill="none" xmlns="http://www.w3.org/2000/svg">
<path d="M6.54271 37V29.3H9.76571C10.3304 29.3 10.8474 29.3953 11.3167 29.586C11.786 29.7693 12.1894 30.0333 12.5267 30.378C12.8714 30.7227 13.1354 31.1297 13.3187 31.599C13.502 32.0683 13.5937 32.5853 13.5937 33.15C13.5937 33.7147 13.502 34.2353 13.3187 34.712C13.1354 35.1813 12.8714 35.5883 12.5267 35.933C12.1894 36.2703 11.786 36.5343 11.3167 36.725C10.8474 36.9083 10.3304 37 9.76571 37H6.54271ZM8.41271 35.724L8.15971 35.35H9.71071C10.0187 35.35 10.2937 35.2987 10.5357 35.196C10.7777 35.086 10.983 34.9357 11.1517 34.745C11.3277 34.5543 11.4634 34.3233 11.5587 34.052C11.654 33.7807 11.7017 33.48 11.7017 33.15C11.7017 32.82 11.654 32.5193 11.5587 32.248C11.4634 31.9767 11.3277 31.7457 11.1517 31.555C10.983 31.3643 10.7777 31.2177 10.5357 31.115C10.2937 31.005 10.0187 30.95 9.71071 30.95H8.12671L8.41271 30.598V35.724ZM16.8438 37.121C16.4111 37.121 16.0408 37.0293 15.7328 36.846C15.4321 36.6553 15.1974 36.384 15.0288 36.032C14.8674 35.68 14.7868 35.2583 14.7868 34.767V31.159H16.5578V34.525C16.5578 34.7597 16.5944 34.9613 16.6678 35.13C16.7411 35.2987 16.8511 35.4307 16.9978 35.526C17.1444 35.614 17.3204 35.658 17.5258 35.658C17.6798 35.658 17.8191 35.6323 17.9438 35.581C18.0758 35.5297 18.1858 35.46 18.2738 35.372C18.3691 35.2767 18.4424 35.1703 18.4938 35.053C18.5451 34.9283 18.5708 34.7927 18.5708 34.646V31.159H20.3418V37H18.6808L18.6038 35.801L18.9338 35.669C18.8458 35.9477 18.6991 36.197 18.4938 36.417C18.2884 36.6297 18.0428 36.802 17.7568 36.934C17.4708 37.0587 17.1664 37.121 16.8438 37.121ZM24.4734 37.11C23.9087 37.11 23.4027 36.978 22.9554 36.714C22.5081 36.45 22.1524 36.0907 21.8884 35.636C21.6317 35.174 21.5034 34.6533 21.5034 34.074C21.5034 33.4947 21.6317 32.9777 21.8884 32.523C22.1524 32.061 22.5081 31.698 22.9554 31.434C23.4027 31.17 23.9087 31.038 24.4734 31.038C24.9941 31.038 25.4707 31.1297 25.9034 31.313C26.3434 31.4963 26.6917 31.753 26.9484 32.083L25.9914 33.227C25.8887 33.1097 25.7677 32.9997 25.6284 32.897C25.4891 32.7943 25.3351 32.7137 25.1664 32.655C24.9977 32.5963 24.8217 32.567 24.6384 32.567C24.3597 32.567 24.1141 32.633 23.9014 32.765C23.6887 32.8897 23.5237 33.0657 23.4064 33.293C23.2891 33.5203 23.2304 33.7807 23.2304 34.074C23.2304 34.3527 23.2891 34.6057 23.4064 34.833C23.5311 35.0603 23.6997 35.24 23.9124 35.372C24.1251 35.504 24.3671 35.57 24.6384 35.57C24.8291 35.57 25.0051 35.548 25.1664 35.504C25.3277 35.4527 25.4744 35.3793 25.6064 35.284C25.7457 35.1887 25.8741 35.0713 25.9914 34.932L26.9374 36.087C26.6881 36.4023 26.3397 36.6517 25.8924 36.835C25.4524 37.0183 24.9794 37.11 24.4734 37.11ZM27.9045 37V28.86H29.6315V32.347L29.2795 32.479C29.3602 32.215 29.5032 31.9767 29.7085 31.764C29.9212 31.544 30.1742 31.368 30.4675 31.236C30.7609 31.104 31.0689 31.038 31.3915 31.038C31.8315 31.038 32.2019 31.1297 32.5025 31.313C32.8032 31.489 33.0305 31.7567 33.1845 32.116C33.3385 32.468 33.4155 32.9007 33.4155 33.414V37H31.6445V33.557C31.6445 33.3223 31.6115 33.128 31.5455 32.974C31.4795 32.82 31.3769 32.7063 31.2375 32.633C31.1055 32.5523 30.9405 32.5157 30.7425 32.523C30.5885 32.523 30.4455 32.5487 30.3135 32.6C30.1815 32.644 30.0679 32.7137 29.9725 32.809C29.8772 32.897 29.8002 32.9997 29.7415 33.117C29.6902 33.2343 29.6645 33.3627 29.6645 33.502V37H28.7955C28.5902 37 28.4142 37 28.2675 37C28.1209 37 27.9999 37 27.9045 37ZM37.67 37.11C37.0246 37.11 36.4636 36.9817 35.987 36.725C35.5103 36.461 35.14 36.1053 34.876 35.658C34.612 35.2033 34.48 34.6863 34.48 34.107C34.48 33.6597 34.5533 33.249 34.7 32.875C34.8466 32.501 35.052 32.1783 35.316 31.907C35.58 31.6283 35.8916 31.4157 36.251 31.269C36.6176 31.115 37.0173 31.038 37.45 31.038C37.8606 31.038 38.2346 31.1113 38.572 31.258C38.9166 31.4047 39.2136 31.61 39.463 31.874C39.7123 32.138 39.903 32.4497 40.035 32.809C40.167 33.1683 40.2256 33.5607 40.211 33.986L40.2 34.459H35.547L35.294 33.469H38.77L38.583 33.678V33.458C38.5683 33.2747 38.5096 33.1133 38.407 32.974C38.3116 32.8273 38.1833 32.7137 38.022 32.633C37.8606 32.5523 37.6773 32.512 37.472 32.512C37.186 32.512 36.9403 32.5707 36.735 32.688C36.537 32.798 36.3866 32.963 36.284 33.183C36.1813 33.3957 36.13 33.6597 36.13 33.975C36.13 34.2977 36.196 34.58 36.328 34.822C36.4673 35.0567 36.6653 35.24 36.922 35.372C37.186 35.504 37.4976 35.57 37.857 35.57C38.1063 35.57 38.3263 35.5333 38.517 35.46C38.715 35.3867 38.9276 35.262 39.155 35.086L39.98 36.252C39.7526 36.45 39.5106 36.6113 39.254 36.736C38.9973 36.8607 38.7333 36.9523 38.462 37.011C38.198 37.077 37.934 37.11 37.67 37.11ZM43.3013 37.11C42.7293 37.11 42.2233 37.0183 41.7833 36.835C41.3506 36.6517 41.0059 36.406 40.7493 36.098L41.8163 35.174C42.0436 35.4013 42.3003 35.57 42.5863 35.68C42.8723 35.7827 43.1436 35.834 43.4003 35.834C43.5029 35.834 43.5946 35.823 43.6753 35.801C43.7559 35.779 43.8219 35.7497 43.8733 35.713C43.9319 35.669 43.9759 35.6213 44.0053 35.57C44.0346 35.5113 44.0493 35.4453 44.0493 35.372C44.0493 35.2253 43.9833 35.1117 43.8513 35.031C43.7853 34.9943 43.6753 34.9503 43.5213 34.899C43.3673 34.8477 43.1693 34.789 42.9273 34.723C42.5826 34.635 42.2819 34.5323 42.0253 34.415C41.7759 34.2903 41.5706 34.1473 41.4093 33.986C41.2626 33.832 41.1489 33.6633 41.0683 33.48C40.9876 33.2893 40.9473 33.0767 40.9473 32.842C40.9473 32.5707 41.0096 32.325 41.1343 32.105C41.2663 31.885 41.4386 31.6943 41.6513 31.533C41.8713 31.3717 42.1206 31.2507 42.3993 31.17C42.6853 31.082 42.9786 31.038 43.2793 31.038C43.6019 31.038 43.9099 31.0747 44.2033 31.148C44.4966 31.2213 44.7679 31.324 45.0173 31.456C45.2739 31.588 45.5013 31.7457 45.6993 31.929L44.7753 32.963C44.6433 32.8383 44.4929 32.7283 44.3243 32.633C44.1629 32.5303 43.9943 32.4497 43.8183 32.391C43.6423 32.3323 43.4809 32.303 43.3343 32.303C43.2243 32.303 43.1253 32.314 43.0373 32.336C42.9566 32.3507 42.8869 32.38 42.8283 32.424C42.7696 32.4607 42.7256 32.5083 42.6963 32.567C42.6669 32.6183 42.6523 32.6807 42.6523 32.754C42.6523 32.8273 42.6706 32.897 42.7073 32.963C42.7513 33.029 42.8099 33.084 42.8833 33.128C42.9566 33.172 43.0739 33.2233 43.2353 33.282C43.3966 33.3333 43.6166 33.3993 43.8953 33.48C44.2399 33.5753 44.5369 33.6817 44.7863 33.799C45.0356 33.9163 45.2336 34.0557 45.3803 34.217C45.4976 34.3417 45.5856 34.4883 45.6443 34.657C45.7029 34.8183 45.7323 34.9943 45.7323 35.185C45.7323 35.559 45.6259 35.8927 45.4133 36.186C45.2079 36.472 44.9219 36.6993 44.5553 36.868C44.1886 37.0293 43.7706 37.11 43.3013 37.11ZM46.7786 37V31.159H48.4506L48.5056 32.347L48.1536 32.479C48.2342 32.215 48.3772 31.9767 48.5826 31.764C48.7952 31.544 49.0482 31.368 49.3416 31.236C49.6349 31.104 49.9429 31.038 50.2656 31.038C50.7056 31.038 51.0759 31.1297 51.3766 31.313C51.6772 31.489 51.9046 31.7567 52.0586 32.116C52.2126 32.468 52.2896 32.9007 52.2896 33.414V37H50.5186V33.557C50.5186 33.3223 50.4856 33.128 50.4196 32.974C50.3536 32.82 50.2509 32.7063 50.1116 32.633C49.9796 32.5523 49.8146 32.5157 49.6166 32.523C49.4626 32.523 49.3196 32.5487 49.1876 32.6C49.0556 32.644 48.9419 32.7137 48.8466 32.809C48.7512 32.897 48.6742 32.9997 48.6156 33.117C48.5642 33.2343 48.5386 33.3627 48.5386 33.502V37H47.6696C47.4642 37 47.2882 37 47.1416 37C46.9949 37 46.8739 37 46.7786 37ZM56.544 37.11C55.8986 37.11 55.3376 36.9817 54.861 36.725C54.3843 36.461 54.014 36.1053 53.75 35.658C53.486 35.2033 53.354 34.6863 53.354 34.107C53.354 33.6597 53.4273 33.249 53.574 32.875C53.7206 32.501 53.926 32.1783 54.19 31.907C54.454 31.6283 54.7656 31.4157 55.125 31.269C55.4916 31.115 55.8913 31.038 56.324 31.038C56.7346 31.038 57.1086 31.1113 57.446 31.258C57.7906 31.4047 58.0876 31.61 58.337 31.874C58.5863 32.138 58.777 32.4497 58.909 32.809C59.041 33.1683 59.0996 33.5607 59.085 33.986L59.074 34.459H54.421L54.168 33.469H57.644L57.457 33.678V33.458C57.4423 33.2747 57.3836 33.1133 57.281 32.974C57.1856 32.8273 57.0573 32.7137 56.896 32.633C56.7346 32.5523 56.5513 32.512 56.346 32.512C56.06 32.512 55.8143 32.5707 55.609 32.688C55.411 32.798 55.2606 32.963 55.158 33.183C55.0553 33.3957 55.004 33.6597 55.004 33.975C55.004 34.2977 55.07 34.58 55.202 34.822C55.3413 35.0567 55.5393 35.24 55.796 35.372C56.06 35.504 56.3716 35.57 56.731 35.57C56.9803 35.57 57.2003 35.5333 57.391 35.46C57.589 35.3867 57.8016 35.262 58.029 35.086L58.854 36.252C58.6266 36.45 58.3846 36.6113 58.128 36.736C57.8713 36.8607 57.6073 36.9523 57.336 37.011C57.072 37.077 56.808 37.11 56.544 37.11ZM10.7075 51V43.3H11.8955V51H10.7075ZM5.68054 51V43.3H6.86854V51H5.68054ZM6.19754 47.733V46.589H11.2355V47.733H6.19754ZM16.3587 51.11C15.794 51.11 15.288 50.9817 14.8407 50.725C14.4007 50.461 14.0524 50.1053 13.7957 49.658C13.539 49.2033 13.4107 48.6863 13.4107 48.107C13.4107 47.5277 13.539 47.0143 13.7957 46.567C14.0524 46.1123 14.4007 45.7567 14.8407 45.5C15.288 45.236 15.794 45.104 16.3587 45.104C16.916 45.104 17.4147 45.236 17.8547 45.5C18.302 45.7567 18.654 46.1123 18.9107 46.567C19.1674 47.0143 19.2957 47.5277 19.2957 48.107C19.2957 48.6863 19.1674 49.2033 18.9107 49.658C18.654 50.1053 18.302 50.461 17.8547 50.725C17.4147 50.9817 16.916 51.11 16.3587 51.11ZM16.3587 50.076C16.7034 50.076 17.0114 49.9917 17.2827 49.823C17.554 49.647 17.7667 49.4123 17.9207 49.119C18.0747 48.8183 18.148 48.481 18.1407 48.107C18.148 47.7257 18.0747 47.3883 17.9207 47.095C17.7667 46.7943 17.554 46.5597 17.2827 46.391C17.0114 46.2223 16.7034 46.138 16.3587 46.138C16.014 46.138 15.7024 46.226 15.4237 46.402C15.1524 46.5707 14.9397 46.8053 14.7857 47.106C14.6317 47.3993 14.5584 47.733 14.5657 48.107C14.5584 48.481 14.6317 48.8183 14.7857 49.119C14.9397 49.4123 15.1524 49.647 15.4237 49.823C15.7024 49.9917 16.014 50.076 16.3587 50.076ZM20.5523 51V42.86H21.6853V51H20.5523ZM24.0979 53.53L25.2639 50.835L25.2749 51.737L22.3929 45.225H23.7129L25.5169 49.471C25.5536 49.5443 25.5976 49.658 25.6489 49.812C25.7002 49.9587 25.7442 50.1053 25.7809 50.252L25.4949 50.318C25.5536 50.164 25.6086 50.01 25.6599 49.856C25.7186 49.702 25.7736 49.548 25.8249 49.394L27.3319 45.225H28.6739L26.2979 51L25.3189 53.53H24.0979ZM35.2665 51.11C34.8485 51.11 34.4598 51.055 34.1005 50.945C33.7485 50.835 33.4258 50.67 33.1325 50.45C32.8465 50.2227 32.5898 49.944 32.3625 49.614L33.1765 48.679C33.5358 49.1923 33.8805 49.548 34.2105 49.746C34.5405 49.944 34.9328 50.043 35.3875 50.043C35.6662 50.043 35.9192 49.999 36.1465 49.911C36.3738 49.823 36.5535 49.702 36.6855 49.548C36.8175 49.394 36.8835 49.218 36.8835 49.02C36.8835 48.888 36.8615 48.7633 36.8175 48.646C36.7735 48.5287 36.7038 48.4223 36.6085 48.327C36.5205 48.2317 36.4032 48.1437 36.2565 48.063C36.1172 47.9823 35.9522 47.9127 35.7615 47.854C35.5708 47.788 35.3508 47.733 35.1015 47.689C34.7055 47.6083 34.3608 47.502 34.0675 47.37C33.7742 47.238 33.5285 47.073 33.3305 46.875C33.1325 46.677 32.9858 46.4533 32.8905 46.204C32.7952 45.9473 32.7475 45.6613 32.7475 45.346C32.7475 45.038 32.8135 44.752 32.9455 44.488C33.0848 44.224 33.2718 43.9967 33.5065 43.806C33.7485 43.608 34.0308 43.4577 34.3535 43.355C34.6762 43.245 35.0245 43.19 35.3985 43.19C35.7945 43.19 36.1575 43.2413 36.4875 43.344C36.8175 43.4467 37.1108 43.6007 37.3675 43.806C37.6242 44.004 37.8368 44.2497 38.0055 44.543L37.1695 45.368C37.0228 45.126 36.8578 44.9243 36.6745 44.763C36.4912 44.5943 36.2895 44.4697 36.0695 44.389C35.8495 44.301 35.6148 44.257 35.3655 44.257C35.0795 44.257 34.8302 44.301 34.6175 44.389C34.4048 44.477 34.2362 44.6017 34.1115 44.763C33.9942 44.917 33.9355 45.1003 33.9355 45.313C33.9355 45.467 33.9648 45.61 34.0235 45.742C34.0822 45.8667 34.1702 45.9803 34.2875 46.083C34.4122 46.1783 34.5772 46.2663 34.7825 46.347C34.9878 46.4203 35.2335 46.4863 35.5195 46.545C35.9228 46.633 36.2822 46.7467 36.5975 46.886C36.9128 47.018 37.1805 47.1757 37.4005 47.359C37.6205 47.5423 37.7855 47.7477 37.8955 47.975C38.0128 48.2023 38.0715 48.448 38.0715 48.712C38.0715 49.2033 37.9578 49.6287 37.7305 49.988C37.5032 50.3473 37.1805 50.626 36.7625 50.824C36.3445 51.0147 35.8458 51.11 35.2665 51.11ZM39.4688 53.42V45.225H40.6128V46.545L40.4368 46.446C40.4808 46.226 40.6054 46.017 40.8108 45.819C41.0161 45.6137 41.2654 45.4487 41.5588 45.324C41.8594 45.192 42.1674 45.126 42.4828 45.126C43.0034 45.126 43.4654 45.2543 43.8688 45.511C44.2721 45.7677 44.5911 46.1197 44.8258 46.567C45.0604 47.0143 45.1778 47.5277 45.1778 48.107C45.1778 48.679 45.0604 49.1923 44.8258 49.647C44.5984 50.0943 44.2831 50.45 43.8798 50.714C43.4764 50.9707 43.0218 51.099 42.5158 51.099C42.1784 51.099 41.8521 51.033 41.5368 50.901C41.2214 50.7617 40.9538 50.5857 40.7338 50.373C40.5138 50.1603 40.3781 49.9403 40.3268 49.713L40.6128 49.559V53.42H39.4688ZM42.3288 50.054C42.6661 50.054 42.9668 49.9697 43.2308 49.801C43.4948 49.6323 43.7038 49.4013 43.8578 49.108C44.0118 48.8147 44.0888 48.481 44.0888 48.107C44.0888 47.733 44.0118 47.403 43.8578 47.117C43.7111 46.8237 43.5058 46.5927 43.2418 46.424C42.9778 46.2553 42.6734 46.171 42.3288 46.171C41.9841 46.171 41.6798 46.2553 41.4158 46.424C41.1518 46.5853 40.9428 46.8127 40.7888 47.106C40.6348 47.3993 40.5578 47.733 40.5578 48.107C40.5578 48.481 40.6348 48.8147 40.7888 49.108C40.9428 49.4013 41.1518 49.6323 41.4158 49.801C41.6798 49.9697 41.9841 50.054 42.3288 50.054ZM46.5952 51V45.225H47.7282V51H46.5952ZM47.1452 43.949C46.9032 43.949 46.7162 43.8867 46.5842 43.762C46.4522 43.6373 46.3862 43.4613 46.3862 43.234C46.3862 43.0213 46.4522 42.849 46.5842 42.717C46.7235 42.585 46.9105 42.519 47.1452 42.519C47.3872 42.519 47.5742 42.5813 47.7062 42.706C47.8382 42.8307 47.9042 43.0067 47.9042 43.234C47.9042 43.4467 47.8345 43.619 47.6952 43.751C47.5632 43.883 47.3799 43.949 47.1452 43.949ZM49.4697 51V45.225H50.6137V47.04L50.5037 46.6C50.5844 46.3213 50.7201 46.0683 50.9107 45.841C51.1087 45.6137 51.3324 45.434 51.5817 45.302C51.8384 45.17 52.1024 45.104 52.3737 45.104C52.4984 45.104 52.6157 45.115 52.7257 45.137C52.8431 45.159 52.9347 45.1847 53.0007 45.214L52.7037 46.446C52.6157 46.4093 52.5167 46.38 52.4067 46.358C52.3041 46.3287 52.2014 46.314 52.0987 46.314C51.9007 46.314 51.7101 46.3543 51.5267 46.435C51.3507 46.5083 51.1931 46.6147 51.0537 46.754C50.9217 46.886 50.8154 47.0437 50.7347 47.227C50.6541 47.403 50.6137 47.5973 50.6137 47.81V51H49.4697ZM54.0933 51V45.225H55.2263V51H54.0933ZM54.6433 43.949C54.4013 43.949 54.2143 43.8867 54.0823 43.762C53.9503 43.6373 53.8843 43.4613 53.8843 43.234C53.8843 43.0213 53.9503 42.849 54.0823 42.717C54.2216 42.585 54.4086 42.519 54.6433 42.519C54.8853 42.519 55.0723 42.5813 55.2043 42.706C55.3363 42.8307 55.4023 43.0067 55.4023 43.234C55.4023 43.4467 55.3326 43.619 55.1933 43.751C55.0613 43.883 54.8779 43.949 54.6433 43.949ZM57.6828 51V43.751H58.8158V51H57.6828ZM56.4838 46.325V45.225H60.1578V46.325H56.4838Z" fill="black"/>
<path d="M22 23.5C28.5 25.5 34.5 25.5 41 23.5C34.5 20.5 28.5 20.5 22 23.5Z" fill="#949494"/>
<path d="M22 23.5L25 16C30 14.5 33 14.5 38 16L41 23.5C34.5 20.5 28.5 20.5 22 23.5Z" fill="#B0B0B0"/>
<path d="M25.001 15.726C25.0678 6.48065 28.5194 5.49515 30.5 5L30.9621 3.15149C30.9844 3.06246 31.0644 3 31.1562 3H31.8438C31.9356 3 32.0156 3.06246 32.0379 3.15149L32.5 5C34.4806 5.49515 37.9322 6.48065 37.999 15.726C38 15.8599 37.8693 15.9608 37.7407 15.923C32.9808 14.5257 30.0192 14.5257 25.2593 15.923C25.1307 15.9608 25 15.8599 25.001 15.726Z" fill="#D1D1D1"/>
<path d="M25 16L22.0806 23.2984C22.0372 23.407 22.0964 23.5297 22.2083 23.5635C28.559 25.4788 34.441 25.4788 40.7917 23.5635C40.9036 23.5297 40.9628 23.407 40.9194 23.2984L38 16M25 16C25 6.53695 28.4728 5.50791 30.4766 5.00586C30.4925 5.00188 30.5083 5 30.5246 5H32.4754C32.4917 5 32.5075 5.00188 32.5234 5.00586C34.5272 5.50791 38 6.53695 38 16M25 16C30 14.5 33 14.5 38 16" stroke="#484848"/>
<path d="M31.3536 24H31.5H31.6464C31.8728 24 32.0899 24.0899 32.25 24.25C32.4101 24.4101 32.5 24.6272 32.5 24.8536V26.1464C32.5 26.3728 32.4101 26.5899 32.25 26.75C32.0899 26.9101 31.8728 27 31.6464 27H31.3536C31.1272 27 30.9101 26.9101 30.75 26.75C30.5899 26.5899 30.5 26.3728 30.5 26.1464V24.8536C30.5 24.6272 30.5899 24.4101 30.75 24.25C30.9101 24.0899 31.1272 24 31.3536 24Z" fill="black"/>
<path d="M31.5 21.25V24M31.5 24H31.3536C31.1272 24 30.9101 24.0899 30.75 24.25V24.25C30.5899 24.4101 30.5 24.6272 30.5 24.8536V26.1464C30.5 26.3728 30.5899 26.5899 30.75 26.75V26.75C30.9101 26.9101 31.1272 27 31.3536 27H31.6464C31.8728 27 32.0899 26.9101 32.25 26.75V26.75C32.4101 26.5899 32.5 26.3728 32.5 26.1464V24.8536C32.5 24.6272 32.4101 24.4101 32.25 24.25V24.25C32.0899 24.0899 31.8728 24 31.6464 24H31.5Z" stroke="#010101"/>
<path d="M25 16L22.1865 23.0336C22.1194 23.2016 22.2932 23.366 22.4586 23.2929C28.6304 20.569 34.3696 20.569 40.5414 23.2929C40.7068 23.366 40.8806 23.2016 40.8135 23.0336L38 16M25 16C25 6.5 28.5 5.5 30.5 5M25 16C30 14.5 33 14.5 38 16M38 16C38 6.5 34.5 5.5 32.5 5M32.5 5H30.5M32.5 5L32.0379 3.15149C32.0156 3.06246 31.9356 3 31.8438 3H31.1562C31.0644 3 30.9844 3.06246 30.9621 3.15149L30.5 5" stroke="#484848"/>
</svg>
