<svg width="84" height="75" viewBox="0 0 84 75" fill="none" xmlns="http://www.w3.org/2000/svg">
<path d="M7.77708 40V32.3H9.64708V40H7.77708ZM8.64608 37.052V35.49H12.6281V37.052H8.64608ZM8.64608 33.95V32.3H13.0791V33.95H8.64608ZM14.8739 40V32.685H16.6339V40H14.8739ZM13.8399 35.699V34.159H17.7669V35.699H13.8399ZM19.3997 40.121C19.099 40.121 18.8644 40.0367 18.6957 39.868C18.5344 39.6993 18.4537 39.4573 18.4537 39.142C18.4537 38.8487 18.5417 38.6103 18.7177 38.427C18.8937 38.2437 19.121 38.152 19.3997 38.152C19.7004 38.152 19.935 38.24 20.1037 38.416C20.2724 38.5847 20.3567 38.8267 20.3567 39.142C20.3567 39.428 20.2687 39.6627 20.0927 39.846C19.9167 40.0293 19.6857 40.121 19.3997 40.121ZM25.3083 40V32.3H28.5313C29.096 32.3 29.613 32.3953 30.0823 32.586C30.5517 32.7693 30.955 33.0333 31.2923 33.378C31.637 33.7227 31.901 34.1297 32.0843 34.599C32.2677 35.0683 32.3593 35.5853 32.3593 36.15C32.3593 36.7147 32.2677 37.2353 32.0843 37.712C31.901 38.1813 31.637 38.5883 31.2923 38.933C30.955 39.2703 30.5517 39.5343 30.0823 39.725C29.613 39.9083 29.096 40 28.5313 40H25.3083ZM27.1783 38.724L26.9253 38.35H28.4763C28.7843 38.35 29.0593 38.2987 29.3013 38.196C29.5433 38.086 29.7487 37.9357 29.9173 37.745C30.0933 37.5543 30.229 37.3233 30.3243 37.052C30.4197 36.7807 30.4673 36.48 30.4673 36.15C30.4673 35.82 30.4197 35.5193 30.3243 35.248C30.229 34.9767 30.0933 34.7457 29.9173 34.555C29.7487 34.3643 29.5433 34.2177 29.3013 34.115C29.0593 34.005 28.7843 33.95 28.4763 33.95H26.8923L27.1783 33.598V38.724ZM35.6094 40.121C35.1767 40.121 34.8064 40.0293 34.4984 39.846C34.1977 39.6553 33.9631 39.384 33.7944 39.032C33.6331 38.68 33.5524 38.2583 33.5524 37.767V34.159H35.3234V37.525C35.3234 37.7597 35.3601 37.9613 35.4334 38.13C35.5067 38.2987 35.6167 38.4307 35.7634 38.526C35.9101 38.614 36.0861 38.658 36.2914 38.658C36.4454 38.658 36.5847 38.6323 36.7094 38.581C36.8414 38.5297 36.9514 38.46 37.0394 38.372C37.1347 38.2767 37.2081 38.1703 37.2594 38.053C37.3107 37.9283 37.3364 37.7927 37.3364 37.646V34.159H39.1074V40H37.4464L37.3694 38.801L37.6994 38.669C37.6114 38.9477 37.4647 39.197 37.2594 39.417C37.0541 39.6297 36.8084 39.802 36.5224 39.934C36.2364 40.0587 35.9321 40.121 35.6094 40.121ZM43.239 40.11C42.6744 40.11 42.1684 39.978 41.721 39.714C41.2737 39.45 40.918 39.0907 40.654 38.636C40.3974 38.174 40.269 37.6533 40.269 37.074C40.269 36.4947 40.3974 35.9777 40.654 35.523C40.918 35.061 41.2737 34.698 41.721 34.434C42.1684 34.17 42.6744 34.038 43.239 34.038C43.7597 34.038 44.2364 34.1297 44.669 34.313C45.109 34.4963 45.4574 34.753 45.714 35.083L44.757 36.227C44.6544 36.1097 44.5334 35.9997 44.394 35.897C44.2547 35.7943 44.1007 35.7137 43.932 35.655C43.7634 35.5963 43.5874 35.567 43.404 35.567C43.1254 35.567 42.8797 35.633 42.667 35.765C42.4544 35.8897 42.2894 36.0657 42.172 36.293C42.0547 36.5203 41.996 36.7807 41.996 37.074C41.996 37.3527 42.0547 37.6057 42.172 37.833C42.2967 38.0603 42.4654 38.24 42.678 38.372C42.8907 38.504 43.1327 38.57 43.404 38.57C43.5947 38.57 43.7707 38.548 43.932 38.504C44.0934 38.4527 44.24 38.3793 44.372 38.284C44.5114 38.1887 44.6397 38.0713 44.757 37.932L45.703 39.087C45.4537 39.4023 45.1054 39.6517 44.658 39.835C44.218 40.0183 43.745 40.11 43.239 40.11ZM46.6702 40V31.86H48.3972V35.347L48.0452 35.479C48.1258 35.215 48.2688 34.9767 48.4742 34.764C48.6868 34.544 48.9398 34.368 49.2332 34.236C49.5265 34.104 49.8345 34.038 50.1572 34.038C50.5972 34.038 50.9675 34.1297 51.2682 34.313C51.5688 34.489 51.7962 34.7567 51.9502 35.116C52.1042 35.468 52.1812 35.9007 52.1812 36.414V40H50.4102V36.557C50.4102 36.3223 50.3772 36.128 50.3112 35.974C50.2452 35.82 50.1425 35.7063 50.0032 35.633C49.8712 35.5523 49.7062 35.5157 49.5082 35.523C49.3542 35.523 49.2112 35.5487 49.0792 35.6C48.9472 35.644 48.8335 35.7137 48.7382 35.809C48.6428 35.897 48.5658 35.9997 48.5072 36.117C48.4558 36.2343 48.4302 36.3627 48.4302 36.502V40H47.5612C47.3558 40 47.1798 40 47.0332 40C46.8865 40 46.7655 40 46.6702 40ZM56.4356 40.11C55.7902 40.11 55.2292 39.9817 54.7526 39.725C54.2759 39.461 53.9056 39.1053 53.6416 38.658C53.3776 38.2033 53.2456 37.6863 53.2456 37.107C53.2456 36.6597 53.3189 36.249 53.4656 35.875C53.6122 35.501 53.8176 35.1783 54.0816 34.907C54.3456 34.6283 54.6572 34.4157 55.0166 34.269C55.3832 34.115 55.7829 34.038 56.2156 34.038C56.6262 34.038 57.0002 34.1113 57.3376 34.258C57.6822 34.4047 57.9792 34.61 58.2286 34.874C58.4779 35.138 58.6686 35.4497 58.8006 35.809C58.9326 36.1683 58.9912 36.5607 58.9766 36.986L58.9656 37.459H54.3126L54.0596 36.469H57.5356L57.3486 36.678V36.458C57.3339 36.2747 57.2752 36.1133 57.1726 35.974C57.0772 35.8273 56.9489 35.7137 56.7876 35.633C56.6262 35.5523 56.4429 35.512 56.2376 35.512C55.9516 35.512 55.7059 35.5707 55.5006 35.688C55.3026 35.798 55.1522 35.963 55.0496 36.183C54.9469 36.3957 54.8956 36.6597 54.8956 36.975C54.8956 37.2977 54.9616 37.58 55.0936 37.822C55.2329 38.0567 55.4309 38.24 55.6876 38.372C55.9516 38.504 56.2632 38.57 56.6226 38.57C56.8719 38.57 57.0919 38.5333 57.2826 38.46C57.4806 38.3867 57.6932 38.262 57.9206 38.086L58.7456 39.252C58.5182 39.45 58.2762 39.6113 58.0196 39.736C57.7629 39.8607 57.4989 39.9523 57.2276 40.011C56.9636 40.077 56.6996 40.11 56.4356 40.11ZM62.0669 40.11C61.4949 40.11 60.9889 40.0183 60.5489 39.835C60.1162 39.6517 59.7716 39.406 59.5149 39.098L60.5819 38.174C60.8092 38.4013 61.0659 38.57 61.3519 38.68C61.6379 38.7827 61.9092 38.834 62.1659 38.834C62.2686 38.834 62.3602 38.823 62.4409 38.801C62.5216 38.779 62.5876 38.7497 62.6389 38.713C62.6976 38.669 62.7416 38.6213 62.7709 38.57C62.8002 38.5113 62.8149 38.4453 62.8149 38.372C62.8149 38.2253 62.7489 38.1117 62.6169 38.031C62.5509 37.9943 62.4409 37.9503 62.2869 37.899C62.1329 37.8477 61.9349 37.789 61.6929 37.723C61.3482 37.635 61.0476 37.5323 60.7909 37.415C60.5416 37.2903 60.3362 37.1473 60.1749 36.986C60.0282 36.832 59.9146 36.6633 59.8339 36.48C59.7532 36.2893 59.7129 36.0767 59.7129 35.842C59.7129 35.5707 59.7752 35.325 59.8999 35.105C60.0319 34.885 60.2042 34.6943 60.4169 34.533C60.6369 34.3717 60.8862 34.2507 61.1649 34.17C61.4509 34.082 61.7442 34.038 62.0449 34.038C62.3676 34.038 62.6756 34.0747 62.9689 34.148C63.2622 34.2213 63.5336 34.324 63.7829 34.456C64.0396 34.588 64.2669 34.7457 64.4649 34.929L63.5409 35.963C63.4089 35.8383 63.2586 35.7283 63.0899 35.633C62.9286 35.5303 62.7599 35.4497 62.5839 35.391C62.4079 35.3323 62.2466 35.303 62.0999 35.303C61.9899 35.303 61.8909 35.314 61.8029 35.336C61.7222 35.3507 61.6526 35.38 61.5939 35.424C61.5352 35.4607 61.4912 35.5083 61.4619 35.567C61.4326 35.6183 61.4179 35.6807 61.4179 35.754C61.4179 35.8273 61.4362 35.897 61.4729 35.963C61.5169 36.029 61.5756 36.084 61.6489 36.128C61.7222 36.172 61.8396 36.2233 62.0009 36.282C62.1622 36.3333 62.3822 36.3993 62.6609 36.48C63.0056 36.5753 63.3026 36.6817 63.5519 36.799C63.8012 36.9163 63.9992 37.0557 64.1459 37.217C64.2632 37.3417 64.3512 37.4883 64.4099 37.657C64.4686 37.8183 64.4979 37.9943 64.4979 38.185C64.4979 38.559 64.3916 38.8927 64.1789 39.186C63.9736 39.472 63.6876 39.6993 63.3209 39.868C62.9542 40.0293 62.5362 40.11 62.0669 40.11ZM65.5442 40V34.159H67.2162L67.2712 35.347L66.9192 35.479C66.9999 35.215 67.1429 34.9767 67.3482 34.764C67.5609 34.544 67.8139 34.368 68.1072 34.236C68.4005 34.104 68.7085 34.038 69.0312 34.038C69.4712 34.038 69.8415 34.1297 70.1422 34.313C70.4429 34.489 70.6702 34.7567 70.8242 35.116C70.9782 35.468 71.0552 35.9007 71.0552 36.414V40H69.2842V36.557C69.2842 36.3223 69.2512 36.128 69.1852 35.974C69.1192 35.82 69.0165 35.7063 68.8772 35.633C68.7452 35.5523 68.5802 35.5157 68.3822 35.523C68.2282 35.523 68.0852 35.5487 67.9532 35.6C67.8212 35.644 67.7075 35.7137 67.6122 35.809C67.5169 35.897 67.4399 35.9997 67.3812 36.117C67.3299 36.2343 67.3042 36.3627 67.3042 36.502V40H66.4352C66.2299 40 66.0539 40 65.9072 40C65.7605 40 65.6395 40 65.5442 40ZM75.3096 40.11C74.6643 40.11 74.1033 39.9817 73.6266 39.725C73.1499 39.461 72.7796 39.1053 72.5156 38.658C72.2516 38.2033 72.1196 37.6863 72.1196 37.107C72.1196 36.6597 72.1929 36.249 72.3396 35.875C72.4863 35.501 72.6916 35.1783 72.9556 34.907C73.2196 34.6283 73.5313 34.4157 73.8906 34.269C74.2573 34.115 74.6569 34.038 75.0896 34.038C75.5003 34.038 75.8743 34.1113 76.2116 34.258C76.5563 34.4047 76.8533 34.61 77.1026 34.874C77.3519 35.138 77.5426 35.4497 77.6746 35.809C77.8066 36.1683 77.8653 36.5607 77.8506 36.986L77.8396 37.459H73.1866L72.9336 36.469H76.4096L76.2226 36.678V36.458C76.2079 36.2747 76.1493 36.1133 76.0466 35.974C75.9513 35.8273 75.8229 35.7137 75.6616 35.633C75.5003 35.5523 75.3169 35.512 75.1116 35.512C74.8256 35.512 74.5799 35.5707 74.3746 35.688C74.1766 35.798 74.0263 35.963 73.9236 36.183C73.8209 36.3957 73.7696 36.6597 73.7696 36.975C73.7696 37.2977 73.8356 37.58 73.9676 37.822C74.1069 38.0567 74.3049 38.24 74.5616 38.372C74.8256 38.504 75.1373 38.57 75.4966 38.57C75.7459 38.57 75.9659 38.5333 76.1566 38.46C76.3546 38.3867 76.5673 38.262 76.7946 38.086L77.6196 39.252C77.3923 39.45 77.1503 39.6113 76.8936 39.736C76.6369 39.8607 76.3729 39.9523 76.1016 40.011C75.8376 40.077 75.5736 40.11 75.3096 40.11ZM5.47009 54V46.3H8.68209C9.17342 46.3 9.58776 46.3733 9.92509 46.52C10.2624 46.6667 10.5154 46.8867 10.6841 47.18C10.8601 47.466 10.9481 47.818 10.9481 48.236C10.9481 48.654 10.8308 49.0097 10.5961 49.303C10.3688 49.5963 10.0498 49.798 9.63909 49.908V49.688C9.98376 49.7613 10.2844 49.8933 10.5411 50.084C10.7978 50.2673 10.9958 50.4983 11.1351 50.777C11.2818 51.0557 11.3551 51.3747 11.3551 51.734C11.3551 52.1007 11.2964 52.427 11.1791 52.713C11.0691 52.9917 10.9004 53.2263 10.6731 53.417C10.4531 53.6077 10.1854 53.7543 9.87009 53.857C9.55476 53.9523 9.19542 54 8.79209 54H5.47009ZM6.65809 52.856H8.72609C9.02676 52.856 9.27976 52.812 9.48509 52.724C9.69776 52.636 9.85909 52.5077 9.96909 52.339C10.0864 52.163 10.1451 51.954 10.1451 51.712C10.1451 51.4847 10.0828 51.2903 9.95809 51.129C9.84076 50.9677 9.67209 50.8467 9.45209 50.766C9.23209 50.678 8.97176 50.634 8.67109 50.634H6.65809V52.856ZM6.65809 49.49H8.61609C8.83609 49.49 9.03042 49.446 9.19909 49.358C9.37509 49.27 9.51076 49.149 9.60609 48.995C9.70876 48.841 9.76009 48.665 9.76009 48.467C9.76009 48.137 9.65009 47.884 9.43009 47.708C9.21009 47.532 8.89476 47.444 8.48409 47.444H6.65809V49.49ZM12.6612 54V45.86H13.7942V54H12.6612ZM17.9875 54.11C17.3935 54.11 16.8655 53.9853 16.4035 53.736C15.9488 53.4793 15.5895 53.131 15.3255 52.691C15.0688 52.251 14.9405 51.745 14.9405 51.173C14.9405 50.7183 15.0138 50.304 15.1605 49.93C15.3072 49.556 15.5088 49.2333 15.7655 48.962C16.0295 48.6833 16.3412 48.4707 16.7005 48.324C17.0672 48.17 17.4632 48.093 17.8885 48.093C18.2625 48.093 18.6108 48.1663 18.9335 48.313C19.2562 48.4523 19.5348 48.6467 19.7695 48.896C20.0115 49.1453 20.1948 49.4423 20.3195 49.787C20.4515 50.1243 20.5138 50.4947 20.5065 50.898L20.4955 51.382H15.7765L15.5235 50.48H19.5165L19.3515 50.667V50.403C19.3295 50.161 19.2488 49.9447 19.1095 49.754C18.9702 49.5633 18.7942 49.413 18.5815 49.303C18.3688 49.193 18.1378 49.138 17.8885 49.138C17.4925 49.138 17.1588 49.215 16.8875 49.369C16.6162 49.5157 16.4108 49.7357 16.2715 50.029C16.1322 50.315 16.0625 50.6707 16.0625 51.096C16.0625 51.4993 16.1468 51.8513 16.3155 52.152C16.4842 52.4453 16.7225 52.6727 17.0305 52.834C17.3385 52.9953 17.6942 53.076 18.0975 53.076C18.3835 53.076 18.6475 53.0283 18.8895 52.933C19.1388 52.8377 19.4065 52.6653 19.6925 52.416L20.2645 53.219C20.0885 53.395 19.8722 53.549 19.6155 53.681C19.3662 53.813 19.0985 53.9193 18.8125 54C18.5338 54.0733 18.2588 54.11 17.9875 54.11ZM23.6628 54.11C23.1788 54.11 22.7425 54.0257 22.3538 53.857C21.9651 53.6883 21.6425 53.439 21.3858 53.109L22.1558 52.449C22.3758 52.7057 22.6141 52.8927 22.8708 53.01C23.1348 53.12 23.4318 53.175 23.7618 53.175C23.8938 53.175 24.0148 53.1603 24.1248 53.131C24.2421 53.0943 24.3411 53.043 24.4218 52.977C24.5098 52.911 24.5758 52.834 24.6198 52.746C24.6638 52.6507 24.6858 52.548 24.6858 52.438C24.6858 52.2473 24.6161 52.0933 24.4768 51.976C24.4035 51.9247 24.2861 51.8697 24.1248 51.811C23.9708 51.745 23.7691 51.679 23.5198 51.613C23.0945 51.503 22.7461 51.3783 22.4748 51.239C22.2035 51.0997 21.9945 50.942 21.8478 50.766C21.7378 50.6267 21.6571 50.4763 21.6058 50.315C21.5545 50.1463 21.5288 49.963 21.5288 49.765C21.5288 49.523 21.5801 49.303 21.6828 49.105C21.7928 48.8997 21.9395 48.7237 22.1228 48.577C22.3135 48.423 22.5335 48.3057 22.7828 48.225C23.0395 48.1443 23.3108 48.104 23.5968 48.104C23.8681 48.104 24.1358 48.1407 24.3998 48.214C24.6711 48.2873 24.9205 48.3937 25.1478 48.533C25.3751 48.6723 25.5658 48.8373 25.7198 49.028L25.0708 49.743C24.9315 49.6037 24.7775 49.4827 24.6088 49.38C24.4475 49.27 24.2825 49.1857 24.1138 49.127C23.9451 49.0683 23.7911 49.039 23.6518 49.039C23.4978 49.039 23.3585 49.0537 23.2338 49.083C23.1091 49.1123 23.0028 49.1563 22.9148 49.215C22.8341 49.2737 22.7718 49.347 22.7278 49.435C22.6838 49.523 22.6618 49.622 22.6618 49.732C22.6691 49.8273 22.6911 49.919 22.7278 50.007C22.7718 50.0877 22.8305 50.1573 22.9038 50.216C22.9845 50.2747 23.1055 50.337 23.2668 50.403C23.4281 50.469 23.6335 50.5313 23.8828 50.59C24.2495 50.6853 24.5501 50.7917 24.7848 50.909C25.0268 51.019 25.2175 51.1473 25.3568 51.294C25.5035 51.4333 25.6061 51.5947 25.6648 51.778C25.7235 51.9613 25.7528 52.1667 25.7528 52.394C25.7528 52.724 25.6575 53.021 25.4668 53.285C25.2835 53.5417 25.0341 53.7433 24.7188 53.89C24.4035 54.0367 24.0515 54.11 23.6628 54.11ZM28.9265 54.11C28.4425 54.11 28.0061 54.0257 27.6175 53.857C27.2288 53.6883 26.9061 53.439 26.6495 53.109L27.4195 52.449C27.6395 52.7057 27.8778 52.8927 28.1345 53.01C28.3985 53.12 28.6955 53.175 29.0255 53.175C29.1575 53.175 29.2785 53.1603 29.3885 53.131C29.5058 53.0943 29.6048 53.043 29.6855 52.977C29.7735 52.911 29.8395 52.834 29.8835 52.746C29.9275 52.6507 29.9495 52.548 29.9495 52.438C29.9495 52.2473 29.8798 52.0933 29.7405 51.976C29.6671 51.9247 29.5498 51.8697 29.3885 51.811C29.2345 51.745 29.0328 51.679 28.7835 51.613C28.3581 51.503 28.0098 51.3783 27.7385 51.239C27.4671 51.0997 27.2581 50.942 27.1115 50.766C27.0015 50.6267 26.9208 50.4763 26.8695 50.315C26.8181 50.1463 26.7925 49.963 26.7925 49.765C26.7925 49.523 26.8438 49.303 26.9465 49.105C27.0565 48.8997 27.2031 48.7237 27.3865 48.577C27.5771 48.423 27.7971 48.3057 28.0465 48.225C28.3031 48.1443 28.5745 48.104 28.8605 48.104C29.1318 48.104 29.3995 48.1407 29.6635 48.214C29.9348 48.2873 30.1841 48.3937 30.4115 48.533C30.6388 48.6723 30.8295 48.8373 30.9835 49.028L30.3345 49.743C30.1951 49.6037 30.0411 49.4827 29.8725 49.38C29.7111 49.27 29.5461 49.1857 29.3775 49.127C29.2088 49.0683 29.0548 49.039 28.9155 49.039C28.7615 49.039 28.6221 49.0537 28.4975 49.083C28.3728 49.1123 28.2665 49.1563 28.1785 49.215C28.0978 49.2737 28.0355 49.347 27.9915 49.435C27.9475 49.523 27.9255 49.622 27.9255 49.732C27.9328 49.8273 27.9548 49.919 27.9915 50.007C28.0355 50.0877 28.0941 50.1573 28.1675 50.216C28.2481 50.2747 28.3691 50.337 28.5305 50.403C28.6918 50.469 28.8971 50.5313 29.1465 50.59C29.5131 50.6853 29.8138 50.7917 30.0485 50.909C30.2905 51.019 30.4811 51.1473 30.6205 51.294C30.7671 51.4333 30.8698 51.5947 30.9285 51.778C30.9871 51.9613 31.0165 52.1667 31.0165 52.394C31.0165 52.724 30.9211 53.021 30.7305 53.285C30.5471 53.5417 30.2978 53.7433 29.9825 53.89C29.6671 54.0367 29.3151 54.11 28.9265 54.11ZM34.9601 54.11C34.3661 54.11 33.8381 53.9853 33.3761 53.736C32.9215 53.4793 32.5621 53.131 32.2981 52.691C32.0415 52.251 31.9131 51.745 31.9131 51.173C31.9131 50.7183 31.9865 50.304 32.1331 49.93C32.2798 49.556 32.4815 49.2333 32.7381 48.962C33.0021 48.6833 33.3138 48.4707 33.6731 48.324C34.0398 48.17 34.4358 48.093 34.8611 48.093C35.2351 48.093 35.5835 48.1663 35.9061 48.313C36.2288 48.4523 36.5075 48.6467 36.7421 48.896C36.9841 49.1453 37.1675 49.4423 37.2921 49.787C37.4241 50.1243 37.4865 50.4947 37.4791 50.898L37.4681 51.382H32.7491L32.4961 50.48H36.4891L36.3241 50.667V50.403C36.3021 50.161 36.2215 49.9447 36.0821 49.754C35.9428 49.5633 35.7668 49.413 35.5541 49.303C35.3415 49.193 35.1105 49.138 34.8611 49.138C34.4651 49.138 34.1315 49.215 33.8601 49.369C33.5888 49.5157 33.3835 49.7357 33.2441 50.029C33.1048 50.315 33.0351 50.6707 33.0351 51.096C33.0351 51.4993 33.1195 51.8513 33.2881 52.152C33.4568 52.4453 33.6951 52.6727 34.0031 52.834C34.3111 52.9953 34.6668 53.076 35.0701 53.076C35.3561 53.076 35.6201 53.0283 35.8621 52.933C36.1115 52.8377 36.3791 52.6653 36.6651 52.416L37.2371 53.219C37.0611 53.395 36.8448 53.549 36.5881 53.681C36.3388 53.813 36.0711 53.9193 35.7851 54C35.5065 54.0733 35.2315 54.11 34.9601 54.11ZM41.1195 54.11C40.5915 54.11 40.1185 53.9817 39.7005 53.725C39.2898 53.461 38.9635 53.1053 38.7215 52.658C38.4795 52.2033 38.3585 51.6863 38.3585 51.107C38.3585 50.5277 38.4758 50.0143 38.7105 49.567C38.9525 49.1123 39.2788 48.7567 39.6895 48.5C40.1001 48.236 40.5658 48.104 41.0865 48.104C41.3725 48.104 41.6475 48.1517 41.9115 48.247C42.1828 48.335 42.4248 48.4597 42.6375 48.621C42.8501 48.775 43.0151 48.9473 43.1325 49.138C43.2571 49.3213 43.3195 49.5083 43.3195 49.699L42.9895 49.721V45.86H44.1225V54H42.9895V52.625H43.2095C43.2095 52.801 43.1508 52.977 43.0335 53.153C42.9161 53.3217 42.7585 53.4793 42.5605 53.626C42.3698 53.7727 42.1461 53.89 41.8895 53.978C41.6401 54.066 41.3835 54.11 41.1195 54.11ZM41.2735 53.131C41.6181 53.131 41.9225 53.043 42.1865 52.867C42.4505 52.691 42.6558 52.4527 42.8025 52.152C42.9565 51.844 43.0335 51.4957 43.0335 51.107C43.0335 50.7183 42.9565 50.3737 42.8025 50.073C42.6558 49.765 42.4505 49.523 42.1865 49.347C41.9225 49.171 41.6181 49.083 41.2735 49.083C40.9288 49.083 40.6245 49.171 40.3605 49.347C40.0965 49.523 39.8875 49.765 39.7335 50.073C39.5868 50.3737 39.5135 50.7183 39.5135 51.107C39.5135 51.4957 39.5868 51.844 39.7335 52.152C39.8875 52.4527 40.0965 52.691 40.3605 52.867C40.6245 53.043 40.9288 53.131 41.2735 53.131ZM50.0411 51.668L49.9751 50.337L54.0121 46.3H55.5741L50.0411 51.668ZM49.0511 54V46.3H50.2391V54H49.0511ZM54.1551 54L51.2071 50.062L52.0871 49.303L55.6401 54H54.1551ZM58.5496 54.11C58.073 54.11 57.6366 53.978 57.2406 53.714C56.852 53.45 56.5403 53.0907 56.3056 52.636C56.071 52.1813 55.9536 51.668 55.9536 51.096C55.9536 50.5167 56.071 50.0033 56.3056 49.556C56.5476 49.1013 56.8703 48.7457 57.2736 48.489C57.6843 48.2323 58.1426 48.104 58.6486 48.104C58.9493 48.104 59.2243 48.148 59.4736 48.236C59.723 48.324 59.9393 48.4487 60.1226 48.61C60.3133 48.764 60.4673 48.9437 60.5846 49.149C60.7093 49.3543 60.7863 49.5743 60.8156 49.809L60.5626 49.721V48.225H61.7066V54H60.5626V52.625L60.8266 52.548C60.7826 52.746 60.691 52.9403 60.5516 53.131C60.4196 53.3143 60.2473 53.4793 60.0346 53.626C59.8293 53.7727 59.5983 53.89 59.3416 53.978C59.0923 54.066 58.8283 54.11 58.5496 54.11ZM58.8466 53.065C59.1913 53.065 59.4956 52.9807 59.7596 52.812C60.0236 52.6433 60.229 52.4123 60.3756 52.119C60.5296 51.8183 60.6066 51.4773 60.6066 51.096C60.6066 50.722 60.5296 50.3883 60.3756 50.095C60.229 49.8017 60.0236 49.5707 59.7596 49.402C59.4956 49.2333 59.1913 49.149 58.8466 49.149C58.5093 49.149 58.2086 49.2333 57.9446 49.402C57.688 49.5707 57.4826 49.8017 57.3286 50.095C57.182 50.3883 57.1086 50.722 57.1086 51.096C57.1086 51.4773 57.182 51.8183 57.3286 52.119C57.4826 52.4123 57.688 52.6433 57.9446 52.812C58.2086 52.9807 58.5093 53.065 58.8466 53.065ZM64.0036 54V46.751H65.1366V54H64.0036ZM62.8046 49.325V48.225H66.4786V49.325H62.8046ZM70.1516 54.11C69.5576 54.11 69.0296 53.9853 68.5676 53.736C68.1129 53.4793 67.7536 53.131 67.4896 52.691C67.2329 52.251 67.1046 51.745 67.1046 51.173C67.1046 50.7183 67.1779 50.304 67.3246 49.93C67.4712 49.556 67.6729 49.2333 67.9296 48.962C68.1936 48.6833 68.5052 48.4707 68.8646 48.324C69.2312 48.17 69.6272 48.093 70.0526 48.093C70.4266 48.093 70.7749 48.1663 71.0976 48.313C71.4202 48.4523 71.6989 48.6467 71.9336 48.896C72.1756 49.1453 72.3589 49.4423 72.4836 49.787C72.6156 50.1243 72.6779 50.4947 72.6706 50.898L72.6596 51.382H67.9406L67.6876 50.48H71.6806L71.5156 50.667V50.403C71.4936 50.161 71.4129 49.9447 71.2736 49.754C71.1342 49.5633 70.9582 49.413 70.7456 49.303C70.5329 49.193 70.3019 49.138 70.0526 49.138C69.6566 49.138 69.3229 49.215 69.0516 49.369C68.7802 49.5157 68.5749 49.7357 68.4356 50.029C68.2962 50.315 68.2266 50.6707 68.2266 51.096C68.2266 51.4993 68.3109 51.8513 68.4796 52.152C68.6482 52.4453 68.8866 52.6727 69.1946 52.834C69.5026 52.9953 69.8582 53.076 70.2616 53.076C70.5476 53.076 70.8116 53.0283 71.0536 52.933C71.3029 52.8377 71.5706 52.6653 71.8566 52.416L72.4286 53.219C72.2526 53.395 72.0362 53.549 71.7796 53.681C71.5302 53.813 71.2626 53.9193 70.9766 54C70.6979 54.0733 70.4229 54.11 70.1516 54.11ZM73.9019 54V48.225H75.0459V50.04L74.9359 49.6C75.0165 49.3213 75.1522 49.0683 75.3429 48.841C75.5409 48.6137 75.7645 48.434 76.0139 48.302C76.2705 48.17 76.5345 48.104 76.8059 48.104C76.9305 48.104 77.0479 48.115 77.1579 48.137C77.2752 48.159 77.3669 48.1847 77.4329 48.214L77.1359 49.446C77.0479 49.4093 76.9489 49.38 76.8389 49.358C76.7362 49.3287 76.6335 49.314 76.5309 49.314C76.3329 49.314 76.1422 49.3543 75.9589 49.435C75.7829 49.5083 75.6252 49.6147 75.4859 49.754C75.3539 49.886 75.2475 50.0437 75.1669 50.227C75.0862 50.403 75.0459 50.5973 75.0459 50.81V54H73.9019ZM78.5254 54V48.225H79.6584V54H78.5254ZM79.0754 46.949C78.8334 46.949 78.6464 46.8867 78.5144 46.762C78.3824 46.6373 78.3164 46.4613 78.3164 46.234C78.3164 46.0213 78.3824 45.849 78.5144 45.717C78.6537 45.585 78.8407 45.519 79.0754 45.519C79.3174 45.519 79.5044 45.5813 79.6364 45.706C79.7684 45.8307 79.8344 46.0067 79.8344 46.234C79.8344 46.4467 79.7647 46.619 79.6254 46.751C79.4934 46.883 79.3101 46.949 79.0754 46.949ZM15.8115 68V61.444H13.6555V60.3H19.2215V61.444H16.9995V68H15.8115ZM21.9997 68.11C21.4057 68.11 20.8777 67.9853 20.4157 67.736C19.961 67.4793 19.6017 67.131 19.3377 66.691C19.081 66.251 18.9527 65.745 18.9527 65.173C18.9527 64.7183 19.026 64.304 19.1727 63.93C19.3194 63.556 19.521 63.2333 19.7777 62.962C20.0417 62.6833 20.3534 62.4707 20.7127 62.324C21.0794 62.17 21.4754 62.093 21.9007 62.093C22.2747 62.093 22.623 62.1663 22.9457 62.313C23.2684 62.4523 23.547 62.6467 23.7817 62.896C24.0237 63.1453 24.207 63.4423 24.3317 63.787C24.4637 64.1243 24.526 64.4947 24.5187 64.898L24.5077 65.382H19.7887L19.5357 64.48H23.5287L23.3637 64.667V64.403C23.3417 64.161 23.261 63.9447 23.1217 63.754C22.9824 63.5633 22.8064 63.413 22.5937 63.303C22.381 63.193 22.15 63.138 21.9007 63.138C21.5047 63.138 21.171 63.215 20.8997 63.369C20.6284 63.5157 20.423 63.7357 20.2837 64.029C20.1444 64.315 20.0747 64.6707 20.0747 65.096C20.0747 65.4993 20.159 65.8513 20.3277 66.152C20.4964 66.4453 20.7347 66.6727 21.0427 66.834C21.3507 66.9953 21.7064 67.076 22.1097 67.076C22.3957 67.076 22.6597 67.0283 22.9017 66.933C23.151 66.8377 23.4187 66.6653 23.7047 66.416L24.2767 67.219C24.1007 67.395 23.8844 67.549 23.6277 67.681C23.3784 67.813 23.1107 67.9193 22.8247 68C22.546 68.0733 22.271 68.11 21.9997 68.11ZM26.784 66.196L26.729 64.964L29.49 62.225H31.019L26.784 66.196ZM25.75 68V59.86H26.883V68H25.75ZM29.644 68L27.466 65.459L28.269 64.722L31.096 68H29.644ZM33.9769 68.11C33.5002 68.11 33.0639 67.978 32.6679 67.714C32.2792 67.45 31.9676 67.0907 31.7329 66.636C31.4982 66.1813 31.3809 65.668 31.3809 65.096C31.3809 64.5167 31.4982 64.0033 31.7329 63.556C31.9749 63.1013 32.2976 62.7457 32.7009 62.489C33.1116 62.2323 33.5699 62.104 34.0759 62.104C34.3766 62.104 34.6516 62.148 34.9009 62.236C35.1502 62.324 35.3666 62.4487 35.5499 62.61C35.7406 62.764 35.8946 62.9437 36.0119 63.149C36.1366 63.3543 36.2136 63.5743 36.2429 63.809L35.9899 63.721V62.225H37.1339V68H35.9899V66.625L36.2539 66.548C36.2099 66.746 36.1182 66.9403 35.9789 67.131C35.8469 67.3143 35.6746 67.4793 35.4619 67.626C35.2566 67.7727 35.0256 67.89 34.7689 67.978C34.5196 68.066 34.2556 68.11 33.9769 68.11ZM34.2739 67.065C34.6186 67.065 34.9229 66.9807 35.1869 66.812C35.4509 66.6433 35.6562 66.4123 35.8029 66.119C35.9569 65.8183 36.0339 65.4773 36.0339 65.096C36.0339 64.722 35.9569 64.3883 35.8029 64.095C35.6562 63.8017 35.4509 63.5707 35.1869 63.402C34.9229 63.2333 34.6186 63.149 34.2739 63.149C33.9366 63.149 33.6359 63.2333 33.3719 63.402C33.1152 63.5707 32.9099 63.8017 32.7559 64.095C32.6092 64.3883 32.5359 64.722 32.5359 65.096C32.5359 65.4773 32.6092 65.8183 32.7559 66.119C32.9099 66.4123 33.1152 66.6433 33.3719 66.812C33.6359 66.9807 33.9366 67.065 34.2739 67.065ZM39.4308 68V60.751H40.5638V68H39.4308ZM38.2318 63.325V62.225H41.9058V63.325H38.2318ZM44.3565 68L42.3875 62.225L43.5315 62.214L44.9395 66.537L44.6865 66.515L46.2155 63.138H46.8975L48.4375 66.526L48.1405 66.548L49.5595 62.225H50.7035L48.7565 68H47.9755L46.3695 64.326L46.6225 64.359L45.1265 68H44.3565ZM51.9224 68V62.225H53.0554V68H51.9224ZM52.4724 60.949C52.2304 60.949 52.0434 60.8867 51.9114 60.762C51.7794 60.6373 51.7134 60.4613 51.7134 60.234C51.7134 60.0213 51.7794 59.849 51.9114 59.717C52.0507 59.585 52.2377 59.519 52.4724 59.519C52.7144 59.519 52.9014 59.5813 53.0334 59.706C53.1654 59.8307 53.2314 60.0067 53.2314 60.234C53.2314 60.4467 53.1617 60.619 53.0224 60.751C52.8904 60.883 52.707 60.949 52.4724 60.949ZM55.5119 68V60.751H56.6449V68H55.5119ZM54.3129 63.325V62.225H57.9869V63.325H54.3129ZM59.0186 68V59.86H60.1516V63.413L59.9536 63.545C60.0269 63.2883 60.1699 63.0537 60.3826 62.841C60.5952 62.621 60.8482 62.445 61.1416 62.313C61.4349 62.1737 61.7356 62.104 62.0436 62.104C62.4836 62.104 62.8502 62.192 63.1436 62.368C63.4369 62.5367 63.6569 62.797 63.8036 63.149C63.9502 63.501 64.0236 63.9447 64.0236 64.48V68H62.8906V64.557C62.8906 64.227 62.8466 63.9557 62.7586 63.743C62.6706 63.523 62.5349 63.3653 62.3516 63.27C62.1682 63.1673 61.9409 63.1233 61.6696 63.138C61.4496 63.138 61.2479 63.1747 61.0646 63.248C60.8812 63.314 60.7199 63.4093 60.5806 63.534C60.4486 63.6587 60.3422 63.8053 60.2616 63.974C60.1882 64.1353 60.1516 64.3113 60.1516 64.502V68H59.5906C59.4952 68 59.3999 68 59.3046 68C59.2092 68 59.1139 68 59.0186 68ZM67.7826 68.11C67.3059 68.11 66.8696 67.978 66.4736 67.714C66.0849 67.45 65.7732 67.0907 65.5386 66.636C65.3039 66.1813 65.1866 65.668 65.1866 65.096C65.1866 64.5167 65.3039 64.0033 65.5386 63.556C65.7806 63.1013 66.1032 62.7457 66.5066 62.489C66.9172 62.2323 67.3756 62.104 67.8816 62.104C68.1822 62.104 68.4572 62.148 68.7066 62.236C68.9559 62.324 69.1722 62.4487 69.3556 62.61C69.5462 62.764 69.7002 62.9437 69.8176 63.149C69.9422 63.3543 70.0192 63.5743 70.0486 63.809L69.7956 63.721V62.225H70.9396V68H69.7956V66.625L70.0596 66.548C70.0156 66.746 69.9239 66.9403 69.7846 67.131C69.6526 67.3143 69.4802 67.4793 69.2676 67.626C69.0622 67.7727 68.8312 67.89 68.5746 67.978C68.3252 68.066 68.0612 68.11 67.7826 68.11ZM68.0796 67.065C68.4242 67.065 68.7286 66.9807 68.9926 66.812C69.2566 66.6433 69.4619 66.4123 69.6086 66.119C69.7626 65.8183 69.8396 65.4773 69.8396 65.096C69.8396 64.722 69.7626 64.3883 69.6086 64.095C69.4619 63.8017 69.2566 63.5707 68.9926 63.402C68.7286 63.2333 68.4242 63.149 68.0796 63.149C67.7422 63.149 67.4416 63.2333 67.1776 63.402C66.9209 63.5707 66.7156 63.8017 66.5616 64.095C66.4149 64.3883 66.3416 64.722 66.3416 65.096C66.3416 65.4773 66.4149 65.8183 66.5616 66.119C66.7156 66.4123 66.9209 66.6433 67.1776 66.812C67.4416 66.9807 67.7422 67.065 68.0796 67.065Z" fill="black"/>
<path d="M20 24C26.5 26 32.5 26 39 24C32.5 21 26.5 21 20 24Z" fill="#949494"/>
<path d="M20 24L23 16.5C28 15 31 15 36 16.5L39 24C32.5 21 26.5 21 20 24Z" fill="#B0B0B0"/>
<path d="M23.001 16.226C23.0678 6.98065 26.5194 5.99515 28.5 5.5L28.9621 3.65149C28.9844 3.56246 29.0644 3.5 29.1562 3.5H29.8438C29.9356 3.5 30.0156 3.56246 30.0379 3.65149L30.5 5.5C32.4806 5.99515 35.9322 6.98065 35.999 16.226C36 16.3599 35.8693 16.4608 35.7407 16.423C30.9808 15.0257 28.0192 15.0257 23.2593 16.423C23.1307 16.4608 23 16.3599 23.001 16.226Z" fill="#D1D1D1"/>
<path d="M23 16.5L20.0806 23.7984C20.0372 23.907 20.0964 24.0297 20.2083 24.0635C26.559 25.9788 32.441 25.9788 38.7917 24.0635C38.9036 24.0297 38.9628 23.907 38.9194 23.7984L36 16.5M23 16.5C23 7.03695 26.4728 6.00791 28.4766 5.50586C28.4925 5.50188 28.5083 5.5 28.5246 5.5H30.4754C30.4917 5.5 30.5075 5.50188 30.5234 5.50586C32.5272 6.00791 36 7.03695 36 16.5M23 16.5C28 15 31 15 36 16.5" stroke="#484848"/>
<path d="M29.3536 24.5H29.5H29.6464C29.8728 24.5 30.0899 24.5899 30.25 24.75C30.4101 24.9101 30.5 25.1272 30.5 25.3536V26.6464C30.5 26.8728 30.4101 27.0899 30.25 27.25C30.0899 27.4101 29.8728 27.5 29.6464 27.5H29.3536C29.1272 27.5 28.9101 27.4101 28.75 27.25C28.5899 27.0899 28.5 26.8728 28.5 26.6464V25.3536C28.5 25.1272 28.5899 24.9101 28.75 24.75C28.9101 24.5899 29.1272 24.5 29.3536 24.5Z" fill="black"/>
<path d="M29.5 21.75V24.5M29.5 24.5H29.3536C29.1272 24.5 28.9101 24.5899 28.75 24.75V24.75C28.5899 24.9101 28.5 25.1272 28.5 25.3536V26.6464C28.5 26.8728 28.5899 27.0899 28.75 27.25V27.25C28.9101 27.4101 29.1272 27.5 29.3536 27.5H29.6464C29.8728 27.5 30.0899 27.4101 30.25 27.25V27.25C30.4101 27.0899 30.5 26.8728 30.5 26.6464V25.3536C30.5 25.1272 30.4101 24.9101 30.25 24.75V24.75C30.0899 24.5899 29.8728 24.5 29.6464 24.5H29.5Z" stroke="#010101"/>
<path d="M23 16.5L20.1865 23.5336C20.1194 23.7016 20.2932 23.866 20.4586 23.7929C26.6304 21.069 32.3696 21.069 38.5414 23.7929C38.7068 23.866 38.8806 23.7016 38.8135 23.5336L36 16.5M23 16.5C23 7 26.5 6 28.5 5.5M23 16.5C28 15 31 15 36 16.5M36 16.5C36 7 32.5 6 30.5 5.5M30.5 5.5H28.5M30.5 5.5L30.0379 3.65149C30.0156 3.56246 29.9356 3.5 29.8438 3.5H29.1562C29.0644 3.5 28.9844 3.56246 28.9621 3.65149L28.5 5.5" stroke="#484848"/>
</svg>
