<svg width="105" height="54" viewBox="0 0 105 54" fill="none" xmlns="http://www.w3.org/2000/svg">
<path d="M26.6385 37V29.3H28.5085V37H26.6385ZM21.8645 37V29.3H23.7345V37H21.8645ZM22.5905 33.997L22.6015 32.325H27.6285V33.997H22.5905ZM32.2408 37.121C31.8081 37.121 31.4378 37.0293 31.1298 36.846C30.8291 36.6553 30.5944 36.384 30.4258 36.032C30.2644 35.68 30.1838 35.2583 30.1838 34.767V31.159H31.9548V34.525C31.9548 34.7597 31.9914 34.9613 32.0648 35.13C32.1381 35.2987 32.2481 35.4307 32.3948 35.526C32.5414 35.614 32.7174 35.658 32.9228 35.658C33.0768 35.658 33.2161 35.6323 33.3408 35.581C33.4728 35.5297 33.5828 35.46 33.6708 35.372C33.7661 35.2767 33.8394 35.1703 33.8908 35.053C33.9421 34.9283 33.9678 34.7927 33.9678 34.646V31.159H35.7388V37H34.0778L34.0008 35.801L34.3308 35.669C34.2428 35.9477 34.0961 36.197 33.8908 36.417C33.6854 36.6297 33.4398 36.802 33.1538 36.934C32.8678 37.0587 32.5634 37.121 32.2408 37.121ZM37.3074 37V31.159H38.9794L39.0344 32.347L38.6824 32.479C38.763 32.215 38.906 31.9767 39.1114 31.764C39.324 31.544 39.577 31.368 39.8704 31.236C40.1637 31.104 40.4717 31.038 40.7944 31.038C41.2344 31.038 41.6047 31.1297 41.9054 31.313C42.206 31.489 42.4334 31.7567 42.5874 32.116C42.7414 32.468 42.8184 32.9007 42.8184 33.414V37H41.0474V33.557C41.0474 33.3223 41.0144 33.128 40.9484 32.974C40.8824 32.82 40.7797 32.7063 40.6404 32.633C40.5084 32.5523 40.3434 32.5157 40.1454 32.523C39.9914 32.523 39.8484 32.5487 39.7164 32.6C39.5844 32.644 39.4707 32.7137 39.3754 32.809C39.28 32.897 39.203 32.9997 39.1444 33.117C39.093 33.2343 39.0674 33.3627 39.0674 33.502V37H38.1984C37.993 37 37.817 37 37.6704 37C37.5237 37 37.4027 37 37.3074 37ZM44.7738 37V29.685H46.5338V37H44.7738ZM43.7398 32.699V31.159H47.6668V32.699H43.7398ZM48.7716 37V31.159H50.5316V37H48.7716ZM49.6516 30.004C49.3216 30.004 49.0613 29.927 48.8706 29.773C48.6873 29.6117 48.5956 29.3843 48.5956 29.091C48.5956 28.827 48.6909 28.6107 48.8816 28.442C49.0723 28.2733 49.3289 28.189 49.6516 28.189C49.9816 28.189 50.2383 28.2697 50.4216 28.431C50.6049 28.585 50.6966 28.805 50.6966 29.091C50.6966 29.3623 50.6013 29.5823 50.4106 29.751C50.2273 29.9197 49.9743 30.004 49.6516 30.004ZM52.1853 37V31.159H53.8573L53.9123 32.347L53.5603 32.479C53.641 32.215 53.784 31.9767 53.9893 31.764C54.202 31.544 54.455 31.368 54.7483 31.236C55.0416 31.104 55.3496 31.038 55.6723 31.038C56.1123 31.038 56.4826 31.1297 56.7833 31.313C57.084 31.489 57.3113 31.7567 57.4653 32.116C57.6193 32.468 57.6963 32.9007 57.6963 33.414V37H55.9253V33.557C55.9253 33.3223 55.8923 33.128 55.8263 32.974C55.7603 32.82 55.6576 32.7063 55.5183 32.633C55.3863 32.5523 55.2213 32.5157 55.0233 32.523C54.8693 32.523 54.7263 32.5487 54.5943 32.6C54.4623 32.644 54.3486 32.7137 54.2533 32.809C54.158 32.897 54.081 32.9997 54.0223 33.117C53.971 33.2343 53.9453 33.3627 53.9453 33.502V37H53.0763C52.871 37 52.695 37 52.5483 37C52.4016 37 52.2806 37 52.1853 37ZM61.8407 39.53C61.3641 39.53 60.8874 39.4603 60.4107 39.321C59.9414 39.1817 59.5601 39.002 59.2667 38.782L59.8827 37.55C60.0367 37.6527 60.2054 37.7407 60.3887 37.814C60.5794 37.8947 60.7774 37.957 60.9827 38.001C61.1881 38.045 61.3971 38.067 61.6097 38.067C61.9837 38.067 62.2881 38.012 62.5227 37.902C62.7574 37.792 62.9334 37.6233 63.0507 37.396C63.1681 37.176 63.2267 36.8973 63.2267 36.56V35.581L63.5677 35.636C63.5164 35.878 63.3881 36.098 63.1827 36.296C62.9847 36.494 62.7391 36.6553 62.4457 36.78C62.1524 36.8973 61.8407 36.956 61.5107 36.956C60.9827 36.956 60.5097 36.835 60.0917 36.593C59.6811 36.3437 59.3547 36.0027 59.1127 35.57C58.8781 35.13 58.7607 34.624 58.7607 34.052C58.7607 33.4653 58.8781 32.9483 59.1127 32.501C59.3474 32.0463 59.6701 31.6907 60.0807 31.434C60.4914 31.17 60.9534 31.038 61.4667 31.038C61.6867 31.038 61.8957 31.0637 62.0937 31.115C62.2991 31.1663 62.4861 31.236 62.6547 31.324C62.8307 31.4047 62.9847 31.5037 63.1167 31.621C63.2561 31.731 63.3661 31.852 63.4467 31.984C63.5347 32.116 63.5934 32.2517 63.6227 32.391L63.2597 32.479L63.3257 31.159H64.9977V36.527C64.9977 37.0037 64.9244 37.4253 64.7777 37.792C64.6384 38.166 64.4294 38.4813 64.1507 38.738C63.8794 39.002 63.5494 39.2 63.1607 39.332C62.7721 39.464 62.3321 39.53 61.8407 39.53ZM61.8847 35.592C62.1707 35.592 62.4164 35.5297 62.6217 35.405C62.8344 35.273 62.9957 35.0933 63.1057 34.866C63.2231 34.6387 63.2817 34.371 63.2817 34.063C63.2817 33.755 63.2231 33.4873 63.1057 33.26C62.9957 33.0253 62.8344 32.8457 62.6217 32.721C62.4164 32.589 62.1707 32.523 61.8847 32.523C61.6061 32.523 61.3641 32.589 61.1587 32.721C60.9534 32.8457 60.7921 33.0253 60.6747 33.26C60.5647 33.4873 60.5097 33.755 60.5097 34.063C60.5097 34.371 60.5647 34.6387 60.6747 34.866C60.7921 35.0933 60.9534 35.273 61.1587 35.405C61.3641 35.5297 61.6061 35.592 61.8847 35.592ZM67.0101 37V29.685H68.7701V37H67.0101ZM65.9761 32.699V31.159H69.9031V32.699H65.9761ZM73.6052 37.11C72.9966 37.11 72.4539 36.978 71.9772 36.714C71.5079 36.45 71.1339 36.0907 70.8552 35.636C70.5839 35.1813 70.4482 34.6607 70.4482 34.074C70.4482 33.4873 70.5839 32.9667 70.8552 32.512C71.1339 32.0573 71.5079 31.698 71.9772 31.434C72.4539 31.17 72.9966 31.038 73.6052 31.038C74.2139 31.038 74.7529 31.17 75.2222 31.434C75.6989 31.698 76.0729 32.0573 76.3442 32.512C76.6156 32.9667 76.7512 33.4873 76.7512 34.074C76.7512 34.6607 76.6156 35.1813 76.3442 35.636C76.0729 36.0907 75.6989 36.45 75.2222 36.714C74.7529 36.978 74.2139 37.11 73.6052 37.11ZM73.6052 35.592C73.8692 35.592 74.1039 35.526 74.3092 35.394C74.5146 35.262 74.6759 35.0823 74.7932 34.855C74.9106 34.6277 74.9656 34.3673 74.9582 34.074C74.9656 33.7807 74.9106 33.5203 74.7932 33.293C74.6759 33.0583 74.5146 32.875 74.3092 32.743C74.1039 32.611 73.8692 32.545 73.6052 32.545C73.3412 32.545 73.1029 32.611 72.8902 32.743C72.6849 32.875 72.5236 33.0583 72.4062 33.293C72.2889 33.5203 72.2339 33.7807 72.2412 34.074C72.2339 34.3673 72.2889 34.6277 72.4062 34.855C72.5236 35.0823 72.6849 35.262 72.8902 35.394C73.1029 35.526 73.3412 35.592 73.6052 35.592ZM77.9021 37V31.159H79.5741L79.6291 32.347L79.2771 32.479C79.3578 32.215 79.5008 31.9767 79.7061 31.764C79.9188 31.544 80.1718 31.368 80.4651 31.236C80.7584 31.104 81.0664 31.038 81.3891 31.038C81.8291 31.038 82.1994 31.1297 82.5001 31.313C82.8008 31.489 83.0281 31.7567 83.1821 32.116C83.3361 32.468 83.4131 32.9007 83.4131 33.414V37H81.6421V33.557C81.6421 33.3223 81.6091 33.128 81.5431 32.974C81.4771 32.82 81.3744 32.7063 81.2351 32.633C81.1031 32.5523 80.9381 32.5157 80.7401 32.523C80.5861 32.523 80.4431 32.5487 80.3111 32.6C80.1791 32.644 80.0654 32.7137 79.9701 32.809C79.8748 32.897 79.7978 32.9997 79.7391 33.117C79.6878 33.2343 79.6621 33.3627 79.6621 33.502V37H78.7931C78.5878 37 78.4118 37 78.2651 37C78.1184 37 77.9974 37 77.9021 37ZM3.24548 51V43.3H4.41148L7.21648 47.865L6.65548 47.854L9.49348 43.3H10.5935V51H9.40548V47.843C9.40548 47.183 9.42015 46.589 9.44948 46.061C9.48615 45.533 9.54481 45.0087 9.62548 44.488L9.77948 44.895L7.26048 48.789H6.53448L4.09248 44.939L4.21348 44.488C4.29415 44.9793 4.34915 45.4853 4.37848 46.006C4.41515 46.5193 4.43348 47.1317 4.43348 47.843V51H3.24548ZM12.6533 51V45.225H13.7863V51H12.6533ZM13.2033 43.949C12.9613 43.949 12.7743 43.8867 12.6423 43.762C12.5103 43.6373 12.4443 43.4613 12.4443 43.234C12.4443 43.0213 12.5103 42.849 12.6423 42.717C12.7816 42.585 12.9686 42.519 13.2033 42.519C13.4453 42.519 13.6323 42.5813 13.7643 42.706C13.8963 42.8307 13.9623 43.0067 13.9623 43.234C13.9623 43.4467 13.8926 43.619 13.7533 43.751C13.6213 43.883 13.438 43.949 13.2033 43.949ZM17.4528 51.11C16.9688 51.11 16.5325 51.0257 16.1438 50.857C15.7552 50.6883 15.4325 50.439 15.1758 50.109L15.9458 49.449C16.1658 49.7057 16.4042 49.8927 16.6608 50.01C16.9248 50.12 17.2218 50.175 17.5518 50.175C17.6838 50.175 17.8048 50.1603 17.9148 50.131C18.0322 50.0943 18.1312 50.043 18.2118 49.977C18.2998 49.911 18.3658 49.834 18.4098 49.746C18.4538 49.6507 18.4758 49.548 18.4758 49.438C18.4758 49.2473 18.4062 49.0933 18.2668 48.976C18.1935 48.9247 18.0762 48.8697 17.9148 48.811C17.7608 48.745 17.5592 48.679 17.3098 48.613C16.8845 48.503 16.5362 48.3783 16.2648 48.239C15.9935 48.0997 15.7845 47.942 15.6378 47.766C15.5278 47.6267 15.4472 47.4763 15.3958 47.315C15.3445 47.1463 15.3188 46.963 15.3188 46.765C15.3188 46.523 15.3702 46.303 15.4728 46.105C15.5828 45.8997 15.7295 45.7237 15.9128 45.577C16.1035 45.423 16.3235 45.3057 16.5728 45.225C16.8295 45.1443 17.1008 45.104 17.3868 45.104C17.6582 45.104 17.9258 45.1407 18.1898 45.214C18.4612 45.2873 18.7105 45.3937 18.9378 45.533C19.1652 45.6723 19.3558 45.8373 19.5098 46.028L18.8608 46.743C18.7215 46.6037 18.5675 46.4827 18.3988 46.38C18.2375 46.27 18.0725 46.1857 17.9038 46.127C17.7352 46.0683 17.5812 46.039 17.4418 46.039C17.2878 46.039 17.1485 46.0537 17.0238 46.083C16.8992 46.1123 16.7928 46.1563 16.7048 46.215C16.6242 46.2737 16.5618 46.347 16.5178 46.435C16.4738 46.523 16.4518 46.622 16.4518 46.732C16.4592 46.8273 16.4812 46.919 16.5178 47.007C16.5618 47.0877 16.6205 47.1573 16.6938 47.216C16.7745 47.2747 16.8955 47.337 17.0568 47.403C17.2182 47.469 17.4235 47.5313 17.6728 47.59C18.0395 47.6853 18.3402 47.7917 18.5748 47.909C18.8168 48.019 19.0075 48.1473 19.1468 48.294C19.2935 48.4333 19.3962 48.5947 19.4548 48.778C19.5135 48.9613 19.5428 49.1667 19.5428 49.394C19.5428 49.724 19.4475 50.021 19.2568 50.285C19.0735 50.5417 18.8242 50.7433 18.5088 50.89C18.1935 51.0367 17.8415 51.11 17.4528 51.11ZM22.7165 51.11C22.2325 51.11 21.7962 51.0257 21.4075 50.857C21.0188 50.6883 20.6962 50.439 20.4395 50.109L21.2095 49.449C21.4295 49.7057 21.6678 49.8927 21.9245 50.01C22.1885 50.12 22.4855 50.175 22.8155 50.175C22.9475 50.175 23.0685 50.1603 23.1785 50.131C23.2958 50.0943 23.3948 50.043 23.4755 49.977C23.5635 49.911 23.6295 49.834 23.6735 49.746C23.7175 49.6507 23.7395 49.548 23.7395 49.438C23.7395 49.2473 23.6698 49.0933 23.5305 48.976C23.4572 48.9247 23.3398 48.8697 23.1785 48.811C23.0245 48.745 22.8228 48.679 22.5735 48.613C22.1482 48.503 21.7998 48.3783 21.5285 48.239C21.2572 48.0997 21.0482 47.942 20.9015 47.766C20.7915 47.6267 20.7108 47.4763 20.6595 47.315C20.6082 47.1463 20.5825 46.963 20.5825 46.765C20.5825 46.523 20.6338 46.303 20.7365 46.105C20.8465 45.8997 20.9932 45.7237 21.1765 45.577C21.3672 45.423 21.5872 45.3057 21.8365 45.225C22.0932 45.1443 22.3645 45.104 22.6505 45.104C22.9218 45.104 23.1895 45.1407 23.4535 45.214C23.7248 45.2873 23.9742 45.3937 24.2015 45.533C24.4288 45.6723 24.6195 45.8373 24.7735 46.028L24.1245 46.743C23.9852 46.6037 23.8312 46.4827 23.6625 46.38C23.5012 46.27 23.3362 46.1857 23.1675 46.127C22.9988 46.0683 22.8448 46.039 22.7055 46.039C22.5515 46.039 22.4122 46.0537 22.2875 46.083C22.1628 46.1123 22.0565 46.1563 21.9685 46.215C21.8878 46.2737 21.8255 46.347 21.7815 46.435C21.7375 46.523 21.7155 46.622 21.7155 46.732C21.7228 46.8273 21.7448 46.919 21.7815 47.007C21.8255 47.0877 21.8842 47.1573 21.9575 47.216C22.0382 47.2747 22.1592 47.337 22.3205 47.403C22.4818 47.469 22.6872 47.5313 22.9365 47.59C23.3032 47.6853 23.6038 47.7917 23.8385 47.909C24.0805 48.019 24.2712 48.1473 24.4105 48.294C24.5572 48.4333 24.6598 48.5947 24.7185 48.778C24.7772 48.9613 24.8065 49.1667 24.8065 49.394C24.8065 49.724 24.7112 50.021 24.5205 50.285C24.3372 50.5417 24.0878 50.7433 23.7725 50.89C23.4572 51.0367 23.1052 51.11 22.7165 51.11ZM26.2422 51V45.225H27.3752V51H26.2422ZM26.7922 43.949C26.5502 43.949 26.3632 43.8867 26.2312 43.762C26.0992 43.6373 26.0332 43.4613 26.0332 43.234C26.0332 43.0213 26.0992 42.849 26.2312 42.717C26.3705 42.585 26.5575 42.519 26.7922 42.519C27.0342 42.519 27.2212 42.5813 27.3532 42.706C27.4852 42.8307 27.5512 43.0067 27.5512 43.234C27.5512 43.4467 27.4815 43.619 27.3422 43.751C27.2102 43.883 27.0269 43.949 26.7922 43.949ZM31.7127 51.11C31.148 51.11 30.642 50.9817 30.1947 50.725C29.7547 50.461 29.4064 50.1053 29.1497 49.658C28.893 49.2033 28.7647 48.6863 28.7647 48.107C28.7647 47.5277 28.893 47.0143 29.1497 46.567C29.4064 46.1123 29.7547 45.7567 30.1947 45.5C30.642 45.236 31.148 45.104 31.7127 45.104C32.27 45.104 32.7687 45.236 33.2087 45.5C33.656 45.7567 34.008 46.1123 34.2647 46.567C34.5214 47.0143 34.6497 47.5277 34.6497 48.107C34.6497 48.6863 34.5214 49.2033 34.2647 49.658C34.008 50.1053 33.656 50.461 33.2087 50.725C32.7687 50.9817 32.27 51.11 31.7127 51.11ZM31.7127 50.076C32.0574 50.076 32.3654 49.9917 32.6367 49.823C32.908 49.647 33.1207 49.4123 33.2747 49.119C33.4287 48.8183 33.502 48.481 33.4947 48.107C33.502 47.7257 33.4287 47.3883 33.2747 47.095C33.1207 46.7943 32.908 46.5597 32.6367 46.391C32.3654 46.2223 32.0574 46.138 31.7127 46.138C31.368 46.138 31.0564 46.226 30.7777 46.402C30.5064 46.5707 30.2937 46.8053 30.1397 47.106C29.9857 47.3993 29.9124 47.733 29.9197 48.107C29.9124 48.481 29.9857 48.8183 30.1397 49.119C30.2937 49.4123 30.5064 49.647 30.7777 49.823C31.0564 49.9917 31.368 50.076 31.7127 50.076ZM35.8843 51V45.225H37.0173V46.413L36.8193 46.545C36.8926 46.2883 37.0356 46.0537 37.2483 45.841C37.461 45.621 37.714 45.445 38.0073 45.313C38.3006 45.1737 38.6013 45.104 38.9093 45.104C39.3493 45.104 39.716 45.192 40.0093 45.368C40.3026 45.5367 40.5226 45.797 40.6693 46.149C40.816 46.501 40.8893 46.9447 40.8893 47.48V51H39.7563V47.557C39.7563 47.227 39.7123 46.9557 39.6243 46.743C39.5363 46.523 39.4006 46.3653 39.2173 46.27C39.034 46.1673 38.8066 46.1233 38.5353 46.138C38.3153 46.138 38.1136 46.1747 37.9303 46.248C37.747 46.314 37.5856 46.4093 37.4463 46.534C37.3143 46.6587 37.208 46.8053 37.1273 46.974C37.054 47.1353 37.0173 47.3113 37.0173 47.502V51H36.4563C36.361 51 36.2656 51 36.1703 51C36.075 51 35.9796 51 35.8843 51ZM48.1713 51.11C47.7533 51.11 47.3646 51.055 47.0053 50.945C46.6533 50.835 46.3306 50.67 46.0373 50.45C45.7513 50.2227 45.4946 49.944 45.2673 49.614L46.0813 48.679C46.4406 49.1923 46.7853 49.548 47.1153 49.746C47.4453 49.944 47.8376 50.043 48.2923 50.043C48.571 50.043 48.824 49.999 49.0513 49.911C49.2786 49.823 49.4583 49.702 49.5903 49.548C49.7223 49.394 49.7883 49.218 49.7883 49.02C49.7883 48.888 49.7663 48.7633 49.7223 48.646C49.6783 48.5287 49.6086 48.4223 49.5133 48.327C49.4253 48.2317 49.308 48.1437 49.1613 48.063C49.022 47.9823 48.857 47.9127 48.6663 47.854C48.4756 47.788 48.2556 47.733 48.0063 47.689C47.6103 47.6083 47.2656 47.502 46.9723 47.37C46.679 47.238 46.4333 47.073 46.2353 46.875C46.0373 46.677 45.8906 46.4533 45.7953 46.204C45.7 45.9473 45.6523 45.6613 45.6523 45.346C45.6523 45.038 45.7183 44.752 45.8503 44.488C45.9896 44.224 46.1766 43.9967 46.4113 43.806C46.6533 43.608 46.9356 43.4577 47.2583 43.355C47.581 43.245 47.9293 43.19 48.3033 43.19C48.6993 43.19 49.0623 43.2413 49.3923 43.344C49.7223 43.4467 50.0156 43.6007 50.2723 43.806C50.529 44.004 50.7416 44.2497 50.9103 44.543L50.0743 45.368C49.9276 45.126 49.7626 44.9243 49.5793 44.763C49.396 44.5943 49.1943 44.4697 48.9743 44.389C48.7543 44.301 48.5196 44.257 48.2703 44.257C47.9843 44.257 47.735 44.301 47.5223 44.389C47.3096 44.477 47.141 44.6017 47.0163 44.763C46.899 44.917 46.8403 45.1003 46.8403 45.313C46.8403 45.467 46.8696 45.61 46.9283 45.742C46.987 45.8667 47.075 45.9803 47.1923 46.083C47.317 46.1783 47.482 46.2663 47.6873 46.347C47.8926 46.4203 48.1383 46.4863 48.4243 46.545C48.8276 46.633 49.187 46.7467 49.5023 46.886C49.8176 47.018 50.0853 47.1757 50.3053 47.359C50.5253 47.5423 50.6903 47.7477 50.8003 47.975C50.9176 48.2023 50.9763 48.448 50.9763 48.712C50.9763 49.2033 50.8626 49.6287 50.6353 49.988C50.408 50.3473 50.0853 50.626 49.6673 50.824C49.2493 51.0147 48.7506 51.11 48.1713 51.11ZM54.5955 51.11C54.1189 51.11 53.6825 50.978 53.2865 50.714C52.8979 50.45 52.5862 50.0907 52.3515 49.636C52.1169 49.1813 51.9995 48.668 51.9995 48.096C51.9995 47.5167 52.1169 47.0033 52.3515 46.556C52.5935 46.1013 52.9162 45.7457 53.3195 45.489C53.7302 45.2323 54.1885 45.104 54.6945 45.104C54.9952 45.104 55.2702 45.148 55.5195 45.236C55.7689 45.324 55.9852 45.4487 56.1685 45.61C56.3592 45.764 56.5132 45.9437 56.6305 46.149C56.7552 46.3543 56.8322 46.5743 56.8615 46.809L56.6085 46.721V45.225H57.7525V51H56.6085V49.625L56.8725 49.548C56.8285 49.746 56.7369 49.9403 56.5975 50.131C56.4655 50.3143 56.2932 50.4793 56.0805 50.626C55.8752 50.7727 55.6442 50.89 55.3875 50.978C55.1382 51.066 54.8742 51.11 54.5955 51.11ZM54.8925 50.065C55.2372 50.065 55.5415 49.9807 55.8055 49.812C56.0695 49.6433 56.2749 49.4123 56.4215 49.119C56.5755 48.8183 56.6525 48.4773 56.6525 48.096C56.6525 47.722 56.5755 47.3883 56.4215 47.095C56.2749 46.8017 56.0695 46.5707 55.8055 46.402C55.5415 46.2333 55.2372 46.149 54.8925 46.149C54.5552 46.149 54.2545 46.2333 53.9905 46.402C53.7339 46.5707 53.5285 46.8017 53.3745 47.095C53.2279 47.3883 53.1545 47.722 53.1545 48.096C53.1545 48.4773 53.2279 48.8183 53.3745 49.119C53.5285 49.4123 53.7339 49.6433 53.9905 49.812C54.2545 49.9807 54.5552 50.065 54.8925 50.065ZM59.3345 51V45.225H60.4675V46.413L60.2695 46.545C60.3428 46.2883 60.4858 46.0537 60.6985 45.841C60.9111 45.621 61.1641 45.445 61.4575 45.313C61.7508 45.1737 62.0515 45.104 62.3595 45.104C62.7995 45.104 63.1661 45.192 63.4595 45.368C63.7528 45.5367 63.9728 45.797 64.1195 46.149C64.2661 46.501 64.3395 46.9447 64.3395 47.48V51H63.2065V47.557C63.2065 47.227 63.1625 46.9557 63.0745 46.743C62.9865 46.523 62.8508 46.3653 62.6675 46.27C62.4841 46.1673 62.2568 46.1233 61.9855 46.138C61.7655 46.138 61.5638 46.1747 61.3805 46.248C61.1971 46.314 61.0358 46.4093 60.8965 46.534C60.7645 46.6587 60.6581 46.8053 60.5775 46.974C60.5041 47.1353 60.4675 47.3113 60.4675 47.502V51H59.9065C59.8111 51 59.7158 51 59.6205 51C59.5251 51 59.4298 51 59.3345 51ZM69.2455 51V43.3H72.5235C72.9635 43.3 73.3668 43.41 73.7335 43.63C74.1075 43.8427 74.4045 44.136 74.6245 44.51C74.8445 44.8767 74.9545 45.291 74.9545 45.753C74.9545 46.171 74.8445 46.5597 74.6245 46.919C74.4045 47.2783 74.1111 47.568 73.7445 47.788C73.3778 48.0007 72.9708 48.107 72.5235 48.107H70.4335V51H69.2455ZM73.8215 51L71.8635 47.524L73.0845 47.249L75.2625 51.011L73.8215 51ZM70.4335 46.963H72.6335C72.8461 46.963 73.0368 46.9117 73.2055 46.809C73.3741 46.699 73.5061 46.5523 73.6015 46.369C73.6968 46.1783 73.7445 45.9693 73.7445 45.742C73.7445 45.4853 73.6821 45.2617 73.5575 45.071C73.4401 44.873 73.2715 44.719 73.0515 44.609C72.8388 44.499 72.5968 44.444 72.3255 44.444H70.4335V46.963ZM78.6151 51.11C78.1384 51.11 77.7021 50.978 77.3061 50.714C76.9174 50.45 76.6057 50.0907 76.3711 49.636C76.1364 49.1813 76.0191 48.668 76.0191 48.096C76.0191 47.5167 76.1364 47.0033 76.3711 46.556C76.6131 46.1013 76.9357 45.7457 77.3391 45.489C77.7497 45.2323 78.2081 45.104 78.7141 45.104C79.0147 45.104 79.2897 45.148 79.5391 45.236C79.7884 45.324 80.0047 45.4487 80.1881 45.61C80.3787 45.764 80.5327 45.9437 80.6501 46.149C80.7747 46.3543 80.8517 46.5743 80.8811 46.809L80.6281 46.721V45.225H81.7721V51H80.6281V49.625L80.8921 49.548C80.8481 49.746 80.7564 49.9403 80.6171 50.131C80.4851 50.3143 80.3127 50.4793 80.1001 50.626C79.8947 50.7727 79.6637 50.89 79.4071 50.978C79.1577 51.066 78.8937 51.11 78.6151 51.11ZM78.9121 50.065C79.2567 50.065 79.5611 49.9807 79.8251 49.812C80.0891 49.6433 80.2944 49.4123 80.4411 49.119C80.5951 48.8183 80.6721 48.4773 80.6721 48.096C80.6721 47.722 80.5951 47.3883 80.4411 47.095C80.2944 46.8017 80.0891 46.5707 79.8251 46.402C79.5611 46.2333 79.2567 46.149 78.9121 46.149C78.5747 46.149 78.2741 46.2333 78.0101 46.402C77.7534 46.5707 77.5481 46.8017 77.3941 47.095C77.2474 47.3883 77.1741 47.722 77.1741 48.096C77.1741 48.4773 77.2474 48.8183 77.3941 49.119C77.5481 49.4123 77.7534 49.6433 78.0101 49.812C78.2741 49.9807 78.5747 50.065 78.9121 50.065ZM83.981 51V44.576C83.981 44.246 84.0543 43.9527 84.201 43.696C84.3477 43.4393 84.5493 43.2377 84.806 43.091C85.0627 42.9443 85.3597 42.871 85.697 42.871C85.9317 42.871 86.1517 42.915 86.357 43.003C86.5623 43.091 86.7273 43.2083 86.852 43.355L86.467 44.224C86.3717 44.136 86.2653 44.0663 86.148 44.015C86.038 43.9563 85.9317 43.927 85.829 43.927C85.675 43.927 85.543 43.9527 85.433 44.004C85.3303 44.048 85.2533 44.1213 85.202 44.224C85.1507 44.3193 85.125 44.4367 85.125 44.576V51H84.553C84.4577 51 84.3623 51 84.267 51C84.1717 51 84.0763 51 83.981 51ZM83.057 46.369V45.324H86.489V46.369H83.057ZM89.6795 51.11C89.2029 51.11 88.7665 50.978 88.3705 50.714C87.9819 50.45 87.6702 50.0907 87.4355 49.636C87.2009 49.1813 87.0835 48.668 87.0835 48.096C87.0835 47.5167 87.2009 47.0033 87.4355 46.556C87.6775 46.1013 88.0002 45.7457 88.4035 45.489C88.8142 45.2323 89.2725 45.104 89.7785 45.104C90.0792 45.104 90.3542 45.148 90.6035 45.236C90.8529 45.324 91.0692 45.4487 91.2525 45.61C91.4432 45.764 91.5972 45.9437 91.7145 46.149C91.8392 46.3543 91.9162 46.5743 91.9455 46.809L91.6925 46.721V45.225H92.8365V51H91.6925V49.625L91.9565 49.548C91.9125 49.746 91.8209 49.9403 91.6815 50.131C91.5495 50.3143 91.3772 50.4793 91.1645 50.626C90.9592 50.7727 90.7282 50.89 90.4715 50.978C90.2222 51.066 89.9582 51.11 89.6795 51.11ZM89.9765 50.065C90.3212 50.065 90.6255 49.9807 90.8895 49.812C91.1535 49.6433 91.3589 49.4123 91.5055 49.119C91.6595 48.8183 91.7365 48.4773 91.7365 48.096C91.7365 47.722 91.6595 47.3883 91.5055 47.095C91.3589 46.8017 91.1535 46.5707 90.8895 46.402C90.6255 46.2333 90.3212 46.149 89.9765 46.149C89.6392 46.149 89.3385 46.2333 89.0745 46.402C88.8179 46.5707 88.6125 46.8017 88.4585 47.095C88.3119 47.3883 88.2385 47.722 88.2385 48.096C88.2385 48.4773 88.3119 48.8183 88.4585 49.119C88.6125 49.4123 88.8179 49.6433 89.0745 49.812C89.3385 49.9807 89.6392 50.065 89.9765 50.065ZM97.1135 51.11C96.5195 51.11 95.9915 50.9853 95.5295 50.736C95.0748 50.4793 94.7155 50.131 94.4515 49.691C94.1948 49.251 94.0665 48.745 94.0665 48.173C94.0665 47.7183 94.1398 47.304 94.2865 46.93C94.4331 46.556 94.6348 46.2333 94.8915 45.962C95.1555 45.6833 95.4671 45.4707 95.8265 45.324C96.1931 45.17 96.5891 45.093 97.0145 45.093C97.3885 45.093 97.7368 45.1663 98.0595 45.313C98.3821 45.4523 98.6608 45.6467 98.8955 45.896C99.1375 46.1453 99.3208 46.4423 99.4455 46.787C99.5775 47.1243 99.6398 47.4947 99.6325 47.898L99.6215 48.382H94.9025L94.6495 47.48H98.6425L98.4775 47.667V47.403C98.4555 47.161 98.3748 46.9447 98.2355 46.754C98.0961 46.5633 97.9201 46.413 97.7075 46.303C97.4948 46.193 97.2638 46.138 97.0145 46.138C96.6185 46.138 96.2848 46.215 96.0135 46.369C95.7421 46.5157 95.5368 46.7357 95.3975 47.029C95.2581 47.315 95.1885 47.6707 95.1885 48.096C95.1885 48.4993 95.2728 48.8513 95.4415 49.152C95.6101 49.4453 95.8485 49.6727 96.1565 49.834C96.4645 49.9953 96.8201 50.076 97.2235 50.076C97.5095 50.076 97.7735 50.0283 98.0155 49.933C98.2648 49.8377 98.5325 49.6653 98.8185 49.416L99.3905 50.219C99.2145 50.395 98.9981 50.549 98.7415 50.681C98.4921 50.813 98.2245 50.9193 97.9385 51C97.6598 51.0733 97.3848 51.11 97.1135 51.11ZM100.886 51V42.86H102.019V51H100.886Z" fill="black"/>
<path d="M42 23.5C48.5 25.5 54.5 25.5 61 23.5C54.5 20.5 48.5 20.5 42 23.5Z" fill="#949494"/>
<path d="M42 23.5L45 16C50 14.5 53 14.5 58 16L61 23.5C54.5 20.5 48.5 20.5 42 23.5Z" fill="#B0B0B0"/>
<path d="M45.001 15.726C45.0678 6.48065 48.5194 5.49515 50.5 5L50.9621 3.15149C50.9844 3.06246 51.0644 3 51.1562 3H51.8438C51.9356 3 52.0156 3.06246 52.0379 3.15149L52.5 5C54.4806 5.49515 57.9322 6.48065 57.999 15.726C58 15.8599 57.8693 15.9608 57.7407 15.923C52.9808 14.5257 50.0192 14.5257 45.2593 15.923C45.1307 15.9608 45 15.8599 45.001 15.726Z" fill="#D1D1D1"/>
<path d="M45 16L42.0806 23.2984C42.0372 23.407 42.0964 23.5297 42.2083 23.5635C48.559 25.4788 54.441 25.4788 60.7917 23.5635C60.9036 23.5297 60.9628 23.407 60.9194 23.2984L58 16M45 16C45 6.53695 48.4728 5.50791 50.4766 5.00586C50.4925 5.00188 50.5083 5 50.5246 5H52.4754C52.4917 5 52.5075 5.00188 52.5234 5.00586C54.5272 5.50791 58 6.53695 58 16M45 16C50 14.5 53 14.5 58 16" stroke="#484848"/>
<path d="M51.3536 24H51.5H51.6464C51.8728 24 52.0899 24.0899 52.25 24.25C52.4101 24.4101 52.5 24.6272 52.5 24.8536V26.1464C52.5 26.3728 52.4101 26.5899 52.25 26.75C52.0899 26.9101 51.8728 27 51.6464 27H51.3536C51.1272 27 50.9101 26.9101 50.75 26.75C50.5899 26.5899 50.5 26.3728 50.5 26.1464V24.8536C50.5 24.6272 50.5899 24.4101 50.75 24.25C50.9101 24.0899 51.1272 24 51.3536 24Z" fill="black"/>
<path d="M51.5 21.25V24M51.5 24H51.3536C51.1272 24 50.9101 24.0899 50.75 24.25V24.25C50.5899 24.4101 50.5 24.6272 50.5 24.8536V26.1464C50.5 26.3728 50.5899 26.5899 50.75 26.75V26.75C50.9101 26.9101 51.1272 27 51.3536 27H51.6464C51.8728 27 52.0899 26.9101 52.25 26.75V26.75C52.4101 26.5899 52.5 26.3728 52.5 26.1464V24.8536C52.5 24.6272 52.4101 24.4101 52.25 24.25V24.25C52.0899 24.0899 51.8728 24 51.6464 24H51.5Z" stroke="#010101"/>
<path d="M45 16L42.1865 23.0336C42.1194 23.2016 42.2932 23.366 42.4586 23.2929C48.6304 20.569 54.3696 20.569 60.5414 23.2929C60.7068 23.366 60.8806 23.2016 60.8135 23.0336L58 16M45 16C45 6.5 48.5 5.5 50.5 5M45 16C50 14.5 53 14.5 58 16M58 16C58 6.5 54.5 5.5 52.5 5M52.5 5H50.5M52.5 5L52.0379 3.15149C52.0156 3.06246 51.9356 3 51.8438 3H51.1562C51.0644 3 50.9844 3.06246 50.9621 3.15149L50.5 5" stroke="#484848"/>
</svg>
