<svg width="112" height="43" viewBox="0 0 112 43" fill="none" xmlns="http://www.w3.org/2000/svg">
<path d="M18.5657 3H13.4343C13.0349 3 12.7967 3.44507 13.0182 3.77735L14.416 5.87404C14.4708 5.95617 14.5 6.05268 14.5 6.15139V7.5V11.5C14.5 11.7761 14.2761 12 14 12H10H7.15139C7.05268 12 6.95617 11.9708 6.87404 11.916L4.77735 10.5182C4.44507 10.2967 4 10.5349 4 10.9343V16.0657C4 16.4651 4.44507 16.7033 4.77735 16.4818L6.87404 15.084C6.95617 15.0292 7.05268 15 7.15139 15H10H14C14.2761 15 14.5 15.2239 14.5 15.5V19V34.882C14.5 34.9596 14.4819 35.0361 14.4472 35.1056L13.3618 37.2764C13.1956 37.6088 13.4373 38 13.809 38H18.191C18.5627 38 18.8044 37.6088 18.6382 37.2764L17.5528 35.1056C17.5181 35.0361 17.5 34.9596 17.5 34.882V19V15.5C17.5 15.2239 17.7239 15 18 15H22H24.8486C24.9473 15 25.0438 15.0292 25.126 15.084L27.2227 16.4818C27.5549 16.7033 28 16.4651 28 16.0657V10.9343C28 10.5349 27.5549 10.2967 27.2227 10.5182L25.126 11.916C25.0438 11.9708 24.9473 12 24.8486 12H22H18C17.7239 12 17.5 11.7761 17.5 11.5V7.5V6.15139C17.5 6.05268 17.5292 5.95617 17.584 5.87404L18.9818 3.77735C19.2033 3.44507 18.9651 3 18.5657 3Z" fill="#4F4533"/>
<path d="M14.5 7.5V11.5C14.5 11.7761 14.2761 12 14 12H10M14.5 7.5V6.15139C14.5 6.05268 14.4708 5.95617 14.416 5.87404L13.0182 3.77735C12.7967 3.44507 13.0349 3 13.4343 3H18.5657C18.9651 3 19.2033 3.44507 18.9818 3.77735L17.584 5.87404C17.5292 5.95617 17.5 6.05268 17.5 6.15139V7.5M14.5 7.5C12 7.5 10 9.5 10 12M10 12H7.15139C7.05268 12 6.95617 11.9708 6.87404 11.916L4.77735 10.5182C4.44507 10.2967 4 10.5349 4 10.9343V16.0657C4 16.4651 4.44507 16.7033 4.77735 16.4818L6.87404 15.084C6.95617 15.0292 7.05268 15 7.15139 15H10M17.5 7.5V11.5C17.5 11.7761 17.7239 12 18 12H22M17.5 7.5C20 7.5 22 9.5 22 12M22 12H24.8486C24.9473 12 25.0438 11.9708 25.126 11.916L27.2227 10.5182C27.5549 10.2967 28 10.5349 28 10.9343V16.0657C28 16.4651 27.5549 16.7033 27.2226 16.4818L25.126 15.084C25.0438 15.0292 24.9473 15 24.8486 15H22M22 15H18C17.7239 15 17.5 15.2239 17.5 15.5V19M22 15C22 17.5 20 19 17.5 19M17.5 19V34.882C17.5 34.9596 17.5181 35.0361 17.5528 35.1056L18.6382 37.2764C18.8044 37.6088 18.5627 38 18.191 38H13.809C13.4373 38 13.1956 37.6088 13.3618 37.2764L14.4472 35.1056C14.4819 35.0361 14.5 34.9596 14.5 34.882V19M14.5 19V15.5C14.5 15.2239 14.2761 15 14 15H10M14.5 19C12 19 10 17.5 10 15" stroke="black"/>
<path d="M48.6508 16.745L48.1668 15.172L51.9838 11.3H54.1948L48.6508 16.745ZM47.2868 19V11.3H49.1568V19H47.2868ZM52.2258 19L49.3658 15.238L50.6308 14.149L54.4038 19H52.2258ZM56.8935 19.099C56.4022 19.099 55.9622 18.9707 55.5735 18.714C55.1922 18.45 54.8879 18.0907 54.6605 17.636C54.4332 17.174 54.3195 16.6533 54.3195 16.074C54.3195 15.48 54.4332 14.9557 54.6605 14.501C54.8879 14.0463 55.1995 13.6907 55.5955 13.434C55.9915 13.17 56.4425 13.038 56.9485 13.038C57.2272 13.038 57.4802 13.0783 57.7075 13.159C57.9422 13.2397 58.1475 13.3533 58.3235 13.5C58.4995 13.6393 58.6499 13.8043 58.7745 13.995C58.8992 14.1783 58.9909 14.3763 59.0495 14.589L58.6865 14.545V13.159H60.4355V19H58.6535V17.592L59.0495 17.581C58.9909 17.7863 58.8955 17.9807 58.7635 18.164C58.6315 18.3473 58.4702 18.5087 58.2795 18.648C58.0889 18.7873 57.8762 18.8973 57.6415 18.978C57.4069 19.0587 57.1575 19.099 56.8935 19.099ZM57.3775 17.614C57.6489 17.614 57.8835 17.5517 58.0815 17.427C58.2795 17.3023 58.4335 17.1263 58.5435 16.899C58.6535 16.6643 58.7085 16.3893 58.7085 16.074C58.7085 15.7587 58.6535 15.4873 58.5435 15.26C58.4335 15.0253 58.2795 14.8457 58.0815 14.721C57.8835 14.589 57.6489 14.523 57.3775 14.523C57.1135 14.523 56.8825 14.589 56.6845 14.721C56.4939 14.8457 56.3435 15.0253 56.2335 15.26C56.1235 15.4873 56.0685 15.7587 56.0685 16.074C56.0685 16.3893 56.1235 16.6643 56.2335 16.899C56.3435 17.1263 56.4939 17.3023 56.6845 17.427C56.8825 17.5517 57.1135 17.614 57.3775 17.614ZM61.9885 19V13.159H63.6605L63.7155 14.347L63.3635 14.479C63.4442 14.215 63.5872 13.9767 63.7925 13.764C64.0052 13.544 64.2582 13.368 64.5515 13.236C64.8449 13.104 65.1529 13.038 65.4755 13.038C65.9155 13.038 66.2859 13.1297 66.5865 13.313C66.8872 13.489 67.1145 13.7567 67.2685 14.116C67.4225 14.468 67.4995 14.9007 67.4995 15.414V19H65.7285V15.557C65.7285 15.3223 65.6955 15.128 65.6295 14.974C65.5635 14.82 65.4609 14.7063 65.3215 14.633C65.1895 14.5523 65.0245 14.5157 64.8265 14.523C64.6725 14.523 64.5295 14.5487 64.3975 14.6C64.2655 14.644 64.1519 14.7137 64.0565 14.809C63.9612 14.897 63.8842 14.9997 63.8255 15.117C63.7742 15.2343 63.7485 15.3627 63.7485 15.502V19H62.8795C62.6742 19 62.4982 19 62.3515 19C62.2049 19 62.0839 19 61.9885 19ZM71.1269 19.099C70.6356 19.099 70.1956 18.9707 69.8069 18.714C69.4256 18.45 69.1213 18.0907 68.8939 17.636C68.6666 17.174 68.5529 16.6533 68.5529 16.074C68.5529 15.48 68.6666 14.9557 68.8939 14.501C69.1213 14.0463 69.4329 13.6907 69.8289 13.434C70.2249 13.17 70.6759 13.038 71.1819 13.038C71.4606 13.038 71.7136 13.0783 71.9409 13.159C72.1756 13.2397 72.3809 13.3533 72.5569 13.5C72.7329 13.6393 72.8833 13.8043 73.0079 13.995C73.1326 14.1783 73.2243 14.3763 73.2829 14.589L72.9199 14.545V13.159H74.6689V19H72.8869V17.592L73.2829 17.581C73.2243 17.7863 73.1289 17.9807 72.9969 18.164C72.8649 18.3473 72.7036 18.5087 72.5129 18.648C72.3223 18.7873 72.1096 18.8973 71.8749 18.978C71.6403 19.0587 71.3909 19.099 71.1269 19.099ZM71.6109 17.614C71.8823 17.614 72.1169 17.5517 72.3149 17.427C72.5129 17.3023 72.6669 17.1263 72.7769 16.899C72.8869 16.6643 72.9419 16.3893 72.9419 16.074C72.9419 15.7587 72.8869 15.4873 72.7769 15.26C72.6669 15.0253 72.5129 14.8457 72.3149 14.721C72.1169 14.589 71.8823 14.523 71.6109 14.523C71.3469 14.523 71.1159 14.589 70.9179 14.721C70.7273 14.8457 70.5769 15.0253 70.4669 15.26C70.3569 15.4873 70.3019 15.7587 70.3019 16.074C70.3019 16.3893 70.3569 16.6643 70.4669 16.899C70.5769 17.1263 70.7273 17.3023 70.9179 17.427C71.1159 17.5517 71.3469 17.614 71.6109 17.614ZM79.7309 19.121C79.4669 19.121 79.2139 19.0843 78.9719 19.011C78.7299 18.9377 78.5099 18.8387 78.3119 18.714C78.1213 18.5893 77.9599 18.4463 77.8279 18.285C77.7033 18.1163 77.6189 17.944 77.5749 17.768L77.9599 17.636L77.8609 18.989H76.2219V10.86H77.9929V14.556L77.6299 14.424C77.6739 14.2333 77.7583 14.0573 77.8829 13.896C78.0076 13.7273 78.1653 13.5807 78.3559 13.456C78.5466 13.324 78.7556 13.2213 78.9829 13.148C79.2103 13.0747 79.4449 13.038 79.6869 13.038C80.1929 13.038 80.6403 13.17 81.0289 13.434C81.4249 13.6907 81.7366 14.05 81.9639 14.512C82.1913 14.9667 82.3049 15.4873 82.3049 16.074C82.3049 16.668 82.1913 17.196 81.9639 17.658C81.7439 18.1127 81.4396 18.472 81.0509 18.736C80.6623 18.9927 80.2223 19.121 79.7309 19.121ZM79.2689 17.636C79.5329 17.636 79.7639 17.57 79.9619 17.438C80.1599 17.306 80.3103 17.1263 80.4129 16.899C80.5229 16.6643 80.5779 16.3893 80.5779 16.074C80.5779 15.766 80.5229 15.4947 80.4129 15.26C80.3103 15.0253 80.1599 14.8457 79.9619 14.721C79.7639 14.5963 79.5329 14.534 79.2689 14.534C78.9976 14.534 78.7629 14.5963 78.5649 14.721C78.3669 14.8457 78.2129 15.0253 78.1029 15.26C77.9929 15.4947 77.9379 15.766 77.9379 16.074C77.9379 16.3893 77.9929 16.6643 78.1029 16.899C78.2129 17.1263 78.3669 17.306 78.5649 17.438C78.7629 17.57 78.9976 17.636 79.2689 17.636ZM24.3515 33.11C23.9335 33.11 23.5448 33.055 23.1855 32.945C22.8335 32.835 22.5108 32.67 22.2175 32.45C21.9315 32.2227 21.6748 31.944 21.4475 31.614L22.2615 30.679C22.6208 31.1923 22.9655 31.548 23.2955 31.746C23.6255 31.944 24.0178 32.043 24.4725 32.043C24.7511 32.043 25.0041 31.999 25.2315 31.911C25.4588 31.823 25.6385 31.702 25.7705 31.548C25.9025 31.394 25.9685 31.218 25.9685 31.02C25.9685 30.888 25.9465 30.7633 25.9025 30.646C25.8585 30.5287 25.7888 30.4223 25.6935 30.327C25.6055 30.2317 25.4881 30.1437 25.3415 30.063C25.2021 29.9823 25.0371 29.9127 24.8465 29.854C24.6558 29.788 24.4358 29.733 24.1865 29.689C23.7905 29.6083 23.4458 29.502 23.1525 29.37C22.8591 29.238 22.6135 29.073 22.4155 28.875C22.2175 28.677 22.0708 28.4533 21.9755 28.204C21.8801 27.9473 21.8325 27.6613 21.8325 27.346C21.8325 27.038 21.8985 26.752 22.0305 26.488C22.1698 26.224 22.3568 25.9967 22.5915 25.806C22.8335 25.608 23.1158 25.4577 23.4385 25.355C23.7611 25.245 24.1095 25.19 24.4835 25.19C24.8795 25.19 25.2425 25.2413 25.5725 25.344C25.9025 25.4467 26.1958 25.6007 26.4525 25.806C26.7091 26.004 26.9218 26.2497 27.0905 26.543L26.2545 27.368C26.1078 27.126 25.9428 26.9243 25.7595 26.763C25.5761 26.5943 25.3745 26.4697 25.1545 26.389C24.9345 26.301 24.6998 26.257 24.4505 26.257C24.1645 26.257 23.9151 26.301 23.7025 26.389C23.4898 26.477 23.3211 26.6017 23.1965 26.763C23.0791 26.917 23.0205 27.1003 23.0205 27.313C23.0205 27.467 23.0498 27.61 23.1085 27.742C23.1671 27.8667 23.2551 27.9803 23.3725 28.083C23.4971 28.1783 23.6621 28.2663 23.8675 28.347C24.0728 28.4203 24.3185 28.4863 24.6045 28.545C25.0078 28.633 25.3671 28.7467 25.6825 28.886C25.9978 29.018 26.2655 29.1757 26.4855 29.359C26.7055 29.5423 26.8705 29.7477 26.9805 29.975C27.0978 30.2023 27.1565 30.448 27.1565 30.712C27.1565 31.2033 27.0428 31.6287 26.8155 31.988C26.5881 32.3473 26.2655 32.626 25.8475 32.824C25.4295 33.0147 24.9308 33.11 24.3515 33.11ZM29.2687 33V25.751H30.4017V33H29.2687ZM28.0697 28.325V27.225H31.7437V28.325H28.0697ZM33.2374 33.121C32.9954 33.121 32.8084 33.0513 32.6764 32.912C32.5444 32.7653 32.4784 32.56 32.4784 32.296C32.4784 32.054 32.5481 31.856 32.6874 31.702C32.8267 31.548 33.0101 31.471 33.2374 31.471C33.4794 31.471 33.6664 31.5443 33.7984 31.691C33.9304 31.8303 33.9964 32.032 33.9964 32.296C33.9964 32.538 33.9267 32.736 33.7874 32.89C33.6481 33.044 33.4647 33.121 33.2374 33.121ZM41.7713 33.11C41.236 33.11 40.7447 33.0147 40.2973 32.824C39.85 32.6333 39.4613 32.362 39.1313 32.01C38.8013 31.6507 38.5447 31.229 38.3613 30.745C38.1853 30.261 38.0973 29.7293 38.0973 29.15C38.0973 28.6 38.1927 28.0903 38.3833 27.621C38.5813 27.1443 38.8527 26.7263 39.1973 26.367C39.542 26.0077 39.9417 25.729 40.3963 25.531C40.851 25.333 41.3423 25.234 41.8703 25.234C42.2443 25.234 42.6073 25.2927 42.9593 25.41C43.3187 25.52 43.6413 25.6777 43.9273 25.883C44.2207 26.081 44.459 26.3083 44.6423 26.565L43.8503 27.39C43.6377 27.1773 43.4213 27.0013 43.2013 26.862C42.9887 26.7153 42.7687 26.6053 42.5413 26.532C42.3213 26.4587 42.0977 26.422 41.8703 26.422C41.511 26.422 41.1737 26.4917 40.8583 26.631C40.5503 26.763 40.279 26.95 40.0443 27.192C39.817 27.434 39.6373 27.7237 39.5053 28.061C39.3733 28.391 39.3073 28.754 39.3073 29.15C39.3073 29.568 39.3697 29.9493 39.4943 30.294C39.6263 30.6313 39.8097 30.921 40.0443 31.163C40.279 31.405 40.5577 31.592 40.8803 31.724C41.2103 31.8487 41.5733 31.911 41.9693 31.911C42.2113 31.911 42.4497 31.878 42.6843 31.812C42.919 31.746 43.139 31.6507 43.3443 31.526C43.5497 31.4013 43.7367 31.2547 43.9053 31.086L44.4993 32.054C44.3307 32.252 44.0997 32.4317 43.8063 32.593C43.5203 32.7543 43.1977 32.8827 42.8383 32.978C42.4863 33.066 42.1307 33.11 41.7713 33.11ZM45.8272 33V24.86H46.9602V28.413L46.7622 28.545C46.8355 28.2883 46.9785 28.0537 47.1912 27.841C47.4038 27.621 47.6568 27.445 47.9502 27.313C48.2435 27.1737 48.5442 27.104 48.8522 27.104C49.2922 27.104 49.6588 27.192 49.9522 27.368C50.2455 27.5367 50.4655 27.797 50.6122 28.149C50.7588 28.501 50.8322 28.9447 50.8322 29.48V33H49.6992V29.557C49.6992 29.227 49.6552 28.9557 49.5672 28.743C49.4792 28.523 49.3435 28.3653 49.1602 28.27C48.9768 28.1673 48.7495 28.1233 48.4782 28.138C48.2582 28.138 48.0565 28.1747 47.8732 28.248C47.6898 28.314 47.5285 28.4093 47.3892 28.534C47.2572 28.6587 47.1508 28.8053 47.0702 28.974C46.9968 29.1353 46.9602 29.3113 46.9602 29.502V33H46.3992C46.3038 33 46.2085 33 46.1132 33C46.0178 33 45.9225 33 45.8272 33ZM52.3691 33V27.225H53.5131V29.04L53.4031 28.6C53.4838 28.3213 53.6195 28.0683 53.8101 27.841C54.0081 27.6137 54.2318 27.434 54.4811 27.302C54.7378 27.17 55.0018 27.104 55.2731 27.104C55.3978 27.104 55.5151 27.115 55.6251 27.137C55.7425 27.159 55.8341 27.1847 55.9001 27.214L55.6031 28.446C55.5151 28.4093 55.4161 28.38 55.3061 28.358C55.2035 28.3287 55.1008 28.314 54.9981 28.314C54.8001 28.314 54.6095 28.3543 54.4261 28.435C54.2501 28.5083 54.0925 28.6147 53.9531 28.754C53.8211 28.886 53.7148 29.0437 53.6341 29.227C53.5535 29.403 53.5131 29.5973 53.5131 29.81V33H52.3691ZM56.9927 33V27.225H58.1257V33H56.9927ZM57.5427 25.949C57.3007 25.949 57.1137 25.8867 56.9817 25.762C56.8497 25.6373 56.7837 25.4613 56.7837 25.234C56.7837 25.0213 56.8497 24.849 56.9817 24.717C57.121 24.585 57.308 24.519 57.5427 24.519C57.7847 24.519 57.9717 24.5813 58.1037 24.706C58.2357 24.8307 58.3017 25.0067 58.3017 25.234C58.3017 25.4467 58.232 25.619 58.0927 25.751C57.9607 25.883 57.7773 25.949 57.5427 25.949ZM61.7922 33.11C61.3082 33.11 60.8719 33.0257 60.4832 32.857C60.0945 32.6883 59.7719 32.439 59.5152 32.109L60.2852 31.449C60.5052 31.7057 60.7435 31.8927 61.0002 32.01C61.2642 32.12 61.5612 32.175 61.8912 32.175C62.0232 32.175 62.1442 32.1603 62.2542 32.131C62.3715 32.0943 62.4705 32.043 62.5512 31.977C62.6392 31.911 62.7052 31.834 62.7492 31.746C62.7932 31.6507 62.8152 31.548 62.8152 31.438C62.8152 31.2473 62.7455 31.0933 62.6062 30.976C62.5329 30.9247 62.4155 30.8697 62.2542 30.811C62.1002 30.745 61.8985 30.679 61.6492 30.613C61.2239 30.503 60.8755 30.3783 60.6042 30.239C60.3329 30.0997 60.1239 29.942 59.9772 29.766C59.8672 29.6267 59.7865 29.4763 59.7352 29.315C59.6839 29.1463 59.6582 28.963 59.6582 28.765C59.6582 28.523 59.7095 28.303 59.8122 28.105C59.9222 27.8997 60.0689 27.7237 60.2522 27.577C60.4429 27.423 60.6629 27.3057 60.9122 27.225C61.1689 27.1443 61.4402 27.104 61.7262 27.104C61.9975 27.104 62.2652 27.1407 62.5292 27.214C62.8005 27.2873 63.0499 27.3937 63.2772 27.533C63.5045 27.6723 63.6952 27.8373 63.8492 28.028L63.2002 28.743C63.0609 28.6037 62.9069 28.4827 62.7382 28.38C62.5769 28.27 62.4119 28.1857 62.2432 28.127C62.0745 28.0683 61.9205 28.039 61.7812 28.039C61.6272 28.039 61.4879 28.0537 61.3632 28.083C61.2385 28.1123 61.1322 28.1563 61.0442 28.215C60.9635 28.2737 60.9012 28.347 60.8572 28.435C60.8132 28.523 60.7912 28.622 60.7912 28.732C60.7985 28.8273 60.8205 28.919 60.8572 29.007C60.9012 29.0877 60.9599 29.1573 61.0332 29.216C61.1139 29.2747 61.2349 29.337 61.3962 29.403C61.5575 29.469 61.7629 29.5313 62.0122 29.59C62.3789 29.6853 62.6795 29.7917 62.9142 29.909C63.1562 30.019 63.3469 30.1473 63.4862 30.294C63.6329 30.4333 63.7355 30.5947 63.7942 30.778C63.8529 30.9613 63.8822 31.1667 63.8822 31.394C63.8822 31.724 63.7869 32.021 63.5962 32.285C63.4129 32.5417 63.1635 32.7433 62.8482 32.89C62.5329 33.0367 62.1809 33.11 61.7922 33.11ZM65.8459 33V25.751H66.9789V33H65.8459ZM64.6469 28.325V27.225H68.3209V28.325H64.6469ZM71.8948 33.11C71.3302 33.11 70.8242 32.9817 70.3768 32.725C69.9368 32.461 69.5885 32.1053 69.3318 31.658C69.0752 31.2033 68.9468 30.6863 68.9468 30.107C68.9468 29.5277 69.0752 29.0143 69.3318 28.567C69.5885 28.1123 69.9368 27.7567 70.3768 27.5C70.8242 27.236 71.3302 27.104 71.8948 27.104C72.4522 27.104 72.9508 27.236 73.3908 27.5C73.8382 27.7567 74.1902 28.1123 74.4468 28.567C74.7035 29.0143 74.8318 29.5277 74.8318 30.107C74.8318 30.6863 74.7035 31.2033 74.4468 31.658C74.1902 32.1053 73.8382 32.461 73.3908 32.725C72.9508 32.9817 72.4522 33.11 71.8948 33.11ZM71.8948 32.076C72.2395 32.076 72.5475 31.9917 72.8188 31.823C73.0902 31.647 73.3028 31.4123 73.4568 31.119C73.6108 30.8183 73.6842 30.481 73.6768 30.107C73.6842 29.7257 73.6108 29.3883 73.4568 29.095C73.3028 28.7943 73.0902 28.5597 72.8188 28.391C72.5475 28.2223 72.2395 28.138 71.8948 28.138C71.5502 28.138 71.2385 28.226 70.9598 28.402C70.6885 28.5707 70.4758 28.8053 70.3218 29.106C70.1678 29.3993 70.0945 29.733 70.1018 30.107C70.0945 30.481 70.1678 30.8183 70.3218 31.119C70.4758 31.4123 70.6885 31.647 70.9598 31.823C71.2385 31.9917 71.5502 32.076 71.8948 32.076ZM76.0664 35.42V27.225H77.2104V28.545L77.0344 28.446C77.0784 28.226 77.2031 28.017 77.4084 27.819C77.6137 27.6137 77.8631 27.4487 78.1564 27.324C78.4571 27.192 78.7651 27.126 79.0804 27.126C79.6011 27.126 80.0631 27.2543 80.4664 27.511C80.8697 27.7677 81.1887 28.1197 81.4234 28.567C81.6581 29.0143 81.7754 29.5277 81.7754 30.107C81.7754 30.679 81.6581 31.1923 81.4234 31.647C81.1961 32.0943 80.8807 32.45 80.4774 32.714C80.0741 32.9707 79.6194 33.099 79.1134 33.099C78.7761 33.099 78.4497 33.033 78.1344 32.901C77.8191 32.7617 77.5514 32.5857 77.3314 32.373C77.1114 32.1603 76.9757 31.9403 76.9244 31.713L77.2104 31.559V35.42H76.0664ZM78.9264 32.054C79.2637 32.054 79.5644 31.9697 79.8284 31.801C80.0924 31.6323 80.3014 31.4013 80.4554 31.108C80.6094 30.8147 80.6864 30.481 80.6864 30.107C80.6864 29.733 80.6094 29.403 80.4554 29.117C80.3087 28.8237 80.1034 28.5927 79.8394 28.424C79.5754 28.2553 79.2711 28.171 78.9264 28.171C78.5817 28.171 78.2774 28.2553 78.0134 28.424C77.7494 28.5853 77.5404 28.8127 77.3864 29.106C77.2324 29.3993 77.1554 29.733 77.1554 30.107C77.1554 30.481 77.2324 30.8147 77.3864 31.108C77.5404 31.4013 77.7494 31.6323 78.0134 31.801C78.2774 31.9697 78.5817 32.054 78.9264 32.054ZM83.0059 33V24.86H84.1389V28.413L83.9409 28.545C84.0142 28.2883 84.1572 28.0537 84.3699 27.841C84.5825 27.621 84.8355 27.445 85.1289 27.313C85.4222 27.1737 85.7229 27.104 86.0309 27.104C86.4709 27.104 86.8375 27.192 87.1309 27.368C87.4242 27.5367 87.6442 27.797 87.7909 28.149C87.9375 28.501 88.0109 28.9447 88.0109 29.48V33H86.8779V29.557C86.8779 29.227 86.8339 28.9557 86.7459 28.743C86.6579 28.523 86.5222 28.3653 86.3389 28.27C86.1555 28.1673 85.9282 28.1233 85.6569 28.138C85.4369 28.138 85.2352 28.1747 85.0519 28.248C84.8685 28.314 84.7072 28.4093 84.5679 28.534C84.4359 28.6587 84.3295 28.8053 84.2489 28.974C84.1755 29.1353 84.1389 29.3113 84.1389 29.502V33H83.5779C83.4825 33 83.3872 33 83.2919 33C83.1965 33 83.1012 33 83.0059 33ZM92.2429 33.11C91.6489 33.11 91.1209 32.9853 90.6589 32.736C90.2042 32.4793 89.8449 32.131 89.5809 31.691C89.3242 31.251 89.1959 30.745 89.1959 30.173C89.1959 29.7183 89.2692 29.304 89.4159 28.93C89.5625 28.556 89.7642 28.2333 90.0209 27.962C90.2849 27.6833 90.5965 27.4707 90.9559 27.324C91.3225 27.17 91.7185 27.093 92.1439 27.093C92.5179 27.093 92.8662 27.1663 93.1889 27.313C93.5115 27.4523 93.7902 27.6467 94.0249 27.896C94.2669 28.1453 94.4502 28.4423 94.5749 28.787C94.7069 29.1243 94.7692 29.4947 94.7619 29.898L94.7509 30.382H90.0319L89.7789 29.48H93.7719L93.6069 29.667V29.403C93.5849 29.161 93.5042 28.9447 93.3649 28.754C93.2255 28.5633 93.0495 28.413 92.8369 28.303C92.6242 28.193 92.3932 28.138 92.1439 28.138C91.7479 28.138 91.4142 28.215 91.1429 28.369C90.8715 28.5157 90.6662 28.7357 90.5269 29.029C90.3875 29.315 90.3179 29.6707 90.3179 30.096C90.3179 30.4993 90.4022 30.8513 90.5709 31.152C90.7395 31.4453 90.9779 31.6727 91.2859 31.834C91.5939 31.9953 91.9495 32.076 92.3529 32.076C92.6389 32.076 92.9029 32.0283 93.1449 31.933C93.3942 31.8377 93.6619 31.6653 93.9479 31.416L94.5199 32.219C94.3439 32.395 94.1275 32.549 93.8709 32.681C93.6215 32.813 93.3539 32.9193 93.0679 33C92.7892 33.0733 92.5142 33.11 92.2429 33.11ZM95.9932 33V27.225H97.1372V29.04L97.0272 28.6C97.1078 28.3213 97.2435 28.0683 97.4342 27.841C97.6322 27.6137 97.8558 27.434 98.1052 27.302C98.3618 27.17 98.6258 27.104 98.8972 27.104C99.0218 27.104 99.1392 27.115 99.2492 27.137C99.3665 27.159 99.4582 27.1847 99.5242 27.214L99.2272 28.446C99.1392 28.4093 99.0402 28.38 98.9302 28.358C98.8275 28.3287 98.7248 28.314 98.6222 28.314C98.4242 28.314 98.2335 28.3543 98.0502 28.435C97.8742 28.5083 97.7165 28.6147 97.5772 28.754C97.4452 28.886 97.3388 29.0437 97.2582 29.227C97.1775 29.403 97.1372 29.5973 97.1372 29.81V33H95.9932ZM100.824 27.775L100.406 27.269C100.692 27.137 100.926 26.9867 101.11 26.818C101.293 26.6493 101.385 26.5027 101.385 26.378C101.385 26.2827 101.344 26.1983 101.264 26.125C101.183 26.0443 101.11 25.9783 101.044 25.927C100.882 25.795 100.772 25.685 100.714 25.597C100.662 25.509 100.637 25.4173 100.637 25.322C100.637 25.146 100.699 25.0067 100.824 24.904C100.948 24.794 101.11 24.739 101.308 24.739C101.513 24.739 101.696 24.794 101.858 24.904C102.026 25.0067 102.158 25.1497 102.254 25.333C102.349 25.5163 102.397 25.7327 102.397 25.982C102.397 26.1727 102.356 26.3597 102.276 26.543C102.195 26.7263 102.081 26.8987 101.935 27.06C101.795 27.2213 101.63 27.3643 101.44 27.489C101.249 27.6137 101.044 27.709 100.824 27.775ZM105.556 33.11C105.072 33.11 104.636 33.0257 104.247 32.857C103.858 32.6883 103.536 32.439 103.279 32.109L104.049 31.449C104.269 31.7057 104.507 31.8927 104.764 32.01C105.028 32.12 105.325 32.175 105.655 32.175C105.787 32.175 105.908 32.1603 106.018 32.131C106.135 32.0943 106.234 32.043 106.315 31.977C106.403 31.911 106.469 31.834 106.513 31.746C106.557 31.6507 106.579 31.548 106.579 31.438C106.579 31.2473 106.509 31.0933 106.37 30.976C106.297 30.9247 106.179 30.8697 106.018 30.811C105.864 30.745 105.662 30.679 105.413 30.613C104.988 30.503 104.639 30.3783 104.368 30.239C104.097 30.0997 103.888 29.942 103.741 29.766C103.631 29.6267 103.55 29.4763 103.499 29.315C103.448 29.1463 103.422 28.963 103.422 28.765C103.422 28.523 103.473 28.303 103.576 28.105C103.686 27.8997 103.833 27.7237 104.016 27.577C104.207 27.423 104.427 27.3057 104.676 27.225C104.933 27.1443 105.204 27.104 105.49 27.104C105.761 27.104 106.029 27.1407 106.293 27.214C106.564 27.2873 106.814 27.3937 107.041 27.533C107.268 27.6723 107.459 27.8373 107.613 28.028L106.964 28.743C106.825 28.6037 106.671 28.4827 106.502 28.38C106.341 28.27 106.176 28.1857 106.007 28.127C105.838 28.0683 105.684 28.039 105.545 28.039C105.391 28.039 105.252 28.0537 105.127 28.083C105.002 28.1123 104.896 28.1563 104.808 28.215C104.727 28.2737 104.665 28.347 104.621 28.435C104.577 28.523 104.555 28.622 104.555 28.732C104.562 28.8273 104.584 28.919 104.621 29.007C104.665 29.0877 104.724 29.1573 104.797 29.216C104.878 29.2747 104.999 29.337 105.16 29.403C105.321 29.469 105.527 29.5313 105.776 29.59C106.143 29.6853 106.443 29.7917 106.678 29.909C106.92 30.019 107.111 30.1473 107.25 30.294C107.397 30.4333 107.499 30.5947 107.558 30.778C107.617 30.9613 107.646 31.1667 107.646 31.394C107.646 31.724 107.551 32.021 107.36 32.285C107.177 32.5417 106.927 32.7433 106.612 32.89C106.297 33.0367 105.945 33.11 105.556 33.11Z" fill="black"/>
</svg>
