<svg width="54" height="70" viewBox="0 0 54 70" fill="none" xmlns="http://www.w3.org/2000/svg">
<path d="M28.5657 5H23.4343C23.0349 5 22.7967 5.44507 23.0182 5.77735L24.416 7.87404C24.4708 7.95617 24.5 8.05268 24.5 8.15139V9.5V13.5C24.5 13.7761 24.2761 14 24 14H20H17.1514C17.0527 14 16.9562 13.9708 16.874 13.916L14.7773 12.5182C14.4451 12.2967 14 12.5349 14 12.9343V18.0657C14 18.4651 14.4451 18.7033 14.7774 18.4818L16.874 17.084C16.9562 17.0292 17.0527 17 17.1514 17H20H24C24.2761 17 24.5 17.2239 24.5 17.5V21V36.882C24.5 36.9596 24.4819 37.0361 24.4472 37.1056L23.3618 39.2764C23.1956 39.6088 23.4373 40 23.809 40H28.191C28.5627 40 28.8044 39.6088 28.6382 39.2764L27.5528 37.1056C27.5181 37.0361 27.5 36.9596 27.5 36.882V21V17.5C27.5 17.2239 27.7239 17 28 17H32H34.8486C34.9473 17 35.0438 17.0292 35.126 17.084L37.2227 18.4818C37.5549 18.7033 38 18.4651 38 18.0657V12.9343C38 12.5349 37.5549 12.2967 37.2227 12.5182L35.126 13.916C35.0438 13.9708 34.9473 14 34.8486 14H32H28C27.7239 14 27.5 13.7761 27.5 13.5V9.5V8.15139C27.5 8.05268 27.5292 7.95617 27.584 7.87404L28.9818 5.77735C29.2033 5.44507 28.9651 5 28.5657 5Z" fill="#4F4533"/>
<path d="M24.5 9.5V13.5C24.5 13.7761 24.2761 14 24 14H20M24.5 9.5V8.15139C24.5 8.05268 24.4708 7.95617 24.416 7.87404L23.0182 5.77735C22.7967 5.44507 23.0349 5 23.4343 5H28.5657C28.9651 5 29.2033 5.44507 28.9818 5.77735L27.584 7.87404C27.5292 7.95617 27.5 8.05268 27.5 8.15139V9.5M24.5 9.5C22 9.5 20 11.5 20 14M20 14H17.1514C17.0527 14 16.9562 13.9708 16.874 13.916L14.7773 12.5182C14.4451 12.2967 14 12.5349 14 12.9343V18.0657C14 18.4651 14.4451 18.7033 14.7774 18.4818L16.874 17.084C16.9562 17.0292 17.0527 17 17.1514 17H20M27.5 9.5V13.5C27.5 13.7761 27.7239 14 28 14H32M27.5 9.5C30 9.5 32 11.5 32 14M32 14H34.8486C34.9473 14 35.0438 13.9708 35.126 13.916L37.2227 12.5182C37.5549 12.2967 38 12.5349 38 12.9343V18.0657C38 18.4651 37.5549 18.7033 37.2226 18.4818L35.126 17.084C35.0438 17.0292 34.9473 17 34.8486 17H32M32 17H28C27.7239 17 27.5 17.2239 27.5 17.5V21M32 17C32 19.5 30 21 27.5 21M27.5 21V36.882C27.5 36.9596 27.5181 37.0361 27.5528 37.1056L28.6382 39.2764C28.8044 39.6088 28.5627 40 28.191 40H23.809C23.4373 40 23.1956 39.6088 23.3618 39.2764L24.4472 37.1056C24.4819 37.0361 24.5 36.9596 24.5 36.882V21M24.5 21V17.5C24.5 17.2239 24.2761 17 24 17H20M24.5 21C22 21 20 19.5 20 17" stroke="black"/>
<path d="M12.3703 51V43.3H14.0423L16.8473 47.865L15.6483 47.854L18.4863 43.3H20.0923V51H18.2773V48.602C18.2773 47.942 18.292 47.348 18.3213 46.82C18.358 46.292 18.4167 45.7677 18.4973 45.247L18.7063 45.819L16.5723 49.13H15.8463L13.7563 45.841L13.9653 45.247C14.046 45.7383 14.101 46.2443 14.1303 46.765C14.167 47.2783 14.1853 47.8907 14.1853 48.602V51H12.3703ZM24.5906 51.11C23.9819 51.11 23.4392 50.978 22.9626 50.714C22.4932 50.45 22.1192 50.0907 21.8406 49.636C21.5692 49.1813 21.4336 48.6607 21.4336 48.074C21.4336 47.4873 21.5692 46.9667 21.8406 46.512C22.1192 46.0573 22.4932 45.698 22.9626 45.434C23.4392 45.17 23.9819 45.038 24.5906 45.038C25.1992 45.038 25.7382 45.17 26.2076 45.434C26.6842 45.698 27.0582 46.0573 27.3296 46.512C27.6009 46.9667 27.7366 47.4873 27.7366 48.074C27.7366 48.6607 27.6009 49.1813 27.3296 49.636C27.0582 50.0907 26.6842 50.45 26.2076 50.714C25.7382 50.978 25.1992 51.11 24.5906 51.11ZM24.5906 49.592C24.8546 49.592 25.0892 49.526 25.2946 49.394C25.4999 49.262 25.6612 49.0823 25.7786 48.855C25.8959 48.6277 25.9509 48.3673 25.9436 48.074C25.9509 47.7807 25.8959 47.5203 25.7786 47.293C25.6612 47.0583 25.4999 46.875 25.2946 46.743C25.0892 46.611 24.8546 46.545 24.5906 46.545C24.3266 46.545 24.0882 46.611 23.8756 46.743C23.6702 46.875 23.5089 47.0583 23.3916 47.293C23.2742 47.5203 23.2192 47.7807 23.2266 48.074C23.2192 48.3673 23.2742 48.6277 23.3916 48.855C23.5089 49.0823 23.6702 49.262 23.8756 49.394C24.0882 49.526 24.3266 49.592 24.5906 49.592ZM31.0434 51.099C30.5521 51.099 30.1121 50.9707 29.7234 50.714C29.3421 50.45 29.0378 50.0907 28.8104 49.636C28.5831 49.174 28.4694 48.6533 28.4694 48.074C28.4694 47.48 28.5831 46.9557 28.8104 46.501C29.0378 46.0463 29.3494 45.6907 29.7454 45.434C30.1414 45.17 30.5924 45.038 31.0984 45.038C31.3771 45.038 31.6301 45.0783 31.8574 45.159C32.0921 45.2397 32.2974 45.3533 32.4734 45.5C32.6494 45.6393 32.7998 45.8043 32.9244 45.995C33.0491 46.1783 33.1408 46.3763 33.1994 46.589L32.8364 46.545V45.159H34.5854V51H32.8034V49.592L33.1994 49.581C33.1408 49.7863 33.0454 49.9807 32.9134 50.164C32.7814 50.3473 32.6201 50.5087 32.4294 50.648C32.2388 50.7873 32.0261 50.8973 31.7914 50.978C31.5568 51.0587 31.3074 51.099 31.0434 51.099ZM31.5274 49.614C31.7988 49.614 32.0334 49.5517 32.2314 49.427C32.4294 49.3023 32.5834 49.1263 32.6934 48.899C32.8034 48.6643 32.8584 48.3893 32.8584 48.074C32.8584 47.7587 32.8034 47.4873 32.6934 47.26C32.5834 47.0253 32.4294 46.8457 32.2314 46.721C32.0334 46.589 31.7988 46.523 31.5274 46.523C31.2634 46.523 31.0324 46.589 30.8344 46.721C30.6438 46.8457 30.4934 47.0253 30.3834 47.26C30.2734 47.4873 30.2184 47.7587 30.2184 48.074C30.2184 48.3893 30.2734 48.6643 30.3834 48.899C30.4934 49.1263 30.6438 49.3023 30.8344 49.427C31.0324 49.5517 31.2634 49.614 31.5274 49.614ZM39.6474 51.121C39.3834 51.121 39.1304 51.0843 38.8884 51.011C38.6464 50.9377 38.4264 50.8387 38.2284 50.714C38.0378 50.5893 37.8764 50.4463 37.7444 50.285C37.6198 50.1163 37.5354 49.944 37.4914 49.768L37.8764 49.636L37.7774 50.989H36.1384V42.86H37.9094V46.556L37.5464 46.424C37.5904 46.2333 37.6748 46.0573 37.7994 45.896C37.9241 45.7273 38.0818 45.5807 38.2724 45.456C38.4631 45.324 38.6721 45.2213 38.8994 45.148C39.1268 45.0747 39.3614 45.038 39.6034 45.038C40.1094 45.038 40.5568 45.17 40.9454 45.434C41.3414 45.6907 41.6531 46.05 41.8804 46.512C42.1078 46.9667 42.2214 47.4873 42.2214 48.074C42.2214 48.668 42.1078 49.196 41.8804 49.658C41.6604 50.1127 41.3561 50.472 40.9674 50.736C40.5788 50.9927 40.1388 51.121 39.6474 51.121ZM39.1854 49.636C39.4494 49.636 39.6804 49.57 39.8784 49.438C40.0764 49.306 40.2268 49.1263 40.3294 48.899C40.4394 48.6643 40.4944 48.3893 40.4944 48.074C40.4944 47.766 40.4394 47.4947 40.3294 47.26C40.2268 47.0253 40.0764 46.8457 39.8784 46.721C39.6804 46.5963 39.4494 46.534 39.1854 46.534C38.9141 46.534 38.6794 46.5963 38.4814 46.721C38.2834 46.8457 38.1294 47.0253 38.0194 47.26C37.9094 47.4947 37.8544 47.766 37.8544 48.074C37.8544 48.3893 37.9094 48.6643 38.0194 48.899C38.1294 49.1263 38.2834 49.306 38.4814 49.438C38.6794 49.57 38.9141 49.636 39.1854 49.636ZM11.1395 65.11C10.7215 65.11 10.3329 65.055 9.97355 64.945C9.62155 64.835 9.29888 64.67 9.00555 64.45C8.71955 64.2227 8.46288 63.944 8.23555 63.614L9.04955 62.679C9.40888 63.1923 9.75355 63.548 10.0835 63.746C10.4135 63.944 10.8059 64.043 11.2605 64.043C11.5392 64.043 11.7922 63.999 12.0195 63.911C12.2469 63.823 12.4265 63.702 12.5585 63.548C12.6905 63.394 12.7565 63.218 12.7565 63.02C12.7565 62.888 12.7345 62.7633 12.6905 62.646C12.6465 62.5287 12.5769 62.4223 12.4815 62.327C12.3935 62.2317 12.2762 62.1437 12.1295 62.063C11.9902 61.9823 11.8252 61.9127 11.6345 61.854C11.4439 61.788 11.2239 61.733 10.9745 61.689C10.5785 61.6083 10.2339 61.502 9.94055 61.37C9.64721 61.238 9.40155 61.073 9.20355 60.875C9.00555 60.677 8.85888 60.4533 8.76355 60.204C8.66821 59.9473 8.62055 59.6613 8.62055 59.346C8.62055 59.038 8.68655 58.752 8.81855 58.488C8.95788 58.224 9.14488 57.9967 9.37955 57.806C9.62155 57.608 9.90388 57.4577 10.2265 57.355C10.5492 57.245 10.8975 57.19 11.2715 57.19C11.6675 57.19 12.0305 57.2413 12.3605 57.344C12.6905 57.4467 12.9839 57.6007 13.2405 57.806C13.4972 58.004 13.7099 58.2497 13.8785 58.543L13.0425 59.368C12.8959 59.126 12.7309 58.9243 12.5475 58.763C12.3642 58.5943 12.1625 58.4697 11.9425 58.389C11.7225 58.301 11.4879 58.257 11.2385 58.257C10.9525 58.257 10.7032 58.301 10.4905 58.389C10.2779 58.477 10.1092 58.6017 9.98455 58.763C9.86721 58.917 9.80855 59.1003 9.80855 59.313C9.80855 59.467 9.83788 59.61 9.89655 59.742C9.95521 59.8667 10.0432 59.9803 10.1605 60.083C10.2852 60.1783 10.4502 60.2663 10.6555 60.347C10.8609 60.4203 11.1065 60.4863 11.3925 60.545C11.7959 60.633 12.1552 60.7467 12.4705 60.886C12.7859 61.018 13.0535 61.1757 13.2735 61.359C13.4935 61.5423 13.6585 61.7477 13.7685 61.975C13.8859 62.2023 13.9445 62.448 13.9445 62.712C13.9445 63.2033 13.8309 63.6287 13.6035 63.988C13.3762 64.3473 13.0535 64.626 12.6355 64.824C12.2175 65.0147 11.7189 65.11 11.1395 65.11ZM16.0568 65V57.751H17.1898V65H16.0568ZM14.8578 60.325V59.225H18.5318V60.325H14.8578ZM20.0255 65.121C19.7835 65.121 19.5965 65.0513 19.4645 64.912C19.3325 64.7653 19.2665 64.56 19.2665 64.296C19.2665 64.054 19.3362 63.856 19.4755 63.702C19.6148 63.548 19.7982 63.471 20.0255 63.471C20.2675 63.471 20.4545 63.5443 20.5865 63.691C20.7185 63.8303 20.7845 64.032 20.7845 64.296C20.7845 64.538 20.7148 64.736 20.5755 64.89C20.4362 65.044 20.2528 65.121 20.0255 65.121ZM25.4354 65V57.3H28.5704C28.9884 57.3 29.3661 57.4063 29.7034 57.619C30.0481 57.8243 30.3231 58.1067 30.5284 58.466C30.7338 58.8253 30.8364 59.225 30.8364 59.665C30.8364 60.105 30.7338 60.5047 30.5284 60.864C30.3231 61.2233 30.0481 61.513 29.7034 61.733C29.3661 61.9457 28.9884 62.052 28.5704 62.052H26.6234V65H25.4354ZM26.6234 60.908H28.5484C28.7464 60.908 28.9261 60.853 29.0874 60.743C29.2488 60.6257 29.3771 60.4753 29.4724 60.292C29.5751 60.1013 29.6264 59.8923 29.6264 59.665C29.6264 59.4377 29.5751 59.2323 29.4724 59.049C29.3771 58.8657 29.2488 58.719 29.0874 58.609C28.9261 58.499 28.7464 58.444 28.5484 58.444H26.6234V60.908ZM32.3081 65V59.225H33.4411V65H32.3081ZM32.8581 57.949C32.6161 57.949 32.4291 57.8867 32.2971 57.762C32.1651 57.6373 32.0991 57.4613 32.0991 57.234C32.0991 57.0213 32.1651 56.849 32.2971 56.717C32.4364 56.585 32.6234 56.519 32.8581 56.519C33.1001 56.519 33.2871 56.5813 33.4191 56.706C33.5511 56.8307 33.6171 57.0067 33.6171 57.234C33.6171 57.4467 33.5474 57.619 33.4081 57.751C33.2761 57.883 33.0928 57.949 32.8581 57.949ZM37.2066 65.11C36.796 65.11 36.4366 65.0147 36.1286 64.824C35.828 64.6333 35.5933 64.3657 35.4246 64.021C35.2633 63.6763 35.1826 63.2657 35.1826 62.789V59.225H36.3156V62.481C36.3156 62.8183 36.367 63.1117 36.4696 63.361C36.5796 63.603 36.7336 63.79 36.9316 63.922C37.137 64.054 37.3826 64.12 37.6686 64.12C37.8813 64.12 38.0756 64.087 38.2516 64.021C38.4276 63.9477 38.578 63.8487 38.7026 63.724C38.8346 63.5993 38.9373 63.449 39.0106 63.273C39.084 63.097 39.1206 62.9063 39.1206 62.701V59.225H40.2536V65H39.1206V63.79L39.3186 63.658C39.2306 63.9293 39.0803 64.175 38.8676 64.395C38.6623 64.615 38.4166 64.791 38.1306 64.923C37.8446 65.0477 37.5366 65.11 37.2066 65.11ZM43.7678 65.11C43.2838 65.11 42.8474 65.0257 42.4588 64.857C42.0701 64.6883 41.7474 64.439 41.4908 64.109L42.2608 63.449C42.4808 63.7057 42.7191 63.8927 42.9758 64.01C43.2398 64.12 43.5368 64.175 43.8668 64.175C43.9988 64.175 44.1198 64.1603 44.2298 64.131C44.3471 64.0943 44.4461 64.043 44.5268 63.977C44.6148 63.911 44.6808 63.834 44.7248 63.746C44.7688 63.6507 44.7908 63.548 44.7908 63.438C44.7908 63.2473 44.7211 63.0933 44.5818 62.976C44.5084 62.9247 44.3911 62.8697 44.2298 62.811C44.0758 62.745 43.8741 62.679 43.6248 62.613C43.1994 62.503 42.8511 62.3783 42.5798 62.239C42.3084 62.0997 42.0994 61.942 41.9528 61.766C41.8428 61.6267 41.7621 61.4763 41.7108 61.315C41.6594 61.1463 41.6338 60.963 41.6338 60.765C41.6338 60.523 41.6851 60.303 41.7878 60.105C41.8978 59.8997 42.0444 59.7237 42.2278 59.577C42.4184 59.423 42.6384 59.3057 42.8878 59.225C43.1444 59.1443 43.4158 59.104 43.7018 59.104C43.9731 59.104 44.2408 59.1407 44.5048 59.214C44.7761 59.2873 45.0254 59.3937 45.2528 59.533C45.4801 59.6723 45.6708 59.8373 45.8248 60.028L45.1758 60.743C45.0364 60.6037 44.8824 60.4827 44.7138 60.38C44.5524 60.27 44.3874 60.1857 44.2188 60.127C44.0501 60.0683 43.8961 60.039 43.7568 60.039C43.6028 60.039 43.4634 60.0537 43.3388 60.083C43.2141 60.1123 43.1078 60.1563 43.0198 60.215C42.9391 60.2737 42.8768 60.347 42.8328 60.435C42.7888 60.523 42.7668 60.622 42.7668 60.732C42.7741 60.8273 42.7961 60.919 42.8328 61.007C42.8768 61.0877 42.9354 61.1573 43.0088 61.216C43.0894 61.2747 43.2104 61.337 43.3718 61.403C43.5331 61.469 43.7384 61.5313 43.9878 61.59C44.3544 61.6853 44.6551 61.7917 44.8898 61.909C45.1318 62.019 45.3224 62.1473 45.4618 62.294C45.6084 62.4333 45.7111 62.5947 45.7698 62.778C45.8284 62.9613 45.8578 63.1667 45.8578 63.394C45.8578 63.724 45.7624 64.021 45.5718 64.285C45.3884 64.5417 45.1391 64.7433 44.8238 64.89C44.5084 65.0367 44.1564 65.11 43.7678 65.11Z" fill="black"/>
</svg>
