<svg width="81" height="49" viewBox="0 0 81 49" fill="none" xmlns="http://www.w3.org/2000/svg">
<path d="M17.0657 2.5H11.9343C11.5349 2.5 11.2967 2.94507 11.5182 3.27735L12.916 5.37404C12.9708 5.45617 13 5.55268 13 5.65139V7V11C13 11.2761 12.7761 11.5 12.5 11.5H8.5H5.65139C5.55268 11.5 5.45617 11.4708 5.37404 11.416L3.27735 10.0182C2.94507 9.79671 2.5 10.0349 2.5 10.4343V15.5657C2.5 15.9651 2.94507 16.2033 3.27735 15.9818L5.37404 14.584C5.45617 14.5292 5.55268 14.5 5.65139 14.5H8.5H12.5C12.7761 14.5 13 14.7239 13 15V18.5V34.382C13 34.4596 12.9819 34.5361 12.9472 34.6056L11.8618 36.7764C11.6956 37.1088 11.9373 37.5 12.309 37.5H16.691C17.0627 37.5 17.3044 37.1088 17.1382 36.7764L16.0528 34.6056C16.0181 34.5361 16 34.4596 16 34.382V18.5V15C16 14.7239 16.2239 14.5 16.5 14.5H20.5H23.3486C23.4473 14.5 23.5438 14.5292 23.626 14.584L25.7227 15.9818C26.0549 16.2033 26.5 15.9651 26.5 15.5657V10.4343C26.5 10.0349 26.0549 9.79671 25.7227 10.0182L23.626 11.416C23.5438 11.4708 23.4473 11.5 23.3486 11.5H20.5H16.5C16.2239 11.5 16 11.2761 16 11V7V5.65139C16 5.55268 16.0292 5.45617 16.084 5.37404L17.4818 3.27735C17.7033 2.94507 17.4651 2.5 17.0657 2.5Z" fill="#4F4533"/>
<path d="M13 7V11C13 11.2761 12.7761 11.5 12.5 11.5H8.5M13 7V5.65139C13 5.55268 12.9708 5.45617 12.916 5.37404L11.5182 3.27735C11.2967 2.94507 11.5349 2.5 11.9343 2.5H17.0657C17.4651 2.5 17.7033 2.94507 17.4818 3.27735L16.084 5.37404C16.0292 5.45617 16 5.55268 16 5.65139V7M13 7C10.5 7 8.5 9 8.5 11.5M8.5 11.5H5.65139C5.55268 11.5 5.45617 11.4708 5.37404 11.416L3.27735 10.0182C2.94507 9.79671 2.5 10.0349 2.5 10.4343V15.5657C2.5 15.9651 2.94507 16.2033 3.27735 15.9818L5.37404 14.584C5.45617 14.5292 5.55268 14.5 5.65139 14.5H8.5M16 7V11C16 11.2761 16.2239 11.5 16.5 11.5H20.5M16 7C18.5 7 20.5 9 20.5 11.5M20.5 11.5H23.3486C23.4473 11.5 23.5438 11.4708 23.626 11.416L25.7227 10.0182C26.0549 9.79671 26.5 10.0349 26.5 10.4343V15.5657C26.5 15.9651 26.0549 16.2033 25.7226 15.9818L23.626 14.584C23.5438 14.5292 23.4473 14.5 23.3486 14.5H20.5M20.5 14.5H16.5C16.2239 14.5 16 14.7239 16 15V18.5M20.5 14.5C20.5 17 18.5 18.5 16 18.5M16 18.5V34.382C16 34.4596 16.0181 34.5361 16.0528 34.6056L17.1382 36.7764C17.3044 37.1088 17.0627 37.5 16.691 37.5H12.309C11.9373 37.5 11.6956 37.1088 11.8618 36.7764L12.9472 34.6056C12.9819 34.5361 13 34.4596 13 34.382V18.5M13 18.5V15C13 14.7239 12.7761 14.5 12.5 14.5H8.5M13 18.5C10.5 18.5 8.5 17 8.5 14.5" stroke="black"/>
<path d="M25.8699 30V22.3H29.1919C29.6759 22.3 30.1049 22.41 30.4789 22.63C30.8602 22.85 31.1609 23.1507 31.3809 23.532C31.6082 23.9133 31.7219 24.3423 31.7219 24.819C31.7219 25.3177 31.6082 25.765 31.3809 26.161C31.1609 26.5497 30.8602 26.8577 30.4789 27.085C30.1049 27.3123 29.6759 27.426 29.1919 27.426H27.7399V30H25.8699ZM27.7069 25.787H28.9279C29.0892 25.787 29.2359 25.7467 29.3679 25.666C29.4999 25.5853 29.6062 25.4753 29.6869 25.336C29.7675 25.1967 29.8079 25.0353 29.8079 24.852C29.8079 24.6613 29.7675 24.5 29.6869 24.368C29.6062 24.236 29.4999 24.1333 29.3679 24.06C29.2359 23.9867 29.0892 23.95 28.9279 23.95H27.7069V25.787ZM35.0146 30.099C34.5233 30.099 34.0833 29.9707 33.6946 29.714C33.3133 29.45 33.009 29.0907 32.7816 28.636C32.5543 28.174 32.4406 27.6533 32.4406 27.074C32.4406 26.48 32.5543 25.9557 32.7816 25.501C33.009 25.0463 33.3206 24.6907 33.7166 24.434C34.1126 24.17 34.5636 24.038 35.0696 24.038C35.3483 24.038 35.6013 24.0783 35.8286 24.159C36.0633 24.2397 36.2686 24.3533 36.4446 24.5C36.6206 24.6393 36.771 24.8043 36.8956 24.995C37.0203 25.1783 37.112 25.3763 37.1706 25.589L36.8076 25.545V24.159H38.5566V30H36.7746V28.592L37.1706 28.581C37.112 28.7863 37.0166 28.9807 36.8846 29.164C36.7526 29.3473 36.5913 29.5087 36.4006 29.648C36.21 29.7873 35.9973 29.8973 35.7626 29.978C35.528 30.0587 35.2786 30.099 35.0146 30.099ZM35.4986 28.614C35.77 28.614 36.0046 28.5517 36.2026 28.427C36.4006 28.3023 36.5546 28.1263 36.6646 27.899C36.7746 27.6643 36.8296 27.3893 36.8296 27.074C36.8296 26.7587 36.7746 26.4873 36.6646 26.26C36.5546 26.0253 36.4006 25.8457 36.2026 25.721C36.0046 25.589 35.77 25.523 35.4986 25.523C35.2346 25.523 35.0036 25.589 34.8056 25.721C34.615 25.8457 34.4646 26.0253 34.3546 26.26C34.2446 26.4873 34.1896 26.7587 34.1896 27.074C34.1896 27.3893 34.2446 27.6643 34.3546 27.899C34.4646 28.1263 34.615 28.3023 34.8056 28.427C35.0036 28.5517 35.2346 28.614 35.4986 28.614ZM40.1096 30V24.159H41.7816L41.8586 26.062L41.5286 25.699C41.6166 25.3837 41.7596 25.1013 41.9576 24.852C42.1629 24.6027 42.4013 24.4047 42.6726 24.258C42.9439 24.1113 43.2336 24.038 43.5416 24.038C43.6736 24.038 43.7946 24.049 43.9046 24.071C44.0219 24.093 44.1283 24.1187 44.2236 24.148L43.7396 26.095C43.6589 26.0437 43.5489 26.0033 43.4096 25.974C43.2776 25.9373 43.1383 25.919 42.9916 25.919C42.8303 25.919 42.6799 25.9483 42.5406 26.007C42.4013 26.0583 42.2839 26.1353 42.1886 26.238C42.0933 26.3407 42.0163 26.4617 41.9576 26.601C41.9063 26.7403 41.8806 26.898 41.8806 27.074V30H40.1096ZM46.8095 28.284L46.1605 26.964L48.8885 24.159H51.2095L46.8095 28.284ZM45.1155 30V21.86H46.8755V30H45.1155ZM49.0755 30L47.0185 27.338L48.2615 26.37L51.1545 30H49.0755ZM59.2097 30.11C58.6303 30.11 58.095 30.0147 57.6037 29.824C57.1197 29.626 56.698 29.351 56.3387 28.999C55.9793 28.6397 55.7007 28.218 55.5027 27.734C55.312 27.2427 55.2167 26.7037 55.2167 26.117C55.2167 25.545 55.3193 25.017 55.5247 24.533C55.73 24.049 56.0123 23.631 56.3717 23.279C56.7383 22.9197 57.1673 22.641 57.6587 22.443C58.1573 22.245 58.7 22.146 59.2867 22.146C59.6533 22.146 60.0127 22.1937 60.3647 22.289C60.7167 22.3843 61.043 22.5273 61.3437 22.718C61.6517 22.9013 61.9157 23.1213 62.1357 23.378L60.9917 24.687C60.8377 24.5257 60.6727 24.3863 60.4967 24.269C60.328 24.1443 60.141 24.049 59.9357 23.983C59.7303 23.917 59.5103 23.884 59.2757 23.884C58.9823 23.884 58.7037 23.939 58.4397 24.049C58.183 24.1517 57.9557 24.302 57.7577 24.5C57.567 24.6907 57.4167 24.9253 57.3067 25.204C57.1967 25.4827 57.1417 25.7943 57.1417 26.139C57.1417 26.4763 57.1967 26.7843 57.3067 27.063C57.4167 27.3343 57.5707 27.569 57.7687 27.767C57.9667 27.965 58.205 28.1153 58.4837 28.218C58.7697 28.3207 59.085 28.372 59.4297 28.372C59.6643 28.372 59.888 28.339 60.1007 28.273C60.3133 28.207 60.5077 28.119 60.6837 28.009C60.867 27.8917 61.0283 27.7597 61.1677 27.613L62.0697 29.043C61.8863 29.2483 61.6407 29.4317 61.3327 29.593C61.032 29.7543 60.6947 29.8827 60.3207 29.978C59.954 30.066 59.5837 30.11 59.2097 30.11ZM63.2613 30V24.159H65.0213V30H63.2613ZM64.1413 23.004C63.8113 23.004 63.551 22.927 63.3603 22.773C63.177 22.6117 63.0853 22.3843 63.0853 22.091C63.0853 21.827 63.1807 21.6107 63.3713 21.442C63.562 21.2733 63.8187 21.189 64.1413 21.189C64.4713 21.189 64.728 21.2697 64.9113 21.431C65.0947 21.585 65.1863 21.805 65.1863 22.091C65.1863 22.3623 65.091 22.5823 64.9003 22.751C64.717 22.9197 64.464 23.004 64.1413 23.004ZM67.159 30V22.685H68.919V30H67.159ZM66.125 25.699V24.159H70.052V25.699H66.125ZM71.7949 32.53L73.1259 29.395L73.1479 30.297L70.3319 24.159H72.3229L73.5549 27.096C73.6209 27.2427 73.6832 27.4003 73.7419 27.569C73.8005 27.7377 73.8445 27.899 73.8739 28.053L73.6319 28.196C73.6759 28.086 73.7235 27.9503 73.7749 27.789C73.8335 27.6203 73.8959 27.4407 73.9619 27.25L75.0399 24.159H77.0419L74.5559 30L73.5439 32.53H71.7949ZM28.5116 44.11C28.0936 44.11 27.705 44.055 27.3456 43.945C26.9936 43.835 26.671 43.67 26.3776 43.45C26.0916 43.2227 25.835 42.944 25.6076 42.614L26.4216 41.679C26.781 42.1923 27.1256 42.548 27.4556 42.746C27.7856 42.944 28.178 43.043 28.6326 43.043C28.9113 43.043 29.1643 42.999 29.3916 42.911C29.619 42.823 29.7986 42.702 29.9306 42.548C30.0626 42.394 30.1286 42.218 30.1286 42.02C30.1286 41.888 30.1066 41.7633 30.0626 41.646C30.0186 41.5287 29.949 41.4223 29.8536 41.327C29.7656 41.2317 29.6483 41.1437 29.5016 41.063C29.3623 40.9823 29.1973 40.9127 29.0066 40.854C28.816 40.788 28.596 40.733 28.3466 40.689C27.9506 40.6083 27.606 40.502 27.3126 40.37C27.0193 40.238 26.7736 40.073 26.5756 39.875C26.3776 39.677 26.231 39.4533 26.1356 39.204C26.0403 38.9473 25.9926 38.6613 25.9926 38.346C25.9926 38.038 26.0586 37.752 26.1906 37.488C26.33 37.224 26.517 36.9967 26.7516 36.806C26.9936 36.608 27.276 36.4577 27.5986 36.355C27.9213 36.245 28.2696 36.19 28.6436 36.19C29.0396 36.19 29.4026 36.2413 29.7326 36.344C30.0626 36.4467 30.356 36.6007 30.6126 36.806C30.8693 37.004 31.082 37.2497 31.2506 37.543L30.4146 38.368C30.268 38.126 30.103 37.9243 29.9196 37.763C29.7363 37.5943 29.5346 37.4697 29.3146 37.389C29.0946 37.301 28.86 37.257 28.6106 37.257C28.3246 37.257 28.0753 37.301 27.8626 37.389C27.65 37.477 27.4813 37.6017 27.3566 37.763C27.2393 37.917 27.1806 38.1003 27.1806 38.313C27.1806 38.467 27.21 38.61 27.2686 38.742C27.3273 38.8667 27.4153 38.9803 27.5326 39.083C27.6573 39.1783 27.8223 39.2663 28.0276 39.347C28.233 39.4203 28.4786 39.4863 28.7646 39.545C29.168 39.633 29.5273 39.7467 29.8426 39.886C30.158 40.018 30.4256 40.1757 30.6456 40.359C30.8656 40.5423 31.0306 40.7477 31.1406 40.975C31.258 41.2023 31.3166 41.448 31.3166 41.712C31.3166 42.2033 31.203 42.6287 30.9756 42.988C30.7483 43.3473 30.4256 43.626 30.0076 43.824C29.5896 44.0147 29.091 44.11 28.5116 44.11ZM33.4289 44V36.751H34.5619V44H33.4289ZM32.2299 39.325V38.225H35.9039V39.325H32.2299ZM37.3976 44.121C37.1556 44.121 36.9686 44.0513 36.8366 43.912C36.7046 43.7653 36.6386 43.56 36.6386 43.296C36.6386 43.054 36.7082 42.856 36.8476 42.702C36.9869 42.548 37.1702 42.471 37.3976 42.471C37.6396 42.471 37.8266 42.5443 37.9586 42.691C38.0906 42.8303 38.1566 43.032 38.1566 43.296C38.1566 43.538 38.0869 43.736 37.9476 43.89C37.8082 44.044 37.6249 44.121 37.3976 44.121ZM42.8075 44V36.3H43.9735L46.7785 40.865L46.2175 40.854L49.0555 36.3H50.1555V44H48.9675V40.843C48.9675 40.183 48.9822 39.589 49.0115 39.061C49.0482 38.533 49.1068 38.0087 49.1875 37.488L49.3415 37.895L46.8225 41.789H46.0965L43.6545 37.939L43.7755 37.488C43.8562 37.9793 43.9112 38.4853 43.9405 39.006C43.9772 39.5193 43.9955 40.1317 43.9955 40.843V44H42.8075ZM54.2503 44.11C53.7737 44.11 53.3373 43.978 52.9413 43.714C52.5527 43.45 52.241 43.0907 52.0063 42.636C51.7717 42.1813 51.6543 41.668 51.6543 41.096C51.6543 40.5167 51.7717 40.0033 52.0063 39.556C52.2483 39.1013 52.571 38.7457 52.9743 38.489C53.385 38.2323 53.8433 38.104 54.3493 38.104C54.65 38.104 54.925 38.148 55.1743 38.236C55.4237 38.324 55.64 38.4487 55.8233 38.61C56.014 38.764 56.168 38.9437 56.2853 39.149C56.41 39.3543 56.487 39.5743 56.5163 39.809L56.2633 39.721V38.225H57.4073V44H56.2633V42.625L56.5273 42.548C56.4833 42.746 56.3917 42.9403 56.2523 43.131C56.1203 43.3143 55.948 43.4793 55.7353 43.626C55.53 43.7727 55.299 43.89 55.0423 43.978C54.793 44.066 54.529 44.11 54.2503 44.11ZM54.5473 43.065C54.892 43.065 55.1963 42.9807 55.4603 42.812C55.7243 42.6433 55.9297 42.4123 56.0763 42.119C56.2303 41.8183 56.3073 41.4773 56.3073 41.096C56.3073 40.722 56.2303 40.3883 56.0763 40.095C55.9297 39.8017 55.7243 39.5707 55.4603 39.402C55.1963 39.2333 54.892 39.149 54.5473 39.149C54.21 39.149 53.9093 39.2333 53.6453 39.402C53.3887 39.5707 53.1833 39.8017 53.0293 40.095C52.8827 40.3883 52.8093 40.722 52.8093 41.096C52.8093 41.4773 52.8827 41.8183 53.0293 42.119C53.1833 42.4123 53.3887 42.6433 53.6453 42.812C53.9093 42.9807 54.21 43.065 54.5473 43.065ZM58.9893 44V38.225H60.1333V40.04L60.0233 39.6C60.1039 39.3213 60.2396 39.0683 60.4303 38.841C60.6283 38.6137 60.8519 38.434 61.1013 38.302C61.3579 38.17 61.6219 38.104 61.8933 38.104C62.0179 38.104 62.1353 38.115 62.2453 38.137C62.3626 38.159 62.4543 38.1847 62.5203 38.214L62.2233 39.446C62.1353 39.4093 62.0363 39.38 61.9263 39.358C61.8236 39.3287 61.7209 39.314 61.6183 39.314C61.4203 39.314 61.2296 39.3543 61.0463 39.435C60.8703 39.5083 60.7126 39.6147 60.5733 39.754C60.4413 39.886 60.3349 40.0437 60.2543 40.227C60.1736 40.403 60.1333 40.5973 60.1333 40.81V44H58.9893ZM64.3938 46.53L65.5598 43.835L65.5708 44.737L62.6888 38.225H64.0088L65.8128 42.471C65.8495 42.5443 65.8935 42.658 65.9448 42.812C65.9961 42.9587 66.0401 43.1053 66.0768 43.252L65.7908 43.318C65.8495 43.164 65.9045 43.01 65.9558 42.856C66.0145 42.702 66.0695 42.548 66.1208 42.394L67.6278 38.225H68.9698L66.5938 44L65.6148 46.53H64.3938ZM69.6634 38.775L69.2454 38.269C69.5314 38.137 69.7661 37.9867 69.9494 37.818C70.1327 37.6493 70.2244 37.5027 70.2244 37.378C70.2244 37.2827 70.1841 37.1983 70.1034 37.125C70.0227 37.0443 69.9494 36.9783 69.8834 36.927C69.7221 36.795 69.6121 36.685 69.5534 36.597C69.5021 36.509 69.4764 36.4173 69.4764 36.322C69.4764 36.146 69.5387 36.0067 69.6634 35.904C69.7881 35.794 69.9494 35.739 70.1474 35.739C70.3527 35.739 70.5361 35.794 70.6974 35.904C70.8661 36.0067 70.9981 36.1497 71.0934 36.333C71.1887 36.5163 71.2364 36.7327 71.2364 36.982C71.2364 37.1727 71.1961 37.3597 71.1154 37.543C71.0347 37.7263 70.9211 37.8987 70.7744 38.06C70.6351 38.2213 70.4701 38.3643 70.2794 38.489C70.0887 38.6137 69.8834 38.709 69.6634 38.775ZM74.3957 44.11C73.9117 44.11 73.4754 44.0257 73.0867 43.857C72.698 43.6883 72.3754 43.439 72.1187 43.109L72.8887 42.449C73.1087 42.7057 73.347 42.8927 73.6037 43.01C73.8677 43.12 74.1647 43.175 74.4947 43.175C74.6267 43.175 74.7477 43.1603 74.8577 43.131C74.975 43.0943 75.074 43.043 75.1547 42.977C75.2427 42.911 75.3087 42.834 75.3527 42.746C75.3967 42.6507 75.4187 42.548 75.4187 42.438C75.4187 42.2473 75.349 42.0933 75.2097 41.976C75.1364 41.9247 75.019 41.8697 74.8577 41.811C74.7037 41.745 74.502 41.679 74.2527 41.613C73.8274 41.503 73.479 41.3783 73.2077 41.239C72.9364 41.0997 72.7274 40.942 72.5807 40.766C72.4707 40.6267 72.39 40.4763 72.3387 40.315C72.2874 40.1463 72.2617 39.963 72.2617 39.765C72.2617 39.523 72.313 39.303 72.4157 39.105C72.5257 38.8997 72.6724 38.7237 72.8557 38.577C73.0464 38.423 73.2664 38.3057 73.5157 38.225C73.7724 38.1443 74.0437 38.104 74.3297 38.104C74.601 38.104 74.8687 38.1407 75.1327 38.214C75.404 38.2873 75.6534 38.3937 75.8807 38.533C76.108 38.6723 76.2987 38.8373 76.4527 39.028L75.8037 39.743C75.6644 39.6037 75.5104 39.4827 75.3417 39.38C75.1804 39.27 75.0154 39.1857 74.8467 39.127C74.678 39.0683 74.524 39.039 74.3847 39.039C74.2307 39.039 74.0914 39.0537 73.9667 39.083C73.842 39.1123 73.7357 39.1563 73.6477 39.215C73.567 39.2737 73.5047 39.347 73.4607 39.435C73.4167 39.523 73.3947 39.622 73.3947 39.732C73.402 39.8273 73.424 39.919 73.4607 40.007C73.5047 40.0877 73.5634 40.1573 73.6367 40.216C73.7174 40.2747 73.8384 40.337 73.9997 40.403C74.161 40.469 74.3664 40.5313 74.6157 40.59C74.9824 40.6853 75.283 40.7917 75.5177 40.909C75.7597 41.019 75.9504 41.1473 76.0897 41.294C76.2364 41.4333 76.339 41.5947 76.3977 41.778C76.4564 41.9613 76.4857 42.1667 76.4857 42.394C76.4857 42.724 76.3904 43.021 76.1997 43.285C76.0164 43.5417 75.767 43.7433 75.4517 43.89C75.1364 44.0367 74.7844 44.11 74.3957 44.11Z" fill="black"/>
</svg>
