<svg width="60" height="72" viewBox="0 0 60 72" fill="none" xmlns="http://www.w3.org/2000/svg">
<path d="M31.5657 5H26.4343C26.0349 5 25.7967 5.44507 26.0182 5.77735L27.416 7.87404C27.4708 7.95617 27.5 8.05268 27.5 8.15139V9.5V13.5C27.5 13.7761 27.2761 14 27 14H23H20.1514C20.0527 14 19.9562 13.9708 19.874 13.916L17.7773 12.5182C17.4451 12.2967 17 12.5349 17 12.9343V18.0657C17 18.4651 17.4451 18.7033 17.7774 18.4818L19.874 17.084C19.9562 17.0292 20.0527 17 20.1514 17H23H27C27.2761 17 27.5 17.2239 27.5 17.5V21V36.882C27.5 36.9596 27.4819 37.0361 27.4472 37.1056L26.3618 39.2764C26.1956 39.6088 26.4373 40 26.809 40H31.191C31.5627 40 31.8044 39.6088 31.6382 39.2764L30.5528 37.1056C30.5181 37.0361 30.5 36.9596 30.5 36.882V21V17.5C30.5 17.2239 30.7239 17 31 17H35H37.8486C37.9473 17 38.0438 17.0292 38.126 17.084L40.2227 18.4818C40.5549 18.7033 41 18.4651 41 18.0657V12.9343C41 12.5349 40.5549 12.2967 40.2227 12.5182L38.126 13.916C38.0438 13.9708 37.9473 14 37.8486 14H35H31C30.7239 14 30.5 13.7761 30.5 13.5V9.5V8.15139C30.5 8.05268 30.5292 7.95617 30.584 7.87404L31.9818 5.77735C32.2033 5.44507 31.9651 5 31.5657 5Z" fill="#4F4533"/>
<path d="M27.5 9.5V13.5C27.5 13.7761 27.2761 14 27 14H23M27.5 9.5V8.15139C27.5 8.05268 27.4708 7.95617 27.416 7.87404L26.0182 5.77735C25.7967 5.44507 26.0349 5 26.4343 5H31.5657C31.9651 5 32.2033 5.44507 31.9818 5.77735L30.584 7.87404C30.5292 7.95617 30.5 8.05268 30.5 8.15139V9.5M27.5 9.5C25 9.5 23 11.5 23 14M23 14H20.1514C20.0527 14 19.9562 13.9708 19.874 13.916L17.7773 12.5182C17.4451 12.2967 17 12.5349 17 12.9343V18.0657C17 18.4651 17.4451 18.7033 17.7774 18.4818L19.874 17.084C19.9562 17.0292 20.0527 17 20.1514 17H23M30.5 9.5V13.5C30.5 13.7761 30.7239 14 31 14H35M30.5 9.5C33 9.5 35 11.5 35 14M35 14H37.8486C37.9473 14 38.0438 13.9708 38.126 13.916L40.2227 12.5182C40.5549 12.2967 41 12.5349 41 12.9343V18.0657C41 18.4651 40.5549 18.7033 40.2226 18.4818L38.126 17.084C38.0438 17.0292 37.9473 17 37.8486 17H35M35 17H31C30.7239 17 30.5 17.2239 30.5 17.5V21M35 17C35 19.5 33 21 30.5 21M30.5 21V36.882C30.5 36.9596 30.5181 37.0361 30.5528 37.1056L31.6382 39.2764C31.8044 39.6088 31.5627 40 31.191 40H26.809C26.4373 40 26.1956 39.6088 26.3618 39.2764L27.4472 37.1056C27.4819 37.0361 27.5 36.9596 27.5 36.882V21M27.5 21V17.5C27.5 17.2239 27.2761 17 27 17H23M27.5 21C25 21 23 19.5 23 17" stroke="black"/>
<path d="M15.0234 54L11.9434 46.3H13.8904L15.3754 50.227C15.4634 50.4543 15.5367 50.6523 15.5954 50.821C15.6614 50.9897 15.7164 51.1473 15.7604 51.294C15.8117 51.4407 15.8557 51.591 15.8924 51.745C15.9364 51.8917 15.9841 52.0603 16.0354 52.251H15.6944C15.7531 52.0017 15.8117 51.7817 15.8704 51.591C15.9291 51.393 15.9951 51.1913 16.0684 50.986C16.1417 50.7733 16.2334 50.5203 16.3434 50.227L17.7734 46.3H19.6874L16.5854 54H15.0234ZM22.6392 54.11C21.9939 54.11 21.4329 53.9817 20.9562 53.725C20.4795 53.461 20.1092 53.1053 19.8452 52.658C19.5812 52.2033 19.4492 51.6863 19.4492 51.107C19.4492 50.6597 19.5225 50.249 19.6692 49.875C19.8159 49.501 20.0212 49.1783 20.2852 48.907C20.5492 48.6283 20.8609 48.4157 21.2202 48.269C21.5869 48.115 21.9865 48.038 22.4192 48.038C22.8299 48.038 23.2039 48.1113 23.5412 48.258C23.8859 48.4047 24.1829 48.61 24.4322 48.874C24.6815 49.138 24.8722 49.4497 25.0042 49.809C25.1362 50.1683 25.1949 50.5607 25.1802 50.986L25.1692 51.459H20.5162L20.2632 50.469H23.7392L23.5522 50.678V50.458C23.5375 50.2747 23.4789 50.1133 23.3762 49.974C23.2809 49.8273 23.1525 49.7137 22.9912 49.633C22.8299 49.5523 22.6465 49.512 22.4412 49.512C22.1552 49.512 21.9095 49.5707 21.7042 49.688C21.5062 49.798 21.3559 49.963 21.2532 50.183C21.1505 50.3957 21.0992 50.6597 21.0992 50.975C21.0992 51.2977 21.1652 51.58 21.2972 51.822C21.4365 52.0567 21.6345 52.24 21.8912 52.372C22.1552 52.504 22.4669 52.57 22.8262 52.57C23.0755 52.57 23.2955 52.5333 23.4862 52.46C23.6842 52.3867 23.8969 52.262 24.1242 52.086L24.9492 53.252C24.7219 53.45 24.4799 53.6113 24.2232 53.736C23.9665 53.8607 23.7025 53.9523 23.4312 54.011C23.1672 54.077 22.9032 54.11 22.6392 54.11ZM26.3015 54V48.159H27.9735L28.0505 50.062L27.7205 49.699C27.8085 49.3837 27.9515 49.1013 28.1495 48.852C28.3548 48.6027 28.5932 48.4047 28.8645 48.258C29.1358 48.1113 29.4255 48.038 29.7335 48.038C29.8655 48.038 29.9865 48.049 30.0965 48.071C30.2138 48.093 30.3202 48.1187 30.4155 48.148L29.9315 50.095C29.8508 50.0437 29.7408 50.0033 29.6015 49.974C29.4695 49.9373 29.3302 49.919 29.1835 49.919C29.0222 49.919 28.8718 49.9483 28.7325 50.007C28.5932 50.0583 28.4758 50.1353 28.3805 50.238C28.2852 50.3407 28.2082 50.4617 28.1495 50.601C28.0982 50.7403 28.0725 50.898 28.0725 51.074V54H26.3015ZM31.3074 54V48.159H32.9794L33.0344 49.347L32.6824 49.479C32.763 49.215 32.906 48.9767 33.1114 48.764C33.324 48.544 33.577 48.368 33.8704 48.236C34.1637 48.104 34.4717 48.038 34.7944 48.038C35.2344 48.038 35.6047 48.1297 35.9054 48.313C36.206 48.489 36.4334 48.7567 36.5874 49.116C36.7414 49.468 36.8184 49.9007 36.8184 50.414V54H35.0474V50.557C35.0474 50.3223 35.0144 50.128 34.9484 49.974C34.8824 49.82 34.7797 49.7063 34.6404 49.633C34.5084 49.5523 34.3434 49.5157 34.1454 49.523C33.9914 49.523 33.8484 49.5487 33.7164 49.6C33.5844 49.644 33.4707 49.7137 33.3754 49.809C33.28 49.897 33.203 49.9997 33.1444 50.117C33.093 50.2343 33.0674 50.3627 33.0674 50.502V54H32.1984C31.993 54 31.817 54 31.6704 54C31.5237 54 31.4027 54 31.3074 54ZM40.4458 54.099C39.9545 54.099 39.5145 53.9707 39.1258 53.714C38.7445 53.45 38.4401 53.0907 38.2128 52.636C37.9855 52.174 37.8718 51.6533 37.8718 51.074C37.8718 50.48 37.9855 49.9557 38.2128 49.501C38.4401 49.0463 38.7518 48.6907 39.1478 48.434C39.5438 48.17 39.9948 48.038 40.5008 48.038C40.7795 48.038 41.0325 48.0783 41.2598 48.159C41.4945 48.2397 41.6998 48.3533 41.8758 48.5C42.0518 48.6393 42.2021 48.8043 42.3268 48.995C42.4515 49.1783 42.5431 49.3763 42.6018 49.589L42.2388 49.545V48.159H43.9878V54H42.2058V52.592L42.6018 52.581C42.5431 52.7863 42.4478 52.9807 42.3158 53.164C42.1838 53.3473 42.0225 53.5087 41.8318 53.648C41.6411 53.7873 41.4285 53.8973 41.1938 53.978C40.9591 54.0587 40.7098 54.099 40.4458 54.099ZM40.9298 52.614C41.2011 52.614 41.4358 52.5517 41.6338 52.427C41.8318 52.3023 41.9858 52.1263 42.0958 51.899C42.2058 51.6643 42.2608 51.3893 42.2608 51.074C42.2608 50.7587 42.2058 50.4873 42.0958 50.26C41.9858 50.0253 41.8318 49.8457 41.6338 49.721C41.4358 49.589 41.2011 49.523 40.9298 49.523C40.6658 49.523 40.4348 49.589 40.2368 49.721C40.0461 49.8457 39.8958 50.0253 39.7858 50.26C39.6758 50.4873 39.6208 50.7587 39.6208 51.074C39.6208 51.3893 39.6758 51.6643 39.7858 51.899C39.8958 52.1263 40.0461 52.3023 40.2368 52.427C40.4348 52.5517 40.6658 52.614 40.9298 52.614ZM45.5518 54V45.86H47.3118V54H45.5518ZM7.46328 68.11C7.04528 68.11 6.65661 68.055 6.29728 67.945C5.94528 67.835 5.62261 67.67 5.32928 67.45C5.04328 67.2227 4.78661 66.944 4.55928 66.614L5.37328 65.679C5.73261 66.1923 6.07728 66.548 6.40728 66.746C6.73728 66.944 7.12961 67.043 7.58428 67.043C7.86294 67.043 8.11594 66.999 8.34328 66.911C8.57061 66.823 8.75028 66.702 8.88228 66.548C9.01428 66.394 9.08028 66.218 9.08028 66.02C9.08028 65.888 9.05828 65.7633 9.01428 65.646C8.97028 65.5287 8.90061 65.4223 8.80528 65.327C8.71728 65.2317 8.59994 65.1437 8.45328 65.063C8.31394 64.9823 8.14894 64.9127 7.95828 64.854C7.76761 64.788 7.54761 64.733 7.29828 64.689C6.90228 64.6083 6.55761 64.502 6.26428 64.37C5.97094 64.238 5.72528 64.073 5.52728 63.875C5.32928 63.677 5.18261 63.4533 5.08728 63.204C4.99194 62.9473 4.94428 62.6613 4.94428 62.346C4.94428 62.038 5.01028 61.752 5.14228 61.488C5.28161 61.224 5.46861 60.9967 5.70328 60.806C5.94528 60.608 6.22761 60.4577 6.55028 60.355C6.87294 60.245 7.22128 60.19 7.59528 60.19C7.99128 60.19 8.35428 60.2413 8.68428 60.344C9.01428 60.4467 9.30761 60.6007 9.56428 60.806C9.82094 61.004 10.0336 61.2497 10.2023 61.543L9.36628 62.368C9.21961 62.126 9.05461 61.9243 8.87128 61.763C8.68794 61.5943 8.48628 61.4697 8.26628 61.389C8.04628 61.301 7.81161 61.257 7.56228 61.257C7.27628 61.257 7.02694 61.301 6.81428 61.389C6.60161 61.477 6.43294 61.6017 6.30828 61.763C6.19094 61.917 6.13228 62.1003 6.13228 62.313C6.13228 62.467 6.16161 62.61 6.22028 62.742C6.27894 62.8667 6.36694 62.9803 6.48428 63.083C6.60894 63.1783 6.77394 63.2663 6.97928 63.347C7.18461 63.4203 7.43028 63.4863 7.71628 63.545C8.11961 63.633 8.47894 63.7467 8.79428 63.886C9.10961 64.018 9.37728 64.1757 9.59728 64.359C9.81728 64.5423 9.98228 64.7477 10.0923 64.975C10.2096 65.2023 10.2683 65.448 10.2683 65.712C10.2683 66.2033 10.1546 66.6287 9.92728 66.988C9.69994 67.3473 9.37728 67.626 8.95928 67.824C8.54128 68.0147 8.04261 68.11 7.46328 68.11ZM12.3805 68V60.751H13.5135V68H12.3805ZM11.1815 63.325V62.225H14.8555V63.325H11.1815ZM16.3492 68.121C16.1072 68.121 15.9202 68.0513 15.7882 67.912C15.6562 67.7653 15.5902 67.56 15.5902 67.296C15.5902 67.054 15.6599 66.856 15.7992 66.702C15.9385 66.548 16.1219 66.471 16.3492 66.471C16.5912 66.471 16.7782 66.5443 16.9102 66.691C17.0422 66.8303 17.1082 67.032 17.1082 67.296C17.1082 67.538 17.0385 67.736 16.8992 67.89C16.7599 68.044 16.5765 68.121 16.3492 68.121ZM23.4972 68.11C23.2478 68.11 23.0095 68.077 22.7822 68.011C22.5548 67.945 22.3422 67.8497 22.1442 67.725C21.9535 67.6003 21.7812 67.4537 21.6272 67.285C21.4732 67.109 21.3412 66.9183 21.2312 66.713L21.9792 65.932C22.1332 66.152 22.2725 66.328 22.3972 66.46C22.5292 66.592 22.6538 66.6947 22.7712 66.768C22.8885 66.8413 23.0058 66.8927 23.1232 66.922C23.2405 66.944 23.3652 66.955 23.4972 66.955C23.7612 66.955 23.9922 66.8963 24.1902 66.779C24.3882 66.6543 24.5422 66.4857 24.6522 66.273C24.7622 66.0603 24.8172 65.8183 24.8172 65.547V61.4H23.4092V60.3H27.1932V61.4H26.0052V65.657C26.0052 66.009 25.9428 66.3353 25.8182 66.636C25.7008 66.9293 25.5285 67.186 25.3012 67.406C25.0812 67.626 24.8172 67.7983 24.5092 67.923C24.2085 68.0477 23.8712 68.11 23.4972 68.11ZM30.2049 68.11C29.7283 68.11 29.2919 67.978 28.8959 67.714C28.5073 67.45 28.1956 67.0907 27.9609 66.636C27.7263 66.1813 27.6089 65.668 27.6089 65.096C27.6089 64.5167 27.7263 64.0033 27.9609 63.556C28.2029 63.1013 28.5256 62.7457 28.9289 62.489C29.3396 62.2323 29.7979 62.104 30.3039 62.104C30.6046 62.104 30.8796 62.148 31.1289 62.236C31.3783 62.324 31.5946 62.4487 31.7779 62.61C31.9686 62.764 32.1226 62.9437 32.2399 63.149C32.3646 63.3543 32.4416 63.5743 32.4709 63.809L32.2179 63.721V62.225H33.3619V68H32.2179V66.625L32.4819 66.548C32.4379 66.746 32.3463 66.9403 32.2069 67.131C32.0749 67.3143 31.9026 67.4793 31.6899 67.626C31.4846 67.7727 31.2536 67.89 30.9969 67.978C30.7476 68.066 30.4836 68.11 30.2049 68.11ZM30.5019 67.065C30.8466 67.065 31.1509 66.9807 31.4149 66.812C31.6789 66.6433 31.8843 66.4123 32.0309 66.119C32.1849 65.8183 32.2619 65.4773 32.2619 65.096C32.2619 64.722 32.1849 64.3883 32.0309 64.095C31.8843 63.8017 31.6789 63.5707 31.4149 63.402C31.1509 63.2333 30.8466 63.149 30.5019 63.149C30.1646 63.149 29.8639 63.2333 29.5999 63.402C29.3433 63.5707 29.1379 63.8017 28.9839 64.095C28.8373 64.3883 28.7639 64.722 28.7639 65.096C28.7639 65.4773 28.8373 65.8183 28.9839 66.119C29.1379 66.4123 29.3433 66.6433 29.5999 66.812C29.8639 66.9807 30.1646 67.065 30.5019 67.065ZM34.9219 68V62.225H36.0659V63.457L35.8569 63.589C35.9155 63.3983 36.0072 63.215 36.1319 63.039C36.2639 62.863 36.4215 62.709 36.6049 62.577C36.7955 62.4377 36.9972 62.3277 37.2099 62.247C37.4299 62.1663 37.6535 62.126 37.8809 62.126C38.2109 62.126 38.5005 62.181 38.7499 62.291C38.9992 62.401 39.2045 62.566 39.3659 62.786C39.5272 63.006 39.6445 63.281 39.7179 63.611L39.5419 63.567L39.6189 63.38C39.6995 63.2113 39.8095 63.0537 39.9489 62.907C40.0955 62.753 40.2605 62.6173 40.4439 62.5C40.6272 62.3827 40.8215 62.291 41.0269 62.225C41.2322 62.159 41.4339 62.126 41.6319 62.126C42.0645 62.126 42.4202 62.214 42.6989 62.39C42.9849 62.566 43.1975 62.8337 43.3369 63.193C43.4835 63.5523 43.5569 63.9997 43.5569 64.535V68H42.4129V64.601C42.4129 64.271 42.3689 64.0033 42.2809 63.798C42.2002 63.5853 42.0755 63.4277 41.9069 63.325C41.7382 63.2223 41.5219 63.171 41.2579 63.171C41.0525 63.171 40.8582 63.2077 40.6749 63.281C40.4989 63.347 40.3449 63.4423 40.2129 63.567C40.0809 63.6917 39.9782 63.8383 39.9049 64.007C39.8315 64.1683 39.7949 64.348 39.7949 64.546V68H38.6509V64.579C38.6509 64.2783 38.6069 64.0253 38.5189 63.82C38.4309 63.6073 38.3025 63.446 38.1339 63.336C37.9652 63.226 37.7599 63.171 37.5179 63.171C37.3125 63.171 37.1219 63.2077 36.9459 63.281C36.7699 63.347 36.6159 63.4423 36.4839 63.567C36.3519 63.6843 36.2492 63.8273 36.1759 63.996C36.1025 64.1573 36.0659 64.3333 36.0659 64.524V68H34.9219ZM47.7687 68.11C47.1747 68.11 46.6467 67.9853 46.1847 67.736C45.7301 67.4793 45.3707 67.131 45.1067 66.691C44.8501 66.251 44.7217 65.745 44.7217 65.173C44.7217 64.7183 44.7951 64.304 44.9417 63.93C45.0884 63.556 45.2901 63.2333 45.5467 62.962C45.8107 62.6833 46.1224 62.4707 46.4817 62.324C46.8484 62.17 47.2444 62.093 47.6697 62.093C48.0437 62.093 48.3921 62.1663 48.7147 62.313C49.0374 62.4523 49.3161 62.6467 49.5507 62.896C49.7927 63.1453 49.9761 63.4423 50.1007 63.787C50.2327 64.1243 50.2951 64.4947 50.2877 64.898L50.2767 65.382H45.5577L45.3047 64.48H49.2977L49.1327 64.667V64.403C49.1107 64.161 49.0301 63.9447 48.8907 63.754C48.7514 63.5633 48.5754 63.413 48.3627 63.303C48.1501 63.193 47.9191 63.138 47.6697 63.138C47.2737 63.138 46.9401 63.215 46.6687 63.369C46.3974 63.5157 46.1921 63.7357 46.0527 64.029C45.9134 64.315 45.8437 64.6707 45.8437 65.096C45.8437 65.4993 45.9281 65.8513 46.0967 66.152C46.2654 66.4453 46.5037 66.6727 46.8117 66.834C47.1197 66.9953 47.4754 67.076 47.8787 67.076C48.1647 67.076 48.4287 67.0283 48.6707 66.933C48.9201 66.8377 49.1877 66.6653 49.4737 66.416L50.0457 67.219C49.8697 67.395 49.6534 67.549 49.3967 67.681C49.1474 67.813 48.8797 67.9193 48.5937 68C48.3151 68.0733 48.0401 68.11 47.7687 68.11ZM53.4441 68.11C52.9601 68.11 52.5237 68.0257 52.1351 67.857C51.7464 67.6883 51.4237 67.439 51.1671 67.109L51.9371 66.449C52.1571 66.7057 52.3954 66.8927 52.6521 67.01C52.9161 67.12 53.2131 67.175 53.5431 67.175C53.6751 67.175 53.7961 67.1603 53.9061 67.131C54.0234 67.0943 54.1224 67.043 54.2031 66.977C54.2911 66.911 54.3571 66.834 54.4011 66.746C54.4451 66.6507 54.4671 66.548 54.4671 66.438C54.4671 66.2473 54.3974 66.0933 54.2581 65.976C54.1847 65.9247 54.0674 65.8697 53.9061 65.811C53.7521 65.745 53.5504 65.679 53.3011 65.613C52.8757 65.503 52.5274 65.3783 52.2561 65.239C51.9847 65.0997 51.7757 64.942 51.6291 64.766C51.5191 64.6267 51.4384 64.4763 51.3871 64.315C51.3357 64.1463 51.3101 63.963 51.3101 63.765C51.3101 63.523 51.3614 63.303 51.4641 63.105C51.5741 62.8997 51.7207 62.7237 51.9041 62.577C52.0947 62.423 52.3147 62.3057 52.5641 62.225C52.8207 62.1443 53.0921 62.104 53.3781 62.104C53.6494 62.104 53.9171 62.1407 54.1811 62.214C54.4524 62.2873 54.7017 62.3937 54.9291 62.533C55.1564 62.6723 55.3471 62.8373 55.5011 63.028L54.8521 63.743C54.7127 63.6037 54.5587 63.4827 54.3901 63.38C54.2287 63.27 54.0637 63.1857 53.8951 63.127C53.7264 63.0683 53.5724 63.039 53.4331 63.039C53.2791 63.039 53.1397 63.0537 53.0151 63.083C52.8904 63.1123 52.7841 63.1563 52.6961 63.215C52.6154 63.2737 52.5531 63.347 52.5091 63.435C52.4651 63.523 52.4431 63.622 52.4431 63.732C52.4504 63.8273 52.4724 63.919 52.5091 64.007C52.5531 64.0877 52.6117 64.1573 52.6851 64.216C52.7657 64.2747 52.8867 64.337 53.0481 64.403C53.2094 64.469 53.4147 64.5313 53.6641 64.59C54.0307 64.6853 54.3314 64.7917 54.5661 64.909C54.8081 65.019 54.9987 65.1473 55.1381 65.294C55.2847 65.4333 55.3874 65.5947 55.4461 65.778C55.5047 65.9613 55.5341 66.1667 55.5341 66.394C55.5341 66.724 55.4387 67.021 55.2481 67.285C55.0647 67.5417 54.8154 67.7433 54.5001 67.89C54.1847 68.0367 53.8327 68.11 53.4441 68.11Z" fill="black"/>
</svg>
