<svg height="57" viewBox="0 0 80 57" width="80" xmlns="http://www.w3.org/2000/svg"><g fill="none" fill-rule="evenodd" transform="translate(0 -.25)"><path d="m9.83127012 42.786105c2.70185458.0950805 5.34856938-.3746732 7.49730198-.3614938l.4066567-.0047069.1619734-.0028242.1809278.0084725.3446243-.0018828.3877023-.0047069c1.310434-.0160036 2.6200064.4546914 3.9278556.3887941.6211854-.0348314 1.2415091-.0753112 1.8618329-.1186151 1.296649-.1016702 2.5898517-.231582 3.8787467-.3831458-.4583504.1261463-.9477169.154388-1.4250216.20993-.8133134.0950804-1.630073.1703916-2.4476942.2353475-2.16941.1534466-4.3526051-.2466442-6.528046-.325721l-.3429012.0009414-.4066567-.0018828c-1.3560967.0178864-2.7139165.5629513-4.0700132.5347096-1.1432911-.03389-2.2857207-.0969632-3.42728878-.1732158m37.15480888-1.9204358-.2576067.0009413c.0672018-.016945.1559425-.0160036.2576067-.0009413m22.8330839.6410866c-1.1562145.0621318-2.31846.1261463-3.4738131.0640146-3.0163243-.0244762-6.0352333-.0828424-9.0455266-.2513512-.7461117-.0489523-1.5370245-.0743698-2.3529226-.0828423.7943591-.2193439 1.5887181-.3916183 2.3839387-.3558455 1.267356.0451867 2.5355734.0847251 3.8037909.0969632.8055593.0084725 1.6111187.0150622 2.416678.0150622.466966 0 .9347935 0 1.4017594-.0037655.247268-.0018828.4928128-.0037656.7400807-.0065898l.2265905-.0018827.2033284-.0028242.1792046-.0028242.1550809-.0028242.0947717-.0018827c2.4485558.1186151 9.4478756.4283325 9.4478756.4283325v-.9413902l-76-.2071058v.4095047s6.3428105.7333429 5.70439396.7531121c1.00544144.1496811 2.01346756.2899482 3.02493992.4142117.84519113.0715456 1.69124382.137443 2.53815812.1958091-2.16165606.0018828-11.267492-.2899481-11.267492-.2899481v.415153c1.75586088.2409959 3.86323856.3501972 6.06797261.4754021-1.41899061.0225933-3.73658912-.0150623-4.4732236-.098846-.21711331-.0244762-.43336507-.0498937-.65133995-.0658973-.03360087-.0028242-.06720174-.004707-.10080261-.0065898-.02929307-.0018827-.05858613-.0037655-.08874076-.0047069-.02498527-.0009414-.04997053-.0009414-.07581735-.0009414-.0198159.0009414-.04049336.0018828-.06117082.0028242-.01292341.0009414-.02584682.0037655-.04566272.0065897-.02067746.0056483-.05083209.0282417-.03790867.0423626.06547862.0809595.20591302.0979045.31963905.1195565.18868181.0367142.38253299.0546006.5755226.0677801.16541967.0112967.33256247.016945.4988437.0160036.10338729 0 .22314424.0178864.30843876-.0310658 1.81617013.2391131 6.20754546.2231094 8.04008526.3389004 4.7161837.2993621 9.4625221.2965379 14.1873214.1176738.7168186-.0329487 1.4353603-.098846 2.1521789-.0715457 3.0094318-.2937137 16.2335283-.4170358 18.5218337-.5714238 3.7296967-.2089886 8.3442163-.1176738 12.075636.0724871 2.7371786.1120254 5.4795266.0847251 8.2192899.0480108.8813767-.0112966 1.7636149-.0244761 2.6441301-.0546006.3342855-.0122381.6685711-.0244761 1.0011336-.0480109.1232032-.0084725.2464064-.016945.3678864-.0357728.0465243-.0065897.1214801-.0028242.1326804-.0414212.0172312-.0536592-.127511-.0329486-.1938512-.0376556-.0956332-.0075311-.1912665-.012238-.2868997-.0160036-.3006847-.0122381-.6005079-.0160036-.900331-.0197692-.9123929-.0094139-1.8239242-.0075311-2.7363171-.0065897-1.6317961.0028241-3.2635922-.0018828-4.8953884-.0414212-1.1088287-.0263589-2.2211037-.0498937-3.3290708-.1656847l-.0818483-.0103553-.0680633-.0103552-.0232622-.004707-.0189543-.0047069c-.0585861-.0160037-.0284315-.0197692-.0284315-.0197692.049109-.0508351.1533578-.0235348.2326214-.026359 1.5447785-.038597 3.0878339.1449741 4.6326123.1920436 2.3038136.0706043 4.6153812.0235348 6.9157485-.1120254 1.2845871-.0753112 5.2141658-.2005161 6.4565365-.4857573l.0448012-.0103553-.0448012-.0207106-.2033283-.0931976c-.5720764-.0235348-3.7667438.0329486-4.3396817.0094139-.2963769-.0112967-.5936154-.0225934-.8908539-.0338901" fill="#eba02d"/><path d="m66.347073 54.7139624c-2.7018547-.0950779-5.3485694.3746633-7.4981636.3614842l-.4057951.0047068-.1619734.0028241-.1809278-.0084723-.3446243.0018827-.3877023.0047069c-1.310434.0160032-2.6200064-.4546794-3.9278557-.3887838-.6211853.0348305-1.2415091.0753092-1.8618328.118612-1.296649.1016674-2.5898517.2315758-3.8787467.3831356.4583504-.126143.9477169-.1543839 1.4250216-.2099244.8133133-.0950779 1.630073-.1703871 2.4476942-.2353413 2.16941-.1534425 4.352605.2466376 6.528046.3257123l.3429012-.0009414.4057951.0018828c1.3569583-.017886 2.7147781-.5629364 4.0708748-.5346954 1.1432911.0338891 2.2857207.0969606 3.4272888.1732112m-37.1548089 1.9203848.2576067-.0009414c-.0680633.0169446-.1559425.0160033-.2576067.0009414m-23.01228859-.6410696c1.15621458-.0621301 2.31846008-.126143 3.47467465-.0649542 3.01632434.0254168 6.03523334.0837815 9.04466514.2522858.7469732.0498924 1.537886.0743679 2.3537841.0828402-.7943591.219338-1.5895797.3916078-2.3839387.355836-1.2682175-.0451856-2.5355734-.0847229-3.8046525-.0969606-.8055593-.0084723-1.6102571-.0150619-2.4158164-.0150619-.4678275 0-.9347935 0-1.402621.0028241-.2464064.0018827-.4928127.0047068-.7392191.0075309l-.2265905.0028241-.20332836.0018828-.1800662.0028241-.15421938.0028241-.09477169.0018827c-2.44941731-.118612-9.44787557.1807421-9.44787557.1807421v.3323019l76 .2071003v-.6401283s-6.3428105-.502689-5.704394-.5224576c-1.006303-.1496771-2.0143291-.2899405-3.0249399-.4142007-.8451911-.0715437-1.6912438-.1374393-2.5381581-.1958039 2.1616561-.0009414 11.267492.7352061 11.267492.7352061s-3.8632386-.7653298-6.0679726-.8914727c1.418129-.0225928 3.7365891-.4292625 4.4732236-.345481.2162517.0244755.4333651.048951.6513399.0658955.0327393.0028241.0672018.0056482.1008027.0065896.029293.0028241.0585861.0037654.0878792.0047068.0258468 0 .050832.0009414.0758173.0009414.0206775-.0009414.0413549-.0009414.0611708-.0028241.0129234-.0009414.0258468-.0037655.0465243-.0065896.0198159-.0056482.0499705-.0282409.0379087-.0423614-.0654786-.0809574-.2059131-.097902-.3196391-.1195534-.1886818-.0367132-.382533-.0545992-.5755226-.0677783-.1662812-.0112964-.3325624-.0169445-.4997052-.0169445-.1033873.0009413-.2231443-.017886-.3075772.0320064-1.8161702-.2391068-6.2075455-.2231036-8.0409468-.3398328-4.7153222-.2984128-9.4625222-.2955887-14.1864599-.1167293-.7176802.0329478-1.4353603.0988433-2.1530404.0724851-3.0094319.2927646-16.2335284.4160834-18.5218338.5704673-3.7296966.208983-8.3442162.1176706-12.075636-.0734265-2.736317-.1110811-5.4795266-.0837815-8.2184283-.0480096-.88223825.0122377-1.76361493.0254168-2.64499162.0555405-.33342402.0122378-.66770961.0244755-1.00113363.0480096-.12234163.0084723-.24640638.0169446-.36702489.0357719-.04738585.0065896-.12148008.0028241-.13354193.0414201-.01636965.0536578.12837256.0320064.19471274.0376546.09477169.0075309.1912665.0122377.28689974.0160032.29982316.0122377.60050787.0160032.90033102.0197686.91153131.0094137 1.82392419.007531 2.73631707.0065896 1.6317961-.0028241 3.2635922.0028241 4.8945268.0414201 1.1088287.0263582 2.2219653.0498923 3.3290709.1656802l.0827098.0112964.0680633.0094137.0232622.0047068.0189543.0047068c.0585861.0160032.0284315.0197687.0275699.02071-.0491089.0498924-.1524962.0225928-.2317598.0254169-1.5456401.038596-3.0878339-.1449702-4.6326123-.1920385-2.3046752-.0706024-4.61624274-.0235341-6.91574847.1120225-1.2854487.0753092-5.21502744.2005107-6.45739809.4857444l-.04480116.010355.04480116.02071.20332835.0931952c.57207636.0235341 3.76760531-.0329478 4.33968167-.0094137.29723847.0112964.59447694.0225928.89085385.0338892" fill="#eba02d"/><g fill="#1a1919"><path d="m1.04620554 36.8555865c0 .7899718.27891347 1.3944135 1.72136657 1.3944135.4183702 0 2.23214786-.0931848 2.60431252-.0931848.27891347 0 1.53486418.0931848 1.7675721.0931848 1.06944834 0 1.30215626-.6976265 1.30215626-1.3944135 0-.3718996-.13945673-2.1382126-.13945673-2.5101122 0-.5574296.13945673-3.0675418.13945673-3.6249714 0-.6044417-.04620554-.9763413-.18566228-2.1382126 0-.3718995-.04704564-.6976265-.04704564-1.0225139 0-.2325422.09325119-1.3012287.09325119-1.5337709 0-1.4405861.13945673-1.6269557 1.90702884-1.6269557.2327079 0 1.0232428 0 1.2559507.5574296 0 .0470122.2327079 1.1156987.2327079 1.2088835 0 .5574296-.1402968 3.0213691-.1402968 3.5326261v.8361444c0 .2787148.0470457 1.4875983.0470457 1.7201404 0 .5574296-.1865024 2.9281844-.1865024 3.3932687 0 1.8586584.1865024 2.6024575 1.5357043 2.6024575.2789134 0 1.6743209-.1393574 1.9070288-.1393574.7434892 0 1.5340241.0931848 2.2321479.0931848.9770372 0 1.9070288-.0931848 1.9070288-2.0450279 0 0-.0932512-1.0225139-.1394567-1.5337709-.0462056-.5582691-.0462056-1.069526-.0462056-1.6269556 0-.511257.0462056-2.8358392.0462056-3.300084 0-.7908113-.0462056-4.3225979-.0462056-5.0202244.0462056-.696787.0924111-3.7181561.0924111-4.3225978 0-.1855301 0-3.996871-.0462055-5.2057545 0-1.1148591-.0462056-2.2305578-.0462056-3.3462565 0-1.022514.0462056-1.95184312.1394568-3.76516832 0-.27871479.0462055-.55742959.0462055-.88231702 0-.88315653-.0932512-1.90567046-1.8608233-1.90567046-.1394567 0-.6040325.04617263-1.0694483.09234526-.4654159.04701214-.9299916.09318477-1.0702885.09318477-.1386166 0-.5578269-.04617263-.9299916-.09318477-.4183702 0-.7905348-.04617263-.9299916-.04617263-1.6281153 0-1.6281153 1.06868656-1.6281153 1.85949783v5.11256964c0 .4642448.0462055 2.6024575 0 2.974357 0 .2787148-.0462056.6044417-.0462056.7437991 0 .3718996 0 .8831566-.558667 1.0686866-.0924111.0470121-1.44161302.1393574-1.48781856.1393574-.74432932 0-1.07028844-.3248874-1.07028844-.9755018 0-.0931848.04704565-.6506144.04704565-.7437991 0-.2787148-.09325119-1.3944135-.09325119-1.6269557 0-.2787148.09325119-1.4405861.09325119-1.6731283.04620554-.696787.09325119-4.50812788.09325119-5.34511178 0-.51125696 0-1.44058612-1.72136656-1.44058612-.46541585 0-2.3724447.09234526-2.74460936.09234526-.18566228 0-1.06944833-.04617263-1.25511061-.04617263-.60487259 0-1.67516102 0-1.67516102 1.76631306 0 .2787148.09325119 1.48759826.09325119 1.76631306.04620554.74379913.04620554 1.53377085.04620554 2.27757005 0 1.0225139 0 2.6024574-.09241109 4.0900557-.09325119 1.3944135-.13945673 2.788827-.13945673 3.3000839 0 1.3944135.09241109 2.8349997.09241109 4.2294131 0 .325727-.04620555 1.7201405-.04620555 2.0450279v1.4875983c0 .3248874-.04620554 1.766313-.04620554 2.0450278 0 .3718996.04620554.7437991.04620554 1.1156987.04620555.6506144.04620555 1.3012287.04620555 1.9518431s-.04620555 3.3932687-.04620555 3.9968709z"/><path d="m36.9517494 28.7183917c0-1.3886505.0482506-2.7764363.0482506-4.1650868 0-.4306027-.0482506-2.5369243-.0482506-2.967527 0-.3830462.0482506-2.0112086.0482506-2.3458336 0-3.5425287-.5342657-4.5956895-1.8458045-5.5053161-1.6510476-1.1491385-4.8566416-1.4846282-6.070802-1.4846282-.2921354 0-1.7001754.0484212-1.9914335.0484212-1.0202808 0-1.8458046 0-3.7889876.6225581-1.40804.4306027-1.5536691.9087619-1.5536691 1.6748543 0 .4790239.0482506.9580478.0482506 1.4846282 0 .1910908-.0482506 1.0047396-.0482506 1.1482739 0 .1919554.0482506.7660923.0965012.9096266.0973785.4314673.8746517.86207 1.3115389.86207.1947569 0 .2912581 0 .8255238-.3354896.7290226-.3830462 1.8458045-.6701147 3.1090928-.6701147 2.0396841 0 2.5256992.4306027 2.7687067.8136489.2421303.3354897.3877594 1.0531608.3877594 1.4846282 0 .5265804-.4368872.7660924-.6798948.7660924-.145629 0-.2912581-.0484212-.3877593-.0959777-1.2150377-.5750016-1.6036743-.7185359-2.6722056-.7185359-.9229022 0-3.205594.2879331-4.7592631 2.3458336-1.1176592 1.436207-1.7493033 3.8780183-1.7493033 7.3245693 0 2.2022994.3886366 6.7504323 3.1090928 8.4252866.7281453.4790239 1.7001754.9096266 3.3994736.9096266 1.3606668 0 2.2344411-.3830462 2.7687068-.8136489.1456291-.0959777.7290226-.6701146.8746517-.6701146.145629 0 .2912581.1919554.2912581.5265804 0 .4790239 0 .7660923.6798947.7660923.2430076 0 .4860151-.0475565.7290226-.0475565.4368872-.0484212.9229023-.0959777 1.3597895-.0484212.3886366 0 2.088812.0484212 2.4283207.0484212.5825163 0 1.2632883-.1919554 1.2632883-1.101582v-.7176712c0-.3830461.0965012-2.0587651.0965012-2.3933901 0-.4314674-.0482506-2.2022994-.0482506-2.5853455zm-8.5973785-2.5853455c.6798948 0 1.5545464.6701146 1.5545464 1.9152309 0 .4790239 0 3.4465509-.0482506 3.6385063 0 .1435343-.2921354 1.5797413-1.5062958 1.5797413-1.0685313 0-1.602797-.9096266-1.602797-2.872414v-.9096266c0-1.3402293 0-1.7716967.3403861-2.4418113.3886366-.7176712.9711528-.9096266 1.2624109-.9096266z"/><path d="m37.9616529 13.9475637c.1046975.8452812.4677061 4.5674245.5603892 5.3186907.1038393.8452812.6496395 4.4973405.7483298 5.2956142.0635051.5170831.2703256 2.9708772.3286816 3.4409527.0686541.5632359.4471099 2.852931.5106149 3.3700141l.6144543 4.9785269c-.0180217.2401659.072945 1.3734752.0961158 1.5615054.1278683 1.0333114.7517625 1.4333029 1.6948984 1.3179208.1887988-.0230765.4187901-.0982885.6539304-.1273478.4187901-.0991432.9791793-.21538 1.9223152-.3307622.3303979-.0401701 1.8038868-.1247837 2.1334265-.1658084.1415991-.0170937.471997-.0572638.5784109-.3564027.0772359-.1521336.0540651-.3401638.1252938-.5393048.0300361-.1470055.0592141-.2931562.2008132-.3111046.0943994-.0111108.617887.3538387.7182937.3888807.6127379.3068311 1.707771.6495589 3.0285045.4880238 2.9229489-.3572574 4.154432-2.7965219 4.6641888-4.0982037.6702358-1.9418392.4797206-3.8725675.2265586-6.702422-.0746614-.6110982-.1810753-3.4101842-.2505876-3.9742748-1.2675265-10.2861068-3.8738082-12.3988825-7.5519523-11.9484647-1.0375353.1264931-2.2346914.5111003-3.1271948 1.4307389-.2591693.2230722-.3424124.3281982-.5784109.3572574-.3295398.0401701-.3587178-.1948677-.3758813-.3358903-.0180217-.1410227-.0866758-.7042586-.0574978-.851264l-.0806686-.657251c-.0523488-.423068-.3956193-2.43071776-.4479681-2.85378572-.0403343-.32819817-.0901085-1.89568631-.1304428-2.22473917-.1158538-.93929633-.7277336-1.24527275-1.4829288-1.15296701-.1415991.01709365-.5123313.11025407-1.1671199.2376018-.3243907.08717764-.6959811.18033806-1.0727206.22649093-.3775976.04615286-2.0458925.10769002-2.3754322.14786011-1.1319347.1384586-1.1036149.75468486-1.0461171 1.22390568.0060073.04700755.2154023 1.35638151.2969291 1.63244404zm9.0426048 4.6152868c.4711388-.0572638 1.1010403.3897353 1.3533442.8837419.4874442.8461359.8641836 3.5170195 1.060706 5.1144215.121861.9863039.326107 4.5845182.2729001 4.924682-.0369016.4811864-.2686092 1.3196301-1.1173457 1.4239014-.5191967.0632465-1.0366771-.2546954-1.3593514-.9298948-.2634602-.5880217-.8676164-4.7093019-.9834702-5.6485982-.0523487-.423068-.1836497-2.265764-.2359985-2.6888319-.121861-.9863039-.2025296-1.6435549.1879406-2.3589244.1184284-.2051238.3964775-.6683619.8212749-.7204975z"/><path d="m57.1518235 13.4574057c0 .2416557.0503029 1.110569.0503029 1.3042425.0512176.5312934.0512176 1.110569.0512176 1.690717 0 .5792756-.0512176 3.0429416-.0512176 3.5253804 0 .3864746.0512176 2.0292094.0512176 2.3668293 0 .5312935-.1527381 2.9469773-.1527381 3.4773983 0 .5321659.0512176 2.8989952.0512176 3.381434 0 .4833113-.0512176 2.6084849-.0512176 3.0429416 0 2.8981227 0 3.2357427-.0503029 4.0575463-.050303.8689134-.050303.9657501-.050303 1.2553879 0 1.3522246.5057734 1.690717 1.6709729 1.690717.5057734 0 2.8352578-.1448189 3.3922488-.1448189.253344 0 1.3673259.0968367 1.6206699.0968367 1.3161084 0 1.3161084-1.3522246 1.3161084-1.6427348 0-.6272577-.2021264-3.4773983-.2021264-4.0566739 0-.580148.1518234-3.236615.1518234-3.7679085 0-1.3042424-.1015205-2.6564671-.1015205-4.0086917 0-.6281301.1015205-3.4294161.1015205-4.0086917 0-.7249669-.1015205-3.9127274-.1015205-4.5408575 0-.8209312.0512176-1.5938803.1015205-2.4148115.050303-.8209312.050303-.8697858.050303-1.1114414 0-.7720767-.2524294-1.4002068-1.2658054-1.4002068-.5057734 0-2.7346519.0968367-3.1901223.0968367-.303647 0-1.670973-.0968367-1.924317-.0968367-.2524294 0-.5569909.0479822-.8606379.1928011-.6072939.2905102-.6072939.772949-.6072939 1.0146046"/><path d="m57 5.58321865c0 .28556683.0526316 1.47600206.0526316 1.71426114 0 .76208498 0 1.95252021 1.0602871 1.95252021.1588516 0 .7406698-.04730776.8468899-.04730776.4239235 0 2.2258373-.09547566 2.5961723-.09547566.3712918 0 1.907177.04730776 2.2258373.04730776.6880383 0 1.2181818-.28556683 1.2181818-.95217615 0-.23825908-.1062201-1.28591089-.1062201-1.47600207 0-.23825907.0526316-1.14312747.0526316-1.33321865-.0526316-.33373473-.1588517-1.14312747-.9004785-1.14312747-.1052631 0-.6354067.04730776-.7416268.04730776-1.0066985.04730776-2.3311005.04730776-2.6488038.04730776-.4239235 0-.9004785 0-1.3244019-.04730776-.3177034-.04730776-.5827751-.04730776-.8478469-.04730776-1.0066986 0-1.4832536.42835025-1.4832536 1.33321865"/><path d="m74.858376 26.7363998c0-.4779081.0492327-2.4361235.0492327-2.8182774 0-.3338455-.0492327-1.6235072-.0492327-1.909907v-.8126163c0-.4770454.2927589-.6685537.535406-.6685537.0492327 0 .7305786.0483084.8765185.0483084.2435262 0 .7296995 0 .7296995-.860062 0-.5253538-.0967072-2.769969-.0967072-3.1995687 0-.2863997.0483536-1.3854158.0483536-1.6243698-.0483536-.2863998-.1459399-.7643079-.8272858-.7643079-.1459399 0-.7789322.0483084-.9248721 0-.3894661 0-.4386989-.0948915-.4386989-.6685537 0-.3821539.0975864-1.909907.0975864-2.1963068 0-.238954-.0483536-1.28966165-.0483536-1.48116994 0-.19064564.0483536-1.09815339 0-1.28966168-.0492328-.9549535-.6813459-1.24135328-1.4602782-1.24135328-.3411125 0-1.7521579.09575414-2.0440377.09575414-.3894661 0-2.0932704-.09575414-2.434383-.09575414-.9248721 0-1.3143382.90750775-1.3143382 1.86246125 0 .33470818.0492327.66855371.0975863 1.05070765.0483536.4779081.0483536.9549535.0483536 1.4328616 0 .2863997-.0483536 1.6243698 0 1.8624612.0492327.3347082.0492327.6685537-.535406.6685537-.0967072 0-.5837596-.0474457-.6804668 0-.4386988.0957542-.4386988.4304624-.4386988.5736622v2.6267691c0 .3347082-.0483536 1.9107697-.0483536 2.1971695 0 .5253538.0483536 1.0023992.7789322 1.0023992.6329924 0 .9732257 0 .9732257.4779081 0 .1906456-.0492327 1.0032619-.0492327 1.1939075 0 .621108-.0483536 3.3436312-.0483536 3.9164308 0 .8117536.0483536 4.4417846 0 5.1586467 0 .5253539-.0975863 2.8174148-.0975863 3.2953229 0 3.1995686 1.1683983 4.6807386 3.8946611 4.6807386.4378197 0 2.4335039-.1431999 2.82297-.1431999.3411125 0 1.070812 0 1.3626918.0474458h.2918798c.4386988 0 .9741048-.3347082.9741048-1.1939076 0-.3347082-.0492327-1.8624612-.0492327-2.1971694 0-.3338455.0492327-1.9107697.0492327-2.1971694 0-1.2413533-.7305786-1.3371075-.8765185-1.3371075-.0975863 0-.535406.0474458-.5837596.0474458-.0975863-.0474458-.535406-.2863998-.535406-.6685537v-.4779081c0-.3338455-.0492327-1.7667071-.0492327-2.0531069z"/></g><path d="m.04620554 36.8555865c0 .7899718.27891347 1.3944135 1.72052647 1.3944135.4192103 0 2.23298796-.0931848 2.60515262-.0931848.27891347 0 1.53486418.0931848 1.7675721.0931848 1.06944834 0 1.30215626-.6976265 1.30215626-1.3944135 0-.3718996-.13945673-2.1382126-.13945673-2.5101122 0-.5574296.13945673-3.0675418.13945673-3.6249714 0-.6044417-.04620554-.9763413-.18566228-2.1382126 0-.3718995-.04704564-.6976265-.04704564-1.0225139 0-.2325422.09325119-1.3012287.09325119-1.5337709 0-1.4405861.13945673-1.6269557 1.90702884-1.6269557.23270793 0 1.0232428 0 1.2559507.5582691 0 .0461727.2327079 1.1148592.2327079 1.208044 0 .5574296-.1394567 3.0213691-.1394567 3.5326261v.8361444c0 .2795543.0462056 1.4875983.0462056 1.7201404 0 .5574296-.1865024 2.9281844-.1865024 3.3932687 0 1.8586584.1865024 2.6024575 1.5348642 2.6024575.2797535 0 1.675161-.1393574 1.9070288-.1393574.7443293 0 1.5348642.0931848 2.232988.0931848.9770372 0 1.9070288-.0931848 1.9070288-2.0450279 0 0-.0932512-1.0225139-.1394567-1.5337709-.0462056-.5582691-.0462056-1.069526-.0462056-1.6269556 0-.511257.0462056-2.8358392.0462056-3.300084 0-.7899718-.0462056-4.3225979-.0462056-5.0202244.0462056-.696787.0924111-3.7181561.0924111-4.3225978 0-.1855301 0-3.996871-.0462055-5.2057545 0-1.1148591-.0462056-2.2305578-.0462056-3.3462565 0-1.022514.0462056-1.95184312.1386167-3.76516832 0-.27871479.0470456-.55742959.0470456-.88231702 0-.88315653-.0932512-1.90567046-1.8608233-1.90567046-.1394567 0-.6040325.04617263-1.0694483.09234526-.4654159.04701214-.9299916.09318477-1.0694484.09318477-.1402968 0-.558667-.04617263-.9308317-.09318477-.4183702 0-.7905348-.04617263-.9299916-.04617263-1.6281153 0-1.6281153 1.06868656-1.6281153 1.85949783v5.11256964c0 .4642448.0470456 2.6024575 0 2.974357 0 .2787148-.0462056.6044417-.0462056.7437991 0 .3718996 0 .8831566-.55866702 1.0686866-.09241109.0470121-1.441613.1393574-1.48781854.1393574-.74432932 0-1.07028844-.3248874-1.07028844-.9755018 0-.0931848.04704565-.6506144.04704565-.7437991 0-.2787148-.09325119-1.3944135-.09325119-1.6269557 0-.2787148.09325119-1.4405861.09325119-1.6731283.04620554-.696787.09241109-4.50812788.09241109-5.34511178 0-.51125696 0-1.44058612-1.72052646-1.44058612-.46541585 0-2.3724447.09234526-2.74460936.09234526-.18566228 0-1.06944833-.04617263-1.25595071-.04617263-.60403249 0-1.67432092 0-1.67432092 1.76631306 0 .2787148.09325119 1.48759826.09325119 1.76631306.04620554.74379913.04620554 1.53377085.04620554 2.27757005 0 1.0225139 0 2.6024574-.09241108 4.0900557-.0932512 1.3944135-.13945674 2.788827-.13945674 3.3000839 0 1.3944135.09241109 2.8349997.09241109 4.2294131 0 .325727-.04620555 1.7201405-.04620555 2.0450279v1.4875983c0 .3248874-.04620554 1.766313-.04620554 2.0450278 0 .3718996.04620554.7437991.04620554 1.1156987.04620555.6506144.04620555 1.3012287.04620555 1.9518431s-.04620555 3.3932687-.04620555 3.9968709z" fill="#a63032"/><path d="m35.9517469 27.7183917c0-1.3886505.0482531-2.7764363.0482531-4.1650868 0-.4306027-.0482531-2.5369243-.0482531-2.967527 0-.3830462.0482531-2.0112086.0482531-2.3458336 0-3.5425287-.5342932-4.5956895-1.8450224-5.5053161-1.6520102-1.1491385-4.8577696-1.4846282-6.0719926-1.4846282-.2912732 0-1.7002632.0484212-1.9915364.0484212-1.0203334 0-1.8458998 0-3.789183.6225581-1.4081127.4306027-1.5537493.9096266-1.5537493 1.6748543 0 .4790239.0482531.9580478.0482531 1.4846282 0 .1910908-.0482531 1.0047396-.0482531 1.1482739 0 .1919554.0482531.7660923.0965061.9096266.0973835.4314673.8746969.86207 1.3116066.86207.194767 0 .2912732 0 .8264437-.3354896.7281829-.3830462 1.8450225-.6701147 3.1083759-.6701147 2.0397895 0 2.5258296.4306027 2.7688497.8136489.2421427.3354897.3886566 1.0540255.3886566 1.4846282 0 .5265804-.437787.7660924-.6799298.7660924-.1465139 0-.2921505-.0484212-.3886566-.0959777-1.2151004-.5750016-1.6037571-.7176712-2.6723435-.7176712-.9220726 0-3.2057594.2870684-4.7595087 2.3449689-1.1177169 1.436207-1.7485163 3.8780183-1.7485163 7.3245693 0 2.2022994.3877793 6.7504323 3.1083759 8.4252866.7281829.4790239 1.7002632.9096266 3.3996491.9096266 1.3607369 0 2.2345564-.3830462 2.7688496-.8136489.1456366-.0959777.7290603-.6701146.8746969-.6701146.1456365 0 .2912731.1919554.2912731.5265804 0 .4790239 0 .7660923.6799298.7660923.2430201 0 .4860402-.0475565.7290602-.0475565.4369098-.0484212.9229499-.0959777 1.3598597-.0484212.3886566 0 2.0889198.0484212 2.4284461.0484212.5834236 0 1.2633534-.1919554 1.2633534-1.101582v-.7176712c0-.3830461.0965062-2.0587651.0965062-2.3933901 0-.4314674-.0482531-2.203164-.0482531-2.5853455zm-8.5978221-2.5853455c.6808071 0 1.5546266.6701146 1.5546266 1.9152309 0 .4790239 0 3.4465509-.0482531 3.6385063 0 .1435343-.2912732 1.5797413-1.5063735 1.5797413-1.0685865 0-1.6028797-.9096266-1.6028797-2.872414v-.9096266c0-1.3402293 0-1.7716967.3404035-2.4418113.3886567-.7176712.971203-.9096266 1.2624762-.9096266z" fill="#a63032"/><path d="m36.9616529 13.9480094c.1038393.8452663.4677061 4.5673441.5603892 5.318597.1038393.8452663.6496395 4.4972613.7483298 5.2955209.0635051.517074.2703256 2.9708249.3286816 3.4400375.0695123.5640806.4471099 2.8537354.5106149 3.3708093l.6144543 4.9784393c-.0188798.2401616.0738032 1.3734509.0961158 1.5614778.1278683 1.0332933.7517625 1.4332777 1.6948984 1.3178976.1887988-.023076.4187901-.0982868.6539304-.1273455.4187901-.0991414.9791793-.2153762 1.9223152-.3307564.3303979-.0401694 1.8038868-.1247815 2.1334265-.1649508.1415991-.0179481.471997-.0581174.5784109-.3572511.0772359-.1521309.0540651-.3401578.1252938-.54015.029178-.1461482.0592141-.293151.2008132-.3102444.0943994-.0111107.617887.3529778.7182937.3888738.6118798.3068257 1.7069129.6495475 3.0276463.4880153 2.9246652-.3572511 4.1552902-2.7964727 4.665047-4.0981316.6702358-1.9418049.4797206-3.8733539.2265586-6.7023039-.0746614-.6110874-.1810753-3.4109788-.2505876-3.9742048-1.2675265-10.2859256-3.8738082-12.3986641-7.5528105-11.9482542-1.0375353.1264908-2.2346914.5110913-3.1263366 1.4307137-.2600275.2222136-.3424124.3281924-.5784109.3572511-.3295398.0401694-.3587178-.1948642-.3758813-.3358844-.0180217-.1410202-.0866758-.7042462-.0574978-.851249l-.0806686-.6572395c-.0523488-.4230605-.3956193-2.43067486-.4479681-2.85373537-.0403343-.32819239-.0901085-1.89565292-.1304428-2.22469998-.1158538-.93927978-.7277336-1.24525081-1.4829288-1.15380137-.140741.01794802-.5123313.1111068-1.1671199.23845228-.3243907.08717611-.6959811.18033488-1.0735787.22648694-.3767395.04615205-2.0450344.10768813-2.3745741.14785751-1.1319347.13845616-1.1036149.75467156-1.0461171 1.22388412.0060073.04700673.2154023 1.35635762.2969291 1.63241528zm9.0417466 4.6152055c.471997-.0572628 1.1010403.3897284 1.3542024.8837264.4874442.846121.8641836 3.5169575 1.060706 5.1143314.121861.9862865.326107 4.5844374.2729001 4.9245952-.0369016.4811779-.2686092 1.3204615-1.1173457 1.4238763-.5191967.0632454-1.0366771-.2546909-1.3593514-.9307331-.2643183-.5871567-.8676164-4.7083642-.9834702-5.647644-.0523487-.4230605-.1836497-2.2665787-.2359985-2.6887846-.121861-.9862865-.2025296-1.6443806.1879406-2.3588828.1184284-.2051202.3964775-.6683501.8204167-.7204848z" fill="#a63032"/><path d="m56.1518061 12.4574057c0 .2416557.0512117 1.110569.0512117 1.3042425.0502972.5312934.0502972 1.110569.0502972 1.6898446 0 .580148-.0502972 3.043814-.0502972 3.5262528 0 .3864746.0502972 2.0292094.0502972 2.3668293 0 .5312935-.1518061 2.9461049-.1518061 3.4773983 0 .5312935.0502972 2.8981228.0502972 3.381434 0 .4833113-.0502972 2.6084849-.0502972 3.0429416 0 2.8981227 0 3.2357427-.0512117 4.0575463-.0502972.8689134-.0502972.9657501-.0502972 1.2553879 0 1.3522246.5066301 1.690717 1.6707819 1.690717.5057156 0 2.8358482-.1448189 3.3927755-.1448189.2524005 0 1.3662551.0959643 1.6195702.0959643 1.3168724 0 1.3168724-1.3522246 1.3168724-1.6418624 0-.6281301-.2030178-3.4773983-.2030178-4.0575463 0-.5792756.1518061-3.2357426.1518061-3.7670361 0-1.3042424-.1005944-2.6564671-.1005944-4.0086917 0-.6281301.1005944-3.4294161.1005944-4.0095641 0-.7240945-.1005944-3.911855-.1005944-4.5399851 0-.8209312.0502972-1.5938803.1005944-2.4148115.0512117-.8209312.0512117-.8697858.0512117-1.1114414 0-.7729491-.253315-1.4002068-1.2656607-1.4002068-.5066301 0-2.7343393.0959643-3.1897577.0959643-.3045267 0-1.6716964-.0959643-1.9240969-.0959643-.2533151 0-.5569273.0479822-.8605396.1928011-.608139.2896378-.608139.772949-.608139 1.0146046" fill="#a63032"/><path d="m57 5.58321865c0 .28556683.0526316 1.47600206.0526316 1.71426114 0 .76208498 0 1.95252021 1.0602871 1.95252021.1588516 0 .7416268-.04730776.8468899-.04730776.4239235 0 2.2258373-.09547566 2.5971292-.09547566.3703349 0 1.907177.04730776 2.2248804.04730776.6889952 0 1.2181818-.28556683 1.2181818-.95217615 0-.23825908-.1052632-1.28591089-.1052632-1.47600207 0-.23825907.0526316-1.14312747.0526316-1.33321865-.0526316-.33373473-.1588517-1.14312747-.9004784-1.14312747-.1062201 0-.6363637.04730776-.7416268.04730776-1.0066986.0481679-2.3311005.0481679-2.6497608.0481679-.4229665 0-.9004785 0-1.3244019-.0481679-.3177034-.04730776-.5827751-.04730776-.8478469-.04730776-1.0066986 0-1.4832536.42835025-1.4832536 1.33321865" fill="#eba02d"/><path d="m74.8585471 25.7363998c0-.4779081.0483497-2.4361235.0483497-2.8182774 0-.3338455-.0483497-1.6235072-.0483497-1.909907v-.8117536c0-.4779081.2918565-.6694164.5353632-.6694164.0483497 0 .7305203.0483084.8764485.0483084.2426277 0 .7296412 0 .7296412-.860062 0-.5253538-.0975785-2.769969-.0975785-3.1995687 0-.2863997.0492288-1.3854158.0492288-1.6243698-.0492288-.2863998-.1459283-.7634452-.8272197-.7634452-.1468073 0-.77887.0474457-.9247982 0-.389435 0-.4377847-.0957542-.4377847-.6694164 0-.3821539.0966994-1.909907.0966994-2.1963068 0-.238954-.0483497-1.28966165-.0483497-1.48116994 0-.19064564.0483497-1.09815339 0-1.28879903-.0483497-.95581615-.6812915-1.24221593-1.4601614-1.24221593-.3410853 0-1.7520179.09575414-2.0447535.09575414-.3885559 0-2.0922241-.09575414-2.4333094-.09575414-.9247982 0-1.3142331.90750775-1.3142331 1.86246125 0 .33470818.0492288.66855371.0975785 1.05070764.0483497.47790807.0483497.95581611.0483497 1.43286161 0 .2863997-.0483497 1.6243698 0 1.8624612.0492288.3347082.0492288.6694164-.5353632.6694164-.0966995 0-.583713-.0483084-.6812915 0-.4377847.0948915-.4377847.4295997-.4377847.5727995v2.6267691c0 .3347082-.0492288 1.9107697-.0492288 2.1971695 0 .5253538.0492288 1.0023992.7797491 1.0023992.6320626 0 .9731479 0 .9731479.4779081 0 .1915083-.0492288 1.0032619-.0492288 1.1939075 0 .621108-.0483497 3.3436312-.0483497 3.9164308 0 .8117536.0483497 4.4417846 0 5.1586467 0 .5253539-.0975785 2.8174148-.0975785 3.2953229 0 3.1995686 1.1683049 4.6807386 3.8943498 4.6807386.4377847 0 2.4333094-.1431999 2.8227444-.1431999.3402062 0 1.0707264 0 1.3625829.0474458h.2918565c.4377847 0 .9731479-.3347082.9731479-1.1939076 0-.3347082-.0483497-1.8624612-.0483497-2.1971694 0-.3338455.0483497-1.909907.0483497-2.1971694 0-1.2413533-.7296412-1.3371075-.8755694-1.3371075-.0975785 0-.5353632.0474458-.5845921.0474458-.0966994-.0474458-.5353632-.2863998-.5353632-.6685537v-.4779081c0-.3338455-.0483497-1.7667071-.0483497-2.0531069z" fill="#a63032"/><path d="m78.5044676 38.25c.8064036 0 1.4955324-.6350943 1.4955324-1.5045283 0-.8603774-.6891288-1.4954717-1.4955324-1.4954717-.8142219 0-1.5044676.6350943-1.5044676 1.4954717 0 .869434.6902457 1.5045283 1.5044676 1.5045283zm-1.2062546-1.5045283c0-.7098113.5282948-1.2464151 1.2062546-1.2464151.6690246 0 1.1984363.5366038 1.1984363 1.2464151 0 .7222641-.5294117 1.2543396-1.1984363 1.2543396-.6779598 0-1.2062546-.5320755-1.2062546-1.2543396zm.892405.12h.298213l.4501117.749434h.2892777l-.4847357-.7618868c.2501862-.0316981.4422934-.1664151.4422934-.4766038 0-.3407547-.1999255-.4913208-.6031273-.4913208h-.6500372v1.7298114h.2580044zm0-.2230189v-.5354717h.3529412c.1798213 0 .3719285.0396227.3719285.2535849 0 .2660378-.1954579.2818868-.4154877.2818868z" fill="#1a1919"/><path d="m31.0286888 5.10317627c0-.37694573 0-1.04585612.5048016-1.04585612.0701818 0 .3500634 0 .4760524.37610433.0422782.1539756.0422782.43247792.0422782.72528398 0 .33487589-.125989.39124947-.364438.39124947-.0837108 0-.4481488 0-.5183306-.02860749-.1403636-.05553218-.1403636-.32057215-.1403636-.41817417zm2.7886694 3.90492217c0-.09760202.0287492-.6133782.0287492-.6411443 0-.19520403-.2240744-.34833824-.4067162-.34833824-.0837108 0-.1538926.02776609-.238449.05553219-.490427.23727387-.5606088.26503996-1.0789394.26503996-.251978 0-.6586942-.01430374-.9250468-.39040808-.0980854-.1262095-.1547382-.3071098-.1547382-.460244 0-.34917964.2105454-.34917964.3365344-.34917964.1682672 0 .8692396.02776609 1.0096032.02776609.1116144 0 .602887-.04122844.7009724-.04122844.0558072 0 .3221598.0277661.377967.0277661.3086308.01346234.4625234-.36264199.490427-.41817417.0143746-.08413968.0422782-1.38157342.0422782-1.54816997 0-.55784602-.0422782-1.26966764-.5327052-1.96718552-.5462342-.79427851-1.232832-.90618427-1.9059008-.90618427-1.4856556 0-2.3413662.93395036-2.4673552 2.6916281-.013529.13967186-.0693363 1.19983172-.0693363 1.29743374 0 1.31089609.0414327 2.18931426.6299451 2.97013042.602887.82288599 1.444223.97686159 2.312617.97686159.967325 0 1.5279338-.2095078 1.7105756-.34917964.125989-.09760202.139518-.18090029.139518-.32057215zm-10.3158785-4.4350021c0 .16743795-.013529.93479175-.013529 1.08792596 0 .47454775-.0143746 1.24106016-.0143746 1.71560791 0 .22297013.0143746 1.18552797.0143746 1.38073201 0 .16743795-.0143746.87841818-.0143746 1.03239377.0143746.40387041.1961708.43163651.4625234.43163651.11246 0 .6164161-.0412284.715347-.0412284.1116144 0 .6020415.0277661.7001269.0277661.2951017 0 .3086307-.22297017.3086307-.29280609 0-.05553219-.0422781-.34917964-.0422781-.41817417-.0135291-.16743795-.0279037-.36264199-.0279037-.54438368 0-.1531342.0279037-.83634834.0279037-.97602019 0-.39040808 0-.96255785-.0135291-1.35296593 0-.13967185-.0143746-.78081615-.0143746-.90702566 0-.25073622 0-.37610433.0143746-.78081615.0135291-.26503997.0279036-.59991586.4625234-.59991586.1395181 0 .3500635 0 .3500635.53007993 0 .04206983-.0279037.48801009-.0279037.53007993-.0279036.39040808-.0279036.99032394-.0279036 1.38073202 0 .20950778.0279036 1.18552797.0279036 1.38073201 0 .09760202-.0143745.51661759-.0143745.59991586 0 .09760202.0143745.55784603.0143745.65544805-.0279036.71182163-.0422781.78081613.364438.78081613.0980855 0 .5183307-.0277661.602887-.0277661.1259891 0 .6586943.0277661.7711542.0277661.0972399 0 .4058707 0 .4058707-.40387041 0-.09760201-.0143746-.51661758-.0143746-.59991586 0-.12536811.0143746-.65544804.0143746-.7673538 0-.15313421-.0279036-.83634834-.0279036-.9760202 0-.69751788.013529-1.81320992.013529-2.49642406 0-.1539756.0287492-.7951199.0287492-.93479175 0-.59991586-.0980854-.93395036-.350909-1.22759782-.3779671-.43163651-1.093314-.50147244-1.3309175-.50147244-.5048016 0-.9394214.25073622-1.0096032.32057215-.1124599.11190576-.1124599.11190576-.1682672.11190576-.0980854 0-.1116144-.08413967-.1116144-.25157762 0-.11106436.013529-.55784602.013529-.65544804s-.013529-.55784602-.013529-.65544804c0-.08329828.0279036-.47454775.0279036-.54354228 0-.1817417-.0980854-.36264199-.3509089-.36264199-.1395181 0-.7982123.05553218-.9250469.05553218-.0837108 0-.4346198-.02776609-.503956-.02776609-.3365344 0-.3365344.3348759-.3365344.43247792 0 .12536811.0279036.69667648.0279036.80858224v.51577619c0 .26503997-.0422782 1.40849811-.0422782 1.63230963 0 .15313421.0279036.78081616.0279036.90618427zm-.9504137 1.96634413c0-.13883046.0143746-.71098023.0143746-.82288599 0-.09760202-.0143746-.47370635-.0143746-.55784602v-.23643248c0-.13967186.0837108-.19604544.1538926-.19604544.0143746 0 .2105454.01430375.2528236.01430375.0701818 0 .2096998 0 .2096998-.25073623 0-.15397559-.0279036-.80942364-.0279036-.93479175 0-.08329827.0143746-.40471182.0143746-.47370635-.0143746-.08413967-.0422782-.22381153-.238449-.22381153-.0422782 0-.2240744.01430375-.2663526 0-.1116144 0-.125989-.02776609-.125989-.19520404 0-.11106436.0279036-.55784602.0279036-.6411443 0-.06983593-.013529-.37694573-.013529-.43247791s.013529-.32057215 0-.37694573c-.0143746-.27850231-.1970164-.36264199-.4210908-.36264199-.0980854 0-.5048016.02860749-.5885124.02860749-.11246 0-.602887-.02860749-.7009724-.02860749-.2663526 0-.3788126.26503997-.3788126.54438368 0 .09760202.0143746.19520404.0287492.30626841.013529.13967185.013529.27934371.013529.41901556 0 .08329828-.013529.47370635 0 .54354228.0143746.09760202.0143746.19520404-.1538926.19520404-.0279036 0-.1682672-.01346235-.1961708 0-.125989.02776609-.125989.12536811-.125989.16743795v.76735381c0 .09760201-.0143746.55784602-.0143746.64114429 0 .1539756.0143746.29280606.2240744.29280606.1826418 0 .2807272 0 .2807272.13967186 0 .05637358-.0143746.29280606-.0143746.34917964 0 .18090029-.013529.97602019-.013529 1.14345814 0 .23727387.013529 1.29743374 0 1.50610012 0 .1539756-.0287492.82288599-.0287492.96255785 0 .93479175.3365344 1.36642825 1.1220632 1.36642825.125989 0 .7009724-.0412284.8125868-.0412284.0980854 0 .3086308 0 .3923416.0134623h.0845564c.125989 0 .2798816-.097602.2798816-.34833821 0-.09760202-.013529-.54438368-.013529-.6419857s.013529-.55784602.013529-.6411443c0-.36264198-.2105454-.39040808-.251978-.39040808-.0279036 0-.1538926.01346235-.1682672.01346235-.0279036-.01346235-.1538926-.08329827-.1538926-.19520404v-.13967185c0-.09760202-.0143746-.51577619-.0143746-.59907447z" fill="#1a1919"/><path d="m67.9268077 44.6677783c.0068721-.1615065.0472457-.2620361.1236979-.3007647.0755932-.0387286.1486093-.0552088.2190484-.0477927.0859013.001648.1718027.0098881.257704.0247204.1760978.0140082.3521955.0230723.5282932.0247204.1623536-.0016481.3247071-.0107122.4862016-.0247204l.257704-.0123602c.1666486.0049441.2791794.0412006.3358743.1071216.0558358.0659211.0824652.130194.0781702.191995 0 .0247204-.0025771.0708651-.0068721.1384341-.0042951.0675691-.0068721.1170098-.0068721.1483223-.0146033.1466743-.0257704.2982926-.0326426.453207-.0068721.1549144-.0103081.2908765-.0103081.4062383 0 .0856973.0042951.2381397.0111672.4581511l.0197573.6625062c.0077311.2224834.0111671.3806938.0120262.4746313-.0008591.0477927-.0034361.1334901-.0077312.257916l-.0137442.3732777c-.0051541.12525-.0068721.2142433-.0077311.2661561.000859.0659211.002577.1804588.0068721.3427893s.0068721.2768683.0077311.3427893l-.004295.451559-.0068721.65097c-.0017181.2175394-.0034361.3741018-.0034361.4672152-.0094491.194467.0137442.3609176.0695801.5018238.0566949.1409062.2044452.2150673.4449689.2216594l.194996-.0082401c.1125308-.0049441.2087403-.0107122.2912056-.0164803.0326425-.001648.0962095-.0082401.1907009-.0189523.0953505-.0107121.1554815-.0173042.1803929-.0189523.1881239.0049441.3126808.060977.3736708.1672746.0609899.1054736.0884784.2331956.0833243.3815179-.000859.0486168-.0051541.131842-.0137442.2504999-.0085902.1186578-.0128852.2051791-.0146033.260388.0017181.0412006.0060131.1120657.0146033.2134193.0085901.1013535.0128852.1755147.0137442.2224834-.0068721.3155969-.192419.4696873-.5566407.4614471-.0566949-.001648-.1571994-.0057681-.3023727-.0131842-.1443142-.0065921-.2482549-.0107121-.3126809-.0123602l-.7430465.0255444c-.064426-.001648-.1743797-.0057681-.3298612-.0131842-.1563404-.0065921-.2697302-.0107121-.3418873-.0123602-.0489638.000824-.1374421.0041201-.2662941.0098882l-.3908511.0181283c-.1314291.0057681-.2276386.0090641-.2860515.0098881-.2018681-.0107121-.3367332-.0585049-.4071723-.1433782-.0695801-.0856973-.1047996-.1450262-.1073767-.1812828-.0137442-.0502648-.0214753-.1260739-.0249114-.2249555-.002577-.0997055-.004295-.1779867-.003436-.2356676l.0068721-.1079457.0077311-.1161858v-.7729239c-.000859-.0469687-.0034361-.128546-.0077311-.2447318l-.0137442-.3493813c-.0042951-.1178339-.0068721-.2018832-.0068721-.253796l.003436-.2389636.0068721-.3526775c.0025771-.1186578.0034361-.2035311.0034361-.2554439l-.0034361-.3979982-.0068721-.7078269-.003436-.5141839c.000859-.0321365.005154-.0840493.0137442-.1557384.0085901-.0725131.0137442-.1244259.0146032-.1557384-.000859-.0164803-.0034361-.0436727-.0077311-.0807533-.0034361-.0387286-.0060131-.065097-.0068721-.0815772.000859-.0313125.003436-.0832253.0068721-.1557384.004295-.0716891.0068721-.1236019.0077311-.1557384-.000859-.0420247-.0034361-.1170098-.0077311-.2257795-.0034361-.1087697-.0060131-.1870509-.0068721-.2348436.000859-.0807533.004295-.2233075.0111671-.4268386l.0206164-.6138895c.0068721-.2060032.0103081-.3543255.0111671-.4424948.0025771-.0898174-.002577-.1845789-.0146032-.2867565-.000859-.0346085-.0060131-.0964094-.0137442-.1870508-.0085901-.0906414-.0137442-.1524424-.0146032-.1870509m-4.7726783 0c.0068721-.1615065.0481047-.2620361.1236979-.3007647s.1494683-.0552088.2199074-.0477927c.0859014.001648.1709437.0098881.256845.0247204.1760978.0140082.3530545.0230723.5291523.0247204.1623535-.0016481.323848-.0107122.4853425-.0247204l.257704-.0123602c.1675076.0049441.2791794.0412006.3358743.1071216.0558358.0659211.0824652.130194.0790292.191995-.000859.0247204-.0034361.0708651-.0077311.1384341-.0042951.0675691-.0068721.1170098-.0068721.1483223-.0146033.1466743-.0257704.2982926-.0326425.453207-.0068722.1549144-.0103082.2908765-.0103082.4062383 0 .0856973.0042951.2381397.0103082.4581511l.0214753.6625062c.0068721.2224834.0103081.3806938.0111672.4746313-.0008591.0477927-.0034361.1334901-.0077312.257916l-.0137442.3732777c-.004295.12525-.0068721.2142433-.0077311.2661561.000859.0659211.0034361.1804588.0077311.3427893.0042951.1623305.0060131.2768683.0068721.3427893l-.003436.451559-.0068721.65097c-.0025771.2175394-.0042951.3741018-.0042951.4672152-.0094491.194467.0137442.3609176.0695801.5018238.0566949.1409062.2053042.2150673.4449689.2216594l.1949961-.0082401c.1125307-.0049441.2095992-.0107122.2912055-.0164803.0326425-.001648.0962095-.0082401.19156-.0189523.0944914-.0107121.1546224-.0173042.1795338-.0189523.1881239.0049441.3126808.060977.3736708.1672746.0609899.1054736.0893374.2331956.0841833.3815179-.000859.0486168-.0060131.131842-.0137442.2504999-.0085902.1186578-.0137442.2051791-.0146033.260388.0008591.0412006.0060131.1120657.0146033.2134193.0077311.1013535.0128852.1755147.0137442.2224834-.0077311.3155969-.193278.4696873-.5574997.4614471-.0566949-.001648-.1571994-.0057681-.3015137-.0131842-.1443142-.0065921-.2491139-.0107121-.3126808-.0123602l-.7439056.0255444c-.064426-.001648-.1743797-.0057681-.3298612-.0131842-.1554814-.0065921-.2697302-.0107121-.3410283-.0123602-.0498227.000824-.1383011.0041201-.2671531.0098882l-.3908511.0181283c-.1314291.0057681-.2267795.0090641-.2851925.0098881-.2018681-.0107121-.3375922-.0585049-.4080313-.1433782-.0695801-.0856973-.1047996-.1450262-.1065177-.1812828-.0137442-.0502648-.0223343-.1260739-.0257704-.2249555-.002577-.0997055-.003436-.1779867-.003436-.2356676l.0077311-.1079457.0068721-.1161858v-.7729239c-.000859-.0469687-.002577-.128546-.0068721-.2447318l-.0137442-.3493813c-.0051541-.1178339-.0077311-.2018832-.0077311-.253796l.003436-.2389636.0068721-.3526775c.0025771-.1186578.0034361-.2035311.0034361-.2554439l-.0034361-.3979982-.0068721-.7078269-.003436-.5141839c.000859-.0321365.005154-.0840493.0137442-.1557384.0085901-.0725131.0137442-.1244259.0146032-.1557384-.000859-.0164803-.002577-.0436727-.0068721-.0807533-.0042951-.0387286-.0068721-.065097-.0077311-.0815772.000859-.0313125.003436-.0832253.0077311-.1557384.0042951-.0716891.0060131-.1236019.0068721-.1557384-.000859-.0420247-.002577-.1170098-.0068721-.2257795s-.0068721-.1870509-.0077311-.2348436c.000859-.0807533.004295-.2233075.0111672-.4268386l.0206163-.6138895c.0077311-.2060032.0111672-.3543255.0111672-.4424948.002577-.0898174-.0017181-.1845789-.0137443-.2867565-.001718-.0346085-.0060131-.0964094-.0146032-.1870508s-.0128852-.1524424-.0146032-.1870509m-3.6001251.1689226c-.003436-.1788108.0283475-.3048847.0944915-.3790459.0670031-.0741611.1872649-.1095937.3625037-.1071216.065285.000824.1778157.0049441.3375922.0115362.1606355.0074161.2766023.0115361.3487594.0131842.0438097-.0008241.122839-.0024721.2370877-.0065921l.3453234-.0123602c.1151078-.0041201.1975731-.0057681.2465368-.0057681.1580585.0098881.255986.0609769.2946416.1524423s.0549769.1615065.0481048.2084752c-.0025771.0799293-.0120262.1590345-.0283475.2373157-.0171802.1540904-.0257704.3081808-.0283474.4622711.002577.4202465-.002577.840493-.0146032 1.2607395.000859.1112417.003436.2406117.0068721.386462.004295.1458502.0068721.2752202.0077311.3864619-.001718.0494408-.0060131.1326661-.0146032.2513239-.0085902.1194818-.0128852.2060032-.0137442.261212 0 .0469687.000859.1318421.003436.25462l.0068721.3683336c.001718.1227779.0034361.2109473.0034361.2628601s-.0034361.1433782-.0077312.2735722l-.0137442.3930541c-.004295.131842-.0060131.2257795-.0068721.2818123l.0034361.2191874.0068721.3106528.0042951.2191874c-.0008591.0758092-.0042951.2117712-.0111672.4070623l-.0214754.5908171c-.0068721.198587-.0103081.3403172-.0111671.4243665l.0146032.5372563c.0077311.0321365.0146032.0856973.0197573.1623305.0060131.0758092.0085901.12937.0094492.1615065.003436.0552089-.0180393.1170098-.064426.1862269-.0463868.068393-.1391602.1153618-.2791794.1384341-.0395146.0057681-.1168258.0074161-.2319336.0049441l-.2534089-.0049441-.3247071.0032961-.4707393.0057681-.3341562.003296c-.1640716-.0098881-.2645762-.067569-.2997957-.1746907-.0360786-.1062976-.0506818-.2018831-.0429507-.2867564v-.0247204c0-.066745.0025771-.1845788.0068721-.3535014l.0137443-.5084159c.005154-.1697466.0077311-.2908765.0077311-.3617416.0060131-.2027071.0077311-.4309586.0051541-.6847545l-.0051541-.6756905c.000859-.0848733.0060131-.2356676.0146032-.4515589l.0274884-.6517941c.0094492-.2183634.0146033-.3749258.0154623-.4688632-.000859-.0477928-.0034361-.131018-.0077312-.2513239l-.0137442-.3625656c-.004295-.1211299-.0068721-.2076512-.0077311-.259564.001718-.064273.0068721-.1730427.0163213-.324661.0094491-.1516183.0188983-.259564.0266294-.324661 0-.061801-.000859-.1680986-.0034361-.320541l-.0068721-.4606231c-.002577-.1540903-.003436-.263684-.003436-.3296051.000859-.0420246.002577-.1170098.0068721-.2257794.004295-.1087697.0060131-.1878749.0068721-.2356677-.000859-.0568568-.0060131-.1524423-.0137442-.2884044-.0085902-.1359621-.0137442-.2356677-.0146033-.2982926m-4.8654517 1.5870485c.001718.0477927.0060131.12937.0146032.2430837.0077312.1137138.0128852.195291.0137442.2430838l-.0283474.7869321c-.0094491.1837548.0103082.3502054.06099.4993517.0506817.1491463.1924189.2282515.4252116.2373157.1443142.0057681.3058087-.0379046.4819065-.1310181.1769567-.0939374.2740252-.2752202.2894875-.5430243.002577-.060153-.001718-.126898-.0137442-.2002351 0-.0477928-.0017181-.1326661-.0051541-.2546199-.0025771-.1219539-.0077311-.2447318-.0137442-.3683337-.0068721-.1236019-.0146033-.2117713-.0240524-.2636841-.0532588-.2743962-.1537634-.4424948-.3023727-.5018237-.1477503-.060153-.2808974-.0840493-.3977232-.0716891-.2147533 0-.3539135.0271924-.4166215.0824012-.062708.0543849-.0910554.1351381-.0841833.2422598m-2.186189 1.5351356.0283474-2.3962289c0-.0848733 0-.2010591.0025771-.3485574.000859-.1466743.0068721-.2875804.0146032-.4202465.0077311-.13349.0214753-.2216594.0403736-.2653321.0575539-.1071216.1494683-.1730426.2748843-.196115.126275-.0238964.2388057-.0329605.3393103-.0280164.0747341 0 .2001501.002472.3788249.0057681.1778157.00412.3040907.005768.3788249.0065921h.0283474c.0489638-.0008241.1322881-.0024721.2508319-.0065921.1185439-.0049441.2370877-.0098882.3556315-.0156563.1194029-.0057681.2018682-.0107122.251691-.0156562.3685167-.0140082.7301613-.0222484 1.0857929-.0247204.1872649-.0164803.4406738.0164802.7593678.0980575.3178349.0815773.645978.3114768.9844293.6872266.1580585.1854029.2740253.3625656.3461824.5323122s.1194029.3642136.1408782.585049c.0206163.2208355.0352195.5009998.0412326.840493.000859.0477927.0042951.12937.0111672.2455558l.0206163.3502054c.0068721.1178338.0103082.2018831.0111672.2537959.002577.1425542-.0197573.323013-.067003.5430244-.0463868.2191874-.1322881.4449669-.256845.6781625-.124557.2331956-.3023727.4424948-.5334473.6262496-.0841834.0593289-.1417372.1038256-.1718027.1326661-.0300655.0296644-.0446687.064273-.0429507.1046496.0137442.0898174.0575539.1730427.128852.2496758.0455277.0749852.0833243.1499704.1142488.2249555.0859013.1705706.1537634.3123008.2035862.4243666.0498227.1120657.1254159.2908764.2250615.5364322.1554814.3477334.3169759.6888747.4862015 1.0242478.061849.1104177.0953505.2266035.0996456.3493814.0042951.0815773-.0326425.1623305-.1090947.2439078-.0764522.0807532-.2164714.1244259-.4200575.131018-.0661441-.001648-.1864059-.0057681-.3582086-.0123602-.1726617-.0074161-.2963596-.0123602-.3702348-.0131842-.067003.001648-.1898419.0082401-.3659397.0189523-.1769567.0107122-.3023727.0173043-.3771069.0189523-.1709436 0-.2826154-.0346085-.3358742-.1046496s-.0936324-.1763387-.1211209-.3197169c-.0300654-.127722-.0781702-.2727483-.1451732-.4359028l-.1125308-.2760442c-.0850423-.189523-.1709436-.3724538-.256845-.5496165-.0712981-.1499703-.128852-.2991166-.1718026-.4490869-.0386557-.1532664-.0824653-.2776923-.1305701-.3741018-.0481047-.0972335-.1228389-.1474983-.2267795-.1499703-.0773112.003296-.129711.0206003-.1589175.0527368-.0292064.0313125-.0429507.0552088-.0412326.0716891-.0137442.0354325-.0240524.1112417-.0300655.2282515-.0060131.1161858-.0094491.2348436-.0111672.3551495-.001718.1203059-.001718.2051792-.001718.2529719.0051541.193643.0094492.3312531.0146032.4120064 0 .0436726.0051541.1219538.0146033.2356676l.0274884.3444373c.0094491.1153618.0146032.196939.0146032.2439078.0094492.064273-.0085901.1573864-.0532588.2809883s-.1700847.191995-.3753889.2060032c-.0730161-.001648-.197573-.0082401-.3728118-.0189523-.1752387-.0107122-.3040907-.0164803-.3839789-.0181283-.1099538.001648-.2199075.0098882-.3290022.0247204-.0377965.001648-.1013635.0074161-.193278.0181283-.0910554.0115362-.1554814.0173042-.192419.0190311-.2431007.0040412-.3719528-.1533452-.386556-.4738861v-.1376102c.0068721-.1178338.0111672-.2224834.0128852-.3155968.001718-.0922895.001718-.253796.001718-.4836955.0008591-.0519128.0025771-.1442022.0077312-.2768683l.0137442-.3988221c.004295-.1343141.0068721-.2290756.0068721-.2851084.000859-.0700411 0-.1458503-.001718-.2266035-.0008591-.0807533-.0051541-.2348436-.0120262-.4606231-.0068721-.3279571-.0077311-.6864026-.0051541-1.0745126.002577-.388934.0042951-.7506756.0051541-1.0852248m-1.2893791 1.8408445v1.0844007l-.0042951.3015886-.0060131.4350787c-.002577.1450263-.004295.2488519-.004295.3098288.001718.0576809.0060131.1582105.0146032.3007647.0085901.1433782.0128852.2463798.0146032.3106528.0077311.13349-.0231933.2521479-.0936324.3543254-.0704391.1030016-.2302156.1829309-.4801885.2414358s-.640824.0881693-1.1699762.0889933c-.8100496.0032961-1.4551687-.0741611-1.9370752-.2315475-.4801884-.1573865-.8693215-.4128304-1.1639631-.7655079-.3470414-.4161264-.5935782-.8981738-.7421875-1.4469663-.1477503-.5487924-.2199075-1.1338415-.2156124-1.7559711.001718-.1474983.0094491-.3188929.0249114-.5150079l.0463867-.581753c.0128852-.1854029.0266294-.3296051.0395146-.4326067.0137442-.1030016.0335015-.199411.059272-.2892284.0257704-.0889934.064426-.2060032.1159668-.3502054.0592719-.1862269.1185438-.3518535.1769567-.4960557.0575539-.1450262.1417372-.3073567.2516909-.4878155.0343606-.0477928.1030816-.128546.2053042-.2414357.1022226-.1128898.2027272-.2208355.2989367-.323837.0953505-.1030016.1511863-.1639786.1675076-.1829309.2207664-.198587.4690213-.3559735.7447646-.4696872.2757433-.1153618.4990867-.191171.6700304-.2274275.0438097-.0098882.1365831-.0255444.2774613-.0469687.1408782-.0222484.2937826-.0420247.4587132-.060153.1657895-.0189523.3058087-.0288404.4217755-.0304884.1314291.000824.2860515.0082401.4621492.0222483.1769568.0131842.3126809.0263684.4088904.0403766.2207664.0329605.3762478.062625.4647262.0865214.0884784.0247203.1580585.066745.2070222.1252499.0283475.0304885.0498228.0716891.0644261.1236019.0146032.0519128.0240523.1549144.0292064.3090048.0042951.1540903.0068721.4004701.0068721.7391394.000859.0922894-.001718.1903469-.0077311.2925245s-.0223344.1746907-.0498228.2183634c-.0266294.0354325-.0807472.0758091-.1623535.1227778-.0824653.0461448-.1614945.0716892-.2379467.0766332-.0377966-.001648-.0901964-.0115361-.1554814-.0296644-.0652851-.0189523-.127134-.0379046-.1872649-.0576809-.1082357-.0255444-.2276386-.0436727-.3590676-.0560329-.1314291-.0131842-.2259206-.0189523-.2843335-.0189523-.1494683-.000824-.3143989.0131842-.4947917.0420247-.1795338.0288404-.3341562.0774572-.4621492.1450262-.1108127.063449-.2431007.1829308-.3985822.3584455-.1554814.1755148-.2697302.3633896-.3453233.5636247-.0463868.1507944-.0738752.3048847-.0816063.4622712-.0077311.1590344-.0137442.3155968-.0180393.4721593-.0051541.0428486-.0120262.1186578-.0214753.2266035-.0085902.1079456-.0171803.2175393-.0240524.328781-.0077311.1104177-.0111672.191995-.0120262.2422598 0 .1845788.0137442.3963501.0429507.6336657.0283474.2381397.0764522.4680393.1434552.6896987.0670031.2208354.1580585.3996461.2714482.5339602.1503274.1615065.3358743.2488519.5566407.2620361.065285-.0032961.1185438-.0164803.1597765-.0412007.0412326-.0238963.0695801-.0436726.0841833-.0593289.0876194-.0865213.125416-.2117713.1142488-.3732777-.0025771-.124426-.0120262-.2496759-.0283475-.3741018v-.4111824l-.0197573-.2216594c-.0077311-.0815772-.0249114-.1483223-.0523998-.2018831-.0154622-.0420246-.0412326-.067569-.0764522-.0766332-.0360785-.0090641-.1151078-.0131842-.2379467-.0107121-.1365831-.0024721-.2199074-.0263685-.2482548-.0716892-.0283475-.0453207-.0360786-.1005295-.0231934-.1648025l-.0034361-.2290755-.0068721-.4400228-.003436-.2785163c-.000859-.0791052 0-.1425542.001718-.1895229.000859-.0486168.0051541-.130194.0120262-.2463798.0163213-.1351381.0549769-.2274276.1159668-.2776923.061849-.0502648.1322881-.0741612.2121763-.0716891.0283474.000824.0764522.002472.1451733.0065921.068721.003296.1211208.0057681.1554814.0057681l.3264251.003296.4475459.0057681.2405238.003296c.133147.0024721.2671531-.001648.4003002-.0123601l.2431008-.0123602c.2276385.00412.3728118.0708651.4338017.197763.061849.127722.0884784.2900525.0807473.4878155-.000859.0716892-.0060131.192819-.0146032.3617416-.0085902.1680986-.0128852.2884045-.0137442.3609176 0 .0477927.002577.132666.0068721.2546199l.0137442.3675097c.0051541.1236019.0077311.2109473.0077311.2628601m-12.8731744-3.3759801c.000859.0477927.0051541.12937.0137442.2430837.0085902.1137138.0128852.195291.0146033.2430838l-.0283475.7869321c-.0103081.1837548.0094492.3502054.0601309.4993517.0506818.1491463.192419.2282515.4252117.2373157.1451732.0057681.3058087-.0379046.4827655-.1310181.1769567-.0939374.2731662-.2752202.2894875-.5430243.002577-.060153-.0025771-.126898-.0146032-.2002351 0-.0477928-.0017181-.1326661-.0051541-.2546199-.0025771-.1219539-.0077311-.2447318-.0137442-.3683337-.0068721-.1236019-.0146033-.2117713-.0240524-.2636841-.0532588-.2743962-.1537634-.4424948-.3023727-.5018237-.1468913-.060153-.2800384-.0840493-.3977232-.0716891-.2147533 0-.3539135.0271924-.4166215.0824012-.062708.0543849-.0901964.1351381-.0833243.2422598m-2.187048 1.5351356.0283474-2.3962289c0-.0848733.000859-.2010591.002577-.3485574.0017181-.1466743.0068722-.2875804.0146033-.4202465.0085901-.13349.0214753-.2216594.0403736-.2653321.0575539-.1071216.1494683-.1730426.2748843-.196115.126275-.0238964.2388057-.0329605.3393103-.0280164.0747341 0 .2010091.002472.3788249.0057681.1778157.00412.3040907.005768.3788249.0065921h.0283474c.0489638-.0008241.1322881-.0024721.2508319-.0065921.1194029-.0049441.2370877-.0098882.3556315-.0156563.1185439-.0057681.2027272-.0107122.251691-.0156562.3685167-.0140082.7310203-.0222484 1.0857929-.0247204.1881239-.0164803.4406738.0164802.7593678.0980575.3178349.0815773.6468371.3114768.9844293.6872266.1589175.1854029.2740253.3625656.3461824.5323122s.1194029.3642136.1408782.585049c.0214753.2208355.0352195.5009998.0412326.840493.000859.0477927.0042951.12937.0111672.2455558l.0206163.3502054c.0068721.1178338.0111672.2018831.0111672.2537959.002577.1425542-.0197573.323013-.066144.5430244-.0472458.2191874-.1331471.4449669-.257704.6781625-.124557.2331956-.3023727.4424948-.5334473.6262496-.0841834.0593289-.1408782.1038256-.1718027.1326661-.0300655.0296644-.0438097.064273-.0429507.1046496.0146032.0898174.0575539.1730427.128852.2496758.0455277.0749852.0833243.1499704.1142488.2249555.0859013.1705706.1537634.3123008.2035862.4243666.0498227.1120657.1254159.2908764.2250615.5364322.1546224.3477334.3169759.6888747.4862015 1.0242478.061849.1104177.0953505.2266035.1005046.3493814.0034361.0815773-.0326425.1623305-.1099537.2439078-.0764522.0807532-.2156124.1244259-.4191985.131018-.0670031-.001648-.1864059-.0057681-.3590676-.0123602-.1726617-.0074161-.2955006-.0123602-.3702348-.0131842-.067003.001648-.1898419.0082401-.3659397.0189523-.1760977.0107122-.3023727.0173043-.3771069.0189523-.1709436 0-.2826154-.0346085-.3358742-.1046496-.0523998-.0700411-.0936324-.1763387-.1211209-.3197169-.0292064-.127722-.0781702-.2727483-.1451732-.4359028l-.1125308-.2760442c-.0850423-.189523-.1709436-.3724538-.256845-.5496165-.0712981-.1499703-.128852-.2991166-.1718027-.4490869-.0386556-.1532664-.0824652-.2776923-.129711-.3741018-.0481047-.0972335-.1236979-.1474983-.2276385-.1499703-.0764522.003296-.129711.0206003-.1589175.0527368-.0292064.0313125-.0420916.0552088-.0412326.0716891-.0137442.0354325-.0240524.1112417-.0300655.2282515-.0060131.1161858-.0094491.2348436-.0111672.3551495-.000859.1203059-.001718.2051792-.000859.2529719.0042951.193643.0094492.3312531.0137442.4120064.000859.0436726.0060131.1219538.0146033.2356676l.0274884.3444373c.0094491.1153618.0146032.196939.0154622.2439078.0085902.064273-.0094491.1573864-.0532588.2809883-.0446687.1236019-.1700847.191995-.3753888.2060032-.0738752-.001648-.1984321-.0082401-.3736709-.0189523-.1752387-.0107122-.3032317-.0164803-.3839789-.0181283-.1099538.001648-.2190485.0098882-.3290022.0247204-.0369375.001648-.1013635.0074161-.192419.0181283-.0910554.0115362-.1554814.0173042-.193278.0190311-.2431008.0040412-.3710937-.1533452-.385697-.4738861v-.1376102c.0068721-.1178338.0111672-.2224834.0128852-.3155968.000859-.0922895.0017181-.253796.0017181-.4836955 0-.0519128.002577-.1442022.0068721-.2768683l.0137442-.3988221c.004295-.1343141.0077311-.2290756.0077311-.2851084 0-.0700411 0-.1458503-.001718-.2266035-.0017181-.0807533-.0060131-.2348436-.0128852-.4606231-.0060131-.3279571-.0077312-.6864026-.0051541-1.0745126.002577-.388934.0042951-.7506756.0051541-1.0852248m-1.1381927 3.9099404v.7102989c.0077311.1071217-.0146033.2200114-.0661441.3378452-.0515408.1178339-.1769567.1969391-.3771068.2356677-.0438097.00412-.1589175.0049441-.3444644.0049441s-.3762479-.0008241-.5729619-.0024721l-.4114674-.002472c-.0558359 0-.1511864.002472-.2860515.0057681-.1340061.00412-.2293566.0057681-.2851924.0065921-.0738752-.0016481-.1984321-.0082402-.3736708-.0189523-.1752388-.0107122-.3032318-.0173043-.383979-.0189523-.0661441.000824-.1838289.0041201-.3539135.0098881l-.5162671.0181283c-.1735207.0057681-.2980776.0090642-.3736708.0098882-.1460323 0-.2680122-.0379046-.3642217-.1137138-.0962095-.0766332-.1460322-.1919949-.1494683-.3477333l.0068721-.3666857.0137442-.6740424c.0051541-.2356676.0068721-.3996462.0077312-.4919356-.0008591-.1038256-.0060131-.2867564-.0146033-.5496165l-.0283474-.7910522c-.0085901-.2653321-.0137442-.454031-.0146032-.5669207l.003436-.2216594.0068721-.319717c.0025771-.1071216.0034361-.1837548.0042951-.2307235l-.0146032-1.0596804.003436-.2661561.0068721-.3806939c.0025771-.1277219.0034361-.2191874.0042951-.2752202-.000859-.0428487-.0034361-.1153618-.0077311-.2191874l-.0137442-.3131248c-.0042951-.1054737-.0068721-.1812828-.0077312-.2274275v-.4614472c0-.0477927-.002577-.1268979-.0068721-.2364916-.004295-.1104177-.0060131-.1895229-.0068721-.2373157-.003436-.1277219.0317835-.2331956.1056587-.3180689.0730161-.0840493.2044452-.1268979.3942871-.130194.0575539-.002472.1571995.001648.2997957.0123602.1486093.0041201.2525499.0082401.3143989.0123602.0764522-.000824.2087402-.0049441.3977232-.0131842l.5729619-.0238964c.19156-.0074161.3307201-.0123602.4157624-.0131842.060131.000824.1632126.0032961.3101039.0065921l.4432509.0123602c.1477503.0041201.2542679.0057681.3186939.0065921l.4999458-.0123602c.2637171.000824.4338018.0519128.511113.1524424.0773112.1005295.1116717.2447318.1039406.4334307l-.0146032.3732777c.000859.0346086.002577.0997056.0068721.195291.004295.0947615.0068721.1631546.0077311.2035312.001718.2027071-.0420917.3460853-.1322881.4284866s-.2422417.1227779-.453559.1203058l-.3573496-.0123601h-.2431008l-.3427463-.0123602c-.0558359 0-.1486093.002472-.2791794.0057681-.13057.003296-.2233434.005768-.2783203.0065921-.0523998-.0032961-.1056586.002472-.1606355.0164802-.0558359.0148322-.1022226.0543848-.1391602.1203059-.0283474.0362565-.0438096.0824012-.0489637.1384341-.0042951.0568569-.0025771.1680986.0060131.3345492-.000859.0395526-.0034361.1021775-.0077311.1870508-.0042951.0865214-.0060131.1483223-.0068721.1870509-.0060131.1359621.0266294.2323716.0979275.2900525s.2147533.0856973.4303657.0840493c.0876193.000824.2233435 0 .4080313-.001648.1838289-.000824.3625037-.0049441.5360244-.0107122.1142487-.0107121.2284975-.0148322.3427463-.0123602.0816063-.002472.1709437.0057681.2680122.0247204.0962095.0197763.1786748.065097.2465368.1367861.0403736.0346086.066144.0947615.0747342.1812828.0094491.0865213.0128852.2966446.0111672.6295457 0 .0387286.002577.1030016.0068721.192819.004295.0898174.0060131.1532664.0068721.192819.000859.2274275-.0506818.3864619-.1571995.4787514-.1056586.0914654-.2723072.135138-.4999458.131842-.0438096 0-.1228389-.0032961-.2370877-.0090641l-.3453233-.0181283c-.1159668-.0057681-.1984321-.0090642-.2465369-.0098882-.3521954.000824-.580693.0247204-.6863517.0708651-.1047996.0469687-.1623535.1145378-.1709436.2010591-.0060131.0420247-.0051541.1161858.001718.2241315.0068721.1079456.0103082.1862269.0120262.2340196 0 .0329605-.002577.0931134-.0068721.1804588-.0042951.0873453-.0068721.1507943-.0068721.1903469-.0025771.2274275.0343605.3724538.1090947.4342547.0747342.061801.2001501.0865213.3762478.0725131.0575539.000824.1606355.0024721.3092449.0065921.1486093.0032961.2551269.0057681.3195529.0057681.0386556 0 .1082357-.002472.2095993-.0057681.1005046-.00412.1743797-.0057681.2199074-.0065921.4681623-.0131842.7636629.0230724.8856428.1079457s.1743797.2982926.1571995.6402579m-6.1101622-2.0690959v1.0844007l-.004295.3015886-.0060131.4350787c-.0025771.1450263-.0042951.2488519-.0042951.3098288.000859.0576809.0060131.1582105.0146032.3007647.0077312.1433782.0128852.2463798.0137443.3106528.0085901.13349-.0223344.2521479-.0927735.3543254-.0704391.1030016-.2310746.1829309-.4810475.2414358s-.6399649.0881693-1.1699762.0889933c-.8091906.0032961-1.4551686-.0741611-1.9362161-.2315475-.4810475-.1573865-.8693216-.4128304-1.1648222-.7655079-.3461824-.4161264-.5927192-.8981738-.7413285-1.4469663-.1477503-.5487924-.2199074-1.1338415-.2156124-1.7559711.0008591-.1474983.0094492-.3188929.0249114-.5150079l.0463867-.581753c.0128852-.1854029.0266295-.3296051.0395147-.4326067.0137442-.1030016.0326425-.199411.0584129-.2892284.0266294-.0889934.065285-.2060032.1159668-.3502054.0601309-.1862269.1194028-.3518535.1769567-.4960557.0584129-.1450262.1425963-.3073567.25255-.4878155.0343605-.0477928.1030816-.128546.2053042-.2414357.1030816-.1128898.2018681-.2208355.2980776-.323837.0962095-.1030016.1520454-.1639786.1675076-.1829309.2207664-.198587.4698803-.3559735.7456236-.4696872.2757433-.1153618.4990868-.191171.6691714-.2274275.0446687-.0098882.1374422-.0255444.2783204-.0469687.1408782-.0222484.2937825-.0420247.4587131-.060153.1649306-.0189523.3049498-.0288404.4209166-.0304884.132288.000824.2860514.0082401.4630082.0222483.1760977.0131842.3126808.0263684.4088903.0403766.2207665.0329605.3753889.062625.4647263.0865214.0884783.0247203.1571994.066745.2070222.1252499.0283474.0304885.0498228.0716891.063567.1236019.0154622.0519128.0249114.1549144.0300654.3090048.0042951.1540903.0068721.4004701.0060131.7391394.0017181.0922894-.000859.1903469-.0068721.2925245s-.0223343.1746907-.0498227.2183634c-.0266295.0354325-.0807473.0758091-.1623536.1227778-.0824653.0461448-.1614945.0716892-.2379467.0766332-.0386556-.001648-.0901964-.0115361-.1554814-.0296644-.065285-.0189523-.127134-.0379046-.1872649-.0576809-.1082357-.0255444-.2276386-.0436727-.3590676-.0560329-.131429-.0131842-.2259205-.0189523-.2843334-.0189523-.1494684-.000824-.3143989.0131842-.4947917.0420247-.1803928.0288404-.3341562.0774572-.4630082.1450262-.1099537.063449-.2431008.1829308-.3977232.3584455-.1554814.1755148-.2705892.3633896-.3453234.5636247-.0463867.1507944-.0747342.3048847-.0824653.4622712-.0068721.1590344-.0128852.3155968-.0171803.4721593-.005154.0428486-.0128852.1186578-.0214753.2266035-.0085901.1079456-.0171803.2175393-.0240524.328781-.0077311.1104177-.0111671.191995-.0120262.2422598-.000859.1845788.0137443.3963501.0429507.6336657.0283475.2381397.0764522.4680393.1434553.6896987.067003.2208354.1571994.3996461.2714482.5339602.1494683.1615065.3358742.2488519.5566406.2620361.0652851-.0032961.1176849-.0164803.1597765-.0412007.0412327-.0238963.0687211-.0436726.0841833-.0593289.0876194-.0865213.125416-.2117713.1142488-.3732777-.002577-.124426-.0120262-.2496759-.0292064-.3741018v-.4111824l-.0197573-.2216594c-.0068722-.0815772-.0249114-.1483223-.0515408-.2018831-.0154623-.0420246-.0412327-.067569-.0773113-.0766332-.0352195-.0090641-.1142487-.0131842-.2370876-.0107121-.1374422-.0024721-.2199075-.0263685-.2482549-.0716892s-.0360786-.1005295-.0231934-.1648025l-.004295-.2290755-.0060131-.4400228-.0042951-.2785163c0-.0791052.000859-.1425542.001718-.1895229.0017181-.0486168.0060131-.130194.0128852-.2463798.0163213-.1351381.0549769-.2274276.1159668-.2776923.06099-.0502648.1314291-.0741612.2121763-.0716891.0283475.000824.0764522.002472.1451733.0065921.0687211.003296.1202619.0057681.1554814.0057681l.3264251.003296.447546.0057681.2405237.003296c.1331471.0024721.2671532-.001648.4003002-.0123601l.2431008-.0123602c.2276386.00412.3719528.0708651.4338018.197763.0618489.127722.0884784.2900525.0807472.4878155-.001718.0716892-.0060131.192819-.0146032.3617416-.0085901.1680986-.0128852.2884045-.0146032.3609176.000859.0477927.003436.132666.0077311.2546199l.0137442.3675097c.0042951.1236019.0068721.2109473.0077311.2628601m-10.2050788-3.3759801c.000859.0477927.0051541.12937.0137442.2430837.0085901.1137138.0128852.195291.0146032.2430838l-.0283474.7869321c-.0103082.1837548.0094491.3502054.0601309.4993517s.192419.2282515.4252116.2373157c.1443143.0057681.3058088-.0379046.4827656-.1310181.1760977-.0939374.2731662-.2752202.2886284-.5430243.0025771-.060153-.001718-.126898-.0137442-.2002351 0-.0477928-.001718-.1326661-.005154-.2546199-.0034361-.1219539-.0077312-.2447318-.0137443-.3683337-.0068721-.1236019-.0146032-.2117713-.0240523-.2636841-.0532589-.2743962-.1537634-.4424948-.3023727-.5018237-.1477503-.060153-.2800384-.0840493-.3977232-.0716891-.2147534 0-.3539135.0271924-.4166215.0824012-.062708.0543849-.0910554.1351381-.0833243.2422598m-2.1870481 1.5351356.0283475-2.3962289c0-.0848733 0-.2010591.001718-.3485574.001718-.1466743.0068721-.2875804.0154622-.4202465.0077312-.13349.0214754-.2216594.0403737-.2653321.0575539-.1071216.1494683-.1730426.2748843-.196115.1254159-.0238964.2388057-.0329605.3393102-.0280164.0747342 0 .2010092.002472.3788249.0057681.1778158.00412.3040908.005768.3788249.0065921h.0283475c.0489637-.0008241.132288-.0024721.2508319-.0065921.1185438-.0049441.2370877-.0098882.3556315-.0156563.1185439-.0057681.2027272-.0107122.2508319-.0156562.3693758-.0140082.7318794-.0222484 1.0866519-.0247204.188124-.0164803.4406739.0164802.7593679.0980575.3178349.0815773.645978.3114768.9844293.6872266.1589174.1854029.2740252.3625656.3461824.5323122.0721571.1697466.1194028.3642136.1400191.585049.0214754.2208355.0360786.5009998.0420917.840493.000859.0477927.0042951.12937.0111672.2455558l.0206163.3502054c.0068721.1178338.0103082.2018831.0111672.2537959.002577.1425542-.0197573.323013-.0670031.5430244-.0463867.2191874-.132288.4449669-.256845.6781625-.1245569.2331956-.3032317.4424948-.5334473.6262496-.0841833.0593289-.1417372.1038256-.1718027.1326661-.0300654.0296644-.0446686.064273-.0429506.1046496.0146032.0898174.0575539.1730427.128852.2496758.0455277.0749852.0833243.1499704.1142488.2249555.0859013.1705706.1537634.3123008.2035861.4243666.0498228.1120657.125416.2908764.2250615.5364322.1546224.3477334.316976.6888747.4862016 1.0242478.061849.1104177.0953505.2266035.0996456.3493814.004295.0815773-.0326426.1623305-.1090947.2439078-.0764522.0807532-.2164714.1244259-.4191986.131018-.067003-.001648-.1872649-.0057681-.3590676-.0123602-.1726616-.0074161-.2963596-.0123602-.3702347-.0131842-.0670031.001648-.189842.0082401-.3659397.0189523-.1769568.0107122-.3023727.0173043-.3771069.0189523-.1709436 0-.2826154-.0346085-.3358742-.1046496s-.0936325-.1763387-.1211209-.3197169c-.0292065-.127722-.0781702-.2727483-.1451733-.4359028l-.1125307-.2760442c-.0850423-.189523-.1709437-.3724538-.256845-.5496165-.0721571-.1499703-.128852-.2991166-.1718027-.4490869-.0386556-.1532664-.0824653-.2776923-.13057-.3741018-.0481048-.0972335-.1228389-.1474983-.2267795-.1499703-.0773113.003296-.1297111.0206003-.1589175.0527368-.0292065.0313125-.0429507.0552088-.0412327.0716891-.0137442.0354325-.0240523.1112417-.0300654.2282515-.0060131.1161858-.0094492.2348436-.0111672.3551495-.000859.1203059-.001718.2051792-.000859.2529719.004295.193643.0085901.3312531.0137442.4120064.000859.0436726.0060131.1219538.0146032.2356676l.0274885.3444373c.0094491.1153618.0146032.196939.0154622.2439078.0085901.064273-.0094492.1573864-.0541179.2809883-.0446686.1236019-.1700846.191995-.3753888.2060032-.0730161-.001648-.1975731-.0082401-.3728118-.0189523s-.3032317-.0164803-.383979-.0181283c-.1099537.001648-.2190484.0098882-.3290021.0247204-.0377966.001648-.1013636.0074161-.193278.0181283-.0910554.0115362-.1554814.0173042-.192419.0190311-.2431008.0040412-.3719528-.1533452-.385697-.4738861v-.1376102c.0068721-.1178338.0103082-.2224834.0120262-.3155968.001718-.0922895.001718-.253796.001718-.4836955.000859-.0519128.0034361-.1442022.0077311-.2768683l.0137442-.3988221c.0042951-.1343141.0068722-.2290756.0077312-.2851084 0-.0700411-.000859-.1458503-.0025771-.2266035-.000859-.0807533-.0051541-.2348436-.0120262-.4606231-.0060131-.3279571-.0077311-.6864026-.005154-1.0745126.002577-.388934.004295-.7506756.005154-1.0852248m-6.98291966-3.1460805c.01202619-.2282515.06958008-.3708057.17094366-.4268386.10222259-.0568569.1735207-.0807532.21475334-.0716891.04896376 0 .13916016.0024721.26973016.0065921l.3942872.0115362c.131429.0041201.2250615.0065921.2791793.0065921.0472458-.000824.1305701-.0049441.2499729-.0123602.1194029-.0074161.2018682-.0115362.2499729-.0123602.0953505-.0057681.1975731.0140082.3075268.0593289.1090947.0444967.1692256.1450263.1786748.3015887-.000859.197763-.0060131.4260146-.0146033.6864026-.0077311.259564-.0128852.4878155-.0137442.6847545 0 .0519128.000859.1433783.0034361.2735723l.0068721.39223.003436.2818124c0 .0758091-.004295.2092992-.0111671.4004701l-.0206163.577633c-.0068722.194467-.0103082.3329011-.0111672.4177744.000859.0469687.004295.128546.0111672.2447318l.0206163.3493814c.0068721.1178338.0111671.2018831.0111671.2529719 0 .1046496-.002577.2257795-.0068721.3625656-.004295.1376101-.0068721.262036-.0068721.3724537l-.004295.2142433-.0068721.3164209-.0034361.2298995c-.003436.1639786.0317835.2908765.1073767.383166.0747341.0922894.2104583.1384341.4071723.1400821.1872649.0041201.3341562-.0313125.4389558-.1071216.1056587-.0758092.1589175-.2142433.1614946-.4161265v-.648498c-.0008591-.0420246-.0034361-.1038256-.0077312-.1854028-.004295-.0807533-.0068721-.1516184-.0068721-.2125953-.005154-.0321365-.0077311-.1095937-.0103081-.2323716-.0017181-.1219539-.0034361-.2472038-.0034361-.3757498l-.000859-.2645081c.001718-.065921.0060131-.1779867.0146032-.3370212.0085902-.1590344.0128852-.2711002.0146033-.3361972-.0008591-.070865-.0034361-.1936429-.0077312-.3683336l-.0137442-.5298402c-.004295-.1779868-.0068721-.3065327-.0077311-.385638l.0042951-.3180689.0068721-.4680392.003436-.3353732c-.000859-.064273-.0060131-.1746907-.0146032-.3304291-.0077311-.1549144-.0128852-.2653321-.0137442-.3304291v-.2117712c-.000859-.0238964-.0034361-.065921-.0077311-.126074-.0034361-.0601529-.0060131-.1054736-.0068721-.1351381.005154-.1161858.0523998-.195291.1434552-.2389636.0901964-.0428487.194996-.0626915.3135399-.060153l.3667987.0057681c.1760977.0041201.3015137.0057681.3771069.0065921.0558358-.000824.1511863-.002472.2860514-.0065921.1340061-.003296.2293566-.0057681.2851925-.0057681.066144-.0098881.1666485.0090642.3015136.0576809.1357242.0477928.2113173.1821068.2276386.4029422-.001718.0354326-.0060131.1021776-.0146032.2010591-.0085902.0988816-.0128852.1689226-.0146033.2109473.000859.0510888.0042951.1400821.0111672.2661561l.0206163.3806939c.0068721.1277219.0111672.2191874.0111672.2752202 0 .0585049-.002577.1623305-.0068721.3123008-.0042951.1507944-.0068721.25874-.0068721.323013 0 .0420247.002577.1153618.0068721.2191874l.0137442.3131248c.0051541.1054737.0077311.1812828.0077311.2274275-.000859.0486168-.004295.1326661-.0111671.25462l-.0206164.3683337c-.0068721.1227778-.0103081.2109472-.0111671.262036.000859.0477927.002577.1334901.0077311.257916l.0137442.3741017c.0042951.12525.0068721.2134193.0068721.2653321 0 .061801-.0042951.1689226-.0111672.321365l-.0206163.4589751c-.0068721.1540904-.0103082.263684-.0111672.3296051.000859.0379045.0025771.1087696.0077312.2125952l.0137442.3131249c.004295.1046496.0068721.1788107.0077311.2216594.0051541.2735722-.0695801.5553846-.2233435.8479091-.1537634.2917005-.4183395.5611526-.7920103.8100045-.257704.1713946-.5205621.2925245-.7894333.3609175-.2680122.0692171-.5815521.1021776-.9397606.0997056-.6279388-.0032961-1.0978191-.0560329-1.408782-.1590345-.3118218-.1021775-.5566406-.2364916-.7344564-.4021182-.32213001-.2735722-.52142111-.5479684-.59701429-.8223647-.07559318-.2735722-.10995371-.5479684-.1030816-.8223647.00171802-.3114768-.00257704-.6229536-.01460323-.9344304-.00085901-.0626249-.00429507-.1763387-.01116717-.3403172l-.02061633-.4993517c-.0068721-.1672746-.01030816-.2867564-.01116717-.3567975l.02834744-.9352545c.00085902-.0469687.00343606-.1277219.00773112-.2439077l.01374422-.3502054c.00429506-.1170098.0068721-.2018831.00773112-.2529719-.00085902-.0321365-.00343606-.0865214-.00773112-.1631545-.00429507-.0774572-.0060131-.1351381-.00687211-.1730427l.02834744-.4614471c0-.0263684 0-.0576809-.00171803-.0947615l-.01202618-.2167153c-.00773112-.0898174-.01116718-.1779868-.0128852-.2653321-.00171803-.0856974-.00171803-.193643-.00171803-.320541-.00171803-.0576809-.00601309-.1598584-.01460323-.3065327-.00773112-.1466743-.0128852-.2521479-.01374421-.3164209m-3.91452394 4.5757426c-.25684499.0164803-.385697.1582104-.385697.4235425v.8479091c-.00859013.1680986.00773112.3147729.04810475.4391988s.15290438.1895229.33759225.196115c.13744214-.002472.25254993-.0346085.34446437-.0964095.09277344-.0618009.1546224-.1376101.18468787-.2274275.03436054-.0856973.05497686-.2076512.06270798-.3650376.0068721-.1573864.01030816-.322189.00859013-.4952316.00944915-.1491463-.02405237-.2991167-.10050456-.448263-.13057004-.1730426-.29721863-.263684-.49994579-.2743962m-.05669488-3.302643c-.13916017-.001648-.22935657.0387286-.27058921.1194819-.04037363.0815773-.05497686.2117713-.0446687.391406v.7605638c-.00601309.0461447.00687211.0906414.03779659.131842.0317835.0420246.11854385.064273.26285809.067569.09792753-.002472.18812393-.0230723.27144823-.0626249.07645219-.0313125.15204537-.0931135.2250615-.1870509.07301614-.0931134.11253075-.2554439.11768483-.4861675-.00257704-.2051792-.05755389-.3773978-.16578958-.516656-.10823568-.1400821-.25254993-.2125953-.43380175-.2183634m2.04359281 2.2182423c.13228806.0939374.27058921.2175393.41576247.3708057s.27316626.3699817.38397898.65097c.05669488.1952911.09449147.4185985.11424878.6699224.02061632.2513239.03006547.4812234.02920645.6888746.00343606.2785163-.04037362.582577-.13314707.9105341-.09277344.328781-.25856302.6278976-.49565071.8998218-.23794671.2711002-.5712439.4614472-1.00075058.5702168-.13142905.0280165-.31869396.0486168-.56179475.060977-.24310078.0123602-.49393269.0197763-.75335472.0230723-.25856303.0024721-.47761144.003338-.65714523.003338-.06442601-.0016899-.17437972-.00581-.32814311-.0132261-.15462241-.0065921-.26457612-.0115362-.32900212-.0123602-.05841291.000824-.16321254.0057681-.31611692.0123602-.15290438.0074161-.26199908.0115362-.3272841.0132261-.29464158.0016061-.47331637-.0453626-.53774237-.1417721-.06356699-.0964095-.08933739-.2529719-.07645219-.4688632 0-.0428487.00257704-.1161858.00687211-.2191874l.01374421-.3139489c.00515408-.1046496.00773112-.1804587.00773112-.2274275 0-.066745-.00429506-.1829308-.01116717-.3502054l-.02061632-.5051198c-.00687211-.1697466-.01030816-.2917005-.01116718-.3658616.00085902-.0486168.00343606-.1326661.00773112-.2504999.00343606-.1194818.0060131-.2060032.00687211-.260388v-.4861675c0-.0708651.00257704-.193643.00687211-.3683337l.01374421-.5265441c.00515408-.1755147.00773112-.3015887.00773112-.3765738.00257704-.2241315-.00257704-.4482629-.01374421-.6732184-.02920646-.3361972-.04295067-.5611527-.04295067-.6732184 0-.0560329.00429507-.1532664.01030816-.2917005l.02061632-.4169504c.00773112-.1392582.01116718-.2397877.01202619-.3007647l-.00429507-.2504998-.00687211-.3617416-.00343605-.259564c-.01460323-.2092992.01374422-.3773978.0833243-.5034718.07043909-.1268979.26629414-.1911709.58842416-.194467.08761936-.002472.22592051.001648.41404444.0123602.08933739 0 .17266169.002472.24997289.0057681.07817022.0041201.13314708.0057681.16493057.0065921.08074726-.000824.22162545-.0041201.42177557-.0098882l.6038864-.0173042c.20186814-.0065921.34618239-.0098882.43208372-.0098882.90625911.0041201 1.53677493.2043552 1.89154745.6007053.35477252.3971741.52399815.9649189.50939493 1.7048823-.00773112.2785163-.04638672.515832-.11596681.711947-.07043909.195291-.12713398.323837-.17008465.3848139-.08160627.1590345-.16836662.2801643-.26114006.3625656-.09191443.0832253-.17180267.1450263-.23880572.1854029" fill="#1a1919"/></g></svg>