<svg width="54" height="42" viewBox="0 0 54 42" fill="none" xmlns="http://www.w3.org/2000/svg">
<path d="M4.41296 38V30.3H7.62496C8.11629 30.3 8.53063 30.3733 8.86796 30.52C9.20529 30.6667 9.45829 30.8867 9.62696 31.18C9.80296 31.466 9.89096 31.818 9.89096 32.236C9.89096 32.654 9.77363 33.0097 9.53896 33.303C9.31163 33.5963 8.99263 33.798 8.58196 33.908V33.688C8.92663 33.7613 9.22729 33.8933 9.48396 34.084C9.74063 34.2673 9.93863 34.4983 10.078 34.777C10.2246 35.0557 10.298 35.3747 10.298 35.734C10.298 36.1007 10.2393 36.427 10.122 36.713C10.012 36.9917 9.84329 37.2263 9.61596 37.417C9.39596 37.6077 9.12829 37.7543 8.81296 37.857C8.49763 37.9523 8.13829 38 7.73496 38H4.41296ZM5.60096 36.856H7.66896C7.96963 36.856 8.22263 36.812 8.42796 36.724C8.64063 36.636 8.80196 36.5077 8.91196 36.339C9.02929 36.163 9.08796 35.954 9.08796 35.712C9.08796 35.4847 9.02563 35.2903 8.90096 35.129C8.78363 34.9677 8.61496 34.8467 8.39496 34.766C8.17496 34.678 7.91463 34.634 7.61396 34.634H5.60096V36.856ZM5.60096 33.49H7.55896C7.77896 33.49 7.97329 33.446 8.14196 33.358C8.31796 33.27 8.45363 33.149 8.54896 32.995C8.65163 32.841 8.70296 32.665 8.70296 32.467C8.70296 32.137 8.59296 31.884 8.37296 31.708C8.15296 31.532 7.83763 31.444 7.42696 31.444H5.60096V33.49ZM11.604 38V29.86H12.737V38H11.604ZM16.4574 38.11C15.9807 38.11 15.5444 37.978 15.1484 37.714C14.7597 37.45 14.448 37.0907 14.2134 36.636C13.9787 36.1813 13.8614 35.668 13.8614 35.096C13.8614 34.5167 13.9787 34.0033 14.2134 33.556C14.4554 33.1013 14.778 32.7457 15.1814 32.489C15.592 32.2323 16.0504 32.104 16.5564 32.104C16.857 32.104 17.132 32.148 17.3814 32.236C17.6307 32.324 17.847 32.4487 18.0304 32.61C18.221 32.764 18.375 32.9437 18.4924 33.149C18.617 33.3543 18.694 33.5743 18.7234 33.809L18.4704 33.721V32.225H19.6144V38H18.4704V36.625L18.7344 36.548C18.6904 36.746 18.5987 36.9403 18.4594 37.131C18.3274 37.3143 18.155 37.4793 17.9424 37.626C17.737 37.7727 17.506 37.89 17.2494 37.978C17 38.066 16.736 38.11 16.4574 38.11ZM16.7544 37.065C17.099 37.065 17.4034 36.9807 17.6674 36.812C17.9314 36.6433 18.1367 36.4123 18.2834 36.119C18.4374 35.8183 18.5144 35.4773 18.5144 35.096C18.5144 34.722 18.4374 34.3883 18.2834 34.095C18.1367 33.8017 17.9314 33.5707 17.6674 33.402C17.4034 33.2333 17.099 33.149 16.7544 33.149C16.417 33.149 16.1164 33.2333 15.8524 33.402C15.5957 33.5707 15.3904 33.8017 15.2364 34.095C15.0897 34.3883 15.0164 34.722 15.0164 35.096C15.0164 35.4773 15.0897 35.8183 15.2364 36.119C15.3904 36.4123 15.5957 36.6433 15.8524 36.812C16.1164 36.9807 16.417 37.065 16.7544 37.065ZM21.1963 38V32.225H22.3293V33.413L22.1313 33.545C22.2046 33.2883 22.3476 33.0537 22.5603 32.841C22.773 32.621 23.026 32.445 23.3193 32.313C23.6126 32.1737 23.9133 32.104 24.2213 32.104C24.6613 32.104 25.028 32.192 25.3213 32.368C25.6146 32.5367 25.8346 32.797 25.9813 33.149C26.128 33.501 26.2013 33.9447 26.2013 34.48V38H25.0683V34.557C25.0683 34.227 25.0243 33.9557 24.9363 33.743C24.8483 33.523 24.7126 33.3653 24.5293 33.27C24.346 33.1673 24.1186 33.1233 23.8473 33.138C23.6273 33.138 23.4256 33.1747 23.2423 33.248C23.059 33.314 22.8976 33.4093 22.7583 33.534C22.6263 33.6587 22.52 33.8053 22.4393 33.974C22.366 34.1353 22.3293 34.3113 22.3293 34.502V38H21.7683C21.673 38 21.5776 38 21.4823 38C21.387 38 21.2916 38 21.1963 38ZM30.1473 38.11C29.6193 38.11 29.1463 37.9817 28.7283 37.725C28.3176 37.461 27.9913 37.1053 27.7493 36.658C27.5073 36.2033 27.3863 35.6863 27.3863 35.107C27.3863 34.5277 27.5036 34.0143 27.7383 33.567C27.9803 33.1123 28.3066 32.7567 28.7173 32.5C29.128 32.236 29.5936 32.104 30.1143 32.104C30.4003 32.104 30.6753 32.1517 30.9393 32.247C31.2106 32.335 31.4526 32.4597 31.6653 32.621C31.878 32.775 32.043 32.9473 32.1603 33.138C32.285 33.3213 32.3473 33.5083 32.3473 33.699L32.0173 33.721V29.86H33.1503V38H32.0173V36.625H32.2373C32.2373 36.801 32.1786 36.977 32.0613 37.153C31.944 37.3217 31.7863 37.4793 31.5883 37.626C31.3976 37.7727 31.174 37.89 30.9173 37.978C30.668 38.066 30.4113 38.11 30.1473 38.11ZM30.3013 37.131C30.646 37.131 30.9503 37.043 31.2143 36.867C31.4783 36.691 31.6836 36.4527 31.8303 36.152C31.9843 35.844 32.0613 35.4957 32.0613 35.107C32.0613 34.7183 31.9843 34.3737 31.8303 34.073C31.6836 33.765 31.4783 33.523 31.2143 33.347C30.9503 33.171 30.646 33.083 30.3013 33.083C29.9566 33.083 29.6523 33.171 29.3883 33.347C29.1243 33.523 28.9153 33.765 28.7613 34.073C28.6146 34.3737 28.5413 34.7183 28.5413 35.107C28.5413 35.4957 28.6146 35.844 28.7613 36.152C28.9153 36.4527 29.1243 36.691 29.3883 36.867C29.6523 37.043 29.9566 37.131 30.3013 37.131ZM34.897 38V32.225H36.03V38H34.897ZM35.447 30.949C35.205 30.949 35.018 30.8867 34.886 30.762C34.754 30.6373 34.688 30.4613 34.688 30.234C34.688 30.0213 34.754 29.849 34.886 29.717C35.0253 29.585 35.2123 29.519 35.447 29.519C35.689 29.519 35.876 29.5813 36.008 29.706C36.14 29.8307 36.206 30.0067 36.206 30.234C36.206 30.4467 36.1363 30.619 35.997 30.751C35.865 30.883 35.6816 30.949 35.447 30.949ZM37.7715 38V32.225H38.9045V33.413L38.7065 33.545C38.7798 33.2883 38.9228 33.0537 39.1355 32.841C39.3482 32.621 39.6012 32.445 39.8945 32.313C40.1878 32.1737 40.4885 32.104 40.7965 32.104C41.2365 32.104 41.6032 32.192 41.8965 32.368C42.1898 32.5367 42.4098 32.797 42.5565 33.149C42.7032 33.501 42.7765 33.9447 42.7765 34.48V38H41.6435V34.557C41.6435 34.227 41.5995 33.9557 41.5115 33.743C41.4235 33.523 41.2878 33.3653 41.1045 33.27C40.9212 33.1673 40.6938 33.1233 40.4225 33.138C40.2025 33.138 40.0008 33.1747 39.8175 33.248C39.6342 33.314 39.4728 33.4093 39.3335 33.534C39.2015 33.6587 39.0952 33.8053 39.0145 33.974C38.9412 34.1353 38.9045 34.3113 38.9045 34.502V38H38.3435C38.2482 38 38.1528 38 38.0575 38C37.9622 38 37.8668 38 37.7715 38ZM46.8985 40.53C46.4878 40.53 46.0772 40.464 45.6665 40.332C45.2632 40.2073 44.9368 40.0423 44.6875 39.837L45.1055 38.957C45.2522 39.067 45.4245 39.1623 45.6225 39.243C45.8205 39.331 46.0295 39.397 46.2495 39.441C46.4695 39.4923 46.6858 39.518 46.8985 39.518C47.3018 39.518 47.6392 39.452 47.9105 39.32C48.1818 39.188 48.3872 38.9937 48.5265 38.737C48.6658 38.4803 48.7355 38.1613 48.7355 37.78V36.669L48.8565 36.746C48.8198 36.9733 48.6988 37.1933 48.4935 37.406C48.2955 37.6113 48.0462 37.78 47.7455 37.912C47.4448 38.044 47.1368 38.11 46.8215 38.11C46.2715 38.11 45.7802 37.9817 45.3475 37.725C44.9222 37.461 44.5848 37.1053 44.3355 36.658C44.0862 36.2033 43.9615 35.6863 43.9615 35.107C43.9615 34.5277 44.0825 34.0143 44.3245 33.567C44.5738 33.1123 44.9112 32.7567 45.3365 32.5C45.7692 32.236 46.2532 32.104 46.7885 32.104C47.0085 32.104 47.2212 32.1333 47.4265 32.192C47.6318 32.2433 47.8225 32.3203 47.9985 32.423C48.1745 32.5183 48.3322 32.6247 48.4715 32.742C48.6108 32.8593 48.7245 32.984 48.8125 33.116C48.9005 33.248 48.9555 33.3727 48.9775 33.49L48.7355 33.578V32.225H49.8685V37.648C49.8685 38.11 49.7988 38.517 49.6595 38.869C49.5275 39.2283 49.3332 39.529 49.0765 39.771C48.8198 40.0203 48.5082 40.2073 48.1415 40.332C47.7748 40.464 47.3605 40.53 46.8985 40.53ZM46.9425 37.065C47.3018 37.065 47.6208 36.9807 47.8995 36.812C48.1782 36.6433 48.3945 36.4123 48.5485 36.119C48.7025 35.8257 48.7795 35.4883 48.7795 35.107C48.7795 34.7257 48.6988 34.3883 48.5375 34.095C48.3835 33.7943 48.1672 33.5597 47.8885 33.391C47.6172 33.2223 47.3018 33.138 46.9425 33.138C46.5905 33.138 46.2752 33.226 45.9965 33.402C45.7252 33.5707 45.5088 33.8053 45.3475 34.106C45.1935 34.3993 45.1165 34.733 45.1165 35.107C45.1165 35.481 45.1935 35.8183 45.3475 36.119C45.5088 36.4123 45.7252 36.6433 45.9965 36.812C46.2752 36.9807 46.5905 37.065 46.9425 37.065Z" fill="black"/>
<path d="M26 2V9M26 26V9M34 9H26M26 9H18" stroke="#484848" stroke-width="4"/>
</svg>
