<svg width="52" height="41" viewBox="0 0 52 41" fill="none" xmlns="http://www.w3.org/2000/svg">
<path d="M6.83386 23V15.3H10.0459C10.5372 15.3 10.9515 15.3733 11.2889 15.52C11.6262 15.6667 11.8792 15.8867 12.0479 16.18C12.2239 16.466 12.3119 16.818 12.3119 17.236C12.3119 17.654 12.1945 18.0097 11.9599 18.303C11.7325 18.5963 11.4135 18.798 11.0029 18.908V18.688C11.3475 18.7613 11.6482 18.8933 11.9049 19.084C12.1615 19.2673 12.3595 19.4983 12.4989 19.777C12.6455 20.0557 12.7189 20.3747 12.7189 20.734C12.7189 21.1007 12.6602 21.427 12.5429 21.713C12.4329 21.9917 12.2642 22.2263 12.0369 22.417C11.8169 22.6077 11.5492 22.7543 11.2339 22.857C10.9185 22.9523 10.5592 23 10.1559 23H6.83386ZM8.02186 21.856H10.0899C10.3905 21.856 10.6435 21.812 10.8489 21.724C11.0615 21.636 11.2229 21.5077 11.3329 21.339C11.4502 21.163 11.5089 20.954 11.5089 20.712C11.5089 20.4847 11.4465 20.2903 11.3219 20.129C11.2045 19.9677 11.0359 19.8467 10.8159 19.766C10.5959 19.678 10.3355 19.634 10.0349 19.634H8.02186V21.856ZM8.02186 18.49H9.97986C10.1999 18.49 10.3942 18.446 10.5629 18.358C10.7389 18.27 10.8745 18.149 10.9699 17.995C11.0725 17.841 11.1239 17.665 11.1239 17.467C11.1239 17.137 11.0139 16.884 10.7939 16.708C10.5739 16.532 10.2585 16.444 9.84786 16.444H8.02186V18.49ZM14.0352 23V17.225H15.1792V19.04L15.0692 18.6C15.1498 18.3213 15.2855 18.0683 15.4762 17.841C15.6742 17.6137 15.8978 17.434 16.1472 17.302C16.4038 17.17 16.6678 17.104 16.9392 17.104C17.0638 17.104 17.1812 17.115 17.2912 17.137C17.4085 17.159 17.5002 17.1847 17.5662 17.214L17.2692 18.446C17.1812 18.4093 17.0822 18.38 16.9722 18.358C16.8695 18.3287 16.7668 18.314 16.6642 18.314C16.4662 18.314 16.2755 18.3543 16.0922 18.435C15.9162 18.5083 15.7585 18.6147 15.6192 18.754C15.4872 18.886 15.3808 19.0437 15.3002 19.227C15.2195 19.403 15.1792 19.5973 15.1792 19.81V23H14.0352ZM18.6587 23V17.225H19.7917V23H18.6587ZM19.2087 15.949C18.9667 15.949 18.7797 15.8867 18.6477 15.762C18.5157 15.6373 18.4497 15.4613 18.4497 15.234C18.4497 15.0213 18.5157 14.849 18.6477 14.717C18.787 14.585 18.974 14.519 19.2087 14.519C19.4507 14.519 19.6377 14.5813 19.7697 14.706C19.9017 14.8307 19.9677 15.0067 19.9677 15.234C19.9677 15.4467 19.898 15.619 19.7587 15.751C19.6267 15.883 19.4434 15.949 19.2087 15.949ZM23.7552 23.11C23.2785 23.11 22.8422 22.978 22.4462 22.714C22.0575 22.45 21.7459 22.0907 21.5112 21.636C21.2765 21.1813 21.1592 20.668 21.1592 20.096C21.1592 19.5167 21.2765 19.0033 21.5112 18.556C21.7532 18.1013 22.0759 17.7457 22.4792 17.489C22.8899 17.2323 23.3482 17.104 23.8542 17.104C24.1549 17.104 24.4299 17.148 24.6792 17.236C24.9285 17.324 25.1449 17.4487 25.3282 17.61C25.5189 17.764 25.6729 17.9437 25.7902 18.149C25.9149 18.3543 25.9919 18.5743 26.0212 18.809L25.7682 18.721V17.225H26.9122V23H25.7682V21.625L26.0322 21.548C25.9882 21.746 25.8965 21.9403 25.7572 22.131C25.6252 22.3143 25.4529 22.4793 25.2402 22.626C25.0349 22.7727 24.8039 22.89 24.5472 22.978C24.2979 23.066 24.0339 23.11 23.7552 23.11ZM24.0522 22.065C24.3969 22.065 24.7012 21.9807 24.9652 21.812C25.2292 21.6433 25.4345 21.4123 25.5812 21.119C25.7352 20.8183 25.8122 20.4773 25.8122 20.096C25.8122 19.722 25.7352 19.3883 25.5812 19.095C25.4345 18.8017 25.2292 18.5707 24.9652 18.402C24.7012 18.2333 24.3969 18.149 24.0522 18.149C23.7149 18.149 23.4142 18.2333 23.1502 18.402C22.8935 18.5707 22.6882 18.8017 22.5342 19.095C22.3875 19.3883 22.3142 19.722 22.3142 20.096C22.3142 20.4773 22.3875 20.8183 22.5342 21.119C22.6882 21.4123 22.8935 21.6433 23.1502 21.812C23.4142 21.9807 23.7149 22.065 24.0522 22.065ZM28.4941 23V17.225H29.6271V18.413L29.4291 18.545C29.5025 18.2883 29.6455 18.0537 29.8581 17.841C30.0708 17.621 30.3238 17.445 30.6171 17.313C30.9105 17.1737 31.2111 17.104 31.5191 17.104C31.9591 17.104 32.3258 17.192 32.6191 17.368C32.9125 17.5367 33.1325 17.797 33.2791 18.149C33.4258 18.501 33.4991 18.9447 33.4991 19.48V23H32.3661V19.557C32.3661 19.227 32.3221 18.9557 32.2341 18.743C32.1461 18.523 32.0105 18.3653 31.8271 18.27C31.6438 18.1673 31.4165 18.1233 31.1451 18.138C30.9251 18.138 30.7235 18.1747 30.5401 18.248C30.3568 18.314 30.1955 18.4093 30.0561 18.534C29.9241 18.6587 29.8178 18.8053 29.7371 18.974C29.6638 19.1353 29.6271 19.3113 29.6271 19.502V23H29.0661C28.9708 23 28.8755 23 28.7801 23C28.6848 23 28.5895 23 28.4941 23ZM11.732 37V29.3H12.92V37H11.732ZM6.70495 37V29.3H7.89295V37H6.70495ZM7.22195 33.733V32.589H12.26V33.733H7.22195ZM17.4821 37.11C16.8881 37.11 16.3601 36.9853 15.8981 36.736C15.4435 36.4793 15.0841 36.131 14.8201 35.691C14.5635 35.251 14.4351 34.745 14.4351 34.173C14.4351 33.7183 14.5085 33.304 14.6551 32.93C14.8018 32.556 15.0035 32.2333 15.2601 31.962C15.5241 31.6833 15.8358 31.4707 16.1951 31.324C16.5618 31.17 16.9578 31.093 17.3831 31.093C17.7571 31.093 18.1055 31.1663 18.4281 31.313C18.7508 31.4523 19.0295 31.6467 19.2641 31.896C19.5061 32.1453 19.6895 32.4423 19.8141 32.787C19.9461 33.1243 20.0085 33.4947 20.0011 33.898L19.9901 34.382H15.2711L15.0181 33.48H19.0111L18.8461 33.667V33.403C18.8241 33.161 18.7435 32.9447 18.6041 32.754C18.4648 32.5633 18.2888 32.413 18.0761 32.303C17.8635 32.193 17.6325 32.138 17.3831 32.138C16.9871 32.138 16.6535 32.215 16.3821 32.369C16.1108 32.5157 15.9055 32.7357 15.7661 33.029C15.6268 33.315 15.5571 33.6707 15.5571 34.096C15.5571 34.4993 15.6415 34.8513 15.8101 35.152C15.9788 35.4453 16.2171 35.6727 16.5251 35.834C16.8331 35.9953 17.1888 36.076 17.5921 36.076C17.8781 36.076 18.1421 36.0283 18.3841 35.933C18.6335 35.8377 18.9011 35.6653 19.1871 35.416L19.7591 36.219C19.5831 36.395 19.3668 36.549 19.1101 36.681C18.8608 36.813 18.5931 36.9193 18.3071 37C18.0285 37.0733 17.7535 37.11 17.4821 37.11ZM23.4544 37.11C22.9778 37.11 22.5414 36.978 22.1454 36.714C21.7568 36.45 21.4451 36.0907 21.2104 35.636C20.9758 35.1813 20.8584 34.668 20.8584 34.096C20.8584 33.5167 20.9758 33.0033 21.2104 32.556C21.4524 32.1013 21.7751 31.7457 22.1784 31.489C22.5891 31.2323 23.0474 31.104 23.5534 31.104C23.8541 31.104 24.1291 31.148 24.3784 31.236C24.6278 31.324 24.8441 31.4487 25.0274 31.61C25.2181 31.764 25.3721 31.9437 25.4894 32.149C25.6141 32.3543 25.6911 32.5743 25.7204 32.809L25.4674 32.721V31.225H26.6114V37H25.4674V35.625L25.7314 35.548C25.6874 35.746 25.5958 35.9403 25.4564 36.131C25.3244 36.3143 25.1521 36.4793 24.9394 36.626C24.7341 36.7727 24.5031 36.89 24.2464 36.978C23.9971 37.066 23.7331 37.11 23.4544 37.11ZM23.7514 36.065C24.0961 36.065 24.4004 35.9807 24.6644 35.812C24.9284 35.6433 25.1338 35.4123 25.2804 35.119C25.4344 34.8183 25.5114 34.4773 25.5114 34.096C25.5114 33.722 25.4344 33.3883 25.2804 33.095C25.1338 32.8017 24.9284 32.5707 24.6644 32.402C24.4004 32.2333 24.0961 32.149 23.7514 32.149C23.4141 32.149 23.1134 32.2333 22.8494 32.402C22.5928 32.5707 22.3874 32.8017 22.2334 33.095C22.0868 33.3883 22.0134 33.722 22.0134 34.096C22.0134 34.4773 22.0868 34.8183 22.2334 35.119C22.3874 35.4123 22.5928 35.6433 22.8494 35.812C23.1134 35.9807 23.4141 36.065 23.7514 36.065ZM30.6024 37.11C30.0744 37.11 29.6014 36.9817 29.1834 36.725C28.7727 36.461 28.4464 36.1053 28.2044 35.658C27.9624 35.2033 27.8414 34.6863 27.8414 34.107C27.8414 33.5277 27.9587 33.0143 28.1934 32.567C28.4354 32.1123 28.7617 31.7567 29.1724 31.5C29.583 31.236 30.0487 31.104 30.5694 31.104C30.8554 31.104 31.1304 31.1517 31.3944 31.247C31.6657 31.335 31.9077 31.4597 32.1204 31.621C32.333 31.775 32.498 31.9473 32.6154 32.138C32.74 32.3213 32.8024 32.5083 32.8024 32.699L32.4724 32.721V28.86H33.6054V37H32.4724V35.625H32.6924C32.6924 35.801 32.6337 35.977 32.5164 36.153C32.399 36.3217 32.2414 36.4793 32.0434 36.626C31.8527 36.7727 31.629 36.89 31.3724 36.978C31.123 37.066 30.8664 37.11 30.6024 37.11ZM30.7564 36.131C31.101 36.131 31.4054 36.043 31.6694 35.867C31.9334 35.691 32.1387 35.4527 32.2854 35.152C32.4394 34.844 32.5164 34.4957 32.5164 34.107C32.5164 33.7183 32.4394 33.3737 32.2854 33.073C32.1387 32.765 31.9334 32.523 31.6694 32.347C31.4054 32.171 31.101 32.083 30.7564 32.083C30.4117 32.083 30.1074 32.171 29.8434 32.347C29.5794 32.523 29.3704 32.765 29.2164 33.073C29.0697 33.3737 28.9964 33.7183 28.9964 34.107C28.9964 34.4957 29.0697 34.844 29.2164 35.152C29.3704 35.4527 29.5794 35.691 29.8434 35.867C30.1074 36.043 30.4117 36.131 30.7564 36.131Z" fill="black"/>
<path d="M39 3V10M39 27V10M47 10H39M39 10H31" stroke="#484848" stroke-width="4"/>
</svg>
