<svg width="77" height="57" viewBox="0 0 77 57" fill="none" xmlns="http://www.w3.org/2000/svg">
<path d="M9.78957 39V31.3H10.9776V39H9.78957ZM4.76257 39V31.3H5.95057V39H4.76257ZM5.27957 35.733V34.589H10.3176V35.733H5.27957ZM15.0667 39.11C14.5901 39.11 14.1537 38.978 13.7577 38.714C13.3691 38.45 13.0574 38.0907 12.8227 37.636C12.5881 37.1813 12.4707 36.668 12.4707 36.096C12.4707 35.5167 12.5881 35.0033 12.8227 34.556C13.0647 34.1013 13.3874 33.7457 13.7907 33.489C14.2014 33.2323 14.6597 33.104 15.1657 33.104C15.4664 33.104 15.7414 33.148 15.9907 33.236C16.2401 33.324 16.4564 33.4487 16.6397 33.61C16.8304 33.764 16.9844 33.9437 17.1017 34.149C17.2264 34.3543 17.3034 34.5743 17.3327 34.809L17.0797 34.721V33.225H18.2237V39H17.0797V37.625L17.3437 37.548C17.2997 37.746 17.2081 37.9403 17.0687 38.131C16.9367 38.3143 16.7644 38.4793 16.5517 38.626C16.3464 38.7727 16.1154 38.89 15.8587 38.978C15.6094 39.066 15.3454 39.11 15.0667 39.11ZM15.3637 38.065C15.7084 38.065 16.0127 37.9807 16.2767 37.812C16.5407 37.6433 16.7461 37.4123 16.8927 37.119C17.0467 36.8183 17.1237 36.4773 17.1237 36.096C17.1237 35.722 17.0467 35.3883 16.8927 35.095C16.7461 34.8017 16.5407 34.5707 16.2767 34.402C16.0127 34.2333 15.7084 34.149 15.3637 34.149C15.0264 34.149 14.7257 34.2333 14.4617 34.402C14.2051 34.5707 13.9997 34.8017 13.8457 35.095C13.6991 35.3883 13.6257 35.722 13.6257 36.096C13.6257 36.4773 13.6991 36.8183 13.8457 37.119C13.9997 37.4123 14.2051 37.6433 14.4617 37.812C14.7257 37.9807 15.0264 38.065 15.3637 38.065ZM19.8277 39V30.86H20.9607V39H19.8277ZM22.5884 39V30.86H23.7214V39H22.5884ZM31.8202 39.11C31.2848 39.11 30.7935 39.0147 30.3462 38.824C29.8988 38.6333 29.5102 38.362 29.1802 38.01C28.8502 37.6507 28.5935 37.229 28.4102 36.745C28.2342 36.261 28.1462 35.7293 28.1462 35.15C28.1462 34.6 28.2415 34.0903 28.4322 33.621C28.6302 33.1443 28.9015 32.7263 29.2462 32.367C29.5908 32.0077 29.9905 31.729 30.4452 31.531C30.8998 31.333 31.3912 31.234 31.9192 31.234C32.2932 31.234 32.6562 31.2927 33.0082 31.41C33.3675 31.52 33.6902 31.6777 33.9762 31.883C34.2695 32.081 34.5078 32.3083 34.6912 32.565L33.8992 33.39C33.6865 33.1773 33.4702 33.0013 33.2502 32.862C33.0375 32.7153 32.8175 32.6053 32.5902 32.532C32.3702 32.4587 32.1465 32.422 31.9192 32.422C31.5598 32.422 31.2225 32.4917 30.9072 32.631C30.5992 32.763 30.3278 32.95 30.0932 33.192C29.8658 33.434 29.6862 33.7237 29.5542 34.061C29.4222 34.391 29.3562 34.754 29.3562 35.15C29.3562 35.568 29.4185 35.9493 29.5432 36.294C29.6752 36.6313 29.8585 36.921 30.0932 37.163C30.3278 37.405 30.6065 37.592 30.9292 37.724C31.2592 37.8487 31.6222 37.911 32.0182 37.911C32.2602 37.911 32.4985 37.878 32.7332 37.812C32.9678 37.746 33.1878 37.6507 33.3932 37.526C33.5985 37.4013 33.7855 37.2547 33.9542 37.086L34.5482 38.054C34.3795 38.252 34.1485 38.4317 33.8552 38.593C33.5692 38.7543 33.2465 38.8827 32.8872 38.978C32.5352 39.066 32.1795 39.11 31.8202 39.11ZM35.876 39V33.225H37.02V35.04L36.91 34.6C36.9907 34.3213 37.1263 34.0683 37.317 33.841C37.515 33.6137 37.7387 33.434 37.988 33.302C38.2447 33.17 38.5087 33.104 38.78 33.104C38.9047 33.104 39.022 33.115 39.132 33.137C39.2493 33.159 39.341 33.1847 39.407 33.214L39.11 34.446C39.022 34.4093 38.923 34.38 38.813 34.358C38.7103 34.3287 38.6077 34.314 38.505 34.314C38.307 34.314 38.1163 34.3543 37.933 34.435C37.757 34.5083 37.5993 34.6147 37.46 34.754C37.328 34.886 37.2217 35.0437 37.141 35.227C37.0603 35.403 37.02 35.5973 37.02 35.81V39H35.876ZM42.6614 39.11C42.0968 39.11 41.5908 38.9817 41.1434 38.725C40.7034 38.461 40.3551 38.1053 40.0984 37.658C39.8418 37.2033 39.7134 36.6863 39.7134 36.107C39.7134 35.5277 39.8418 35.0143 40.0984 34.567C40.3551 34.1123 40.7034 33.7567 41.1434 33.5C41.5908 33.236 42.0968 33.104 42.6614 33.104C43.2188 33.104 43.7174 33.236 44.1574 33.5C44.6048 33.7567 44.9568 34.1123 45.2134 34.567C45.4701 35.0143 45.5984 35.5277 45.5984 36.107C45.5984 36.6863 45.4701 37.2033 45.2134 37.658C44.9568 38.1053 44.6048 38.461 44.1574 38.725C43.7174 38.9817 43.2188 39.11 42.6614 39.11ZM42.6614 38.076C43.0061 38.076 43.3141 37.9917 43.5854 37.823C43.8568 37.647 44.0694 37.4123 44.2234 37.119C44.3774 36.8183 44.4508 36.481 44.4434 36.107C44.4508 35.7257 44.3774 35.3883 44.2234 35.095C44.0694 34.7943 43.8568 34.5597 43.5854 34.391C43.3141 34.2223 43.0061 34.138 42.6614 34.138C42.3168 34.138 42.0051 34.226 41.7264 34.402C41.4551 34.5707 41.2424 34.8053 41.0884 35.106C40.9344 35.3993 40.8611 35.733 40.8684 36.107C40.8611 36.481 40.9344 36.8183 41.0884 37.119C41.2424 37.4123 41.4551 37.647 41.7264 37.823C42.0051 37.9917 42.3168 38.076 42.6614 38.076ZM48.758 39.11C48.274 39.11 47.8377 39.0257 47.449 38.857C47.0603 38.6883 46.7377 38.439 46.481 38.109L47.251 37.449C47.471 37.7057 47.7093 37.8927 47.966 38.01C48.23 38.12 48.527 38.175 48.857 38.175C48.989 38.175 49.11 38.1603 49.22 38.131C49.3373 38.0943 49.4363 38.043 49.517 37.977C49.605 37.911 49.671 37.834 49.715 37.746C49.759 37.6507 49.781 37.548 49.781 37.438C49.781 37.2473 49.7113 37.0933 49.572 36.976C49.4987 36.9247 49.3813 36.8697 49.22 36.811C49.066 36.745 48.8643 36.679 48.615 36.613C48.1897 36.503 47.8413 36.3783 47.57 36.239C47.2987 36.0997 47.0897 35.942 46.943 35.766C46.833 35.6267 46.7523 35.4763 46.701 35.315C46.6497 35.1463 46.624 34.963 46.624 34.765C46.624 34.523 46.6753 34.303 46.778 34.105C46.888 33.8997 47.0347 33.7237 47.218 33.577C47.4087 33.423 47.6287 33.3057 47.878 33.225C48.1347 33.1443 48.406 33.104 48.692 33.104C48.9633 33.104 49.231 33.1407 49.495 33.214C49.7663 33.2873 50.0157 33.3937 50.243 33.533C50.4703 33.6723 50.661 33.8373 50.815 34.028L50.166 34.743C50.0267 34.6037 49.8727 34.4827 49.704 34.38C49.5427 34.27 49.3777 34.1857 49.209 34.127C49.0403 34.0683 48.8863 34.039 48.747 34.039C48.593 34.039 48.4537 34.0537 48.329 34.083C48.2043 34.1123 48.098 34.1563 48.01 34.215C47.9293 34.2737 47.867 34.347 47.823 34.435C47.779 34.523 47.757 34.622 47.757 34.732C47.7643 34.8273 47.7863 34.919 47.823 35.007C47.867 35.0877 47.9257 35.1573 47.999 35.216C48.0797 35.2747 48.2007 35.337 48.362 35.403C48.5233 35.469 48.7287 35.5313 48.978 35.59C49.3447 35.6853 49.6453 35.7917 49.88 35.909C50.122 36.019 50.3127 36.1473 50.452 36.294C50.5987 36.4333 50.7013 36.5947 50.76 36.778C50.8187 36.9613 50.848 37.1667 50.848 37.394C50.848 37.724 50.7527 38.021 50.562 38.285C50.3787 38.5417 50.1293 38.7433 49.814 38.89C49.4987 39.0367 49.1467 39.11 48.758 39.11ZM54.0217 39.11C53.5377 39.11 53.1014 39.0257 52.7127 38.857C52.324 38.6883 52.0014 38.439 51.7447 38.109L52.5147 37.449C52.7347 37.7057 52.973 37.8927 53.2297 38.01C53.4937 38.12 53.7907 38.175 54.1207 38.175C54.2527 38.175 54.3737 38.1603 54.4837 38.131C54.601 38.0943 54.7 38.043 54.7807 37.977C54.8687 37.911 54.9347 37.834 54.9787 37.746C55.0227 37.6507 55.0447 37.548 55.0447 37.438C55.0447 37.2473 54.975 37.0933 54.8357 36.976C54.7624 36.9247 54.645 36.8697 54.4837 36.811C54.3297 36.745 54.128 36.679 53.8787 36.613C53.4534 36.503 53.105 36.3783 52.8337 36.239C52.5624 36.0997 52.3534 35.942 52.2067 35.766C52.0967 35.6267 52.016 35.4763 51.9647 35.315C51.9134 35.1463 51.8877 34.963 51.8877 34.765C51.8877 34.523 51.939 34.303 52.0417 34.105C52.1517 33.8997 52.2984 33.7237 52.4817 33.577C52.6724 33.423 52.8924 33.3057 53.1417 33.225C53.3984 33.1443 53.6697 33.104 53.9557 33.104C54.227 33.104 54.4947 33.1407 54.7587 33.214C55.03 33.2873 55.2794 33.3937 55.5067 33.533C55.734 33.6723 55.9247 33.8373 56.0787 34.028L55.4297 34.743C55.2904 34.6037 55.1364 34.4827 54.9677 34.38C54.8064 34.27 54.6414 34.1857 54.4727 34.127C54.304 34.0683 54.15 34.039 54.0107 34.039C53.8567 34.039 53.7174 34.0537 53.5927 34.083C53.468 34.1123 53.3617 34.1563 53.2737 34.215C53.193 34.2737 53.1307 34.347 53.0867 34.435C53.0427 34.523 53.0207 34.622 53.0207 34.732C53.028 34.8273 53.05 34.919 53.0867 35.007C53.1307 35.0877 53.1894 35.1573 53.2627 35.216C53.3434 35.2747 53.4644 35.337 53.6257 35.403C53.787 35.469 53.9924 35.5313 54.2417 35.59C54.6084 35.6853 54.909 35.7917 55.1437 35.909C55.3857 36.019 55.5764 36.1473 55.7157 36.294C55.8624 36.4333 55.965 36.5947 56.0237 36.778C56.0824 36.9613 56.1117 37.1667 56.1117 37.394C56.1117 37.724 56.0164 38.021 55.8257 38.285C55.6424 38.5417 55.393 38.7433 55.0777 38.89C54.7624 39.0367 54.4104 39.11 54.0217 39.11ZM57.5474 39V33.225H58.6804V39H57.5474ZM58.0974 31.949C57.8554 31.949 57.6684 31.8867 57.5364 31.762C57.4044 31.6373 57.3384 31.4613 57.3384 31.234C57.3384 31.0213 57.4044 30.849 57.5364 30.717C57.6757 30.585 57.8627 30.519 58.0974 30.519C58.3394 30.519 58.5264 30.5813 58.6584 30.706C58.7904 30.8307 58.8564 31.0067 58.8564 31.234C58.8564 31.4467 58.7867 31.619 58.6474 31.751C58.5154 31.883 58.332 31.949 58.0974 31.949ZM60.4219 39V33.225H61.5549V34.413L61.3569 34.545C61.4302 34.2883 61.5732 34.0537 61.7859 33.841C61.9985 33.621 62.2515 33.445 62.5449 33.313C62.8382 33.1737 63.1389 33.104 63.4469 33.104C63.8869 33.104 64.2535 33.192 64.5469 33.368C64.8402 33.5367 65.0602 33.797 65.2069 34.149C65.3535 34.501 65.4269 34.9447 65.4269 35.48V39H64.2939V35.557C64.2939 35.227 64.2499 34.9557 64.1619 34.743C64.0739 34.523 63.9382 34.3653 63.7549 34.27C63.5715 34.1673 63.3442 34.1233 63.0729 34.138C62.8529 34.138 62.6512 34.1747 62.4679 34.248C62.2845 34.314 62.1232 34.4093 61.9839 34.534C61.8519 34.6587 61.7455 34.8053 61.6649 34.974C61.5915 35.1353 61.5549 35.3113 61.5549 35.502V39H60.9939C60.8985 39 60.8032 39 60.7079 39C60.6125 39 60.5172 39 60.4219 39ZM69.5489 41.53C69.1382 41.53 68.7275 41.464 68.3169 41.332C67.9135 41.2073 67.5872 41.0423 67.3379 40.837L67.7559 39.957C67.9025 40.067 68.0749 40.1623 68.2729 40.243C68.4709 40.331 68.6799 40.397 68.8999 40.441C69.1199 40.4923 69.3362 40.518 69.5489 40.518C69.9522 40.518 70.2895 40.452 70.5609 40.32C70.8322 40.188 71.0375 39.9937 71.1769 39.737C71.3162 39.4803 71.3859 39.1613 71.3859 38.78V37.669L71.5069 37.746C71.4702 37.9733 71.3492 38.1933 71.1439 38.406C70.9459 38.6113 70.6965 38.78 70.3959 38.912C70.0952 39.044 69.7872 39.11 69.4719 39.11C68.9219 39.11 68.4305 38.9817 67.9979 38.725C67.5725 38.461 67.2352 38.1053 66.9859 37.658C66.7365 37.2033 66.6119 36.6863 66.6119 36.107C66.6119 35.5277 66.7329 35.0143 66.9749 34.567C67.2242 34.1123 67.5615 33.7567 67.9869 33.5C68.4195 33.236 68.9035 33.104 69.4389 33.104C69.6589 33.104 69.8715 33.1333 70.0769 33.192C70.2822 33.2433 70.4729 33.3203 70.6489 33.423C70.8249 33.5183 70.9825 33.6247 71.1219 33.742C71.2612 33.8593 71.3749 33.984 71.4629 34.116C71.5509 34.248 71.6059 34.3727 71.6279 34.49L71.3859 34.578V33.225H72.5189V38.648C72.5189 39.11 72.4492 39.517 72.3099 39.869C72.1779 40.2283 71.9835 40.529 71.7269 40.771C71.4702 41.0203 71.1585 41.2073 70.7919 41.332C70.4252 41.464 70.0109 41.53 69.5489 41.53ZM69.5929 38.065C69.9522 38.065 70.2712 37.9807 70.5499 37.812C70.8285 37.6433 71.0449 37.4123 71.1989 37.119C71.3529 36.8257 71.4299 36.4883 71.4299 36.107C71.4299 35.7257 71.3492 35.3883 71.1879 35.095C71.0339 34.7943 70.8175 34.5597 70.5389 34.391C70.2675 34.2223 69.9522 34.138 69.5929 34.138C69.2409 34.138 68.9255 34.226 68.6469 34.402C68.3755 34.5707 68.1592 34.8053 67.9979 35.106C67.8439 35.3993 67.7669 35.733 67.7669 36.107C67.7669 36.481 67.8439 36.8183 67.9979 37.119C68.1592 37.4123 68.3755 37.6433 68.6469 37.812C68.9255 37.9807 69.2409 38.065 69.5929 38.065ZM20.8436 53V45.3H22.0096L24.8146 49.865L24.2536 49.854L27.0916 45.3H28.1916V53H27.0036V49.843C27.0036 49.183 27.0183 48.589 27.0476 48.061C27.0843 47.533 27.143 47.0087 27.2236 46.488L27.3776 46.895L24.8586 50.789H24.1326L21.6906 46.939L21.8116 46.488C21.8923 46.9793 21.9473 47.4853 21.9766 48.006C22.0133 48.5193 22.0316 49.1317 22.0316 49.843V53H20.8436ZM32.2865 53.11C31.8098 53.11 31.3735 52.978 30.9775 52.714C30.5888 52.45 30.2771 52.0907 30.0425 51.636C29.8078 51.1813 29.6905 50.668 29.6905 50.096C29.6905 49.5167 29.8078 49.0033 30.0425 48.556C30.2845 48.1013 30.6071 47.7457 31.0105 47.489C31.4211 47.2323 31.8795 47.104 32.3855 47.104C32.6861 47.104 32.9611 47.148 33.2105 47.236C33.4598 47.324 33.6761 47.4487 33.8595 47.61C34.0501 47.764 34.2041 47.9437 34.3215 48.149C34.4461 48.3543 34.5231 48.5743 34.5525 48.809L34.2995 48.721V47.225H35.4435V53H34.2995V51.625L34.5635 51.548C34.5195 51.746 34.4278 51.9403 34.2885 52.131C34.1565 52.3143 33.9841 52.4793 33.7715 52.626C33.5661 52.7727 33.3351 52.89 33.0785 52.978C32.8291 53.066 32.5651 53.11 32.2865 53.11ZM32.5835 52.065C32.9281 52.065 33.2325 51.9807 33.4965 51.812C33.7605 51.6433 33.9658 51.4123 34.1125 51.119C34.2665 50.8183 34.3435 50.4773 34.3435 50.096C34.3435 49.722 34.2665 49.3883 34.1125 49.095C33.9658 48.8017 33.7605 48.5707 33.4965 48.402C33.2325 48.2333 32.9281 48.149 32.5835 48.149C32.2461 48.149 31.9455 48.2333 31.6815 48.402C31.4248 48.5707 31.2195 48.8017 31.0655 49.095C30.9188 49.3883 30.8455 49.722 30.8455 50.096C30.8455 50.4773 30.9188 50.8183 31.0655 51.119C31.2195 51.4123 31.4248 51.6433 31.6815 51.812C31.9455 51.9807 32.2461 52.065 32.5835 52.065ZM37.0254 53V47.225H38.1694V49.04L38.0594 48.6C38.1401 48.3213 38.2757 48.0683 38.4664 47.841C38.6644 47.6137 38.8881 47.434 39.1374 47.302C39.3941 47.17 39.6581 47.104 39.9294 47.104C40.0541 47.104 40.1714 47.115 40.2814 47.137C40.3987 47.159 40.4904 47.1847 40.5564 47.214L40.2594 48.446C40.1714 48.4093 40.0724 48.38 39.9624 48.358C39.8597 48.3287 39.7571 48.314 39.6544 48.314C39.4564 48.314 39.2657 48.3543 39.0824 48.435C38.9064 48.5083 38.7487 48.6147 38.6094 48.754C38.4774 48.886 38.3711 49.0437 38.2904 49.227C38.2097 49.403 38.1694 49.5973 38.1694 49.81V53H37.0254ZM41.6489 53V47.225H42.7819V53H41.6489ZM42.1989 45.949C41.9569 45.949 41.7699 45.8867 41.6379 45.762C41.5059 45.6373 41.4399 45.4613 41.4399 45.234C41.4399 45.0213 41.5059 44.849 41.6379 44.717C41.7773 44.585 41.9643 44.519 42.1989 44.519C42.4409 44.519 42.6279 44.5813 42.7599 44.706C42.8919 44.8307 42.9579 45.0067 42.9579 45.234C42.9579 45.4467 42.8883 45.619 42.7489 45.751C42.6169 45.883 42.4336 45.949 42.1989 45.949ZM44.5234 53V47.225H45.6564V48.413L45.4584 48.545C45.5318 48.2883 45.6748 48.0537 45.8874 47.841C46.1001 47.621 46.3531 47.445 46.6464 47.313C46.9398 47.1737 47.2404 47.104 47.5484 47.104C47.9884 47.104 48.3551 47.192 48.6484 47.368C48.9418 47.5367 49.1618 47.797 49.3084 48.149C49.4551 48.501 49.5284 48.9447 49.5284 49.48V53H48.3954V49.557C48.3954 49.227 48.3514 48.9557 48.2634 48.743C48.1754 48.523 48.0398 48.3653 47.8564 48.27C47.6731 48.1673 47.4458 48.1233 47.1744 48.138C46.9544 48.138 46.7528 48.1747 46.5694 48.248C46.3861 48.314 46.2248 48.4093 46.0854 48.534C45.9534 48.6587 45.8471 48.8053 45.7664 48.974C45.6931 49.1353 45.6564 49.3113 45.6564 49.502V53H45.0954C45.0001 53 44.9048 53 44.8094 53C44.7141 53 44.6188 53 44.5234 53ZM53.2874 53.11C52.8108 53.11 52.3744 52.978 51.9784 52.714C51.5898 52.45 51.2781 52.0907 51.0434 51.636C50.8088 51.1813 50.6914 50.668 50.6914 50.096C50.6914 49.5167 50.8088 49.0033 51.0434 48.556C51.2854 48.1013 51.6081 47.7457 52.0114 47.489C52.4221 47.2323 52.8804 47.104 53.3864 47.104C53.6871 47.104 53.9621 47.148 54.2114 47.236C54.4608 47.324 54.6771 47.4487 54.8604 47.61C55.0511 47.764 55.2051 47.9437 55.3224 48.149C55.4471 48.3543 55.5241 48.5743 55.5534 48.809L55.3004 48.721V47.225H56.4444V53H55.3004V51.625L55.5644 51.548C55.5204 51.746 55.4288 51.9403 55.2894 52.131C55.1574 52.3143 54.9851 52.4793 54.7724 52.626C54.5671 52.7727 54.3361 52.89 54.0794 52.978C53.8301 53.066 53.5661 53.11 53.2874 53.11ZM53.5844 52.065C53.9291 52.065 54.2334 51.9807 54.4974 51.812C54.7614 51.6433 54.9668 51.4123 55.1134 51.119C55.2674 50.8183 55.3444 50.4773 55.3444 50.096C55.3444 49.722 55.2674 49.3883 55.1134 49.095C54.9668 48.8017 54.7614 48.5707 54.4974 48.402C54.2334 48.2333 53.9291 48.149 53.5844 48.149C53.2471 48.149 52.9464 48.2333 52.6824 48.402C52.4258 48.5707 52.2204 48.8017 52.0664 49.095C51.9198 49.3883 51.8464 49.722 51.8464 50.096C51.8464 50.4773 51.9198 50.8183 52.0664 51.119C52.2204 51.4123 52.4258 51.6433 52.6824 51.812C52.9464 51.9807 53.2471 52.065 53.5844 52.065Z" fill="black"/>
<path d="M34 3V10M34 27V10M42 10H34M34 10H26" stroke="#484848" stroke-width="4"/>
</svg>
