<svg width="57" height="37" viewBox="0 0 57 37" fill="none" xmlns="http://www.w3.org/2000/svg">
<path d="M6.72253 25V17.3H7.78953L12.4975 23.603L12.3215 23.702C12.2922 23.5187 12.2665 23.3207 12.2445 23.108C12.2225 22.888 12.2005 22.657 12.1785 22.415C12.1639 22.1657 12.1492 21.9053 12.1345 21.634C12.1272 21.3553 12.1199 21.0657 12.1125 20.765C12.1052 20.4643 12.1015 20.1527 12.1015 19.83V17.3H13.2895V25H12.2005L7.56953 18.928L7.69053 18.774C7.7272 19.2213 7.75653 19.6027 7.77853 19.918C7.80786 20.226 7.82986 20.49 7.84453 20.71C7.86653 20.9227 7.8812 21.0987 7.88853 21.238C7.89586 21.37 7.89953 21.48 7.89953 21.568C7.90686 21.656 7.91053 21.733 7.91053 21.799V25H6.72253ZM17.8542 25.11C17.2602 25.11 16.7322 24.9853 16.2702 24.736C15.8155 24.4793 15.4562 24.131 15.1922 23.691C14.9355 23.251 14.8072 22.745 14.8072 22.173C14.8072 21.7183 14.8805 21.304 15.0272 20.93C15.1739 20.556 15.3755 20.2333 15.6322 19.962C15.8962 19.6833 16.2079 19.4707 16.5672 19.324C16.9339 19.17 17.3299 19.093 17.7552 19.093C18.1292 19.093 18.4775 19.1663 18.8002 19.313C19.1229 19.4523 19.4015 19.6467 19.6362 19.896C19.8782 20.1453 20.0615 20.4423 20.1862 20.787C20.3182 21.1243 20.3805 21.4947 20.3732 21.898L20.3622 22.382H15.6432L15.3902 21.48H19.3832L19.2182 21.667V21.403C19.1962 21.161 19.1155 20.9447 18.9762 20.754C18.8369 20.5633 18.6609 20.413 18.4482 20.303C18.2355 20.193 18.0045 20.138 17.7552 20.138C17.3592 20.138 17.0255 20.215 16.7542 20.369C16.4829 20.5157 16.2775 20.7357 16.1382 21.029C15.9989 21.315 15.9292 21.6707 15.9292 22.096C15.9292 22.4993 16.0135 22.8513 16.1822 23.152C16.3509 23.4453 16.5892 23.6727 16.8972 23.834C17.2052 23.9953 17.5609 24.076 17.9642 24.076C18.2502 24.076 18.5142 24.0283 18.7562 23.933C19.0055 23.8377 19.2732 23.6653 19.5592 23.416L20.1312 24.219C19.9552 24.395 19.7389 24.549 19.4822 24.681C19.2329 24.813 18.9652 24.9193 18.6792 25C18.4005 25.0733 18.1255 25.11 17.8542 25.11ZM21.6045 27.42V19.225H22.7485V20.545L22.5725 20.446C22.6165 20.226 22.7412 20.017 22.9465 19.819C23.1518 19.6137 23.4012 19.4487 23.6945 19.324C23.9952 19.192 24.3032 19.126 24.6185 19.126C25.1392 19.126 25.6012 19.2543 26.0045 19.511C26.4078 19.7677 26.7268 20.1197 26.9615 20.567C27.1962 21.0143 27.3135 21.5277 27.3135 22.107C27.3135 22.679 27.1962 23.1923 26.9615 23.647C26.7342 24.0943 26.4188 24.45 26.0155 24.714C25.6122 24.9707 25.1575 25.099 24.6515 25.099C24.3142 25.099 23.9878 25.033 23.6725 24.901C23.3572 24.7617 23.0895 24.5857 22.8695 24.373C22.6495 24.1603 22.5138 23.9403 22.4625 23.713L22.7485 23.559V27.42H21.6045ZM24.4645 24.054C24.8018 24.054 25.1025 23.9697 25.3665 23.801C25.6305 23.6323 25.8395 23.4013 25.9935 23.108C26.1475 22.8147 26.2245 22.481 26.2245 22.107C26.2245 21.733 26.1475 21.403 25.9935 21.117C25.8468 20.8237 25.6415 20.5927 25.3775 20.424C25.1135 20.2553 24.8092 20.171 24.4645 20.171C24.1198 20.171 23.8155 20.2553 23.5515 20.424C23.2875 20.5853 23.0785 20.8127 22.9245 21.106C22.7705 21.3993 22.6935 21.733 22.6935 22.107C22.6935 22.481 22.7705 22.8147 22.9245 23.108C23.0785 23.4013 23.2875 23.6323 23.5515 23.801C23.8155 23.9697 24.1198 24.054 24.4645 24.054ZM28.544 25V16.86H29.677V20.413L29.479 20.545C29.5523 20.2883 29.6953 20.0537 29.908 19.841C30.1206 19.621 30.3736 19.445 30.667 19.313C30.9603 19.1737 31.261 19.104 31.569 19.104C32.009 19.104 32.3756 19.192 32.669 19.368C32.9623 19.5367 33.1823 19.797 33.329 20.149C33.4756 20.501 33.549 20.9447 33.549 21.48V25H32.416V21.557C32.416 21.227 32.372 20.9557 32.284 20.743C32.196 20.523 32.0603 20.3653 31.877 20.27C31.6936 20.1673 31.4663 20.1233 31.195 20.138C30.975 20.138 30.7733 20.1747 30.59 20.248C30.4066 20.314 30.2453 20.4093 30.106 20.534C29.974 20.6587 29.8676 20.8053 29.787 20.974C29.7136 21.1353 29.677 21.3113 29.677 21.502V25H29.116C29.0206 25 28.9253 25 28.83 25C28.7346 25 28.6393 25 28.544 25ZM35.2729 25V19.225H36.4059V25H35.2729ZM35.8229 17.949C35.5809 17.949 35.3939 17.8867 35.2619 17.762C35.1299 17.6373 35.0639 17.4613 35.0639 17.234C35.0639 17.0213 35.1299 16.849 35.2619 16.717C35.4013 16.585 35.5883 16.519 35.8229 16.519C36.0649 16.519 36.2519 16.5813 36.3839 16.706C36.5159 16.8307 36.5819 17.0067 36.5819 17.234C36.5819 17.4467 36.5123 17.619 36.3729 17.751C36.2409 17.883 36.0576 17.949 35.8229 17.949Z" fill="black"/>
<path d="M43 5V12M43 29V12M51 12H43M43 12H35" stroke="#484848" stroke-width="4"/>
</svg>
