<svg width="61" height="32" viewBox="0 0 61 32" fill="none" xmlns="http://www.w3.org/2000/svg">
<path d="M5.33532 12V4.3H8.34932C8.89932 4.3 9.39432 4.39167 9.83432 4.575C10.2817 4.75833 10.663 5.02233 10.9783 5.367C11.2937 5.71167 11.5357 6.11867 11.7043 6.588C11.873 7.05733 11.9573 7.578 11.9573 8.15C11.9573 8.722 11.873 9.24633 11.7043 9.723C11.5357 10.1923 11.2937 10.5993 10.9783 10.944C10.6703 11.2813 10.2927 11.5417 9.84532 11.725C9.39799 11.9083 8.89932 12 8.34932 12H5.33532ZM6.52332 10.977L6.49032 10.856H8.29432C8.68299 10.856 9.02766 10.7937 9.32832 10.669C9.63632 10.5443 9.89299 10.3683 10.0983 10.141C10.311 9.90633 10.4723 9.62033 10.5823 9.283C10.6923 8.94567 10.7473 8.568 10.7473 8.15C10.7473 7.732 10.6923 7.358 10.5823 7.028C10.4723 6.69067 10.311 6.40467 10.0983 6.17C9.88566 5.93533 9.62899 5.75567 9.32832 5.631C9.02766 5.50633 8.68299 5.444 8.29432 5.444H6.45732L6.52332 5.345V10.977ZM15.3018 12.11C14.8912 12.11 14.5318 12.0147 14.2238 11.824C13.9232 11.6333 13.6885 11.3657 13.5198 11.021C13.3585 10.6763 13.2778 10.2657 13.2778 9.789V6.225H14.4108V9.481C14.4108 9.81833 14.4622 10.1117 14.5648 10.361C14.6748 10.603 14.8288 10.79 15.0268 10.922C15.2322 11.054 15.4778 11.12 15.7638 11.12C15.9765 11.12 16.1708 11.087 16.3468 11.021C16.5228 10.9477 16.6732 10.8487 16.7978 10.724C16.9298 10.5993 17.0325 10.449 17.1058 10.273C17.1792 10.097 17.2158 9.90633 17.2158 9.701V6.225H18.3488V12H17.2158V10.79L17.4138 10.658C17.3258 10.9293 17.1755 11.175 16.9628 11.395C16.7575 11.615 16.5118 11.791 16.2258 11.923C15.9398 12.0477 15.6318 12.11 15.3018 12.11ZM20.653 12V4.751H21.786V12H20.653ZM19.454 7.325V6.225H23.128V7.325H19.454ZM26.559 12.11C26.0236 12.11 25.5433 11.978 25.118 11.714C24.7 11.45 24.3663 11.0907 24.117 10.636C23.875 10.1813 23.754 9.67167 23.754 9.107C23.754 8.54233 23.875 8.03267 24.117 7.578C24.3663 7.12333 24.7 6.764 25.118 6.5C25.5433 6.236 26.0236 6.104 26.559 6.104C27.0723 6.104 27.538 6.21033 27.956 6.423C28.3813 6.62833 28.704 6.91067 28.924 7.27L28.297 8.04C28.1796 7.87133 28.0293 7.71733 27.846 7.578C27.6626 7.43867 27.4683 7.32867 27.263 7.248C27.0576 7.16733 26.8596 7.127 26.669 7.127C26.317 7.127 26.0016 7.215 25.723 7.391C25.4516 7.55967 25.2353 7.79433 25.074 8.095C24.9126 8.39567 24.832 8.733 24.832 9.107C24.832 9.481 24.9163 9.81833 25.085 10.119C25.2536 10.4123 25.4773 10.647 25.756 10.823C26.0346 10.999 26.3426 11.087 26.68 11.087C26.878 11.087 27.0686 11.054 27.252 10.988C27.4426 10.922 27.626 10.823 27.802 10.691C27.978 10.559 28.143 10.3977 28.297 10.207L28.924 10.977C28.6893 11.307 28.352 11.5783 27.912 11.791C27.4793 12.0037 27.0283 12.11 26.559 12.11ZM29.9927 12V3.86H31.1257V7.413L30.9277 7.545C31.001 7.28833 31.144 7.05367 31.3567 6.841C31.5694 6.621 31.8224 6.445 32.1157 6.313C32.409 6.17367 32.7097 6.104 33.0177 6.104C33.4577 6.104 33.8244 6.192 34.1177 6.368C34.411 6.53667 34.631 6.797 34.7777 7.149C34.9244 7.501 34.9977 7.94467 34.9977 8.48V12H33.8647V8.557C33.8647 8.227 33.8207 7.95567 33.7327 7.743C33.6447 7.523 33.509 7.36533 33.3257 7.27C33.1424 7.16733 32.915 7.12333 32.6437 7.138C32.4237 7.138 32.222 7.17467 32.0387 7.248C31.8554 7.314 31.694 7.40933 31.5547 7.534C31.4227 7.65867 31.3164 7.80533 31.2357 7.974C31.1624 8.13533 31.1257 8.31133 31.1257 8.502V12H30.5647C30.4694 12 30.374 12 30.2787 12C30.1834 12 30.088 12 29.9927 12ZM9.63534 26.11C9.386 26.11 9.14767 26.077 8.92034 26.011C8.693 25.945 8.48034 25.8497 8.28234 25.725C8.09167 25.6003 7.91934 25.4537 7.76534 25.285C7.61134 25.109 7.47934 24.9183 7.36934 24.713L8.11734 23.932C8.27134 24.152 8.41067 24.328 8.53534 24.46C8.66734 24.592 8.792 24.6947 8.90934 24.768C9.02667 24.8413 9.144 24.8927 9.26134 24.922C9.37867 24.944 9.50334 24.955 9.63534 24.955C9.89934 24.955 10.1303 24.8963 10.3283 24.779C10.5263 24.6543 10.6803 24.4857 10.7903 24.273C10.9003 24.0603 10.9553 23.8183 10.9553 23.547V19.4H9.54734V18.3H13.3313V19.4H12.1433V23.657C12.1433 24.009 12.081 24.3353 11.9563 24.636C11.839 24.9293 11.6667 25.186 11.4393 25.406C11.2193 25.626 10.9553 25.7983 10.6473 25.923C10.3467 26.0477 10.0093 26.11 9.63534 26.11ZM16.7171 26.11C16.1524 26.11 15.6464 25.9817 15.1991 25.725C14.7591 25.461 14.4108 25.1053 14.1541 24.658C13.8974 24.2033 13.7691 23.6863 13.7691 23.107C13.7691 22.5277 13.8974 22.0143 14.1541 21.567C14.4108 21.1123 14.7591 20.7567 15.1991 20.5C15.6464 20.236 16.1524 20.104 16.7171 20.104C17.2744 20.104 17.7731 20.236 18.2131 20.5C18.6604 20.7567 19.0124 21.1123 19.2691 21.567C19.5258 22.0143 19.6541 22.5277 19.6541 23.107C19.6541 23.6863 19.5258 24.2033 19.2691 24.658C19.0124 25.1053 18.6604 25.461 18.2131 25.725C17.7731 25.9817 17.2744 26.11 16.7171 26.11ZM16.7171 25.076C17.0618 25.076 17.3698 24.9917 17.6411 24.823C17.9124 24.647 18.1251 24.4123 18.2791 24.119C18.4331 23.8183 18.5064 23.481 18.4991 23.107C18.5064 22.7257 18.4331 22.3883 18.2791 22.095C18.1251 21.7943 17.9124 21.5597 17.6411 21.391C17.3698 21.2223 17.0618 21.138 16.7171 21.138C16.3724 21.138 16.0608 21.226 15.7821 21.402C15.5108 21.5707 15.2981 21.8053 15.1441 22.106C14.9901 22.3993 14.9168 22.733 14.9241 23.107C14.9168 23.481 14.9901 23.8183 15.1441 24.119C15.2981 24.4123 15.5108 24.647 15.7821 24.823C16.0608 24.9917 16.3724 25.076 16.7171 25.076ZM20.8887 26V17.86H22.0217V21.413L21.8237 21.545C21.897 21.2883 22.04 21.0537 22.2527 20.841C22.4653 20.621 22.7183 20.445 23.0117 20.313C23.305 20.1737 23.6057 20.104 23.9137 20.104C24.3537 20.104 24.7203 20.192 25.0137 20.368C25.307 20.5367 25.527 20.797 25.6737 21.149C25.8203 21.501 25.8937 21.9447 25.8937 22.48V26H24.7607V22.557C24.7607 22.227 24.7167 21.9557 24.6287 21.743C24.5407 21.523 24.405 21.3653 24.2217 21.27C24.0383 21.1673 23.811 21.1233 23.5397 21.138C23.3197 21.138 23.118 21.1747 22.9347 21.248C22.7513 21.314 22.59 21.4093 22.4507 21.534C22.3187 21.6587 22.2123 21.8053 22.1317 21.974C22.0583 22.1353 22.0217 22.3113 22.0217 22.502V26H21.4607C21.3653 26 21.27 26 21.1747 26C21.0793 26 20.984 26 20.8887 26ZM27.4307 26V20.225H28.5637V21.413L28.3657 21.545C28.439 21.2883 28.582 21.0537 28.7947 20.841C29.0073 20.621 29.2603 20.445 29.5537 20.313C29.847 20.1737 30.1477 20.104 30.4557 20.104C30.8957 20.104 31.2623 20.192 31.5557 20.368C31.849 20.5367 32.069 20.797 32.2157 21.149C32.3623 21.501 32.4357 21.9447 32.4357 22.48V26H31.3027V22.557C31.3027 22.227 31.2587 21.9557 31.1707 21.743C31.0827 21.523 30.947 21.3653 30.7637 21.27C30.5803 21.1673 30.353 21.1233 30.0817 21.138C29.8617 21.138 29.66 21.1747 29.4767 21.248C29.2933 21.314 29.132 21.4093 28.9927 21.534C28.8607 21.6587 28.7543 21.8053 28.6737 21.974C28.6003 22.1353 28.5637 22.3113 28.5637 22.502V26H28.0027C27.9073 26 27.812 26 27.7167 26C27.6213 26 27.526 26 27.4307 26Z" fill="black"/>
<path d="M49 3V10M49 27V10M57 10H49M49 10H41" stroke="#484848" stroke-width="4"/>
</svg>
