<svg width="61" height="45" viewBox="0 0 61 45" fill="none" xmlns="http://www.w3.org/2000/svg">
<path d="M12.3091 40V33.444H10.1531V32.3H15.7191V33.444H13.4971V40H12.3091ZM18.0243 40.11C17.5476 40.11 17.1113 39.978 16.7153 39.714C16.3266 39.45 16.0149 39.0907 15.7803 38.636C15.5456 38.1813 15.4283 37.668 15.4283 37.096C15.4283 36.5167 15.5456 36.0033 15.7803 35.556C16.0223 35.1013 16.3449 34.7457 16.7483 34.489C17.1589 34.2323 17.6173 34.104 18.1233 34.104C18.4239 34.104 18.6989 34.148 18.9483 34.236C19.1976 34.324 19.4139 34.4487 19.5973 34.61C19.7879 34.764 19.9419 34.9437 20.0593 35.149C20.1839 35.3543 20.2609 35.5743 20.2903 35.809L20.0373 35.721V34.225H21.1813V40H20.0373V38.625L20.3013 38.548C20.2573 38.746 20.1656 38.9403 20.0263 39.131C19.8943 39.3143 19.7219 39.4793 19.5093 39.626C19.3039 39.7727 19.0729 39.89 18.8163 39.978C18.5669 40.066 18.3029 40.11 18.0243 40.11ZM18.3213 39.065C18.6659 39.065 18.9703 38.9807 19.2343 38.812C19.4983 38.6433 19.7036 38.4123 19.8503 38.119C20.0043 37.8183 20.0813 37.4773 20.0813 37.096C20.0813 36.722 20.0043 36.3883 19.8503 36.095C19.7036 35.8017 19.4983 35.5707 19.2343 35.402C18.9703 35.2333 18.6659 35.149 18.3213 35.149C17.9839 35.149 17.6833 35.2333 17.4193 35.402C17.1626 35.5707 16.9573 35.8017 16.8033 36.095C16.6566 36.3883 16.5833 36.722 16.5833 37.096C16.5833 37.4773 16.6566 37.8183 16.8033 38.119C16.9573 38.4123 17.1626 38.6433 17.4193 38.812C17.6833 38.9807 17.9839 39.065 18.3213 39.065ZM25.7992 40.11C25.5499 40.11 25.3005 40.0697 25.0512 39.989C24.8092 39.9083 24.5855 39.802 24.3802 39.67C24.1822 39.5307 24.0135 39.3803 23.8742 39.219C23.7422 39.0503 23.6542 38.8817 23.6102 38.713L23.8962 38.559V39.967H22.7632V31.86H23.8962V35.545L23.7202 35.446C23.7569 35.2773 23.8375 35.116 23.9622 34.962C24.0869 34.8007 24.2445 34.6577 24.4352 34.533C24.6332 34.401 24.8459 34.2983 25.0732 34.225C25.3005 34.1443 25.5315 34.104 25.7662 34.104C26.2869 34.104 26.7489 34.2323 27.1522 34.489C27.5555 34.7457 27.8745 35.1013 28.1092 35.556C28.3439 36.0033 28.4612 36.5167 28.4612 37.096C28.4612 37.6753 28.3439 38.1923 28.1092 38.647C27.8819 39.1017 27.5665 39.461 27.1632 39.725C26.7599 39.9817 26.3052 40.11 25.7992 40.11ZM25.6122 39.076C25.9495 39.076 26.2502 38.9917 26.5142 38.823C26.7782 38.647 26.9872 38.4123 27.1412 38.119C27.2952 37.8183 27.3722 37.4773 27.3722 37.096C27.3722 36.722 27.2952 36.3883 27.1412 36.095C26.9945 35.7943 26.7892 35.5597 26.5252 35.391C26.2612 35.2223 25.9569 35.138 25.6122 35.138C25.2675 35.138 24.9632 35.2223 24.6992 35.391C24.4352 35.5597 24.2262 35.7943 24.0722 36.095C23.9182 36.3883 23.8412 36.722 23.8412 37.096C23.8412 37.4773 23.9182 37.8183 24.0722 38.119C24.2262 38.4123 24.4352 38.647 24.6992 38.823C24.9632 38.9917 25.2675 39.076 25.6122 39.076ZM29.8789 40V34.225H31.0119V40H29.8789ZM30.4289 32.949C30.1869 32.949 29.9999 32.8867 29.8679 32.762C29.7359 32.6373 29.6699 32.4613 29.6699 32.234C29.6699 32.0213 29.7359 31.849 29.8679 31.717C30.0072 31.585 30.1942 31.519 30.4289 31.519C30.6709 31.519 30.8579 31.5813 30.9899 31.706C31.1219 31.8307 31.1879 32.0067 31.1879 32.234C31.1879 32.4467 31.1182 32.619 30.9789 32.751C30.8469 32.883 30.6636 32.949 30.4289 32.949ZM35.3494 40.11C34.7848 40.11 34.2788 39.9817 33.8314 39.725C33.3914 39.461 33.0431 39.1053 32.7864 38.658C32.5298 38.2033 32.4014 37.6863 32.4014 37.107C32.4014 36.5277 32.5298 36.0143 32.7864 35.567C33.0431 35.1123 33.3914 34.7567 33.8314 34.5C34.2788 34.236 34.7848 34.104 35.3494 34.104C35.9068 34.104 36.4054 34.236 36.8454 34.5C37.2928 34.7567 37.6448 35.1123 37.9014 35.567C38.1581 36.0143 38.2864 36.5277 38.2864 37.107C38.2864 37.6863 38.1581 38.2033 37.9014 38.658C37.6448 39.1053 37.2928 39.461 36.8454 39.725C36.4054 39.9817 35.9068 40.11 35.3494 40.11ZM35.3494 39.076C35.6941 39.076 36.0021 38.9917 36.2734 38.823C36.5448 38.647 36.7574 38.4123 36.9114 38.119C37.0654 37.8183 37.1388 37.481 37.1314 37.107C37.1388 36.7257 37.0654 36.3883 36.9114 36.095C36.7574 35.7943 36.5448 35.5597 36.2734 35.391C36.0021 35.2223 35.6941 35.138 35.3494 35.138C35.0048 35.138 34.6931 35.226 34.4144 35.402C34.1431 35.5707 33.9304 35.8053 33.7764 36.106C33.6224 36.3993 33.5491 36.733 33.5564 37.107C33.5491 37.481 33.6224 37.8183 33.7764 38.119C33.9304 38.4123 34.1431 38.647 34.4144 38.823C34.6931 38.9917 35.0048 39.076 35.3494 39.076ZM39.521 40V34.225H40.654V35.413L40.456 35.545C40.5293 35.2883 40.6723 35.0537 40.885 34.841C41.0977 34.621 41.3507 34.445 41.644 34.313C41.9373 34.1737 42.238 34.104 42.546 34.104C42.986 34.104 43.3527 34.192 43.646 34.368C43.9393 34.5367 44.1593 34.797 44.306 35.149C44.4527 35.501 44.526 35.9447 44.526 36.48V40H43.393V36.557C43.393 36.227 43.349 35.9557 43.261 35.743C43.173 35.523 43.0373 35.3653 42.854 35.27C42.6707 35.1673 42.4433 35.1233 42.172 35.138C41.952 35.138 41.7503 35.1747 41.567 35.248C41.3837 35.314 41.2223 35.4093 41.083 35.534C40.951 35.6587 40.8447 35.8053 40.764 35.974C40.6907 36.1353 40.654 36.3113 40.654 36.502V40H40.093C39.9977 40 39.9023 40 39.807 40C39.7117 40 39.6163 40 39.521 40ZM48.285 40.11C47.8083 40.11 47.372 39.978 46.976 39.714C46.5873 39.45 46.2757 39.0907 46.041 38.636C45.8063 38.1813 45.689 37.668 45.689 37.096C45.689 36.5167 45.8063 36.0033 46.041 35.556C46.283 35.1013 46.6057 34.7457 47.009 34.489C47.4197 34.2323 47.878 34.104 48.384 34.104C48.6847 34.104 48.9597 34.148 49.209 34.236C49.4583 34.324 49.6747 34.4487 49.858 34.61C50.0487 34.764 50.2027 34.9437 50.32 35.149C50.4447 35.3543 50.5217 35.5743 50.551 35.809L50.298 35.721V34.225H51.442V40H50.298V38.625L50.562 38.548C50.518 38.746 50.4263 38.9403 50.287 39.131C50.155 39.3143 49.9827 39.4793 49.77 39.626C49.5647 39.7727 49.3337 39.89 49.077 39.978C48.8277 40.066 48.5637 40.11 48.285 40.11ZM48.582 39.065C48.9267 39.065 49.231 38.9807 49.495 38.812C49.759 38.6433 49.9643 38.4123 50.111 38.119C50.265 37.8183 50.342 37.4773 50.342 37.096C50.342 36.722 50.265 36.3883 50.111 36.095C49.9643 35.8017 49.759 35.5707 49.495 35.402C49.231 35.2333 48.9267 35.149 48.582 35.149C48.2447 35.149 47.944 35.2333 47.68 35.402C47.4233 35.5707 47.218 35.8017 47.064 36.095C46.9173 36.3883 46.844 36.722 46.844 37.096C46.844 37.4773 46.9173 37.8183 47.064 38.119C47.218 38.4123 47.4233 38.6433 47.68 38.812C47.944 38.9807 48.2447 39.065 48.582 39.065Z" fill="black"/>
<path d="M23 2V9M23 26V9M31 9H23M23 9H15" stroke="#484848" stroke-width="4"/>
</svg>
