<svg width="73" height="45" viewBox="0 0 73 45" fill="none" xmlns="http://www.w3.org/2000/svg">
<path d="M16.849 12V11.131L21.238 5.257L21.403 5.444H17.135V4.3H22.712V5.158L18.345 11.043L18.169 10.856H22.833V12H16.849ZM24.4189 12V6.225H25.5519V12H24.4189ZM24.9689 4.949C24.7269 4.949 24.5399 4.88667 24.4079 4.762C24.2759 4.63733 24.2099 4.46133 24.2099 4.234C24.2099 4.02133 24.2759 3.849 24.4079 3.717C24.5473 3.585 24.7343 3.519 24.9689 3.519C25.2109 3.519 25.3979 3.58133 25.5299 3.706C25.6619 3.83067 25.7279 4.00667 25.7279 4.234C25.7279 4.44667 25.6583 4.619 25.5189 4.751C25.3869 4.883 25.2036 4.949 24.9689 4.949ZM29.8895 12.11C29.3248 12.11 28.8188 11.9817 28.3715 11.725C27.9315 11.461 27.5831 11.1053 27.3265 10.658C27.0698 10.2033 26.9415 9.68633 26.9415 9.107C26.9415 8.52767 27.0698 8.01433 27.3265 7.567C27.5831 7.11233 27.9315 6.75667 28.3715 6.5C28.8188 6.236 29.3248 6.104 29.8895 6.104C30.4468 6.104 30.9455 6.236 31.3855 6.5C31.8328 6.75667 32.1848 7.11233 32.4415 7.567C32.6981 8.01433 32.8265 8.52767 32.8265 9.107C32.8265 9.68633 32.6981 10.2033 32.4415 10.658C32.1848 11.1053 31.8328 11.461 31.3855 11.725C30.9455 11.9817 30.4468 12.11 29.8895 12.11ZM29.8895 11.076C30.2341 11.076 30.5421 10.9917 30.8135 10.823C31.0848 10.647 31.2975 10.4123 31.4515 10.119C31.6055 9.81833 31.6788 9.481 31.6715 9.107C31.6788 8.72567 31.6055 8.38833 31.4515 8.095C31.2975 7.79433 31.0848 7.55967 30.8135 7.391C30.5421 7.22233 30.2341 7.138 29.8895 7.138C29.5448 7.138 29.2331 7.226 28.9545 7.402C28.6831 7.57067 28.4705 7.80533 28.3165 8.106C28.1625 8.39933 28.0891 8.733 28.0965 9.107C28.0891 9.481 28.1625 9.81833 28.3165 10.119C28.4705 10.4123 28.6831 10.647 28.9545 10.823C29.2331 10.9917 29.5448 11.076 29.8895 11.076ZM34.061 12V6.225H35.194V7.413L34.996 7.545C35.0694 7.28833 35.2124 7.05367 35.425 6.841C35.6377 6.621 35.8907 6.445 36.184 6.313C36.4774 6.17367 36.778 6.104 37.086 6.104C37.526 6.104 37.8927 6.192 38.186 6.368C38.4794 6.53667 38.6994 6.797 38.846 7.149C38.9927 7.501 39.066 7.94467 39.066 8.48V12H37.933V8.557C37.933 8.227 37.889 7.95567 37.801 7.743C37.713 7.523 37.5774 7.36533 37.394 7.27C37.2107 7.16733 36.9834 7.12333 36.712 7.138C36.492 7.138 36.2904 7.17467 36.107 7.248C35.9237 7.314 35.7624 7.40933 35.623 7.534C35.491 7.65867 35.3847 7.80533 35.304 7.974C35.2307 8.13533 35.194 8.31133 35.194 8.502V12H34.633C34.5377 12 34.4424 12 34.347 12C34.2517 12 34.1564 12 34.061 12ZM6.07898 26V18.3H7.14598L11.854 24.603L11.678 24.702C11.6486 24.5187 11.623 24.3207 11.601 24.108C11.579 23.888 11.557 23.657 11.535 23.415C11.5203 23.1657 11.5056 22.9053 11.491 22.634C11.4836 22.3553 11.4763 22.0657 11.469 21.765C11.4616 21.4643 11.458 21.1527 11.458 20.83V18.3H12.646V26H11.557L6.92598 19.928L7.04698 19.774C7.08364 20.2213 7.11298 20.6027 7.13498 20.918C7.16431 21.226 7.18631 21.49 7.20098 21.71C7.22298 21.9227 7.23764 22.0987 7.24498 22.238C7.25231 22.37 7.25598 22.48 7.25598 22.568C7.26331 22.656 7.26698 22.733 7.26698 22.799V26H6.07898ZM16.7376 26.11C16.261 26.11 15.8246 25.978 15.4286 25.714C15.04 25.45 14.7283 25.0907 14.4936 24.636C14.259 24.1813 14.1416 23.668 14.1416 23.096C14.1416 22.5167 14.259 22.0033 14.4936 21.556C14.7356 21.1013 15.0583 20.7457 15.4616 20.489C15.8723 20.2323 16.3306 20.104 16.8366 20.104C17.1373 20.104 17.4123 20.148 17.6616 20.236C17.911 20.324 18.1273 20.4487 18.3106 20.61C18.5013 20.764 18.6553 20.9437 18.7726 21.149C18.8973 21.3543 18.9743 21.5743 19.0036 21.809L18.7506 21.721V20.225H19.8946V26H18.7506V24.625L19.0146 24.548C18.9706 24.746 18.879 24.9403 18.7396 25.131C18.6076 25.3143 18.4353 25.4793 18.2226 25.626C18.0173 25.7727 17.7863 25.89 17.5296 25.978C17.2803 26.066 17.0163 26.11 16.7376 26.11ZM17.0346 25.065C17.3793 25.065 17.6836 24.9807 17.9476 24.812C18.2116 24.6433 18.417 24.4123 18.5636 24.119C18.7176 23.8183 18.7946 23.4773 18.7946 23.096C18.7946 22.722 18.7176 22.3883 18.5636 22.095C18.417 21.8017 18.2116 21.5707 17.9476 21.402C17.6836 21.2333 17.3793 21.149 17.0346 21.149C16.6973 21.149 16.3966 21.2333 16.1326 21.402C15.876 21.5707 15.6706 21.8017 15.5166 22.095C15.37 22.3883 15.2966 22.722 15.2966 23.096C15.2966 23.4773 15.37 23.8183 15.5166 24.119C15.6706 24.4123 15.876 24.6433 16.1326 24.812C16.3966 24.9807 16.6973 25.065 17.0346 25.065ZM22.1916 26V18.751H23.3246V26H22.1916ZM20.9926 21.325V20.225H24.6666V21.325H20.9926ZM25.8853 26V20.225H27.0183V26H25.8853ZM26.4353 18.949C26.1933 18.949 26.0063 18.8867 25.8743 18.762C25.7423 18.6373 25.6763 18.4613 25.6763 18.234C25.6763 18.0213 25.7423 17.849 25.8743 17.717C26.0136 17.585 26.2006 17.519 26.4353 17.519C26.6773 17.519 26.8643 17.5813 26.9963 17.706C27.1283 17.8307 27.1943 18.0067 27.1943 18.234C27.1943 18.4467 27.1246 18.619 26.9853 18.751C26.8533 18.883 26.6699 18.949 26.4353 18.949ZM31.3558 26.11C30.7911 26.11 30.2851 25.9817 29.8378 25.725C29.3978 25.461 29.0494 25.1053 28.7928 24.658C28.5361 24.2033 28.4078 23.6863 28.4078 23.107C28.4078 22.5277 28.5361 22.0143 28.7928 21.567C29.0494 21.1123 29.3978 20.7567 29.8378 20.5C30.2851 20.236 30.7911 20.104 31.3558 20.104C31.9131 20.104 32.4118 20.236 32.8518 20.5C33.2991 20.7567 33.6511 21.1123 33.9078 21.567C34.1644 22.0143 34.2928 22.5277 34.2928 23.107C34.2928 23.6863 34.1644 24.2033 33.9078 24.658C33.6511 25.1053 33.2991 25.461 32.8518 25.725C32.4118 25.9817 31.9131 26.11 31.3558 26.11ZM31.3558 25.076C31.7004 25.076 32.0084 24.9917 32.2798 24.823C32.5511 24.647 32.7638 24.4123 32.9178 24.119C33.0718 23.8183 33.1451 23.481 33.1378 23.107C33.1451 22.7257 33.0718 22.3883 32.9178 22.095C32.7638 21.7943 32.5511 21.5597 32.2798 21.391C32.0084 21.2223 31.7004 21.138 31.3558 21.138C31.0111 21.138 30.6994 21.226 30.4208 21.402C30.1494 21.5707 29.9368 21.8053 29.7828 22.106C29.6288 22.3993 29.5554 22.733 29.5628 23.107C29.5554 23.481 29.6288 23.8183 29.7828 24.119C29.9368 24.4123 30.1494 24.647 30.4208 24.823C30.6994 24.9917 31.0111 25.076 31.3558 25.076ZM35.5274 26V20.225H36.6604V21.413L36.4624 21.545C36.5357 21.2883 36.6787 21.0537 36.8914 20.841C37.104 20.621 37.357 20.445 37.6504 20.313C37.9437 20.1737 38.2444 20.104 38.5524 20.104C38.9924 20.104 39.359 20.192 39.6524 20.368C39.9457 20.5367 40.1657 20.797 40.3124 21.149C40.459 21.501 40.5324 21.9447 40.5324 22.48V26H39.3994V22.557C39.3994 22.227 39.3554 21.9557 39.2674 21.743C39.1794 21.523 39.0437 21.3653 38.8604 21.27C38.677 21.1673 38.4497 21.1233 38.1784 21.138C37.9584 21.138 37.7567 21.1747 37.5734 21.248C37.39 21.314 37.2287 21.4093 37.0894 21.534C36.9574 21.6587 36.851 21.8053 36.7704 21.974C36.697 22.1353 36.6604 22.3113 36.6604 22.502V26H36.0994C36.004 26 35.9087 26 35.8134 26C35.718 26 35.6227 26 35.5274 26ZM44.2913 26.11C43.8147 26.11 43.3783 25.978 42.9823 25.714C42.5937 25.45 42.282 25.0907 42.0473 24.636C41.8127 24.1813 41.6953 23.668 41.6953 23.096C41.6953 22.5167 41.8127 22.0033 42.0473 21.556C42.2893 21.1013 42.612 20.7457 43.0153 20.489C43.426 20.2323 43.8843 20.104 44.3903 20.104C44.691 20.104 44.966 20.148 45.2153 20.236C45.4647 20.324 45.681 20.4487 45.8643 20.61C46.055 20.764 46.209 20.9437 46.3263 21.149C46.451 21.3543 46.528 21.5743 46.5573 21.809L46.3043 21.721V20.225H47.4483V26H46.3043V24.625L46.5683 24.548C46.5243 24.746 46.4327 24.9403 46.2933 25.131C46.1613 25.3143 45.989 25.4793 45.7763 25.626C45.571 25.7727 45.34 25.89 45.0833 25.978C44.834 26.066 44.57 26.11 44.2913 26.11ZM44.5883 25.065C44.933 25.065 45.2373 24.9807 45.5013 24.812C45.7653 24.6433 45.9707 24.4123 46.1173 24.119C46.2713 23.8183 46.3483 23.4773 46.3483 23.096C46.3483 22.722 46.2713 22.3883 46.1173 22.095C45.9707 21.8017 45.7653 21.5707 45.5013 21.402C45.2373 21.2333 44.933 21.149 44.5883 21.149C44.251 21.149 43.9503 21.2333 43.6863 21.402C43.4297 21.5707 43.2243 21.8017 43.0703 22.095C42.9237 22.3883 42.8503 22.722 42.8503 23.096C42.8503 23.4773 42.9237 23.8183 43.0703 24.119C43.2243 24.4123 43.4297 24.6433 43.6863 24.812C43.9503 24.9807 44.251 25.065 44.5883 25.065ZM49.0523 26V17.86H50.1853V26H49.0523ZM16.8212 40V32.3H19.9562C20.3742 32.3 20.7518 32.4063 21.0892 32.619C21.4338 32.8243 21.7088 33.1067 21.9142 33.466C22.1195 33.8253 22.2222 34.225 22.2222 34.665C22.2222 35.105 22.1195 35.5047 21.9142 35.864C21.7088 36.2233 21.4338 36.513 21.0892 36.733C20.7518 36.9457 20.3742 37.052 19.9562 37.052H18.0092V40H16.8212ZM18.0092 35.908H19.9342C20.1322 35.908 20.3118 35.853 20.4732 35.743C20.6345 35.6257 20.7628 35.4753 20.8582 35.292C20.9608 35.1013 21.0122 34.8923 21.0122 34.665C21.0122 34.4377 20.9608 34.2323 20.8582 34.049C20.7628 33.8657 20.6345 33.719 20.4732 33.609C20.3118 33.499 20.1322 33.444 19.9342 33.444H18.0092V35.908ZM25.6214 40.11C25.1448 40.11 24.7084 39.978 24.3124 39.714C23.9238 39.45 23.6121 39.0907 23.3774 38.636C23.1428 38.1813 23.0254 37.668 23.0254 37.096C23.0254 36.5167 23.1428 36.0033 23.3774 35.556C23.6194 35.1013 23.9421 34.7457 24.3454 34.489C24.7561 34.2323 25.2144 34.104 25.7204 34.104C26.0211 34.104 26.2961 34.148 26.5454 34.236C26.7948 34.324 27.0111 34.4487 27.1944 34.61C27.3851 34.764 27.5391 34.9437 27.6564 35.149C27.7811 35.3543 27.8581 35.5743 27.8874 35.809L27.6344 35.721V34.225H28.7784V40H27.6344V38.625L27.8984 38.548C27.8544 38.746 27.7628 38.9403 27.6234 39.131C27.4914 39.3143 27.3191 39.4793 27.1064 39.626C26.9011 39.7727 26.6701 39.89 26.4134 39.978C26.1641 40.066 25.9001 40.11 25.6214 40.11ZM25.9184 39.065C26.2631 39.065 26.5674 38.9807 26.8314 38.812C27.0954 38.6433 27.3008 38.4123 27.4474 38.119C27.6014 37.8183 27.6784 37.4773 27.6784 37.096C27.6784 36.722 27.6014 36.3883 27.4474 36.095C27.3008 35.8017 27.0954 35.5707 26.8314 35.402C26.5674 35.2333 26.2631 35.149 25.9184 35.149C25.5811 35.149 25.2804 35.2333 25.0164 35.402C24.7598 35.5707 24.5544 35.8017 24.4004 36.095C24.2538 36.3883 24.1804 36.722 24.1804 37.096C24.1804 37.4773 24.2538 37.8183 24.4004 38.119C24.5544 38.4123 24.7598 38.6433 25.0164 38.812C25.2804 38.9807 25.5811 39.065 25.9184 39.065ZM30.3604 40V34.225H31.5044V36.04L31.3944 35.6C31.475 35.3213 31.6107 35.0683 31.8014 34.841C31.9994 34.6137 32.223 34.434 32.4724 34.302C32.729 34.17 32.993 34.104 33.2644 34.104C33.389 34.104 33.5064 34.115 33.6164 34.137C33.7337 34.159 33.8254 34.1847 33.8914 34.214L33.5944 35.446C33.5064 35.4093 33.4074 35.38 33.2974 35.358C33.1947 35.3287 33.092 35.314 32.9894 35.314C32.7914 35.314 32.6007 35.3543 32.4174 35.435C32.2414 35.5083 32.0837 35.6147 31.9444 35.754C31.8124 35.886 31.706 36.0437 31.6254 36.227C31.5447 36.403 31.5044 36.5973 31.5044 36.81V40H30.3604ZM35.8309 38.196L35.7759 36.964L38.5369 34.225H40.0659L35.8309 38.196ZM34.7969 40V31.86H35.9299V40H34.7969ZM38.6909 40L36.5129 37.459L37.3159 36.722L40.1429 40H38.6909Z" fill="black"/>
<path d="M62 10V17M62 34V17M70 17H62M62 17H54" stroke="#484848" stroke-width="4"/>
</svg>
