<svg width="84" height="83" viewBox="0 0 84 83" fill="none" xmlns="http://www.w3.org/2000/svg">
<path d="M45.0657 4.5H39.9343C39.5349 4.5 39.2967 4.94507 39.5182 5.27735L40.916 7.37404C40.9708 7.45617 41 7.55268 41 7.65139V9V13C41 13.2761 40.7761 13.5 40.5 13.5H36.5H33.6514C33.5527 13.5 33.4562 13.4708 33.374 13.416L31.2773 12.0182C30.9451 11.7967 30.5 12.0349 30.5 12.4343V17.5657C30.5 17.9651 30.9451 18.2033 31.2774 17.9818L33.374 16.584C33.4562 16.5292 33.5527 16.5 33.6514 16.5H36.5H40.5C40.7761 16.5 41 16.7239 41 17V20.5V36.382C41 36.4596 40.9819 36.5361 40.9472 36.6056L39.8618 38.7764C39.6956 39.1088 39.9373 39.5 40.309 39.5H44.691C45.0627 39.5 45.3044 39.1088 45.1382 38.7764L44.0528 36.6056C44.0181 36.5361 44 36.4596 44 36.382V20.5V17C44 16.7239 44.2239 16.5 44.5 16.5H48.5H51.3486C51.4473 16.5 51.5438 16.5292 51.626 16.584L53.7227 17.9818C54.0549 18.2033 54.5 17.9651 54.5 17.5657V12.4343C54.5 12.0349 54.0549 11.7967 53.7227 12.0182L51.626 13.416C51.5438 13.4708 51.4473 13.5 51.3486 13.5H48.5H44.5C44.2239 13.5 44 13.2761 44 13V9V7.65139C44 7.55268 44.0292 7.45617 44.084 7.37404L45.4818 5.27735C45.7033 4.94507 45.4651 4.5 45.0657 4.5Z" fill="#4F4533"/>
<path d="M41 9V13C41 13.2761 40.7761 13.5 40.5 13.5H36.5M41 9V7.65139C41 7.55268 40.9708 7.45617 40.916 7.37404L39.5182 5.27735C39.2967 4.94507 39.5349 4.5 39.9343 4.5H45.0657C45.4651 4.5 45.7033 4.94507 45.4818 5.27735L44.084 7.37404C44.0292 7.45617 44 7.55268 44 7.65139V9M41 9C38.5 9 36.5 11 36.5 13.5M36.5 13.5H33.6514C33.5527 13.5 33.4562 13.4708 33.374 13.416L31.2773 12.0182C30.9451 11.7967 30.5 12.0349 30.5 12.4343V17.5657C30.5 17.9651 30.9451 18.2033 31.2774 17.9818L33.374 16.584C33.4562 16.5292 33.5527 16.5 33.6514 16.5H36.5M44 9V13C44 13.2761 44.2239 13.5 44.5 13.5H48.5M44 9C46.5 9 48.5 11 48.5 13.5M48.5 13.5H51.3486C51.4473 13.5 51.5438 13.4708 51.626 13.416L53.7227 12.0182C54.0549 11.7967 54.5 12.0349 54.5 12.4343V17.5657C54.5 17.9651 54.0549 18.2033 53.7226 17.9818L51.626 16.584C51.5438 16.5292 51.4473 16.5 51.3486 16.5H48.5M48.5 16.5H44.5C44.2239 16.5 44 16.7239 44 17V20.5M48.5 16.5C48.5 19 46.5 20.5 44 20.5M44 20.5V36.382C44 36.4596 44.0181 36.5361 44.0528 36.6056L45.1382 38.7764C45.3044 39.1088 45.0627 39.5 44.691 39.5H40.309C39.9373 39.5 39.6956 39.1088 39.8618 38.7764L40.9472 36.6056C40.9819 36.5361 41 36.4596 41 36.382V20.5M41 20.5V17C41 16.7239 40.7761 16.5 40.5 16.5H36.5M41 20.5C38.5 20.5 36.5 19 36.5 16.5" stroke="black"/>
<path d="M25.4477 47.745L24.9637 46.172L28.7807 42.3H30.9917L25.4477 47.745ZM24.0837 50V42.3H25.9537V50H24.0837ZM29.0227 50L26.1627 46.238L27.4277 45.149L31.2007 50H29.0227ZM34.3174 50.11C33.6721 50.11 33.1111 49.9817 32.6344 49.725C32.1578 49.461 31.7874 49.1053 31.5234 48.658C31.2594 48.2033 31.1274 47.6863 31.1274 47.107C31.1274 46.6597 31.2008 46.249 31.3474 45.875C31.4941 45.501 31.6994 45.1783 31.9634 44.907C32.2274 44.6283 32.5391 44.4157 32.8984 44.269C33.2651 44.115 33.6648 44.038 34.0974 44.038C34.5081 44.038 34.8821 44.1113 35.2194 44.258C35.5641 44.4047 35.8611 44.61 36.1104 44.874C36.3598 45.138 36.5504 45.4497 36.6824 45.809C36.8144 46.1683 36.8731 46.5607 36.8584 46.986L36.8474 47.459H32.1944L31.9414 46.469H35.4174L35.2304 46.678V46.458C35.2158 46.2747 35.1571 46.1133 35.0544 45.974C34.9591 45.8273 34.8308 45.7137 34.6694 45.633C34.5081 45.5523 34.3248 45.512 34.1194 45.512C33.8334 45.512 33.5878 45.5707 33.3824 45.688C33.1844 45.798 33.0341 45.963 32.9314 46.183C32.8288 46.3957 32.7774 46.6597 32.7774 46.975C32.7774 47.2977 32.8434 47.58 32.9754 47.822C33.1148 48.0567 33.3128 48.24 33.5694 48.372C33.8334 48.504 34.1451 48.57 34.5044 48.57C34.7538 48.57 34.9738 48.5333 35.1644 48.46C35.3624 48.3867 35.5751 48.262 35.8024 48.086L36.6274 49.252C36.4001 49.45 36.1581 49.6113 35.9014 49.736C35.6448 49.8607 35.3808 49.9523 35.1094 50.011C34.8454 50.077 34.5814 50.11 34.3174 50.11ZM40.1357 50.099C39.6444 50.099 39.2044 49.9707 38.8157 49.714C38.4344 49.45 38.1301 49.0907 37.9027 48.636C37.6754 48.174 37.5617 47.6533 37.5617 47.074C37.5617 46.48 37.6754 45.9557 37.9027 45.501C38.1301 45.0463 38.4417 44.6907 38.8377 44.434C39.2337 44.17 39.6847 44.038 40.1907 44.038C40.4694 44.038 40.7224 44.0783 40.9497 44.159C41.1844 44.2397 41.3897 44.3533 41.5657 44.5C41.7417 44.6393 41.8921 44.8043 42.0167 44.995C42.1414 45.1783 42.2331 45.3763 42.2917 45.589L41.9287 45.545V44.159H43.6777V50H41.8957V48.592L42.2917 48.581C42.2331 48.7863 42.1377 48.9807 42.0057 49.164C41.8737 49.3473 41.7124 49.5087 41.5217 49.648C41.3311 49.7873 41.1184 49.8973 40.8837 49.978C40.6491 50.0587 40.3997 50.099 40.1357 50.099ZM40.6197 48.614C40.8911 48.614 41.1257 48.5517 41.3237 48.427C41.5217 48.3023 41.6757 48.1263 41.7857 47.899C41.8957 47.6643 41.9507 47.3893 41.9507 47.074C41.9507 46.7587 41.8957 46.4873 41.7857 46.26C41.6757 46.0253 41.5217 45.8457 41.3237 45.721C41.1257 45.589 40.8911 45.523 40.6197 45.523C40.3557 45.523 40.1247 45.589 39.9267 45.721C39.7361 45.8457 39.5857 46.0253 39.4757 46.26C39.3657 46.4873 39.3107 46.7587 39.3107 47.074C39.3107 47.3893 39.3657 47.6643 39.4757 47.899C39.5857 48.1263 39.7361 48.3023 39.9267 48.427C40.1247 48.5517 40.3557 48.614 40.6197 48.614ZM45.2307 50V44.159H46.9027L46.9797 46.062L46.6497 45.699C46.7377 45.3837 46.8807 45.1013 47.0787 44.852C47.284 44.6027 47.5224 44.4047 47.7937 44.258C48.065 44.1113 48.3547 44.038 48.6627 44.038C48.7947 44.038 48.9157 44.049 49.0257 44.071C49.143 44.093 49.2494 44.1187 49.3447 44.148L48.8607 46.095C48.78 46.0437 48.67 46.0033 48.5307 45.974C48.3987 45.9373 48.2594 45.919 48.1127 45.919C47.9514 45.919 47.801 45.9483 47.6617 46.007C47.5224 46.0583 47.405 46.1353 47.3097 46.238C47.2144 46.3407 47.1374 46.4617 47.0787 46.601C47.0274 46.7403 47.0017 46.898 47.0017 47.074V50H45.2307ZM50.2366 50V44.159H51.9086L51.9636 45.347L51.6116 45.479C51.6922 45.215 51.8352 44.9767 52.0406 44.764C52.2532 44.544 52.5062 44.368 52.7996 44.236C53.0929 44.104 53.4009 44.038 53.7236 44.038C54.1636 44.038 54.5339 44.1297 54.8346 44.313C55.1352 44.489 55.3626 44.7567 55.5166 45.116C55.6706 45.468 55.7476 45.9007 55.7476 46.414V50H53.9766V46.557C53.9766 46.3223 53.9436 46.128 53.8776 45.974C53.8116 45.82 53.7089 45.7063 53.5696 45.633C53.4376 45.5523 53.2726 45.5157 53.0746 45.523C52.9206 45.523 52.7776 45.5487 52.6456 45.6C52.5136 45.644 52.3999 45.7137 52.3046 45.809C52.2092 45.897 52.1322 45.9997 52.0736 46.117C52.0222 46.2343 51.9966 46.3627 51.9966 46.502V50H51.1276C50.9222 50 50.7462 50 50.5996 50C50.4529 50 50.3319 50 50.2366 50ZM59.188 50.11C58.616 50.11 58.11 50.0183 57.67 49.835C57.2373 49.6517 56.8927 49.406 56.636 49.098L57.703 48.174C57.9303 48.4013 58.187 48.57 58.473 48.68C58.759 48.7827 59.0303 48.834 59.287 48.834C59.3897 48.834 59.4813 48.823 59.562 48.801C59.6427 48.779 59.7087 48.7497 59.76 48.713C59.8187 48.669 59.8627 48.6213 59.892 48.57C59.9213 48.5113 59.936 48.4453 59.936 48.372C59.936 48.2253 59.87 48.1117 59.738 48.031C59.672 47.9943 59.562 47.9503 59.408 47.899C59.254 47.8477 59.056 47.789 58.814 47.723C58.4693 47.635 58.1687 47.5323 57.912 47.415C57.6627 47.2903 57.4573 47.1473 57.296 46.986C57.1493 46.832 57.0357 46.6633 56.955 46.48C56.8743 46.2893 56.834 46.0767 56.834 45.842C56.834 45.5707 56.8963 45.325 57.021 45.105C57.153 44.885 57.3253 44.6943 57.538 44.533C57.758 44.3717 58.0073 44.2507 58.286 44.17C58.572 44.082 58.8653 44.038 59.166 44.038C59.4887 44.038 59.7967 44.0747 60.09 44.148C60.3833 44.2213 60.6547 44.324 60.904 44.456C61.1607 44.588 61.388 44.7457 61.586 44.929L60.662 45.963C60.53 45.8383 60.3797 45.7283 60.211 45.633C60.0497 45.5303 59.881 45.4497 59.705 45.391C59.529 45.3323 59.3677 45.303 59.221 45.303C59.111 45.303 59.012 45.314 58.924 45.336C58.8433 45.3507 58.7737 45.38 58.715 45.424C58.6563 45.4607 58.6123 45.5083 58.583 45.567C58.5537 45.6183 58.539 45.6807 58.539 45.754C58.539 45.8273 58.5573 45.897 58.594 45.963C58.638 46.029 58.6967 46.084 58.77 46.128C58.8433 46.172 58.9607 46.2233 59.122 46.282C59.2833 46.3333 59.5033 46.3993 59.782 46.48C60.1267 46.5753 60.4237 46.6817 60.673 46.799C60.9223 46.9163 61.1203 47.0557 61.267 47.217C61.3843 47.3417 61.4723 47.4883 61.531 47.657C61.5897 47.8183 61.619 47.9943 61.619 48.185C61.619 48.559 61.5127 48.8927 61.3 49.186C61.0947 49.472 60.8087 49.6993 60.442 49.868C60.0753 50.0293 59.6573 50.11 59.188 50.11ZM15.0847 64.11C14.542 64.11 14.0397 64.011 13.5777 63.813C13.123 63.615 12.7234 63.34 12.3787 62.988C12.0414 62.6287 11.7774 62.2107 11.5867 61.734C11.4034 61.25 11.3117 60.722 11.3117 60.15C11.3117 59.578 11.4034 59.0537 11.5867 58.577C11.7774 58.093 12.0414 57.675 12.3787 57.323C12.7234 56.9637 13.123 56.685 13.5777 56.487C14.0397 56.289 14.542 56.19 15.0847 56.19C15.6274 56.19 16.126 56.289 16.5807 56.487C17.0427 56.685 17.4424 56.9637 17.7797 57.323C18.1244 57.6823 18.3884 58.104 18.5717 58.588C18.7624 59.0647 18.8577 59.5853 18.8577 60.15C18.8577 60.7147 18.7624 61.239 18.5717 61.723C18.3884 62.1997 18.1244 62.6177 17.7797 62.977C17.4424 63.3363 17.0427 63.615 16.5807 63.813C16.126 64.011 15.6274 64.11 15.0847 64.11ZM15.0847 62.955C15.4587 62.955 15.7997 62.8853 16.1077 62.746C16.423 62.6067 16.6944 62.4123 16.9217 62.163C17.149 61.9063 17.325 61.6093 17.4497 61.272C17.5817 60.9273 17.6477 60.5533 17.6477 60.15C17.6477 59.7467 17.5817 59.3763 17.4497 59.039C17.325 58.6943 17.149 58.3973 16.9217 58.148C16.6944 57.8913 16.423 57.6933 16.1077 57.554C15.7997 57.4147 15.4587 57.345 15.0847 57.345C14.7107 57.345 14.366 57.4147 14.0507 57.554C13.7427 57.6933 13.4714 57.8877 13.2367 58.137C13.0094 58.3863 12.8334 58.6833 12.7087 59.028C12.584 59.3653 12.5217 59.7393 12.5217 60.15C12.5217 60.5533 12.584 60.9273 12.7087 61.272C12.8334 61.6167 13.0094 61.9137 13.2367 62.163C13.4714 62.4123 13.7427 62.6067 14.0507 62.746C14.366 62.8853 14.7107 62.955 15.0847 62.955ZM22.2042 64.11C21.7935 64.11 21.4342 64.0147 21.1262 63.824C20.8255 63.6333 20.5909 63.3657 20.4222 63.021C20.2609 62.6763 20.1802 62.2657 20.1802 61.789V58.225H21.3132V61.481C21.3132 61.8183 21.3645 62.1117 21.4672 62.361C21.5772 62.603 21.7312 62.79 21.9292 62.922C22.1345 63.054 22.3802 63.12 22.6662 63.12C22.8789 63.12 23.0732 63.087 23.2492 63.021C23.4252 62.9477 23.5755 62.8487 23.7002 62.724C23.8322 62.5993 23.9349 62.449 24.0082 62.273C24.0815 62.097 24.1182 61.9063 24.1182 61.701V58.225H25.2512V64H24.1182V62.79L24.3162 62.658C24.2282 62.9293 24.0779 63.175 23.8652 63.395C23.6599 63.615 23.4142 63.791 23.1282 63.923C22.8422 64.0477 22.5342 64.11 22.2042 64.11ZM26.8403 64V58.225H27.9843V60.04L27.8743 59.6C27.955 59.3213 28.0907 59.0683 28.2813 58.841C28.4793 58.6137 28.703 58.434 28.9523 58.302C29.209 58.17 29.473 58.104 29.7443 58.104C29.869 58.104 29.9863 58.115 30.0963 58.137C30.2137 58.159 30.3053 58.1847 30.3713 58.214L30.0743 59.446C29.9863 59.4093 29.8873 59.38 29.7773 59.358C29.6747 59.3287 29.572 59.314 29.4693 59.314C29.2713 59.314 29.0807 59.3543 28.8973 59.435C28.7213 59.5083 28.5637 59.6147 28.4243 59.754C28.2923 59.886 28.186 60.0437 28.1053 60.227C28.0247 60.403 27.9843 60.5973 27.9843 60.81V64H26.8403ZM34.6459 64V56.3H35.8339V62.856H39.4419V64H34.6459ZM42.952 64.11C42.4753 64.11 42.039 63.978 41.643 63.714C41.2543 63.45 40.9427 63.0907 40.708 62.636C40.4733 62.1813 40.356 61.668 40.356 61.096C40.356 60.5167 40.4733 60.0033 40.708 59.556C40.95 59.1013 41.2727 58.7457 41.676 58.489C42.0867 58.2323 42.545 58.104 43.051 58.104C43.3517 58.104 43.6267 58.148 43.876 58.236C44.1253 58.324 44.3417 58.4487 44.525 58.61C44.7157 58.764 44.8697 58.9437 44.987 59.149C45.1117 59.3543 45.1887 59.5743 45.218 59.809L44.965 59.721V58.225H46.109V64H44.965V62.625L45.229 62.548C45.185 62.746 45.0933 62.9403 44.954 63.131C44.822 63.3143 44.6497 63.4793 44.437 63.626C44.2317 63.7727 44.0007 63.89 43.744 63.978C43.4947 64.066 43.2307 64.11 42.952 64.11ZM43.249 63.065C43.5937 63.065 43.898 62.9807 44.162 62.812C44.426 62.6433 44.6313 62.4123 44.778 62.119C44.932 61.8183 45.009 61.4773 45.009 61.096C45.009 60.722 44.932 60.3883 44.778 60.095C44.6313 59.8017 44.426 59.5707 44.162 59.402C43.898 59.2333 43.5937 59.149 43.249 59.149C42.9117 59.149 42.611 59.2333 42.347 59.402C42.0903 59.5707 41.885 59.8017 41.731 60.095C41.5843 60.3883 41.511 60.722 41.511 61.096C41.511 61.4773 41.5843 61.8183 41.731 62.119C41.885 62.4123 42.0903 62.6433 42.347 62.812C42.611 62.9807 42.9117 63.065 43.249 63.065ZM50.0999 64.11C49.5719 64.11 49.0989 63.9817 48.6809 63.725C48.2703 63.461 47.9439 63.1053 47.7019 62.658C47.4599 62.2033 47.3389 61.6863 47.3389 61.107C47.3389 60.5277 47.4563 60.0143 47.6909 59.567C47.9329 59.1123 48.2593 58.7567 48.6699 58.5C49.0806 58.236 49.5463 58.104 50.0669 58.104C50.3529 58.104 50.6279 58.1517 50.8919 58.247C51.1633 58.335 51.4053 58.4597 51.6179 58.621C51.8306 58.775 51.9956 58.9473 52.1129 59.138C52.2376 59.3213 52.2999 59.5083 52.2999 59.699L51.9699 59.721V55.86H53.1029V64H51.9699V62.625H52.1899C52.1899 62.801 52.1313 62.977 52.0139 63.153C51.8966 63.3217 51.7389 63.4793 51.5409 63.626C51.3503 63.7727 51.1266 63.89 50.8699 63.978C50.6206 64.066 50.3639 64.11 50.0999 64.11ZM50.2539 63.131C50.5986 63.131 50.9029 63.043 51.1669 62.867C51.4309 62.691 51.6363 62.4527 51.7829 62.152C51.9369 61.844 52.0139 61.4957 52.0139 61.107C52.0139 60.7183 51.9369 60.3737 51.7829 60.073C51.6363 59.765 51.4309 59.523 51.1669 59.347C50.9029 59.171 50.5986 59.083 50.2539 59.083C49.9093 59.083 49.6049 59.171 49.3409 59.347C49.0769 59.523 48.8679 59.765 48.7139 60.073C48.5673 60.3737 48.4939 60.7183 48.4939 61.107C48.4939 61.4957 48.5673 61.844 48.7139 62.152C48.8679 62.4527 49.0769 62.691 49.3409 62.867C49.6049 63.043 49.9093 63.131 50.2539 63.131ZM55.6306 66.53L56.7966 63.835L56.8076 64.737L53.9256 58.225H55.2456L57.0496 62.471C57.0863 62.5443 57.1303 62.658 57.1816 62.812C57.2329 62.9587 57.2769 63.1053 57.3136 63.252L57.0276 63.318C57.0863 63.164 57.1413 63.01 57.1926 62.856C57.2513 62.702 57.3063 62.548 57.3576 62.394L58.8646 58.225H60.2066L57.8306 64L56.8516 66.53H55.6306ZM66.7332 64.11C66.1685 64.11 65.6625 63.9817 65.2152 63.725C64.7752 63.461 64.4269 63.1053 64.1702 62.658C63.9135 62.2033 63.7852 61.6863 63.7852 61.107C63.7852 60.5277 63.9135 60.0143 64.1702 59.567C64.4269 59.1123 64.7752 58.7567 65.2152 58.5C65.6625 58.236 66.1685 58.104 66.7332 58.104C67.2905 58.104 67.7892 58.236 68.2292 58.5C68.6765 58.7567 69.0285 59.1123 69.2852 59.567C69.5419 60.0143 69.6702 60.5277 69.6702 61.107C69.6702 61.6863 69.5419 62.2033 69.2852 62.658C69.0285 63.1053 68.6765 63.461 68.2292 63.725C67.7892 63.9817 67.2905 64.11 66.7332 64.11ZM66.7332 63.076C67.0779 63.076 67.3859 62.9917 67.6572 62.823C67.9285 62.647 68.1412 62.4123 68.2952 62.119C68.4492 61.8183 68.5225 61.481 68.5152 61.107C68.5225 60.7257 68.4492 60.3883 68.2952 60.095C68.1412 59.7943 67.9285 59.5597 67.6572 59.391C67.3859 59.2223 67.0779 59.138 66.7332 59.138C66.3885 59.138 66.0769 59.226 65.7982 59.402C65.5269 59.5707 65.3142 59.8053 65.1602 60.106C65.0062 60.3993 64.9329 60.733 64.9402 61.107C64.9329 61.481 65.0062 61.8183 65.1602 62.119C65.3142 62.4123 65.5269 62.647 65.7982 62.823C66.0769 62.9917 66.3885 63.076 66.7332 63.076ZM71.3169 64V57.576C71.3169 57.246 71.3903 56.9527 71.5369 56.696C71.6836 56.4393 71.8853 56.2377 72.1419 56.091C72.3986 55.9443 72.6956 55.871 73.0329 55.871C73.2676 55.871 73.4876 55.915 73.6929 56.003C73.8983 56.091 74.0633 56.2083 74.1879 56.355L73.8029 57.224C73.7076 57.136 73.6013 57.0663 73.4839 57.015C73.3739 56.9563 73.2676 56.927 73.1649 56.927C73.0109 56.927 72.8789 56.9527 72.7689 57.004C72.6663 57.048 72.5893 57.1213 72.5379 57.224C72.4866 57.3193 72.4609 57.4367 72.4609 57.576V64H71.8889C71.7936 64 71.6983 64 71.6029 64C71.5076 64 71.4123 64 71.3169 64ZM70.3929 59.369V58.324H73.8249V59.369H70.3929ZM3.91247 78V70.3H7.04747C7.46547 70.3 7.84314 70.4063 8.18047 70.619C8.52514 70.8243 8.80014 71.1067 9.00547 71.466C9.21081 71.8253 9.31347 72.225 9.31347 72.665C9.31347 73.105 9.21081 73.5047 9.00547 73.864C8.80014 74.2233 8.52514 74.513 8.18047 74.733C7.84314 74.9457 7.46547 75.052 7.04747 75.052H5.10047V78H3.91247ZM5.10047 73.908H7.02547C7.22347 73.908 7.40314 73.853 7.56447 73.743C7.72581 73.6257 7.85414 73.4753 7.94947 73.292C8.05214 73.1013 8.10347 72.8923 8.10347 72.665C8.10347 72.4377 8.05214 72.2323 7.94947 72.049C7.85414 71.8657 7.72581 71.719 7.56447 71.609C7.40314 71.499 7.22347 71.444 7.02547 71.444H5.10047V73.908ZM13.1857 78.11C12.5917 78.11 12.0637 77.9853 11.6017 77.736C11.1471 77.4793 10.7877 77.131 10.5237 76.691C10.2671 76.251 10.1387 75.745 10.1387 75.173C10.1387 74.7183 10.2121 74.304 10.3587 73.93C10.5054 73.556 10.7071 73.2333 10.9637 72.962C11.2277 72.6833 11.5394 72.4707 11.8987 72.324C12.2654 72.17 12.6614 72.093 13.0867 72.093C13.4607 72.093 13.8091 72.1663 14.1317 72.313C14.4544 72.4523 14.7331 72.6467 14.9677 72.896C15.2097 73.1453 15.3931 73.4423 15.5177 73.787C15.6497 74.1243 15.7121 74.4947 15.7047 74.898L15.6937 75.382H10.9747L10.7217 74.48H14.7147L14.5497 74.667V74.403C14.5277 74.161 14.4471 73.9447 14.3077 73.754C14.1684 73.5633 13.9924 73.413 13.7797 73.303C13.5671 73.193 13.3361 73.138 13.0867 73.138C12.6907 73.138 12.3571 73.215 12.0857 73.369C11.8144 73.5157 11.6091 73.7357 11.4697 74.029C11.3304 74.315 11.2607 74.6707 11.2607 75.096C11.2607 75.4993 11.3451 75.8513 11.5137 76.152C11.6824 76.4453 11.9207 76.6727 12.2287 76.834C12.5367 76.9953 12.8924 77.076 13.2957 77.076C13.5817 77.076 13.8457 77.0283 14.0877 76.933C14.3371 76.8377 14.6047 76.6653 14.8907 76.416L15.4627 77.219C15.2867 77.395 15.0704 77.549 14.8137 77.681C14.5644 77.813 14.2967 77.9193 14.0107 78C13.7321 78.0733 13.4571 78.11 13.1857 78.11ZM16.936 78V72.225H18.08V74.04L17.97 73.6C18.0507 73.3213 18.1864 73.0683 18.377 72.841C18.575 72.6137 18.7987 72.434 19.048 72.302C19.3047 72.17 19.5687 72.104 19.84 72.104C19.9647 72.104 20.082 72.115 20.192 72.137C20.3094 72.159 20.401 72.1847 20.467 72.214L20.17 73.446C20.082 73.4093 19.983 73.38 19.873 73.358C19.7704 73.3287 19.6677 73.314 19.565 73.314C19.367 73.314 19.1764 73.3543 18.993 73.435C18.817 73.5083 18.6594 73.6147 18.52 73.754C18.388 73.886 18.2817 74.0437 18.201 74.227C18.1204 74.403 18.08 74.5973 18.08 74.81V78H16.936ZM21.3726 80.42V72.225H22.5166V73.545L22.3406 73.446C22.3846 73.226 22.5092 73.017 22.7146 72.819C22.9199 72.6137 23.1692 72.4487 23.4626 72.324C23.7632 72.192 24.0712 72.126 24.3866 72.126C24.9072 72.126 25.3692 72.2543 25.7726 72.511C26.1759 72.7677 26.4949 73.1197 26.7296 73.567C26.9642 74.0143 27.0816 74.5277 27.0816 75.107C27.0816 75.679 26.9642 76.1923 26.7296 76.647C26.5022 77.0943 26.1869 77.45 25.7836 77.714C25.3802 77.9707 24.9256 78.099 24.4196 78.099C24.0822 78.099 23.7559 78.033 23.4406 77.901C23.1252 77.7617 22.8576 77.5857 22.6376 77.373C22.4176 77.1603 22.2819 76.9403 22.2306 76.713L22.5166 76.559V80.42H21.3726ZM24.2326 77.054C24.5699 77.054 24.8706 76.9697 25.1346 76.801C25.3986 76.6323 25.6076 76.4013 25.7616 76.108C25.9156 75.8147 25.9926 75.481 25.9926 75.107C25.9926 74.733 25.9156 74.403 25.7616 74.117C25.6149 73.8237 25.4096 73.5927 25.1456 73.424C24.8816 73.2553 24.5772 73.171 24.2326 73.171C23.8879 73.171 23.5836 73.2553 23.3196 73.424C23.0556 73.5853 22.8466 73.8127 22.6926 74.106C22.5386 74.3993 22.4616 74.733 22.4616 75.107C22.4616 75.481 22.5386 75.8147 22.6926 76.108C22.8466 76.4013 23.0556 76.6323 23.3196 76.801C23.5836 76.9697 23.8879 77.054 24.2326 77.054ZM31.007 78.11C30.413 78.11 29.885 77.9853 29.423 77.736C28.9684 77.4793 28.609 77.131 28.345 76.691C28.0884 76.251 27.96 75.745 27.96 75.173C27.96 74.7183 28.0334 74.304 28.18 73.93C28.3267 73.556 28.5284 73.2333 28.785 72.962C29.049 72.6833 29.3607 72.4707 29.72 72.324C30.0867 72.17 30.4827 72.093 30.908 72.093C31.282 72.093 31.6304 72.1663 31.953 72.313C32.2757 72.4523 32.5544 72.6467 32.789 72.896C33.031 73.1453 33.2144 73.4423 33.339 73.787C33.471 74.1243 33.5334 74.4947 33.526 74.898L33.515 75.382H28.796L28.543 74.48H32.536L32.371 74.667V74.403C32.349 74.161 32.2684 73.9447 32.129 73.754C31.9897 73.5633 31.8137 73.413 31.601 73.303C31.3884 73.193 31.1574 73.138 30.908 73.138C30.512 73.138 30.1784 73.215 29.907 73.369C29.6357 73.5157 29.4304 73.7357 29.291 74.029C29.1517 74.315 29.082 74.6707 29.082 75.096C29.082 75.4993 29.1664 75.8513 29.335 76.152C29.5037 76.4453 29.742 76.6727 30.05 76.834C30.358 76.9953 30.7137 77.076 31.117 77.076C31.403 77.076 31.667 77.0283 31.909 76.933C32.1584 76.8377 32.426 76.6653 32.712 76.416L33.284 77.219C33.108 77.395 32.8917 77.549 32.635 77.681C32.3857 77.813 32.118 77.9193 31.832 78C31.5534 78.0733 31.2784 78.11 31.007 78.11ZM35.4723 78V70.751H36.6053V78H35.4723ZM34.2733 73.325V72.225H37.9473V73.325H34.2733ZM41.003 78.11C40.5923 78.11 40.233 78.0147 39.925 77.824C39.6243 77.6333 39.3897 77.3657 39.221 77.021C39.0597 76.6763 38.979 76.2657 38.979 75.789V72.225H40.112V75.481C40.112 75.8183 40.1633 76.1117 40.266 76.361C40.376 76.603 40.53 76.79 40.728 76.922C40.9333 77.054 41.179 77.12 41.465 77.12C41.6777 77.12 41.872 77.087 42.048 77.021C42.224 76.9477 42.3743 76.8487 42.499 76.724C42.631 76.5993 42.7337 76.449 42.807 76.273C42.8803 76.097 42.917 75.9063 42.917 75.701V72.225H44.05V78H42.917V76.79L43.115 76.658C43.027 76.9293 42.8767 77.175 42.664 77.395C42.4587 77.615 42.213 77.791 41.927 77.923C41.641 78.0477 41.333 78.11 41.003 78.11ZM47.8612 78.11C47.3845 78.11 46.9482 77.978 46.5522 77.714C46.1635 77.45 45.8518 77.0907 45.6172 76.636C45.3825 76.1813 45.2652 75.668 45.2652 75.096C45.2652 74.5167 45.3825 74.0033 45.6172 73.556C45.8592 73.1013 46.1818 72.7457 46.5852 72.489C46.9958 72.2323 47.4542 72.104 47.9602 72.104C48.2608 72.104 48.5358 72.148 48.7852 72.236C49.0345 72.324 49.2508 72.4487 49.4342 72.61C49.6248 72.764 49.7788 72.9437 49.8962 73.149C50.0208 73.3543 50.0978 73.5743 50.1272 73.809L49.8742 73.721V72.225H51.0182V78H49.8742V76.625L50.1382 76.548C50.0942 76.746 50.0025 76.9403 49.8632 77.131C49.7312 77.3143 49.5588 77.4793 49.3462 77.626C49.1408 77.7727 48.9098 77.89 48.6532 77.978C48.4038 78.066 48.1398 78.11 47.8612 78.11ZM48.1582 77.065C48.5028 77.065 48.8072 76.9807 49.0712 76.812C49.3352 76.6433 49.5405 76.4123 49.6872 76.119C49.8412 75.8183 49.9182 75.4773 49.9182 75.096C49.9182 74.722 49.8412 74.3883 49.6872 74.095C49.5405 73.8017 49.3352 73.5707 49.0712 73.402C48.8072 73.2333 48.5028 73.149 48.1582 73.149C47.8208 73.149 47.5202 73.2333 47.2562 73.402C46.9995 73.5707 46.7942 73.8017 46.6402 74.095C46.4935 74.3883 46.4202 74.722 46.4202 75.096C46.4202 75.4773 46.4935 75.8183 46.6402 76.119C46.7942 76.4123 46.9995 76.6433 47.2562 76.812C47.5202 76.9807 47.8208 77.065 48.1582 77.065ZM52.6221 78V69.86H53.7551V78H52.6221ZM63.7569 78V70.3H64.9449V78H63.7569ZM58.7299 78V70.3H59.9179V78H58.7299ZM59.2469 74.733V73.589H64.2849V74.733H59.2469ZM69.507 78.11C68.913 78.11 68.385 77.9853 67.923 77.736C67.4684 77.4793 67.109 77.131 66.845 76.691C66.5884 76.251 66.46 75.745 66.46 75.173C66.46 74.7183 66.5334 74.304 66.68 73.93C66.8267 73.556 67.0284 73.2333 67.285 72.962C67.549 72.6833 67.8607 72.4707 68.22 72.324C68.5867 72.17 68.9827 72.093 69.408 72.093C69.782 72.093 70.1304 72.1663 70.453 72.313C70.7757 72.4523 71.0544 72.6467 71.289 72.896C71.531 73.1453 71.7144 73.4423 71.839 73.787C71.971 74.1243 72.0334 74.4947 72.026 74.898L72.015 75.382H67.296L67.043 74.48H71.036L70.871 74.667V74.403C70.849 74.161 70.7684 73.9447 70.629 73.754C70.4897 73.5633 70.3137 73.413 70.101 73.303C69.8884 73.193 69.6574 73.138 69.408 73.138C69.012 73.138 68.6784 73.215 68.407 73.369C68.1357 73.5157 67.9304 73.7357 67.791 74.029C67.6517 74.315 67.582 74.6707 67.582 75.096C67.582 75.4993 67.6664 75.8513 67.835 76.152C68.0037 76.4453 68.242 76.6727 68.55 76.834C68.858 76.9953 69.2137 77.076 69.617 77.076C69.903 77.076 70.167 77.0283 70.409 76.933C70.6584 76.8377 70.926 76.6653 71.212 76.416L71.784 77.219C71.608 77.395 71.3917 77.549 71.135 77.681C70.8857 77.813 70.618 77.9193 70.332 78C70.0534 78.0733 69.7784 78.11 69.507 78.11ZM73.2793 78V69.86H74.4123V78H73.2793ZM76.0181 80.42V72.225H77.1621V73.545L76.9861 73.446C77.0301 73.226 77.1547 73.017 77.3601 72.819C77.5654 72.6137 77.8147 72.4487 78.1081 72.324C78.4087 72.192 78.7167 72.126 79.0321 72.126C79.5527 72.126 80.0147 72.2543 80.4181 72.511C80.8214 72.7677 81.1404 73.1197 81.3751 73.567C81.6097 74.0143 81.7271 74.5277 81.7271 75.107C81.7271 75.679 81.6097 76.1923 81.3751 76.647C81.1477 77.0943 80.8324 77.45 80.4291 77.714C80.0257 77.9707 79.5711 78.099 79.0651 78.099C78.7277 78.099 78.4014 78.033 78.0861 77.901C77.7707 77.7617 77.5031 77.5857 77.2831 77.373C77.0631 77.1603 76.9274 76.9403 76.8761 76.713L77.1621 76.559V80.42H76.0181ZM78.8781 77.054C79.2154 77.054 79.5161 76.9697 79.7801 76.801C80.0441 76.6323 80.2531 76.4013 80.4071 76.108C80.5611 75.8147 80.6381 75.481 80.6381 75.107C80.6381 74.733 80.5611 74.403 80.4071 74.117C80.2604 73.8237 80.0551 73.5927 79.7911 73.424C79.5271 73.2553 79.2227 73.171 78.8781 73.171C78.5334 73.171 78.2291 73.2553 77.9651 73.424C77.7011 73.5853 77.4921 73.8127 77.3381 74.106C77.1841 74.3993 77.1071 74.733 77.1071 75.107C77.1071 75.481 77.1841 75.8147 77.3381 76.108C77.4921 76.4013 77.7011 76.6323 77.9651 76.801C78.2291 76.9697 78.5334 77.054 78.8781 77.054Z" fill="black"/>
</svg>
