<svg width="80" height="70" viewBox="0 0 80 70" fill="none" xmlns="http://www.w3.org/2000/svg">
<path d="M42.0657 4.5H36.9343C36.5349 4.5 36.2967 4.94507 36.5182 5.27735L37.916 7.37404C37.9708 7.45617 38 7.55268 38 7.65139V9V13C38 13.2761 37.7761 13.5 37.5 13.5H33.5H30.6514C30.5527 13.5 30.4562 13.4708 30.374 13.416L28.2773 12.0182C27.9451 11.7967 27.5 12.0349 27.5 12.4343V17.5657C27.5 17.9651 27.9451 18.2033 28.2774 17.9818L30.374 16.584C30.4562 16.5292 30.5527 16.5 30.6514 16.5H33.5H37.5C37.7761 16.5 38 16.7239 38 17V20.5V36.382C38 36.4596 37.9819 36.5361 37.9472 36.6056L36.8618 38.7764C36.6956 39.1088 36.9373 39.5 37.309 39.5H41.691C42.0627 39.5 42.3044 39.1088 42.1382 38.7764L41.0528 36.6056C41.0181 36.5361 41 36.4596 41 36.382V20.5V17C41 16.7239 41.2239 16.5 41.5 16.5H45.5H48.3486C48.4473 16.5 48.5438 16.5292 48.626 16.584L50.7227 17.9818C51.0549 18.2033 51.5 17.9651 51.5 17.5657V12.4343C51.5 12.0349 51.0549 11.7967 50.7227 12.0182L48.626 13.416C48.5438 13.4708 48.4473 13.5 48.3486 13.5H45.5H41.5C41.2239 13.5 41 13.2761 41 13V9V7.65139C41 7.55268 41.0292 7.45617 41.084 7.37404L42.4818 5.27735C42.7033 4.94507 42.4651 4.5 42.0657 4.5Z" fill="#4F4533"/>
<path d="M38 9V13C38 13.2761 37.7761 13.5 37.5 13.5H33.5M38 9V7.65139C38 7.55268 37.9708 7.45617 37.916 7.37404L36.5182 5.27735C36.2967 4.94507 36.5349 4.5 36.9343 4.5H42.0657C42.4651 4.5 42.7033 4.94507 42.4818 5.27735L41.084 7.37404C41.0292 7.45617 41 7.55268 41 7.65139V9M38 9C35.5 9 33.5 11 33.5 13.5M33.5 13.5H30.6514C30.5527 13.5 30.4562 13.4708 30.374 13.416L28.2773 12.0182C27.9451 11.7967 27.5 12.0349 27.5 12.4343V17.5657C27.5 17.9651 27.9451 18.2033 28.2774 17.9818L30.374 16.584C30.4562 16.5292 30.5527 16.5 30.6514 16.5H33.5M41 9V13C41 13.2761 41.2239 13.5 41.5 13.5H45.5M41 9C43.5 9 45.5 11 45.5 13.5M45.5 13.5H48.3486C48.4473 13.5 48.5438 13.4708 48.626 13.416L50.7227 12.0182C51.0549 11.7967 51.5 12.0349 51.5 12.4343V17.5657C51.5 17.9651 51.0549 18.2033 50.7226 17.9818L48.626 16.584C48.5438 16.5292 48.4473 16.5 48.3486 16.5H45.5M45.5 16.5H41.5C41.2239 16.5 41 16.7239 41 17V20.5M45.5 16.5C45.5 19 43.5 20.5 41 20.5M41 20.5V36.382C41 36.4596 41.0181 36.5361 41.0528 36.6056L42.1382 38.7764C42.3044 39.1088 42.0627 39.5 41.691 39.5H37.309C36.9373 39.5 36.6956 39.1088 36.8618 38.7764L37.9472 36.6056C37.9819 36.5361 38 36.4596 38 36.382V20.5M38 20.5V17C38 16.7239 37.7761 16.5 37.5 16.5H33.5M38 20.5C35.5 20.5 33.5 19 33.5 16.5" stroke="black"/>
<path d="M22.9477 46.745L22.4637 45.172L26.2807 41.3H28.4917L22.9477 46.745ZM21.5837 49V41.3H23.4537V49H21.5837ZM26.5227 49L23.6627 45.238L24.9277 44.149L28.7007 49H26.5227ZM31.8174 49.11C31.1721 49.11 30.6111 48.9817 30.1344 48.725C29.6578 48.461 29.2874 48.1053 29.0234 47.658C28.7594 47.2033 28.6274 46.6863 28.6274 46.107C28.6274 45.6597 28.7008 45.249 28.8474 44.875C28.9941 44.501 29.1994 44.1783 29.4634 43.907C29.7274 43.6283 30.0391 43.4157 30.3984 43.269C30.7651 43.115 31.1648 43.038 31.5974 43.038C32.0081 43.038 32.3821 43.1113 32.7194 43.258C33.0641 43.4047 33.3611 43.61 33.6104 43.874C33.8598 44.138 34.0504 44.4497 34.1824 44.809C34.3144 45.1683 34.3731 45.5607 34.3584 45.986L34.3474 46.459H29.6944L29.4414 45.469H32.9174L32.7304 45.678V45.458C32.7158 45.2747 32.6571 45.1133 32.5544 44.974C32.4591 44.8273 32.3308 44.7137 32.1694 44.633C32.0081 44.5523 31.8248 44.512 31.6194 44.512C31.3334 44.512 31.0878 44.5707 30.8824 44.688C30.6844 44.798 30.5341 44.963 30.4314 45.183C30.3288 45.3957 30.2774 45.6597 30.2774 45.975C30.2774 46.2977 30.3434 46.58 30.4754 46.822C30.6148 47.0567 30.8128 47.24 31.0694 47.372C31.3334 47.504 31.6451 47.57 32.0044 47.57C32.2538 47.57 32.4738 47.5333 32.6644 47.46C32.8624 47.3867 33.0751 47.262 33.3024 47.086L34.1274 48.252C33.9001 48.45 33.6581 48.6113 33.4014 48.736C33.1448 48.8607 32.8808 48.9523 32.6094 49.011C32.3454 49.077 32.0814 49.11 31.8174 49.11ZM37.6357 49.099C37.1444 49.099 36.7044 48.9707 36.3157 48.714C35.9344 48.45 35.6301 48.0907 35.4027 47.636C35.1754 47.174 35.0617 46.6533 35.0617 46.074C35.0617 45.48 35.1754 44.9557 35.4027 44.501C35.6301 44.0463 35.9417 43.6907 36.3377 43.434C36.7337 43.17 37.1847 43.038 37.6907 43.038C37.9694 43.038 38.2224 43.0783 38.4497 43.159C38.6844 43.2397 38.8897 43.3533 39.0657 43.5C39.2417 43.6393 39.3921 43.8043 39.5167 43.995C39.6414 44.1783 39.7331 44.3763 39.7917 44.589L39.4287 44.545V43.159H41.1777V49H39.3957V47.592L39.7917 47.581C39.7331 47.7863 39.6377 47.9807 39.5057 48.164C39.3737 48.3473 39.2124 48.5087 39.0217 48.648C38.8311 48.7873 38.6184 48.8973 38.3837 48.978C38.1491 49.0587 37.8997 49.099 37.6357 49.099ZM38.1197 47.614C38.3911 47.614 38.6257 47.5517 38.8237 47.427C39.0217 47.3023 39.1757 47.1263 39.2857 46.899C39.3957 46.6643 39.4507 46.3893 39.4507 46.074C39.4507 45.7587 39.3957 45.4873 39.2857 45.26C39.1757 45.0253 39.0217 44.8457 38.8237 44.721C38.6257 44.589 38.3911 44.523 38.1197 44.523C37.8557 44.523 37.6247 44.589 37.4267 44.721C37.2361 44.8457 37.0857 45.0253 36.9757 45.26C36.8657 45.4873 36.8107 45.7587 36.8107 46.074C36.8107 46.3893 36.8657 46.6643 36.9757 46.899C37.0857 47.1263 37.2361 47.3023 37.4267 47.427C37.6247 47.5517 37.8557 47.614 38.1197 47.614ZM42.7307 49V43.159H44.4027L44.4797 45.062L44.1497 44.699C44.2377 44.3837 44.3807 44.1013 44.5787 43.852C44.784 43.6027 45.0224 43.4047 45.2937 43.258C45.565 43.1113 45.8547 43.038 46.1627 43.038C46.2947 43.038 46.4157 43.049 46.5257 43.071C46.643 43.093 46.7494 43.1187 46.8447 43.148L46.3607 45.095C46.28 45.0437 46.17 45.0033 46.0307 44.974C45.8987 44.9373 45.7594 44.919 45.6127 44.919C45.4514 44.919 45.301 44.9483 45.1617 45.007C45.0224 45.0583 44.905 45.1353 44.8097 45.238C44.7144 45.3407 44.6374 45.4617 44.5787 45.601C44.5274 45.7403 44.5017 45.898 44.5017 46.074V49H42.7307ZM47.7366 49V43.159H49.4086L49.4636 44.347L49.1116 44.479C49.1922 44.215 49.3352 43.9767 49.5406 43.764C49.7532 43.544 50.0062 43.368 50.2996 43.236C50.5929 43.104 50.9009 43.038 51.2236 43.038C51.6636 43.038 52.0339 43.1297 52.3346 43.313C52.6352 43.489 52.8626 43.7567 53.0166 44.116C53.1706 44.468 53.2476 44.9007 53.2476 45.414V49H51.4766V45.557C51.4766 45.3223 51.4436 45.128 51.3776 44.974C51.3116 44.82 51.2089 44.7063 51.0696 44.633C50.9376 44.5523 50.7726 44.5157 50.5746 44.523C50.4206 44.523 50.2776 44.5487 50.1456 44.6C50.0136 44.644 49.8999 44.7137 49.8046 44.809C49.7092 44.897 49.6322 44.9997 49.5736 45.117C49.5222 45.2343 49.4966 45.3627 49.4966 45.502V49H48.6276C48.4222 49 48.2462 49 48.0996 49C47.9529 49 47.8319 49 47.7366 49ZM56.688 49.11C56.116 49.11 55.61 49.0183 55.17 48.835C54.7373 48.6517 54.3927 48.406 54.136 48.098L55.203 47.174C55.4303 47.4013 55.687 47.57 55.973 47.68C56.259 47.7827 56.5303 47.834 56.787 47.834C56.8897 47.834 56.9813 47.823 57.062 47.801C57.1427 47.779 57.2087 47.7497 57.26 47.713C57.3187 47.669 57.3627 47.6213 57.392 47.57C57.4213 47.5113 57.436 47.4453 57.436 47.372C57.436 47.2253 57.37 47.1117 57.238 47.031C57.172 46.9943 57.062 46.9503 56.908 46.899C56.754 46.8477 56.556 46.789 56.314 46.723C55.9693 46.635 55.6687 46.5323 55.412 46.415C55.1627 46.2903 54.9573 46.1473 54.796 45.986C54.6493 45.832 54.5357 45.6633 54.455 45.48C54.3743 45.2893 54.334 45.0767 54.334 44.842C54.334 44.5707 54.3963 44.325 54.521 44.105C54.653 43.885 54.8253 43.6943 55.038 43.533C55.258 43.3717 55.5073 43.2507 55.786 43.17C56.072 43.082 56.3653 43.038 56.666 43.038C56.9887 43.038 57.2967 43.0747 57.59 43.148C57.8833 43.2213 58.1547 43.324 58.404 43.456C58.6607 43.588 58.888 43.7457 59.086 43.929L58.162 44.963C58.03 44.8383 57.8797 44.7283 57.711 44.633C57.5497 44.5303 57.381 44.4497 57.205 44.391C57.029 44.3323 56.8677 44.303 56.721 44.303C56.611 44.303 56.512 44.314 56.424 44.336C56.3433 44.3507 56.2737 44.38 56.215 44.424C56.1563 44.4607 56.1123 44.5083 56.083 44.567C56.0537 44.6183 56.039 44.6807 56.039 44.754C56.039 44.8273 56.0573 44.897 56.094 44.963C56.138 45.029 56.1967 45.084 56.27 45.128C56.3433 45.172 56.4607 45.2233 56.622 45.282C56.7833 45.3333 57.0033 45.3993 57.282 45.48C57.6267 45.5753 57.9237 45.6817 58.173 45.799C58.4223 45.9163 58.6203 46.0557 58.767 46.217C58.8843 46.3417 58.9723 46.4883 59.031 46.657C59.0897 46.8183 59.119 46.9943 59.119 47.185C59.119 47.559 59.0127 47.8927 58.8 48.186C58.5947 48.472 58.3087 48.6993 57.942 48.868C57.5753 49.0293 57.1573 49.11 56.688 49.11ZM3.15808 63V55.3H4.34608V63H3.15808ZM3.68608 59.722V58.578H7.65708V59.722H3.68608ZM3.68608 56.444V55.3H8.15208V56.444H3.68608ZM9.39259 63V57.225H10.5366V59.04L10.4266 58.6C10.5073 58.3213 10.6429 58.0683 10.8336 57.841C11.0316 57.6137 11.2553 57.434 11.5046 57.302C11.7613 57.17 12.0253 57.104 12.2966 57.104C12.4213 57.104 12.5386 57.115 12.6486 57.137C12.7659 57.159 12.8576 57.1847 12.9236 57.214L12.6266 58.446C12.5386 58.4093 12.4396 58.38 12.3296 58.358C12.2269 58.3287 12.1243 58.314 12.0216 58.314C11.8236 58.314 11.6329 58.3543 11.4496 58.435C11.2736 58.5083 11.1159 58.6147 10.9766 58.754C10.8446 58.886 10.7383 59.0437 10.6576 59.227C10.5769 59.403 10.5366 59.5973 10.5366 59.81V63H9.39259ZM15.804 63.11C15.3274 63.11 14.891 62.978 14.495 62.714C14.1064 62.45 13.7947 62.0907 13.56 61.636C13.3254 61.1813 13.208 60.668 13.208 60.096C13.208 59.5167 13.3254 59.0033 13.56 58.556C13.802 58.1013 14.1247 57.7457 14.528 57.489C14.9387 57.2323 15.397 57.104 15.903 57.104C16.2037 57.104 16.4787 57.148 16.728 57.236C16.9774 57.324 17.1937 57.4487 17.377 57.61C17.5677 57.764 17.7217 57.9437 17.839 58.149C17.9637 58.3543 18.0407 58.5743 18.07 58.809L17.817 58.721V57.225H18.961V63H17.817V61.625L18.081 61.548C18.037 61.746 17.9454 61.9403 17.806 62.131C17.674 62.3143 17.5017 62.4793 17.289 62.626C17.0837 62.7727 16.8527 62.89 16.596 62.978C16.3467 63.066 16.0827 63.11 15.804 63.11ZM16.101 62.065C16.4457 62.065 16.75 61.9807 17.014 61.812C17.278 61.6433 17.4834 61.4123 17.63 61.119C17.784 60.8183 17.861 60.4773 17.861 60.096C17.861 59.722 17.784 59.3883 17.63 59.095C17.4834 58.8017 17.278 58.5707 17.014 58.402C16.75 58.2333 16.4457 58.149 16.101 58.149C15.7637 58.149 15.463 58.2333 15.199 58.402C14.9424 58.5707 14.737 58.8017 14.583 59.095C14.4364 59.3883 14.363 59.722 14.363 60.096C14.363 60.4773 14.4364 60.8183 14.583 61.119C14.737 61.4123 14.9424 61.6433 15.199 61.812C15.463 61.9807 15.7637 62.065 16.101 62.065ZM20.543 63V57.225H21.676V58.413L21.478 58.545C21.5513 58.2883 21.6943 58.0537 21.907 57.841C22.1196 57.621 22.3726 57.445 22.666 57.313C22.9593 57.1737 23.26 57.104 23.568 57.104C24.008 57.104 24.3746 57.192 24.668 57.368C24.9613 57.5367 25.1813 57.797 25.328 58.149C25.4746 58.501 25.548 58.9447 25.548 59.48V63H24.415V59.557C24.415 59.227 24.371 58.9557 24.283 58.743C24.195 58.523 24.0593 58.3653 23.876 58.27C23.6926 58.1673 23.4653 58.1233 23.194 58.138C22.974 58.138 22.7723 58.1747 22.589 58.248C22.4056 58.314 22.2443 58.4093 22.105 58.534C21.973 58.6587 21.8666 58.8053 21.786 58.974C21.7126 59.1353 21.676 59.3113 21.676 59.502V63H21.115C21.0196 63 20.9243 63 20.829 63C20.7336 63 20.6383 63 20.543 63ZM29.538 63.11C29.0026 63.11 28.5223 62.978 28.097 62.714C27.679 62.45 27.3453 62.0907 27.096 61.636C26.854 61.1813 26.733 60.6717 26.733 60.107C26.733 59.5423 26.854 59.0327 27.096 58.578C27.3453 58.1233 27.679 57.764 28.097 57.5C28.5223 57.236 29.0026 57.104 29.538 57.104C30.0513 57.104 30.517 57.2103 30.935 57.423C31.3603 57.6283 31.683 57.9107 31.903 58.27L31.276 59.04C31.1586 58.8713 31.0083 58.7173 30.825 58.578C30.6416 58.4387 30.4473 58.3287 30.242 58.248C30.0366 58.1673 29.8386 58.127 29.648 58.127C29.296 58.127 28.9806 58.215 28.702 58.391C28.4306 58.5597 28.2143 58.7943 28.053 59.095C27.8916 59.3957 27.811 59.733 27.811 60.107C27.811 60.481 27.8953 60.8183 28.064 61.119C28.2326 61.4123 28.4563 61.647 28.735 61.823C29.0136 61.999 29.3216 62.087 29.659 62.087C29.857 62.087 30.0476 62.054 30.231 61.988C30.4216 61.922 30.605 61.823 30.781 61.691C30.957 61.559 31.122 61.3977 31.276 61.207L31.903 61.977C31.6683 62.307 31.331 62.5783 30.891 62.791C30.4583 63.0037 30.0073 63.11 29.538 63.11ZM33.1587 63V57.225H34.2917V63H33.1587ZM33.7087 55.949C33.4667 55.949 33.2797 55.8867 33.1477 55.762C33.0157 55.6373 32.9497 55.4613 32.9497 55.234C32.9497 55.0213 33.0157 54.849 33.1477 54.717C33.287 54.585 33.474 54.519 33.7087 54.519C33.9507 54.519 34.1377 54.5813 34.2697 54.706C34.4017 54.8307 34.4677 55.0067 34.4677 55.234C34.4677 55.4467 34.398 55.619 34.2587 55.751C34.1267 55.883 33.9434 55.949 33.7087 55.949ZM37.9582 63.11C37.4742 63.11 37.0379 63.0257 36.6492 62.857C36.2605 62.6883 35.9379 62.439 35.6812 62.109L36.4512 61.449C36.6712 61.7057 36.9095 61.8927 37.1662 62.01C37.4302 62.12 37.7272 62.175 38.0572 62.175C38.1892 62.175 38.3102 62.1603 38.4202 62.131C38.5375 62.0943 38.6365 62.043 38.7172 61.977C38.8052 61.911 38.8712 61.834 38.9152 61.746C38.9592 61.6507 38.9812 61.548 38.9812 61.438C38.9812 61.2473 38.9115 61.0933 38.7722 60.976C38.6989 60.9247 38.5815 60.8697 38.4202 60.811C38.2662 60.745 38.0645 60.679 37.8152 60.613C37.3899 60.503 37.0415 60.3783 36.7702 60.239C36.4989 60.0997 36.2899 59.942 36.1432 59.766C36.0332 59.6267 35.9525 59.4763 35.9012 59.315C35.8499 59.1463 35.8242 58.963 35.8242 58.765C35.8242 58.523 35.8755 58.303 35.9782 58.105C36.0882 57.8997 36.2349 57.7237 36.4182 57.577C36.6089 57.423 36.8289 57.3057 37.0782 57.225C37.3349 57.1443 37.6062 57.104 37.8922 57.104C38.1635 57.104 38.4312 57.1407 38.6952 57.214C38.9665 57.2873 39.2159 57.3937 39.4432 57.533C39.6705 57.6723 39.8612 57.8373 40.0152 58.028L39.3662 58.743C39.2269 58.6037 39.0729 58.4827 38.9042 58.38C38.7429 58.27 38.5779 58.1857 38.4092 58.127C38.2405 58.0683 38.0865 58.039 37.9472 58.039C37.7932 58.039 37.6539 58.0537 37.5292 58.083C37.4045 58.1123 37.2982 58.1563 37.2102 58.215C37.1295 58.2737 37.0672 58.347 37.0232 58.435C36.9792 58.523 36.9572 58.622 36.9572 58.732C36.9645 58.8273 36.9865 58.919 37.0232 59.007C37.0672 59.0877 37.1259 59.1573 37.1992 59.216C37.2799 59.2747 37.4009 59.337 37.5622 59.403C37.7235 59.469 37.9289 59.5313 38.1782 59.59C38.5449 59.6853 38.8455 59.7917 39.0802 59.909C39.3222 60.019 39.5129 60.1473 39.6522 60.294C39.7989 60.4333 39.9015 60.5947 39.9602 60.778C40.0189 60.9613 40.0482 61.1667 40.0482 61.394C40.0482 61.724 39.9529 62.021 39.7622 62.285C39.5789 62.5417 39.3295 62.7433 39.0142 62.89C38.6989 63.0367 38.3469 63.11 37.9582 63.11ZM49.3519 63L46.9649 59.546L43.9069 55.3H45.4139L47.7459 58.71L50.8589 63H49.3519ZM43.8519 63L46.7889 58.809L47.5259 59.678L45.2489 63H43.8519ZM47.9219 59.425L47.1959 58.589L49.3519 55.3H50.7489L47.9219 59.425ZM53.8529 63.11C53.3762 63.11 52.9399 62.978 52.5439 62.714C52.1552 62.45 51.8435 62.0907 51.6089 61.636C51.3742 61.1813 51.2569 60.668 51.2569 60.096C51.2569 59.5167 51.3742 59.0033 51.6089 58.556C51.8509 58.1013 52.1735 57.7457 52.5769 57.489C52.9875 57.2323 53.4459 57.104 53.9519 57.104C54.2525 57.104 54.5275 57.148 54.7769 57.236C55.0262 57.324 55.2425 57.4487 55.4259 57.61C55.6165 57.764 55.7705 57.9437 55.8879 58.149C56.0125 58.3543 56.0895 58.5743 56.1189 58.809L55.8659 58.721V57.225H57.0099V63H55.8659V61.625L56.1299 61.548C56.0859 61.746 55.9942 61.9403 55.8549 62.131C55.7229 62.3143 55.5505 62.4793 55.3379 62.626C55.1325 62.7727 54.9015 62.89 54.6449 62.978C54.3955 63.066 54.1315 63.11 53.8529 63.11ZM54.1499 62.065C54.4945 62.065 54.7989 61.9807 55.0629 61.812C55.3269 61.6433 55.5322 61.4123 55.6789 61.119C55.8329 60.8183 55.9099 60.4773 55.9099 60.096C55.9099 59.722 55.8329 59.3883 55.6789 59.095C55.5322 58.8017 55.3269 58.5707 55.0629 58.402C54.7989 58.2333 54.4945 58.149 54.1499 58.149C53.8125 58.149 53.5119 58.2333 53.2479 58.402C52.9912 58.5707 52.7859 58.8017 52.6319 59.095C52.4852 59.3883 52.4119 59.722 52.4119 60.096C52.4119 60.4773 52.4852 60.8183 52.6319 61.119C52.7859 61.4123 52.9912 61.6433 53.2479 61.812C53.5119 61.9807 53.8125 62.065 54.1499 62.065ZM60.3549 63L57.9129 57.225H59.1339L60.8939 61.548L60.6849 61.647L62.5659 57.225H63.7319L61.1689 63H60.3549ZM64.9556 63V57.225H66.0886V63H64.9556ZM65.5056 55.949C65.2636 55.949 65.0766 55.8867 64.9446 55.762C64.8126 55.6373 64.7466 55.4613 64.7466 55.234C64.7466 55.0213 64.8126 54.849 64.9446 54.717C65.0839 54.585 65.2709 54.519 65.5056 54.519C65.7476 54.519 65.9346 54.5813 66.0666 54.706C66.1986 54.8307 66.2646 55.0067 66.2646 55.234C66.2646 55.4467 66.1949 55.619 66.0556 55.751C65.9236 55.883 65.7402 55.949 65.5056 55.949ZM70.5251 63.11C69.9311 63.11 69.4031 62.9853 68.9411 62.736C68.4864 62.4793 68.1271 62.131 67.8631 61.691C67.6064 61.251 67.4781 60.745 67.4781 60.173C67.4781 59.7183 67.5514 59.304 67.6981 58.93C67.8448 58.556 68.0464 58.2333 68.3031 57.962C68.5671 57.6833 68.8788 57.4707 69.2381 57.324C69.6048 57.17 70.0008 57.093 70.4261 57.093C70.8001 57.093 71.1484 57.1663 71.4711 57.313C71.7938 57.4523 72.0724 57.6467 72.3071 57.896C72.5491 58.1453 72.7324 58.4423 72.8571 58.787C72.9891 59.1243 73.0514 59.4947 73.0441 59.898L73.0331 60.382H68.3141L68.0611 59.48H72.0541L71.8891 59.667V59.403C71.8671 59.161 71.7864 58.9447 71.6471 58.754C71.5078 58.5633 71.3318 58.413 71.1191 58.303C70.9064 58.193 70.6754 58.138 70.4261 58.138C70.0301 58.138 69.6964 58.215 69.4251 58.369C69.1538 58.5157 68.9484 58.7357 68.8091 59.029C68.6698 59.315 68.6001 59.6707 68.6001 60.096C68.6001 60.4993 68.6844 60.8513 68.8531 61.152C69.0218 61.4453 69.2601 61.6727 69.5681 61.834C69.8761 61.9953 70.2318 62.076 70.6351 62.076C70.9211 62.076 71.1851 62.0283 71.4271 61.933C71.6764 61.8377 71.9441 61.6653 72.2301 61.416L72.8021 62.219C72.6261 62.395 72.4098 62.549 72.1531 62.681C71.9038 62.813 71.6361 62.9193 71.3501 63C71.0714 63.0733 70.7964 63.11 70.5251 63.11ZM74.2754 63V57.225H75.4194V59.04L75.3094 58.6C75.3901 58.3213 75.5257 58.0683 75.7164 57.841C75.9144 57.6137 76.1381 57.434 76.3874 57.302C76.6441 57.17 76.9081 57.104 77.1794 57.104C77.3041 57.104 77.4214 57.115 77.5314 57.137C77.6487 57.159 77.7404 57.1847 77.8064 57.214L77.5094 58.446C77.4214 58.4093 77.3224 58.38 77.2124 58.358C77.1097 58.3287 77.0071 58.314 76.9044 58.314C76.7064 58.314 76.5157 58.3543 76.3324 58.435C76.1564 58.5083 75.9987 58.6147 75.8594 58.754C75.7274 58.886 75.6211 59.0437 75.5404 59.227C75.4597 59.403 75.4194 59.5973 75.4194 59.81V63H74.2754Z" fill="black"/>
</svg>
