<svg width="66" height="82" viewBox="0 0 66 82" fill="none" xmlns="http://www.w3.org/2000/svg">
<path d="M34.0657 4.5H28.9343C28.5349 4.5 28.2967 4.94507 28.5182 5.27735L29.916 7.37404C29.9708 7.45617 30 7.55268 30 7.65139V9V13C30 13.2761 29.7761 13.5 29.5 13.5H25.5H22.6514C22.5527 13.5 22.4562 13.4708 22.374 13.416L20.2773 12.0182C19.9451 11.7967 19.5 12.0349 19.5 12.4343V17.5657C19.5 17.9651 19.9451 18.2033 20.2774 17.9818L22.374 16.584C22.4562 16.5292 22.5527 16.5 22.6514 16.5H25.5H29.5C29.7761 16.5 30 16.7239 30 17V20.5V36.382C30 36.4596 29.9819 36.5361 29.9472 36.6056L28.8618 38.7764C28.6956 39.1088 28.9373 39.5 29.309 39.5H33.691C34.0627 39.5 34.3044 39.1088 34.1382 38.7764L33.0528 36.6056C33.0181 36.5361 33 36.4596 33 36.382V20.5V17C33 16.7239 33.2239 16.5 33.5 16.5H37.5H40.3486C40.4473 16.5 40.5438 16.5292 40.626 16.584L42.7227 17.9818C43.0549 18.2033 43.5 17.9651 43.5 17.5657V12.4343C43.5 12.0349 43.0549 11.7967 42.7227 12.0182L40.626 13.416C40.5438 13.4708 40.4473 13.5 40.3486 13.5H37.5H33.5C33.2239 13.5 33 13.2761 33 13V9V7.65139C33 7.55268 33.0292 7.45617 33.084 7.37404L34.4818 5.27735C34.7033 4.94507 34.4651 4.5 34.0657 4.5Z" fill="#4F4533"/>
<path d="M30 9V13C30 13.2761 29.7761 13.5 29.5 13.5H25.5M30 9V7.65139C30 7.55268 29.9708 7.45617 29.916 7.37404L28.5182 5.27735C28.2967 4.94507 28.5349 4.5 28.9343 4.5H34.0657C34.4651 4.5 34.7033 4.94507 34.4818 5.27735L33.084 7.37404C33.0292 7.45617 33 7.55268 33 7.65139V9M30 9C27.5 9 25.5 11 25.5 13.5M25.5 13.5H22.6514C22.5527 13.5 22.4562 13.4708 22.374 13.416L20.2773 12.0182C19.9451 11.7967 19.5 12.0349 19.5 12.4343V17.5657C19.5 17.9651 19.9451 18.2033 20.2774 17.9818L22.374 16.584C22.4562 16.5292 22.5527 16.5 22.6514 16.5H25.5M33 9V13C33 13.2761 33.2239 13.5 33.5 13.5H37.5M33 9C35.5 9 37.5 11 37.5 13.5M37.5 13.5H40.3486C40.4473 13.5 40.5438 13.4708 40.626 13.416L42.7227 12.0182C43.0549 11.7967 43.5 12.0349 43.5 12.4343V17.5657C43.5 17.9651 43.0549 18.2033 42.7226 17.9818L40.626 16.584C40.5438 16.5292 40.4473 16.5 40.3486 16.5H37.5M37.5 16.5H33.5C33.2239 16.5 33 16.7239 33 17V20.5M37.5 16.5C37.5 19 35.5 20.5 33 20.5M33 20.5V36.382C33 36.4596 33.0181 36.5361 33.0528 36.6056L34.1382 38.7764C34.3044 39.1088 34.0627 39.5 33.691 39.5H29.309C28.9373 39.5 28.6956 39.1088 28.8618 38.7764L29.9472 36.6056C29.9819 36.5361 30 36.4596 30 36.382V20.5M30 20.5V17C30 16.7239 29.7761 16.5 29.5 16.5H25.5M30 20.5C27.5 20.5 25.5 19 25.5 16.5" stroke="black"/>
<path d="M13.718 50V42.3H15.39L18.195 46.865L16.996 46.854L19.834 42.3H21.44V50H19.625V47.602C19.625 46.942 19.6397 46.348 19.669 45.82C19.7057 45.292 19.7643 44.7677 19.845 44.247L20.054 44.819L17.92 48.13H17.194L15.104 44.841L15.313 44.247C15.3937 44.7383 15.4487 45.2443 15.478 45.765C15.5147 46.2783 15.533 46.8907 15.533 47.602V50H13.718ZM25.3442 50.099C24.8529 50.099 24.4129 49.9707 24.0242 49.714C23.6429 49.45 23.3386 49.0907 23.1112 48.636C22.8839 48.174 22.7702 47.6533 22.7702 47.074C22.7702 46.48 22.8839 45.9557 23.1112 45.501C23.3386 45.0463 23.6502 44.6907 24.0462 44.434C24.4422 44.17 24.8932 44.038 25.3992 44.038C25.6779 44.038 25.9309 44.0783 26.1582 44.159C26.3929 44.2397 26.5982 44.3533 26.7742 44.5C26.9502 44.6393 27.1006 44.8043 27.2252 44.995C27.3499 45.1783 27.4416 45.3763 27.5002 45.589L27.1372 45.545V44.159H28.8862V50H27.1042V48.592L27.5002 48.581C27.4416 48.7863 27.3462 48.9807 27.2142 49.164C27.0822 49.3473 26.9209 49.5087 26.7302 49.648C26.5396 49.7873 26.3269 49.8973 26.0922 49.978C25.8576 50.0587 25.6082 50.099 25.3442 50.099ZM25.8282 48.614C26.0996 48.614 26.3342 48.5517 26.5322 48.427C26.7302 48.3023 26.8842 48.1263 26.9942 47.899C27.1042 47.6643 27.1592 47.3893 27.1592 47.074C27.1592 46.7587 27.1042 46.4873 26.9942 46.26C26.8842 46.0253 26.7302 45.8457 26.5322 45.721C26.3342 45.589 26.0996 45.523 25.8282 45.523C25.5642 45.523 25.3332 45.589 25.1352 45.721C24.9446 45.8457 24.7942 46.0253 24.6842 46.26C24.5742 46.4873 24.5192 46.7587 24.5192 47.074C24.5192 47.3893 24.5742 47.6643 24.6842 47.899C24.7942 48.1263 24.9446 48.3023 25.1352 48.427C25.3332 48.5517 25.5642 48.614 25.8282 48.614ZM33.1122 52.53C32.6355 52.53 32.1589 52.4603 31.6822 52.321C31.2129 52.1817 30.8315 52.002 30.5382 51.782L31.1542 50.55C31.3082 50.6527 31.4769 50.7407 31.6602 50.814C31.8509 50.8947 32.0489 50.957 32.2542 51.001C32.4595 51.045 32.6685 51.067 32.8812 51.067C33.2552 51.067 33.5595 51.012 33.7942 50.902C34.0289 50.792 34.2049 50.6233 34.3222 50.396C34.4395 50.176 34.4982 49.8973 34.4982 49.56V48.581L34.8392 48.636C34.7879 48.878 34.6595 49.098 34.4542 49.296C34.2562 49.494 34.0105 49.6553 33.7172 49.78C33.4239 49.8973 33.1122 49.956 32.7822 49.956C32.2542 49.956 31.7812 49.835 31.3632 49.593C30.9525 49.3437 30.6262 49.0027 30.3842 48.57C30.1495 48.13 30.0322 47.624 30.0322 47.052C30.0322 46.4653 30.1495 45.9483 30.3842 45.501C30.6189 45.0463 30.9415 44.6907 31.3522 44.434C31.7629 44.17 32.2249 44.038 32.7382 44.038C32.9582 44.038 33.1672 44.0637 33.3652 44.115C33.5705 44.1663 33.7575 44.236 33.9262 44.324C34.1022 44.4047 34.2562 44.5037 34.3882 44.621C34.5275 44.731 34.6375 44.852 34.7182 44.984C34.8062 45.116 34.8649 45.2517 34.8942 45.391L34.5312 45.479L34.5972 44.159H36.2692V49.527C36.2692 50.0037 36.1959 50.4253 36.0492 50.792C35.9099 51.166 35.7009 51.4813 35.4222 51.738C35.1509 52.002 34.8209 52.2 34.4322 52.332C34.0435 52.464 33.6035 52.53 33.1122 52.53ZM33.1562 48.592C33.4422 48.592 33.6879 48.5297 33.8932 48.405C34.1059 48.273 34.2672 48.0933 34.3772 47.866C34.4945 47.6387 34.5532 47.371 34.5532 47.063C34.5532 46.755 34.4945 46.4873 34.3772 46.26C34.2672 46.0253 34.1059 45.8457 33.8932 45.721C33.6879 45.589 33.4422 45.523 33.1562 45.523C32.8775 45.523 32.6355 45.589 32.4302 45.721C32.2249 45.8457 32.0635 46.0253 31.9462 46.26C31.8362 46.4873 31.7812 46.755 31.7812 47.063C31.7812 47.371 31.8362 47.6387 31.9462 47.866C32.0635 48.0933 32.2249 48.273 32.4302 48.405C32.6355 48.5297 32.8775 48.592 33.1562 48.592ZM37.7976 50V44.159H39.4696L39.5246 45.347L39.1726 45.479C39.2533 45.215 39.3963 44.9767 39.6016 44.764C39.8143 44.544 40.0673 44.368 40.3606 44.236C40.6539 44.104 40.9619 44.038 41.2846 44.038C41.7246 44.038 42.0949 44.1297 42.3956 44.313C42.6963 44.489 42.9236 44.7567 43.0776 45.116C43.2316 45.468 43.3086 45.9007 43.3086 46.414V50H41.5376V46.557C41.5376 46.3223 41.5046 46.128 41.4386 45.974C41.3726 45.82 41.2699 45.7063 41.1306 45.633C40.9986 45.5523 40.8336 45.5157 40.6356 45.523C40.4816 45.523 40.3386 45.5487 40.2066 45.6C40.0746 45.644 39.9609 45.7137 39.8656 45.809C39.7703 45.897 39.6933 45.9997 39.6346 46.117C39.5833 46.2343 39.5576 46.3627 39.5576 46.502V50H38.6886C38.4833 50 38.3073 50 38.1606 50C38.0139 50 37.8929 50 37.7976 50ZM46.936 50.099C46.4447 50.099 46.0047 49.9707 45.616 49.714C45.2347 49.45 44.9304 49.0907 44.703 48.636C44.4757 48.174 44.362 47.6533 44.362 47.074C44.362 46.48 44.4757 45.9557 44.703 45.501C44.9304 45.0463 45.242 44.6907 45.638 44.434C46.034 44.17 46.485 44.038 46.991 44.038C47.2697 44.038 47.5227 44.0783 47.75 44.159C47.9847 44.2397 48.19 44.3533 48.366 44.5C48.542 44.6393 48.6924 44.8043 48.817 44.995C48.9417 45.1783 49.0334 45.3763 49.092 45.589L48.729 45.545V44.159H50.478V50H48.696V48.592L49.092 48.581C49.0334 48.7863 48.938 48.9807 48.806 49.164C48.674 49.3473 48.5127 49.5087 48.322 49.648C48.1314 49.7873 47.9187 49.8973 47.684 49.978C47.4494 50.0587 47.2 50.099 46.936 50.099ZM47.42 48.614C47.6914 48.614 47.926 48.5517 48.124 48.427C48.322 48.3023 48.476 48.1263 48.586 47.899C48.696 47.6643 48.751 47.3893 48.751 47.074C48.751 46.7587 48.696 46.4873 48.586 46.26C48.476 46.0253 48.322 45.8457 48.124 45.721C47.926 45.589 47.6914 45.523 47.42 45.523C47.156 45.523 46.925 45.589 46.727 45.721C46.5364 45.8457 46.386 46.0253 46.276 46.26C46.166 46.4873 46.111 46.7587 46.111 47.074C46.111 47.3893 46.166 47.6643 46.276 47.899C46.386 48.1263 46.5364 48.3023 46.727 48.427C46.925 48.5517 47.156 48.614 47.42 48.614ZM11.5617 64.11C11.0191 64.11 10.5167 64.011 10.0547 63.813C9.60008 63.615 9.20041 63.34 8.85574 62.988C8.51841 62.6287 8.25441 62.2107 8.06374 61.734C7.88041 61.25 7.78874 60.722 7.78874 60.15C7.78874 59.578 7.88041 59.0537 8.06374 58.577C8.25441 58.093 8.51841 57.675 8.85574 57.323C9.20041 56.9637 9.60008 56.685 10.0547 56.487C10.5167 56.289 11.0191 56.19 11.5617 56.19C12.1044 56.19 12.6031 56.289 13.0577 56.487C13.5197 56.685 13.9194 56.9637 14.2567 57.323C14.6014 57.6823 14.8654 58.104 15.0487 58.588C15.2394 59.0647 15.3347 59.5853 15.3347 60.15C15.3347 60.7147 15.2394 61.239 15.0487 61.723C14.8654 62.1997 14.6014 62.6177 14.2567 62.977C13.9194 63.3363 13.5197 63.615 13.0577 63.813C12.6031 64.011 12.1044 64.11 11.5617 64.11ZM11.5617 62.955C11.9357 62.955 12.2767 62.8853 12.5847 62.746C12.9001 62.6067 13.1714 62.4123 13.3987 62.163C13.6261 61.9063 13.8021 61.6093 13.9267 61.272C14.0587 60.9273 14.1247 60.5533 14.1247 60.15C14.1247 59.7467 14.0587 59.3763 13.9267 59.039C13.8021 58.6943 13.6261 58.3973 13.3987 58.148C13.1714 57.8913 12.9001 57.6933 12.5847 57.554C12.2767 57.4147 11.9357 57.345 11.5617 57.345C11.1877 57.345 10.8431 57.4147 10.5277 57.554C10.2197 57.6933 9.94841 57.8877 9.71374 58.137C9.48641 58.3863 9.31041 58.6833 9.18574 59.028C9.06108 59.3653 8.99874 59.7393 8.99874 60.15C8.99874 60.5533 9.06108 60.9273 9.18574 61.272C9.31041 61.6167 9.48641 61.9137 9.71374 62.163C9.94841 62.4123 10.2197 62.6067 10.5277 62.746C10.8431 62.8853 11.1877 62.955 11.5617 62.955ZM18.6812 64.11C18.2706 64.11 17.9112 64.0147 17.6032 63.824C17.3026 63.6333 17.0679 63.3657 16.8992 63.021C16.7379 62.6763 16.6572 62.2657 16.6572 61.789V58.225H17.7902V61.481C17.7902 61.8183 17.8416 62.1117 17.9442 62.361C18.0542 62.603 18.2082 62.79 18.4062 62.922C18.6116 63.054 18.8572 63.12 19.1432 63.12C19.3559 63.12 19.5502 63.087 19.7262 63.021C19.9022 62.9477 20.0526 62.8487 20.1772 62.724C20.3092 62.5993 20.4119 62.449 20.4852 62.273C20.5586 62.097 20.5952 61.9063 20.5952 61.701V58.225H21.7282V64H20.5952V62.79L20.7932 62.658C20.7052 62.9293 20.5549 63.175 20.3422 63.395C20.1369 63.615 19.8912 63.791 19.6052 63.923C19.3192 64.0477 19.0112 64.11 18.6812 64.11ZM23.3174 64V58.225H24.4614V60.04L24.3514 59.6C24.4321 59.3213 24.5677 59.0683 24.7584 58.841C24.9564 58.6137 25.1801 58.434 25.4294 58.302C25.6861 58.17 25.9501 58.104 26.2214 58.104C26.3461 58.104 26.4634 58.115 26.5734 58.137C26.6907 58.159 26.7824 58.1847 26.8484 58.214L26.5514 59.446C26.4634 59.4093 26.3644 59.38 26.2544 59.358C26.1517 59.3287 26.0491 59.314 25.9464 59.314C25.7484 59.314 25.5577 59.3543 25.3744 59.435C25.1984 59.5083 25.0407 59.6147 24.9014 59.754C24.7694 59.886 24.6631 60.0437 24.5824 60.227C24.5017 60.403 24.4614 60.5973 24.4614 60.81V64H23.3174ZM31.1229 64V56.3H32.3109V62.856H35.9189V64H31.1229ZM39.429 64.11C38.9524 64.11 38.516 63.978 38.12 63.714C37.7314 63.45 37.4197 63.0907 37.185 62.636C36.9504 62.1813 36.833 61.668 36.833 61.096C36.833 60.5167 36.9504 60.0033 37.185 59.556C37.427 59.1013 37.7497 58.7457 38.153 58.489C38.5637 58.2323 39.022 58.104 39.528 58.104C39.8287 58.104 40.1037 58.148 40.353 58.236C40.6024 58.324 40.8187 58.4487 41.002 58.61C41.1927 58.764 41.3467 58.9437 41.464 59.149C41.5887 59.3543 41.6657 59.5743 41.695 59.809L41.442 59.721V58.225H42.586V64H41.442V62.625L41.706 62.548C41.662 62.746 41.5704 62.9403 41.431 63.131C41.299 63.3143 41.1267 63.4793 40.914 63.626C40.7087 63.7727 40.4777 63.89 40.221 63.978C39.9717 64.066 39.7077 64.11 39.429 64.11ZM39.726 63.065C40.0707 63.065 40.375 62.9807 40.639 62.812C40.903 62.6433 41.1084 62.4123 41.255 62.119C41.409 61.8183 41.486 61.4773 41.486 61.096C41.486 60.722 41.409 60.3883 41.255 60.095C41.1084 59.8017 40.903 59.5707 40.639 59.402C40.375 59.2333 40.0707 59.149 39.726 59.149C39.3887 59.149 39.088 59.2333 38.824 59.402C38.5674 59.5707 38.362 59.8017 38.208 60.095C38.0614 60.3883 37.988 60.722 37.988 61.096C37.988 61.4773 38.0614 61.8183 38.208 62.119C38.362 62.4123 38.5674 62.6433 38.824 62.812C39.088 62.9807 39.3887 63.065 39.726 63.065ZM46.577 64.11C46.049 64.11 45.576 63.9817 45.158 63.725C44.7473 63.461 44.421 63.1053 44.179 62.658C43.937 62.2033 43.816 61.6863 43.816 61.107C43.816 60.5277 43.9333 60.0143 44.168 59.567C44.41 59.1123 44.7363 58.7567 45.147 58.5C45.5576 58.236 46.0233 58.104 46.544 58.104C46.83 58.104 47.105 58.1517 47.369 58.247C47.6403 58.335 47.8823 58.4597 48.095 58.621C48.3076 58.775 48.4726 58.9473 48.59 59.138C48.7146 59.3213 48.777 59.5083 48.777 59.699L48.447 59.721V55.86H49.58V64H48.447V62.625H48.667C48.667 62.801 48.6083 62.977 48.491 63.153C48.3736 63.3217 48.216 63.4793 48.018 63.626C47.8273 63.7727 47.6036 63.89 47.347 63.978C47.0976 64.066 46.841 64.11 46.577 64.11ZM46.731 63.131C47.0756 63.131 47.38 63.043 47.644 62.867C47.908 62.691 48.1133 62.4527 48.26 62.152C48.414 61.844 48.491 61.4957 48.491 61.107C48.491 60.7183 48.414 60.3737 48.26 60.073C48.1133 59.765 47.908 59.523 47.644 59.347C47.38 59.171 47.0756 59.083 46.731 59.083C46.3863 59.083 46.082 59.171 45.818 59.347C45.554 59.523 45.345 59.765 45.191 60.073C45.0443 60.3737 44.971 60.7183 44.971 61.107C44.971 61.4957 45.0443 61.844 45.191 62.152C45.345 62.4527 45.554 62.691 45.818 62.867C46.082 63.043 46.3863 63.131 46.731 63.131ZM52.1077 66.53L53.2737 63.835L53.2847 64.737L50.4027 58.225H51.7227L53.5267 62.471C53.5633 62.5443 53.6073 62.658 53.6587 62.812C53.71 62.9587 53.754 63.1053 53.7907 63.252L53.5047 63.318C53.5633 63.164 53.6183 63.01 53.6697 62.856C53.7283 62.702 53.7833 62.548 53.8347 62.394L55.3417 58.225H56.6837L54.3077 64L53.3287 66.53H52.1077ZM7.07697 78.11C6.5123 78.11 6.0063 77.9817 5.55896 77.725C5.11896 77.461 4.77063 77.1053 4.51396 76.658C4.2573 76.2033 4.12896 75.6863 4.12896 75.107C4.12896 74.5277 4.2573 74.0143 4.51396 73.567C4.77063 73.1123 5.11896 72.7567 5.55896 72.5C6.0063 72.236 6.5123 72.104 7.07697 72.104C7.6343 72.104 8.13296 72.236 8.57297 72.5C9.0203 72.7567 9.3723 73.1123 9.62897 73.567C9.88563 74.0143 10.014 74.5277 10.014 75.107C10.014 75.6863 9.88563 76.2033 9.62897 76.658C9.3723 77.1053 9.0203 77.461 8.57297 77.725C8.13296 77.9817 7.6343 78.11 7.07697 78.11ZM7.07697 77.076C7.42163 77.076 7.72963 76.9917 8.00097 76.823C8.2723 76.647 8.48497 76.4123 8.63897 76.119C8.79297 75.8183 8.8663 75.481 8.85897 75.107C8.8663 74.7257 8.79297 74.3883 8.63897 74.095C8.48497 73.7943 8.2723 73.5597 8.00097 73.391C7.72963 73.2223 7.42163 73.138 7.07697 73.138C6.7323 73.138 6.42063 73.226 6.14196 73.402C5.87063 73.5707 5.65796 73.8053 5.50396 74.106C5.34996 74.3993 5.27663 74.733 5.28396 75.107C5.27663 75.481 5.34996 75.8183 5.50396 76.119C5.65796 76.4123 5.87063 76.647 6.14196 76.823C6.42063 76.9917 6.7323 77.076 7.07697 77.076ZM11.6607 78V71.576C11.6607 71.246 11.734 70.9527 11.8807 70.696C12.0274 70.4393 12.229 70.2377 12.4857 70.091C12.7424 69.9443 13.0394 69.871 13.3767 69.871C13.6114 69.871 13.8314 69.915 14.0367 70.003C14.242 70.091 14.407 70.2083 14.5317 70.355L14.1467 71.224C14.0514 71.136 13.945 71.0663 13.8277 71.015C13.7177 70.9563 13.6114 70.927 13.5087 70.927C13.3547 70.927 13.2227 70.9527 13.1127 71.004C13.01 71.048 12.933 71.1213 12.8817 71.224C12.8304 71.3193 12.8047 71.4367 12.8047 71.576V78H12.2327C12.1374 78 12.042 78 11.9467 78C11.8514 78 11.756 78 11.6607 78ZM10.7367 73.369V72.324H14.1687V73.369H10.7367ZM18.7211 78V70.3H19.9091V76.856H23.5171V78H18.7211ZM27.4012 78.11C26.8365 78.11 26.3305 77.9817 25.8832 77.725C25.4432 77.461 25.0949 77.1053 24.8382 76.658C24.5815 76.2033 24.4532 75.6863 24.4532 75.107C24.4532 74.5277 24.5815 74.0143 24.8382 73.567C25.0949 73.1123 25.4432 72.7567 25.8832 72.5C26.3305 72.236 26.8365 72.104 27.4012 72.104C27.9585 72.104 28.4572 72.236 28.8972 72.5C29.3445 72.7567 29.6965 73.1123 29.9532 73.567C30.2099 74.0143 30.3382 74.5277 30.3382 75.107C30.3382 75.6863 30.2099 76.2033 29.9532 76.658C29.6965 77.1053 29.3445 77.461 28.8972 77.725C28.4572 77.9817 27.9585 78.11 27.4012 78.11ZM27.4012 77.076C27.7459 77.076 28.0539 76.9917 28.3252 76.823C28.5965 76.647 28.8092 76.4123 28.9632 76.119C29.1172 75.8183 29.1905 75.481 29.1832 75.107C29.1905 74.7257 29.1172 74.3883 28.9632 74.095C28.8092 73.7943 28.5965 73.5597 28.3252 73.391C28.0539 73.2223 27.7459 73.138 27.4012 73.138C27.0565 73.138 26.7449 73.226 26.4662 73.402C26.1949 73.5707 25.9822 73.8053 25.8282 74.106C25.6742 74.3993 25.6009 74.733 25.6082 75.107C25.6009 75.481 25.6742 75.8183 25.8282 76.119C25.9822 76.4123 26.1949 76.647 26.4662 76.823C26.7449 76.9917 27.0565 77.076 27.4012 77.076ZM33.5968 78.11C33.1861 78.11 32.8268 78.0147 32.5188 77.824C32.2181 77.6333 31.9834 77.3657 31.8148 77.021C31.6534 76.6763 31.5728 76.2657 31.5728 75.789V72.225H32.7058V75.481C32.7058 75.8183 32.7571 76.1117 32.8598 76.361C32.9698 76.603 33.1238 76.79 33.3218 76.922C33.5271 77.054 33.7728 77.12 34.0588 77.12C34.2714 77.12 34.4658 77.087 34.6418 77.021C34.8178 76.9477 34.9681 76.8487 35.0928 76.724C35.2248 76.5993 35.3274 76.449 35.4008 76.273C35.4741 76.097 35.5108 75.9063 35.5108 75.701V72.225H36.6438V78H35.5108V76.79L35.7088 76.658C35.6208 76.9293 35.4704 77.175 35.2578 77.395C35.0524 77.615 34.8068 77.791 34.5208 77.923C34.2348 78.0477 33.9268 78.11 33.5968 78.11ZM38.2329 78V72.225H39.3769V74.04L39.2669 73.6C39.3476 73.3213 39.4833 73.0683 39.6739 72.841C39.8719 72.6137 40.0956 72.434 40.3449 72.302C40.6016 72.17 40.8656 72.104 41.1369 72.104C41.2616 72.104 41.3789 72.115 41.4889 72.137C41.6063 72.159 41.6979 72.1847 41.7639 72.214L41.4669 73.446C41.3789 73.4093 41.2799 73.38 41.1699 73.358C41.0673 73.3287 40.9646 73.314 40.8619 73.314C40.6639 73.314 40.4733 73.3543 40.2899 73.435C40.1139 73.5083 39.9563 73.6147 39.8169 73.754C39.6849 73.886 39.5786 74.0437 39.4979 74.227C39.4173 74.403 39.3769 74.5973 39.3769 74.81V78H38.2329ZM44.8314 78.11C44.3034 78.11 43.8304 77.9817 43.4124 77.725C43.0017 77.461 42.6754 77.1053 42.4334 76.658C42.1914 76.2033 42.0704 75.6863 42.0704 75.107C42.0704 74.5277 42.1877 74.0143 42.4224 73.567C42.6644 73.1123 42.9907 72.7567 43.4014 72.5C43.812 72.236 44.2777 72.104 44.7984 72.104C45.0844 72.104 45.3594 72.1517 45.6234 72.247C45.8947 72.335 46.1367 72.4597 46.3494 72.621C46.562 72.775 46.727 72.9473 46.8444 73.138C46.969 73.3213 47.0314 73.5083 47.0314 73.699L46.7014 73.721V69.86H47.8344V78H46.7014V76.625H46.9214C46.9214 76.801 46.8627 76.977 46.7454 77.153C46.628 77.3217 46.4704 77.4793 46.2724 77.626C46.0817 77.7727 45.858 77.89 45.6014 77.978C45.352 78.066 45.0954 78.11 44.8314 78.11ZM44.9854 77.131C45.33 77.131 45.6344 77.043 45.8984 76.867C46.1624 76.691 46.3677 76.4527 46.5144 76.152C46.6684 75.844 46.7454 75.4957 46.7454 75.107C46.7454 74.7183 46.6684 74.3737 46.5144 74.073C46.3677 73.765 46.1624 73.523 45.8984 73.347C45.6344 73.171 45.33 73.083 44.9854 73.083C44.6407 73.083 44.3364 73.171 44.0724 73.347C43.8084 73.523 43.5994 73.765 43.4454 74.073C43.2987 74.3737 43.2254 74.7183 43.2254 75.107C43.2254 75.4957 43.2987 75.844 43.4454 76.152C43.5994 76.4527 43.8084 76.691 44.0724 76.867C44.3364 77.043 44.6407 77.131 44.9854 77.131ZM52.0891 78.11C51.4951 78.11 50.9671 77.9853 50.5051 77.736C50.0504 77.4793 49.6911 77.131 49.4271 76.691C49.1704 76.251 49.0421 75.745 49.0421 75.173C49.0421 74.7183 49.1154 74.304 49.2621 73.93C49.4087 73.556 49.6104 73.2333 49.8671 72.962C50.1311 72.6833 50.4427 72.4707 50.8021 72.324C51.1687 72.17 51.5647 72.093 51.9901 72.093C52.3641 72.093 52.7124 72.1663 53.0351 72.313C53.3577 72.4523 53.6364 72.6467 53.8711 72.896C54.1131 73.1453 54.2964 73.4423 54.4211 73.787C54.5531 74.1243 54.6154 74.4947 54.6081 74.898L54.5971 75.382H49.8781L49.6251 74.48H53.6181L53.4531 74.667V74.403C53.4311 74.161 53.3504 73.9447 53.2111 73.754C53.0717 73.5633 52.8957 73.413 52.6831 73.303C52.4704 73.193 52.2394 73.138 51.9901 73.138C51.5941 73.138 51.2604 73.215 50.9891 73.369C50.7177 73.5157 50.5124 73.7357 50.3731 74.029C50.2337 74.315 50.1641 74.6707 50.1641 75.096C50.1641 75.4993 50.2484 75.8513 50.4171 76.152C50.5857 76.4453 50.8241 76.6727 51.1321 76.834C51.4401 76.9953 51.7957 77.076 52.1991 77.076C52.4851 77.076 52.7491 77.0283 52.9911 76.933C53.2404 76.8377 53.5081 76.6653 53.7941 76.416L54.3661 77.219C54.1901 77.395 53.9737 77.549 53.7171 77.681C53.4677 77.813 53.2001 77.9193 52.9141 78C52.6354 78.0733 52.3604 78.11 52.0891 78.11ZM57.7644 78.11C57.2804 78.11 56.844 78.0257 56.4554 77.857C56.0667 77.6883 55.744 77.439 55.4874 77.109L56.2574 76.449C56.4774 76.7057 56.7157 76.8927 56.9724 77.01C57.2364 77.12 57.5334 77.175 57.8634 77.175C57.9954 77.175 58.1164 77.1603 58.2264 77.131C58.3437 77.0943 58.4427 77.043 58.5234 76.977C58.6114 76.911 58.6774 76.834 58.7214 76.746C58.7654 76.6507 58.7874 76.548 58.7874 76.438C58.7874 76.2473 58.7177 76.0933 58.5784 75.976C58.505 75.9247 58.3877 75.8697 58.2264 75.811C58.0724 75.745 57.8707 75.679 57.6214 75.613C57.196 75.503 56.8477 75.3783 56.5764 75.239C56.305 75.0997 56.096 74.942 55.9494 74.766C55.8394 74.6267 55.7587 74.4763 55.7074 74.315C55.656 74.1463 55.6304 73.963 55.6304 73.765C55.6304 73.523 55.6817 73.303 55.7844 73.105C55.8944 72.8997 56.041 72.7237 56.2244 72.577C56.415 72.423 56.635 72.3057 56.8844 72.225C57.141 72.1443 57.4124 72.104 57.6984 72.104C57.9697 72.104 58.2374 72.1407 58.5014 72.214C58.7727 72.2873 59.022 72.3937 59.2494 72.533C59.4767 72.6723 59.6674 72.8373 59.8214 73.028L59.1724 73.743C59.033 73.6037 58.879 73.4827 58.7104 73.38C58.549 73.27 58.384 73.1857 58.2154 73.127C58.0467 73.0683 57.8927 73.039 57.7534 73.039C57.5994 73.039 57.46 73.0537 57.3354 73.083C57.2107 73.1123 57.1044 73.1563 57.0164 73.215C56.9357 73.2737 56.8734 73.347 56.8294 73.435C56.7854 73.523 56.7634 73.622 56.7634 73.732C56.7707 73.8273 56.7927 73.919 56.8294 74.007C56.8734 74.0877 56.932 74.1573 57.0054 74.216C57.086 74.2747 57.207 74.337 57.3684 74.403C57.5297 74.469 57.735 74.5313 57.9844 74.59C58.351 74.6853 58.6517 74.7917 58.8864 74.909C59.1284 75.019 59.319 75.1473 59.4584 75.294C59.605 75.4333 59.7077 75.5947 59.7664 75.778C59.825 75.9613 59.8544 76.1667 59.8544 76.394C59.8544 76.724 59.759 77.021 59.5684 77.285C59.385 77.5417 59.1357 77.7433 58.8204 77.89C58.505 78.0367 58.153 78.11 57.7644 78.11Z" fill="black"/>
</svg>
