<svg width="62" height="64" viewBox="0 0 62 64" fill="none" xmlns="http://www.w3.org/2000/svg">
<path d="M18.0657 1.5H12.9343C12.5349 1.5 12.2967 1.94507 12.5182 2.27735L13.916 4.37404C13.9708 4.45617 14 4.55268 14 4.65139V6V10C14 10.2761 13.7761 10.5 13.5 10.5H9.5H6.65139C6.55268 10.5 6.45617 10.4708 6.37404 10.416L4.27735 9.01823C3.94507 8.79671 3.5 9.03491 3.5 9.43426V14.5657C3.5 14.9651 3.94507 15.2033 4.27735 14.9818L6.37404 13.584C6.45617 13.5292 6.55268 13.5 6.65139 13.5H9.5H13.5C13.7761 13.5 14 13.7239 14 14V17.5V33.382C14 33.4596 13.9819 33.5361 13.9472 33.6056L12.8618 35.7764C12.6956 36.1088 12.9373 36.5 13.309 36.5H17.691C18.0627 36.5 18.3044 36.1088 18.1382 35.7764L17.0528 33.6056C17.0181 33.5361 17 33.4596 17 33.382V17.5V14C17 13.7239 17.2239 13.5 17.5 13.5H21.5H24.3486C24.4473 13.5 24.5438 13.5292 24.626 13.584L26.7227 14.9818C27.0549 15.2033 27.5 14.9651 27.5 14.5657V9.43426C27.5 9.03491 27.0549 8.79671 26.7227 9.01823L24.626 10.416C24.5438 10.4708 24.4473 10.5 24.3486 10.5H21.5H17.5C17.2239 10.5 17 10.2761 17 10V6V4.65139C17 4.55268 17.0292 4.45617 17.084 4.37404L18.4818 2.27735C18.7033 1.94507 18.4651 1.5 18.0657 1.5Z" fill="#4F4533"/>
<path d="M14 6V10C14 10.2761 13.7761 10.5 13.5 10.5H9.5M14 6V4.65139C14 4.55268 13.9708 4.45617 13.916 4.37404L12.5182 2.27735C12.2967 1.94507 12.5349 1.5 12.9343 1.5H18.0657C18.4651 1.5 18.7033 1.94507 18.4818 2.27735L17.084 4.37404C17.0292 4.45617 17 4.55268 17 4.65139V6M14 6C11.5 6 9.5 8 9.5 10.5M9.5 10.5H6.65139C6.55268 10.5 6.45617 10.4708 6.37404 10.416L4.27735 9.01823C3.94507 8.79671 3.5 9.03491 3.5 9.43426V14.5657C3.5 14.9651 3.94507 15.2033 4.27735 14.9818L6.37404 13.584C6.45617 13.5292 6.55268 13.5 6.65139 13.5H9.5M17 6V10C17 10.2761 17.2239 10.5 17.5 10.5H21.5M17 6C19.5 6 21.5 8 21.5 10.5M21.5 10.5H24.3486C24.4473 10.5 24.5438 10.4708 24.626 10.416L26.7227 9.01823C27.0549 8.79671 27.5 9.03491 27.5 9.43426V14.5657C27.5 14.9651 27.0549 15.2033 26.7226 14.9818L24.626 13.584C24.5438 13.5292 24.4473 13.5 24.3486 13.5H21.5M21.5 13.5H17.5C17.2239 13.5 17 13.7239 17 14V17.5M21.5 13.5C21.5 16 19.5 17.5 17 17.5M17 17.5V33.382C17 33.4596 17.0181 33.5361 17.0528 33.6056L18.1382 35.7764C18.3044 36.1088 18.0627 36.5 17.691 36.5H13.309C12.9373 36.5 12.6956 36.1088 12.8618 35.7764L13.9472 33.6056C13.9819 33.5361 14 33.4596 14 33.382V17.5M14 17.5V14C14 13.7239 13.7761 13.5 13.5 13.5H9.5M14 17.5C11.5 17.5 9.5 16 9.5 13.5" stroke="black"/>
<path d="M23.9712 34.11C23.4652 34.11 23.0068 34.0513 22.5962 33.934C22.1928 33.8093 21.8335 33.6333 21.5182 33.406C21.2028 33.1713 20.9205 32.8963 20.6712 32.581L21.8042 31.294C22.1708 31.7853 22.5375 32.1153 22.9042 32.284C23.2782 32.4527 23.6632 32.537 24.0592 32.537C24.2572 32.537 24.4368 32.5113 24.5982 32.46C24.7595 32.4087 24.8842 32.3353 24.9722 32.24C25.0602 32.1373 25.1042 32.0127 25.1042 31.866C25.1042 31.756 25.0748 31.657 25.0162 31.569C24.9648 31.481 24.8915 31.404 24.7962 31.338C24.7008 31.272 24.5872 31.2133 24.4552 31.162C24.3232 31.1033 24.1838 31.0557 24.0372 31.019C23.8905 30.975 23.7402 30.9383 23.5862 30.909C23.1608 30.8137 22.7905 30.6963 22.4752 30.557C22.1598 30.4177 21.8958 30.249 21.6832 30.051C21.4778 29.8457 21.3238 29.6147 21.2212 29.358C21.1185 29.094 21.0672 28.8007 21.0672 28.478C21.0672 28.1333 21.1442 27.818 21.2982 27.532C21.4595 27.2387 21.6722 26.9893 21.9362 26.784C22.2075 26.5713 22.5192 26.41 22.8712 26.3C23.2232 26.1827 23.5898 26.124 23.9712 26.124C24.4772 26.124 24.9098 26.179 25.2692 26.289C25.6358 26.3917 25.9475 26.542 26.2042 26.74C26.4682 26.938 26.6918 27.1763 26.8752 27.455L25.7202 28.566C25.5662 28.3753 25.3975 28.2177 25.2142 28.093C25.0382 27.9683 24.8475 27.873 24.6422 27.807C24.4442 27.741 24.2388 27.708 24.0262 27.708C23.8062 27.708 23.6155 27.7373 23.4542 27.796C23.3002 27.8473 23.1792 27.9243 23.0912 28.027C23.0032 28.1223 22.9592 28.2397 22.9592 28.379C22.9592 28.5037 22.9958 28.61 23.0692 28.698C23.1425 28.786 23.2415 28.8667 23.3662 28.94C23.4908 29.006 23.6338 29.0647 23.7952 29.116C23.9565 29.16 24.1252 29.1967 24.3012 29.226C24.7045 29.3067 25.0675 29.413 25.3902 29.545C25.7202 29.677 26.0025 29.8383 26.2372 30.029C26.4792 30.2197 26.6625 30.447 26.7872 30.711C26.9192 30.9677 26.9852 31.2683 26.9852 31.613C26.9852 32.1483 26.8532 32.603 26.5892 32.977C26.3325 33.3437 25.9768 33.626 25.5222 33.824C25.0748 34.0147 24.5578 34.11 23.9712 34.11ZM28.3909 34V26.3H30.2609V32.35H33.6929V34H28.3909ZM38.3771 34.11C37.7978 34.11 37.2625 34.0147 36.7711 33.824C36.2871 33.626 35.8655 33.351 35.5061 32.999C35.1468 32.6397 34.8681 32.218 34.6701 31.734C34.4795 31.2427 34.3841 30.7037 34.3841 30.117C34.3841 29.545 34.4868 29.017 34.6921 28.533C34.8975 28.049 35.1798 27.631 35.5391 27.279C35.9058 26.9197 36.3348 26.641 36.8261 26.443C37.3248 26.245 37.8675 26.146 38.4541 26.146C38.8208 26.146 39.1801 26.1937 39.5321 26.289C39.8841 26.3843 40.2105 26.5273 40.5111 26.718C40.8191 26.9013 41.0831 27.1213 41.3031 27.378L40.1591 28.687C40.0051 28.5257 39.8401 28.3863 39.6641 28.269C39.4955 28.1443 39.3085 28.049 39.1031 27.983C38.8978 27.917 38.6778 27.884 38.4431 27.884C38.1498 27.884 37.8711 27.939 37.6071 28.049C37.3505 28.1517 37.1231 28.302 36.9251 28.5C36.7345 28.6907 36.5841 28.9253 36.4741 29.204C36.3641 29.4827 36.3091 29.7943 36.3091 30.139C36.3091 30.4763 36.3641 30.7843 36.4741 31.063C36.5841 31.3343 36.7381 31.569 36.9361 31.767C37.1341 31.965 37.3725 32.1153 37.6511 32.218C37.9371 32.3207 38.2525 32.372 38.5971 32.372C38.8318 32.372 39.0555 32.339 39.2681 32.273C39.4808 32.207 39.6751 32.119 39.8511 32.009C40.0345 31.8917 40.1958 31.7597 40.3351 31.613L41.2371 33.043C41.0538 33.2483 40.8081 33.4317 40.5001 33.593C40.1995 33.7543 39.8621 33.8827 39.4881 33.978C39.1215 34.066 38.7511 34.11 38.3771 34.11ZM10.5617 48.11C10.0191 48.11 9.51674 48.011 9.05474 47.813C8.60008 47.615 8.20041 47.34 7.85574 46.988C7.51841 46.6287 7.25441 46.2107 7.06374 45.734C6.88041 45.25 6.78874 44.722 6.78874 44.15C6.78874 43.578 6.88041 43.0537 7.06374 42.577C7.25441 42.093 7.51841 41.675 7.85574 41.323C8.20041 40.9637 8.60008 40.685 9.05474 40.487C9.51674 40.289 10.0191 40.19 10.5617 40.19C11.1044 40.19 11.6031 40.289 12.0577 40.487C12.5197 40.685 12.9194 40.9637 13.2567 41.323C13.6014 41.6823 13.8654 42.104 14.0487 42.588C14.2394 43.0647 14.3347 43.5853 14.3347 44.15C14.3347 44.7147 14.2394 45.239 14.0487 45.723C13.8654 46.1997 13.6014 46.6177 13.2567 46.977C12.9194 47.3363 12.5197 47.615 12.0577 47.813C11.6031 48.011 11.1044 48.11 10.5617 48.11ZM10.5617 46.955C10.9357 46.955 11.2767 46.8853 11.5847 46.746C11.9001 46.6067 12.1714 46.4123 12.3987 46.163C12.6261 45.9063 12.8021 45.6093 12.9267 45.272C13.0587 44.9273 13.1247 44.5533 13.1247 44.15C13.1247 43.7467 13.0587 43.3763 12.9267 43.039C12.8021 42.6943 12.6261 42.3973 12.3987 42.148C12.1714 41.8913 11.9001 41.6933 11.5847 41.554C11.2767 41.4147 10.9357 41.345 10.5617 41.345C10.1877 41.345 9.84308 41.4147 9.52774 41.554C9.21974 41.6933 8.94841 41.8877 8.71374 42.137C8.48641 42.3863 8.31041 42.6833 8.18574 43.028C8.06108 43.3653 7.99874 43.7393 7.99874 44.15C7.99874 44.5533 8.06108 44.9273 8.18574 45.272C8.31041 45.6167 8.48641 45.9137 8.71374 46.163C8.94841 46.4123 9.21974 46.6067 9.52774 46.746C9.84308 46.8853 10.1877 46.955 10.5617 46.955ZM17.6812 48.11C17.2706 48.11 16.9112 48.0147 16.6032 47.824C16.3026 47.6333 16.0679 47.3657 15.8992 47.021C15.7379 46.6763 15.6572 46.2657 15.6572 45.789V42.225H16.7902V45.481C16.7902 45.8183 16.8416 46.1117 16.9442 46.361C17.0542 46.603 17.2082 46.79 17.4062 46.922C17.6116 47.054 17.8572 47.12 18.1432 47.12C18.3559 47.12 18.5502 47.087 18.7262 47.021C18.9022 46.9477 19.0526 46.8487 19.1772 46.724C19.3092 46.5993 19.4119 46.449 19.4852 46.273C19.5586 46.097 19.5952 45.9063 19.5952 45.701V42.225H20.7282V48H19.5952V46.79L19.7932 46.658C19.7052 46.9293 19.5549 47.175 19.3422 47.395C19.1369 47.615 18.8912 47.791 18.6052 47.923C18.3192 48.0477 18.0112 48.11 17.6812 48.11ZM22.3174 48V42.225H23.4614V44.04L23.3514 43.6C23.4321 43.3213 23.5677 43.0683 23.7584 42.841C23.9564 42.6137 24.1801 42.434 24.4294 42.302C24.6861 42.17 24.9501 42.104 25.2214 42.104C25.3461 42.104 25.4634 42.115 25.5734 42.137C25.6907 42.159 25.7824 42.1847 25.8484 42.214L25.5514 43.446C25.4634 43.4093 25.3644 43.38 25.2544 43.358C25.1517 43.3287 25.0491 43.314 24.9464 43.314C24.7484 43.314 24.5577 43.3543 24.3744 43.435C24.1984 43.5083 24.0407 43.6147 23.9014 43.754C23.7694 43.886 23.6631 44.0437 23.5824 44.227C23.5017 44.403 23.4614 44.5973 23.4614 44.81V48H22.3174ZM30.1229 48V40.3H31.3109V46.856H34.9189V48H30.1229ZM38.429 48.11C37.9524 48.11 37.516 47.978 37.12 47.714C36.7314 47.45 36.4197 47.0907 36.185 46.636C35.9504 46.1813 35.833 45.668 35.833 45.096C35.833 44.5167 35.9504 44.0033 36.185 43.556C36.427 43.1013 36.7497 42.7457 37.153 42.489C37.5637 42.2323 38.022 42.104 38.528 42.104C38.8287 42.104 39.1037 42.148 39.353 42.236C39.6024 42.324 39.8187 42.4487 40.002 42.61C40.1927 42.764 40.3467 42.9437 40.464 43.149C40.5887 43.3543 40.6657 43.5743 40.695 43.809L40.442 43.721V42.225H41.586V48H40.442V46.625L40.706 46.548C40.662 46.746 40.5704 46.9403 40.431 47.131C40.299 47.3143 40.1267 47.4793 39.914 47.626C39.7087 47.7727 39.4777 47.89 39.221 47.978C38.9717 48.066 38.7077 48.11 38.429 48.11ZM38.726 47.065C39.0707 47.065 39.375 46.9807 39.639 46.812C39.903 46.6433 40.1084 46.4123 40.255 46.119C40.409 45.8183 40.486 45.4773 40.486 45.096C40.486 44.722 40.409 44.3883 40.255 44.095C40.1084 43.8017 39.903 43.5707 39.639 43.402C39.375 43.2333 39.0707 43.149 38.726 43.149C38.3887 43.149 38.088 43.2333 37.824 43.402C37.5674 43.5707 37.362 43.8017 37.208 44.095C37.0614 44.3883 36.988 44.722 36.988 45.096C36.988 45.4773 37.0614 45.8183 37.208 46.119C37.362 46.4123 37.5674 46.6433 37.824 46.812C38.088 46.9807 38.3887 47.065 38.726 47.065ZM45.577 48.11C45.049 48.11 44.576 47.9817 44.158 47.725C43.7473 47.461 43.421 47.1053 43.179 46.658C42.937 46.2033 42.816 45.6863 42.816 45.107C42.816 44.5277 42.9333 44.0143 43.168 43.567C43.41 43.1123 43.7363 42.7567 44.147 42.5C44.5576 42.236 45.0233 42.104 45.544 42.104C45.83 42.104 46.105 42.1517 46.369 42.247C46.6403 42.335 46.8823 42.4597 47.095 42.621C47.3076 42.775 47.4726 42.9473 47.59 43.138C47.7146 43.3213 47.777 43.5083 47.777 43.699L47.447 43.721V39.86H48.58V48H47.447V46.625H47.667C47.667 46.801 47.6083 46.977 47.491 47.153C47.3736 47.3217 47.216 47.4793 47.018 47.626C46.8273 47.7727 46.6036 47.89 46.347 47.978C46.0976 48.066 45.841 48.11 45.577 48.11ZM45.731 47.131C46.0756 47.131 46.38 47.043 46.644 46.867C46.908 46.691 47.1133 46.4527 47.26 46.152C47.414 45.844 47.491 45.4957 47.491 45.107C47.491 44.7183 47.414 44.3737 47.26 44.073C47.1133 43.765 46.908 43.523 46.644 43.347C46.38 43.171 46.0756 43.083 45.731 43.083C45.3863 43.083 45.082 43.171 44.818 43.347C44.554 43.523 44.345 43.765 44.191 44.073C44.0443 44.3737 43.971 44.7183 43.971 45.107C43.971 45.4957 44.0443 45.844 44.191 46.152C44.345 46.4527 44.554 46.691 44.818 46.867C45.082 47.043 45.3863 47.131 45.731 47.131ZM51.1077 50.53L52.2737 47.835L52.2847 48.737L49.4027 42.225H50.7227L52.5267 46.471C52.5633 46.5443 52.6073 46.658 52.6587 46.812C52.71 46.9587 52.754 47.1053 52.7907 47.252L52.5047 47.318C52.5633 47.164 52.6183 47.01 52.6697 46.856C52.7283 46.702 52.7833 46.548 52.8347 46.394L54.3417 42.225H55.6837L53.3077 48L52.3287 50.53H51.1077ZM6.07697 62.11C5.5123 62.11 5.0063 61.9817 4.55896 61.725C4.11896 61.461 3.77063 61.1053 3.51396 60.658C3.2573 60.2033 3.12896 59.6863 3.12896 59.107C3.12896 58.5277 3.2573 58.0143 3.51396 57.567C3.77063 57.1123 4.11896 56.7567 4.55896 56.5C5.0063 56.236 5.5123 56.104 6.07697 56.104C6.6343 56.104 7.13296 56.236 7.57297 56.5C8.0203 56.7567 8.3723 57.1123 8.62897 57.567C8.88563 58.0143 9.01397 58.5277 9.01397 59.107C9.01397 59.6863 8.88563 60.2033 8.62897 60.658C8.3723 61.1053 8.0203 61.461 7.57297 61.725C7.13296 61.9817 6.6343 62.11 6.07697 62.11ZM6.07697 61.076C6.42163 61.076 6.72963 60.9917 7.00097 60.823C7.2723 60.647 7.48497 60.4123 7.63897 60.119C7.79297 59.8183 7.8663 59.481 7.85897 59.107C7.8663 58.7257 7.79297 58.3883 7.63897 58.095C7.48497 57.7943 7.2723 57.5597 7.00097 57.391C6.72963 57.2223 6.42163 57.138 6.07697 57.138C5.7323 57.138 5.42063 57.226 5.14196 57.402C4.87063 57.5707 4.65796 57.8053 4.50396 58.106C4.34996 58.3993 4.27663 58.733 4.28396 59.107C4.27663 59.481 4.34996 59.8183 4.50396 60.119C4.65796 60.4123 4.87063 60.647 5.14196 60.823C5.42063 60.9917 5.7323 61.076 6.07697 61.076ZM10.6607 62V55.576C10.6607 55.246 10.734 54.9527 10.8807 54.696C11.0274 54.4393 11.229 54.2377 11.4857 54.091C11.7424 53.9443 12.0394 53.871 12.3767 53.871C12.6114 53.871 12.8314 53.915 13.0367 54.003C13.242 54.091 13.407 54.2083 13.5317 54.355L13.1467 55.224C13.0514 55.136 12.945 55.0663 12.8277 55.015C12.7177 54.9563 12.6114 54.927 12.5087 54.927C12.3547 54.927 12.2227 54.9527 12.1127 55.004C12.01 55.048 11.933 55.1213 11.8817 55.224C11.8304 55.3193 11.8047 55.4367 11.8047 55.576V62H11.2327C11.1374 62 11.042 62 10.9467 62C10.8514 62 10.756 62 10.6607 62ZM9.7367 57.369V56.324H13.1687V57.369H9.7367ZM17.7211 62V54.3H18.9091V60.856H22.5171V62H17.7211ZM26.4012 62.11C25.8365 62.11 25.3305 61.9817 24.8832 61.725C24.4432 61.461 24.0949 61.1053 23.8382 60.658C23.5815 60.2033 23.4532 59.6863 23.4532 59.107C23.4532 58.5277 23.5815 58.0143 23.8382 57.567C24.0949 57.1123 24.4432 56.7567 24.8832 56.5C25.3305 56.236 25.8365 56.104 26.4012 56.104C26.9585 56.104 27.4572 56.236 27.8972 56.5C28.3445 56.7567 28.6965 57.1123 28.9532 57.567C29.2099 58.0143 29.3382 58.5277 29.3382 59.107C29.3382 59.6863 29.2099 60.2033 28.9532 60.658C28.6965 61.1053 28.3445 61.461 27.8972 61.725C27.4572 61.9817 26.9585 62.11 26.4012 62.11ZM26.4012 61.076C26.7459 61.076 27.0539 60.9917 27.3252 60.823C27.5965 60.647 27.8092 60.4123 27.9632 60.119C28.1172 59.8183 28.1905 59.481 28.1832 59.107C28.1905 58.7257 28.1172 58.3883 27.9632 58.095C27.8092 57.7943 27.5965 57.5597 27.3252 57.391C27.0539 57.2223 26.7459 57.138 26.4012 57.138C26.0565 57.138 25.7449 57.226 25.4662 57.402C25.1949 57.5707 24.9822 57.8053 24.8282 58.106C24.6742 58.3993 24.6009 58.733 24.6082 59.107C24.6009 59.481 24.6742 59.8183 24.8282 60.119C24.9822 60.4123 25.1949 60.647 25.4662 60.823C25.7449 60.9917 26.0565 61.076 26.4012 61.076ZM32.5968 62.11C32.1861 62.11 31.8268 62.0147 31.5188 61.824C31.2181 61.6333 30.9834 61.3657 30.8148 61.021C30.6534 60.6763 30.5728 60.2657 30.5728 59.789V56.225H31.7058V59.481C31.7058 59.8183 31.7571 60.1117 31.8598 60.361C31.9698 60.603 32.1238 60.79 32.3218 60.922C32.5271 61.054 32.7728 61.12 33.0588 61.12C33.2714 61.12 33.4658 61.087 33.6418 61.021C33.8178 60.9477 33.9681 60.8487 34.0928 60.724C34.2248 60.5993 34.3274 60.449 34.4008 60.273C34.4741 60.097 34.5108 59.9063 34.5108 59.701V56.225H35.6438V62H34.5108V60.79L34.7088 60.658C34.6208 60.9293 34.4704 61.175 34.2578 61.395C34.0524 61.615 33.8068 61.791 33.5208 61.923C33.2348 62.0477 32.9268 62.11 32.5968 62.11ZM37.2329 62V56.225H38.3769V58.04L38.2669 57.6C38.3476 57.3213 38.4833 57.0683 38.6739 56.841C38.8719 56.6137 39.0956 56.434 39.3449 56.302C39.6016 56.17 39.8656 56.104 40.1369 56.104C40.2616 56.104 40.3789 56.115 40.4889 56.137C40.6063 56.159 40.6979 56.1847 40.7639 56.214L40.4669 57.446C40.3789 57.4093 40.2799 57.38 40.1699 57.358C40.0673 57.3287 39.9646 57.314 39.8619 57.314C39.6639 57.314 39.4733 57.3543 39.2899 57.435C39.1139 57.5083 38.9563 57.6147 38.8169 57.754C38.6849 57.886 38.5786 58.0437 38.4979 58.227C38.4173 58.403 38.3769 58.5973 38.3769 58.81V62H37.2329ZM43.8314 62.11C43.3034 62.11 42.8304 61.9817 42.4124 61.725C42.0017 61.461 41.6754 61.1053 41.4334 60.658C41.1914 60.2033 41.0704 59.6863 41.0704 59.107C41.0704 58.5277 41.1877 58.0143 41.4224 57.567C41.6644 57.1123 41.9907 56.7567 42.4014 56.5C42.812 56.236 43.2777 56.104 43.7984 56.104C44.0844 56.104 44.3594 56.1517 44.6234 56.247C44.8947 56.335 45.1367 56.4597 45.3494 56.621C45.562 56.775 45.727 56.9473 45.8444 57.138C45.969 57.3213 46.0314 57.5083 46.0314 57.699L45.7014 57.721V53.86H46.8344V62H45.7014V60.625H45.9214C45.9214 60.801 45.8627 60.977 45.7454 61.153C45.628 61.3217 45.4704 61.4793 45.2724 61.626C45.0817 61.7727 44.858 61.89 44.6014 61.978C44.352 62.066 44.0954 62.11 43.8314 62.11ZM43.9854 61.131C44.33 61.131 44.6344 61.043 44.8984 60.867C45.1624 60.691 45.3677 60.4527 45.5144 60.152C45.6684 59.844 45.7454 59.4957 45.7454 59.107C45.7454 58.7183 45.6684 58.3737 45.5144 58.073C45.3677 57.765 45.1624 57.523 44.8984 57.347C44.6344 57.171 44.33 57.083 43.9854 57.083C43.6407 57.083 43.3364 57.171 43.0724 57.347C42.8084 57.523 42.5994 57.765 42.4454 58.073C42.2987 58.3737 42.2254 58.7183 42.2254 59.107C42.2254 59.4957 42.2987 59.844 42.4454 60.152C42.5994 60.4527 42.8084 60.691 43.0724 60.867C43.3364 61.043 43.6407 61.131 43.9854 61.131ZM51.0891 62.11C50.4951 62.11 49.9671 61.9853 49.5051 61.736C49.0504 61.4793 48.6911 61.131 48.4271 60.691C48.1704 60.251 48.0421 59.745 48.0421 59.173C48.0421 58.7183 48.1154 58.304 48.2621 57.93C48.4087 57.556 48.6104 57.2333 48.8671 56.962C49.1311 56.6833 49.4427 56.4707 49.8021 56.324C50.1687 56.17 50.5647 56.093 50.9901 56.093C51.3641 56.093 51.7124 56.1663 52.0351 56.313C52.3577 56.4523 52.6364 56.6467 52.8711 56.896C53.1131 57.1453 53.2964 57.4423 53.4211 57.787C53.5531 58.1243 53.6154 58.4947 53.6081 58.898L53.5971 59.382H48.8781L48.6251 58.48H52.6181L52.4531 58.667V58.403C52.4311 58.161 52.3504 57.9447 52.2111 57.754C52.0717 57.5633 51.8957 57.413 51.6831 57.303C51.4704 57.193 51.2394 57.138 50.9901 57.138C50.5941 57.138 50.2604 57.215 49.9891 57.369C49.7177 57.5157 49.5124 57.7357 49.3731 58.029C49.2337 58.315 49.1641 58.6707 49.1641 59.096C49.1641 59.4993 49.2484 59.8513 49.4171 60.152C49.5857 60.4453 49.8241 60.6727 50.1321 60.834C50.4401 60.9953 50.7957 61.076 51.1991 61.076C51.4851 61.076 51.7491 61.0283 51.9911 60.933C52.2404 60.8377 52.5081 60.6653 52.7941 60.416L53.3661 61.219C53.1901 61.395 52.9737 61.549 52.7171 61.681C52.4677 61.813 52.2001 61.9193 51.9141 62C51.6354 62.0733 51.3604 62.11 51.0891 62.11ZM56.7644 62.11C56.2804 62.11 55.844 62.0257 55.4554 61.857C55.0667 61.6883 54.744 61.439 54.4874 61.109L55.2574 60.449C55.4774 60.7057 55.7157 60.8927 55.9724 61.01C56.2364 61.12 56.5334 61.175 56.8634 61.175C56.9954 61.175 57.1164 61.1603 57.2264 61.131C57.3437 61.0943 57.4427 61.043 57.5234 60.977C57.6114 60.911 57.6774 60.834 57.7214 60.746C57.7654 60.6507 57.7874 60.548 57.7874 60.438C57.7874 60.2473 57.7177 60.0933 57.5784 59.976C57.505 59.9247 57.3877 59.8697 57.2264 59.811C57.0724 59.745 56.8707 59.679 56.6214 59.613C56.196 59.503 55.8477 59.3783 55.5764 59.239C55.305 59.0997 55.096 58.942 54.9494 58.766C54.8394 58.6267 54.7587 58.4763 54.7074 58.315C54.656 58.1463 54.6304 57.963 54.6304 57.765C54.6304 57.523 54.6817 57.303 54.7844 57.105C54.8944 56.8997 55.041 56.7237 55.2244 56.577C55.415 56.423 55.635 56.3057 55.8844 56.225C56.141 56.1443 56.4124 56.104 56.6984 56.104C56.9697 56.104 57.2374 56.1407 57.5014 56.214C57.7727 56.2873 58.022 56.3937 58.2494 56.533C58.4767 56.6723 58.6674 56.8373 58.8214 57.028L58.1724 57.743C58.033 57.6037 57.879 57.4827 57.7104 57.38C57.549 57.27 57.384 57.1857 57.2154 57.127C57.0467 57.0683 56.8927 57.039 56.7534 57.039C56.5994 57.039 56.46 57.0537 56.3354 57.083C56.2107 57.1123 56.1044 57.1563 56.0164 57.215C55.9357 57.2737 55.8734 57.347 55.8294 57.435C55.7854 57.523 55.7634 57.622 55.7634 57.732C55.7707 57.8273 55.7927 57.919 55.8294 58.007C55.8734 58.0877 55.932 58.1573 56.0054 58.216C56.086 58.2747 56.207 58.337 56.3684 58.403C56.5297 58.469 56.735 58.5313 56.9844 58.59C57.351 58.6853 57.6517 58.7917 57.8864 58.909C58.1284 59.019 58.319 59.1473 58.4584 59.294C58.605 59.4333 58.7077 59.5947 58.7664 59.778C58.825 59.9613 58.8544 60.1667 58.8544 60.394C58.8544 60.724 58.759 61.021 58.5684 61.285C58.385 61.5417 58.1357 61.7433 57.8204 61.89C57.505 62.0367 57.153 62.11 56.7644 62.11Z" fill="black"/>
</svg>
