<svg width="70" height="71" viewBox="0 0 70 71" fill="none" xmlns="http://www.w3.org/2000/svg">
<path d="M37.0657 4.5H31.9343C31.5349 4.5 31.2967 4.94507 31.5182 5.27735L32.916 7.37404C32.9708 7.45617 33 7.55268 33 7.65139V9V13C33 13.2761 32.7761 13.5 32.5 13.5H28.5H25.6514C25.5527 13.5 25.4562 13.4708 25.374 13.416L23.2773 12.0182C22.9451 11.7967 22.5 12.0349 22.5 12.4343V17.5657C22.5 17.9651 22.9451 18.2033 23.2774 17.9818L25.374 16.584C25.4562 16.5292 25.5527 16.5 25.6514 16.5H28.5H32.5C32.7761 16.5 33 16.7239 33 17V20.5V36.382C33 36.4596 32.9819 36.5361 32.9472 36.6056L31.8618 38.7764C31.6956 39.1088 31.9373 39.5 32.309 39.5H36.691C37.0627 39.5 37.3044 39.1088 37.1382 38.7764L36.0528 36.6056C36.0181 36.5361 36 36.4596 36 36.382V20.5V17C36 16.7239 36.2239 16.5 36.5 16.5H40.5H43.3486C43.4473 16.5 43.5438 16.5292 43.626 16.584L45.7227 17.9818C46.0549 18.2033 46.5 17.9651 46.5 17.5657V12.4343C46.5 12.0349 46.0549 11.7967 45.7227 12.0182L43.626 13.416C43.5438 13.4708 43.4473 13.5 43.3486 13.5H40.5H36.5C36.2239 13.5 36 13.2761 36 13V9V7.65139C36 7.55268 36.0292 7.45617 36.084 7.37404L37.4818 5.27735C37.7033 4.94507 37.4651 4.5 37.0657 4.5Z" fill="#4F4533"/>
<path d="M33 9V13C33 13.2761 32.7761 13.5 32.5 13.5H28.5M33 9V7.65139C33 7.55268 32.9708 7.45617 32.916 7.37404L31.5182 5.27735C31.2967 4.94507 31.5349 4.5 31.9343 4.5H37.0657C37.4651 4.5 37.7033 4.94507 37.4818 5.27735L36.084 7.37404C36.0292 7.45617 36 7.55268 36 7.65139V9M33 9C30.5 9 28.5 11 28.5 13.5M28.5 13.5H25.6514C25.5527 13.5 25.4562 13.4708 25.374 13.416L23.2773 12.0182C22.9451 11.7967 22.5 12.0349 22.5 12.4343V17.5657C22.5 17.9651 22.9451 18.2033 23.2774 17.9818L25.374 16.584C25.4562 16.5292 25.5527 16.5 25.6514 16.5H28.5M36 9V13C36 13.2761 36.2239 13.5 36.5 13.5H40.5M36 9C38.5 9 40.5 11 40.5 13.5M40.5 13.5H43.3486C43.4473 13.5 43.5438 13.4708 43.626 13.416L45.7227 12.0182C46.0549 11.7967 46.5 12.0349 46.5 12.4343V17.5657C46.5 17.9651 46.0549 18.2033 45.7226 17.9818L43.626 16.584C43.5438 16.5292 43.4473 16.5 43.3486 16.5H40.5M40.5 16.5H36.5C36.2239 16.5 36 16.7239 36 17V20.5M40.5 16.5C40.5 19 38.5 20.5 36 20.5M36 20.5V36.382C36 36.4596 36.0181 36.5361 36.0528 36.6056L37.1382 38.7764C37.3044 39.1088 37.0627 39.5 36.691 39.5H32.309C31.9373 39.5 31.6956 39.1088 31.8618 38.7764L32.9472 36.6056C32.9819 36.5361 33 36.4596 33 36.382V20.5M33 20.5V17C33 16.7239 32.7761 16.5 32.5 16.5H28.5M33 20.5C30.5 20.5 28.5 19 28.5 16.5" stroke="black"/>
<path d="M27.4712 51.11C26.9652 51.11 26.5068 51.0513 26.0962 50.934C25.6928 50.8093 25.3335 50.6333 25.0182 50.406C24.7028 50.1713 24.4205 49.8963 24.1712 49.581L25.3042 48.294C25.6708 48.7853 26.0375 49.1153 26.4042 49.284C26.7782 49.4527 27.1632 49.537 27.5592 49.537C27.7572 49.537 27.9368 49.5113 28.0982 49.46C28.2595 49.4087 28.3842 49.3353 28.4722 49.24C28.5602 49.1373 28.6042 49.0127 28.6042 48.866C28.6042 48.756 28.5748 48.657 28.5162 48.569C28.4648 48.481 28.3915 48.404 28.2962 48.338C28.2008 48.272 28.0872 48.2133 27.9552 48.162C27.8232 48.1033 27.6838 48.0557 27.5372 48.019C27.3905 47.975 27.2402 47.9383 27.0862 47.909C26.6608 47.8137 26.2905 47.6963 25.9752 47.557C25.6598 47.4177 25.3958 47.249 25.1832 47.051C24.9778 46.8457 24.8238 46.6147 24.7212 46.358C24.6185 46.094 24.5672 45.8007 24.5672 45.478C24.5672 45.1333 24.6442 44.818 24.7982 44.532C24.9595 44.2387 25.1722 43.9893 25.4362 43.784C25.7075 43.5713 26.0192 43.41 26.3712 43.3C26.7232 43.1827 27.0898 43.124 27.4712 43.124C27.9772 43.124 28.4098 43.179 28.7692 43.289C29.1358 43.3917 29.4475 43.542 29.7042 43.74C29.9682 43.938 30.1918 44.1763 30.3752 44.455L29.2202 45.566C29.0662 45.3753 28.8975 45.2177 28.7142 45.093C28.5382 44.9683 28.3475 44.873 28.1422 44.807C27.9442 44.741 27.7388 44.708 27.5262 44.708C27.3062 44.708 27.1155 44.7373 26.9542 44.796C26.8002 44.8473 26.6792 44.9243 26.5912 45.027C26.5032 45.1223 26.4592 45.2397 26.4592 45.379C26.4592 45.5037 26.4958 45.61 26.5692 45.698C26.6425 45.786 26.7415 45.8667 26.8662 45.94C26.9908 46.006 27.1338 46.0647 27.2952 46.116C27.4565 46.16 27.6252 46.1967 27.8012 46.226C28.2045 46.3067 28.5675 46.413 28.8902 46.545C29.2202 46.677 29.5025 46.8383 29.7372 47.029C29.9792 47.2197 30.1625 47.447 30.2872 47.711C30.4192 47.9677 30.4852 48.2683 30.4852 48.613C30.4852 49.1483 30.3532 49.603 30.0892 49.977C29.8325 50.3437 29.4768 50.626 29.0222 50.824C28.5748 51.0147 28.0578 51.11 27.4712 51.11ZM31.8909 51V43.3H33.7609V49.35H37.1929V51H31.8909ZM41.8771 51.11C41.2978 51.11 40.7625 51.0147 40.2711 50.824C39.7871 50.626 39.3655 50.351 39.0061 49.999C38.6468 49.6397 38.3681 49.218 38.1701 48.734C37.9795 48.2427 37.8841 47.7037 37.8841 47.117C37.8841 46.545 37.9868 46.017 38.1921 45.533C38.3975 45.049 38.6798 44.631 39.0391 44.279C39.4058 43.9197 39.8348 43.641 40.3261 43.443C40.8248 43.245 41.3675 43.146 41.9541 43.146C42.3208 43.146 42.6801 43.1937 43.0321 43.289C43.3841 43.3843 43.7105 43.5273 44.0111 43.718C44.3191 43.9013 44.5831 44.1213 44.8031 44.378L43.6591 45.687C43.5051 45.5257 43.3401 45.3863 43.1641 45.269C42.9955 45.1443 42.8085 45.049 42.6031 44.983C42.3978 44.917 42.1778 44.884 41.9431 44.884C41.6498 44.884 41.3711 44.939 41.1071 45.049C40.8505 45.1517 40.6231 45.302 40.4251 45.5C40.2345 45.6907 40.0841 45.9253 39.9741 46.204C39.8641 46.4827 39.8091 46.7943 39.8091 47.139C39.8091 47.4763 39.8641 47.7843 39.9741 48.063C40.0841 48.3343 40.2381 48.569 40.4361 48.767C40.6341 48.965 40.8725 49.1153 41.1511 49.218C41.4371 49.3207 41.7525 49.372 42.0971 49.372C42.3318 49.372 42.5555 49.339 42.7681 49.273C42.9808 49.207 43.1751 49.119 43.3511 49.009C43.5345 48.8917 43.6958 48.7597 43.8351 48.613L44.7371 50.043C44.5538 50.2483 44.3081 50.4317 44.0001 50.593C43.6995 50.7543 43.3621 50.8827 42.9881 50.978C42.6215 51.066 42.2511 51.11 41.8771 51.11ZM5.90468 65.11C5.48668 65.11 5.09802 65.055 4.73868 64.945C4.38668 64.835 4.06402 64.67 3.77068 64.45C3.48468 64.2227 3.22802 63.944 3.00068 63.614L3.81468 62.679C4.17402 63.1923 4.51868 63.548 4.84868 63.746C5.17868 63.944 5.57102 64.043 6.02568 64.043C6.30435 64.043 6.55735 63.999 6.78468 63.911C7.01202 63.823 7.19168 63.702 7.32368 63.548C7.45568 63.394 7.52168 63.218 7.52168 63.02C7.52168 62.888 7.49968 62.7633 7.45568 62.646C7.41168 62.5287 7.34202 62.4223 7.24668 62.327C7.15868 62.2317 7.04135 62.1437 6.89468 62.063C6.75535 61.9823 6.59035 61.9127 6.39968 61.854C6.20902 61.788 5.98902 61.733 5.73968 61.689C5.34368 61.6083 4.99902 61.502 4.70568 61.37C4.41235 61.238 4.16668 61.073 3.96868 60.875C3.77068 60.677 3.62402 60.4533 3.52868 60.204C3.43335 59.9473 3.38568 59.6613 3.38568 59.346C3.38568 59.038 3.45168 58.752 3.58368 58.488C3.72302 58.224 3.91002 57.9967 4.14468 57.806C4.38668 57.608 4.66902 57.4577 4.99168 57.355C5.31435 57.245 5.66268 57.19 6.03668 57.19C6.43268 57.19 6.79568 57.2413 7.12568 57.344C7.45568 57.4467 7.74902 57.6007 8.00568 57.806C8.26235 58.004 8.47502 58.2497 8.64368 58.543L7.80768 59.368C7.66102 59.126 7.49602 58.9243 7.31268 58.763C7.12935 58.5943 6.92768 58.4697 6.70768 58.389C6.48768 58.301 6.25302 58.257 6.00368 58.257C5.71768 58.257 5.46835 58.301 5.25568 58.389C5.04302 58.477 4.87435 58.6017 4.74968 58.763C4.63235 58.917 4.57368 59.1003 4.57368 59.313C4.57368 59.467 4.60302 59.61 4.66168 59.742C4.72035 59.8667 4.80835 59.9803 4.92568 60.083C5.05035 60.1783 5.21535 60.2663 5.42068 60.347C5.62602 60.4203 5.87168 60.4863 6.15768 60.545C6.56102 60.633 6.92035 60.7467 7.23568 60.886C7.55102 61.018 7.81868 61.1757 8.03868 61.359C8.25868 61.5423 8.42368 61.7477 8.53368 61.975C8.65102 62.2023 8.70968 62.448 8.70968 62.712C8.70968 63.2033 8.59602 63.6287 8.36868 63.988C8.14135 64.3473 7.81868 64.626 7.40068 64.824C6.98268 65.0147 6.48402 65.11 5.90468 65.11ZM10.8219 65V57.751H11.9549V65H10.8219ZM9.62294 60.325V59.225H13.2969V60.325H9.62294ZM14.7906 65.121C14.5486 65.121 14.3616 65.0513 14.2296 64.912C14.0976 64.7653 14.0316 64.56 14.0316 64.296C14.0316 64.054 14.1013 63.856 14.2406 63.702C14.38 63.548 14.5633 63.471 14.7906 63.471C15.0326 63.471 15.2196 63.5443 15.3516 63.691C15.4836 63.8303 15.5496 64.032 15.5496 64.296C15.5496 64.538 15.48 64.736 15.3406 64.89C15.2013 65.044 15.018 65.121 14.7906 65.121ZM19.3976 65L22.3786 57.3H23.5886L26.5476 65H25.2826L23.5226 60.358C23.5006 60.3067 23.4566 60.182 23.3906 59.984C23.3319 59.786 23.2622 59.566 23.1816 59.324C23.1009 59.082 23.0276 58.862 22.9616 58.664C22.8956 58.4587 22.8516 58.3267 22.8296 58.268L23.0826 58.257C23.0386 58.3817 22.9836 58.5393 22.9176 58.73C22.8589 58.9207 22.7929 59.1223 22.7196 59.335C22.6536 59.5477 22.5876 59.7493 22.5216 59.94C22.4556 60.1233 22.4006 60.2773 22.3566 60.402L20.6076 65H19.3976ZM20.7176 63.086L21.1576 61.942H24.6556L25.1616 63.086H20.7176ZM27.5947 65V59.225H28.7387V60.457L28.5297 60.589C28.5884 60.3983 28.68 60.215 28.8047 60.039C28.9367 59.863 29.0944 59.709 29.2777 59.577C29.4684 59.4377 29.67 59.3277 29.8827 59.247C30.1027 59.1663 30.3264 59.126 30.5537 59.126C30.8837 59.126 31.1734 59.181 31.4227 59.291C31.672 59.401 31.8774 59.566 32.0387 59.786C32.2 60.006 32.3174 60.281 32.3907 60.611L32.2147 60.567L32.2917 60.38C32.3724 60.2113 32.4824 60.0537 32.6217 59.907C32.7684 59.753 32.9334 59.6173 33.1167 59.5C33.3 59.3827 33.4944 59.291 33.6997 59.225C33.905 59.159 34.1067 59.126 34.3047 59.126C34.7374 59.126 35.093 59.214 35.3717 59.39C35.6577 59.566 35.8704 59.8337 36.0097 60.193C36.1564 60.5523 36.2297 60.9997 36.2297 61.535V65H35.0857V61.601C35.0857 61.271 35.0417 61.0033 34.9537 60.798C34.873 60.5853 34.7484 60.4277 34.5797 60.325C34.411 60.2223 34.1947 60.171 33.9307 60.171C33.7254 60.171 33.531 60.2077 33.3477 60.281C33.1717 60.347 33.0177 60.4423 32.8857 60.567C32.7537 60.6917 32.651 60.8383 32.5777 61.007C32.5044 61.1683 32.4677 61.348 32.4677 61.546V65H31.3237V61.579C31.3237 61.2783 31.2797 61.0253 31.1917 60.82C31.1037 60.6073 30.9754 60.446 30.8067 60.336C30.638 60.226 30.4327 60.171 30.1907 60.171C29.9854 60.171 29.7947 60.2077 29.6187 60.281C29.4427 60.347 29.2887 60.4423 29.1567 60.567C29.0247 60.6843 28.922 60.8273 28.8487 60.996C28.7754 61.1573 28.7387 61.3333 28.7387 61.524V65H27.5947ZM40.7826 65.11C40.5333 65.11 40.2839 65.0697 40.0346 64.989C39.7926 64.9083 39.5689 64.802 39.3636 64.67C39.1656 64.5307 38.9969 64.3803 38.8576 64.219C38.7256 64.0503 38.6376 63.8817 38.5936 63.713L38.8796 63.559V64.967H37.7466V56.86H38.8796V60.545L38.7036 60.446C38.7403 60.2773 38.8209 60.116 38.9456 59.962C39.0703 59.8007 39.2279 59.6577 39.4186 59.533C39.6166 59.401 39.8293 59.2983 40.0566 59.225C40.2839 59.1443 40.5149 59.104 40.7496 59.104C41.2703 59.104 41.7323 59.2323 42.1356 59.489C42.5389 59.7457 42.8579 60.1013 43.0926 60.556C43.3273 61.0033 43.4446 61.5167 43.4446 62.096C43.4446 62.6753 43.3273 63.1923 43.0926 63.647C42.8653 64.1017 42.5499 64.461 42.1466 64.725C41.7433 64.9817 41.2886 65.11 40.7826 65.11ZM40.5956 64.076C40.9329 64.076 41.2336 63.9917 41.4976 63.823C41.7616 63.647 41.9706 63.4123 42.1246 63.119C42.2786 62.8183 42.3556 62.4773 42.3556 62.096C42.3556 61.722 42.2786 61.3883 42.1246 61.095C41.9779 60.7943 41.7726 60.5597 41.5086 60.391C41.2446 60.2223 40.9403 60.138 40.5956 60.138C40.2509 60.138 39.9466 60.2223 39.6826 60.391C39.4186 60.5597 39.2096 60.7943 39.0556 61.095C38.9016 61.3883 38.8246 61.722 38.8246 62.096C38.8246 62.4773 38.9016 62.8183 39.0556 63.119C39.2096 63.4123 39.4186 63.647 39.6826 63.823C39.9466 63.9917 40.2509 64.076 40.5956 64.076ZM44.6753 65V59.225H45.8193V61.04L45.7093 60.6C45.79 60.3213 45.9256 60.0683 46.1163 59.841C46.3143 59.6137 46.538 59.434 46.7873 59.302C47.044 59.17 47.308 59.104 47.5793 59.104C47.704 59.104 47.8213 59.115 47.9313 59.137C48.0486 59.159 48.1403 59.1847 48.2063 59.214L47.9093 60.446C47.8213 60.4093 47.7223 60.38 47.6123 60.358C47.5096 60.3287 47.407 60.314 47.3043 60.314C47.1063 60.314 46.9156 60.3543 46.7323 60.435C46.5563 60.5083 46.3986 60.6147 46.2593 60.754C46.1273 60.886 46.021 61.0437 45.9403 61.227C45.8596 61.403 45.8193 61.5973 45.8193 61.81V65H44.6753ZM51.4608 65.11C50.8961 65.11 50.3901 64.9817 49.9428 64.725C49.5028 64.461 49.1544 64.1053 48.8978 63.658C48.6411 63.2033 48.5128 62.6863 48.5128 62.107C48.5128 61.5277 48.6411 61.0143 48.8978 60.567C49.1544 60.1123 49.5028 59.7567 49.9428 59.5C50.3901 59.236 50.8961 59.104 51.4608 59.104C52.0181 59.104 52.5168 59.236 52.9568 59.5C53.4041 59.7567 53.7561 60.1123 54.0128 60.567C54.2694 61.0143 54.3978 61.5277 54.3978 62.107C54.3978 62.6863 54.2694 63.2033 54.0128 63.658C53.7561 64.1053 53.4041 64.461 52.9568 64.725C52.5168 64.9817 52.0181 65.11 51.4608 65.11ZM51.4608 64.076C51.8054 64.076 52.1134 63.9917 52.3848 63.823C52.6561 63.647 52.8688 63.4123 53.0228 63.119C53.1768 62.8183 53.2501 62.481 53.2428 62.107C53.2501 61.7257 53.1768 61.3883 53.0228 61.095C52.8688 60.7943 52.6561 60.5597 52.3848 60.391C52.1134 60.2223 51.8054 60.138 51.4608 60.138C51.1161 60.138 50.8044 60.226 50.5258 60.402C50.2544 60.5707 50.0418 60.8053 49.8878 61.106C49.7338 61.3993 49.6604 61.733 49.6678 62.107C49.6604 62.481 49.7338 62.8183 49.8878 63.119C50.0418 63.4123 50.2544 63.647 50.5258 63.823C50.8044 63.9917 51.1161 64.076 51.4608 64.076ZM57.5573 65.11C57.0733 65.11 56.637 65.0257 56.2483 64.857C55.8597 64.6883 55.537 64.439 55.2803 64.109L56.0503 63.449C56.2703 63.7057 56.5087 63.8927 56.7653 64.01C57.0293 64.12 57.3263 64.175 57.6563 64.175C57.7883 64.175 57.9093 64.1603 58.0193 64.131C58.1367 64.0943 58.2357 64.043 58.3163 63.977C58.4043 63.911 58.4703 63.834 58.5143 63.746C58.5583 63.6507 58.5803 63.548 58.5803 63.438C58.5803 63.2473 58.5107 63.0933 58.3713 62.976C58.298 62.9247 58.1807 62.8697 58.0193 62.811C57.8653 62.745 57.6637 62.679 57.4143 62.613C56.989 62.503 56.6407 62.3783 56.3693 62.239C56.098 62.0997 55.889 61.942 55.7423 61.766C55.6323 61.6267 55.5517 61.4763 55.5003 61.315C55.449 61.1463 55.4233 60.963 55.4233 60.765C55.4233 60.523 55.4747 60.303 55.5773 60.105C55.6873 59.8997 55.834 59.7237 56.0173 59.577C56.208 59.423 56.428 59.3057 56.6773 59.225C56.934 59.1443 57.2053 59.104 57.4913 59.104C57.7627 59.104 58.0303 59.1407 58.2943 59.214C58.5657 59.2873 58.815 59.3937 59.0423 59.533C59.2697 59.6723 59.4603 59.8373 59.6143 60.028L58.9653 60.743C58.826 60.6037 58.672 60.4827 58.5033 60.38C58.342 60.27 58.177 60.1857 58.0083 60.127C57.8397 60.0683 57.6857 60.039 57.5463 60.039C57.3923 60.039 57.253 60.0537 57.1283 60.083C57.0037 60.1123 56.8973 60.1563 56.8093 60.215C56.7287 60.2737 56.6663 60.347 56.6223 60.435C56.5783 60.523 56.5563 60.622 56.5563 60.732C56.5637 60.8273 56.5857 60.919 56.6223 61.007C56.6663 61.0877 56.725 61.1573 56.7983 61.216C56.879 61.2747 57 61.337 57.1613 61.403C57.3227 61.469 57.528 61.5313 57.7773 61.59C58.144 61.6853 58.4447 61.7917 58.6793 61.909C58.9213 62.019 59.112 62.1473 59.2513 62.294C59.398 62.4333 59.5007 62.5947 59.5593 62.778C59.618 62.9613 59.6473 63.1667 59.6473 63.394C59.6473 63.724 59.552 64.021 59.3613 64.285C59.178 64.5417 58.9287 64.7433 58.6133 64.89C58.298 65.0367 57.946 65.11 57.5573 65.11ZM63.591 65.11C62.997 65.11 62.469 64.9853 62.007 64.736C61.5523 64.4793 61.193 64.131 60.929 63.691C60.6723 63.251 60.544 62.745 60.544 62.173C60.544 61.7183 60.6173 61.304 60.764 60.93C60.9107 60.556 61.1123 60.2333 61.369 59.962C61.633 59.6833 61.9447 59.4707 62.304 59.324C62.6707 59.17 63.0667 59.093 63.492 59.093C63.866 59.093 64.2143 59.1663 64.537 59.313C64.8597 59.4523 65.1383 59.6467 65.373 59.896C65.615 60.1453 65.7983 60.4423 65.923 60.787C66.055 61.1243 66.1173 61.4947 66.11 61.898L66.099 62.382H61.38L61.127 61.48H65.12L64.955 61.667V61.403C64.933 61.161 64.8523 60.9447 64.713 60.754C64.5737 60.5633 64.3977 60.413 64.185 60.303C63.9723 60.193 63.7413 60.138 63.492 60.138C63.096 60.138 62.7623 60.215 62.491 60.369C62.2197 60.5157 62.0143 60.7357 61.875 61.029C61.7357 61.315 61.666 61.6707 61.666 62.096C61.666 62.4993 61.7503 62.8513 61.919 63.152C62.0877 63.4453 62.326 63.6727 62.634 63.834C62.942 63.9953 63.2977 64.076 63.701 64.076C63.987 64.076 64.251 64.0283 64.493 63.933C64.7423 63.8377 65.01 63.6653 65.296 63.416L65.868 64.219C65.692 64.395 65.4757 64.549 65.219 64.681C64.9697 64.813 64.702 64.9193 64.416 65C64.1373 65.0733 63.8623 65.11 63.591 65.11Z" fill="black"/>
</svg>
