<svg width="63" height="54" viewBox="0 0 63 54" fill="none" xmlns="http://www.w3.org/2000/svg">
<path d="M20.0657 4.5H14.9343C14.5349 4.5 14.2967 4.94507 14.5182 5.27735L15.916 7.37404C15.9708 7.45617 16 7.55268 16 7.65139V9V13C16 13.2761 15.7761 13.5 15.5 13.5H11.5H8.65139C8.55268 13.5 8.45617 13.4708 8.37404 13.416L6.27735 12.0182C5.94507 11.7967 5.5 12.0349 5.5 12.4343V17.5657C5.5 17.9651 5.94507 18.2033 6.27735 17.9818L8.37404 16.584C8.45617 16.5292 8.55268 16.5 8.65139 16.5H11.5H15.5C15.7761 16.5 16 16.7239 16 17V20.5V36.382C16 36.4596 15.9819 36.5361 15.9472 36.6056L14.8618 38.7764C14.6956 39.1088 14.9373 39.5 15.309 39.5H19.691C20.0627 39.5 20.3044 39.1088 20.1382 38.7764L19.0528 36.6056C19.0181 36.5361 19 36.4596 19 36.382V20.5V17C19 16.7239 19.2239 16.5 19.5 16.5H23.5H26.3486C26.4473 16.5 26.5438 16.5292 26.626 16.584L28.7227 17.9818C29.0549 18.2033 29.5 17.9651 29.5 17.5657V12.4343C29.5 12.0349 29.0549 11.7967 28.7227 12.0182L26.626 13.416C26.5438 13.4708 26.4473 13.5 26.3486 13.5H23.5H19.5C19.2239 13.5 19 13.2761 19 13V9V7.65139C19 7.55268 19.0292 7.45617 19.084 7.37404L20.4818 5.27735C20.7033 4.94507 20.4651 4.5 20.0657 4.5Z" fill="#4F4533"/>
<path d="M16 9V13C16 13.2761 15.7761 13.5 15.5 13.5H11.5M16 9V7.65139C16 7.55268 15.9708 7.45617 15.916 7.37404L14.5182 5.27735C14.2967 4.94507 14.5349 4.5 14.9343 4.5H20.0657C20.4651 4.5 20.7033 4.94507 20.4818 5.27735L19.084 7.37404C19.0292 7.45617 19 7.55268 19 7.65139V9M16 9C13.5 9 11.5 11 11.5 13.5M11.5 13.5H8.65139C8.55268 13.5 8.45617 13.4708 8.37404 13.416L6.27735 12.0182C5.94507 11.7967 5.5 12.0349 5.5 12.4343V17.5657C5.5 17.9651 5.94507 18.2033 6.27735 17.9818L8.37404 16.584C8.45617 16.5292 8.55268 16.5 8.65139 16.5H11.5M19 9V13C19 13.2761 19.2239 13.5 19.5 13.5H23.5M19 9C21.5 9 23.5 11 23.5 13.5M23.5 13.5H26.3486C26.4473 13.5 26.5438 13.4708 26.626 13.416L28.7227 12.0182C29.0549 11.7967 29.5 12.0349 29.5 12.4343V17.5657C29.5 17.9651 29.0549 18.2033 28.7226 17.9818L26.626 16.584C26.5438 16.5292 26.4473 16.5 26.3486 16.5H23.5M23.5 16.5H19.5C19.2239 16.5 19 16.7239 19 17V20.5M23.5 16.5C23.5 19 21.5 20.5 19 20.5M19 20.5V36.382C19 36.4596 19.0181 36.5361 19.0528 36.6056L20.1382 38.7764C20.3044 39.1088 20.0627 39.5 19.691 39.5H15.309C14.9373 39.5 14.6956 39.1088 14.8618 38.7764L15.9472 36.6056C15.9819 36.5361 16 36.4596 16 36.382V20.5M16 20.5V17C16 16.7239 15.7761 16.5 15.5 16.5H11.5M16 20.5C13.5 20.5 11.5 19 11.5 16.5" stroke="black"/>
<path d="M26.9712 36.11C26.4652 36.11 26.0068 36.0513 25.5962 35.934C25.1928 35.8093 24.8335 35.6333 24.5182 35.406C24.2028 35.1713 23.9205 34.8963 23.6712 34.581L24.8042 33.294C25.1708 33.7853 25.5375 34.1153 25.9042 34.284C26.2782 34.4527 26.6632 34.537 27.0592 34.537C27.2572 34.537 27.4368 34.5113 27.5982 34.46C27.7595 34.4087 27.8842 34.3353 27.9722 34.24C28.0602 34.1373 28.1042 34.0127 28.1042 33.866C28.1042 33.756 28.0748 33.657 28.0162 33.569C27.9648 33.481 27.8915 33.404 27.7962 33.338C27.7008 33.272 27.5872 33.2133 27.4552 33.162C27.3232 33.1033 27.1838 33.0557 27.0372 33.019C26.8905 32.975 26.7402 32.9383 26.5862 32.909C26.1608 32.8137 25.7905 32.6963 25.4752 32.557C25.1598 32.4177 24.8958 32.249 24.6832 32.051C24.4778 31.8457 24.3238 31.6147 24.2212 31.358C24.1185 31.094 24.0672 30.8007 24.0672 30.478C24.0672 30.1333 24.1442 29.818 24.2982 29.532C24.4595 29.2387 24.6722 28.9893 24.9362 28.784C25.2075 28.5713 25.5192 28.41 25.8712 28.3C26.2232 28.1827 26.5898 28.124 26.9712 28.124C27.4772 28.124 27.9098 28.179 28.2692 28.289C28.6358 28.3917 28.9475 28.542 29.2042 28.74C29.4682 28.938 29.6918 29.1763 29.8752 29.455L28.7202 30.566C28.5662 30.3753 28.3975 30.2177 28.2142 30.093C28.0382 29.9683 27.8475 29.873 27.6422 29.807C27.4442 29.741 27.2388 29.708 27.0262 29.708C26.8062 29.708 26.6155 29.7373 26.4542 29.796C26.3002 29.8473 26.1792 29.9243 26.0912 30.027C26.0032 30.1223 25.9592 30.2397 25.9592 30.379C25.9592 30.5037 25.9958 30.61 26.0692 30.698C26.1425 30.786 26.2415 30.8667 26.3662 30.94C26.4908 31.006 26.6338 31.0647 26.7952 31.116C26.9565 31.16 27.1252 31.1967 27.3012 31.226C27.7045 31.3067 28.0675 31.413 28.3902 31.545C28.7202 31.677 29.0025 31.8383 29.2372 32.029C29.4792 32.2197 29.6625 32.447 29.7872 32.711C29.9192 32.9677 29.9852 33.2683 29.9852 33.613C29.9852 34.1483 29.8532 34.603 29.5892 34.977C29.3325 35.3437 28.9768 35.626 28.5222 35.824C28.0748 36.0147 27.5578 36.11 26.9712 36.11ZM31.3909 36V28.3H33.2609V34.35H36.6929V36H31.3909ZM41.3771 36.11C40.7978 36.11 40.2625 36.0147 39.7711 35.824C39.2871 35.626 38.8655 35.351 38.5061 34.999C38.1468 34.6397 37.8681 34.218 37.6701 33.734C37.4795 33.2427 37.3841 32.7037 37.3841 32.117C37.3841 31.545 37.4868 31.017 37.6921 30.533C37.8975 30.049 38.1798 29.631 38.5391 29.279C38.9058 28.9197 39.3348 28.641 39.8261 28.443C40.3248 28.245 40.8675 28.146 41.4541 28.146C41.8208 28.146 42.1801 28.1937 42.5321 28.289C42.8841 28.3843 43.2105 28.5273 43.5111 28.718C43.8191 28.9013 44.0831 29.1213 44.3031 29.378L43.1591 30.687C43.0051 30.5257 42.8401 30.3863 42.6641 30.269C42.4955 30.1443 42.3085 30.049 42.1031 29.983C41.8978 29.917 41.6778 29.884 41.4431 29.884C41.1498 29.884 40.8711 29.939 40.6071 30.049C40.3505 30.1517 40.1231 30.302 39.9251 30.5C39.7345 30.6907 39.5841 30.9253 39.4741 31.204C39.3641 31.4827 39.3091 31.7943 39.3091 32.139C39.3091 32.4763 39.3641 32.7843 39.4741 33.063C39.5841 33.3343 39.7381 33.569 39.9361 33.767C40.1341 33.965 40.3725 34.1153 40.6511 34.218C40.9371 34.3207 41.2525 34.372 41.5971 34.372C41.8318 34.372 42.0555 34.339 42.2681 34.273C42.4808 34.207 42.6751 34.119 42.8511 34.009C43.0345 33.8917 43.1958 33.7597 43.3351 33.613L44.2371 35.043C44.0538 35.2483 43.8081 35.4317 43.5001 35.593C43.1995 35.7543 42.8621 35.8827 42.4881 35.978C42.1215 36.066 41.7511 36.11 41.3771 36.11ZM10.2763 50.11C9.85827 50.11 9.4696 50.055 9.11027 49.945C8.75827 49.835 8.4356 49.67 8.14227 49.45C7.85627 49.2227 7.5996 48.944 7.37227 48.614L8.18627 47.679C8.5456 48.1923 8.89027 48.548 9.22027 48.746C9.55027 48.944 9.9426 49.043 10.3973 49.043C10.6759 49.043 10.9289 48.999 11.1563 48.911C11.3836 48.823 11.5633 48.702 11.6953 48.548C11.8273 48.394 11.8933 48.218 11.8933 48.02C11.8933 47.888 11.8713 47.7633 11.8273 47.646C11.7833 47.5287 11.7136 47.4223 11.6183 47.327C11.5303 47.2317 11.4129 47.1437 11.2663 47.063C11.1269 46.9823 10.9619 46.9127 10.7713 46.854C10.5806 46.788 10.3606 46.733 10.1113 46.689C9.71527 46.6083 9.3706 46.502 9.07727 46.37C8.78393 46.238 8.53827 46.073 8.34027 45.875C8.14227 45.677 7.9956 45.4533 7.90027 45.204C7.80493 44.9473 7.75727 44.6613 7.75727 44.346C7.75727 44.038 7.82327 43.752 7.95527 43.488C8.0946 43.224 8.2816 42.9967 8.51627 42.806C8.75827 42.608 9.0406 42.4577 9.36327 42.355C9.68593 42.245 10.0343 42.19 10.4083 42.19C10.8043 42.19 11.1673 42.2413 11.4973 42.344C11.8273 42.4467 12.1206 42.6007 12.3773 42.806C12.6339 43.004 12.8466 43.2497 13.0153 43.543L12.1793 44.368C12.0326 44.126 11.8676 43.9243 11.6843 43.763C11.5009 43.5943 11.2993 43.4697 11.0793 43.389C10.8593 43.301 10.6246 43.257 10.3753 43.257C10.0893 43.257 9.83993 43.301 9.62727 43.389C9.4146 43.477 9.24593 43.6017 9.12127 43.763C9.00393 43.917 8.94527 44.1003 8.94527 44.313C8.94527 44.467 8.9746 44.61 9.03327 44.742C9.09193 44.8667 9.17993 44.9803 9.29727 45.083C9.42193 45.1783 9.58693 45.2663 9.79227 45.347C9.9976 45.4203 10.2433 45.4863 10.5293 45.545C10.9326 45.633 11.2919 45.7467 11.6073 45.886C11.9226 46.018 12.1903 46.1757 12.4103 46.359C12.6303 46.5423 12.7953 46.7477 12.9053 46.975C13.0226 47.2023 13.0813 47.448 13.0813 47.712C13.0813 48.2033 12.9676 48.6287 12.7403 48.988C12.5129 49.3473 12.1903 49.626 11.7723 49.824C11.3543 50.0147 10.8556 50.11 10.2763 50.11ZM15.1935 50V42.751H16.3265V50H15.1935ZM13.9945 45.325V44.225H17.6685V45.325H13.9945ZM19.1622 50.121C18.9202 50.121 18.7332 50.0513 18.6012 49.912C18.4692 49.7653 18.4032 49.56 18.4032 49.296C18.4032 49.054 18.4729 48.856 18.6122 48.702C18.7515 48.548 18.9349 48.471 19.1622 48.471C19.4042 48.471 19.5912 48.5443 19.7232 48.691C19.8552 48.8303 19.9212 49.032 19.9212 49.296C19.9212 49.538 19.8515 49.736 19.7122 49.89C19.5729 50.044 19.3895 50.121 19.1622 50.121ZM24.5721 50V42.3H27.7071C28.1251 42.3 28.5028 42.4063 28.8401 42.619C29.1848 42.8243 29.4598 43.1067 29.6651 43.466C29.8705 43.8253 29.9731 44.225 29.9731 44.665C29.9731 45.105 29.8705 45.5047 29.6651 45.864C29.4598 46.2233 29.1848 46.513 28.8401 46.733C28.5028 46.9457 28.1251 47.052 27.7071 47.052H25.7601V50H24.5721ZM25.7601 45.908H27.6851C27.8831 45.908 28.0628 45.853 28.2241 45.743C28.3855 45.6257 28.5138 45.4753 28.6091 45.292C28.7118 45.1013 28.7631 44.8923 28.7631 44.665C28.7631 44.4377 28.7118 44.2323 28.6091 44.049C28.5138 43.8657 28.3855 43.719 28.2241 43.609C28.0628 43.499 27.8831 43.444 27.6851 43.444H25.7601V45.908ZM33.3724 50.11C32.8957 50.11 32.4594 49.978 32.0634 49.714C31.6747 49.45 31.3631 49.0907 31.1284 48.636C30.8937 48.1813 30.7764 47.668 30.7764 47.096C30.7764 46.5167 30.8937 46.0033 31.1284 45.556C31.3704 45.1013 31.6931 44.7457 32.0964 44.489C32.5071 44.2323 32.9654 44.104 33.4714 44.104C33.7721 44.104 34.0471 44.148 34.2964 44.236C34.5457 44.324 34.7621 44.4487 34.9454 44.61C35.1361 44.764 35.2901 44.9437 35.4074 45.149C35.5321 45.3543 35.6091 45.5743 35.6384 45.809L35.3854 45.721V44.225H36.5294V50H35.3854V48.625L35.6494 48.548C35.6054 48.746 35.5137 48.9403 35.3744 49.131C35.2424 49.3143 35.0701 49.4793 34.8574 49.626C34.6521 49.7727 34.4211 49.89 34.1644 49.978C33.9151 50.066 33.6511 50.11 33.3724 50.11ZM33.6694 49.065C34.0141 49.065 34.3184 48.9807 34.5824 48.812C34.8464 48.6433 35.0517 48.4123 35.1984 48.119C35.3524 47.8183 35.4294 47.4773 35.4294 47.096C35.4294 46.722 35.3524 46.3883 35.1984 46.095C35.0517 45.8017 34.8464 45.5707 34.5824 45.402C34.3184 45.2333 34.0141 45.149 33.6694 45.149C33.3321 45.149 33.0314 45.2333 32.7674 45.402C32.5107 45.5707 32.3054 45.8017 32.1514 46.095C32.0047 46.3883 31.9314 46.722 31.9314 47.096C31.9314 47.4773 32.0047 47.8183 32.1514 48.119C32.3054 48.4123 32.5107 48.6433 32.7674 48.812C33.0314 48.9807 33.3321 49.065 33.6694 49.065ZM38.8263 50V42.751H39.9593V50H38.8263ZM37.6273 45.325V44.225H41.3013V45.325H37.6273ZM42.333 50V44.225H43.477V46.04L43.367 45.6C43.4477 45.3213 43.5833 45.0683 43.774 44.841C43.972 44.6137 44.1957 44.434 44.445 44.302C44.7017 44.17 44.9657 44.104 45.237 44.104C45.3617 44.104 45.479 44.115 45.589 44.137C45.7063 44.159 45.798 44.1847 45.864 44.214L45.567 45.446C45.479 45.4093 45.38 45.38 45.27 45.358C45.1673 45.3287 45.0647 45.314 44.962 45.314C44.764 45.314 44.5733 45.3543 44.39 45.435C44.214 45.5083 44.0563 45.6147 43.917 45.754C43.785 45.886 43.6787 46.0437 43.598 46.227C43.5173 46.403 43.477 46.5973 43.477 46.81V50H42.333ZM46.9565 50V44.225H48.0895V50H46.9565ZM47.5065 42.949C47.2645 42.949 47.0775 42.8867 46.9455 42.762C46.8135 42.6373 46.7475 42.4613 46.7475 42.234C46.7475 42.0213 46.8135 41.849 46.9455 41.717C47.0849 41.585 47.2719 41.519 47.5065 41.519C47.7485 41.519 47.9355 41.5813 48.0675 41.706C48.1995 41.8307 48.2655 42.0067 48.2655 42.234C48.2655 42.4467 48.1959 42.619 48.0565 42.751C47.9245 42.883 47.7412 42.949 47.5065 42.949ZM52.2841 50.11C51.7487 50.11 51.2684 49.978 50.8431 49.714C50.4251 49.45 50.0914 49.0907 49.8421 48.636C49.6001 48.1813 49.4791 47.6717 49.4791 47.107C49.4791 46.5423 49.6001 46.0327 49.8421 45.578C50.0914 45.1233 50.4251 44.764 50.8431 44.5C51.2684 44.236 51.7487 44.104 52.2841 44.104C52.7974 44.104 53.2631 44.2103 53.6811 44.423C54.1064 44.6283 54.4291 44.9107 54.6491 45.27L54.0221 46.04C53.9047 45.8713 53.7544 45.7173 53.5711 45.578C53.3877 45.4387 53.1934 45.3287 52.9881 45.248C52.7827 45.1673 52.5847 45.127 52.3941 45.127C52.0421 45.127 51.7267 45.215 51.4481 45.391C51.1767 45.5597 50.9604 45.7943 50.7991 46.095C50.6377 46.3957 50.5571 46.733 50.5571 47.107C50.5571 47.481 50.6414 47.8183 50.8101 48.119C50.9787 48.4123 51.2024 48.647 51.4811 48.823C51.7597 48.999 52.0677 49.087 52.4051 49.087C52.6031 49.087 52.7937 49.054 52.9771 48.988C53.1677 48.922 53.3511 48.823 53.5271 48.691C53.7031 48.559 53.8681 48.3977 54.0221 48.207L54.6491 48.977C54.4144 49.307 54.0771 49.5783 53.6371 49.791C53.2044 50.0037 52.7534 50.11 52.2841 50.11ZM56.7518 48.196L56.6968 46.964L59.4578 44.225H60.9868L56.7518 48.196ZM55.7178 50V41.86H56.8508V50H55.7178ZM59.6118 50L57.4338 47.459L58.2368 46.722L61.0638 50H59.6118Z" fill="black"/>
</svg>
