<svg width="62" height="79" viewBox="0 0 62 79" fill="none" xmlns="http://www.w3.org/2000/svg">
<path d="M33.0657 4.5H27.9343C27.5349 4.5 27.2967 4.94507 27.5182 5.27735L28.916 7.37404C28.9708 7.45617 29 7.55268 29 7.65139V9V13C29 13.2761 28.7761 13.5 28.5 13.5H24.5H21.6514C21.5527 13.5 21.4562 13.4708 21.374 13.416L19.2773 12.0182C18.9451 11.7967 18.5 12.0349 18.5 12.4343V17.5657C18.5 17.9651 18.9451 18.2033 19.2774 17.9818L21.374 16.584C21.4562 16.5292 21.5527 16.5 21.6514 16.5H24.5H28.5C28.7761 16.5 29 16.7239 29 17V20.5V36.382C29 36.4596 28.9819 36.5361 28.9472 36.6056L27.8618 38.7764C27.6956 39.1088 27.9373 39.5 28.309 39.5H32.691C33.0627 39.5 33.3044 39.1088 33.1382 38.7764L32.0528 36.6056C32.0181 36.5361 32 36.4596 32 36.382V20.5V17C32 16.7239 32.2239 16.5 32.5 16.5H36.5H39.3486C39.4473 16.5 39.5438 16.5292 39.626 16.584L41.7227 17.9818C42.0549 18.2033 42.5 17.9651 42.5 17.5657V12.4343C42.5 12.0349 42.0549 11.7967 41.7227 12.0182L39.626 13.416C39.5438 13.4708 39.4473 13.5 39.3486 13.5H36.5H32.5C32.2239 13.5 32 13.2761 32 13V9V7.65139C32 7.55268 32.0292 7.45617 32.084 7.37404L33.4818 5.27735C33.7033 4.94507 33.4651 4.5 33.0657 4.5Z" fill="#4F4533"/>
<path d="M29 9V13C29 13.2761 28.7761 13.5 28.5 13.5H24.5M29 9V7.65139C29 7.55268 28.9708 7.45617 28.916 7.37404L27.5182 5.27735C27.2967 4.94507 27.5349 4.5 27.9343 4.5H33.0657C33.4651 4.5 33.7033 4.94507 33.4818 5.27735L32.084 7.37404C32.0292 7.45617 32 7.55268 32 7.65139V9M29 9C26.5 9 24.5 11 24.5 13.5M24.5 13.5H21.6514C21.5527 13.5 21.4562 13.4708 21.374 13.416L19.2773 12.0182C18.9451 11.7967 18.5 12.0349 18.5 12.4343V17.5657C18.5 17.9651 18.9451 18.2033 19.2774 17.9818L21.374 16.584C21.4562 16.5292 21.5527 16.5 21.6514 16.5H24.5M32 9V13C32 13.2761 32.2239 13.5 32.5 13.5H36.5M32 9C34.5 9 36.5 11 36.5 13.5M36.5 13.5H39.3486C39.4473 13.5 39.5438 13.4708 39.626 13.416L41.7227 12.0182C42.0549 11.7967 42.5 12.0349 42.5 12.4343V17.5657C42.5 17.9651 42.0549 18.2033 41.7226 17.9818L39.626 16.584C39.5438 16.5292 39.4473 16.5 39.3486 16.5H36.5M36.5 16.5H32.5C32.2239 16.5 32 16.7239 32 17V20.5M36.5 16.5C36.5 19 34.5 20.5 32 20.5M32 20.5V36.382C32 36.4596 32.0181 36.5361 32.0528 36.6056L33.1382 38.7764C33.3044 39.1088 33.0627 39.5 32.691 39.5H28.309C27.9373 39.5 27.6956 39.1088 27.8618 38.7764L28.9472 36.6056C28.9819 36.5361 29 36.4596 29 36.382V20.5M29 20.5V17C29 16.7239 28.7761 16.5 28.5 16.5H24.5M29 20.5C26.5 20.5 24.5 19 24.5 16.5" stroke="black"/>
<path d="M16.4082 48.11C15.9022 48.11 15.4439 48.0513 15.0332 47.934C14.6299 47.8093 14.2705 47.6333 13.9552 47.406C13.6399 47.1713 13.3575 46.8963 13.1082 46.581L14.2412 45.294C14.6079 45.7853 14.9745 46.1153 15.3412 46.284C15.7152 46.4527 16.1002 46.537 16.4962 46.537C16.6942 46.537 16.8739 46.5113 17.0352 46.46C17.1965 46.4087 17.3212 46.3353 17.4092 46.24C17.4972 46.1373 17.5412 46.0127 17.5412 45.866C17.5412 45.756 17.5119 45.657 17.4532 45.569C17.4019 45.481 17.3285 45.404 17.2332 45.338C17.1379 45.272 17.0242 45.2133 16.8922 45.162C16.7602 45.1033 16.6209 45.0557 16.4742 45.019C16.3275 44.975 16.1772 44.9383 16.0232 44.909C15.5979 44.8137 15.2275 44.6963 14.9122 44.557C14.5969 44.4177 14.3329 44.249 14.1202 44.051C13.9149 43.8457 13.7609 43.6147 13.6582 43.358C13.5555 43.094 13.5042 42.8007 13.5042 42.478C13.5042 42.1333 13.5812 41.818 13.7352 41.532C13.8965 41.2387 14.1092 40.9893 14.3732 40.784C14.6445 40.5713 14.9562 40.41 15.3082 40.3C15.6602 40.1827 16.0269 40.124 16.4082 40.124C16.9142 40.124 17.3469 40.179 17.7062 40.289C18.0729 40.3917 18.3845 40.542 18.6412 40.74C18.9052 40.938 19.1289 41.1763 19.3122 41.455L18.1572 42.566C18.0032 42.3753 17.8345 42.2177 17.6512 42.093C17.4752 41.9683 17.2845 41.873 17.0792 41.807C16.8812 41.741 16.6759 41.708 16.4632 41.708C16.2432 41.708 16.0525 41.7373 15.8912 41.796C15.7372 41.8473 15.6162 41.9243 15.5282 42.027C15.4402 42.1223 15.3962 42.2397 15.3962 42.379C15.3962 42.5037 15.4329 42.61 15.5062 42.698C15.5795 42.786 15.6785 42.8667 15.8032 42.94C15.9279 43.006 16.0709 43.0647 16.2322 43.116C16.3935 43.16 16.5622 43.1967 16.7382 43.226C17.1415 43.3067 17.5045 43.413 17.8272 43.545C18.1572 43.677 18.4395 43.8383 18.6742 44.029C18.9162 44.2197 19.0995 44.447 19.2242 44.711C19.3562 44.9677 19.4222 45.2683 19.4222 45.613C19.4222 46.1483 19.2902 46.603 19.0262 46.977C18.7695 47.3437 18.4139 47.626 17.9592 47.824C17.5119 48.0147 16.9949 48.11 16.4082 48.11ZM22.7969 48.099C22.3055 48.099 21.8655 47.9707 21.4769 47.714C21.0955 47.45 20.7912 47.0907 20.5639 46.636C20.3365 46.174 20.2229 45.6533 20.2229 45.074C20.2229 44.48 20.3365 43.9557 20.5639 43.501C20.7912 43.0463 21.1029 42.6907 21.4989 42.434C21.8949 42.17 22.3459 42.038 22.8519 42.038C23.1305 42.038 23.3835 42.0783 23.6109 42.159C23.8455 42.2397 24.0509 42.3533 24.2269 42.5C24.4029 42.6393 24.5532 42.8043 24.6779 42.995C24.8025 43.1783 24.8942 43.3763 24.9529 43.589L24.5899 43.545V42.159H26.3389V48H24.5569V46.592L24.9529 46.581C24.8942 46.7863 24.7989 46.9807 24.6669 47.164C24.5349 47.3473 24.3735 47.5087 24.1829 47.648C23.9922 47.7873 23.7795 47.8973 23.5449 47.978C23.3102 48.0587 23.0609 48.099 22.7969 48.099ZM23.2809 46.614C23.5522 46.614 23.7869 46.5517 23.9849 46.427C24.1829 46.3023 24.3369 46.1263 24.4469 45.899C24.5569 45.6643 24.6119 45.3893 24.6119 45.074C24.6119 44.7587 24.5569 44.4873 24.4469 44.26C24.3369 44.0253 24.1829 43.8457 23.9849 43.721C23.7869 43.589 23.5522 43.523 23.2809 43.523C23.0169 43.523 22.7859 43.589 22.5879 43.721C22.3972 43.8457 22.2469 44.0253 22.1369 44.26C22.0269 44.4873 21.9719 44.7587 21.9719 45.074C21.9719 45.3893 22.0269 45.6643 22.1369 45.899C22.2469 46.1263 22.3972 46.3023 22.5879 46.427C22.7859 46.5517 23.0169 46.614 23.2809 46.614ZM27.8918 48V42.159H29.5638L29.6188 43.347L29.2668 43.479C29.3475 43.215 29.4905 42.9767 29.6958 42.764C29.9085 42.544 30.1615 42.368 30.4548 42.236C30.7482 42.104 31.0562 42.038 31.3788 42.038C31.8188 42.038 32.1892 42.1297 32.4898 42.313C32.7905 42.489 33.0178 42.7567 33.1718 43.116C33.3258 43.468 33.4028 43.9007 33.4028 44.414V48H31.6318V44.557C31.6318 44.3223 31.5988 44.128 31.5328 43.974C31.4668 43.82 31.3642 43.7063 31.2248 43.633C31.0928 43.5523 30.9278 43.5157 30.7298 43.523C30.5758 43.523 30.4328 43.5487 30.3008 43.6C30.1688 43.644 30.0552 43.7137 29.9598 43.809C29.8645 43.897 29.7875 43.9997 29.7288 44.117C29.6775 44.2343 29.6518 44.3627 29.6518 44.502V48H28.7828C28.5775 48 28.4015 48 28.2548 48C28.1082 48 27.9872 48 27.8918 48ZM37.0853 48.121C36.5793 48.121 36.1283 47.9927 35.7323 47.736C35.3436 47.472 35.0356 47.1127 34.8083 46.658C34.5809 46.196 34.4673 45.6717 34.4673 45.085C34.4673 44.4983 34.5809 43.9777 34.8083 43.523C35.0356 43.061 35.3473 42.698 35.7433 42.434C36.1393 42.17 36.5939 42.038 37.1073 42.038C37.3713 42.038 37.6243 42.0783 37.8663 42.159C38.1083 42.2397 38.3283 42.3497 38.5263 42.489C38.7243 42.6283 38.8856 42.7897 39.0103 42.973C39.1349 43.149 39.2083 43.3323 39.2303 43.523L38.8123 43.622V39.86H40.5833V48H38.9443L38.8453 46.669L39.1973 46.724C39.1753 46.9073 39.1019 47.0833 38.9773 47.252C38.8599 47.4207 38.7059 47.571 38.5153 47.703C38.3246 47.8277 38.1046 47.9267 37.8553 48C37.6133 48.0807 37.3566 48.121 37.0853 48.121ZM37.5363 46.658C37.8076 46.658 38.0423 46.592 38.2403 46.46C38.4383 46.328 38.5886 46.1447 38.6913 45.91C38.8013 45.6753 38.8563 45.4003 38.8563 45.085C38.8563 44.7623 38.8013 44.4837 38.6913 44.249C38.5886 44.0143 38.4383 43.831 38.2403 43.699C38.0423 43.567 37.8076 43.501 37.5363 43.501C37.2649 43.501 37.0303 43.567 36.8323 43.699C36.6416 43.831 36.4913 44.0143 36.3813 44.249C36.2713 44.4837 36.2163 44.7623 36.2163 45.085C36.2163 45.4003 36.2713 45.6753 36.3813 45.91C36.4913 46.1447 36.6416 46.328 36.8323 46.46C37.0303 46.592 37.2649 46.658 37.5363 46.658ZM42.8085 50.53L44.1395 47.395L44.1615 48.297L41.3455 42.159H43.3365L44.5685 45.096C44.6345 45.2427 44.6969 45.4003 44.7555 45.569C44.8142 45.7377 44.8582 45.899 44.8875 46.053L44.6455 46.196C44.6895 46.086 44.7372 45.9503 44.7885 45.789C44.8472 45.6203 44.9095 45.4407 44.9755 45.25L46.0535 42.159H48.0555L45.5695 48L44.5575 50.53H42.8085ZM11.329 62V54.3H14.541C15.0323 54.3 15.4466 54.3733 15.784 54.52C16.1213 54.6667 16.3743 54.8867 16.543 55.18C16.719 55.466 16.807 55.818 16.807 56.236C16.807 56.654 16.6896 57.0097 16.455 57.303C16.2276 57.5963 15.9086 57.798 15.498 57.908V57.688C15.8426 57.7613 16.1433 57.8933 16.4 58.084C16.6566 58.2673 16.8546 58.4983 16.994 58.777C17.1406 59.0557 17.214 59.3747 17.214 59.734C17.214 60.1007 17.1553 60.427 17.038 60.713C16.928 60.9917 16.7593 61.2263 16.532 61.417C16.312 61.6077 16.0443 61.7543 15.729 61.857C15.4136 61.9523 15.0543 62 14.651 62H11.329ZM12.517 60.856H14.585C14.8856 60.856 15.1386 60.812 15.344 60.724C15.5566 60.636 15.718 60.5077 15.828 60.339C15.9453 60.163 16.004 59.954 16.004 59.712C16.004 59.4847 15.9416 59.2903 15.817 59.129C15.6996 58.9677 15.531 58.8467 15.311 58.766C15.091 58.678 14.8306 58.634 14.53 58.634H12.517V60.856ZM12.517 57.49H14.475C14.695 57.49 14.8893 57.446 15.058 57.358C15.234 57.27 15.3696 57.149 15.465 56.995C15.5676 56.841 15.619 56.665 15.619 56.467C15.619 56.137 15.509 55.884 15.289 55.708C15.069 55.532 14.7536 55.444 14.343 55.444H12.517V57.49ZM18.5201 62V53.86H19.6531V62H18.5201ZM23.8464 62.11C23.2524 62.11 22.7244 61.9853 22.2624 61.736C21.8077 61.4793 21.4484 61.131 21.1844 60.691C20.9277 60.251 20.7994 59.745 20.7994 59.173C20.7994 58.7183 20.8727 58.304 21.0194 57.93C21.166 57.556 21.3677 57.2333 21.6244 56.962C21.8884 56.6833 22.2 56.4707 22.5594 56.324C22.926 56.17 23.322 56.093 23.7474 56.093C24.1214 56.093 24.4697 56.1663 24.7924 56.313C25.115 56.4523 25.3937 56.6467 25.6284 56.896C25.8704 57.1453 26.0537 57.4423 26.1784 57.787C26.3104 58.1243 26.3727 58.4947 26.3654 58.898L26.3544 59.382H21.6354L21.3824 58.48H25.3754L25.2104 58.667V58.403C25.1884 58.161 25.1077 57.9447 24.9684 57.754C24.829 57.5633 24.653 57.413 24.4404 57.303C24.2277 57.193 23.9967 57.138 23.7474 57.138C23.3514 57.138 23.0177 57.215 22.7464 57.369C22.475 57.5157 22.2697 57.7357 22.1304 58.029C21.991 58.315 21.9214 58.6707 21.9214 59.096C21.9214 59.4993 22.0057 59.8513 22.1744 60.152C22.343 60.4453 22.5814 60.6727 22.8894 60.834C23.1974 60.9953 23.553 61.076 23.9564 61.076C24.2424 61.076 24.5064 61.0283 24.7484 60.933C24.9977 60.8377 25.2654 60.6653 25.5514 60.416L26.1234 61.219C25.9474 61.395 25.731 61.549 25.4744 61.681C25.225 61.813 24.9574 61.9193 24.6714 62C24.3927 62.0733 24.1177 62.11 23.8464 62.11ZM29.5217 62.11C29.0377 62.11 28.6014 62.0257 28.2127 61.857C27.824 61.6883 27.5014 61.439 27.2447 61.109L28.0147 60.449C28.2347 60.7057 28.473 60.8927 28.7297 61.01C28.9937 61.12 29.2907 61.175 29.6207 61.175C29.7527 61.175 29.8737 61.1603 29.9837 61.131C30.101 61.0943 30.2 61.043 30.2807 60.977C30.3687 60.911 30.4347 60.834 30.4787 60.746C30.5227 60.6507 30.5447 60.548 30.5447 60.438C30.5447 60.2473 30.475 60.0933 30.3357 59.976C30.2624 59.9247 30.145 59.8697 29.9837 59.811C29.8297 59.745 29.628 59.679 29.3787 59.613C28.9534 59.503 28.605 59.3783 28.3337 59.239C28.0624 59.0997 27.8534 58.942 27.7067 58.766C27.5967 58.6267 27.516 58.4763 27.4647 58.315C27.4134 58.1463 27.3877 57.963 27.3877 57.765C27.3877 57.523 27.439 57.303 27.5417 57.105C27.6517 56.8997 27.7984 56.7237 27.9817 56.577C28.1724 56.423 28.3924 56.3057 28.6417 56.225C28.8984 56.1443 29.1697 56.104 29.4557 56.104C29.727 56.104 29.9947 56.1407 30.2587 56.214C30.53 56.2873 30.7794 56.3937 31.0067 56.533C31.234 56.6723 31.4247 56.8373 31.5787 57.028L30.9297 57.743C30.7904 57.6037 30.6364 57.4827 30.4677 57.38C30.3064 57.27 30.1414 57.1857 29.9727 57.127C29.804 57.0683 29.65 57.039 29.5107 57.039C29.3567 57.039 29.2174 57.0537 29.0927 57.083C28.968 57.1123 28.8617 57.1563 28.7737 57.215C28.693 57.2737 28.6307 57.347 28.5867 57.435C28.5427 57.523 28.5207 57.622 28.5207 57.732C28.528 57.8273 28.55 57.919 28.5867 58.007C28.6307 58.0877 28.6894 58.1573 28.7627 58.216C28.8434 58.2747 28.9644 58.337 29.1257 58.403C29.287 58.469 29.4924 58.5313 29.7417 58.59C30.1084 58.6853 30.409 58.7917 30.6437 58.909C30.8857 59.019 31.0764 59.1473 31.2157 59.294C31.3624 59.4333 31.465 59.5947 31.5237 59.778C31.5824 59.9613 31.6117 60.1667 31.6117 60.394C31.6117 60.724 31.5164 61.021 31.3257 61.285C31.1424 61.5417 30.893 61.7433 30.5777 61.89C30.2624 62.0367 29.9104 62.11 29.5217 62.11ZM34.7854 62.11C34.3014 62.11 33.865 62.0257 33.4764 61.857C33.0877 61.6883 32.765 61.439 32.5084 61.109L33.2784 60.449C33.4984 60.7057 33.7367 60.8927 33.9934 61.01C34.2574 61.12 34.5544 61.175 34.8844 61.175C35.0164 61.175 35.1374 61.1603 35.2474 61.131C35.3647 61.0943 35.4637 61.043 35.5444 60.977C35.6324 60.911 35.6984 60.834 35.7424 60.746C35.7864 60.6507 35.8084 60.548 35.8084 60.438C35.8084 60.2473 35.7387 60.0933 35.5994 59.976C35.526 59.9247 35.4087 59.8697 35.2474 59.811C35.0934 59.745 34.8917 59.679 34.6424 59.613C34.217 59.503 33.8687 59.3783 33.5974 59.239C33.326 59.0997 33.117 58.942 32.9704 58.766C32.8604 58.6267 32.7797 58.4763 32.7284 58.315C32.677 58.1463 32.6514 57.963 32.6514 57.765C32.6514 57.523 32.7027 57.303 32.8054 57.105C32.9154 56.8997 33.062 56.7237 33.2454 56.577C33.436 56.423 33.656 56.3057 33.9054 56.225C34.162 56.1443 34.4334 56.104 34.7194 56.104C34.9907 56.104 35.2584 56.1407 35.5224 56.214C35.7937 56.2873 36.043 56.3937 36.2704 56.533C36.4977 56.6723 36.6884 56.8373 36.8424 57.028L36.1934 57.743C36.054 57.6037 35.9 57.4827 35.7314 57.38C35.57 57.27 35.405 57.1857 35.2364 57.127C35.0677 57.0683 34.9137 57.039 34.7744 57.039C34.6204 57.039 34.481 57.0537 34.3564 57.083C34.2317 57.1123 34.1254 57.1563 34.0374 57.215C33.9567 57.2737 33.8944 57.347 33.8504 57.435C33.8064 57.523 33.7844 57.622 33.7844 57.732C33.7917 57.8273 33.8137 57.919 33.8504 58.007C33.8944 58.0877 33.953 58.1573 34.0264 58.216C34.107 58.2747 34.228 58.337 34.3894 58.403C34.5507 58.469 34.756 58.5313 35.0054 58.59C35.372 58.6853 35.6727 58.7917 35.9074 58.909C36.1494 59.019 36.34 59.1473 36.4794 59.294C36.626 59.4333 36.7287 59.5947 36.7874 59.778C36.846 59.9613 36.8754 60.1667 36.8754 60.394C36.8754 60.724 36.78 61.021 36.5894 61.285C36.406 61.5417 36.1567 61.7433 35.8414 61.89C35.526 62.0367 35.174 62.11 34.7854 62.11ZM40.819 62.11C40.225 62.11 39.697 61.9853 39.235 61.736C38.7804 61.4793 38.421 61.131 38.157 60.691C37.9004 60.251 37.772 59.745 37.772 59.173C37.772 58.7183 37.8454 58.304 37.992 57.93C38.1387 57.556 38.3404 57.2333 38.597 56.962C38.861 56.6833 39.1727 56.4707 39.532 56.324C39.8987 56.17 40.2947 56.093 40.72 56.093C41.094 56.093 41.4424 56.1663 41.765 56.313C42.0877 56.4523 42.3664 56.6467 42.601 56.896C42.843 57.1453 43.0264 57.4423 43.151 57.787C43.283 58.1243 43.3454 58.4947 43.338 58.898L43.327 59.382H38.608L38.355 58.48H42.348L42.183 58.667V58.403C42.161 58.161 42.0804 57.9447 41.941 57.754C41.8017 57.5633 41.6257 57.413 41.413 57.303C41.2004 57.193 40.9694 57.138 40.72 57.138C40.324 57.138 39.9904 57.215 39.719 57.369C39.4477 57.5157 39.2424 57.7357 39.103 58.029C38.9637 58.315 38.894 58.6707 38.894 59.096C38.894 59.4993 38.9784 59.8513 39.147 60.152C39.3157 60.4453 39.554 60.6727 39.862 60.834C40.17 60.9953 40.5257 61.076 40.929 61.076C41.215 61.076 41.479 61.0283 41.721 60.933C41.9704 60.8377 42.238 60.6653 42.524 60.416L43.096 61.219C42.92 61.395 42.7037 61.549 42.447 61.681C42.1977 61.813 41.93 61.9193 41.644 62C41.3654 62.0733 41.0904 62.11 40.819 62.11ZM46.9783 62.11C46.4503 62.11 45.9773 61.9817 45.5593 61.725C45.1487 61.461 44.8223 61.1053 44.5803 60.658C44.3383 60.2033 44.2173 59.6863 44.2173 59.107C44.2173 58.5277 44.3347 58.0143 44.5693 57.567C44.8113 57.1123 45.1377 56.7567 45.5483 56.5C45.959 56.236 46.4247 56.104 46.9453 56.104C47.2313 56.104 47.5063 56.1517 47.7703 56.247C48.0417 56.335 48.2837 56.4597 48.4963 56.621C48.709 56.775 48.874 56.9473 48.9913 57.138C49.116 57.3213 49.1783 57.5083 49.1783 57.699L48.8483 57.721V53.86H49.9813V62H48.8483V60.625H49.0683C49.0683 60.801 49.0097 60.977 48.8923 61.153C48.775 61.3217 48.6173 61.4793 48.4193 61.626C48.2287 61.7727 48.005 61.89 47.7483 61.978C47.499 62.066 47.2423 62.11 46.9783 62.11ZM47.1323 61.131C47.477 61.131 47.7813 61.043 48.0453 60.867C48.3093 60.691 48.5147 60.4527 48.6613 60.152C48.8153 59.844 48.8923 59.4957 48.8923 59.107C48.8923 58.7183 48.8153 58.3737 48.6613 58.073C48.5147 57.765 48.3093 57.523 48.0453 57.347C47.7813 57.171 47.477 57.083 47.1323 57.083C46.7877 57.083 46.4833 57.171 46.2193 57.347C45.9553 57.523 45.7463 57.765 45.5923 58.073C45.4457 58.3737 45.3723 58.7183 45.3723 59.107C45.3723 59.4957 45.4457 59.844 45.5923 60.152C45.7463 60.4527 45.9553 60.691 46.2193 60.867C46.4833 61.043 46.7877 61.131 47.1323 61.131ZM4.85341 76.11C4.43541 76.11 4.04675 76.055 3.68741 75.945C3.33541 75.835 3.01275 75.67 2.71941 75.45C2.43341 75.2227 2.17675 74.944 1.94941 74.614L2.76341 73.679C3.12275 74.1923 3.46741 74.548 3.79741 74.746C4.12741 74.944 4.51975 75.043 4.97441 75.043C5.25308 75.043 5.50608 74.999 5.73341 74.911C5.96075 74.823 6.14041 74.702 6.27241 74.548C6.40441 74.394 6.47041 74.218 6.47041 74.02C6.47041 73.888 6.44841 73.7633 6.40441 73.646C6.36041 73.5287 6.29075 73.4223 6.19541 73.327C6.10741 73.2317 5.99008 73.1437 5.84341 73.063C5.70408 72.9823 5.53908 72.9127 5.34841 72.854C5.15775 72.788 4.93775 72.733 4.68841 72.689C4.29241 72.6083 3.94775 72.502 3.65441 72.37C3.36108 72.238 3.11541 72.073 2.91741 71.875C2.71941 71.677 2.57275 71.4533 2.47741 71.204C2.38208 70.9473 2.33441 70.6613 2.33441 70.346C2.33441 70.038 2.40041 69.752 2.53241 69.488C2.67175 69.224 2.85875 68.9967 3.09341 68.806C3.33541 68.608 3.61775 68.4577 3.94041 68.355C4.26308 68.245 4.61141 68.19 4.98541 68.19C5.38141 68.19 5.74441 68.2413 6.07441 68.344C6.40441 68.4467 6.69775 68.6007 6.95441 68.806C7.21108 69.004 7.42375 69.2497 7.59241 69.543L6.75641 70.368C6.60975 70.126 6.44475 69.9243 6.26141 69.763C6.07808 69.5943 5.87641 69.4697 5.65641 69.389C5.43641 69.301 5.20175 69.257 4.95241 69.257C4.66641 69.257 4.41708 69.301 4.20441 69.389C3.99175 69.477 3.82308 69.6017 3.69841 69.763C3.58108 69.917 3.52241 70.1003 3.52241 70.313C3.52241 70.467 3.55175 70.61 3.61041 70.742C3.66908 70.8667 3.75708 70.9803 3.87441 71.083C3.99908 71.1783 4.16408 71.2663 4.36941 71.347C4.57475 71.4203 4.82041 71.4863 5.10641 71.545C5.50975 71.633 5.86908 71.7467 6.18441 71.886C6.49975 72.018 6.76741 72.1757 6.98741 72.359C7.20741 72.5423 7.37241 72.7477 7.48241 72.975C7.59975 73.2023 7.65841 73.448 7.65841 73.712C7.65841 74.2033 7.54475 74.6287 7.31741 74.988C7.09008 75.3473 6.76741 75.626 6.34941 75.824C5.93141 76.0147 5.43275 76.11 4.85341 76.11ZM11.2777 76.11C10.801 76.11 10.3647 75.978 9.96867 75.714C9.58001 75.45 9.26834 75.0907 9.03367 74.636C8.79901 74.1813 8.68167 73.668 8.68167 73.096C8.68167 72.5167 8.79901 72.0033 9.03367 71.556C9.27567 71.1013 9.59834 70.7457 10.0017 70.489C10.4123 70.2323 10.8707 70.104 11.3767 70.104C11.6773 70.104 11.9523 70.148 12.2017 70.236C12.451 70.324 12.6673 70.4487 12.8507 70.61C13.0413 70.764 13.1953 70.9437 13.3127 71.149C13.4373 71.3543 13.5143 71.5743 13.5437 71.809L13.2907 71.721V70.225H14.4347V76H13.2907V74.625L13.5547 74.548C13.5107 74.746 13.419 74.9403 13.2797 75.131C13.1477 75.3143 12.9753 75.4793 12.7627 75.626C12.5573 75.7727 12.3263 75.89 12.0697 75.978C11.8203 76.066 11.5563 76.11 11.2777 76.11ZM11.5747 75.065C11.9193 75.065 12.2237 74.9807 12.4877 74.812C12.7517 74.6433 12.957 74.4123 13.1037 74.119C13.2577 73.8183 13.3347 73.4773 13.3347 73.096C13.3347 72.722 13.2577 72.3883 13.1037 72.095C12.957 71.8017 12.7517 71.5707 12.4877 71.402C12.2237 71.2333 11.9193 71.149 11.5747 71.149C11.2373 71.149 10.9367 71.2333 10.6727 71.402C10.416 71.5707 10.2107 71.8017 10.0567 72.095C9.91001 72.3883 9.83667 72.722 9.83667 73.096C9.83667 73.4773 9.91001 73.8183 10.0567 74.119C10.2107 74.4123 10.416 74.6433 10.6727 74.812C10.9367 74.9807 11.2373 75.065 11.5747 75.065ZM18.4696 76.11C17.9343 76.11 17.4539 75.978 17.0286 75.714C16.6106 75.45 16.2769 75.0907 16.0276 74.636C15.7856 74.1813 15.6646 73.6717 15.6646 73.107C15.6646 72.5423 15.7856 72.0327 16.0276 71.578C16.2769 71.1233 16.6106 70.764 17.0286 70.5C17.4539 70.236 17.9343 70.104 18.4696 70.104C18.9829 70.104 19.4486 70.2103 19.8666 70.423C20.2919 70.6283 20.6146 70.9107 20.8346 71.27L20.2076 72.04C20.0903 71.8713 19.9399 71.7173 19.7566 71.578C19.5733 71.4387 19.3789 71.3287 19.1736 71.248C18.9683 71.1673 18.7703 71.127 18.5796 71.127C18.2276 71.127 17.9123 71.215 17.6336 71.391C17.3623 71.5597 17.1459 71.7943 16.9846 72.095C16.8233 72.3957 16.7426 72.733 16.7426 73.107C16.7426 73.481 16.8269 73.8183 16.9956 74.119C17.1643 74.4123 17.3879 74.647 17.6666 74.823C17.9453 74.999 18.2533 75.087 18.5906 75.087C18.7886 75.087 18.9793 75.054 19.1626 74.988C19.3533 74.922 19.5366 74.823 19.7126 74.691C19.8886 74.559 20.0536 74.3977 20.2076 74.207L20.8346 74.977C20.5999 75.307 20.2626 75.5783 19.8226 75.791C19.3899 76.0037 18.9389 76.11 18.4696 76.11ZM21.9033 76V70.225H23.0473V72.04L22.9373 71.6C23.018 71.3213 23.1537 71.0683 23.3443 70.841C23.5423 70.6137 23.766 70.434 24.0153 70.302C24.272 70.17 24.536 70.104 24.8073 70.104C24.932 70.104 25.0493 70.115 25.1593 70.137C25.2767 70.159 25.3683 70.1847 25.4343 70.214L25.1373 71.446C25.0493 71.4093 24.9503 71.38 24.8403 71.358C24.7377 71.3287 24.635 71.314 24.5323 71.314C24.3343 71.314 24.1437 71.3543 23.9603 71.435C23.7843 71.5083 23.6267 71.6147 23.4873 71.754C23.3553 71.886 23.249 72.0437 23.1683 72.227C23.0877 72.403 23.0473 72.5973 23.0473 72.81V76H21.9033ZM28.3148 76.11C27.8381 76.11 27.4018 75.978 27.0058 75.714C26.6171 75.45 26.3054 75.0907 26.0708 74.636C25.8361 74.1813 25.7188 73.668 25.7188 73.096C25.7188 72.5167 25.8361 72.0033 26.0708 71.556C26.3128 71.1013 26.6354 70.7457 27.0388 70.489C27.4494 70.2323 27.9078 70.104 28.4138 70.104C28.7144 70.104 28.9894 70.148 29.2388 70.236C29.4881 70.324 29.7044 70.4487 29.8878 70.61C30.0784 70.764 30.2324 70.9437 30.3498 71.149C30.4744 71.3543 30.5514 71.5743 30.5808 71.809L30.3278 71.721V70.225H31.4718V76H30.3278V74.625L30.5918 74.548C30.5478 74.746 30.4561 74.9403 30.3168 75.131C30.1848 75.3143 30.0124 75.4793 29.7998 75.626C29.5944 75.7727 29.3634 75.89 29.1068 75.978C28.8574 76.066 28.5934 76.11 28.3148 76.11ZM28.6118 75.065C28.9564 75.065 29.2608 74.9807 29.5248 74.812C29.7888 74.6433 29.9941 74.4123 30.1408 74.119C30.2948 73.8183 30.3718 73.4773 30.3718 73.096C30.3718 72.722 30.2948 72.3883 30.1408 72.095C29.9941 71.8017 29.7888 71.5707 29.5248 71.402C29.2608 71.2333 28.9564 71.149 28.6118 71.149C28.2744 71.149 27.9738 71.2333 27.7098 71.402C27.4531 71.5707 27.2478 71.8017 27.0938 72.095C26.9471 72.3883 26.8738 72.722 26.8738 73.096C26.8738 73.4773 26.9471 73.8183 27.0938 74.119C27.2478 74.4123 27.4531 74.6433 27.7098 74.812C27.9738 74.9807 28.2744 75.065 28.6118 75.065ZM33.0317 76V70.225H34.1757V71.457L33.9667 71.589C34.0254 71.3983 34.1171 71.215 34.2417 71.039C34.3737 70.863 34.5314 70.709 34.7147 70.577C34.9054 70.4377 35.1071 70.3277 35.3197 70.247C35.5397 70.1663 35.7634 70.126 35.9907 70.126C36.3207 70.126 36.6104 70.181 36.8597 70.291C37.1091 70.401 37.3144 70.566 37.4757 70.786C37.6371 71.006 37.7544 71.281 37.8277 71.611L37.6517 71.567L37.7287 71.38C37.8094 71.2113 37.9194 71.0537 38.0587 70.907C38.2054 70.753 38.3704 70.6173 38.5537 70.5C38.7371 70.3827 38.9314 70.291 39.1367 70.225C39.3421 70.159 39.5437 70.126 39.7417 70.126C40.1744 70.126 40.5301 70.214 40.8087 70.39C41.0947 70.566 41.3074 70.8337 41.4467 71.193C41.5934 71.5523 41.6667 71.9997 41.6667 72.535V76H40.5227V72.601C40.5227 72.271 40.4787 72.0033 40.3907 71.798C40.3101 71.5853 40.1854 71.4277 40.0167 71.325C39.8481 71.2223 39.6317 71.171 39.3677 71.171C39.1624 71.171 38.9681 71.2077 38.7847 71.281C38.6087 71.347 38.4547 71.4423 38.3227 71.567C38.1907 71.6917 38.0881 71.8383 38.0147 72.007C37.9414 72.1683 37.9047 72.348 37.9047 72.546V76H36.7607V72.579C36.7607 72.2783 36.7167 72.0253 36.6287 71.82C36.5407 71.6073 36.4124 71.446 36.2437 71.336C36.0751 71.226 35.8697 71.171 35.6277 71.171C35.4224 71.171 35.2317 71.2077 35.0557 71.281C34.8797 71.347 34.7257 71.4423 34.5937 71.567C34.4617 71.6843 34.3591 71.8273 34.2857 71.996C34.2124 72.1573 34.1757 72.3333 34.1757 72.524V76H33.0317ZM45.8786 76.11C45.2846 76.11 44.7566 75.9853 44.2946 75.736C43.8399 75.4793 43.4806 75.131 43.2166 74.691C42.9599 74.251 42.8316 73.745 42.8316 73.173C42.8316 72.7183 42.9049 72.304 43.0516 71.93C43.1983 71.556 43.3999 71.2333 43.6566 70.962C43.9206 70.6833 44.2323 70.4707 44.5916 70.324C44.9583 70.17 45.3543 70.093 45.7796 70.093C46.1536 70.093 46.5019 70.1663 46.8246 70.313C47.1473 70.4523 47.4259 70.6467 47.6606 70.896C47.9026 71.1453 48.0859 71.4423 48.2106 71.787C48.3426 72.1243 48.4049 72.4947 48.3976 72.898L48.3866 73.382H43.6676L43.4146 72.48H47.4076L47.2426 72.667V72.403C47.2206 72.161 47.1399 71.9447 47.0006 71.754C46.8613 71.5633 46.6853 71.413 46.4726 71.303C46.2599 71.193 46.0289 71.138 45.7796 71.138C45.3836 71.138 45.0499 71.215 44.7786 71.369C44.5073 71.5157 44.3019 71.7357 44.1626 72.029C44.0233 72.315 43.9536 72.6707 43.9536 73.096C43.9536 73.4993 44.0379 73.8513 44.2066 74.152C44.3753 74.4453 44.6136 74.6727 44.9216 74.834C45.2296 74.9953 45.5853 75.076 45.9886 75.076C46.2746 75.076 46.5386 75.0283 46.7806 74.933C47.0299 74.8377 47.2976 74.6653 47.5836 74.416L48.1556 75.219C47.9796 75.395 47.7633 75.549 47.5066 75.681C47.2573 75.813 46.9896 75.9193 46.7036 76C46.4249 76.0733 46.1499 76.11 45.8786 76.11ZM49.6289 76V70.225H50.7619V71.413L50.5639 71.545C50.6372 71.2883 50.7802 71.0537 50.9929 70.841C51.2056 70.621 51.4586 70.445 51.7519 70.313C52.0452 70.1737 52.3459 70.104 52.6539 70.104C53.0939 70.104 53.4606 70.192 53.7539 70.368C54.0472 70.5367 54.2672 70.797 54.4139 71.149C54.5606 71.501 54.6339 71.9447 54.6339 72.48V76H53.5009V72.557C53.5009 72.227 53.4569 71.9557 53.3689 71.743C53.2809 71.523 53.1452 71.3653 52.9619 71.27C52.7786 71.1673 52.5512 71.1233 52.2799 71.138C52.0599 71.138 51.8582 71.1747 51.6749 71.248C51.4916 71.314 51.3302 71.4093 51.1909 71.534C51.0589 71.6587 50.9526 71.8053 50.8719 71.974C50.7986 72.1353 50.7619 72.3113 50.7619 72.502V76H50.2009C50.1056 76 50.0102 76 49.9149 76C49.8196 76 49.7242 76 49.6289 76ZM56.8859 76V68.751H58.0189V76H56.8859ZM55.6869 71.325V70.225H59.3609V71.325H55.6869Z" fill="black"/>
</svg>
