<svg width="112" height="71" viewBox="0 0 112 71" fill="none" xmlns="http://www.w3.org/2000/svg">
<path d="M56.0657 4.5H50.9343C50.5349 4.5 50.2967 4.94507 50.5182 5.27735L51.916 7.37404C51.9708 7.45617 52 7.55268 52 7.65139V9V13C52 13.2761 51.7761 13.5 51.5 13.5H47.5H44.6514C44.5527 13.5 44.4562 13.4708 44.374 13.416L42.2773 12.0182C41.9451 11.7967 41.5 12.0349 41.5 12.4343V17.5657C41.5 17.9651 41.9451 18.2033 42.2774 17.9818L44.374 16.584C44.4562 16.5292 44.5527 16.5 44.6514 16.5H47.5H51.5C51.7761 16.5 52 16.7239 52 17V20.5V36.382C52 36.4596 51.9819 36.5361 51.9472 36.6056L50.8618 38.7764C50.6956 39.1088 50.9373 39.5 51.309 39.5H55.691C56.0627 39.5 56.3044 39.1088 56.1382 38.7764L55.0528 36.6056C55.0181 36.5361 55 36.4596 55 36.382V20.5V17C55 16.7239 55.2239 16.5 55.5 16.5H59.5H62.3486C62.4473 16.5 62.5438 16.5292 62.626 16.584L64.7227 17.9818C65.0549 18.2033 65.5 17.9651 65.5 17.5657V12.4343C65.5 12.0349 65.0549 11.7967 64.7227 12.0182L62.626 13.416C62.5438 13.4708 62.4473 13.5 62.3486 13.5H59.5H55.5C55.2239 13.5 55 13.2761 55 13V9V7.65139C55 7.55268 55.0292 7.45617 55.084 7.37404L56.4818 5.27735C56.7033 4.94507 56.4651 4.5 56.0657 4.5Z" fill="#4F4533"/>
<path d="M52 9V13C52 13.2761 51.7761 13.5 51.5 13.5H47.5M52 9V7.65139C52 7.55268 51.9708 7.45617 51.916 7.37404L50.5182 5.27735C50.2967 4.94507 50.5349 4.5 50.9343 4.5H56.0657C56.4651 4.5 56.7033 4.94507 56.4818 5.27735L55.084 7.37404C55.0292 7.45617 55 7.55268 55 7.65139V9M52 9C49.5 9 47.5 11 47.5 13.5M47.5 13.5H44.6514C44.5527 13.5 44.4562 13.4708 44.374 13.416L42.2773 12.0182C41.9451 11.7967 41.5 12.0349 41.5 12.4343V17.5657C41.5 17.9651 41.9451 18.2033 42.2774 17.9818L44.374 16.584C44.4562 16.5292 44.5527 16.5 44.6514 16.5H47.5M55 9V13C55 13.2761 55.2239 13.5 55.5 13.5H59.5M55 9C57.5 9 59.5 11 59.5 13.5M59.5 13.5H62.3486C62.4473 13.5 62.5438 13.4708 62.626 13.416L64.7227 12.0182C65.0549 11.7967 65.5 12.0349 65.5 12.4343V17.5657C65.5 17.9651 65.0549 18.2033 64.7226 17.9818L62.626 16.584C62.5438 16.5292 62.4473 16.5 62.3486 16.5H59.5M59.5 16.5H55.5C55.2239 16.5 55 16.7239 55 17V20.5M59.5 16.5C59.5 19 57.5 20.5 55 20.5M55 20.5V36.382C55 36.4596 55.0181 36.5361 55.0528 36.6056L56.1382 38.7764C56.3044 39.1088 56.0627 39.5 55.691 39.5H51.309C50.9373 39.5 50.6956 39.1088 50.8618 38.7764L51.9472 36.6056C51.9819 36.5361 52 36.4596 52 36.382V20.5M52 20.5V17C52 16.7239 51.7761 16.5 51.5 16.5H47.5M52 20.5C49.5 20.5 47.5 19 47.5 16.5" stroke="black"/>
<path d="M26.6498 52V45.95H24.3618V44.3H30.8628V45.95H28.5198V52H26.6498ZM33.0591 52.099C32.5677 52.099 32.1277 51.9707 31.7391 51.714C31.3577 51.45 31.0534 51.0907 30.8261 50.636C30.5987 50.174 30.4851 49.6533 30.4851 49.074C30.4851 48.48 30.5987 47.9557 30.8261 47.501C31.0534 47.0463 31.3651 46.6907 31.7611 46.434C32.1571 46.17 32.6081 46.038 33.1141 46.038C33.3927 46.038 33.6457 46.0783 33.8731 46.159C34.1077 46.2397 34.3131 46.3533 34.4891 46.5C34.6651 46.6393 34.8154 46.8043 34.9401 46.995C35.0647 47.1783 35.1564 47.3763 35.2151 47.589L34.8521 47.545V46.159H36.6011V52H34.8191V50.592L35.2151 50.581C35.1564 50.7863 35.0611 50.9807 34.9291 51.164C34.7971 51.3473 34.6357 51.5087 34.4451 51.648C34.2544 51.7873 34.0417 51.8973 33.8071 51.978C33.5724 52.0587 33.3231 52.099 33.0591 52.099ZM33.5431 50.614C33.8144 50.614 34.0491 50.5517 34.2471 50.427C34.4451 50.3023 34.5991 50.1263 34.7091 49.899C34.8191 49.6643 34.8741 49.3893 34.8741 49.074C34.8741 48.7587 34.8191 48.4873 34.7091 48.26C34.5991 48.0253 34.4451 47.8457 34.2471 47.721C34.0491 47.589 33.8144 47.523 33.5431 47.523C33.2791 47.523 33.0481 47.589 32.8501 47.721C32.6594 47.8457 32.5091 48.0253 32.3991 48.26C32.2891 48.4873 32.2341 48.7587 32.2341 49.074C32.2341 49.3893 32.2891 49.6643 32.3991 49.899C32.5091 50.1263 32.6594 50.3023 32.8501 50.427C33.0481 50.5517 33.2791 50.614 33.5431 50.614ZM38.7621 54.53L40.0931 51.395L40.1151 52.297L37.2991 46.159H39.2901L40.5221 49.096C40.5881 49.2427 40.6505 49.4003 40.7091 49.569C40.7678 49.7377 40.8118 49.899 40.8411 50.053L40.5991 50.196C40.6431 50.086 40.6908 49.9503 40.7421 49.789C40.8008 49.6203 40.8631 49.4407 40.9291 49.25L42.0071 46.159H44.0091L41.5231 52L40.5111 54.53H38.7621ZM44.8574 52V43.86H46.6174V52H44.8574ZM50.8298 52.11C50.2212 52.11 49.6785 51.978 49.2018 51.714C48.7325 51.45 48.3585 51.0907 48.0798 50.636C47.8085 50.1813 47.6728 49.6607 47.6728 49.074C47.6728 48.4873 47.8085 47.9667 48.0798 47.512C48.3585 47.0573 48.7325 46.698 49.2018 46.434C49.6785 46.17 50.2212 46.038 50.8298 46.038C51.4385 46.038 51.9775 46.17 52.4468 46.434C52.9235 46.698 53.2975 47.0573 53.5688 47.512C53.8402 47.9667 53.9758 48.4873 53.9758 49.074C53.9758 49.6607 53.8402 50.1813 53.5688 50.636C53.2975 51.0907 52.9235 51.45 52.4468 51.714C51.9775 51.978 51.4385 52.11 50.8298 52.11ZM50.8298 50.592C51.0938 50.592 51.3285 50.526 51.5338 50.394C51.7392 50.262 51.9005 50.0823 52.0178 49.855C52.1352 49.6277 52.1902 49.3673 52.1828 49.074C52.1902 48.7807 52.1352 48.5203 52.0178 48.293C51.9005 48.0583 51.7392 47.875 51.5338 47.743C51.3285 47.611 51.0938 47.545 50.8298 47.545C50.5658 47.545 50.3275 47.611 50.1148 47.743C49.9095 47.875 49.7482 48.0583 49.6308 48.293C49.5135 48.5203 49.4585 48.7807 49.4658 49.074C49.4585 49.3673 49.5135 49.6277 49.6308 49.855C49.7482 50.0823 49.9095 50.262 50.1148 50.394C50.3275 50.526 50.5658 50.592 50.8298 50.592ZM55.1267 52V46.159H56.7987L56.8757 48.062L56.5457 47.699C56.6337 47.3837 56.7767 47.1013 56.9747 46.852C57.18 46.6027 57.4184 46.4047 57.6897 46.258C57.961 46.1113 58.2507 46.038 58.5587 46.038C58.6907 46.038 58.8117 46.049 58.9217 46.071C59.039 46.093 59.1454 46.1187 59.2407 46.148L58.7567 48.095C58.676 48.0437 58.566 48.0033 58.4267 47.974C58.2947 47.9373 58.1554 47.919 58.0087 47.919C57.8474 47.919 57.697 47.9483 57.5577 48.007C57.4184 48.0583 57.301 48.1353 57.2057 48.238C57.1104 48.3407 57.0334 48.4617 56.9747 48.601C56.9234 48.7403 56.8977 48.898 56.8977 49.074V52H55.1267ZM62.1016 52.11C61.5296 52.11 61.0236 52.0183 60.5836 51.835C60.1509 51.6517 59.8062 51.406 59.5496 51.098L60.6166 50.174C60.8439 50.4013 61.1006 50.57 61.3866 50.68C61.6726 50.7827 61.9439 50.834 62.2006 50.834C62.3032 50.834 62.3949 50.823 62.4756 50.801C62.5562 50.779 62.6222 50.7497 62.6736 50.713C62.7322 50.669 62.7762 50.6213 62.8056 50.57C62.8349 50.5113 62.8496 50.4453 62.8496 50.372C62.8496 50.2253 62.7836 50.1117 62.6516 50.031C62.5856 49.9943 62.4756 49.9503 62.3216 49.899C62.1676 49.8477 61.9696 49.789 61.7276 49.723C61.3829 49.635 61.0822 49.5323 60.8256 49.415C60.5762 49.2903 60.3709 49.1473 60.2096 48.986C60.0629 48.832 59.9492 48.6633 59.8686 48.48C59.7879 48.2893 59.7476 48.0767 59.7476 47.842C59.7476 47.5707 59.8099 47.325 59.9346 47.105C60.0666 46.885 60.2389 46.6943 60.4516 46.533C60.6716 46.3717 60.9209 46.2507 61.1996 46.17C61.4856 46.082 61.7789 46.038 62.0796 46.038C62.4022 46.038 62.7102 46.0747 63.0036 46.148C63.2969 46.2213 63.5682 46.324 63.8176 46.456C64.0742 46.588 64.3016 46.7457 64.4996 46.929L63.5756 47.963C63.4436 47.8383 63.2932 47.7283 63.1246 47.633C62.9632 47.5303 62.7946 47.4497 62.6186 47.391C62.4426 47.3323 62.2812 47.303 62.1346 47.303C62.0246 47.303 61.9256 47.314 61.8376 47.336C61.7569 47.3507 61.6872 47.38 61.6286 47.424C61.5699 47.4607 61.5259 47.5083 61.4966 47.567C61.4672 47.6183 61.4526 47.6807 61.4526 47.754C61.4526 47.8273 61.4709 47.897 61.5076 47.963C61.5516 48.029 61.6102 48.084 61.6836 48.128C61.7569 48.172 61.8742 48.2233 62.0356 48.282C62.1969 48.3333 62.4169 48.3993 62.6956 48.48C63.0402 48.5753 63.3372 48.6817 63.5866 48.799C63.8359 48.9163 64.0339 49.0557 64.1806 49.217C64.2979 49.3417 64.3859 49.4883 64.4446 49.657C64.5032 49.8183 64.5326 49.9943 64.5326 50.185C64.5326 50.559 64.4262 50.8927 64.2136 51.186C64.0082 51.472 63.7222 51.6993 63.3556 51.868C62.9889 52.0293 62.5709 52.11 62.1016 52.11ZM67.3719 52L64.9299 46.159H66.8769L68.3289 50.526L67.8999 50.57L69.3959 46.159H71.3209L68.7579 52H67.3719ZM72.338 52V46.159H74.098V52H72.338ZM73.218 45.004C72.888 45.004 72.6277 44.927 72.437 44.773C72.2537 44.6117 72.162 44.3843 72.162 44.091C72.162 43.827 72.2573 43.6107 72.448 43.442C72.6387 43.2733 72.8953 43.189 73.218 43.189C73.548 43.189 73.8047 43.2697 73.988 43.431C74.1713 43.585 74.263 43.805 74.263 44.091C74.263 44.3623 74.1677 44.5823 73.977 44.751C73.7937 44.9197 73.5407 45.004 73.218 45.004ZM75.7627 52V43.86H77.5227V52H75.7627ZM79.1035 52V43.86H80.8635V52H79.1035ZM85.1089 52.11C84.4636 52.11 83.9026 51.9817 83.4259 51.725C82.9493 51.461 82.5789 51.1053 82.3149 50.658C82.0509 50.2033 81.9189 49.6863 81.9189 49.107C81.9189 48.6597 81.9923 48.249 82.1389 47.875C82.2856 47.501 82.4909 47.1783 82.7549 46.907C83.0189 46.6283 83.3306 46.4157 83.6899 46.269C84.0566 46.115 84.4563 46.038 84.8889 46.038C85.2996 46.038 85.6736 46.1113 86.0109 46.258C86.3556 46.4047 86.6526 46.61 86.9019 46.874C87.1513 47.138 87.3419 47.4497 87.4739 47.809C87.6059 48.1683 87.6646 48.5607 87.6499 48.986L87.6389 49.459H82.9859L82.7329 48.469H86.2089L86.0219 48.678V48.458C86.0073 48.2747 85.9486 48.1133 85.8459 47.974C85.7506 47.8273 85.6223 47.7137 85.4609 47.633C85.2996 47.5523 85.1163 47.512 84.9109 47.512C84.6249 47.512 84.3793 47.5707 84.1739 47.688C83.9759 47.798 83.8256 47.963 83.7229 48.183C83.6203 48.3957 83.5689 48.6597 83.5689 48.975C83.5689 49.2977 83.6349 49.58 83.7669 49.822C83.9063 50.0567 84.1043 50.24 84.3609 50.372C84.6249 50.504 84.9366 50.57 85.2959 50.57C85.5453 50.57 85.7653 50.5333 85.9559 50.46C86.1539 50.3867 86.3666 50.262 86.5939 50.086L87.4189 51.252C87.1916 51.45 86.9496 51.6113 86.6929 51.736C86.4363 51.8607 86.1723 51.9523 85.9009 52.011C85.6369 52.077 85.3729 52.11 85.1089 52.11ZM6.87099 66.11C6.45299 66.11 6.06433 66.055 5.70499 65.945C5.35299 65.835 5.03033 65.67 4.73699 65.45C4.45099 65.2227 4.19433 64.944 3.96699 64.614L4.78099 63.679C5.14033 64.1923 5.48499 64.548 5.81499 64.746C6.14499 64.944 6.53733 65.043 6.99199 65.043C7.27066 65.043 7.52366 64.999 7.75099 64.911C7.97833 64.823 8.15799 64.702 8.28999 64.548C8.42199 64.394 8.48799 64.218 8.48799 64.02C8.48799 63.888 8.46599 63.7633 8.42199 63.646C8.37799 63.5287 8.30833 63.4223 8.21299 63.327C8.12499 63.2317 8.00766 63.1437 7.86099 63.063C7.72166 62.9823 7.55666 62.9127 7.36599 62.854C7.17533 62.788 6.95533 62.733 6.70599 62.689C6.30999 62.6083 5.96533 62.502 5.67199 62.37C5.37866 62.238 5.13299 62.073 4.93499 61.875C4.73699 61.677 4.59033 61.4533 4.49499 61.204C4.39966 60.9473 4.35199 60.6613 4.35199 60.346C4.35199 60.038 4.41799 59.752 4.54999 59.488C4.68933 59.224 4.87633 58.9967 5.11099 58.806C5.35299 58.608 5.63533 58.4577 5.95799 58.355C6.28066 58.245 6.62899 58.19 7.00299 58.19C7.39899 58.19 7.76199 58.2413 8.09199 58.344C8.42199 58.4467 8.71533 58.6007 8.97199 58.806C9.22866 59.004 9.44133 59.2497 9.60999 59.543L8.77399 60.368C8.62733 60.126 8.46233 59.9243 8.27899 59.763C8.09566 59.5943 7.89399 59.4697 7.67399 59.389C7.45399 59.301 7.21933 59.257 6.96999 59.257C6.68399 59.257 6.43466 59.301 6.22199 59.389C6.00933 59.477 5.84066 59.6017 5.71599 59.763C5.59866 59.917 5.53999 60.1003 5.53999 60.313C5.53999 60.467 5.56933 60.61 5.62799 60.742C5.68666 60.8667 5.77466 60.9803 5.89199 61.083C6.01666 61.1783 6.18166 61.2663 6.38699 61.347C6.59233 61.4203 6.83799 61.4863 7.12399 61.545C7.52733 61.633 7.88666 61.7467 8.20199 61.886C8.51733 62.018 8.78499 62.1757 9.00499 62.359C9.22499 62.5423 9.38999 62.7477 9.49999 62.975C9.61733 63.2023 9.67599 63.448 9.67599 63.712C9.67599 64.2033 9.56233 64.6287 9.33499 64.988C9.10766 65.3473 8.78499 65.626 8.36699 65.824C7.94899 66.0147 7.45033 66.11 6.87099 66.11ZM11.7883 66V58.751H12.9213V66H11.7883ZM10.5893 61.325V60.225H14.2633V61.325H10.5893ZM15.7569 66.121C15.5149 66.121 15.3279 66.0513 15.1959 65.912C15.0639 65.7653 14.9979 65.56 14.9979 65.296C14.9979 65.054 15.0676 64.856 15.2069 64.702C15.3463 64.548 15.5296 64.471 15.7569 64.471C15.9989 64.471 16.1859 64.5443 16.3179 64.691C16.4499 64.8303 16.5159 65.032 16.5159 65.296C16.5159 65.538 16.4463 65.736 16.3069 65.89C16.1676 66.044 15.9843 66.121 15.7569 66.121ZM21.1669 66V58.3H22.3329L25.1379 62.865L24.5769 62.854L27.4149 58.3H28.5149V66H27.3269V62.843C27.3269 62.183 27.3415 61.589 27.3709 61.061C27.4075 60.533 27.4662 60.0087 27.5469 59.488L27.7009 59.895L25.1819 63.789H24.4559L22.0139 59.939L22.1349 59.488C22.2155 59.9793 22.2705 60.4853 22.2999 61.006C22.3365 61.5193 22.3549 62.1317 22.3549 62.843V66H21.1669ZM32.6097 66.11C32.133 66.11 31.6967 65.978 31.3007 65.714C30.912 65.45 30.6004 65.0907 30.3657 64.636C30.131 64.1813 30.0137 63.668 30.0137 63.096C30.0137 62.5167 30.131 62.0033 30.3657 61.556C30.6077 61.1013 30.9304 60.7457 31.3337 60.489C31.7444 60.2323 32.2027 60.104 32.7087 60.104C33.0094 60.104 33.2844 60.148 33.5337 60.236C33.783 60.324 33.9994 60.4487 34.1827 60.61C34.3734 60.764 34.5274 60.9437 34.6447 61.149C34.7694 61.3543 34.8464 61.5743 34.8757 61.809L34.6227 61.721V60.225H35.7667V66H34.6227V64.625L34.8867 64.548C34.8427 64.746 34.751 64.9403 34.6117 65.131C34.4797 65.3143 34.3074 65.4793 34.0947 65.626C33.8894 65.7727 33.6584 65.89 33.4017 65.978C33.1524 66.066 32.8884 66.11 32.6097 66.11ZM32.9067 65.065C33.2514 65.065 33.5557 64.9807 33.8197 64.812C34.0837 64.6433 34.289 64.4123 34.4357 64.119C34.5897 63.8183 34.6667 63.4773 34.6667 63.096C34.6667 62.722 34.5897 62.3883 34.4357 62.095C34.289 61.8017 34.0837 61.5707 33.8197 61.402C33.5557 61.2333 33.2514 61.149 32.9067 61.149C32.5694 61.149 32.2687 61.2333 32.0047 61.402C31.748 61.5707 31.5427 61.8017 31.3887 62.095C31.242 62.3883 31.1687 62.722 31.1687 63.096C31.1687 63.4773 31.242 63.8183 31.3887 64.119C31.5427 64.4123 31.748 64.6433 32.0047 64.812C32.2687 64.9807 32.5694 65.065 32.9067 65.065ZM37.3486 66V60.225H38.4926V62.04L38.3826 61.6C38.4633 61.3213 38.599 61.0683 38.7896 60.841C38.9876 60.6137 39.2113 60.434 39.4606 60.302C39.7173 60.17 39.9813 60.104 40.2526 60.104C40.3773 60.104 40.4946 60.115 40.6046 60.137C40.722 60.159 40.8136 60.1847 40.8796 60.214L40.5826 61.446C40.4946 61.4093 40.3956 61.38 40.2856 61.358C40.183 61.3287 40.0803 61.314 39.9776 61.314C39.7796 61.314 39.589 61.3543 39.4056 61.435C39.2296 61.5083 39.072 61.6147 38.9326 61.754C38.8006 61.886 38.6943 62.0437 38.6136 62.227C38.533 62.403 38.4926 62.5973 38.4926 62.81V66H37.3486ZM42.715 66V58.751H43.848V66H42.715ZM41.516 61.325V60.225H45.19V61.325H41.516ZM46.4087 66V60.225H47.5417V66H46.4087ZM46.9587 58.949C46.7167 58.949 46.5297 58.8867 46.3977 58.762C46.2657 58.6373 46.1997 58.4613 46.1997 58.234C46.1997 58.0213 46.2657 57.849 46.3977 57.717C46.537 57.585 46.724 57.519 46.9587 57.519C47.2007 57.519 47.3877 57.5813 47.5197 57.706C47.6517 57.8307 47.7177 58.0067 47.7177 58.234C47.7177 58.4467 47.648 58.619 47.5087 58.751C47.3767 58.883 47.1934 58.949 46.9587 58.949ZM49.2832 66V60.225H50.4162V61.413L50.2182 61.545C50.2915 61.2883 50.4345 61.0537 50.6472 60.841C50.8599 60.621 51.1129 60.445 51.4062 60.313C51.6995 60.1737 52.0002 60.104 52.3082 60.104C52.7482 60.104 53.1149 60.192 53.4082 60.368C53.7015 60.5367 53.9215 60.797 54.0682 61.149C54.2149 61.501 54.2882 61.9447 54.2882 62.48V66H53.1552V62.557C53.1552 62.227 53.1112 61.9557 53.0232 61.743C52.9352 61.523 52.7995 61.3653 52.6162 61.27C52.4329 61.1673 52.2055 61.1233 51.9342 61.138C51.7142 61.138 51.5125 61.1747 51.3292 61.248C51.1459 61.314 50.9845 61.4093 50.8452 61.534C50.7132 61.6587 50.6069 61.8053 50.5262 61.974C50.4529 62.1353 50.4162 62.3113 50.4162 62.502V66H49.8552C49.7599 66 49.6645 66 49.5692 66C49.4739 66 49.3785 66 49.2832 66ZM61.3172 66.11C60.7892 66.11 60.3162 65.9817 59.8982 65.725C59.4875 65.461 59.1612 65.1053 58.9192 64.658C58.6772 64.2033 58.5562 63.6863 58.5562 63.107C58.5562 62.5277 58.6735 62.0143 58.9082 61.567C59.1502 61.1123 59.4765 60.7567 59.8872 60.5C60.2979 60.236 60.7635 60.104 61.2842 60.104C61.5702 60.104 61.8452 60.1517 62.1092 60.247C62.3805 60.335 62.6225 60.4597 62.8352 60.621C63.0479 60.775 63.2129 60.9473 63.3302 61.138C63.4549 61.3213 63.5172 61.5083 63.5172 61.699L63.1872 61.721V57.86H64.3202V66H63.1872V64.625H63.4072C63.4072 64.801 63.3485 64.977 63.2312 65.153C63.1139 65.3217 62.9562 65.4793 62.7582 65.626C62.5675 65.7727 62.3439 65.89 62.0872 65.978C61.8379 66.066 61.5812 66.11 61.3172 66.11ZM61.4712 65.131C61.8159 65.131 62.1202 65.043 62.3842 64.867C62.6482 64.691 62.8535 64.4527 63.0002 64.152C63.1542 63.844 63.2312 63.4957 63.2312 63.107C63.2312 62.7183 63.1542 62.3737 63.0002 62.073C62.8535 61.765 62.6482 61.523 62.3842 61.347C62.1202 61.171 61.8159 61.083 61.4712 61.083C61.1265 61.083 60.8222 61.171 60.5582 61.347C60.2942 61.523 60.0852 61.765 59.9312 62.073C59.7845 62.3737 59.7112 62.7183 59.7112 63.107C59.7112 63.4957 59.7845 63.844 59.9312 64.152C60.0852 64.4527 60.2942 64.691 60.5582 64.867C60.8222 65.043 61.1265 65.131 61.4712 65.131ZM68.5749 66.11C67.9809 66.11 67.4529 65.9853 66.9909 65.736C66.5362 65.4793 66.1769 65.131 65.9129 64.691C65.6562 64.251 65.5279 63.745 65.5279 63.173C65.5279 62.7183 65.6012 62.304 65.7479 61.93C65.8946 61.556 66.0962 61.2333 66.3529 60.962C66.6169 60.6833 66.9286 60.4707 67.2879 60.324C67.6546 60.17 68.0506 60.093 68.4759 60.093C68.8499 60.093 69.1982 60.1663 69.5209 60.313C69.8436 60.4523 70.1222 60.6467 70.3569 60.896C70.5989 61.1453 70.7822 61.4423 70.9069 61.787C71.0389 62.1243 71.1012 62.4947 71.0939 62.898L71.0829 63.382H66.3639L66.1109 62.48H70.1039L69.9389 62.667V62.403C69.9169 62.161 69.8362 61.9447 69.6969 61.754C69.5576 61.5633 69.3816 61.413 69.1689 61.303C68.9562 61.193 68.7252 61.138 68.4759 61.138C68.0799 61.138 67.7462 61.215 67.4749 61.369C67.2036 61.5157 66.9982 61.7357 66.8589 62.029C66.7196 62.315 66.6499 62.6707 66.6499 63.096C66.6499 63.4993 66.7342 63.8513 66.9029 64.152C67.0716 64.4453 67.3099 64.6727 67.6179 64.834C67.9259 64.9953 68.2816 65.076 68.6849 65.076C68.9709 65.076 69.2349 65.0283 69.4769 64.933C69.7262 64.8377 69.9939 64.6653 70.2799 64.416L70.8519 65.219C70.6759 65.395 70.4596 65.549 70.2029 65.681C69.9536 65.813 69.6859 65.9193 69.3999 66C69.1212 66.0733 68.8462 66.11 68.5749 66.11ZM75.6942 66V58.3H78.8292C79.2472 58.3 79.6249 58.4063 79.9622 58.619C80.3069 58.8243 80.5819 59.1067 80.7872 59.466C80.9925 59.8253 81.0952 60.225 81.0952 60.665C81.0952 61.105 80.9925 61.5047 80.7872 61.864C80.5819 62.2233 80.3069 62.513 79.9622 62.733C79.6249 62.9457 79.2472 63.052 78.8292 63.052H76.8822V66H75.6942ZM76.8822 61.908H78.8072C79.0052 61.908 79.1849 61.853 79.3462 61.743C79.5075 61.6257 79.6359 61.4753 79.7312 61.292C79.8339 61.1013 79.8852 60.8923 79.8852 60.665C79.8852 60.4377 79.8339 60.2323 79.7312 60.049C79.6359 59.8657 79.5075 59.719 79.3462 59.609C79.1849 59.499 79.0052 59.444 78.8072 59.444H76.8822V61.908ZM84.8685 66.11C84.3038 66.11 83.7978 65.9817 83.3505 65.725C82.9105 65.461 82.5621 65.1053 82.3055 64.658C82.0488 64.2033 81.9205 63.6863 81.9205 63.107C81.9205 62.5277 82.0488 62.0143 82.3055 61.567C82.5621 61.1123 82.9105 60.7567 83.3505 60.5C83.7978 60.236 84.3038 60.104 84.8685 60.104C85.4258 60.104 85.9245 60.236 86.3645 60.5C86.8118 60.7567 87.1638 61.1123 87.4205 61.567C87.6771 62.0143 87.8055 62.5277 87.8055 63.107C87.8055 63.6863 87.6771 64.2033 87.4205 64.658C87.1638 65.1053 86.8118 65.461 86.3645 65.725C85.9245 65.9817 85.4258 66.11 84.8685 66.11ZM84.8685 65.076C85.2131 65.076 85.5211 64.9917 85.7925 64.823C86.0638 64.647 86.2765 64.4123 86.4305 64.119C86.5845 63.8183 86.6578 63.481 86.6505 63.107C86.6578 62.7257 86.5845 62.3883 86.4305 62.095C86.2765 61.7943 86.0638 61.5597 85.7925 61.391C85.5211 61.2223 85.2131 61.138 84.8685 61.138C84.5238 61.138 84.2121 61.226 83.9335 61.402C83.6621 61.5707 83.4495 61.8053 83.2955 62.106C83.1415 62.3993 83.0681 62.733 83.0755 63.107C83.0681 63.481 83.1415 63.8183 83.2955 64.119C83.4495 64.4123 83.6621 64.647 83.9335 64.823C84.2121 64.9917 84.5238 65.076 84.8685 65.076ZM89.04 66V60.225H90.184V62.04L90.074 61.6C90.1547 61.3213 90.2904 61.0683 90.481 60.841C90.679 60.6137 90.9027 60.434 91.152 60.302C91.4087 60.17 91.6727 60.104 91.944 60.104C92.0687 60.104 92.186 60.115 92.296 60.137C92.4134 60.159 92.505 60.1847 92.571 60.214L92.274 61.446C92.186 61.4093 92.087 61.38 91.977 61.358C91.8744 61.3287 91.7717 61.314 91.669 61.314C91.471 61.314 91.2804 61.3543 91.097 61.435C90.921 61.5083 90.7634 61.6147 90.624 61.754C90.492 61.886 90.3857 62.0437 90.305 62.227C90.2244 62.403 90.184 62.5973 90.184 62.81V66H89.04ZM93.4766 66V60.225H94.6206V62.04L94.5106 61.6C94.5912 61.3213 94.7269 61.0683 94.9176 60.841C95.1156 60.6137 95.3392 60.434 95.5886 60.302C95.8452 60.17 96.1092 60.104 96.3806 60.104C96.5052 60.104 96.6226 60.115 96.7326 60.137C96.8499 60.159 96.9416 60.1847 97.0076 60.214L96.7106 61.446C96.6226 61.4093 96.5236 61.38 96.4136 61.358C96.3109 61.3287 96.2082 61.314 96.1056 61.314C95.9076 61.314 95.7169 61.3543 95.5336 61.435C95.3576 61.5083 95.1999 61.6147 95.0606 61.754C94.9286 61.886 94.8222 62.0437 94.7416 62.227C94.6609 62.403 94.6206 62.5973 94.6206 62.81V66H93.4766ZM100.361 66.11C99.767 66.11 99.239 65.9853 98.777 65.736C98.3224 65.4793 97.963 65.131 97.699 64.691C97.4424 64.251 97.314 63.745 97.314 63.173C97.314 62.7183 97.3874 62.304 97.534 61.93C97.6807 61.556 97.8824 61.2333 98.139 60.962C98.403 60.6833 98.7147 60.4707 99.074 60.324C99.4407 60.17 99.8367 60.093 100.262 60.093C100.636 60.093 100.984 60.1663 101.307 60.313C101.63 60.4523 101.908 60.6467 102.143 60.896C102.385 61.1453 102.568 61.4423 102.693 61.787C102.825 62.1243 102.887 62.4947 102.88 62.898L102.869 63.382H98.15L97.897 62.48H101.89L101.725 62.667V62.403C101.703 62.161 101.622 61.9447 101.483 61.754C101.344 61.5633 101.168 61.413 100.955 61.303C100.742 61.193 100.511 61.138 100.262 61.138C99.866 61.138 99.5324 61.215 99.261 61.369C98.9897 61.5157 98.7844 61.7357 98.645 62.029C98.5057 62.315 98.436 62.6707 98.436 63.096C98.436 63.4993 98.5204 63.8513 98.689 64.152C98.8577 64.4453 99.096 64.6727 99.404 64.834C99.712 64.9953 100.068 65.076 100.471 65.076C100.757 65.076 101.021 65.0283 101.263 64.933C101.512 64.8377 101.78 64.6653 102.066 64.416L102.638 65.219C102.462 65.395 102.246 65.549 101.989 65.681C101.74 65.813 101.472 65.9193 101.186 66C100.907 66.0733 100.632 66.11 100.361 66.11ZM106.036 66.11C105.552 66.11 105.116 66.0257 104.727 65.857C104.339 65.6883 104.016 65.439 103.759 65.109L104.529 64.449C104.749 64.7057 104.988 64.8927 105.244 65.01C105.508 65.12 105.805 65.175 106.135 65.175C106.267 65.175 106.388 65.1603 106.498 65.131C106.616 65.0943 106.715 65.043 106.795 64.977C106.883 64.911 106.949 64.834 106.993 64.746C107.037 64.6507 107.059 64.548 107.059 64.438C107.059 64.2473 106.99 64.0933 106.85 63.976C106.777 63.9247 106.66 63.8697 106.498 63.811C106.344 63.745 106.143 63.679 105.893 63.613C105.468 63.503 105.12 63.3783 104.848 63.239C104.577 63.0997 104.368 62.942 104.221 62.766C104.111 62.6267 104.031 62.4763 103.979 62.315C103.928 62.1463 103.902 61.963 103.902 61.765C103.902 61.523 103.954 61.303 104.056 61.105C104.166 60.8997 104.313 60.7237 104.496 60.577C104.687 60.423 104.907 60.3057 105.156 60.225C105.413 60.1443 105.684 60.104 105.97 60.104C106.242 60.104 106.509 60.1407 106.773 60.214C107.045 60.2873 107.294 60.3937 107.521 60.533C107.749 60.6723 107.939 60.8373 108.093 61.028L107.444 61.743C107.305 61.6037 107.151 61.4827 106.982 61.38C106.821 61.27 106.656 61.1857 106.487 61.127C106.319 61.0683 106.165 61.039 106.025 61.039C105.871 61.039 105.732 61.0537 105.607 61.083C105.483 61.1123 105.376 61.1563 105.288 61.215C105.208 61.2737 105.145 61.347 105.101 61.435C105.057 61.523 105.035 61.622 105.035 61.732C105.043 61.8273 105.065 61.919 105.101 62.007C105.145 62.0877 105.204 62.1573 105.277 62.216C105.358 62.2747 105.479 62.337 105.64 62.403C105.802 62.469 106.007 62.5313 106.256 62.59C106.623 62.6853 106.924 62.7917 107.158 62.909C107.4 63.019 107.591 63.1473 107.73 63.294C107.877 63.4333 107.98 63.5947 108.038 63.778C108.097 63.9613 108.126 64.1667 108.126 64.394C108.126 64.724 108.031 65.021 107.84 65.285C107.657 65.5417 107.408 65.7433 107.092 65.89C106.777 66.0367 106.425 66.11 106.036 66.11Z" fill="black"/>
</svg>
