<svg width="72" height="84" viewBox="0 0 72 84" fill="none" xmlns="http://www.w3.org/2000/svg">
<path d="M38.0657 4.5H32.9343C32.5349 4.5 32.2967 4.94507 32.5182 5.27735L33.916 7.37404C33.9708 7.45617 34 7.55268 34 7.65139V9V13C34 13.2761 33.7761 13.5 33.5 13.5H29.5H26.6514C26.5527 13.5 26.4562 13.4708 26.374 13.416L24.2773 12.0182C23.9451 11.7967 23.5 12.0349 23.5 12.4343V17.5657C23.5 17.9651 23.9451 18.2033 24.2774 17.9818L26.374 16.584C26.4562 16.5292 26.5527 16.5 26.6514 16.5H29.5H33.5C33.7761 16.5 34 16.7239 34 17V20.5V36.382C34 36.4596 33.9819 36.5361 33.9472 36.6056L32.8618 38.7764C32.6956 39.1088 32.9373 39.5 33.309 39.5H37.691C38.0627 39.5 38.3044 39.1088 38.1382 38.7764L37.0528 36.6056C37.0181 36.5361 37 36.4596 37 36.382V20.5V17C37 16.7239 37.2239 16.5 37.5 16.5H41.5H44.3486C44.4473 16.5 44.5438 16.5292 44.626 16.584L46.7227 17.9818C47.0549 18.2033 47.5 17.9651 47.5 17.5657V12.4343C47.5 12.0349 47.0549 11.7967 46.7227 12.0182L44.626 13.416C44.5438 13.4708 44.4473 13.5 44.3486 13.5H41.5H37.5C37.2239 13.5 37 13.2761 37 13V9V7.65139C37 7.55268 37.0292 7.45617 37.084 7.37404L38.4818 5.27735C38.7033 4.94507 38.4651 4.5 38.0657 4.5Z" fill="#4F4533"/>
<path d="M34 9V13C34 13.2761 33.7761 13.5 33.5 13.5H29.5M34 9V7.65139C34 7.55268 33.9708 7.45617 33.916 7.37404L32.5182 5.27735C32.2967 4.94507 32.5349 4.5 32.9343 4.5H38.0657C38.4651 4.5 38.7033 4.94507 38.4818 5.27735L37.084 7.37404C37.0292 7.45617 37 7.55268 37 7.65139V9M34 9C31.5 9 29.5 11 29.5 13.5M29.5 13.5H26.6514C26.5527 13.5 26.4562 13.4708 26.374 13.416L24.2773 12.0182C23.9451 11.7967 23.5 12.0349 23.5 12.4343V17.5657C23.5 17.9651 23.9451 18.2033 24.2774 17.9818L26.374 16.584C26.4562 16.5292 26.5527 16.5 26.6514 16.5H29.5M37 9V13C37 13.2761 37.2239 13.5 37.5 13.5H41.5M37 9C39.5 9 41.5 11 41.5 13.5M41.5 13.5H44.3486C44.4473 13.5 44.5438 13.4708 44.626 13.416L46.7227 12.0182C47.0549 11.7967 47.5 12.0349 47.5 12.4343V17.5657C47.5 17.9651 47.0549 18.2033 46.7226 17.9818L44.626 16.584C44.5438 16.5292 44.4473 16.5 44.3486 16.5H41.5M41.5 16.5H37.5C37.2239 16.5 37 16.7239 37 17V20.5M41.5 16.5C41.5 19 39.5 20.5 37 20.5M37 20.5V36.382C37 36.4596 37.0181 36.5361 37.0528 36.6056L38.1382 38.7764C38.3044 39.1088 38.0627 39.5 37.691 39.5H33.309C32.9373 39.5 32.6956 39.1088 32.8618 38.7764L33.9472 36.6056C33.9819 36.5361 34 36.4596 34 36.382V20.5M34 20.5V17C34 16.7239 33.7761 16.5 33.5 16.5H29.5M34 20.5C31.5 20.5 29.5 19 29.5 16.5" stroke="black"/>
<path d="M6.05224 52L3.74224 44.3H5.64524L6.80024 48.348C6.85158 48.5313 6.89558 48.7183 6.93224 48.909C6.97624 49.0923 7.00924 49.2683 7.03124 49.437C7.06058 49.6057 7.08258 49.7633 7.09724 49.91C7.11191 50.0493 7.12658 50.1667 7.14124 50.262H6.89924C6.94324 49.9907 6.97991 49.7487 7.00924 49.536C7.04591 49.3233 7.08624 49.1253 7.13024 48.942C7.17424 48.7513 7.22924 48.5533 7.29524 48.348L8.43924 45.301H9.93524L11.0572 48.348C11.1452 48.59 11.2186 48.8173 11.2772 49.03C11.3359 49.2427 11.3799 49.448 11.4092 49.646C11.4459 49.8367 11.4752 50.0273 11.4972 50.218L11.2772 50.251C11.2919 50.119 11.3029 49.998 11.3102 49.888C11.3176 49.7707 11.3249 49.6607 11.3322 49.558C11.3469 49.448 11.3616 49.3343 11.3762 49.217C11.3909 49.0997 11.4129 48.9713 11.4422 48.832C11.4716 48.6853 11.5119 48.5203 11.5632 48.337L12.7072 44.3H14.5662L12.2562 52H10.8262L9.00024 47.567L9.20924 47.589L7.52624 52H6.05224ZM17.9078 52.11C17.2624 52.11 16.7014 51.9817 16.2248 51.725C15.7481 51.461 15.3778 51.1053 15.1138 50.658C14.8498 50.2033 14.7178 49.6863 14.7178 49.107C14.7178 48.6597 14.7911 48.249 14.9378 47.875C15.0844 47.501 15.2898 47.1783 15.5538 46.907C15.8178 46.6283 16.1294 46.4157 16.4888 46.269C16.8554 46.115 17.2551 46.038 17.6878 46.038C18.0984 46.038 18.4724 46.1113 18.8098 46.258C19.1544 46.4047 19.4514 46.61 19.7008 46.874C19.9501 47.138 20.1408 47.4497 20.2728 47.809C20.4048 48.1683 20.4634 48.5607 20.4488 48.986L20.4378 49.459H15.7848L15.5318 48.469H19.0078L18.8208 48.678V48.458C18.8061 48.2747 18.7474 48.1133 18.6448 47.974C18.5494 47.8273 18.4211 47.7137 18.2598 47.633C18.0984 47.5523 17.9151 47.512 17.7098 47.512C17.4238 47.512 17.1781 47.5707 16.9728 47.688C16.7748 47.798 16.6244 47.963 16.5218 48.183C16.4191 48.3957 16.3678 48.6597 16.3678 48.975C16.3678 49.2977 16.4338 49.58 16.5658 49.822C16.7051 50.0567 16.9031 50.24 17.1598 50.372C17.4238 50.504 17.7354 50.57 18.0948 50.57C18.3441 50.57 18.5641 50.5333 18.7548 50.46C18.9528 50.3867 19.1654 50.262 19.3928 50.086L20.2178 51.252C19.9904 51.45 19.7484 51.6113 19.4918 51.736C19.2351 51.8607 18.9711 51.9523 18.6998 52.011C18.4358 52.077 18.1718 52.11 17.9078 52.11ZM23.5391 52.11C22.9671 52.11 22.4611 52.0183 22.0211 51.835C21.5884 51.6517 21.2437 51.406 20.9871 51.098L22.0541 50.174C22.2814 50.4013 22.5381 50.57 22.8241 50.68C23.1101 50.7827 23.3814 50.834 23.6381 50.834C23.7407 50.834 23.8324 50.823 23.9131 50.801C23.9937 50.779 24.0597 50.7497 24.1111 50.713C24.1697 50.669 24.2137 50.6213 24.2431 50.57C24.2724 50.5113 24.2871 50.4453 24.2871 50.372C24.2871 50.2253 24.2211 50.1117 24.0891 50.031C24.0231 49.9943 23.9131 49.9503 23.7591 49.899C23.6051 49.8477 23.4071 49.789 23.1651 49.723C22.8204 49.635 22.5197 49.5323 22.2631 49.415C22.0137 49.2903 21.8084 49.1473 21.6471 48.986C21.5004 48.832 21.3867 48.6633 21.3061 48.48C21.2254 48.2893 21.1851 48.0767 21.1851 47.842C21.1851 47.5707 21.2474 47.325 21.3721 47.105C21.5041 46.885 21.6764 46.6943 21.8891 46.533C22.1091 46.3717 22.3584 46.2507 22.6371 46.17C22.9231 46.082 23.2164 46.038 23.5171 46.038C23.8397 46.038 24.1477 46.0747 24.4411 46.148C24.7344 46.2213 25.0057 46.324 25.2551 46.456C25.5117 46.588 25.7391 46.7457 25.9371 46.929L25.0131 47.963C24.8811 47.8383 24.7307 47.7283 24.5621 47.633C24.4007 47.5303 24.2321 47.4497 24.0561 47.391C23.8801 47.3323 23.7187 47.303 23.5721 47.303C23.4621 47.303 23.3631 47.314 23.2751 47.336C23.1944 47.3507 23.1247 47.38 23.0661 47.424C23.0074 47.4607 22.9634 47.5083 22.9341 47.567C22.9047 47.6183 22.8901 47.6807 22.8901 47.754C22.8901 47.8273 22.9084 47.897 22.9451 47.963C22.9891 48.029 23.0477 48.084 23.1211 48.128C23.1944 48.172 23.3117 48.2233 23.4731 48.282C23.6344 48.3333 23.8544 48.3993 24.1331 48.48C24.4777 48.5753 24.7747 48.6817 25.0241 48.799C25.2734 48.9163 25.4714 49.0557 25.6181 49.217C25.7354 49.3417 25.8234 49.4883 25.8821 49.657C25.9407 49.8183 25.9701 49.9943 25.9701 50.185C25.9701 50.559 25.8637 50.8927 25.6511 51.186C25.4457 51.472 25.1597 51.6993 24.7931 51.868C24.4264 52.0293 24.0084 52.11 23.5391 52.11ZM27.5004 52V44.685H29.2604V52H27.5004ZM26.4664 47.699V46.159H30.3934V47.699H26.4664ZM37.2656 52L34.1856 44.3H36.1326L37.6176 48.227C37.7056 48.4543 37.7789 48.6523 37.8376 48.821C37.9036 48.9897 37.9586 49.1473 38.0026 49.294C38.0539 49.4407 38.0979 49.591 38.1346 49.745C38.1786 49.8917 38.2263 50.0603 38.2776 50.251H37.9366C37.9953 50.0017 38.0539 49.7817 38.1126 49.591C38.1713 49.393 38.2373 49.1913 38.3106 48.986C38.3839 48.7733 38.4756 48.5203 38.5856 48.227L40.0156 44.3H41.9296L38.8276 52H37.2656ZM44.2544 52.099C43.763 52.099 43.323 51.9707 42.9344 51.714C42.553 51.45 42.2487 51.0907 42.0214 50.636C41.794 50.174 41.6804 49.6533 41.6804 49.074C41.6804 48.48 41.794 47.9557 42.0214 47.501C42.2487 47.0463 42.5604 46.6907 42.9564 46.434C43.3524 46.17 43.8034 46.038 44.3094 46.038C44.588 46.038 44.841 46.0783 45.0684 46.159C45.303 46.2397 45.5084 46.3533 45.6844 46.5C45.8604 46.6393 46.0107 46.8043 46.1354 46.995C46.26 47.1783 46.3517 47.3763 46.4104 47.589L46.0474 47.545V46.159H47.7964V52H46.0144V50.592L46.4104 50.581C46.3517 50.7863 46.2564 50.9807 46.1244 51.164C45.9924 51.3473 45.831 51.5087 45.6404 51.648C45.4497 51.7873 45.237 51.8973 45.0024 51.978C44.7677 52.0587 44.5184 52.099 44.2544 52.099ZM44.7384 50.614C45.0097 50.614 45.2444 50.5517 45.4424 50.427C45.6404 50.3023 45.7944 50.1263 45.9044 49.899C46.0144 49.6643 46.0694 49.3893 46.0694 49.074C46.0694 48.7587 46.0144 48.4873 45.9044 48.26C45.7944 48.0253 45.6404 47.8457 45.4424 47.721C45.2444 47.589 45.0097 47.523 44.7384 47.523C44.4744 47.523 44.2434 47.589 44.0454 47.721C43.8547 47.8457 43.7044 48.0253 43.5944 48.26C43.4844 48.4873 43.4294 48.7587 43.4294 49.074C43.4294 49.3893 43.4844 49.6643 43.5944 49.899C43.7044 50.1263 43.8547 50.3023 44.0454 50.427C44.2434 50.5517 44.4744 50.614 44.7384 50.614ZM49.3604 52V43.86H51.1204V52H49.3604ZM52.7012 52V43.86H54.4612V52H52.7012ZM58.7066 52.11C58.0612 52.11 57.5002 51.9817 57.0236 51.725C56.5469 51.461 56.1766 51.1053 55.9126 50.658C55.6486 50.2033 55.5166 49.6863 55.5166 49.107C55.5166 48.6597 55.5899 48.249 55.7366 47.875C55.8832 47.501 56.0886 47.1783 56.3526 46.907C56.6166 46.6283 56.9282 46.4157 57.2876 46.269C57.6542 46.115 58.0539 46.038 58.4866 46.038C58.8972 46.038 59.2712 46.1113 59.6086 46.258C59.9532 46.4047 60.2502 46.61 60.4996 46.874C60.7489 47.138 60.9396 47.4497 61.0716 47.809C61.2036 48.1683 61.2622 48.5607 61.2476 48.986L61.2366 49.459H56.5836L56.3306 48.469H59.8066L59.6196 48.678V48.458C59.6049 48.2747 59.5462 48.1133 59.4436 47.974C59.3482 47.8273 59.2199 47.7137 59.0586 47.633C58.8972 47.5523 58.7139 47.512 58.5086 47.512C58.2226 47.512 57.9769 47.5707 57.7716 47.688C57.5736 47.798 57.4232 47.963 57.3206 48.183C57.2179 48.3957 57.1666 48.6597 57.1666 48.975C57.1666 49.2977 57.2326 49.58 57.3646 49.822C57.5039 50.0567 57.7019 50.24 57.9586 50.372C58.2226 50.504 58.5342 50.57 58.8936 50.57C59.1429 50.57 59.3629 50.5333 59.5536 50.46C59.7516 50.3867 59.9642 50.262 60.1916 50.086L61.0166 51.252C60.7892 51.45 60.5472 51.6113 60.2906 51.736C60.0339 51.8607 59.7699 51.9523 59.4986 52.011C59.2346 52.077 58.9706 52.11 58.7066 52.11ZM62.9985 54.53L64.3295 51.395L64.3515 52.297L61.5355 46.159H63.5265L64.7585 49.096C64.8245 49.2427 64.8868 49.4003 64.9455 49.569C65.0041 49.7377 65.0481 49.899 65.0775 50.053L64.8355 50.196C64.8795 50.086 64.9271 49.9503 64.9785 49.789C65.0371 49.6203 65.0995 49.4407 65.1655 49.25L66.2435 46.159H68.2455L65.7595 52L64.7475 54.53H62.9985ZM10.724 66.11C10.306 66.11 9.91735 66.055 9.55802 65.945C9.20602 65.835 8.88335 65.67 8.59002 65.45C8.30402 65.2227 8.04735 64.944 7.82002 64.614L8.63402 63.679C8.99335 64.1923 9.33802 64.548 9.66802 64.746C9.99802 64.944 10.3904 65.043 10.845 65.043C11.1237 65.043 11.3767 64.999 11.604 64.911C11.8314 64.823 12.011 64.702 12.143 64.548C12.275 64.394 12.341 64.218 12.341 64.02C12.341 63.888 12.319 63.7633 12.275 63.646C12.231 63.5287 12.1614 63.4223 12.066 63.327C11.978 63.2317 11.8607 63.1437 11.714 63.063C11.5747 62.9823 11.4097 62.9127 11.219 62.854C11.0284 62.788 10.8084 62.733 10.559 62.689C10.163 62.6083 9.81835 62.502 9.52502 62.37C9.23169 62.238 8.98602 62.073 8.78802 61.875C8.59002 61.677 8.44335 61.4533 8.34802 61.204C8.25269 60.9473 8.20502 60.6613 8.20502 60.346C8.20502 60.038 8.27102 59.752 8.40302 59.488C8.54235 59.224 8.72935 58.9967 8.96402 58.806C9.20602 58.608 9.48835 58.4577 9.81102 58.355C10.1337 58.245 10.482 58.19 10.856 58.19C11.252 58.19 11.615 58.2413 11.945 58.344C12.275 58.4467 12.5684 58.6007 12.825 58.806C13.0817 59.004 13.2944 59.2497 13.463 59.543L12.627 60.368C12.4804 60.126 12.3154 59.9243 12.132 59.763C11.9487 59.5943 11.747 59.4697 11.527 59.389C11.307 59.301 11.0724 59.257 10.823 59.257C10.537 59.257 10.2877 59.301 10.075 59.389C9.86235 59.477 9.69369 59.6017 9.56902 59.763C9.45169 59.917 9.39302 60.1003 9.39302 60.313C9.39302 60.467 9.42235 60.61 9.48102 60.742C9.53969 60.8667 9.62769 60.9803 9.74502 61.083C9.86969 61.1783 10.0347 61.2663 10.24 61.347C10.4454 61.4203 10.691 61.4863 10.977 61.545C11.3804 61.633 11.7397 61.7467 12.055 61.886C12.3704 62.018 12.638 62.1757 12.858 62.359C13.078 62.5423 13.243 62.7477 13.353 62.975C13.4704 63.2023 13.529 63.448 13.529 63.712C13.529 64.2033 13.4154 64.6287 13.188 64.988C12.9607 65.3473 12.638 65.626 12.22 65.824C11.802 66.0147 11.3034 66.11 10.724 66.11ZM15.6413 66V58.751H16.7743V66H15.6413ZM14.4423 61.325V60.225H18.1163V61.325H14.4423ZM21.2878 66.11C20.8038 66.11 20.3675 66.0257 19.9788 65.857C19.5901 65.6883 19.2675 65.439 19.0108 65.109L19.7808 64.449C20.0008 64.7057 20.2391 64.8927 20.4958 65.01C20.7598 65.12 21.0568 65.175 21.3868 65.175C21.5188 65.175 21.6398 65.1603 21.7498 65.131C21.8671 65.0943 21.9661 65.043 22.0468 64.977C22.1348 64.911 22.2008 64.834 22.2448 64.746C22.2888 64.6507 22.3108 64.548 22.3108 64.438C22.3108 64.2473 22.2411 64.0933 22.1018 63.976C22.0285 63.9247 21.9111 63.8697 21.7498 63.811C21.5958 63.745 21.3941 63.679 21.1448 63.613C20.7195 63.503 20.3711 63.3783 20.0998 63.239C19.8285 63.0997 19.6195 62.942 19.4728 62.766C19.3628 62.6267 19.2821 62.4763 19.2308 62.315C19.1795 62.1463 19.1538 61.963 19.1538 61.765C19.1538 61.523 19.2051 61.303 19.3078 61.105C19.4178 60.8997 19.5645 60.7237 19.7478 60.577C19.9385 60.423 20.1585 60.3057 20.4078 60.225C20.6645 60.1443 20.9358 60.104 21.2218 60.104C21.4931 60.104 21.7608 60.1407 22.0248 60.214C22.2961 60.2873 22.5455 60.3937 22.7728 60.533C23.0001 60.6723 23.1908 60.8373 23.3448 61.028L22.6958 61.743C22.5565 61.6037 22.4025 61.4827 22.2338 61.38C22.0725 61.27 21.9075 61.1857 21.7388 61.127C21.5701 61.0683 21.4161 61.039 21.2768 61.039C21.1228 61.039 20.9835 61.0537 20.8588 61.083C20.7341 61.1123 20.6278 61.1563 20.5398 61.215C20.4591 61.2737 20.3968 61.347 20.3528 61.435C20.3088 61.523 20.2868 61.622 20.2868 61.732C20.2941 61.8273 20.3161 61.919 20.3528 62.007C20.3968 62.0877 20.4555 62.1573 20.5288 62.216C20.6095 62.2747 20.7305 62.337 20.8918 62.403C21.0531 62.469 21.2585 62.5313 21.5078 62.59C21.8745 62.6853 22.1751 62.7917 22.4098 62.909C22.6518 63.019 22.8425 63.1473 22.9818 63.294C23.1285 63.4333 23.2311 63.5947 23.2898 63.778C23.3485 63.9613 23.3778 64.1667 23.3778 64.394C23.3778 64.724 23.2825 65.021 23.0918 65.285C22.9085 65.5417 22.6591 65.7433 22.3438 65.89C22.0285 66.0367 21.6765 66.11 21.2878 66.11ZM25.0885 66.121C24.8465 66.121 24.6595 66.0513 24.5275 65.912C24.3955 65.7653 24.3295 65.56 24.3295 65.296C24.3295 65.054 24.3991 64.856 24.5385 64.702C24.6778 64.548 24.8611 64.471 25.0885 64.471C25.3305 64.471 25.5175 64.5443 25.6495 64.691C25.7815 64.8303 25.8475 65.032 25.8475 65.296C25.8475 65.538 25.7778 65.736 25.6385 65.89C25.4991 66.044 25.3158 66.121 25.0885 66.121ZM32.2364 66.11C31.9871 66.11 31.7487 66.077 31.5214 66.011C31.2941 65.945 31.0814 65.8497 30.8834 65.725C30.6927 65.6003 30.5204 65.4537 30.3664 65.285C30.2124 65.109 30.0804 64.9183 29.9704 64.713L30.7184 63.932C30.8724 64.152 31.0117 64.328 31.1364 64.46C31.2684 64.592 31.3931 64.6947 31.5104 64.768C31.6277 64.8413 31.7451 64.8927 31.8624 64.922C31.9797 64.944 32.1044 64.955 32.2364 64.955C32.5004 64.955 32.7314 64.8963 32.9294 64.779C33.1274 64.6543 33.2814 64.4857 33.3914 64.273C33.5014 64.0603 33.5564 63.8183 33.5564 63.547V59.4H32.1484V58.3H35.9324V59.4H34.7444V63.657C34.7444 64.009 34.6821 64.3353 34.5574 64.636C34.4401 64.9293 34.2677 65.186 34.0404 65.406C33.8204 65.626 33.5564 65.7983 33.2484 65.923C32.9477 66.0477 32.6104 66.11 32.2364 66.11ZM38.9442 66.11C38.4675 66.11 38.0312 65.978 37.6352 65.714C37.2465 65.45 36.9348 65.0907 36.7002 64.636C36.4655 64.1813 36.3482 63.668 36.3482 63.096C36.3482 62.5167 36.4655 62.0033 36.7002 61.556C36.9422 61.1013 37.2648 60.7457 37.6682 60.489C38.0788 60.2323 38.5372 60.104 39.0432 60.104C39.3438 60.104 39.6188 60.148 39.8682 60.236C40.1175 60.324 40.3338 60.4487 40.5172 60.61C40.7078 60.764 40.8618 60.9437 40.9792 61.149C41.1038 61.3543 41.1808 61.5743 41.2102 61.809L40.9572 61.721V60.225H42.1012V66H40.9572V64.625L41.2212 64.548C41.1772 64.746 41.0855 64.9403 40.9462 65.131C40.8142 65.3143 40.6418 65.4793 40.4292 65.626C40.2238 65.7727 39.9928 65.89 39.7362 65.978C39.4868 66.066 39.2228 66.11 38.9442 66.11ZM39.2412 65.065C39.5858 65.065 39.8902 64.9807 40.1542 64.812C40.4182 64.6433 40.6235 64.4123 40.7702 64.119C40.9242 63.8183 41.0012 63.4773 41.0012 63.096C41.0012 62.722 40.9242 62.3883 40.7702 62.095C40.6235 61.8017 40.4182 61.5707 40.1542 61.402C39.8902 61.2333 39.5858 61.149 39.2412 61.149C38.9038 61.149 38.6032 61.2333 38.3392 61.402C38.0825 61.5707 37.8772 61.8017 37.7232 62.095C37.5765 62.3883 37.5032 62.722 37.5032 63.096C37.5032 63.4773 37.5765 63.8183 37.7232 64.119C37.8772 64.4123 38.0825 64.6433 38.3392 64.812C38.6032 64.9807 38.9038 65.065 39.2412 65.065ZM43.6611 66V60.225H44.8051V61.457L44.5961 61.589C44.6548 61.3983 44.7464 61.215 44.8711 61.039C45.0031 60.863 45.1608 60.709 45.3441 60.577C45.5348 60.4377 45.7364 60.3277 45.9491 60.247C46.1691 60.1663 46.3928 60.126 46.6201 60.126C46.9501 60.126 47.2398 60.181 47.4891 60.291C47.7384 60.401 47.9438 60.566 48.1051 60.786C48.2664 61.006 48.3838 61.281 48.4571 61.611L48.2811 61.567L48.3581 61.38C48.4388 61.2113 48.5488 61.0537 48.6881 60.907C48.8348 60.753 48.9998 60.6173 49.1831 60.5C49.3664 60.3827 49.5608 60.291 49.7661 60.225C49.9714 60.159 50.1731 60.126 50.3711 60.126C50.8038 60.126 51.1594 60.214 51.4381 60.39C51.7241 60.566 51.9368 60.8337 52.0761 61.193C52.2228 61.5523 52.2961 61.9997 52.2961 62.535V66H51.1521V62.601C51.1521 62.271 51.1081 62.0033 51.0201 61.798C50.9394 61.5853 50.8148 61.4277 50.6461 61.325C50.4774 61.2223 50.2611 61.171 49.9971 61.171C49.7918 61.171 49.5974 61.2077 49.4141 61.281C49.2381 61.347 49.0841 61.4423 48.9521 61.567C48.8201 61.6917 48.7174 61.8383 48.6441 62.007C48.5708 62.1683 48.5341 62.348 48.5341 62.546V66H47.3901V62.579C47.3901 62.2783 47.3461 62.0253 47.2581 61.82C47.1701 61.6073 47.0418 61.446 46.8731 61.336C46.7044 61.226 46.4991 61.171 46.2571 61.171C46.0518 61.171 45.8611 61.2077 45.6851 61.281C45.5091 61.347 45.3551 61.4423 45.2231 61.567C45.0911 61.6843 44.9884 61.8273 44.9151 61.996C44.8418 62.1573 44.8051 62.3333 44.8051 62.524V66H43.6611ZM56.508 66.11C55.914 66.11 55.386 65.9853 54.924 65.736C54.4693 65.4793 54.11 65.131 53.846 64.691C53.5893 64.251 53.461 63.745 53.461 63.173C53.461 62.7183 53.5343 62.304 53.681 61.93C53.8277 61.556 54.0293 61.2333 54.286 60.962C54.55 60.6833 54.8617 60.4707 55.221 60.324C55.5877 60.17 55.9837 60.093 56.409 60.093C56.783 60.093 57.1313 60.1663 57.454 60.313C57.7767 60.4523 58.0553 60.6467 58.29 60.896C58.532 61.1453 58.7153 61.4423 58.84 61.787C58.972 62.1243 59.0343 62.4947 59.027 62.898L59.016 63.382H54.297L54.044 62.48H58.037L57.872 62.667V62.403C57.85 62.161 57.7693 61.9447 57.63 61.754C57.4907 61.5633 57.3147 61.413 57.102 61.303C56.8893 61.193 56.6583 61.138 56.409 61.138C56.013 61.138 55.6793 61.215 55.408 61.369C55.1367 61.5157 54.9313 61.7357 54.792 62.029C54.6527 62.315 54.583 62.6707 54.583 63.096C54.583 63.4993 54.6673 63.8513 54.836 64.152C55.0047 64.4453 55.243 64.6727 55.551 64.834C55.859 64.9953 56.2147 65.076 56.618 65.076C56.904 65.076 57.168 65.0283 57.41 64.933C57.6593 64.8377 57.927 64.6653 58.213 64.416L58.785 65.219C58.609 65.395 58.3927 65.549 58.136 65.681C57.8867 65.813 57.619 65.9193 57.333 66C57.0543 66.0733 56.7793 66.11 56.508 66.11ZM62.1833 66.11C61.6993 66.11 61.263 66.0257 60.8743 65.857C60.4856 65.6883 60.163 65.439 59.9063 65.109L60.6763 64.449C60.8963 64.7057 61.1346 64.8927 61.3913 65.01C61.6553 65.12 61.9523 65.175 62.2823 65.175C62.4143 65.175 62.5353 65.1603 62.6453 65.131C62.7626 65.0943 62.8616 65.043 62.9423 64.977C63.0303 64.911 63.0963 64.834 63.1403 64.746C63.1843 64.6507 63.2063 64.548 63.2063 64.438C63.2063 64.2473 63.1366 64.0933 62.9973 63.976C62.924 63.9247 62.8066 63.8697 62.6453 63.811C62.4913 63.745 62.2896 63.679 62.0403 63.613C61.615 63.503 61.2666 63.3783 60.9953 63.239C60.724 63.0997 60.515 62.942 60.3683 62.766C60.2583 62.6267 60.1776 62.4763 60.1263 62.315C60.075 62.1463 60.0493 61.963 60.0493 61.765C60.0493 61.523 60.1006 61.303 60.2033 61.105C60.3133 60.8997 60.46 60.7237 60.6433 60.577C60.834 60.423 61.054 60.3057 61.3033 60.225C61.56 60.1443 61.8313 60.104 62.1173 60.104C62.3886 60.104 62.6563 60.1407 62.9203 60.214C63.1916 60.2873 63.441 60.3937 63.6683 60.533C63.8956 60.6723 64.0863 60.8373 64.2403 61.028L63.5913 61.743C63.452 61.6037 63.298 61.4827 63.1293 61.38C62.968 61.27 62.803 61.1857 62.6343 61.127C62.4656 61.0683 62.3116 61.039 62.1723 61.039C62.0183 61.039 61.879 61.0537 61.7543 61.083C61.6296 61.1123 61.5233 61.1563 61.4353 61.215C61.3546 61.2737 61.2923 61.347 61.2483 61.435C61.2043 61.523 61.1823 61.622 61.1823 61.732C61.1896 61.8273 61.2116 61.919 61.2483 62.007C61.2923 62.0877 61.351 62.1573 61.4243 62.216C61.505 62.2747 61.626 62.337 61.7873 62.403C61.9486 62.469 62.154 62.5313 62.4033 62.59C62.77 62.6853 63.0706 62.7917 63.3053 62.909C63.5473 63.019 63.738 63.1473 63.8773 63.294C64.024 63.4333 64.1266 63.5947 64.1853 63.778C64.244 63.9613 64.2733 64.1667 64.2733 64.394C64.2733 64.724 64.178 65.021 63.9873 65.285C63.804 65.5417 63.5546 65.7433 63.2393 65.89C62.924 66.0367 62.572 66.11 62.1833 66.11ZM15.6659 80.11C15.1892 80.11 14.7529 79.978 14.3569 79.714C13.9682 79.45 13.6565 79.0907 13.4219 78.636C13.1872 78.1813 13.0699 77.668 13.0699 77.096C13.0699 76.5167 13.1872 76.0033 13.4219 75.556C13.6639 75.1013 13.9865 74.7457 14.3899 74.489C14.8005 74.2323 15.2589 74.104 15.7649 74.104C16.0655 74.104 16.3405 74.148 16.5899 74.236C16.8392 74.324 17.0555 74.4487 17.2389 74.61C17.4295 74.764 17.5835 74.9437 17.7009 75.149C17.8255 75.3543 17.9025 75.5743 17.9319 75.809L17.6789 75.721V74.225H18.8229V80H17.6789V78.625L17.9429 78.548C17.8989 78.746 17.8072 78.9403 17.6679 79.131C17.5359 79.3143 17.3635 79.4793 17.1509 79.626C16.9455 79.7727 16.7145 79.89 16.4579 79.978C16.2085 80.066 15.9445 80.11 15.6659 80.11ZM15.9629 79.065C16.3075 79.065 16.6119 78.9807 16.8759 78.812C17.1399 78.6433 17.3452 78.4123 17.4919 78.119C17.6459 77.8183 17.7229 77.4773 17.7229 77.096C17.7229 76.722 17.6459 76.3883 17.4919 76.095C17.3452 75.8017 17.1399 75.5707 16.8759 75.402C16.6119 75.2333 16.3075 75.149 15.9629 75.149C15.6255 75.149 15.3249 75.2333 15.0609 75.402C14.8042 75.5707 14.5989 75.8017 14.4449 76.095C14.2982 76.3883 14.2249 76.722 14.2249 77.096C14.2249 77.4773 14.2982 77.8183 14.4449 78.119C14.5989 78.4123 14.8042 78.6433 15.0609 78.812C15.3249 78.9807 15.6255 79.065 15.9629 79.065ZM20.4048 80V74.225H21.5378V75.413L21.3398 75.545C21.4131 75.2883 21.5561 75.0537 21.7688 74.841C21.9815 74.621 22.2345 74.445 22.5278 74.313C22.8211 74.1737 23.1218 74.104 23.4298 74.104C23.8698 74.104 24.2365 74.192 24.5298 74.368C24.8231 74.5367 25.0431 74.797 25.1898 75.149C25.3365 75.501 25.4098 75.9447 25.4098 76.48V80H24.2768V76.557C24.2768 76.227 24.2328 75.9557 24.1448 75.743C24.0568 75.523 23.9211 75.3653 23.7378 75.27C23.5545 75.1673 23.3271 75.1233 23.0558 75.138C22.8358 75.138 22.6341 75.1747 22.4508 75.248C22.2675 75.314 22.1061 75.4093 21.9668 75.534C21.8348 75.6587 21.7285 75.8053 21.6478 75.974C21.5745 76.1353 21.5378 76.3113 21.5378 76.502V80H20.9768C20.8815 80 20.7861 80 20.6908 80C20.5955 80 20.5001 80 20.4048 80ZM29.3558 80.11C28.8278 80.11 28.3548 79.9817 27.9368 79.725C27.5261 79.461 27.1998 79.1053 26.9578 78.658C26.7158 78.2033 26.5948 77.6863 26.5948 77.107C26.5948 76.5277 26.7121 76.0143 26.9468 75.567C27.1888 75.1123 27.5151 74.7567 27.9258 74.5C28.3365 74.236 28.8021 74.104 29.3228 74.104C29.6088 74.104 29.8838 74.1517 30.1478 74.247C30.4191 74.335 30.6611 74.4597 30.8738 74.621C31.0865 74.775 31.2515 74.9473 31.3688 75.138C31.4935 75.3213 31.5558 75.5083 31.5558 75.699L31.2258 75.721V71.86H32.3588V80H31.2258V78.625H31.4458C31.4458 78.801 31.3871 78.977 31.2698 79.153C31.1525 79.3217 30.9948 79.4793 30.7968 79.626C30.6061 79.7727 30.3825 79.89 30.1258 79.978C29.8765 80.066 29.6198 80.11 29.3558 80.11ZM29.5098 79.131C29.8545 79.131 30.1588 79.043 30.4228 78.867C30.6868 78.691 30.8921 78.4527 31.0388 78.152C31.1928 77.844 31.2698 77.4957 31.2698 77.107C31.2698 76.7183 31.1928 76.3737 31.0388 76.073C30.8921 75.765 30.6868 75.523 30.4228 75.347C30.1588 75.171 29.8545 75.083 29.5098 75.083C29.1651 75.083 28.8608 75.171 28.5968 75.347C28.3328 75.523 28.1238 75.765 27.9698 76.073C27.8231 76.3737 27.7498 76.7183 27.7498 77.107C27.7498 77.4957 27.8231 77.844 27.9698 78.152C28.1238 78.4527 28.3328 78.691 28.5968 78.867C28.8608 79.043 29.1651 79.131 29.5098 79.131ZM37.2875 80V72.3H40.4225C40.8405 72.3 41.2181 72.4063 41.5555 72.619C41.9001 72.8243 42.1751 73.1067 42.3805 73.466C42.5858 73.8253 42.6885 74.225 42.6885 74.665C42.6885 75.105 42.5858 75.5047 42.3805 75.864C42.1751 76.2233 41.9001 76.513 41.5555 76.733C41.2181 76.9457 40.8405 77.052 40.4225 77.052H38.4755V80H37.2875ZM38.4755 75.908H40.4005C40.5985 75.908 40.7781 75.853 40.9395 75.743C41.1008 75.6257 41.2291 75.4753 41.3245 75.292C41.4271 75.1013 41.4785 74.8923 41.4785 74.665C41.4785 74.4377 41.4271 74.2323 41.3245 74.049C41.2291 73.8657 41.1008 73.719 40.9395 73.609C40.7781 73.499 40.5985 73.444 40.4005 73.444H38.4755V75.908ZM46.0877 80.11C45.6111 80.11 45.1747 79.978 44.7787 79.714C44.3901 79.45 44.0784 79.0907 43.8437 78.636C43.6091 78.1813 43.4917 77.668 43.4917 77.096C43.4917 76.5167 43.6091 76.0033 43.8437 75.556C44.0857 75.1013 44.4084 74.7457 44.8117 74.489C45.2224 74.2323 45.6807 74.104 46.1867 74.104C46.4874 74.104 46.7624 74.148 47.0117 74.236C47.2611 74.324 47.4774 74.4487 47.6607 74.61C47.8514 74.764 48.0054 74.9437 48.1227 75.149C48.2474 75.3543 48.3244 75.5743 48.3537 75.809L48.1007 75.721V74.225H49.2447V80H48.1007V78.625L48.3647 78.548C48.3207 78.746 48.2291 78.9403 48.0897 79.131C47.9577 79.3143 47.7854 79.4793 47.5727 79.626C47.3674 79.7727 47.1364 79.89 46.8797 79.978C46.6304 80.066 46.3664 80.11 46.0877 80.11ZM46.3847 79.065C46.7294 79.065 47.0337 78.9807 47.2977 78.812C47.5617 78.6433 47.7671 78.4123 47.9137 78.119C48.0677 77.8183 48.1447 77.4773 48.1447 77.096C48.1447 76.722 48.0677 76.3883 47.9137 76.095C47.7671 75.8017 47.5617 75.5707 47.2977 75.402C47.0337 75.2333 46.7294 75.149 46.3847 75.149C46.0474 75.149 45.7467 75.2333 45.4827 75.402C45.2261 75.5707 45.0207 75.8017 44.8667 76.095C44.7201 76.3883 44.6467 76.722 44.6467 77.096C44.6467 77.4773 44.7201 77.8183 44.8667 78.119C45.0207 78.4123 45.2261 78.6433 45.4827 78.812C45.7467 78.9807 46.0474 79.065 46.3847 79.065ZM52.7432 80.11C52.3326 80.11 51.9732 80.0147 51.6652 79.824C51.3646 79.6333 51.1299 79.3657 50.9612 79.021C50.7999 78.6763 50.7192 78.2657 50.7192 77.789V74.225H51.8522V77.481C51.8522 77.8183 51.9036 78.1117 52.0062 78.361C52.1162 78.603 52.2702 78.79 52.4682 78.922C52.6736 79.054 52.9192 79.12 53.2052 79.12C53.4179 79.12 53.6122 79.087 53.7882 79.021C53.9642 78.9477 54.1146 78.8487 54.2392 78.724C54.3712 78.5993 54.4739 78.449 54.5472 78.273C54.6206 78.097 54.6572 77.9063 54.6572 77.701V74.225H55.7902V80H54.6572V78.79L54.8552 78.658C54.7672 78.9293 54.6169 79.175 54.4042 79.395C54.1989 79.615 53.9532 79.791 53.6672 79.923C53.3812 80.0477 53.0732 80.11 52.7432 80.11ZM57.4014 80V71.86H58.5344V80H57.4014Z" fill="black"/>
</svg>
