<svg width="91" height="87" viewBox="0 0 91 87" fill="none" xmlns="http://www.w3.org/2000/svg">
<path d="M28 0H60L66.5 29L81.5 52.5L89.5 86.5L0.5 85.5L9 52.5L25 27.5L28 0Z" fill="#FF0000" fill-opacity="0.31"/>
<path d="M48.0657 5.5H42.9343C42.5349 5.5 42.2967 5.94507 42.5182 6.27735L43.916 8.37404C43.9708 8.45617 44 8.55268 44 8.65139V10V14C44 14.2761 43.7761 14.5 43.5 14.5H39.5H36.6514C36.5527 14.5 36.4562 14.4708 36.374 14.416L34.2773 13.0182C33.9451 12.7967 33.5 13.0349 33.5 13.4343V18.5657C33.5 18.9651 33.9451 19.2033 34.2774 18.9818L36.374 17.584C36.4562 17.5292 36.5527 17.5 36.6514 17.5H39.5H43.5C43.7761 17.5 44 17.7239 44 18V21.5V37.382C44 37.4596 43.9819 37.5361 43.9472 37.6056L42.8618 39.7764C42.6956 40.1088 42.9373 40.5 43.309 40.5H47.691C48.0627 40.5 48.3044 40.1088 48.1382 39.7764L47.0528 37.6056C47.0181 37.5361 47 37.4596 47 37.382V21.5V18C47 17.7239 47.2239 17.5 47.5 17.5H51.5H54.3486C54.4473 17.5 54.5438 17.5292 54.626 17.584L56.7227 18.9818C57.0549 19.2033 57.5 18.9651 57.5 18.5657V13.4343C57.5 13.0349 57.0549 12.7967 56.7227 13.0182L54.626 14.416C54.5438 14.4708 54.4473 14.5 54.3486 14.5H51.5H47.5C47.2239 14.5 47 14.2761 47 14V10V8.65139C47 8.55268 47.0292 8.45617 47.084 8.37404L48.4818 6.27735C48.7033 5.94507 48.4651 5.5 48.0657 5.5Z" fill="#4F4533"/>
<path d="M44 10V14C44 14.2761 43.7761 14.5 43.5 14.5H39.5M44 10V8.65139C44 8.55268 43.9708 8.45617 43.916 8.37404L42.5182 6.27735C42.2967 5.94507 42.5349 5.5 42.9343 5.5H48.0657C48.4651 5.5 48.7033 5.94507 48.4818 6.27735L47.084 8.37404C47.0292 8.45617 47 8.55268 47 8.65139V10M44 10C41.5 10 39.5 12 39.5 14.5M39.5 14.5H36.6514C36.5527 14.5 36.4562 14.4708 36.374 14.416L34.2773 13.0182C33.9451 12.7967 33.5 13.0349 33.5 13.4343V18.5657C33.5 18.9651 33.9451 19.2033 34.2774 18.9818L36.374 17.584C36.4562 17.5292 36.5527 17.5 36.6514 17.5H39.5M47 10V14C47 14.2761 47.2239 14.5 47.5 14.5H51.5M47 10C49.5 10 51.5 12 51.5 14.5M51.5 14.5H54.3486C54.4473 14.5 54.5438 14.4708 54.626 14.416L56.7227 13.0182C57.0549 12.7967 57.5 13.0349 57.5 13.4343V18.5657C57.5 18.9651 57.0549 19.2033 56.7226 18.9818L54.626 17.584C54.5438 17.5292 54.4473 17.5 54.3486 17.5H51.5M51.5 17.5H47.5C47.2239 17.5 47 17.7239 47 18V21.5M51.5 17.5C51.5 20 49.5 21.5 47 21.5M47 21.5V37.382C47 37.4596 47.0181 37.5361 47.0528 37.6056L48.1382 39.7764C48.3044 40.1088 48.0627 40.5 47.691 40.5H43.309C42.9373 40.5 42.6956 40.1088 42.8618 39.7764L43.9472 37.6056C43.9819 37.5361 44 37.4596 44 37.382V21.5M44 21.5V18C44 17.7239 43.7761 17.5 43.5 17.5H39.5M44 21.5C41.5 21.5 39.5 20 39.5 17.5" stroke="black"/>
<path d="M26.2566 52V44.3H27.9286L30.7336 48.865L29.5346 48.854L32.3726 44.3H33.9786V52H32.1636V49.602C32.1636 48.942 32.1782 48.348 32.2076 47.82C32.2442 47.292 32.3029 46.7677 32.3836 46.247L32.5926 46.819L30.4586 50.13H29.7326L27.6426 46.841L27.8516 46.247C27.9322 46.7383 27.9872 47.2443 28.0166 47.765C28.0532 48.2783 28.0716 48.8907 28.0716 49.602V52H26.2566ZM37.7178 52.121C37.2851 52.121 36.9148 52.0293 36.6068 51.846C36.3061 51.6553 36.0715 51.384 35.9028 51.032C35.7415 50.68 35.6608 50.2583 35.6608 49.767V46.159H37.4318V49.525C37.4318 49.7597 37.4685 49.9613 37.5418 50.13C37.6151 50.2987 37.7251 50.4307 37.8718 50.526C38.0185 50.614 38.1945 50.658 38.3998 50.658C38.5538 50.658 38.6931 50.6323 38.8178 50.581C38.9498 50.5297 39.0598 50.46 39.1478 50.372C39.2431 50.2767 39.3165 50.1703 39.3678 50.053C39.4191 49.9283 39.4448 49.7927 39.4448 49.646V46.159H41.2158V52H39.5548L39.4778 50.801L39.8078 50.669C39.7198 50.9477 39.5731 51.197 39.3678 51.417C39.1625 51.6297 38.9168 51.802 38.6308 51.934C38.3448 52.0587 38.0405 52.121 37.7178 52.121ZM42.7844 52V46.159H44.4564L44.5334 48.062L44.2034 47.699C44.2914 47.3837 44.4344 47.1013 44.6324 46.852C44.8378 46.6027 45.0761 46.4047 45.3474 46.258C45.6188 46.1113 45.9084 46.038 46.2164 46.038C46.3484 46.038 46.4694 46.049 46.5794 46.071C46.6968 46.093 46.8031 46.1187 46.8984 46.148L46.4144 48.095C46.3338 48.0437 46.2238 48.0033 46.0844 47.974C45.9524 47.9373 45.8131 47.919 45.6664 47.919C45.5051 47.919 45.3548 47.9483 45.2154 48.007C45.0761 48.0583 44.9588 48.1353 44.8634 48.238C44.7681 48.3407 44.6911 48.4617 44.6324 48.601C44.5811 48.7403 44.5554 48.898 44.5554 49.074V52H42.7844ZM47.7903 52V46.159H49.4623L49.5393 48.062L49.2093 47.699C49.2973 47.3837 49.4403 47.1013 49.6383 46.852C49.8436 46.6027 50.0819 46.4047 50.3533 46.258C50.6246 46.1113 50.9143 46.038 51.2223 46.038C51.3543 46.038 51.4753 46.049 51.5853 46.071C51.7026 46.093 51.8089 46.1187 51.9043 46.148L51.4203 48.095C51.3396 48.0437 51.2296 48.0033 51.0903 47.974C50.9583 47.9373 50.8189 47.919 50.6723 47.919C50.5109 47.919 50.3606 47.9483 50.2213 48.007C50.0819 48.0583 49.9646 48.1353 49.8693 48.238C49.7739 48.3407 49.6969 48.4617 49.6383 48.601C49.5869 48.7403 49.5613 48.898 49.5613 49.074V52H47.7903ZM54.7051 52.099C54.2137 52.099 53.7737 51.9707 53.3851 51.714C53.0037 51.45 52.6994 51.0907 52.4721 50.636C52.2447 50.174 52.1311 49.6533 52.1311 49.074C52.1311 48.48 52.2447 47.9557 52.4721 47.501C52.6994 47.0463 53.0111 46.6907 53.4071 46.434C53.8031 46.17 54.2541 46.038 54.7601 46.038C55.0387 46.038 55.2917 46.0783 55.5191 46.159C55.7537 46.2397 55.9591 46.3533 56.1351 46.5C56.3111 46.6393 56.4614 46.8043 56.5861 46.995C56.7107 47.1783 56.8024 47.3763 56.8611 47.589L56.4981 47.545V46.159H58.2471V52H56.4651V50.592L56.8611 50.581C56.8024 50.7863 56.7071 50.9807 56.5751 51.164C56.4431 51.3473 56.2817 51.5087 56.0911 51.648C55.9004 51.7873 55.6877 51.8973 55.4531 51.978C55.2184 52.0587 54.9691 52.099 54.7051 52.099ZM55.1891 50.614C55.4604 50.614 55.6951 50.5517 55.8931 50.427C56.0911 50.3023 56.2451 50.1263 56.3551 49.899C56.4651 49.6643 56.5201 49.3893 56.5201 49.074C56.5201 48.7587 56.4651 48.4873 56.3551 48.26C56.2451 48.0253 56.0911 47.8457 55.8931 47.721C55.6951 47.589 55.4604 47.523 55.1891 47.523C54.9251 47.523 54.6941 47.589 54.4961 47.721C54.3054 47.8457 54.1551 48.0253 54.0451 48.26C53.9351 48.4873 53.8801 48.7587 53.8801 49.074C53.8801 49.3893 53.9351 49.6643 54.0451 49.899C54.1551 50.1263 54.3054 50.3023 54.4961 50.427C54.6941 50.5517 54.9251 50.614 55.1891 50.614ZM60.4081 54.53L61.7391 51.395L61.7611 52.297L58.9451 46.159H60.9361L62.1681 49.096C62.2341 49.2427 62.2965 49.4003 62.3551 49.569C62.4138 49.7377 62.4578 49.899 62.4871 50.053L62.2451 50.196C62.2891 50.086 62.3368 49.9503 62.3881 49.789C62.4468 49.6203 62.5091 49.4407 62.5751 49.25L63.6531 46.159H65.6551L63.1691 52L62.1571 54.53H60.4081ZM27.3246 66.11C26.9066 66.11 26.5179 66.055 26.1586 65.945C25.8066 65.835 25.4839 65.67 25.1906 65.45C24.9046 65.2227 24.6479 64.944 24.4206 64.614L25.2346 63.679C25.5939 64.1923 25.9386 64.548 26.2686 64.746C26.5986 64.944 26.9909 65.043 27.4456 65.043C27.7243 65.043 27.9773 64.999 28.2046 64.911C28.4319 64.823 28.6116 64.702 28.7436 64.548C28.8756 64.394 28.9416 64.218 28.9416 64.02C28.9416 63.888 28.9196 63.7633 28.8756 63.646C28.8316 63.5287 28.7619 63.4223 28.6666 63.327C28.5786 63.2317 28.4613 63.1437 28.3146 63.063C28.1753 62.9823 28.0103 62.9127 27.8196 62.854C27.6289 62.788 27.4089 62.733 27.1596 62.689C26.7636 62.6083 26.4189 62.502 26.1256 62.37C25.8323 62.238 25.5866 62.073 25.3886 61.875C25.1906 61.677 25.0439 61.4533 24.9486 61.204C24.8533 60.9473 24.8056 60.6613 24.8056 60.346C24.8056 60.038 24.8716 59.752 25.0036 59.488C25.1429 59.224 25.3299 58.9967 25.5646 58.806C25.8066 58.608 26.0889 58.4577 26.4116 58.355C26.7343 58.245 27.0826 58.19 27.4566 58.19C27.8526 58.19 28.2156 58.2413 28.5456 58.344C28.8756 58.4467 29.1689 58.6007 29.4256 58.806C29.6823 59.004 29.8949 59.2497 30.0636 59.543L29.2276 60.368C29.0809 60.126 28.9159 59.9243 28.7326 59.763C28.5493 59.5943 28.3476 59.4697 28.1276 59.389C27.9076 59.301 27.6729 59.257 27.4236 59.257C27.1376 59.257 26.8883 59.301 26.6756 59.389C26.4629 59.477 26.2943 59.6017 26.1696 59.763C26.0523 59.917 25.9936 60.1003 25.9936 60.313C25.9936 60.467 26.0229 60.61 26.0816 60.742C26.1403 60.8667 26.2283 60.9803 26.3456 61.083C26.4703 61.1783 26.6353 61.2663 26.8406 61.347C27.0459 61.4203 27.2916 61.4863 27.5776 61.545C27.9809 61.633 28.3403 61.7467 28.6556 61.886C28.9709 62.018 29.2386 62.1757 29.4586 62.359C29.6786 62.5423 29.8436 62.7477 29.9536 62.975C30.0709 63.2023 30.1296 63.448 30.1296 63.712C30.1296 64.2033 30.0159 64.6287 29.7886 64.988C29.5613 65.3473 29.2386 65.626 28.8206 65.824C28.4026 66.0147 27.9039 66.11 27.3246 66.11ZM32.2419 66V58.751H33.3749V66H32.2419ZM31.0429 61.325V60.225H34.7169V61.325H31.0429ZM36.2105 66.121C35.9685 66.121 35.7815 66.0513 35.6495 65.912C35.5175 65.7653 35.4515 65.56 35.4515 65.296C35.4515 65.054 35.5212 64.856 35.6605 64.702C35.7999 64.548 35.9832 64.471 36.2105 64.471C36.4525 64.471 36.6395 64.5443 36.7715 64.691C36.9035 64.8303 36.9695 65.032 36.9695 65.296C36.9695 65.538 36.8999 65.736 36.7605 65.89C36.6212 66.044 36.4379 66.121 36.2105 66.121ZM43.3585 66.11C43.1091 66.11 42.8708 66.077 42.6435 66.011C42.4161 65.945 42.2035 65.8497 42.0055 65.725C41.8148 65.6003 41.6425 65.4537 41.4885 65.285C41.3345 65.109 41.2025 64.9183 41.0925 64.713L41.8405 63.932C41.9945 64.152 42.1338 64.328 42.2585 64.46C42.3905 64.592 42.5151 64.6947 42.6325 64.768C42.7498 64.8413 42.8671 64.8927 42.9845 64.922C43.1018 64.944 43.2265 64.955 43.3585 64.955C43.6225 64.955 43.8535 64.8963 44.0515 64.779C44.2495 64.6543 44.4035 64.4857 44.5135 64.273C44.6235 64.0603 44.6785 63.8183 44.6785 63.547V59.4H43.2705V58.3H47.0545V59.4H45.8665V63.657C45.8665 64.009 45.8041 64.3353 45.6795 64.636C45.5621 64.9293 45.3898 65.186 45.1625 65.406C44.9425 65.626 44.6785 65.7983 44.3705 65.923C44.0698 66.0477 43.7325 66.11 43.3585 66.11ZM49.8682 66.11C49.4576 66.11 49.0982 66.0147 48.7902 65.824C48.4896 65.6333 48.2549 65.3657 48.0862 65.021C47.9249 64.6763 47.8442 64.2657 47.8442 63.789V60.225H48.9772V63.481C48.9772 63.8183 49.0286 64.1117 49.1312 64.361C49.2412 64.603 49.3952 64.79 49.5932 64.922C49.7986 65.054 50.0442 65.12 50.3302 65.12C50.5429 65.12 50.7372 65.087 50.9132 65.021C51.0892 64.9477 51.2396 64.8487 51.3642 64.724C51.4962 64.5993 51.5989 64.449 51.6722 64.273C51.7456 64.097 51.7822 63.9063 51.7822 63.701V60.225H52.9152V66H51.7822V64.79L51.9802 64.658C51.8922 64.9293 51.7419 65.175 51.5292 65.395C51.3239 65.615 51.0782 65.791 50.7922 65.923C50.5062 66.0477 50.1982 66.11 49.8682 66.11ZM56.9134 66.11C56.3854 66.11 55.9124 65.9817 55.4944 65.725C55.0837 65.461 54.7574 65.1053 54.5154 64.658C54.2734 64.2033 54.1524 63.6863 54.1524 63.107C54.1524 62.5277 54.2697 62.0143 54.5044 61.567C54.7464 61.1123 55.0727 60.7567 55.4834 60.5C55.8941 60.236 56.3597 60.104 56.8804 60.104C57.1664 60.104 57.4414 60.1517 57.7054 60.247C57.9767 60.335 58.2187 60.4597 58.4314 60.621C58.6441 60.775 58.8091 60.9473 58.9264 61.138C59.0511 61.3213 59.1134 61.5083 59.1134 61.699L58.7834 61.721V57.86H59.9164V66H58.7834V64.625H59.0034C59.0034 64.801 58.9447 64.977 58.8274 65.153C58.7101 65.3217 58.5524 65.4793 58.3544 65.626C58.1637 65.7727 57.9401 65.89 57.6834 65.978C57.4341 66.066 57.1774 66.11 56.9134 66.11ZM57.0674 65.131C57.4121 65.131 57.7164 65.043 57.9804 64.867C58.2444 64.691 58.4497 64.4527 58.5964 64.152C58.7504 63.844 58.8274 63.4957 58.8274 63.107C58.8274 62.7183 58.7504 62.3737 58.5964 62.073C58.4497 61.765 58.2444 61.523 57.9804 61.347C57.7164 61.171 57.4121 61.083 57.0674 61.083C56.7227 61.083 56.4184 61.171 56.1544 61.347C55.8904 61.523 55.6814 61.765 55.5274 62.073C55.3807 62.3737 55.3074 62.7183 55.3074 63.107C55.3074 63.4957 55.3807 63.844 55.5274 64.152C55.6814 64.4527 55.8904 64.691 56.1544 64.867C56.4184 65.043 56.7227 65.131 57.0674 65.131ZM64.1711 66.11C63.5771 66.11 63.0491 65.9853 62.5871 65.736C62.1324 65.4793 61.7731 65.131 61.5091 64.691C61.2524 64.251 61.1241 63.745 61.1241 63.173C61.1241 62.7183 61.1974 62.304 61.3441 61.93C61.4907 61.556 61.6924 61.2333 61.9491 60.962C62.2131 60.6833 62.5247 60.4707 62.8841 60.324C63.2507 60.17 63.6467 60.093 64.0721 60.093C64.4461 60.093 64.7944 60.1663 65.1171 60.313C65.4397 60.4523 65.7184 60.6467 65.9531 60.896C66.1951 61.1453 66.3784 61.4423 66.5031 61.787C66.6351 62.1243 66.6974 62.4947 66.6901 62.898L66.6791 63.382H61.9601L61.7071 62.48H65.7001L65.5351 62.667V62.403C65.5131 62.161 65.4324 61.9447 65.2931 61.754C65.1537 61.5633 64.9777 61.413 64.7651 61.303C64.5524 61.193 64.3214 61.138 64.0721 61.138C63.6761 61.138 63.3424 61.215 63.0711 61.369C62.7997 61.5157 62.5944 61.7357 62.4551 62.029C62.3157 62.315 62.2461 62.6707 62.2461 63.096C62.2461 63.4993 62.3304 63.8513 62.4991 64.152C62.6677 64.4453 62.9061 64.6727 63.2141 64.834C63.5221 64.9953 63.8777 65.076 64.2811 65.076C64.5671 65.076 64.8311 65.0283 65.0731 64.933C65.3224 64.8377 65.5901 64.6653 65.8761 64.416L66.4481 65.219C66.2721 65.395 66.0557 65.549 65.7991 65.681C65.5497 65.813 65.2821 65.9193 64.9961 66C64.7174 66.0733 64.4424 66.11 64.1711 66.11ZM8.63775 82.046C7.74309 81.4887 7.06109 80.792 6.59175 79.956C6.12242 79.12 5.88775 78.1887 5.88775 77.162C5.88775 76.1427 6.12242 75.215 6.59175 74.379C7.06842 73.5357 7.75409 72.8353 8.64875 72.278L9.25375 72.96C8.50575 73.4807 7.93375 74.104 7.53775 74.83C7.14909 75.5487 6.95475 76.326 6.95475 77.162C6.95475 77.998 7.14909 78.779 7.53775 79.505C7.93375 80.2237 8.50575 80.8433 9.25375 81.364L8.63775 82.046ZM10.5541 80V72.3H11.7201L14.5251 76.865L13.9641 76.854L16.8021 72.3H17.9021V80H16.7141V76.843C16.7141 76.183 16.7287 75.589 16.7581 75.061C16.7947 74.533 16.8534 74.0087 16.9341 73.488L17.0881 73.895L14.5691 77.789H13.8431L11.4011 73.939L11.5221 73.488C11.6027 73.9793 11.6577 74.4853 11.6871 75.006C11.7237 75.5193 11.7421 76.1317 11.7421 76.843V80H10.5541ZM21.9969 80.11C21.5202 80.11 21.0839 79.978 20.6879 79.714C20.2992 79.45 19.9876 79.0907 19.7529 78.636C19.5182 78.1813 19.4009 77.668 19.4009 77.096C19.4009 76.5167 19.5182 76.0033 19.7529 75.556C19.9949 75.1013 20.3176 74.7457 20.7209 74.489C21.1316 74.2323 21.5899 74.104 22.0959 74.104C22.3966 74.104 22.6716 74.148 22.9209 74.236C23.1702 74.324 23.3866 74.4487 23.5699 74.61C23.7606 74.764 23.9146 74.9437 24.0319 75.149C24.1566 75.3543 24.2336 75.5743 24.2629 75.809L24.0099 75.721V74.225H25.1539V80H24.0099V78.625L24.2739 78.548C24.2299 78.746 24.1382 78.9403 23.9989 79.131C23.8669 79.3143 23.6946 79.4793 23.4819 79.626C23.2766 79.7727 23.0456 79.89 22.7889 79.978C22.5396 80.066 22.2756 80.11 21.9969 80.11ZM22.2939 79.065C22.6386 79.065 22.9429 78.9807 23.2069 78.812C23.4709 78.6433 23.6762 78.4123 23.8229 78.119C23.9769 77.8183 24.0539 77.4773 24.0539 77.096C24.0539 76.722 23.9769 76.3883 23.8229 76.095C23.6762 75.8017 23.4709 75.5707 23.2069 75.402C22.9429 75.2333 22.6386 75.149 22.2939 75.149C21.9566 75.149 21.6559 75.2333 21.3919 75.402C21.1352 75.5707 20.9299 75.8017 20.7759 76.095C20.6292 76.3883 20.5559 76.722 20.5559 77.096C20.5559 77.4773 20.6292 77.8183 20.7759 78.119C20.9299 78.4123 21.1352 78.6433 21.3919 78.812C21.6559 78.9807 21.9566 79.065 22.2939 79.065ZM26.7358 80V74.225H27.8798V76.04L27.7698 75.6C27.8505 75.3213 27.9862 75.0683 28.1768 74.841C28.3748 74.6137 28.5985 74.434 28.8478 74.302C29.1045 74.17 29.3685 74.104 29.6398 74.104C29.7645 74.104 29.8818 74.115 29.9918 74.137C30.1092 74.159 30.2008 74.1847 30.2668 74.214L29.9698 75.446C29.8818 75.4093 29.7828 75.38 29.6728 75.358C29.5702 75.3287 29.4675 75.314 29.3648 75.314C29.1668 75.314 28.9762 75.3543 28.7928 75.435C28.6168 75.5083 28.4592 75.6147 28.3198 75.754C28.1878 75.886 28.0815 76.0437 28.0008 76.227C27.9202 76.403 27.8798 76.5973 27.8798 76.81V80H26.7358ZM33.5213 80.11C32.9566 80.11 32.4506 79.9817 32.0033 79.725C31.5633 79.461 31.215 79.1053 30.9583 78.658C30.7016 78.2033 30.5733 77.6863 30.5733 77.107C30.5733 76.5277 30.7016 76.0143 30.9583 75.567C31.215 75.1123 31.5633 74.7567 32.0033 74.5C32.4506 74.236 32.9566 74.104 33.5213 74.104C34.0786 74.104 34.5773 74.236 35.0173 74.5C35.4646 74.7567 35.8166 75.1123 36.0733 75.567C36.33 76.0143 36.4583 76.5277 36.4583 77.107C36.4583 77.6863 36.33 78.2033 36.0733 78.658C35.8166 79.1053 35.4646 79.461 35.0173 79.725C34.5773 79.9817 34.0786 80.11 33.5213 80.11ZM33.5213 79.076C33.866 79.076 34.174 78.9917 34.4453 78.823C34.7166 78.647 34.9293 78.4123 35.0833 78.119C35.2373 77.8183 35.3106 77.481 35.3033 77.107C35.3106 76.7257 35.2373 76.3883 35.0833 76.095C34.9293 75.7943 34.7166 75.5597 34.4453 75.391C34.174 75.2223 33.866 75.138 33.5213 75.138C33.1766 75.138 32.865 75.226 32.5863 75.402C32.315 75.5707 32.1023 75.8053 31.9483 76.106C31.7943 76.3993 31.721 76.733 31.7283 77.107C31.721 77.481 31.7943 77.8183 31.9483 78.119C32.1023 78.4123 32.315 78.647 32.5863 78.823C32.865 78.9917 33.1766 79.076 33.5213 79.076ZM37.6929 80V74.225H38.8259V75.413L38.6279 75.545C38.7012 75.2883 38.8442 75.0537 39.0569 74.841C39.2695 74.621 39.5225 74.445 39.8159 74.313C40.1092 74.1737 40.4099 74.104 40.7179 74.104C41.1579 74.104 41.5245 74.192 41.8179 74.368C42.1112 74.5367 42.3312 74.797 42.4779 75.149C42.6245 75.501 42.6979 75.9447 42.6979 76.48V80H41.5649V76.557C41.5649 76.227 41.5209 75.9557 41.4329 75.743C41.3449 75.523 41.2092 75.3653 41.0259 75.27C40.8425 75.1673 40.6152 75.1233 40.3439 75.138C40.1239 75.138 39.9222 75.1747 39.7389 75.248C39.5555 75.314 39.3942 75.4093 39.2549 75.534C39.1229 75.6587 39.0165 75.8053 38.9359 75.974C38.8625 76.1353 38.8259 76.3113 38.8259 76.502V80H38.2649C38.1695 80 38.0742 80 37.9789 80C37.8835 80 37.7882 80 37.6929 80ZM44.4219 80V74.225H45.5549V80H44.4219ZM44.9719 72.949C44.7299 72.949 44.5429 72.8867 44.4109 72.762C44.2789 72.6373 44.2129 72.4613 44.2129 72.234C44.2129 72.0213 44.2789 71.849 44.4109 71.717C44.5502 71.585 44.7372 71.519 44.9719 71.519C45.2139 71.519 45.4009 71.5813 45.5329 71.706C45.6649 71.8307 45.7309 72.0067 45.7309 72.234C45.7309 72.4467 45.6612 72.619 45.5219 72.751C45.3899 72.883 45.2065 72.949 44.9719 72.949ZM48.0114 80V72.751H49.1444V80H48.0114ZM46.8124 75.325V74.225H50.4864V75.325H46.8124ZM54.1594 80.11C53.5654 80.11 53.0374 79.9853 52.5754 79.736C52.1207 79.4793 51.7614 79.131 51.4974 78.691C51.2407 78.251 51.1124 77.745 51.1124 77.173C51.1124 76.7183 51.1857 76.304 51.3324 75.93C51.479 75.556 51.6807 75.2333 51.9374 74.962C52.2014 74.6833 52.513 74.4707 52.8724 74.324C53.239 74.17 53.635 74.093 54.0604 74.093C54.4344 74.093 54.7827 74.1663 55.1054 74.313C55.428 74.4523 55.7067 74.6467 55.9414 74.896C56.1834 75.1453 56.3667 75.4423 56.4914 75.787C56.6234 76.1243 56.6857 76.4947 56.6784 76.898L56.6674 77.382H51.9484L51.6954 76.48H55.6884L55.5234 76.667V76.403C55.5014 76.161 55.4207 75.9447 55.2814 75.754C55.142 75.5633 54.966 75.413 54.7534 75.303C54.5407 75.193 54.3097 75.138 54.0604 75.138C53.6644 75.138 53.3307 75.215 53.0594 75.369C52.788 75.5157 52.5827 75.7357 52.4434 76.029C52.304 76.315 52.2344 76.6707 52.2344 77.096C52.2344 77.4993 52.3187 77.8513 52.4874 78.152C52.656 78.4453 52.8944 78.6727 53.2024 78.834C53.5104 78.9953 53.866 79.076 54.2694 79.076C54.5554 79.076 54.8194 79.0283 55.0614 78.933C55.3107 78.8377 55.5784 78.6653 55.8644 78.416L56.4364 79.219C56.2604 79.395 56.044 79.549 55.7874 79.681C55.538 79.813 55.2704 79.9193 54.9844 80C54.7057 80.0733 54.4307 80.11 54.1594 80.11ZM61.2787 80V72.3H64.5567C64.9967 72.3 65.4 72.41 65.7667 72.63C66.1407 72.8427 66.4377 73.136 66.6577 73.51C66.8777 73.8767 66.9877 74.291 66.9877 74.753C66.9877 75.171 66.8777 75.5597 66.6577 75.919C66.4377 76.2783 66.1444 76.568 65.7777 76.788C65.411 77.0007 65.004 77.107 64.5567 77.107H62.4667V80H61.2787ZM65.8547 80L63.8967 76.524L65.1177 76.249L67.2957 80.011L65.8547 80ZM62.4667 75.963H64.6667C64.8794 75.963 65.07 75.9117 65.2387 75.809C65.4074 75.699 65.5394 75.5523 65.6347 75.369C65.73 75.1783 65.7777 74.9693 65.7777 74.742C65.7777 74.4853 65.7154 74.2617 65.5907 74.071C65.4734 73.873 65.3047 73.719 65.0847 73.609C64.872 73.499 64.63 73.444 64.3587 73.444H62.4667V75.963ZM68.8281 80V74.225H69.9611V80H68.8281ZM69.3781 72.949C69.1361 72.949 68.9491 72.8867 68.8171 72.762C68.6851 72.6373 68.6191 72.4613 68.6191 72.234C68.6191 72.0213 68.6851 71.849 68.8171 71.717C68.9565 71.585 69.1435 71.519 69.3781 71.519C69.6201 71.519 69.8071 71.5813 69.9391 71.706C70.0711 71.8307 70.1371 72.0067 70.1371 72.234C70.1371 72.4467 70.0675 72.619 69.9281 72.751C69.7961 72.883 69.6128 72.949 69.3781 72.949ZM72.4176 80V72.751H73.5506V80H72.4176ZM71.2186 75.325V74.225H74.8926V75.325H71.2186ZM78.5656 80.11C77.9716 80.11 77.4436 79.9853 76.9816 79.736C76.5269 79.4793 76.1676 79.131 75.9036 78.691C75.6469 78.251 75.5186 77.745 75.5186 77.173C75.5186 76.7183 75.5919 76.304 75.7386 75.93C75.8853 75.556 76.0869 75.2333 76.3436 74.962C76.6076 74.6833 76.9193 74.4707 77.2786 74.324C77.6453 74.17 78.0413 74.093 78.4666 74.093C78.8406 74.093 79.1889 74.1663 79.5116 74.313C79.8343 74.4523 80.1129 74.6467 80.3476 74.896C80.5896 75.1453 80.7729 75.4423 80.8976 75.787C81.0296 76.1243 81.0919 76.4947 81.0846 76.898L81.0736 77.382H76.3546L76.1016 76.48H80.0946L79.9296 76.667V76.403C79.9076 76.161 79.8269 75.9447 79.6876 75.754C79.5483 75.5633 79.3723 75.413 79.1596 75.303C78.9469 75.193 78.7159 75.138 78.4666 75.138C78.0706 75.138 77.7369 75.215 77.4656 75.369C77.1943 75.5157 76.9889 75.7357 76.8496 76.029C76.7103 76.315 76.6406 76.6707 76.6406 77.096C76.6406 77.4993 76.7249 77.8513 76.8936 78.152C77.0623 78.4453 77.3006 78.6727 77.6086 78.834C77.9166 78.9953 78.2723 79.076 78.6756 79.076C78.9616 79.076 79.2256 79.0283 79.4676 78.933C79.7169 78.8377 79.9846 78.6653 80.2706 78.416L80.8426 79.219C80.6666 79.395 80.4503 79.549 80.1936 79.681C79.9443 79.813 79.6766 79.9193 79.3906 80C79.1119 80.0733 78.8369 80.11 78.5656 80.11ZM82.3489 82.046L81.7439 81.364C82.4919 80.8433 83.0603 80.2237 83.4489 79.505C83.8449 78.779 84.0429 77.998 84.0429 77.162C84.0429 76.326 83.8449 75.5487 83.4489 74.83C83.0603 74.104 82.4919 73.4807 81.7439 72.96L82.3599 72.278C83.2546 72.8353 83.9366 73.532 84.4059 74.368C84.8753 75.204 85.1099 76.1353 85.1099 77.162C85.1099 78.1813 84.8716 79.1127 84.3949 79.956C83.9256 80.792 83.2436 81.4887 82.3489 82.046Z" fill="black"/>
</svg>
