<svg width="76" height="67" viewBox="0 0 76 67" fill="none" xmlns="http://www.w3.org/2000/svg">
<path d="M21 0H53L59 37L75 46.5L76 66.5H1L0 45L20 35.5L21 0Z" fill="#FF0000" fill-opacity="0.31"/>
<path d="M40.0657 4.5H34.9343C34.5349 4.5 34.2967 4.94507 34.5182 5.27735L35.916 7.37404C35.9708 7.45617 36 7.55268 36 7.65139V9V13C36 13.2761 35.7761 13.5 35.5 13.5H31.5H28.6514C28.5527 13.5 28.4562 13.4708 28.374 13.416L26.2773 12.0182C25.9451 11.7967 25.5 12.0349 25.5 12.4343V17.5657C25.5 17.9651 25.9451 18.2033 26.2774 17.9818L28.374 16.584C28.4562 16.5292 28.5527 16.5 28.6514 16.5H31.5H35.5C35.7761 16.5 36 16.7239 36 17V20.5V36.382C36 36.4596 35.9819 36.5361 35.9472 36.6056L34.8618 38.7764C34.6956 39.1088 34.9373 39.5 35.309 39.5H39.691C40.0627 39.5 40.3044 39.1088 40.1382 38.7764L39.0528 36.6056C39.0181 36.5361 39 36.4596 39 36.382V20.5V17C39 16.7239 39.2239 16.5 39.5 16.5H43.5H46.3486C46.4473 16.5 46.5438 16.5292 46.626 16.584L48.7227 17.9818C49.0549 18.2033 49.5 17.9651 49.5 17.5657V12.4343C49.5 12.0349 49.0549 11.7967 48.7227 12.0182L46.626 13.416C46.5438 13.4708 46.4473 13.5 46.3486 13.5H43.5H39.5C39.2239 13.5 39 13.2761 39 13V9V7.65139C39 7.55268 39.0292 7.45617 39.084 7.37404L40.4818 5.27735C40.7033 4.94507 40.4651 4.5 40.0657 4.5Z" fill="#4F4533"/>
<path d="M36 9V13C36 13.2761 35.7761 13.5 35.5 13.5H31.5M36 9V7.65139C36 7.55268 35.9708 7.45617 35.916 7.37404L34.5182 5.27735C34.2967 4.94507 34.5349 4.5 34.9343 4.5H40.0657C40.4651 4.5 40.7033 4.94507 40.4818 5.27735L39.084 7.37404C39.0292 7.45617 39 7.55268 39 7.65139V9M36 9C33.5 9 31.5 11 31.5 13.5M31.5 13.5H28.6514C28.5527 13.5 28.4562 13.4708 28.374 13.416L26.2773 12.0182C25.9451 11.7967 25.5 12.0349 25.5 12.4343V17.5657C25.5 17.9651 25.9451 18.2033 26.2774 17.9818L28.374 16.584C28.4562 16.5292 28.5527 16.5 28.6514 16.5H31.5M39 9V13C39 13.2761 39.2239 13.5 39.5 13.5H43.5M39 9C41.5 9 43.5 11 43.5 13.5M43.5 13.5H46.3486C46.4473 13.5 46.5438 13.4708 46.626 13.416L48.7227 12.0182C49.0549 11.7967 49.5 12.0349 49.5 12.4343V17.5657C49.5 17.9651 49.0549 18.2033 48.7226 17.9818L46.626 16.584C46.5438 16.5292 46.4473 16.5 46.3486 16.5H43.5M43.5 16.5H39.5C39.2239 16.5 39 16.7239 39 17V20.5M43.5 16.5C43.5 19 41.5 20.5 39 20.5M39 20.5V36.382C39 36.4596 39.0181 36.5361 39.0528 36.6056L40.1382 38.7764C40.3044 39.1088 40.0627 39.5 39.691 39.5H35.309C34.9373 39.5 34.6956 39.1088 34.8618 38.7764L35.9472 36.6056C35.9819 36.5361 36 36.4596 36 36.382V20.5M36 20.5V17C36 16.7239 35.7761 16.5 35.5 16.5H31.5M36 20.5C33.5 20.5 31.5 19 31.5 16.5" stroke="black"/>
<path d="M30.9712 49.11C30.4652 49.11 30.0068 49.0513 29.5962 48.934C29.1928 48.8093 28.8335 48.6333 28.5182 48.406C28.2028 48.1713 27.9205 47.8963 27.6712 47.581L28.8042 46.294C29.1708 46.7853 29.5375 47.1153 29.9042 47.284C30.2782 47.4527 30.6632 47.537 31.0592 47.537C31.2572 47.537 31.4368 47.5113 31.5982 47.46C31.7595 47.4087 31.8842 47.3353 31.9722 47.24C32.0602 47.1373 32.1042 47.0127 32.1042 46.866C32.1042 46.756 32.0748 46.657 32.0162 46.569C31.9648 46.481 31.8915 46.404 31.7962 46.338C31.7008 46.272 31.5872 46.2133 31.4552 46.162C31.3232 46.1033 31.1838 46.0557 31.0372 46.019C30.8905 45.975 30.7402 45.9383 30.5862 45.909C30.1608 45.8137 29.7905 45.6963 29.4752 45.557C29.1598 45.4177 28.8958 45.249 28.6832 45.051C28.4778 44.8457 28.3238 44.6147 28.2212 44.358C28.1185 44.094 28.0672 43.8007 28.0672 43.478C28.0672 43.1333 28.1442 42.818 28.2982 42.532C28.4595 42.2387 28.6722 41.9893 28.9362 41.784C29.2075 41.5713 29.5192 41.41 29.8712 41.3C30.2232 41.1827 30.5898 41.124 30.9712 41.124C31.4772 41.124 31.9098 41.179 32.2692 41.289C32.6358 41.3917 32.9475 41.542 33.2042 41.74C33.4682 41.938 33.6918 42.1763 33.8752 42.455L32.7202 43.566C32.5662 43.3753 32.3975 43.2177 32.2142 43.093C32.0382 42.9683 31.8475 42.873 31.6422 42.807C31.4442 42.741 31.2388 42.708 31.0262 42.708C30.8062 42.708 30.6155 42.7373 30.4542 42.796C30.3002 42.8473 30.1792 42.9243 30.0912 43.027C30.0032 43.1223 29.9592 43.2397 29.9592 43.379C29.9592 43.5037 29.9958 43.61 30.0692 43.698C30.1425 43.786 30.2415 43.8667 30.3662 43.94C30.4908 44.006 30.6338 44.0647 30.7952 44.116C30.9565 44.16 31.1252 44.1967 31.3012 44.226C31.7045 44.3067 32.0675 44.413 32.3902 44.545C32.7202 44.677 33.0025 44.8383 33.2372 45.029C33.4792 45.2197 33.6625 45.447 33.7872 45.711C33.9192 45.9677 33.9852 46.2683 33.9852 46.613C33.9852 47.1483 33.8532 47.603 33.5892 47.977C33.3325 48.3437 32.9768 48.626 32.5222 48.824C32.0748 49.0147 31.5578 49.11 30.9712 49.11ZM35.3909 49V41.3H37.2609V47.35H40.6929V49H35.3909ZM45.3771 49.11C44.7978 49.11 44.2625 49.0147 43.7711 48.824C43.2871 48.626 42.8655 48.351 42.5061 47.999C42.1468 47.6397 41.8681 47.218 41.6701 46.734C41.4795 46.2427 41.3841 45.7037 41.3841 45.117C41.3841 44.545 41.4868 44.017 41.6921 43.533C41.8975 43.049 42.1798 42.631 42.5391 42.279C42.9058 41.9197 43.3348 41.641 43.8261 41.443C44.3248 41.245 44.8675 41.146 45.4541 41.146C45.8208 41.146 46.1801 41.1937 46.5321 41.289C46.8841 41.3843 47.2105 41.5273 47.5111 41.718C47.8191 41.9013 48.0831 42.1213 48.3031 42.378L47.1591 43.687C47.0051 43.5257 46.8401 43.3863 46.6641 43.269C46.4955 43.1443 46.3085 43.049 46.1031 42.983C45.8978 42.917 45.6778 42.884 45.4431 42.884C45.1498 42.884 44.8711 42.939 44.6071 43.049C44.3505 43.1517 44.1231 43.302 43.9251 43.5C43.7345 43.6907 43.5841 43.9253 43.4741 44.204C43.3641 44.4827 43.3091 44.7943 43.3091 45.139C43.3091 45.4763 43.3641 45.7843 43.4741 46.063C43.5841 46.3343 43.7381 46.569 43.9361 46.767C44.1341 46.965 44.3725 47.1153 44.6511 47.218C44.9371 47.3207 45.2525 47.372 45.5971 47.372C45.8318 47.372 46.0555 47.339 46.2681 47.273C46.4808 47.207 46.6751 47.119 46.8511 47.009C47.0345 46.8917 47.1958 46.7597 47.3351 46.613L48.2371 48.043C48.0538 48.2483 47.8081 48.4317 47.5001 48.593C47.1995 48.7543 46.8621 48.8827 46.4881 48.978C46.1215 49.066 45.7511 49.11 45.3771 49.11ZM5.92959 63.11C5.51159 63.11 5.12292 63.055 4.76359 62.945C4.41159 62.835 4.08892 62.67 3.79559 62.45C3.50959 62.2227 3.25292 61.944 3.02559 61.614L3.83959 60.679C4.19892 61.1923 4.54359 61.548 4.87359 61.746C5.20359 61.944 5.59592 62.043 6.05059 62.043C6.32925 62.043 6.58225 61.999 6.80959 61.911C7.03692 61.823 7.21659 61.702 7.34859 61.548C7.48059 61.394 7.54659 61.218 7.54659 61.02C7.54659 60.888 7.52459 60.7633 7.48059 60.646C7.43659 60.5287 7.36692 60.4223 7.27159 60.327C7.18359 60.2317 7.06625 60.1437 6.91959 60.063C6.78025 59.9823 6.61525 59.9127 6.42459 59.854C6.23392 59.788 6.01392 59.733 5.76459 59.689C5.36859 59.6083 5.02392 59.502 4.73059 59.37C4.43725 59.238 4.19159 59.073 3.99359 58.875C3.79559 58.677 3.64892 58.4533 3.55359 58.204C3.45825 57.9473 3.41059 57.6613 3.41059 57.346C3.41059 57.038 3.47659 56.752 3.60859 56.488C3.74792 56.224 3.93492 55.9967 4.16959 55.806C4.41159 55.608 4.69392 55.4577 5.01659 55.355C5.33925 55.245 5.68759 55.19 6.06159 55.19C6.45759 55.19 6.82059 55.2413 7.15059 55.344C7.48059 55.4467 7.77392 55.6007 8.03059 55.806C8.28725 56.004 8.49992 56.2497 8.66859 56.543L7.83259 57.368C7.68592 57.126 7.52092 56.9243 7.33759 56.763C7.15425 56.5943 6.95259 56.4697 6.73259 56.389C6.51259 56.301 6.27792 56.257 6.02859 56.257C5.74259 56.257 5.49325 56.301 5.28059 56.389C5.06792 56.477 4.89925 56.6017 4.77459 56.763C4.65725 56.917 4.59859 57.1003 4.59859 57.313C4.59859 57.467 4.62792 57.61 4.68659 57.742C4.74525 57.8667 4.83325 57.9803 4.95059 58.083C5.07525 58.1783 5.24025 58.2663 5.44559 58.347C5.65092 58.4203 5.89659 58.4863 6.18259 58.545C6.58592 58.633 6.94525 58.7467 7.26059 58.886C7.57592 59.018 7.84359 59.1757 8.06359 59.359C8.28359 59.5423 8.44859 59.7477 8.55859 59.975C8.67592 60.2023 8.73459 60.448 8.73459 60.712C8.73459 61.2033 8.62092 61.6287 8.39359 61.988C8.16625 62.3473 7.84359 62.626 7.42559 62.824C7.00759 63.0147 6.50892 63.11 5.92959 63.11ZM12.3538 63.11C11.8772 63.11 11.4408 62.978 11.0448 62.714C10.6562 62.45 10.3445 62.0907 10.1098 61.636C9.87518 61.1813 9.75784 60.668 9.75784 60.096C9.75784 59.5167 9.87518 59.0033 10.1098 58.556C10.3518 58.1013 10.6745 57.7457 11.0778 57.489C11.4885 57.2323 11.9468 57.104 12.4528 57.104C12.7535 57.104 13.0285 57.148 13.2778 57.236C13.5272 57.324 13.7435 57.4487 13.9268 57.61C14.1175 57.764 14.2715 57.9437 14.3888 58.149C14.5135 58.3543 14.5905 58.5743 14.6198 58.809L14.3668 58.721V57.225H15.5108V63H14.3668V61.625L14.6308 61.548C14.5868 61.746 14.4952 61.9403 14.3558 62.131C14.2238 62.3143 14.0515 62.4793 13.8388 62.626C13.6335 62.7727 13.4025 62.89 13.1458 62.978C12.8965 63.066 12.6325 63.11 12.3538 63.11ZM12.6508 62.065C12.9955 62.065 13.2998 61.9807 13.5638 61.812C13.8278 61.6433 14.0332 61.4123 14.1798 61.119C14.3338 60.8183 14.4108 60.4773 14.4108 60.096C14.4108 59.722 14.3338 59.3883 14.1798 59.095C14.0332 58.8017 13.8278 58.5707 13.5638 58.402C13.2998 58.2333 12.9955 58.149 12.6508 58.149C12.3135 58.149 12.0128 58.2333 11.7488 58.402C11.4922 58.5707 11.2868 58.8017 11.1328 59.095C10.9862 59.3883 10.9128 59.722 10.9128 60.096C10.9128 60.4773 10.9862 60.8183 11.1328 61.119C11.2868 61.4123 11.4922 61.6433 11.7488 61.812C12.0128 61.9807 12.3135 62.065 12.6508 62.065ZM19.5458 63.11C19.0104 63.11 18.5301 62.978 18.1048 62.714C17.6868 62.45 17.3531 62.0907 17.1038 61.636C16.8618 61.1813 16.7408 60.6717 16.7408 60.107C16.7408 59.5423 16.8618 59.0327 17.1038 58.578C17.3531 58.1233 17.6868 57.764 18.1048 57.5C18.5301 57.236 19.0104 57.104 19.5458 57.104C20.0591 57.104 20.5248 57.2103 20.9428 57.423C21.3681 57.6283 21.6908 57.9107 21.9108 58.27L21.2838 59.04C21.1664 58.8713 21.0161 58.7173 20.8328 58.578C20.6494 58.4387 20.4551 58.3287 20.2498 58.248C20.0444 58.1673 19.8464 58.127 19.6558 58.127C19.3038 58.127 18.9884 58.215 18.7098 58.391C18.4384 58.5597 18.2221 58.7943 18.0608 59.095C17.8994 59.3957 17.8188 59.733 17.8188 60.107C17.8188 60.481 17.9031 60.8183 18.0718 61.119C18.2404 61.4123 18.4641 61.647 18.7428 61.823C19.0214 61.999 19.3294 62.087 19.6668 62.087C19.8648 62.087 20.0554 62.054 20.2388 61.988C20.4294 61.922 20.6128 61.823 20.7888 61.691C20.9648 61.559 21.1298 61.3977 21.2838 61.207L21.9108 61.977C21.6761 62.307 21.3388 62.5783 20.8988 62.791C20.4661 63.0037 20.0151 63.11 19.5458 63.11ZM22.9795 63V57.225H24.1235V59.04L24.0135 58.6C24.0942 58.3213 24.2298 58.0683 24.4205 57.841C24.6185 57.6137 24.8422 57.434 25.0915 57.302C25.3482 57.17 25.6122 57.104 25.8835 57.104C26.0082 57.104 26.1255 57.115 26.2355 57.137C26.3528 57.159 26.4445 57.1847 26.5105 57.214L26.2135 58.446C26.1255 58.4093 26.0265 58.38 25.9165 58.358C25.8138 58.3287 25.7112 58.314 25.6085 58.314C25.4105 58.314 25.2198 58.3543 25.0365 58.435C24.8605 58.5083 24.7028 58.6147 24.5635 58.754C24.4315 58.886 24.3252 59.0437 24.2445 59.227C24.1638 59.403 24.1235 59.5973 24.1235 59.81V63H22.9795ZM29.864 63.11C29.27 63.11 28.742 62.9853 28.28 62.736C27.8253 62.4793 27.466 62.131 27.202 61.691C26.9453 61.251 26.817 60.745 26.817 60.173C26.817 59.7183 26.8903 59.304 27.037 58.93C27.1836 58.556 27.3853 58.2333 27.642 57.962C27.906 57.6833 28.2176 57.4707 28.577 57.324C28.9436 57.17 29.3396 57.093 29.765 57.093C30.139 57.093 30.4873 57.1663 30.81 57.313C31.1326 57.4523 31.4113 57.6467 31.646 57.896C31.888 58.1453 32.0713 58.4423 32.196 58.787C32.328 59.1243 32.3903 59.4947 32.383 59.898L32.372 60.382H27.653L27.4 59.48H31.393L31.228 59.667V59.403C31.206 59.161 31.1253 58.9447 30.986 58.754C30.8466 58.5633 30.6706 58.413 30.458 58.303C30.2453 58.193 30.0143 58.138 29.765 58.138C29.369 58.138 29.0353 58.215 28.764 58.369C28.4926 58.5157 28.2873 58.7357 28.148 59.029C28.0086 59.315 27.939 59.6707 27.939 60.096C27.939 60.4993 28.0233 60.8513 28.192 61.152C28.3606 61.4453 28.599 61.6727 28.907 61.834C29.215 61.9953 29.5706 62.076 29.974 62.076C30.26 62.076 30.524 62.0283 30.766 61.933C31.0153 61.8377 31.283 61.6653 31.569 61.416L32.141 62.219C31.965 62.395 31.7486 62.549 31.492 62.681C31.2426 62.813 30.975 62.9193 30.689 63C30.4103 63.0733 30.1353 63.11 29.864 63.11ZM36.0233 63.11C35.4953 63.11 35.0223 62.9817 34.6043 62.725C34.1936 62.461 33.8673 62.1053 33.6253 61.658C33.3833 61.2033 33.2623 60.6863 33.2623 60.107C33.2623 59.5277 33.3796 59.0143 33.6143 58.567C33.8563 58.1123 34.1826 57.7567 34.5933 57.5C35.0039 57.236 35.4696 57.104 35.9903 57.104C36.2763 57.104 36.5513 57.1517 36.8153 57.247C37.0866 57.335 37.3286 57.4597 37.5413 57.621C37.7539 57.775 37.9189 57.9473 38.0363 58.138C38.1609 58.3213 38.2233 58.5083 38.2233 58.699L37.8933 58.721V54.86H39.0263V63H37.8933V61.625H38.1133C38.1133 61.801 38.0546 61.977 37.9373 62.153C37.8199 62.3217 37.6623 62.4793 37.4643 62.626C37.2736 62.7727 37.0499 62.89 36.7933 62.978C36.5439 63.066 36.2873 63.11 36.0233 63.11ZM36.1773 62.131C36.5219 62.131 36.8263 62.043 37.0903 61.867C37.3543 61.691 37.5596 61.4527 37.7063 61.152C37.8603 60.844 37.9373 60.4957 37.9373 60.107C37.9373 59.7183 37.8603 59.3737 37.7063 59.073C37.5596 58.765 37.3543 58.523 37.0903 58.347C36.8263 58.171 36.5219 58.083 36.1773 58.083C35.8326 58.083 35.5283 58.171 35.2643 58.347C35.0003 58.523 34.7913 58.765 34.6373 59.073C34.4906 59.3737 34.4173 59.7183 34.4173 60.107C34.4173 60.4957 34.4906 60.844 34.6373 61.152C34.7913 61.4527 35.0003 61.691 35.2643 61.867C35.5283 62.043 35.8326 62.131 36.1773 62.131ZM48.982 63V55.3H50.17V63H48.982ZM43.955 63V55.3H45.143V63H43.955ZM44.472 59.733V58.589H49.51V59.733H44.472ZM54.7321 63.11C54.1381 63.11 53.6101 62.9853 53.1481 62.736C52.6935 62.4793 52.3341 62.131 52.0701 61.691C51.8135 61.251 51.6851 60.745 51.6851 60.173C51.6851 59.7183 51.7585 59.304 51.9051 58.93C52.0518 58.556 52.2535 58.2333 52.5101 57.962C52.7741 57.6833 53.0858 57.4707 53.4451 57.324C53.8118 57.17 54.2078 57.093 54.6331 57.093C55.0071 57.093 55.3555 57.1663 55.6781 57.313C56.0008 57.4523 56.2795 57.6467 56.5141 57.896C56.7561 58.1453 56.9395 58.4423 57.0641 58.787C57.1961 59.1243 57.2585 59.4947 57.2511 59.898L57.2401 60.382H52.5211L52.2681 59.48H56.2611L56.0961 59.667V59.403C56.0741 59.161 55.9935 58.9447 55.8541 58.754C55.7148 58.5633 55.5388 58.413 55.3261 58.303C55.1135 58.193 54.8825 58.138 54.6331 58.138C54.2371 58.138 53.9035 58.215 53.6321 58.369C53.3608 58.5157 53.1555 58.7357 53.0161 59.029C52.8768 59.315 52.8071 59.6707 52.8071 60.096C52.8071 60.4993 52.8915 60.8513 53.0601 61.152C53.2288 61.4453 53.4671 61.6727 53.7751 61.834C54.0831 61.9953 54.4388 62.076 54.8421 62.076C55.1281 62.076 55.3921 62.0283 55.6341 61.933C55.8835 61.8377 56.1511 61.6653 56.4371 61.416L57.0091 62.219C56.8331 62.395 56.6168 62.549 56.3601 62.681C56.1108 62.813 55.8431 62.9193 55.5571 63C55.2785 63.0733 55.0035 63.11 54.7321 63.11ZM60.7044 63.11C60.2278 63.11 59.7914 62.978 59.3954 62.714C59.0068 62.45 58.6951 62.0907 58.4604 61.636C58.2258 61.1813 58.1084 60.668 58.1084 60.096C58.1084 59.5167 58.2258 59.0033 58.4604 58.556C58.7024 58.1013 59.0251 57.7457 59.4284 57.489C59.8391 57.2323 60.2974 57.104 60.8034 57.104C61.1041 57.104 61.3791 57.148 61.6284 57.236C61.8778 57.324 62.0941 57.4487 62.2774 57.61C62.4681 57.764 62.6221 57.9437 62.7394 58.149C62.8641 58.3543 62.9411 58.5743 62.9704 58.809L62.7174 58.721V57.225H63.8614V63H62.7174V61.625L62.9814 61.548C62.9374 61.746 62.8458 61.9403 62.7064 62.131C62.5744 62.3143 62.4021 62.4793 62.1894 62.626C61.9841 62.7727 61.7531 62.89 61.4964 62.978C61.2471 63.066 60.9831 63.11 60.7044 63.11ZM61.0014 62.065C61.3461 62.065 61.6504 61.9807 61.9144 61.812C62.1784 61.6433 62.3838 61.4123 62.5304 61.119C62.6844 60.8183 62.7614 60.4773 62.7614 60.096C62.7614 59.722 62.6844 59.3883 62.5304 59.095C62.3838 58.8017 62.1784 58.5707 61.9144 58.402C61.6504 58.2333 61.3461 58.149 61.0014 58.149C60.6641 58.149 60.3634 58.2333 60.0994 58.402C59.8428 58.5707 59.6374 58.8017 59.4834 59.095C59.3368 59.3883 59.2634 59.722 59.2634 60.096C59.2634 60.4773 59.3368 60.8183 59.4834 61.119C59.6374 61.4123 59.8428 61.6433 60.0994 61.812C60.3634 61.9807 60.6641 62.065 61.0014 62.065ZM65.4434 63V57.225H66.5874V59.04L66.4774 58.6C66.558 58.3213 66.6937 58.0683 66.8844 57.841C67.0824 57.6137 67.306 57.434 67.5554 57.302C67.812 57.17 68.076 57.104 68.3474 57.104C68.472 57.104 68.5894 57.115 68.6994 57.137C68.8167 57.159 68.9084 57.1847 68.9744 57.214L68.6774 58.446C68.5894 58.4093 68.4904 58.38 68.3804 58.358C68.2777 58.3287 68.175 58.314 68.0724 58.314C67.8744 58.314 67.6837 58.3543 67.5004 58.435C67.3244 58.5083 67.1667 58.6147 67.0274 58.754C66.8954 58.886 66.789 59.0437 66.7084 59.227C66.6277 59.403 66.5874 59.5973 66.5874 59.81V63H65.4434ZM70.8097 63V55.751H71.9427V63H70.8097ZM69.6107 58.325V57.225H73.2847V58.325H69.6107Z" fill="black"/>
</svg>
