<svg width="68" height="85" viewBox="0 0 68 85" fill="none" xmlns="http://www.w3.org/2000/svg">
<path d="M17 0H49L55 37L67.5 47.5V85L0.5 84V45L16 35.5L17 0Z" fill="#FF0000" fill-opacity="0.31"/>
<path d="M36.0657 4.5H30.9343C30.5349 4.5 30.2967 4.94507 30.5182 5.27735L31.916 7.37404C31.9708 7.45617 32 7.55268 32 7.65139V9V13C32 13.2761 31.7761 13.5 31.5 13.5H27.5H24.6514C24.5527 13.5 24.4562 13.4708 24.374 13.416L22.2773 12.0182C21.9451 11.7967 21.5 12.0349 21.5 12.4343V17.5657C21.5 17.9651 21.9451 18.2033 22.2774 17.9818L24.374 16.584C24.4562 16.5292 24.5527 16.5 24.6514 16.5H27.5H31.5C31.7761 16.5 32 16.7239 32 17V20.5V36.382C32 36.4596 31.9819 36.5361 31.9472 36.6056L30.8618 38.7764C30.6956 39.1088 30.9373 39.5 31.309 39.5H35.691C36.0627 39.5 36.3044 39.1088 36.1382 38.7764L35.0528 36.6056C35.0181 36.5361 35 36.4596 35 36.382V20.5V17C35 16.7239 35.2239 16.5 35.5 16.5H39.5H42.3486C42.4473 16.5 42.5438 16.5292 42.626 16.584L44.7227 17.9818C45.0549 18.2033 45.5 17.9651 45.5 17.5657V12.4343C45.5 12.0349 45.0549 11.7967 44.7227 12.0182L42.626 13.416C42.5438 13.4708 42.4473 13.5 42.3486 13.5H39.5H35.5C35.2239 13.5 35 13.2761 35 13V9V7.65139C35 7.55268 35.0292 7.45617 35.084 7.37404L36.4818 5.27735C36.7033 4.94507 36.4651 4.5 36.0657 4.5Z" fill="#4F4533"/>
<path d="M32 9V13C32 13.2761 31.7761 13.5 31.5 13.5H27.5M32 9V7.65139C32 7.55268 31.9708 7.45617 31.916 7.37404L30.5182 5.27735C30.2967 4.94507 30.5349 4.5 30.9343 4.5H36.0657C36.4651 4.5 36.7033 4.94507 36.4818 5.27735L35.084 7.37404C35.0292 7.45617 35 7.55268 35 7.65139V9M32 9C29.5 9 27.5 11 27.5 13.5M27.5 13.5H24.6514C24.5527 13.5 24.4562 13.4708 24.374 13.416L22.2773 12.0182C21.9451 11.7967 21.5 12.0349 21.5 12.4343V17.5657C21.5 17.9651 21.9451 18.2033 22.2774 17.9818L24.374 16.584C24.4562 16.5292 24.5527 16.5 24.6514 16.5H27.5M35 9V13C35 13.2761 35.2239 13.5 35.5 13.5H39.5M35 9C37.5 9 39.5 11 39.5 13.5M39.5 13.5H42.3486C42.4473 13.5 42.5438 13.4708 42.626 13.416L44.7227 12.0182C45.0549 11.7967 45.5 12.0349 45.5 12.4343V17.5657C45.5 17.9651 45.0549 18.2033 44.7226 17.9818L42.626 16.584C42.5438 16.5292 42.4473 16.5 42.3486 16.5H39.5M39.5 16.5H35.5C35.2239 16.5 35 16.7239 35 17V20.5M39.5 16.5C39.5 19 37.5 20.5 35 20.5M35 20.5V36.382C35 36.4596 35.0181 36.5361 35.0528 36.6056L36.1382 38.7764C36.3044 39.1088 36.0627 39.5 35.691 39.5H31.309C30.9373 39.5 30.6956 39.1088 30.8618 38.7764L31.9472 36.6056C31.9819 36.5361 32 36.4596 32 36.382V20.5M32 20.5V17C32 16.7239 31.7761 16.5 31.5 16.5H27.5M32 20.5C29.5 20.5 27.5 19 27.5 16.5" stroke="black"/>
<path d="M26.4712 51.11C25.9652 51.11 25.5068 51.0513 25.0962 50.934C24.6928 50.8093 24.3335 50.6333 24.0182 50.406C23.7028 50.1713 23.4205 49.8963 23.1712 49.581L24.3042 48.294C24.6708 48.7853 25.0375 49.1153 25.4042 49.284C25.7782 49.4527 26.1632 49.537 26.5592 49.537C26.7572 49.537 26.9368 49.5113 27.0982 49.46C27.2595 49.4087 27.3842 49.3353 27.4722 49.24C27.5602 49.1373 27.6042 49.0127 27.6042 48.866C27.6042 48.756 27.5748 48.657 27.5162 48.569C27.4648 48.481 27.3915 48.404 27.2962 48.338C27.2008 48.272 27.0872 48.2133 26.9552 48.162C26.8232 48.1033 26.6838 48.0557 26.5372 48.019C26.3905 47.975 26.2402 47.9383 26.0862 47.909C25.6608 47.8137 25.2905 47.6963 24.9752 47.557C24.6598 47.4177 24.3958 47.249 24.1832 47.051C23.9778 46.8457 23.8238 46.6147 23.7212 46.358C23.6185 46.094 23.5672 45.8007 23.5672 45.478C23.5672 45.1333 23.6442 44.818 23.7982 44.532C23.9595 44.2387 24.1722 43.9893 24.4362 43.784C24.7075 43.5713 25.0192 43.41 25.3712 43.3C25.7232 43.1827 26.0898 43.124 26.4712 43.124C26.9772 43.124 27.4098 43.179 27.7692 43.289C28.1358 43.3917 28.4475 43.542 28.7042 43.74C28.9682 43.938 29.1918 44.1763 29.3752 44.455L28.2202 45.566C28.0662 45.3753 27.8975 45.2177 27.7142 45.093C27.5382 44.9683 27.3475 44.873 27.1422 44.807C26.9442 44.741 26.7388 44.708 26.5262 44.708C26.3062 44.708 26.1155 44.7373 25.9542 44.796C25.8002 44.8473 25.6792 44.9243 25.5912 45.027C25.5032 45.1223 25.4592 45.2397 25.4592 45.379C25.4592 45.5037 25.4958 45.61 25.5692 45.698C25.6425 45.786 25.7415 45.8667 25.8662 45.94C25.9908 46.006 26.1338 46.0647 26.2952 46.116C26.4565 46.16 26.6252 46.1967 26.8012 46.226C27.2045 46.3067 27.5675 46.413 27.8902 46.545C28.2202 46.677 28.5025 46.8383 28.7372 47.029C28.9792 47.2197 29.1625 47.447 29.2872 47.711C29.4192 47.9677 29.4852 48.2683 29.4852 48.613C29.4852 49.1483 29.3532 49.603 29.0892 49.977C28.8325 50.3437 28.4768 50.626 28.0222 50.824C27.5748 51.0147 27.0578 51.11 26.4712 51.11ZM30.8909 51V43.3H32.7609V49.35H36.1929V51H30.8909ZM40.8771 51.11C40.2978 51.11 39.7625 51.0147 39.2711 50.824C38.7871 50.626 38.3655 50.351 38.0061 49.999C37.6468 49.6397 37.3681 49.218 37.1701 48.734C36.9795 48.2427 36.8841 47.7037 36.8841 47.117C36.8841 46.545 36.9868 46.017 37.1921 45.533C37.3975 45.049 37.6798 44.631 38.0391 44.279C38.4058 43.9197 38.8348 43.641 39.3261 43.443C39.8248 43.245 40.3675 43.146 40.9541 43.146C41.3208 43.146 41.6801 43.1937 42.0321 43.289C42.3841 43.3843 42.7105 43.5273 43.0111 43.718C43.3191 43.9013 43.5831 44.1213 43.8031 44.378L42.6591 45.687C42.5051 45.5257 42.3401 45.3863 42.1641 45.269C41.9955 45.1443 41.8085 45.049 41.6031 44.983C41.3978 44.917 41.1778 44.884 40.9431 44.884C40.6498 44.884 40.3711 44.939 40.1071 45.049C39.8505 45.1517 39.6231 45.302 39.4251 45.5C39.2345 45.6907 39.0841 45.9253 38.9741 46.204C38.8641 46.4827 38.8091 46.7943 38.8091 47.139C38.8091 47.4763 38.8641 47.7843 38.9741 48.063C39.0841 48.3343 39.2381 48.569 39.4361 48.767C39.6341 48.965 39.8725 49.1153 40.1511 49.218C40.4371 49.3207 40.7525 49.372 41.0971 49.372C41.3318 49.372 41.5555 49.339 41.7681 49.273C41.9808 49.207 42.1751 49.119 42.3511 49.009C42.5345 48.8917 42.6958 48.7597 42.8351 48.613L43.7371 50.043C43.5538 50.2483 43.3081 50.4317 43.0001 50.593C42.6995 50.7543 42.3621 50.8827 41.9881 50.978C41.6215 51.066 41.2511 51.11 40.8771 51.11ZM8.33681 65.11C7.91881 65.11 7.53015 65.055 7.17081 64.945C6.81881 64.835 6.49615 64.67 6.20281 64.45C5.91681 64.2227 5.66015 63.944 5.43281 63.614L6.24681 62.679C6.60615 63.1923 6.95081 63.548 7.28081 63.746C7.61081 63.944 8.00315 64.043 8.45781 64.043C8.73648 64.043 8.98948 63.999 9.21681 63.911C9.44415 63.823 9.62381 63.702 9.75581 63.548C9.88781 63.394 9.95381 63.218 9.95381 63.02C9.95381 62.888 9.93181 62.7633 9.88781 62.646C9.84381 62.5287 9.77415 62.4223 9.67881 62.327C9.59081 62.2317 9.47348 62.1437 9.32681 62.063C9.18748 61.9823 9.02248 61.9127 8.83181 61.854C8.64115 61.788 8.42115 61.733 8.17181 61.689C7.77581 61.6083 7.43115 61.502 7.13781 61.37C6.84448 61.238 6.59881 61.073 6.40081 60.875C6.20281 60.677 6.05615 60.4533 5.96081 60.204C5.86548 59.9473 5.81781 59.6613 5.81781 59.346C5.81781 59.038 5.88381 58.752 6.01581 58.488C6.15515 58.224 6.34215 57.9967 6.57681 57.806C6.81881 57.608 7.10115 57.4577 7.42381 57.355C7.74648 57.245 8.09481 57.19 8.46881 57.19C8.86481 57.19 9.22781 57.2413 9.55781 57.344C9.88781 57.4467 10.1811 57.6007 10.4378 57.806C10.6945 58.004 10.9071 58.2497 11.0758 58.543L10.2398 59.368C10.0931 59.126 9.92815 58.9243 9.74481 58.763C9.56148 58.5943 9.35981 58.4697 9.13981 58.389C8.91981 58.301 8.68515 58.257 8.43581 58.257C8.14981 58.257 7.90048 58.301 7.68781 58.389C7.47515 58.477 7.30648 58.6017 7.18181 58.763C7.06448 58.917 7.00581 59.1003 7.00581 59.313C7.00581 59.467 7.03515 59.61 7.09381 59.742C7.15248 59.8667 7.24048 59.9803 7.35781 60.083C7.48248 60.1783 7.64748 60.2663 7.85281 60.347C8.05815 60.4203 8.30381 60.4863 8.58981 60.545C8.99315 60.633 9.35248 60.7467 9.66781 60.886C9.98315 61.018 10.2508 61.1757 10.4708 61.359C10.6908 61.5423 10.8558 61.7477 10.9658 61.975C11.0831 62.2023 11.1418 62.448 11.1418 62.712C11.1418 63.2033 11.0281 63.6287 10.8008 63.988C10.5735 64.3473 10.2508 64.626 9.83281 64.824C9.41481 65.0147 8.91615 65.11 8.33681 65.11ZM13.2541 65V57.751H14.3871V65H13.2541ZM12.0551 60.325V59.225H15.7291V60.325H12.0551ZM17.2228 65.121C16.9808 65.121 16.7938 65.0513 16.6618 64.912C16.5298 64.7653 16.4638 64.56 16.4638 64.296C16.4638 64.054 16.5334 63.856 16.6728 63.702C16.8121 63.548 16.9954 63.471 17.2228 63.471C17.4648 63.471 17.6518 63.5443 17.7838 63.691C17.9158 63.8303 17.9818 64.032 17.9818 64.296C17.9818 64.538 17.9121 64.736 17.7728 64.89C17.6334 65.044 17.4501 65.121 17.2228 65.121ZM24.8987 65L21.8187 57.3H23.1717L25.0087 61.975C25.0967 62.2023 25.1737 62.4077 25.2397 62.591C25.313 62.7743 25.3754 62.943 25.4267 63.097C25.478 63.2437 25.5257 63.383 25.5697 63.515C25.6137 63.647 25.6577 63.779 25.7017 63.911L25.4157 63.922C25.467 63.746 25.522 63.5627 25.5807 63.372C25.6394 63.1813 25.7054 62.9723 25.7787 62.745C25.8594 62.5177 25.9547 62.261 26.0647 61.975L27.7697 57.3H29.1557L26.0537 65H24.8987ZM30.397 65V59.225H31.53V65H30.397ZM30.947 57.949C30.705 57.949 30.518 57.8867 30.386 57.762C30.254 57.6373 30.188 57.4613 30.188 57.234C30.188 57.0213 30.254 56.849 30.386 56.717C30.5253 56.585 30.7123 56.519 30.947 56.519C31.189 56.519 31.376 56.5813 31.508 56.706C31.64 56.8307 31.706 57.0067 31.706 57.234C31.706 57.4467 31.6363 57.619 31.497 57.751C31.365 57.883 31.1816 57.949 30.947 57.949ZM33.2715 65V59.225H34.4045V60.413L34.2065 60.545C34.2798 60.2883 34.4228 60.0537 34.6355 59.841C34.8482 59.621 35.1012 59.445 35.3945 59.313C35.6878 59.1737 35.9885 59.104 36.2965 59.104C36.7365 59.104 37.1032 59.192 37.3965 59.368C37.6898 59.5367 37.9098 59.797 38.0565 60.149C38.2032 60.501 38.2765 60.9447 38.2765 61.48V65H37.1435V61.557C37.1435 61.227 37.0995 60.9557 37.0115 60.743C36.9235 60.523 36.7878 60.3653 36.6045 60.27C36.4212 60.1673 36.1938 60.1233 35.9225 60.138C35.7025 60.138 35.5008 60.1747 35.3175 60.248C35.1342 60.314 34.9728 60.4093 34.8335 60.534C34.7015 60.6587 34.5952 60.8053 34.5145 60.974C34.4412 61.1353 34.4045 61.3113 34.4045 61.502V65H33.8435C33.7482 65 33.6528 65 33.5575 65C33.4622 65 33.3668 65 33.2715 65ZM42.2665 65.11C41.7312 65.11 41.2508 64.978 40.8255 64.714C40.4075 64.45 40.0738 64.0907 39.8245 63.636C39.5825 63.1813 39.4615 62.6717 39.4615 62.107C39.4615 61.5423 39.5825 61.0327 39.8245 60.578C40.0738 60.1233 40.4075 59.764 40.8255 59.5C41.2508 59.236 41.7312 59.104 42.2665 59.104C42.7798 59.104 43.2455 59.2103 43.6635 59.423C44.0888 59.6283 44.4115 59.9107 44.6315 60.27L44.0045 61.04C43.8872 60.8713 43.7368 60.7173 43.5535 60.578C43.3702 60.4387 43.1758 60.3287 42.9705 60.248C42.7652 60.1673 42.5672 60.127 42.3765 60.127C42.0245 60.127 41.7092 60.215 41.4305 60.391C41.1592 60.5597 40.9428 60.7943 40.7815 61.095C40.6202 61.3957 40.5395 61.733 40.5395 62.107C40.5395 62.481 40.6238 62.8183 40.7925 63.119C40.9612 63.4123 41.1848 63.647 41.4635 63.823C41.7422 63.999 42.0502 64.087 42.3875 64.087C42.5855 64.087 42.7762 64.054 42.9595 63.988C43.1502 63.922 43.3335 63.823 43.5095 63.691C43.6855 63.559 43.8505 63.3977 44.0045 63.207L44.6315 63.977C44.3968 64.307 44.0595 64.5783 43.6195 64.791C43.1868 65.0037 42.7358 65.11 42.2665 65.11ZM48.3952 65.11C47.8012 65.11 47.2732 64.9853 46.8112 64.736C46.3565 64.4793 45.9972 64.131 45.7332 63.691C45.4765 63.251 45.3482 62.745 45.3482 62.173C45.3482 61.7183 45.4215 61.304 45.5682 60.93C45.7149 60.556 45.9165 60.2333 46.1732 59.962C46.4372 59.6833 46.7489 59.4707 47.1082 59.324C47.4749 59.17 47.8709 59.093 48.2962 59.093C48.6702 59.093 49.0185 59.1663 49.3412 59.313C49.6639 59.4523 49.9425 59.6467 50.1772 59.896C50.4192 60.1453 50.6025 60.4423 50.7272 60.787C50.8592 61.1243 50.9215 61.4947 50.9142 61.898L50.9032 62.382H46.1842L45.9312 61.48H49.9242L49.7592 61.667V61.403C49.7372 61.161 49.6565 60.9447 49.5172 60.754C49.3779 60.5633 49.2019 60.413 48.9892 60.303C48.7765 60.193 48.5455 60.138 48.2962 60.138C47.9002 60.138 47.5665 60.215 47.2952 60.369C47.0239 60.5157 46.8185 60.7357 46.6792 61.029C46.5399 61.315 46.4702 61.6707 46.4702 62.096C46.4702 62.4993 46.5545 62.8513 46.7232 63.152C46.8919 63.4453 47.1302 63.6727 47.4382 63.834C47.7462 63.9953 48.1019 64.076 48.5052 64.076C48.7912 64.076 49.0552 64.0283 49.2972 63.933C49.5465 63.8377 49.8142 63.6653 50.1002 63.416L50.6722 64.219C50.4962 64.395 50.2799 64.549 50.0232 64.681C49.7739 64.813 49.5062 64.9193 49.2202 65C48.9415 65.0733 48.6665 65.11 48.3952 65.11ZM52.1455 65V59.225H53.2785V60.413L53.0805 60.545C53.1538 60.2883 53.2968 60.0537 53.5095 59.841C53.7222 59.621 53.9752 59.445 54.2685 59.313C54.5618 59.1737 54.8625 59.104 55.1705 59.104C55.6105 59.104 55.9772 59.192 56.2705 59.368C56.5638 59.5367 56.7838 59.797 56.9305 60.149C57.0772 60.501 57.1505 60.9447 57.1505 61.48V65H56.0175V61.557C56.0175 61.227 55.9735 60.9557 55.8855 60.743C55.7975 60.523 55.6618 60.3653 55.4785 60.27C55.2952 60.1673 55.0678 60.1233 54.7965 60.138C54.5765 60.138 54.3748 60.1747 54.1915 60.248C54.0082 60.314 53.8468 60.4093 53.7075 60.534C53.5755 60.6587 53.4692 60.8053 53.3885 60.974C53.3152 61.1353 53.2785 61.3113 53.2785 61.502V65H52.7175C52.6222 65 52.5268 65 52.4315 65C52.3362 65 52.2408 65 52.1455 65ZM59.4025 65V57.751H60.5355V65H59.4025ZM58.2035 60.325V59.225H61.8775V60.325H58.2035ZM16.8817 79.11C16.3537 79.11 15.8807 78.9817 15.4627 78.725C15.052 78.461 14.7257 78.1053 14.4837 77.658C14.2417 77.2033 14.1207 76.6863 14.1207 76.107C14.1207 75.5277 14.238 75.0143 14.4727 74.567C14.7147 74.1123 15.041 73.7567 15.4517 73.5C15.8623 73.236 16.328 73.104 16.8487 73.104C17.1347 73.104 17.4097 73.1517 17.6737 73.247C17.945 73.335 18.187 73.4597 18.3997 73.621C18.6123 73.775 18.7773 73.9473 18.8947 74.138C19.0193 74.3213 19.0817 74.5083 19.0817 74.699L18.7517 74.721V70.86H19.8847V79H18.7517V77.625H18.9717C18.9717 77.801 18.913 77.977 18.7957 78.153C18.6783 78.3217 18.5207 78.4793 18.3227 78.626C18.132 78.7727 17.9083 78.89 17.6517 78.978C17.4023 79.066 17.1457 79.11 16.8817 79.11ZM17.0357 78.131C17.3803 78.131 17.6847 78.043 17.9487 77.867C18.2127 77.691 18.418 77.4527 18.5647 77.152C18.7187 76.844 18.7957 76.4957 18.7957 76.107C18.7957 75.7183 18.7187 75.3737 18.5647 75.073C18.418 74.765 18.2127 74.523 17.9487 74.347C17.6847 74.171 17.3803 74.083 17.0357 74.083C16.691 74.083 16.3867 74.171 16.1227 74.347C15.8587 74.523 15.6497 74.765 15.4957 75.073C15.349 75.3737 15.2757 75.7183 15.2757 76.107C15.2757 76.4957 15.349 76.844 15.4957 77.152C15.6497 77.4527 15.8587 77.691 16.1227 77.867C16.3867 78.043 16.691 78.131 17.0357 78.131ZM24.1393 79.11C23.5453 79.11 23.0173 78.9853 22.5553 78.736C22.1007 78.4793 21.7413 78.131 21.4773 77.691C21.2207 77.251 21.0923 76.745 21.0923 76.173C21.0923 75.7183 21.1657 75.304 21.3123 74.93C21.459 74.556 21.6607 74.2333 21.9173 73.962C22.1813 73.6833 22.493 73.4707 22.8523 73.324C23.219 73.17 23.615 73.093 24.0403 73.093C24.4143 73.093 24.7627 73.1663 25.0853 73.313C25.408 73.4523 25.6867 73.6467 25.9213 73.896C26.1633 74.1453 26.3467 74.4423 26.4713 74.787C26.6033 75.1243 26.6657 75.4947 26.6583 75.898L26.6473 76.382H21.9283L21.6753 75.48H25.6683L25.5033 75.667V75.403C25.4813 75.161 25.4007 74.9447 25.2613 74.754C25.122 74.5633 24.946 74.413 24.7333 74.303C24.5207 74.193 24.2897 74.138 24.0403 74.138C23.6443 74.138 23.3107 74.215 23.0393 74.369C22.768 74.5157 22.5627 74.7357 22.4233 75.029C22.284 75.315 22.2143 75.6707 22.2143 76.096C22.2143 76.4993 22.2987 76.8513 22.4673 77.152C22.636 77.4453 22.8743 77.6727 23.1823 77.834C23.4903 77.9953 23.846 78.076 24.2493 78.076C24.5353 78.076 24.7993 78.0283 25.0413 77.933C25.2907 77.8377 25.5583 77.6653 25.8443 77.416L26.4163 78.219C26.2403 78.395 26.024 78.549 25.7673 78.681C25.518 78.813 25.2503 78.9193 24.9643 79C24.6857 79.0733 24.4107 79.11 24.1393 79.11ZM31.2587 79V71.3H34.3937C34.8117 71.3 35.1893 71.4063 35.5267 71.619C35.8713 71.8243 36.1463 72.1067 36.3517 72.466C36.557 72.8253 36.6597 73.225 36.6597 73.665C36.6597 74.105 36.557 74.5047 36.3517 74.864C36.1463 75.2233 35.8713 75.513 35.5267 75.733C35.1893 75.9457 34.8117 76.052 34.3937 76.052H32.4467V79H31.2587ZM32.4467 74.908H34.3717C34.5697 74.908 34.7493 74.853 34.9107 74.743C35.072 74.6257 35.2003 74.4753 35.2957 74.292C35.3983 74.1013 35.4497 73.8923 35.4497 73.665C35.4497 73.4377 35.3983 73.2323 35.2957 73.049C35.2003 72.8657 35.072 72.719 34.9107 72.609C34.7493 72.499 34.5697 72.444 34.3717 72.444H32.4467V74.908ZM40.0589 79.11C39.5823 79.11 39.1459 78.978 38.7499 78.714C38.3613 78.45 38.0496 78.0907 37.8149 77.636C37.5803 77.1813 37.4629 76.668 37.4629 76.096C37.4629 75.5167 37.5803 75.0033 37.8149 74.556C38.0569 74.1013 38.3796 73.7457 38.7829 73.489C39.1936 73.2323 39.6519 73.104 40.1579 73.104C40.4586 73.104 40.7336 73.148 40.9829 73.236C41.2323 73.324 41.4486 73.4487 41.6319 73.61C41.8226 73.764 41.9766 73.9437 42.0939 74.149C42.2186 74.3543 42.2956 74.5743 42.3249 74.809L42.0719 74.721V73.225H43.2159V79H42.0719V77.625L42.3359 77.548C42.2919 77.746 42.2003 77.9403 42.0609 78.131C41.9289 78.3143 41.7566 78.4793 41.5439 78.626C41.3386 78.7727 41.1076 78.89 40.8509 78.978C40.6016 79.066 40.3376 79.11 40.0589 79.11ZM40.3559 78.065C40.7006 78.065 41.0049 77.9807 41.2689 77.812C41.5329 77.6433 41.7383 77.4123 41.8849 77.119C42.0389 76.8183 42.1159 76.4773 42.1159 76.096C42.1159 75.722 42.0389 75.3883 41.8849 75.095C41.7383 74.8017 41.5329 74.5707 41.2689 74.402C41.0049 74.2333 40.7006 74.149 40.3559 74.149C40.0186 74.149 39.7179 74.2333 39.4539 74.402C39.1973 74.5707 38.9919 74.8017 38.8379 75.095C38.6913 75.3883 38.6179 75.722 38.6179 76.096C38.6179 76.4773 38.6913 76.8183 38.8379 77.119C38.9919 77.4123 39.1973 77.6433 39.4539 77.812C39.7179 77.9807 40.0186 78.065 40.3559 78.065ZM46.7144 79.11C46.3038 79.11 45.9444 79.0147 45.6364 78.824C45.3358 78.6333 45.1011 78.3657 44.9324 78.021C44.7711 77.6763 44.6904 77.2657 44.6904 76.789V73.225H45.8234V76.481C45.8234 76.8183 45.8748 77.1117 45.9774 77.361C46.0874 77.603 46.2414 77.79 46.4394 77.922C46.6448 78.054 46.8904 78.12 47.1764 78.12C47.3891 78.12 47.5834 78.087 47.7594 78.021C47.9354 77.9477 48.0858 77.8487 48.2104 77.724C48.3424 77.5993 48.4451 77.449 48.5184 77.273C48.5918 77.097 48.6284 76.9063 48.6284 76.701V73.225H49.7614V79H48.6284V77.79L48.8264 77.658C48.7384 77.9293 48.5881 78.175 48.3754 78.395C48.1701 78.615 47.9244 78.791 47.6384 78.923C47.3524 79.0477 47.0444 79.11 46.7144 79.11ZM51.3726 79V70.86H52.5056V79H51.3726Z" fill="black"/>
</svg>
