<svg width="93" height="70" viewBox="0 0 93 70" fill="none" xmlns="http://www.w3.org/2000/svg">
<path d="M30 0H62L73 38L92.5 59.5V70H0.5V56L21 38L30 0Z" fill="#FF0000" fill-opacity="0.31"/>
<path d="M49.0657 4.5H43.9343C43.5349 4.5 43.2967 4.94507 43.5182 5.27735L44.916 7.37404C44.9708 7.45617 45 7.55268 45 7.65139V9V13C45 13.2761 44.7761 13.5 44.5 13.5H40.5H37.6514C37.5527 13.5 37.4562 13.4708 37.374 13.416L35.2773 12.0182C34.9451 11.7967 34.5 12.0349 34.5 12.4343V17.5657C34.5 17.9651 34.9451 18.2033 35.2774 17.9818L37.374 16.584C37.4562 16.5292 37.5527 16.5 37.6514 16.5H40.5H44.5C44.7761 16.5 45 16.7239 45 17V20.5V36.382C45 36.4596 44.9819 36.5361 44.9472 36.6056L43.8618 38.7764C43.6956 39.1088 43.9373 39.5 44.309 39.5H48.691C49.0627 39.5 49.3044 39.1088 49.1382 38.7764L48.0528 36.6056C48.0181 36.5361 48 36.4596 48 36.382V20.5V17C48 16.7239 48.2239 16.5 48.5 16.5H52.5H55.3486C55.4473 16.5 55.5438 16.5292 55.626 16.584L57.7227 17.9818C58.0549 18.2033 58.5 17.9651 58.5 17.5657V12.4343C58.5 12.0349 58.0549 11.7967 57.7227 12.0182L55.626 13.416C55.5438 13.4708 55.4473 13.5 55.3486 13.5H52.5H48.5C48.2239 13.5 48 13.2761 48 13V9V7.65139C48 7.55268 48.0292 7.45617 48.084 7.37404L49.4818 5.27735C49.7033 4.94507 49.4651 4.5 49.0657 4.5Z" fill="#4F4533"/>
<path d="M45 9V13C45 13.2761 44.7761 13.5 44.5 13.5H40.5M45 9V7.65139C45 7.55268 44.9708 7.45617 44.916 7.37404L43.5182 5.27735C43.2967 4.94507 43.5349 4.5 43.9343 4.5H49.0657C49.4651 4.5 49.7033 4.94507 49.4818 5.27735L48.084 7.37404C48.0292 7.45617 48 7.55268 48 7.65139V9M45 9C42.5 9 40.5 11 40.5 13.5M40.5 13.5H37.6514C37.5527 13.5 37.4562 13.4708 37.374 13.416L35.2773 12.0182C34.9451 11.7967 34.5 12.0349 34.5 12.4343V17.5657C34.5 17.9651 34.9451 18.2033 35.2774 17.9818L37.374 16.584C37.4562 16.5292 37.5527 16.5 37.6514 16.5H40.5M48 9V13C48 13.2761 48.2239 13.5 48.5 13.5H52.5M48 9C50.5 9 52.5 11 52.5 13.5M52.5 13.5H55.3486C55.4473 13.5 55.5438 13.4708 55.626 13.416L57.7227 12.0182C58.0549 11.7967 58.5 12.0349 58.5 12.4343V17.5657C58.5 17.9651 58.0549 18.2033 57.7226 17.9818L55.626 16.584C55.5438 16.5292 55.4473 16.5 55.3486 16.5H52.5M52.5 16.5H48.5C48.2239 16.5 48 16.7239 48 17V20.5M52.5 16.5C52.5 19 50.5 20.5 48 20.5M48 20.5V36.382C48 36.4596 48.0181 36.5361 48.0528 36.6056L49.1382 38.7764C49.3044 39.1088 49.0627 39.5 48.691 39.5H44.309C43.9373 39.5 43.6956 39.1088 43.8618 38.7764L44.9472 36.6056C44.9819 36.5361 45 36.4596 45 36.382V20.5M45 20.5V17C45 16.7239 44.7761 16.5 44.5 16.5H40.5M45 20.5C42.5 20.5 40.5 19 40.5 16.5" stroke="black"/>
<path d="M32.4082 53.11C31.9022 53.11 31.4439 53.0513 31.0332 52.934C30.6299 52.8093 30.2705 52.6333 29.9552 52.406C29.6399 52.1713 29.3575 51.8963 29.1082 51.581L30.2412 50.294C30.6079 50.7853 30.9745 51.1153 31.3412 51.284C31.7152 51.4527 32.1002 51.537 32.4962 51.537C32.6942 51.537 32.8739 51.5113 33.0352 51.46C33.1965 51.4087 33.3212 51.3353 33.4092 51.24C33.4972 51.1373 33.5412 51.0127 33.5412 50.866C33.5412 50.756 33.5119 50.657 33.4532 50.569C33.4019 50.481 33.3285 50.404 33.2332 50.338C33.1379 50.272 33.0242 50.2133 32.8922 50.162C32.7602 50.1033 32.6209 50.0557 32.4742 50.019C32.3275 49.975 32.1772 49.9383 32.0232 49.909C31.5979 49.8137 31.2275 49.6963 30.9122 49.557C30.5969 49.4177 30.3329 49.249 30.1202 49.051C29.9149 48.8457 29.7609 48.6147 29.6582 48.358C29.5555 48.094 29.5042 47.8007 29.5042 47.478C29.5042 47.1333 29.5812 46.818 29.7352 46.532C29.8965 46.2387 30.1092 45.9893 30.3732 45.784C30.6445 45.5713 30.9562 45.41 31.3082 45.3C31.6602 45.1827 32.0269 45.124 32.4082 45.124C32.9142 45.124 33.3469 45.179 33.7062 45.289C34.0729 45.3917 34.3845 45.542 34.6412 45.74C34.9052 45.938 35.1289 46.1763 35.3122 46.455L34.1572 47.566C34.0032 47.3753 33.8345 47.2177 33.6512 47.093C33.4752 46.9683 33.2845 46.873 33.0792 46.807C32.8812 46.741 32.6759 46.708 32.4632 46.708C32.2432 46.708 32.0525 46.7373 31.8912 46.796C31.7372 46.8473 31.6162 46.9243 31.5282 47.027C31.4402 47.1223 31.3962 47.2397 31.3962 47.379C31.3962 47.5037 31.4329 47.61 31.5062 47.698C31.5795 47.786 31.6785 47.8667 31.8032 47.94C31.9279 48.006 32.0709 48.0647 32.2322 48.116C32.3935 48.16 32.5622 48.1967 32.7382 48.226C33.1415 48.3067 33.5045 48.413 33.8272 48.545C34.1572 48.677 34.4395 48.8383 34.6742 49.029C34.9162 49.2197 35.0995 49.447 35.2242 49.711C35.3562 49.9677 35.4222 50.2683 35.4222 50.613C35.4222 51.1483 35.2902 51.603 35.0262 51.977C34.7695 52.3437 34.4139 52.626 33.9592 52.824C33.5119 53.0147 32.9949 53.11 32.4082 53.11ZM38.7969 53.099C38.3055 53.099 37.8655 52.9707 37.4769 52.714C37.0955 52.45 36.7912 52.0907 36.5639 51.636C36.3365 51.174 36.2229 50.6533 36.2229 50.074C36.2229 49.48 36.3365 48.9557 36.5639 48.501C36.7912 48.0463 37.1029 47.6907 37.4989 47.434C37.8949 47.17 38.3459 47.038 38.8519 47.038C39.1305 47.038 39.3835 47.0783 39.6109 47.159C39.8455 47.2397 40.0509 47.3533 40.2269 47.5C40.4029 47.6393 40.5532 47.8043 40.6779 47.995C40.8025 48.1783 40.8942 48.3763 40.9529 48.589L40.5899 48.545V47.159H42.3389V53H40.5569V51.592L40.9529 51.581C40.8942 51.7863 40.7989 51.9807 40.6669 52.164C40.5349 52.3473 40.3735 52.5087 40.1829 52.648C39.9922 52.7873 39.7795 52.8973 39.5449 52.978C39.3102 53.0587 39.0609 53.099 38.7969 53.099ZM39.2809 51.614C39.5522 51.614 39.7869 51.5517 39.9849 51.427C40.1829 51.3023 40.3369 51.1263 40.4469 50.899C40.5569 50.6643 40.6119 50.3893 40.6119 50.074C40.6119 49.7587 40.5569 49.4873 40.4469 49.26C40.3369 49.0253 40.1829 48.8457 39.9849 48.721C39.7869 48.589 39.5522 48.523 39.2809 48.523C39.0169 48.523 38.7859 48.589 38.5879 48.721C38.3972 48.8457 38.2469 49.0253 38.1369 49.26C38.0269 49.4873 37.9719 49.7587 37.9719 50.074C37.9719 50.3893 38.0269 50.6643 38.1369 50.899C38.2469 51.1263 38.3972 51.3023 38.5879 51.427C38.7859 51.5517 39.0169 51.614 39.2809 51.614ZM43.8918 53V47.159H45.5638L45.6188 48.347L45.2668 48.479C45.3475 48.215 45.4905 47.9767 45.6958 47.764C45.9085 47.544 46.1615 47.368 46.4548 47.236C46.7482 47.104 47.0562 47.038 47.3788 47.038C47.8188 47.038 48.1892 47.1297 48.4898 47.313C48.7905 47.489 49.0178 47.7567 49.1718 48.116C49.3258 48.468 49.4028 48.9007 49.4028 49.414V53H47.6318V49.557C47.6318 49.3223 47.5988 49.128 47.5328 48.974C47.4668 48.82 47.3642 48.7063 47.2248 48.633C47.0928 48.5523 46.9278 48.5157 46.7298 48.523C46.5758 48.523 46.4328 48.5487 46.3008 48.6C46.1688 48.644 46.0552 48.7137 45.9598 48.809C45.8645 48.897 45.7875 48.9997 45.7288 49.117C45.6775 49.2343 45.6518 49.3627 45.6518 49.502V53H44.7828C44.5775 53 44.4015 53 44.2548 53C44.1082 53 43.9872 53 43.8918 53ZM53.0853 53.121C52.5793 53.121 52.1283 52.9927 51.7323 52.736C51.3436 52.472 51.0356 52.1127 50.8083 51.658C50.5809 51.196 50.4673 50.6717 50.4673 50.085C50.4673 49.4983 50.5809 48.9777 50.8083 48.523C51.0356 48.061 51.3473 47.698 51.7433 47.434C52.1393 47.17 52.5939 47.038 53.1073 47.038C53.3713 47.038 53.6243 47.0783 53.8663 47.159C54.1083 47.2397 54.3283 47.3497 54.5263 47.489C54.7243 47.6283 54.8856 47.7897 55.0103 47.973C55.1349 48.149 55.2083 48.3323 55.2303 48.523L54.8123 48.622V44.86H56.5833V53H54.9443L54.8453 51.669L55.1973 51.724C55.1753 51.9073 55.1019 52.0833 54.9773 52.252C54.8599 52.4207 54.7059 52.571 54.5153 52.703C54.3246 52.8277 54.1046 52.9267 53.8553 53C53.6133 53.0807 53.3566 53.121 53.0853 53.121ZM53.5363 51.658C53.8076 51.658 54.0423 51.592 54.2403 51.46C54.4383 51.328 54.5886 51.1447 54.6913 50.91C54.8013 50.6753 54.8563 50.4003 54.8563 50.085C54.8563 49.7623 54.8013 49.4837 54.6913 49.249C54.5886 49.0143 54.4383 48.831 54.2403 48.699C54.0423 48.567 53.8076 48.501 53.5363 48.501C53.2649 48.501 53.0303 48.567 52.8323 48.699C52.6416 48.831 52.4913 49.0143 52.3813 49.249C52.2713 49.4837 52.2163 49.7623 52.2163 50.085C52.2163 50.4003 52.2713 50.6753 52.3813 50.91C52.4913 51.1447 52.6416 51.328 52.8323 51.46C53.0303 51.592 53.2649 51.658 53.5363 51.658ZM58.8085 55.53L60.1395 52.395L60.1615 53.297L57.3455 47.159H59.3365L60.5685 50.096C60.6345 50.2427 60.6969 50.4003 60.7555 50.569C60.8142 50.7377 60.8582 50.899 60.8875 51.053L60.6455 51.196C60.6895 51.086 60.7372 50.9503 60.7885 50.789C60.8472 50.6203 60.9095 50.4407 60.9755 50.25L62.0535 47.159H64.0555L61.5695 53L60.5575 55.53H58.8085ZM5.62099 67.11C5.20299 67.11 4.81433 67.055 4.45499 66.945C4.10299 66.835 3.78033 66.67 3.48699 66.45C3.20099 66.2227 2.94433 65.944 2.71699 65.614L3.53099 64.679C3.89033 65.1923 4.23499 65.548 4.56499 65.746C4.89499 65.944 5.28733 66.043 5.74199 66.043C6.02066 66.043 6.27366 65.999 6.50099 65.911C6.72833 65.823 6.90799 65.702 7.03999 65.548C7.17199 65.394 7.23799 65.218 7.23799 65.02C7.23799 64.888 7.21599 64.7633 7.17199 64.646C7.12799 64.5287 7.05833 64.4223 6.96299 64.327C6.87499 64.2317 6.75766 64.1437 6.61099 64.063C6.47166 63.9823 6.30666 63.9127 6.11599 63.854C5.92533 63.788 5.70533 63.733 5.45599 63.689C5.05999 63.6083 4.71533 63.502 4.42199 63.37C4.12866 63.238 3.88299 63.073 3.68499 62.875C3.48699 62.677 3.34033 62.4533 3.24499 62.204C3.14966 61.9473 3.10199 61.6613 3.10199 61.346C3.10199 61.038 3.16799 60.752 3.29999 60.488C3.43933 60.224 3.62633 59.9967 3.86099 59.806C4.10299 59.608 4.38533 59.4577 4.70799 59.355C5.03066 59.245 5.37899 59.19 5.75299 59.19C6.14899 59.19 6.51199 59.2413 6.84199 59.344C7.17199 59.4467 7.46533 59.6007 7.72199 59.806C7.97866 60.004 8.19133 60.2497 8.35999 60.543L7.52399 61.368C7.37733 61.126 7.21233 60.9243 7.02899 60.763C6.84566 60.5943 6.64399 60.4697 6.42399 60.389C6.20399 60.301 5.96933 60.257 5.71999 60.257C5.43399 60.257 5.18466 60.301 4.97199 60.389C4.75933 60.477 4.59066 60.6017 4.46599 60.763C4.34866 60.917 4.28999 61.1003 4.28999 61.313C4.28999 61.467 4.31933 61.61 4.37799 61.742C4.43666 61.8667 4.52466 61.9803 4.64199 62.083C4.76666 62.1783 4.93166 62.2663 5.13699 62.347C5.34233 62.4203 5.58799 62.4863 5.87399 62.545C6.27733 62.633 6.63666 62.7467 6.95199 62.886C7.26733 63.018 7.53499 63.1757 7.75499 63.359C7.97499 63.5423 8.13999 63.7477 8.24999 63.975C8.36733 64.2023 8.42599 64.448 8.42599 64.712C8.42599 65.2033 8.31233 65.6287 8.08499 65.988C7.85766 66.3473 7.53499 66.626 7.11699 66.824C6.69899 67.0147 6.20033 67.11 5.62099 67.11ZM10.5383 67V59.751H11.6713V67H10.5383ZM9.33925 62.325V61.225H13.0133V62.325H9.33925ZM14.5069 67.121C14.2649 67.121 14.0779 67.0513 13.9459 66.912C13.8139 66.7653 13.7479 66.56 13.7479 66.296C13.7479 66.054 13.8176 65.856 13.9569 65.702C14.0963 65.548 14.2796 65.471 14.5069 65.471C14.7489 65.471 14.9359 65.5443 15.0679 65.691C15.1999 65.8303 15.2659 66.032 15.2659 66.296C15.2659 66.538 15.1963 66.736 15.0569 66.89C14.9176 67.044 14.7343 67.121 14.5069 67.121ZM21.3799 67V60.444H19.2239V59.3H24.7899V60.444H22.5679V67H21.3799ZM25.9688 67V58.86H27.1018V62.413L26.9038 62.545C26.9771 62.2883 27.1201 62.0537 27.3328 61.841C27.5454 61.621 27.7984 61.445 28.0918 61.313C28.3851 61.1737 28.6858 61.104 28.9938 61.104C29.4338 61.104 29.8004 61.192 30.0938 61.368C30.3871 61.5367 30.6071 61.797 30.7538 62.149C30.9004 62.501 30.9738 62.9447 30.9738 63.48V67H29.8408V63.557C29.8408 63.227 29.7968 62.9557 29.7088 62.743C29.6208 62.523 29.4851 62.3653 29.3018 62.27C29.1184 62.1673 28.8911 62.1233 28.6198 62.138C28.3998 62.138 28.1981 62.1747 28.0148 62.248C27.8314 62.314 27.6701 62.4093 27.5308 62.534C27.3988 62.6587 27.2924 62.8053 27.2118 62.974C27.1384 63.1353 27.1018 63.3113 27.1018 63.502V67H26.5408C26.4454 67 26.3501 67 26.2548 67C26.1594 67 26.0641 67 25.9688 67ZM35.1068 67.11C34.5421 67.11 34.0361 66.9817 33.5888 66.725C33.1488 66.461 32.8004 66.1053 32.5438 65.658C32.2871 65.2033 32.1588 64.6863 32.1588 64.107C32.1588 63.5277 32.2871 63.0143 32.5438 62.567C32.8004 62.1123 33.1488 61.7567 33.5888 61.5C34.0361 61.236 34.5421 61.104 35.1068 61.104C35.6641 61.104 36.1628 61.236 36.6028 61.5C37.0501 61.7567 37.4021 62.1123 37.6588 62.567C37.9154 63.0143 38.0438 63.5277 38.0438 64.107C38.0438 64.6863 37.9154 65.2033 37.6588 65.658C37.4021 66.1053 37.0501 66.461 36.6028 66.725C36.1628 66.9817 35.6641 67.11 35.1068 67.11ZM35.1068 66.076C35.4514 66.076 35.7594 65.9917 36.0308 65.823C36.3021 65.647 36.5148 65.4123 36.6688 65.119C36.8228 64.8183 36.8961 64.481 36.8888 64.107C36.8961 63.7257 36.8228 63.3883 36.6688 63.095C36.5148 62.7943 36.3021 62.5597 36.0308 62.391C35.7594 62.2223 35.4514 62.138 35.1068 62.138C34.7621 62.138 34.4504 62.226 34.1718 62.402C33.9004 62.5707 33.6878 62.8053 33.5338 63.106C33.3798 63.3993 33.3064 63.733 33.3138 64.107C33.3064 64.481 33.3798 64.8183 33.5338 65.119C33.6878 65.4123 33.9004 65.647 34.1718 65.823C34.4504 65.9917 34.7621 66.076 35.1068 66.076ZM39.2563 67V61.225H40.4003V62.457L40.1913 62.589C40.25 62.3983 40.3417 62.215 40.4663 62.039C40.5983 61.863 40.756 61.709 40.9393 61.577C41.13 61.4377 41.3317 61.3277 41.5443 61.247C41.7643 61.1663 41.988 61.126 42.2153 61.126C42.5453 61.126 42.835 61.181 43.0843 61.291C43.3337 61.401 43.539 61.566 43.7003 61.786C43.8617 62.006 43.979 62.281 44.0523 62.611L43.8763 62.567L43.9533 62.38C44.034 62.2113 44.144 62.0537 44.2833 61.907C44.43 61.753 44.595 61.6173 44.7783 61.5C44.9617 61.3827 45.156 61.291 45.3613 61.225C45.5667 61.159 45.7683 61.126 45.9663 61.126C46.399 61.126 46.7547 61.214 47.0333 61.39C47.3193 61.566 47.532 61.8337 47.6713 62.193C47.818 62.5523 47.8913 62.9997 47.8913 63.535V67H46.7473V63.601C46.7473 63.271 46.7033 63.0033 46.6153 62.798C46.5347 62.5853 46.41 62.4277 46.2413 62.325C46.0727 62.2223 45.8563 62.171 45.5923 62.171C45.387 62.171 45.1927 62.2077 45.0093 62.281C44.8333 62.347 44.6793 62.4423 44.5473 62.567C44.4153 62.6917 44.3127 62.8383 44.2393 63.007C44.166 63.1683 44.1293 63.348 44.1293 63.546V67H42.9853V63.579C42.9853 63.2783 42.9413 63.0253 42.8533 62.82C42.7653 62.6073 42.637 62.446 42.4683 62.336C42.2997 62.226 42.0943 62.171 41.8523 62.171C41.647 62.171 41.4563 62.2077 41.2803 62.281C41.1043 62.347 40.9503 62.4423 40.8183 62.567C40.6863 62.6843 40.5837 62.8273 40.5103 62.996C40.437 63.1573 40.4003 63.3333 40.4003 63.524V67H39.2563ZM51.6302 67.11C51.1535 67.11 50.7172 66.978 50.3212 66.714C49.9325 66.45 49.6209 66.0907 49.3862 65.636C49.1515 65.1813 49.0342 64.668 49.0342 64.096C49.0342 63.5167 49.1515 63.0033 49.3862 62.556C49.6282 62.1013 49.9509 61.7457 50.3542 61.489C50.7649 61.2323 51.2232 61.104 51.7292 61.104C52.0299 61.104 52.3049 61.148 52.5542 61.236C52.8035 61.324 53.0199 61.4487 53.2032 61.61C53.3939 61.764 53.5479 61.9437 53.6652 62.149C53.7899 62.3543 53.8669 62.5743 53.8962 62.809L53.6432 62.721V61.225H54.7872V67H53.6432V65.625L53.9072 65.548C53.8632 65.746 53.7715 65.9403 53.6322 66.131C53.5002 66.3143 53.3279 66.4793 53.1152 66.626C52.9099 66.7727 52.6789 66.89 52.4222 66.978C52.1729 67.066 51.9089 67.11 51.6302 67.11ZM51.9272 66.065C52.2719 66.065 52.5762 65.9807 52.8402 65.812C53.1042 65.6433 53.3095 65.4123 53.4562 65.119C53.6102 64.8183 53.6872 64.4773 53.6872 64.096C53.6872 63.722 53.6102 63.3883 53.4562 63.095C53.3095 62.8017 53.1042 62.5707 52.8402 62.402C52.5762 62.2333 52.2719 62.149 51.9272 62.149C51.5899 62.149 51.2892 62.2333 51.0252 62.402C50.7685 62.5707 50.5632 62.8017 50.4092 63.095C50.2625 63.3883 50.1892 63.722 50.1892 64.096C50.1892 64.4773 50.2625 64.8183 50.4092 65.119C50.5632 65.4123 50.7685 65.6433 51.0252 65.812C51.2892 65.9807 51.5899 66.065 51.9272 66.065ZM58.2941 67.11C57.8101 67.11 57.3738 67.0257 56.9851 66.857C56.5965 66.6883 56.2738 66.439 56.0171 66.109L56.7871 65.449C57.0071 65.7057 57.2455 65.8927 57.5021 66.01C57.7661 66.12 58.0631 66.175 58.3931 66.175C58.5251 66.175 58.6461 66.1603 58.7561 66.131C58.8735 66.0943 58.9725 66.043 59.0531 65.977C59.1411 65.911 59.2071 65.834 59.2511 65.746C59.2951 65.6507 59.3171 65.548 59.3171 65.438C59.3171 65.2473 59.2475 65.0933 59.1081 64.976C59.0348 64.9247 58.9175 64.8697 58.7561 64.811C58.6021 64.745 58.4005 64.679 58.1511 64.613C57.7258 64.503 57.3775 64.3783 57.1061 64.239C56.8348 64.0997 56.6258 63.942 56.4791 63.766C56.3691 63.6267 56.2885 63.4763 56.2371 63.315C56.1858 63.1463 56.1601 62.963 56.1601 62.765C56.1601 62.523 56.2115 62.303 56.3141 62.105C56.4241 61.8997 56.5708 61.7237 56.7541 61.577C56.9448 61.423 57.1648 61.3057 57.4141 61.225C57.6708 61.1443 57.9421 61.104 58.2281 61.104C58.4995 61.104 58.7671 61.1407 59.0311 61.214C59.3025 61.2873 59.5518 61.3937 59.7791 61.533C60.0065 61.6723 60.1971 61.8373 60.3511 62.028L59.7021 62.743C59.5628 62.6037 59.4088 62.4827 59.2401 62.38C59.0788 62.27 58.9138 62.1857 58.7451 62.127C58.5765 62.0683 58.4225 62.039 58.2831 62.039C58.1291 62.039 57.9898 62.0537 57.8651 62.083C57.7405 62.1123 57.6341 62.1563 57.5461 62.215C57.4655 62.2737 57.4031 62.347 57.3591 62.435C57.3151 62.523 57.2931 62.622 57.2931 62.732C57.3005 62.8273 57.3225 62.919 57.3591 63.007C57.4031 63.0877 57.4618 63.1573 57.5351 63.216C57.6158 63.2747 57.7368 63.337 57.8981 63.403C58.0595 63.469 58.2648 63.5313 58.5141 63.59C58.8808 63.6853 59.1815 63.7917 59.4161 63.909C59.6581 64.019 59.8488 64.1473 59.9881 64.294C60.1348 64.4333 60.2375 64.5947 60.2961 64.778C60.3548 64.9613 60.3841 65.1667 60.3841 65.394C60.3841 65.724 60.2888 66.021 60.0981 66.285C59.9148 66.5417 59.6655 66.7433 59.3501 66.89C59.0348 67.0367 58.6828 67.11 58.2941 67.11ZM65.0018 67V59.3H66.1678L68.9728 63.865L68.4118 63.854L71.2498 59.3H72.3498V67H71.1618V63.843C71.1618 63.183 71.1765 62.589 71.2058 62.061C71.2425 61.533 71.3012 61.0087 71.3818 60.488L71.5358 60.895L69.0168 64.789H68.2908L65.8488 60.939L65.9698 60.488C66.0505 60.9793 66.1055 61.4853 66.1348 62.006C66.1715 62.5193 66.1898 63.1317 66.1898 63.843V67H65.0018ZM76.8187 67.11C76.254 67.11 75.748 66.9817 75.3007 66.725C74.8607 66.461 74.5123 66.1053 74.2557 65.658C73.999 65.2033 73.8707 64.6863 73.8707 64.107C73.8707 63.5277 73.999 63.0143 74.2557 62.567C74.5123 62.1123 74.8607 61.7567 75.3007 61.5C75.748 61.236 76.254 61.104 76.8187 61.104C77.376 61.104 77.8747 61.236 78.3147 61.5C78.762 61.7567 79.114 62.1123 79.3707 62.567C79.6273 63.0143 79.7557 63.5277 79.7557 64.107C79.7557 64.6863 79.6273 65.2033 79.3707 65.658C79.114 66.1053 78.762 66.461 78.3147 66.725C77.8747 66.9817 77.376 67.11 76.8187 67.11ZM76.8187 66.076C77.1633 66.076 77.4713 65.9917 77.7427 65.823C78.014 65.647 78.2267 65.4123 78.3807 65.119C78.5347 64.8183 78.608 64.481 78.6007 64.107C78.608 63.7257 78.5347 63.3883 78.3807 63.095C78.2267 62.7943 78.014 62.5597 77.7427 62.391C77.4713 62.2223 77.1633 62.138 76.8187 62.138C76.474 62.138 76.1623 62.226 75.8837 62.402C75.6123 62.5707 75.3997 62.8053 75.2457 63.106C75.0917 63.3993 75.0183 63.733 75.0257 64.107C75.0183 64.481 75.0917 64.8183 75.2457 65.119C75.3997 65.4123 75.6123 65.647 75.8837 65.823C76.1623 65.9917 76.474 66.076 76.8187 66.076ZM80.9902 67V61.225H82.1342V63.04L82.0242 62.6C82.1049 62.3213 82.2406 62.0683 82.4312 61.841C82.6292 61.6137 82.8529 61.434 83.1022 61.302C83.3589 61.17 83.6229 61.104 83.8942 61.104C84.0189 61.104 84.1362 61.115 84.2462 61.137C84.3636 61.159 84.4552 61.1847 84.5212 61.214L84.2242 62.446C84.1362 62.4093 84.0372 62.38 83.9272 62.358C83.8246 62.3287 83.7219 62.314 83.6192 62.314C83.4212 62.314 83.2306 62.3543 83.0472 62.435C82.8712 62.5083 82.7136 62.6147 82.5742 62.754C82.4422 62.886 82.3359 63.0437 82.2552 63.227C82.1746 63.403 82.1342 63.5973 82.1342 63.81V67H80.9902ZM87.8747 67.11C87.2807 67.11 86.7527 66.9853 86.2907 66.736C85.836 66.4793 85.4767 66.131 85.2127 65.691C84.956 65.251 84.8277 64.745 84.8277 64.173C84.8277 63.7183 84.901 63.304 85.0477 62.93C85.1944 62.556 85.396 62.2333 85.6527 61.962C85.9167 61.6833 86.2284 61.4707 86.5877 61.324C86.9544 61.17 87.3504 61.093 87.7757 61.093C88.1497 61.093 88.498 61.1663 88.8207 61.313C89.1434 61.4523 89.422 61.6467 89.6567 61.896C89.8987 62.1453 90.082 62.4423 90.2067 62.787C90.3387 63.1243 90.401 63.4947 90.3937 63.898L90.3827 64.382H85.6637L85.4107 63.48H89.4037L89.2387 63.667V63.403C89.2167 63.161 89.136 62.9447 88.9967 62.754C88.8574 62.5633 88.6814 62.413 88.4687 62.303C88.256 62.193 88.025 62.138 87.7757 62.138C87.3797 62.138 87.046 62.215 86.7747 62.369C86.5034 62.5157 86.298 62.7357 86.1587 63.029C86.0194 63.315 85.9497 63.6707 85.9497 64.096C85.9497 64.4993 86.034 64.8513 86.2027 65.152C86.3714 65.4453 86.6097 65.6727 86.9177 65.834C87.2257 65.9953 87.5814 66.076 87.9847 66.076C88.2707 66.076 88.5347 66.0283 88.7767 65.933C89.026 65.8377 89.2937 65.6653 89.5797 65.416L90.1517 66.219C89.9757 66.395 89.7594 66.549 89.5027 66.681C89.2534 66.813 88.9857 66.9193 88.6997 67C88.421 67.0733 88.146 67.11 87.8747 67.11Z" fill="black"/>
</svg>
