<svg width="57" height="54" viewBox="0 0 57 54" fill="none" xmlns="http://www.w3.org/2000/svg">
<path d="M4.37865 37L7.42565 29.3H9.00965L12.0346 37H10.1426L8.69065 33.095C8.63198 32.941 8.57332 32.776 8.51465 32.6C8.45598 32.424 8.39732 32.2443 8.33865 32.061C8.27998 31.8703 8.22132 31.687 8.16265 31.511C8.11132 31.3277 8.06732 31.159 8.03065 31.005L8.36065 30.994C8.31665 31.1773 8.26532 31.357 8.20665 31.533C8.15532 31.709 8.10032 31.885 8.04165 32.061C7.99032 32.2297 7.93165 32.402 7.86565 32.578C7.79965 32.7467 7.73732 32.9227 7.67865 33.106L6.22665 37H4.37865ZM5.83065 35.526L6.41365 34.118H9.95565L10.5276 35.526H5.83065ZM12.9953 37V29.3H14.6673L17.4723 33.865L16.2733 33.854L19.1113 29.3H20.7173V37H18.9023V34.602C18.9023 33.942 18.917 33.348 18.9463 32.82C18.983 32.292 19.0417 31.7677 19.1223 31.247L19.3313 31.819L17.1973 35.13H16.4713L14.3813 31.841L14.5903 31.247C14.671 31.7383 14.726 32.2443 14.7553 32.765C14.792 33.2783 14.8103 33.8907 14.8103 34.602V37H12.9953ZM23.0926 37.121C22.7919 37.121 22.5572 37.0367 22.3886 36.868C22.2272 36.6993 22.1466 36.4573 22.1466 36.142C22.1466 35.8487 22.2346 35.6103 22.4106 35.427C22.5866 35.2437 22.8139 35.152 23.0926 35.152C23.3932 35.152 23.6279 35.24 23.7966 35.416C23.9652 35.5847 24.0496 35.8267 24.0496 36.142C24.0496 36.428 23.9616 36.6627 23.7856 36.846C23.6096 37.0293 23.3786 37.121 23.0926 37.121ZM29.0012 37V29.3H30.8712V37H29.0012ZM29.8702 34.052V32.49H33.8522V34.052H29.8702ZM29.8702 30.95V29.3H34.3032V30.95H29.8702ZM38.2029 37.11C37.5942 37.11 37.0515 36.978 36.5749 36.714C36.1055 36.45 35.7315 36.0907 35.4529 35.636C35.1815 35.1813 35.0459 34.6607 35.0459 34.074C35.0459 33.4873 35.1815 32.9667 35.4529 32.512C35.7315 32.0573 36.1055 31.698 36.5749 31.434C37.0515 31.17 37.5942 31.038 38.2029 31.038C38.8115 31.038 39.3505 31.17 39.8199 31.434C40.2965 31.698 40.6705 32.0573 40.9419 32.512C41.2132 32.9667 41.3489 33.4873 41.3489 34.074C41.3489 34.6607 41.2132 35.1813 40.9419 35.636C40.6705 36.0907 40.2965 36.45 39.8199 36.714C39.3505 36.978 38.8115 37.11 38.2029 37.11ZM38.2029 35.592C38.4669 35.592 38.7015 35.526 38.9069 35.394C39.1122 35.262 39.2735 35.0823 39.3909 34.855C39.5082 34.6277 39.5632 34.3673 39.5559 34.074C39.5632 33.7807 39.5082 33.5203 39.3909 33.293C39.2735 33.0583 39.1122 32.875 38.9069 32.743C38.7015 32.611 38.4669 32.545 38.2029 32.545C37.9389 32.545 37.7005 32.611 37.4879 32.743C37.2825 32.875 37.1212 33.0583 37.0039 33.293C36.8865 33.5203 36.8315 33.7807 36.8389 34.074C36.8315 34.3673 36.8865 34.6277 37.0039 34.855C37.1212 35.0823 37.2825 35.262 37.4879 35.394C37.7005 35.526 37.9389 35.592 38.2029 35.592ZM42.4998 37V31.159H44.1718L44.2488 33.062L43.9188 32.699C44.0068 32.3837 44.1498 32.1013 44.3478 31.852C44.5531 31.6027 44.7914 31.4047 45.0628 31.258C45.3341 31.1113 45.6238 31.038 45.9318 31.038C46.0638 31.038 46.1848 31.049 46.2948 31.071C46.4121 31.093 46.5184 31.1187 46.6138 31.148L46.1298 33.095C46.0491 33.0437 45.9391 33.0033 45.7998 32.974C45.6678 32.9373 45.5284 32.919 45.3818 32.919C45.2204 32.919 45.0701 32.9483 44.9308 33.007C44.7914 33.0583 44.6741 33.1353 44.5788 33.238C44.4834 33.3407 44.4064 33.4617 44.3478 33.601C44.2964 33.7403 44.2708 33.898 44.2708 34.074V37H42.4998ZM49.1996 35.284L48.5506 33.964L51.2786 31.159H53.5996L49.1996 35.284ZM47.5056 37V28.86H49.2656V37H47.5056ZM51.4656 37L49.4086 34.338L50.6516 33.37L53.5446 37H51.4656ZM5.70595 51.11C5.28795 51.11 4.89929 51.055 4.53995 50.945C4.18795 50.835 3.86529 50.67 3.57195 50.45C3.28595 50.2227 3.02929 49.944 2.80195 49.614L3.61595 48.679C3.97529 49.1923 4.31995 49.548 4.64995 49.746C4.97995 49.944 5.37229 50.043 5.82695 50.043C6.10562 50.043 6.35862 49.999 6.58595 49.911C6.81329 49.823 6.99295 49.702 7.12495 49.548C7.25695 49.394 7.32295 49.218 7.32295 49.02C7.32295 48.888 7.30095 48.7633 7.25695 48.646C7.21295 48.5287 7.14329 48.4223 7.04795 48.327C6.95995 48.2317 6.84262 48.1437 6.69595 48.063C6.55662 47.9823 6.39162 47.9127 6.20095 47.854C6.01029 47.788 5.79029 47.733 5.54095 47.689C5.14495 47.6083 4.80029 47.502 4.50695 47.37C4.21362 47.238 3.96795 47.073 3.76995 46.875C3.57195 46.677 3.42529 46.4533 3.32995 46.204C3.23462 45.9473 3.18695 45.6613 3.18695 45.346C3.18695 45.038 3.25295 44.752 3.38495 44.488C3.52429 44.224 3.71129 43.9967 3.94595 43.806C4.18795 43.608 4.47029 43.4577 4.79295 43.355C5.11562 43.245 5.46395 43.19 5.83795 43.19C6.23395 43.19 6.59695 43.2413 6.92695 43.344C7.25695 43.4467 7.55029 43.6007 7.80695 43.806C8.06362 44.004 8.27629 44.2497 8.44495 44.543L7.60895 45.368C7.46229 45.126 7.29729 44.9243 7.11395 44.763C6.93062 44.5943 6.72895 44.4697 6.50895 44.389C6.28895 44.301 6.05429 44.257 5.80495 44.257C5.51895 44.257 5.26962 44.301 5.05695 44.389C4.84429 44.477 4.67562 44.6017 4.55095 44.763C4.43362 44.917 4.37495 45.1003 4.37495 45.313C4.37495 45.467 4.40429 45.61 4.46295 45.742C4.52162 45.8667 4.60962 45.9803 4.72695 46.083C4.85162 46.1783 5.01662 46.2663 5.22195 46.347C5.42729 46.4203 5.67295 46.4863 5.95895 46.545C6.36229 46.633 6.72162 46.7467 7.03695 46.886C7.35229 47.018 7.61995 47.1757 7.83995 47.359C8.05995 47.5423 8.22495 47.7477 8.33495 47.975C8.45229 48.2023 8.51095 48.448 8.51095 48.712C8.51095 49.2033 8.39729 49.6287 8.16995 49.988C7.94262 50.3473 7.61995 50.626 7.20195 50.824C6.78395 51.0147 6.28529 51.11 5.70595 51.11ZM10.6232 51V43.751H11.7562V51H10.6232ZM9.42421 46.325V45.225H13.0982V46.325H9.42421ZM14.5919 51.121C14.3499 51.121 14.1629 51.0513 14.0309 50.912C13.8989 50.7653 13.8329 50.56 13.8329 50.296C13.8329 50.054 13.9026 49.856 14.0419 49.702C14.1812 49.548 14.3646 49.471 14.5919 49.471C14.8339 49.471 15.0209 49.5443 15.1529 49.691C15.2849 49.8303 15.3509 50.032 15.3509 50.296C15.3509 50.538 15.2812 50.736 15.1419 50.89C15.0026 51.044 14.8192 51.121 14.5919 51.121ZM20.0018 51V43.3H23.1368C23.5548 43.3 23.9325 43.4063 24.2698 43.619C24.6145 43.8243 24.8895 44.1067 25.0948 44.466C25.3002 44.8253 25.4028 45.225 25.4028 45.665C25.4028 46.105 25.3002 46.5047 25.0948 46.864C24.8895 47.2233 24.6145 47.513 24.2698 47.733C23.9325 47.9457 23.5548 48.052 23.1368 48.052H21.1898V51H20.0018ZM21.1898 46.908H23.1148C23.3128 46.908 23.4925 46.853 23.6538 46.743C23.8152 46.6257 23.9435 46.4753 24.0388 46.292C24.1415 46.1013 24.1928 45.8923 24.1928 45.665C24.1928 45.4377 24.1415 45.2323 24.0388 45.049C23.9435 44.8657 23.8152 44.719 23.6538 44.609C23.4925 44.499 23.3128 44.444 23.1148 44.444H21.1898V46.908ZM29.2751 51.11C28.6811 51.11 28.1531 50.9853 27.6911 50.736C27.2364 50.4793 26.8771 50.131 26.6131 49.691C26.3564 49.251 26.2281 48.745 26.2281 48.173C26.2281 47.7183 26.3014 47.304 26.4481 46.93C26.5948 46.556 26.7964 46.2333 27.0531 45.962C27.3171 45.6833 27.6288 45.4707 27.9881 45.324C28.3548 45.17 28.7508 45.093 29.1761 45.093C29.5501 45.093 29.8984 45.1663 30.2211 45.313C30.5438 45.4523 30.8224 45.6467 31.0571 45.896C31.2991 46.1453 31.4824 46.4423 31.6071 46.787C31.7391 47.1243 31.8014 47.4947 31.7941 47.898L31.7831 48.382H27.0641L26.8111 47.48H30.8041L30.6391 47.667V47.403C30.6171 47.161 30.5364 46.9447 30.3971 46.754C30.2578 46.5633 30.0818 46.413 29.8691 46.303C29.6564 46.193 29.4254 46.138 29.1761 46.138C28.7801 46.138 28.4464 46.215 28.1751 46.369C27.9038 46.5157 27.6984 46.7357 27.5591 47.029C27.4198 47.315 27.3501 47.6707 27.3501 48.096C27.3501 48.4993 27.4344 48.8513 27.6031 49.152C27.7718 49.4453 28.0101 49.6727 28.3181 49.834C28.6261 49.9953 28.9818 50.076 29.3851 50.076C29.6711 50.076 29.9351 50.0283 30.1771 49.933C30.4264 49.8377 30.6941 49.6653 30.9801 49.416L31.5521 50.219C31.3761 50.395 31.1598 50.549 30.9031 50.681C30.6538 50.813 30.3861 50.9193 30.1001 51C29.8214 51.0733 29.5464 51.11 29.2751 51.11ZM33.7404 51V43.751H34.8734V51H33.7404ZM32.5414 46.325V45.225H36.2154V46.325H32.5414ZM39.8884 51.11C39.2944 51.11 38.7664 50.9853 38.3044 50.736C37.8497 50.4793 37.4904 50.131 37.2264 49.691C36.9697 49.251 36.8414 48.745 36.8414 48.173C36.8414 47.7183 36.9147 47.304 37.0614 46.93C37.208 46.556 37.4097 46.2333 37.6664 45.962C37.9304 45.6833 38.242 45.4707 38.6014 45.324C38.968 45.17 39.364 45.093 39.7894 45.093C40.1634 45.093 40.5117 45.1663 40.8344 45.313C41.157 45.4523 41.4357 45.6467 41.6704 45.896C41.9124 46.1453 42.0957 46.4423 42.2204 46.787C42.3524 47.1243 42.4147 47.4947 42.4074 47.898L42.3964 48.382H37.6774L37.4244 47.48H41.4174L41.2524 47.667V47.403C41.2304 47.161 41.1497 46.9447 41.0104 46.754C40.871 46.5633 40.695 46.413 40.4824 46.303C40.2697 46.193 40.0387 46.138 39.7894 46.138C39.3934 46.138 39.0597 46.215 38.7884 46.369C38.517 46.5157 38.3117 46.7357 38.1724 47.029C38.033 47.315 37.9634 47.6707 37.9634 48.096C37.9634 48.4993 38.0477 48.8513 38.2164 49.152C38.385 49.4453 38.6234 49.6727 38.9314 49.834C39.2394 49.9953 39.595 50.076 39.9984 50.076C40.2844 50.076 40.5484 50.0283 40.7904 49.933C41.0397 49.8377 41.3074 49.6653 41.5934 49.416L42.1654 50.219C41.9894 50.395 41.773 50.549 41.5164 50.681C41.267 50.813 40.9994 50.9193 40.7134 51C40.4347 51.0733 40.1597 51.11 39.8884 51.11ZM43.6387 51V45.225H44.7827V47.04L44.6727 46.6C44.7533 46.3213 44.889 46.0683 45.0797 45.841C45.2777 45.6137 45.5013 45.434 45.7507 45.302C46.0073 45.17 46.2713 45.104 46.5427 45.104C46.6673 45.104 46.7847 45.115 46.8947 45.137C47.012 45.159 47.1037 45.1847 47.1697 45.214L46.8727 46.446C46.7847 46.4093 46.6857 46.38 46.5757 46.358C46.473 46.3287 46.3703 46.314 46.2677 46.314C46.0697 46.314 45.879 46.3543 45.6957 46.435C45.5197 46.5083 45.362 46.6147 45.2227 46.754C45.0907 46.886 44.9843 47.0437 44.9037 47.227C44.823 47.403 44.7827 47.5973 44.7827 47.81V51H43.6387ZM48.4691 45.775L48.0511 45.269C48.3371 45.137 48.5717 44.9867 48.7551 44.818C48.9384 44.6493 49.0301 44.5027 49.0301 44.378C49.0301 44.2827 48.9897 44.1983 48.9091 44.125C48.8284 44.0443 48.7551 43.9783 48.6891 43.927C48.5277 43.795 48.4177 43.685 48.3591 43.597C48.3077 43.509 48.2821 43.4173 48.2821 43.322C48.2821 43.146 48.3444 43.0067 48.4691 42.904C48.5937 42.794 48.7551 42.739 48.9531 42.739C49.1584 42.739 49.3417 42.794 49.5031 42.904C49.6717 43.0067 49.8037 43.1497 49.8991 43.333C49.9944 43.5163 50.0421 43.7327 50.0421 43.982C50.0421 44.1727 50.0017 44.3597 49.9211 44.543C49.8404 44.7263 49.7267 44.8987 49.5801 45.06C49.4407 45.2213 49.2757 45.3643 49.0851 45.489C48.8944 45.6137 48.6891 45.709 48.4691 45.775ZM53.2014 51.11C52.7174 51.11 52.281 51.0257 51.8924 50.857C51.5037 50.6883 51.181 50.439 50.9244 50.109L51.6944 49.449C51.9144 49.7057 52.1527 49.8927 52.4094 50.01C52.6734 50.12 52.9704 50.175 53.3004 50.175C53.4324 50.175 53.5534 50.1603 53.6634 50.131C53.7807 50.0943 53.8797 50.043 53.9604 49.977C54.0484 49.911 54.1144 49.834 54.1584 49.746C54.2024 49.6507 54.2244 49.548 54.2244 49.438C54.2244 49.2473 54.1547 49.0933 54.0154 48.976C53.942 48.9247 53.8247 48.8697 53.6634 48.811C53.5094 48.745 53.3077 48.679 53.0584 48.613C52.633 48.503 52.2847 48.3783 52.0134 48.239C51.742 48.0997 51.533 47.942 51.3864 47.766C51.2764 47.6267 51.1957 47.4763 51.1444 47.315C51.093 47.1463 51.0674 46.963 51.0674 46.765C51.0674 46.523 51.1187 46.303 51.2214 46.105C51.3314 45.8997 51.478 45.7237 51.6614 45.577C51.852 45.423 52.072 45.3057 52.3214 45.225C52.578 45.1443 52.8494 45.104 53.1354 45.104C53.4067 45.104 53.6744 45.1407 53.9384 45.214C54.2097 45.2873 54.459 45.3937 54.6864 45.533C54.9137 45.6723 55.1044 45.8373 55.2584 46.028L54.6094 46.743C54.47 46.6037 54.316 46.4827 54.1474 46.38C53.986 46.27 53.821 46.1857 53.6524 46.127C53.4837 46.0683 53.3297 46.039 53.1904 46.039C53.0364 46.039 52.897 46.0537 52.7724 46.083C52.6477 46.1123 52.5414 46.1563 52.4534 46.215C52.3727 46.2737 52.3104 46.347 52.2664 46.435C52.2224 46.523 52.2004 46.622 52.2004 46.732C52.2077 46.8273 52.2297 46.919 52.2664 47.007C52.3104 47.0877 52.369 47.1573 52.4424 47.216C52.523 47.2747 52.644 47.337 52.8054 47.403C52.9667 47.469 53.172 47.5313 53.4214 47.59C53.788 47.6853 54.0887 47.7917 54.3234 47.909C54.5654 48.019 54.756 48.1473 54.8954 48.294C55.042 48.4333 55.1447 48.5947 55.2034 48.778C55.262 48.9613 55.2914 49.1667 55.2914 49.394C55.2914 49.724 55.196 50.021 55.0054 50.285C54.822 50.5417 54.5727 50.7433 54.2574 50.89C53.942 51.0367 53.59 51.11 53.2014 51.11Z" fill="black"/>
<path d="M17 23.5C23.5 25.5 29.5 25.5 36 23.5C29.5 20.5 23.5 20.5 17 23.5Z" fill="#949494"/>
<path d="M17 23.5L20 16C25 14.5 28 14.5 33 16L36 23.5C29.5 20.5 23.5 20.5 17 23.5Z" fill="#B0B0B0"/>
<path d="M20.001 15.726C20.0678 6.48065 23.5194 5.49515 25.5 5L25.9621 3.15149C25.9844 3.06246 26.0644 3 26.1562 3H26.8438C26.9356 3 27.0156 3.06246 27.0379 3.15149L27.5 5C29.4806 5.49515 32.9322 6.48065 32.999 15.726C33 15.8599 32.8693 15.9608 32.7407 15.923C27.9808 14.5257 25.0192 14.5257 20.2593 15.923C20.1307 15.9608 20 15.8599 20.001 15.726Z" fill="#D1D1D1"/>
<path d="M20 16L17.0806 23.2984C17.0372 23.407 17.0964 23.5297 17.2083 23.5635C23.559 25.4788 29.441 25.4788 35.7917 23.5635C35.9036 23.5297 35.9628 23.407 35.9194 23.2984L33 16M20 16C20 6.53695 23.4728 5.50791 25.4766 5.00586C25.4925 5.00188 25.5083 5 25.5246 5H27.4754C27.4917 5 27.5075 5.00188 27.5234 5.00586C29.5272 5.50791 33 6.53695 33 16M20 16C25 14.5 28 14.5 33 16" stroke="#484848"/>
<path d="M26.3536 24H26.5H26.6464C26.8728 24 27.0899 24.0899 27.25 24.25C27.4101 24.4101 27.5 24.6272 27.5 24.8536V26.1464C27.5 26.3728 27.4101 26.5899 27.25 26.75C27.0899 26.9101 26.8728 27 26.6464 27H26.3536C26.1272 27 25.9101 26.9101 25.75 26.75C25.5899 26.5899 25.5 26.3728 25.5 26.1464V24.8536C25.5 24.6272 25.5899 24.4101 25.75 24.25C25.9101 24.0899 26.1272 24 26.3536 24Z" fill="black"/>
<path d="M26.5 21.25V24M26.5 24H26.3536C26.1272 24 25.9101 24.0899 25.75 24.25V24.25C25.5899 24.4101 25.5 24.6272 25.5 24.8536V26.1464C25.5 26.3728 25.5899 26.5899 25.75 26.75V26.75C25.9101 26.9101 26.1272 27 26.3536 27H26.6464C26.8728 27 27.0899 26.9101 27.25 26.75V26.75C27.4101 26.5899 27.5 26.3728 27.5 26.1464V24.8536C27.5 24.6272 27.4101 24.4101 27.25 24.25V24.25C27.0899 24.0899 26.8728 24 26.6464 24H26.5Z" stroke="#010101"/>
<path d="M20 16L17.1865 23.0336C17.1194 23.2016 17.2932 23.366 17.4586 23.2929C23.6304 20.569 29.3696 20.569 35.5414 23.2929C35.7068 23.366 35.8806 23.2016 35.8135 23.0336L33 16M20 16C20 6.5 23.5 5.5 25.5 5M20 16C25 14.5 28 14.5 33 16M33 16C33 6.5 29.5 5.5 27.5 5M27.5 5H25.5M27.5 5L27.0379 3.15149C27.0156 3.06246 26.9356 3 26.8438 3H26.1562C26.0644 3 25.9844 3.06246 25.9621 3.15149L25.5 5" stroke="#484848"/>
</svg>
