<svg width="95" height="57" viewBox="0 0 95 57" fill="none" xmlns="http://www.w3.org/2000/svg">
<path d="M33.5525 39V31.3H36.7755C37.3401 31.3 37.8571 31.3953 38.3265 31.586C38.7958 31.7693 39.1991 32.0333 39.5365 32.378C39.8811 32.7227 40.1451 33.1297 40.3285 33.599C40.5118 34.0683 40.6035 34.5853 40.6035 35.15C40.6035 35.7147 40.5118 36.2353 40.3285 36.712C40.1451 37.1813 39.8811 37.5883 39.5365 37.933C39.1991 38.2703 38.7958 38.5343 38.3265 38.725C37.8571 38.9083 37.3401 39 36.7755 39H33.5525ZM35.4225 37.724L35.1695 37.35H36.7205C37.0285 37.35 37.3035 37.2987 37.5455 37.196C37.7875 37.086 37.9928 36.9357 38.1615 36.745C38.3375 36.5543 38.4731 36.3233 38.5685 36.052C38.6638 35.7807 38.7115 35.48 38.7115 35.15C38.7115 34.82 38.6638 34.5193 38.5685 34.248C38.4731 33.9767 38.3375 33.7457 38.1615 33.555C37.9928 33.3643 37.7875 33.2177 37.5455 33.115C37.3035 33.005 37.0285 32.95 36.7205 32.95H35.1365L35.4225 32.598V37.724ZM44.6455 39.11C44.0002 39.11 43.4392 38.9817 42.9625 38.725C42.4859 38.461 42.1155 38.1053 41.8515 37.658C41.5875 37.2033 41.4555 36.6863 41.4555 36.107C41.4555 35.6597 41.5289 35.249 41.6755 34.875C41.8222 34.501 42.0275 34.1783 42.2915 33.907C42.5555 33.6283 42.8672 33.4157 43.2265 33.269C43.5932 33.115 43.9929 33.038 44.4255 33.038C44.8362 33.038 45.2102 33.1113 45.5475 33.258C45.8922 33.4047 46.1892 33.61 46.4385 33.874C46.6879 34.138 46.8785 34.4497 47.0105 34.809C47.1425 35.1683 47.2012 35.5607 47.1865 35.986L47.1755 36.459H42.5225L42.2695 35.469H45.7455L45.5585 35.678V35.458C45.5439 35.2747 45.4852 35.1133 45.3825 34.974C45.2872 34.8273 45.1589 34.7137 44.9975 34.633C44.8362 34.5523 44.6529 34.512 44.4475 34.512C44.1615 34.512 43.9159 34.5707 43.7105 34.688C43.5125 34.798 43.3622 34.963 43.2595 35.183C43.1569 35.3957 43.1055 35.6597 43.1055 35.975C43.1055 36.2977 43.1715 36.58 43.3035 36.822C43.4429 37.0567 43.6409 37.24 43.8975 37.372C44.1615 37.504 44.4732 37.57 44.8325 37.57C45.0819 37.57 45.3019 37.5333 45.4925 37.46C45.6905 37.3867 45.9032 37.262 46.1305 37.086L46.9555 38.252C46.7282 38.45 46.4862 38.6113 46.2295 38.736C45.9729 38.8607 45.7089 38.9523 45.4375 39.011C45.1735 39.077 44.9095 39.11 44.6455 39.11ZM48.3189 39V30.86H50.0789V39H48.3189ZM52.1004 39V31.685H53.8604V39H52.1004ZM51.0664 34.699V33.159H54.9934V34.699H51.0664ZM58.1016 39.099C57.6102 39.099 57.1702 38.9707 56.7816 38.714C56.4002 38.45 56.0959 38.0907 55.8686 37.636C55.6412 37.174 55.5276 36.6533 55.5276 36.074C55.5276 35.48 55.6412 34.9557 55.8686 34.501C56.0959 34.0463 56.4076 33.6907 56.8036 33.434C57.1996 33.17 57.6506 33.038 58.1566 33.038C58.4352 33.038 58.6882 33.0783 58.9156 33.159C59.1502 33.2397 59.3556 33.3533 59.5316 33.5C59.7076 33.6393 59.8579 33.8043 59.9826 33.995C60.1072 34.1783 60.1989 34.3763 60.2576 34.589L59.8946 34.545V33.159H61.6436V39H59.8616V37.592L60.2576 37.581C60.1989 37.7863 60.1036 37.9807 59.9716 38.164C59.8396 38.3473 59.6782 38.5087 59.4876 38.648C59.2969 38.7873 59.0842 38.8973 58.8496 38.978C58.6149 39.0587 58.3656 39.099 58.1016 39.099ZM58.5856 37.614C58.8569 37.614 59.0916 37.5517 59.2896 37.427C59.4876 37.3023 59.6416 37.1263 59.7516 36.899C59.8616 36.6643 59.9166 36.3893 59.9166 36.074C59.9166 35.7587 59.8616 35.4873 59.7516 35.26C59.6416 35.0253 59.4876 34.8457 59.2896 34.721C59.0916 34.589 58.8569 34.523 58.5856 34.523C58.3216 34.523 58.0906 34.589 57.8926 34.721C57.7019 34.8457 57.5516 35.0253 57.4416 35.26C57.3316 35.4873 57.2766 35.7587 57.2766 36.074C57.2766 36.3893 57.3316 36.6643 57.4416 36.899C57.5516 37.1263 57.7019 37.3023 57.8926 37.427C58.0906 37.5517 58.3216 37.614 58.5856 37.614ZM7.85634 53.11C7.43834 53.11 7.04968 53.055 6.69034 52.945C6.33834 52.835 6.01568 52.67 5.72234 52.45C5.43634 52.2227 5.17968 51.944 4.95234 51.614L5.76634 50.679C6.12568 51.1923 6.47034 51.548 6.80034 51.746C7.13034 51.944 7.52268 52.043 7.97734 52.043C8.25601 52.043 8.50901 51.999 8.73634 51.911C8.96368 51.823 9.14334 51.702 9.27534 51.548C9.40734 51.394 9.47334 51.218 9.47334 51.02C9.47334 50.888 9.45134 50.7633 9.40734 50.646C9.36334 50.5287 9.29368 50.4223 9.19834 50.327C9.11034 50.2317 8.99301 50.1437 8.84634 50.063C8.70701 49.9823 8.54201 49.9127 8.35134 49.854C8.16068 49.788 7.94068 49.733 7.69134 49.689C7.29534 49.6083 6.95068 49.502 6.65734 49.37C6.36401 49.238 6.11834 49.073 5.92034 48.875C5.72234 48.677 5.57568 48.4533 5.48034 48.204C5.38501 47.9473 5.33734 47.6613 5.33734 47.346C5.33734 47.038 5.40334 46.752 5.53534 46.488C5.67468 46.224 5.86168 45.9967 6.09634 45.806C6.33834 45.608 6.62068 45.4577 6.94334 45.355C7.26601 45.245 7.61434 45.19 7.98834 45.19C8.38434 45.19 8.74734 45.2413 9.07734 45.344C9.40734 45.4467 9.70068 45.6007 9.95734 45.806C10.214 46.004 10.4267 46.2497 10.5953 46.543L9.75934 47.368C9.61268 47.126 9.44768 46.9243 9.26434 46.763C9.08101 46.5943 8.87934 46.4697 8.65934 46.389C8.43934 46.301 8.20468 46.257 7.95534 46.257C7.66934 46.257 7.42001 46.301 7.20734 46.389C6.99468 46.477 6.82601 46.6017 6.70134 46.763C6.58401 46.917 6.52534 47.1003 6.52534 47.313C6.52534 47.467 6.55468 47.61 6.61334 47.742C6.67201 47.8667 6.76001 47.9803 6.87734 48.083C7.00201 48.1783 7.16701 48.2663 7.37234 48.347C7.57768 48.4203 7.82334 48.4863 8.10934 48.545C8.51268 48.633 8.87201 48.7467 9.18734 48.886C9.50268 49.018 9.77034 49.1757 9.99034 49.359C10.2103 49.5423 10.3753 49.7477 10.4853 49.975C10.6027 50.2023 10.6613 50.448 10.6613 50.712C10.6613 51.2033 10.5477 51.6287 10.3203 51.988C10.093 52.3473 9.77034 52.626 9.35234 52.824C8.93434 53.0147 8.43568 53.11 7.85634 53.11ZM12.7736 53V45.751H13.9066V53H12.7736ZM11.5746 48.325V47.225H15.2486V48.325H11.5746ZM16.7423 53.121C16.5003 53.121 16.3133 53.0513 16.1813 52.912C16.0493 52.7653 15.9833 52.56 15.9833 52.296C15.9833 52.054 16.0529 51.856 16.1923 51.702C16.3316 51.548 16.5149 51.471 16.7423 51.471C16.9843 51.471 17.1713 51.5443 17.3033 51.691C17.4353 51.8303 17.5013 52.032 17.5013 52.296C17.5013 52.538 17.4316 52.736 17.2923 52.89C17.1529 53.044 16.9696 53.121 16.7423 53.121ZM23.8902 53.11C23.6409 53.11 23.4026 53.077 23.1752 53.011C22.9479 52.945 22.7352 52.8497 22.5372 52.725C22.3466 52.6003 22.1742 52.4537 22.0202 52.285C21.8662 52.109 21.7342 51.9183 21.6242 51.713L22.3722 50.932C22.5262 51.152 22.6656 51.328 22.7902 51.46C22.9222 51.592 23.0469 51.6947 23.1642 51.768C23.2816 51.8413 23.3989 51.8927 23.5162 51.922C23.6336 51.944 23.7582 51.955 23.8902 51.955C24.1542 51.955 24.3852 51.8963 24.5832 51.779C24.7812 51.6543 24.9352 51.4857 25.0452 51.273C25.1552 51.0603 25.2102 50.8183 25.2102 50.547V46.4H23.8022V45.3H27.5862V46.4H26.3982V50.657C26.3982 51.009 26.3359 51.3353 26.2112 51.636C26.0939 51.9293 25.9216 52.186 25.6942 52.406C25.4742 52.626 25.2102 52.7983 24.9022 52.923C24.6016 53.0477 24.2642 53.11 23.8902 53.11ZM30.972 53.11C30.4073 53.11 29.9013 52.9817 29.454 52.725C29.014 52.461 28.6657 52.1053 28.409 51.658C28.1523 51.2033 28.024 50.6863 28.024 50.107C28.024 49.5277 28.1523 49.0143 28.409 48.567C28.6657 48.1123 29.014 47.7567 29.454 47.5C29.9013 47.236 30.4073 47.104 30.972 47.104C31.5293 47.104 32.028 47.236 32.468 47.5C32.9153 47.7567 33.2673 48.1123 33.524 48.567C33.7807 49.0143 33.909 49.5277 33.909 50.107C33.909 50.6863 33.7807 51.2033 33.524 51.658C33.2673 52.1053 32.9153 52.461 32.468 52.725C32.028 52.9817 31.5293 53.11 30.972 53.11ZM30.972 52.076C31.3167 52.076 31.6247 51.9917 31.896 51.823C32.1673 51.647 32.38 51.4123 32.534 51.119C32.688 50.8183 32.7613 50.481 32.754 50.107C32.7613 49.7257 32.688 49.3883 32.534 49.095C32.38 48.7943 32.1673 48.5597 31.896 48.391C31.6247 48.2223 31.3167 48.138 30.972 48.138C30.6273 48.138 30.3157 48.226 30.037 48.402C29.7657 48.5707 29.553 48.8053 29.399 49.106C29.245 49.3993 29.1717 49.733 29.179 50.107C29.1717 50.481 29.245 50.8183 29.399 51.119C29.553 51.4123 29.7657 51.647 30.037 51.823C30.3157 51.9917 30.6273 52.076 30.972 52.076ZM35.1436 53V44.86H36.2766V48.413L36.0786 48.545C36.1519 48.2883 36.2949 48.0537 36.5076 47.841C36.7202 47.621 36.9732 47.445 37.2666 47.313C37.5599 47.1737 37.8606 47.104 38.1686 47.104C38.6086 47.104 38.9752 47.192 39.2686 47.368C39.5619 47.5367 39.7819 47.797 39.9286 48.149C40.0752 48.501 40.1486 48.9447 40.1486 49.48V53H39.0156V49.557C39.0156 49.227 38.9716 48.9557 38.8836 48.743C38.7956 48.523 38.6599 48.3653 38.4766 48.27C38.2932 48.1673 38.0659 48.1233 37.7946 48.138C37.5746 48.138 37.3729 48.1747 37.1896 48.248C37.0062 48.314 36.8449 48.4093 36.7056 48.534C36.5736 48.6587 36.4672 48.8053 36.3866 48.974C36.3132 49.1353 36.2766 49.3113 36.2766 49.502V53H35.7156C35.6202 53 35.5249 53 35.4296 53C35.3342 53 35.2389 53 35.1436 53ZM41.6856 53V47.225H42.8186V48.413L42.6206 48.545C42.6939 48.2883 42.8369 48.0537 43.0496 47.841C43.2622 47.621 43.5152 47.445 43.8086 47.313C44.1019 47.1737 44.4026 47.104 44.7106 47.104C45.1506 47.104 45.5172 47.192 45.8106 47.368C46.1039 47.5367 46.3239 47.797 46.4706 48.149C46.6172 48.501 46.6906 48.9447 46.6906 49.48V53H45.5576V49.557C45.5576 49.227 45.5136 48.9557 45.4256 48.743C45.3376 48.523 45.2019 48.3653 45.0186 48.27C44.8352 48.1673 44.6079 48.1233 44.3366 48.138C44.1166 48.138 43.9149 48.1747 43.7316 48.248C43.5482 48.314 43.3869 48.4093 43.2476 48.534C43.1156 48.6587 43.0092 48.8053 42.9286 48.974C42.8552 49.1353 42.8186 49.3113 42.8186 49.502V53H42.2576C42.1622 53 42.0669 53 41.9716 53C41.8762 53 41.7809 53 41.6856 53ZM51.5966 53V45.3H54.8086C55.2999 45.3 55.7142 45.3733 56.0516 45.52C56.3889 45.6667 56.6419 45.8867 56.8106 46.18C56.9866 46.466 57.0746 46.818 57.0746 47.236C57.0746 47.654 56.9572 48.0097 56.7226 48.303C56.4952 48.5963 56.1762 48.798 55.7656 48.908V48.688C56.1102 48.7613 56.4109 48.8933 56.6676 49.084C56.9242 49.2673 57.1222 49.4983 57.2616 49.777C57.4082 50.0557 57.4816 50.3747 57.4816 50.734C57.4816 51.1007 57.4229 51.427 57.3056 51.713C57.1956 51.9917 57.0269 52.2263 56.7996 52.417C56.5796 52.6077 56.3119 52.7543 55.9966 52.857C55.6812 52.9523 55.3219 53 54.9186 53H51.5966ZM52.7846 51.856H54.8526C55.1532 51.856 55.4062 51.812 55.6116 51.724C55.8242 51.636 55.9856 51.5077 56.0956 51.339C56.2129 51.163 56.2716 50.954 56.2716 50.712C56.2716 50.4847 56.2092 50.2903 56.0846 50.129C55.9672 49.9677 55.7986 49.8467 55.5786 49.766C55.3586 49.678 55.0982 49.634 54.7976 49.634H52.7846V51.856ZM52.7846 48.49H54.7426C54.9626 48.49 55.1569 48.446 55.3256 48.358C55.5016 48.27 55.6372 48.149 55.7326 47.995C55.8352 47.841 55.8866 47.665 55.8866 47.467C55.8866 47.137 55.7766 46.884 55.5566 46.708C55.3366 46.532 55.0212 46.444 54.6106 46.444H52.7846V48.49ZM61.3831 53.11C60.8185 53.11 60.3125 52.9817 59.8651 52.725C59.4251 52.461 59.0768 52.1053 58.8201 51.658C58.5635 51.2033 58.4351 50.6863 58.4351 50.107C58.4351 49.5277 58.5635 49.0143 58.8201 48.567C59.0768 48.1123 59.4251 47.7567 59.8651 47.5C60.3125 47.236 60.8185 47.104 61.3831 47.104C61.9405 47.104 62.4391 47.236 62.8791 47.5C63.3265 47.7567 63.6785 48.1123 63.9351 48.567C64.1918 49.0143 64.3201 49.5277 64.3201 50.107C64.3201 50.6863 64.1918 51.2033 63.9351 51.658C63.6785 52.1053 63.3265 52.461 62.8791 52.725C62.4391 52.9817 61.9405 53.11 61.3831 53.11ZM61.3831 52.076C61.7278 52.076 62.0358 51.9917 62.3071 51.823C62.5785 51.647 62.7911 51.4123 62.9451 51.119C63.0991 50.8183 63.1725 50.481 63.1651 50.107C63.1725 49.7257 63.0991 49.3883 62.9451 49.095C62.7911 48.7943 62.5785 48.5597 62.3071 48.391C62.0358 48.2223 61.7278 48.138 61.3831 48.138C61.0385 48.138 60.7268 48.226 60.4481 48.402C60.1768 48.5707 59.9641 48.8053 59.8101 49.106C59.6561 49.3993 59.5828 49.733 59.5901 50.107C59.5828 50.481 59.6561 50.8183 59.8101 51.119C59.9641 51.4123 60.1768 51.647 60.4481 51.823C60.7268 51.9917 61.0385 52.076 61.3831 52.076ZM67.4797 53.11C66.9957 53.11 66.5594 53.0257 66.1707 52.857C65.782 52.6883 65.4594 52.439 65.2027 52.109L65.9727 51.449C66.1927 51.7057 66.431 51.8927 66.6877 52.01C66.9517 52.12 67.2487 52.175 67.5787 52.175C67.7107 52.175 67.8317 52.1603 67.9417 52.131C68.059 52.0943 68.158 52.043 68.2387 51.977C68.3267 51.911 68.3927 51.834 68.4367 51.746C68.4807 51.6507 68.5027 51.548 68.5027 51.438C68.5027 51.2473 68.433 51.0933 68.2937 50.976C68.2204 50.9247 68.103 50.8697 67.9417 50.811C67.7877 50.745 67.586 50.679 67.3367 50.613C66.9114 50.503 66.563 50.3783 66.2917 50.239C66.0204 50.0997 65.8114 49.942 65.6647 49.766C65.5547 49.6267 65.474 49.4763 65.4227 49.315C65.3714 49.1463 65.3457 48.963 65.3457 48.765C65.3457 48.523 65.397 48.303 65.4997 48.105C65.6097 47.8997 65.7564 47.7237 65.9397 47.577C66.1304 47.423 66.3504 47.3057 66.5997 47.225C66.8564 47.1443 67.1277 47.104 67.4137 47.104C67.685 47.104 67.9527 47.1407 68.2167 47.214C68.488 47.2873 68.7374 47.3937 68.9647 47.533C69.192 47.6723 69.3827 47.8373 69.5367 48.028L68.8877 48.743C68.7484 48.6037 68.5944 48.4827 68.4257 48.38C68.2644 48.27 68.0994 48.1857 67.9307 48.127C67.762 48.0683 67.608 48.039 67.4687 48.039C67.3147 48.039 67.1754 48.0537 67.0507 48.083C66.926 48.1123 66.8197 48.1563 66.7317 48.215C66.651 48.2737 66.5887 48.347 66.5447 48.435C66.5007 48.523 66.4787 48.622 66.4787 48.732C66.486 48.8273 66.508 48.919 66.5447 49.007C66.5887 49.0877 66.6474 49.1573 66.7207 49.216C66.8014 49.2747 66.9224 49.337 67.0837 49.403C67.245 49.469 67.4504 49.5313 67.6997 49.59C68.0664 49.6853 68.367 49.7917 68.6017 49.909C68.8437 50.019 69.0344 50.1473 69.1737 50.294C69.3204 50.4333 69.423 50.5947 69.4817 50.778C69.5404 50.9613 69.5697 51.1667 69.5697 51.394C69.5697 51.724 69.4744 52.021 69.2837 52.285C69.1004 52.5417 68.851 52.7433 68.5357 52.89C68.2204 53.0367 67.8684 53.11 67.4797 53.11ZM73.2714 53.11C72.736 53.11 72.2557 52.978 71.8304 52.714C71.4124 52.45 71.0787 52.0907 70.8294 51.636C70.5874 51.1813 70.4664 50.6717 70.4664 50.107C70.4664 49.5423 70.5874 49.0327 70.8294 48.578C71.0787 48.1233 71.4124 47.764 71.8304 47.5C72.2557 47.236 72.736 47.104 73.2714 47.104C73.7847 47.104 74.2504 47.2103 74.6684 47.423C75.0937 47.6283 75.4164 47.9107 75.6364 48.27L75.0094 49.04C74.892 48.8713 74.7417 48.7173 74.5584 48.578C74.375 48.4387 74.1807 48.3287 73.9754 48.248C73.77 48.1673 73.572 48.127 73.3814 48.127C73.0294 48.127 72.714 48.215 72.4354 48.391C72.164 48.5597 71.9477 48.7943 71.7864 49.095C71.625 49.3957 71.5444 49.733 71.5444 50.107C71.5444 50.481 71.6287 50.8183 71.7974 51.119C71.966 51.4123 72.1897 51.647 72.4684 51.823C72.747 51.999 73.055 52.087 73.3924 52.087C73.5904 52.087 73.781 52.054 73.9644 51.988C74.155 51.922 74.3384 51.823 74.5144 51.691C74.6904 51.559 74.8554 51.3977 75.0094 51.207L75.6364 51.977C75.4017 52.307 75.0644 52.5783 74.6244 52.791C74.1917 53.0037 73.7407 53.11 73.2714 53.11ZM79.3011 53.11C78.7364 53.11 78.2304 52.9817 77.7831 52.725C77.3431 52.461 76.9948 52.1053 76.7381 51.658C76.4814 51.2033 76.3531 50.6863 76.3531 50.107C76.3531 49.5277 76.4814 49.0143 76.7381 48.567C76.9948 48.1123 77.3431 47.7567 77.7831 47.5C78.2304 47.236 78.7364 47.104 79.3011 47.104C79.8584 47.104 80.3571 47.236 80.7971 47.5C81.2444 47.7567 81.5964 48.1123 81.8531 48.567C82.1098 49.0143 82.2381 49.5277 82.2381 50.107C82.2381 50.6863 82.1098 51.2033 81.8531 51.658C81.5964 52.1053 81.2444 52.461 80.7971 52.725C80.3571 52.9817 79.8584 53.11 79.3011 53.11ZM79.3011 52.076C79.6458 52.076 79.9538 51.9917 80.2251 51.823C80.4964 51.647 80.7091 51.4123 80.8631 51.119C81.0171 50.8183 81.0904 50.481 81.0831 50.107C81.0904 49.7257 81.0171 49.3883 80.8631 49.095C80.7091 48.7943 80.4964 48.5597 80.2251 48.391C79.9538 48.2223 79.6458 48.138 79.3011 48.138C78.9564 48.138 78.6448 48.226 78.3661 48.402C78.0948 48.5707 77.8821 48.8053 77.7281 49.106C77.5741 49.3993 77.5008 49.733 77.5081 50.107C77.5008 50.481 77.5741 50.8183 77.7281 51.119C77.8821 51.4123 78.0948 51.647 78.3661 51.823C78.6448 51.9917 78.9564 52.076 79.3011 52.076ZM83.3187 47.775L82.9007 47.269C83.1867 47.137 83.4213 46.9867 83.6047 46.818C83.788 46.6493 83.8797 46.5027 83.8797 46.378C83.8797 46.2827 83.8393 46.1983 83.7587 46.125C83.678 46.0443 83.6047 45.9783 83.5387 45.927C83.3773 45.795 83.2673 45.685 83.2087 45.597C83.1573 45.509 83.1317 45.4173 83.1317 45.322C83.1317 45.146 83.194 45.0067 83.3187 44.904C83.4433 44.794 83.6047 44.739 83.8027 44.739C84.008 44.739 84.1913 44.794 84.3527 44.904C84.5213 45.0067 84.6533 45.1497 84.7487 45.333C84.844 45.5163 84.8917 45.7327 84.8917 45.982C84.8917 46.1727 84.8513 46.3597 84.7707 46.543C84.69 46.7263 84.5763 46.8987 84.4297 47.06C84.2903 47.2213 84.1253 47.3643 83.9347 47.489C83.744 47.6137 83.5387 47.709 83.3187 47.775ZM88.051 53.11C87.567 53.11 87.1307 53.0257 86.742 52.857C86.3533 52.6883 86.0307 52.439 85.774 52.109L86.544 51.449C86.764 51.7057 87.0023 51.8927 87.259 52.01C87.523 52.12 87.82 52.175 88.15 52.175C88.282 52.175 88.403 52.1603 88.513 52.131C88.6303 52.0943 88.7293 52.043 88.81 51.977C88.898 51.911 88.964 51.834 89.008 51.746C89.052 51.6507 89.074 51.548 89.074 51.438C89.074 51.2473 89.0043 51.0933 88.865 50.976C88.7917 50.9247 88.6743 50.8697 88.513 50.811C88.359 50.745 88.1573 50.679 87.908 50.613C87.4827 50.503 87.1343 50.3783 86.863 50.239C86.5917 50.0997 86.3827 49.942 86.236 49.766C86.126 49.6267 86.0453 49.4763 85.994 49.315C85.9427 49.1463 85.917 48.963 85.917 48.765C85.917 48.523 85.9683 48.303 86.071 48.105C86.181 47.8997 86.3277 47.7237 86.511 47.577C86.7017 47.423 86.9217 47.3057 87.171 47.225C87.4277 47.1443 87.699 47.104 87.985 47.104C88.2563 47.104 88.524 47.1407 88.788 47.214C89.0593 47.2873 89.3087 47.3937 89.536 47.533C89.7633 47.6723 89.954 47.8373 90.108 48.028L89.459 48.743C89.3197 48.6037 89.1657 48.4827 88.997 48.38C88.8357 48.27 88.6707 48.1857 88.502 48.127C88.3333 48.0683 88.1793 48.039 88.04 48.039C87.886 48.039 87.7467 48.0537 87.622 48.083C87.4973 48.1123 87.391 48.1563 87.303 48.215C87.2223 48.2737 87.16 48.347 87.116 48.435C87.072 48.523 87.05 48.622 87.05 48.732C87.0573 48.8273 87.0793 48.919 87.116 49.007C87.16 49.0877 87.2187 49.1573 87.292 49.216C87.3727 49.2747 87.4937 49.337 87.655 49.403C87.8163 49.469 88.0217 49.5313 88.271 49.59C88.6377 49.6853 88.9383 49.7917 89.173 49.909C89.415 50.019 89.6057 50.1473 89.745 50.294C89.8917 50.4333 89.9943 50.5947 90.053 50.778C90.1117 50.9613 90.141 51.1667 90.141 51.394C90.141 51.724 90.0457 52.021 89.855 52.285C89.6717 52.5417 89.4223 52.7433 89.107 52.89C88.7917 53.0367 88.4397 53.11 88.051 53.11Z" fill="black"/>
<path d="M36 23.5C42.5 25.5 48.5 25.5 55 23.5C48.5 20.5 42.5 20.5 36 23.5Z" fill="#949494"/>
<path d="M36 23.5L39 16C44 14.5 47 14.5 52 16L55 23.5C48.5 20.5 42.5 20.5 36 23.5Z" fill="#B0B0B0"/>
<path d="M39.001 15.726C39.0678 6.48065 42.5194 5.49515 44.5 5L44.9621 3.15149C44.9844 3.06246 45.0644 3 45.1562 3H45.8438C45.9356 3 46.0156 3.06246 46.0379 3.15149L46.5 5C48.4806 5.49515 51.9322 6.48065 51.999 15.726C52 15.8599 51.8693 15.9608 51.7407 15.923C46.9808 14.5257 44.0192 14.5257 39.2593 15.923C39.1307 15.9608 39 15.8599 39.001 15.726Z" fill="#D1D1D1"/>
<path d="M39 16L36.0806 23.2984C36.0372 23.407 36.0964 23.5297 36.2083 23.5635C42.559 25.4788 48.441 25.4788 54.7917 23.5635C54.9036 23.5297 54.9628 23.407 54.9194 23.2984L52 16M39 16C39 6.53695 42.4728 5.50791 44.4766 5.00586C44.4925 5.00188 44.5083 5 44.5246 5H46.4754C46.4917 5 46.5075 5.00188 46.5234 5.00586C48.5272 5.50791 52 6.53695 52 16M39 16C44 14.5 47 14.5 52 16" stroke="#484848"/>
<path d="M45.3536 24H45.5H45.6464C45.8728 24 46.0899 24.0899 46.25 24.25C46.4101 24.4101 46.5 24.6272 46.5 24.8536V26.1464C46.5 26.3728 46.4101 26.5899 46.25 26.75C46.0899 26.9101 45.8728 27 45.6464 27H45.3536C45.1272 27 44.9101 26.9101 44.75 26.75C44.5899 26.5899 44.5 26.3728 44.5 26.1464V24.8536C44.5 24.6272 44.5899 24.4101 44.75 24.25C44.9101 24.0899 45.1272 24 45.3536 24Z" fill="black"/>
<path d="M45.5 21.25V24M45.5 24H45.3536C45.1272 24 44.9101 24.0899 44.75 24.25V24.25C44.5899 24.4101 44.5 24.6272 44.5 24.8536V26.1464C44.5 26.3728 44.5899 26.5899 44.75 26.75V26.75C44.9101 26.9101 45.1272 27 45.3536 27H45.6464C45.8728 27 46.0899 26.9101 46.25 26.75V26.75C46.4101 26.5899 46.5 26.3728 46.5 26.1464V24.8536C46.5 24.6272 46.4101 24.4101 46.25 24.25V24.25C46.0899 24.0899 45.8728 24 45.6464 24H45.5Z" stroke="#010101"/>
<path d="M39 16L36.1865 23.0336C36.1194 23.2016 36.2932 23.366 36.4586 23.2929C42.6304 20.569 48.3696 20.569 54.5414 23.2929C54.7068 23.366 54.8806 23.2016 54.8135 23.0336L52 16M39 16C39 6.5 42.5 5.5 44.5 5M39 16C44 14.5 47 14.5 52 16M52 16C52 6.5 48.5 5.5 46.5 5M46.5 5H44.5M46.5 5L46.0379 3.15149C46.0156 3.06246 45.9356 3 45.8438 3H45.1562C45.0644 3 44.9844 3.06246 44.9621 3.15149L44.5 5" stroke="#484848"/>
</svg>
