<svg width="80" height="71" viewBox="0 0 80 71" fill="none" xmlns="http://www.w3.org/2000/svg">
<path d="M11.5699 38.11C10.9539 38.11 10.3965 38.011 9.89786 37.813C9.39919 37.615 8.97019 37.3363 8.61086 36.977C8.25152 36.6177 7.97652 36.196 7.78586 35.712C7.59519 35.2207 7.49986 34.689 7.49986 34.117C7.49986 33.545 7.59886 33.0207 7.79686 32.544C8.00219 32.06 8.29186 31.6383 8.66586 31.279C9.03986 30.9197 9.47986 30.641 9.98586 30.443C10.4992 30.245 11.0565 30.146 11.6579 30.146C12.0832 30.146 12.4829 30.201 12.8569 30.311C13.2382 30.421 13.5829 30.5713 13.8909 30.762C14.1989 30.9527 14.4592 31.1727 14.6719 31.422L13.5389 32.621C13.3555 32.445 13.1649 32.2983 12.9669 32.181C12.7762 32.0637 12.5709 31.972 12.3509 31.906C12.1309 31.8327 11.8962 31.796 11.6469 31.796C11.3242 31.796 11.0272 31.8547 10.7559 31.972C10.4919 32.0893 10.2572 32.2543 10.0519 32.467C9.85386 32.6723 9.69986 32.918 9.58986 33.204C9.47986 33.4827 9.42486 33.787 9.42486 34.117C9.42486 34.447 9.48352 34.755 9.60086 35.041C9.71819 35.327 9.87952 35.5763 10.0849 35.789C10.2902 35.9943 10.5322 36.1593 10.8109 36.284C11.0969 36.4013 11.4012 36.46 11.7239 36.46C11.9512 36.46 12.1639 36.4233 12.3619 36.35C12.5672 36.2767 12.7432 36.1777 12.8899 36.053C13.0365 35.9283 13.1539 35.7817 13.2419 35.613C13.3299 35.437 13.3739 35.25 13.3739 35.052V34.766L13.6159 35.14H11.4929V33.677H15.1119C15.1265 33.7577 15.1375 33.8677 15.1449 34.007C15.1522 34.1463 15.1559 34.282 15.1559 34.414C15.1632 34.546 15.1669 34.645 15.1669 34.711C15.1669 35.2097 15.0752 35.668 14.8919 36.086C14.7159 36.4967 14.4665 36.8523 14.1439 37.153C13.8212 37.4537 13.4399 37.6883 12.9999 37.857C12.5599 38.0257 12.0832 38.11 11.5699 38.11ZM16.4123 38V32.159H18.0843L18.1613 34.062L17.8313 33.699C17.9193 33.3837 18.0623 33.1013 18.2603 32.852C18.4657 32.6027 18.704 32.4047 18.9753 32.258C19.2467 32.1113 19.5363 32.038 19.8443 32.038C19.9763 32.038 20.0973 32.049 20.2073 32.071C20.3247 32.093 20.431 32.1187 20.5263 32.148L20.0423 34.095C19.9617 34.0437 19.8517 34.0033 19.7123 33.974C19.5803 33.9373 19.441 33.919 19.2943 33.919C19.133 33.919 18.9827 33.9483 18.8433 34.007C18.704 34.0583 18.5867 34.1353 18.4913 34.238C18.396 34.3407 18.319 34.4617 18.2603 34.601C18.209 34.7403 18.1833 34.898 18.1833 35.074V38H16.4123ZM23.9541 38.11C23.3088 38.11 22.7478 37.9817 22.2711 37.725C21.7945 37.461 21.4241 37.1053 21.1601 36.658C20.8961 36.2033 20.7641 35.6863 20.7641 35.107C20.7641 34.6597 20.8375 34.249 20.9841 33.875C21.1308 33.501 21.3361 33.1783 21.6001 32.907C21.8641 32.6283 22.1758 32.4157 22.5351 32.269C22.9018 32.115 23.3015 32.038 23.7341 32.038C24.1448 32.038 24.5188 32.1113 24.8561 32.258C25.2008 32.4047 25.4978 32.61 25.7471 32.874C25.9965 33.138 26.1871 33.4497 26.3191 33.809C26.4511 34.1683 26.5098 34.5607 26.4951 34.986L26.4841 35.459H21.8311L21.5781 34.469H25.0541L24.8671 34.678V34.458C24.8525 34.2747 24.7938 34.1133 24.6911 33.974C24.5958 33.8273 24.4675 33.7137 24.3061 33.633C24.1448 33.5523 23.9615 33.512 23.7561 33.512C23.4701 33.512 23.2245 33.5707 23.0191 33.688C22.8211 33.798 22.6708 33.963 22.5681 34.183C22.4655 34.3957 22.4141 34.6597 22.4141 34.975C22.4141 35.2977 22.4801 35.58 22.6121 35.822C22.7515 36.0567 22.9495 36.24 23.2061 36.372C23.4701 36.504 23.7818 36.57 24.1411 36.57C24.3905 36.57 24.6105 36.5333 24.8011 36.46C24.9991 36.3867 25.2118 36.262 25.4391 36.086L26.2641 37.252C26.0368 37.45 25.7948 37.6113 25.5381 37.736C25.2815 37.8607 25.0175 37.9523 24.7461 38.011C24.4821 38.077 24.2181 38.11 23.9541 38.11ZM30.3994 38.11C29.7541 38.11 29.1931 37.9817 28.7164 37.725C28.2398 37.461 27.8694 37.1053 27.6054 36.658C27.3414 36.2033 27.2094 35.6863 27.2094 35.107C27.2094 34.6597 27.2828 34.249 27.4294 33.875C27.5761 33.501 27.7814 33.1783 28.0454 32.907C28.3094 32.6283 28.6211 32.4157 28.9804 32.269C29.3471 32.115 29.7468 32.038 30.1794 32.038C30.5901 32.038 30.9641 32.1113 31.3014 32.258C31.6461 32.4047 31.9431 32.61 32.1924 32.874C32.4418 33.138 32.6324 33.4497 32.7644 33.809C32.8964 34.1683 32.9551 34.5607 32.9404 34.986L32.9294 35.459H28.2764L28.0234 34.469H31.4994L31.3124 34.678V34.458C31.2978 34.2747 31.2391 34.1133 31.1364 33.974C31.0411 33.8273 30.9128 33.7137 30.7514 33.633C30.5901 33.5523 30.4068 33.512 30.2014 33.512C29.9154 33.512 29.6698 33.5707 29.4644 33.688C29.2664 33.798 29.1161 33.963 29.0134 34.183C28.9108 34.3957 28.8594 34.6597 28.8594 34.975C28.8594 35.2977 28.9254 35.58 29.0574 35.822C29.1968 36.0567 29.3948 36.24 29.6514 36.372C29.9154 36.504 30.2271 36.57 30.5864 36.57C30.8358 36.57 31.0558 36.5333 31.2464 36.46C31.4444 36.3867 31.6571 36.262 31.8844 36.086L32.7094 37.252C32.4821 37.45 32.2401 37.6113 31.9834 37.736C31.7268 37.8607 31.4628 37.9523 31.1914 38.011C30.9274 38.077 30.6634 38.11 30.3994 38.11ZM34.0618 38V32.159H35.7338L35.7888 33.347L35.4368 33.479C35.5174 33.215 35.6604 32.9767 35.8658 32.764C36.0784 32.544 36.3314 32.368 36.6248 32.236C36.9181 32.104 37.2261 32.038 37.5488 32.038C37.9888 32.038 38.3591 32.1297 38.6598 32.313C38.9604 32.489 39.1878 32.7567 39.3418 33.116C39.4958 33.468 39.5728 33.9007 39.5728 34.414V38H37.8018V34.557C37.8018 34.3223 37.7688 34.128 37.7028 33.974C37.6368 33.82 37.5341 33.7063 37.3948 33.633C37.2628 33.5523 37.0978 33.5157 36.8998 33.523C36.7458 33.523 36.6028 33.5487 36.4708 33.6C36.3388 33.644 36.2251 33.7137 36.1298 33.809C36.0344 33.897 35.9574 33.9997 35.8988 34.117C35.8474 34.2343 35.8218 34.3627 35.8218 34.502V38H34.9528C34.7474 38 34.5714 38 34.4248 38C34.2781 38 34.1571 38 34.0618 38ZM44.7546 38V30.3H48.2196C48.711 30.3 49.1546 30.4063 49.5506 30.619C49.954 30.8317 50.2693 31.125 50.4966 31.499C50.724 31.8657 50.8376 32.2837 50.8376 32.753C50.8376 33.237 50.724 33.6733 50.4966 34.062C50.2693 34.4433 49.9576 34.744 49.5616 34.964C49.1656 35.184 48.7183 35.294 48.2196 35.294H46.5366V38H44.7546ZM49.0226 38L47.0646 34.524L48.9786 34.249L51.1566 38H49.0226ZM46.5366 33.864H48.0546C48.2453 33.864 48.4103 33.8237 48.5496 33.743C48.6963 33.655 48.8063 33.534 48.8796 33.38C48.9603 33.226 49.0006 33.05 49.0006 32.852C49.0006 32.654 48.9566 32.4817 48.8686 32.335C48.7806 32.181 48.6523 32.0637 48.4836 31.983C48.3223 31.9023 48.1243 31.862 47.8896 31.862H46.5366V33.864ZM52.3903 38V32.159H54.1503V38H52.3903ZM53.2703 31.004C52.9403 31.004 52.6799 30.927 52.4893 30.773C52.3059 30.6117 52.2143 30.3843 52.2143 30.091C52.2143 29.827 52.3096 29.6107 52.5003 29.442C52.6909 29.2733 52.9476 29.189 53.2703 29.189C53.6003 29.189 53.8569 29.2697 54.0403 29.431C54.2236 29.585 54.3153 29.805 54.3153 30.091C54.3153 30.3623 54.2199 30.5823 54.0293 30.751C53.8459 30.9197 53.5929 31.004 53.2703 31.004ZM57.5969 38L55.1549 32.159H57.1019L58.5539 36.526L58.1249 36.57L59.6209 32.159H61.5459L58.9829 38H57.5969ZM65.086 38.11C64.4406 38.11 63.8796 37.9817 63.403 37.725C62.9263 37.461 62.556 37.1053 62.292 36.658C62.028 36.2033 61.896 35.6863 61.896 35.107C61.896 34.6597 61.9693 34.249 62.116 33.875C62.2626 33.501 62.468 33.1783 62.732 32.907C62.996 32.6283 63.3076 32.4157 63.667 32.269C64.0336 32.115 64.4333 32.038 64.866 32.038C65.2766 32.038 65.6506 32.1113 65.988 32.258C66.3326 32.4047 66.6296 32.61 66.879 32.874C67.1283 33.138 67.319 33.4497 67.451 33.809C67.583 34.1683 67.6416 34.5607 67.627 34.986L67.616 35.459H62.963L62.71 34.469H66.186L65.999 34.678V34.458C65.9843 34.2747 65.9256 34.1133 65.823 33.974C65.7276 33.8273 65.5993 33.7137 65.438 33.633C65.2766 33.5523 65.0933 33.512 64.888 33.512C64.602 33.512 64.3563 33.5707 64.151 33.688C63.953 33.798 63.8026 33.963 63.7 34.183C63.5973 34.3957 63.546 34.6597 63.546 34.975C63.546 35.2977 63.612 35.58 63.744 35.822C63.8833 36.0567 64.0813 36.24 64.338 36.372C64.602 36.504 64.9136 36.57 65.273 36.57C65.5223 36.57 65.7423 36.5333 65.933 36.46C66.131 36.3867 66.3436 36.262 66.571 36.086L67.396 37.252C67.1686 37.45 66.9266 37.6113 66.67 37.736C66.4133 37.8607 66.1493 37.9523 65.878 38.011C65.614 38.077 65.35 38.11 65.086 38.11ZM68.7483 38V32.159H70.4203L70.4973 34.062L70.1673 33.699C70.2553 33.3837 70.3983 33.1013 70.5963 32.852C70.8016 32.6027 71.04 32.4047 71.3113 32.258C71.5826 32.1113 71.8723 32.038 72.1803 32.038C72.3123 32.038 72.4333 32.049 72.5433 32.071C72.6606 32.093 72.767 32.1187 72.8623 32.148L72.3783 34.095C72.2976 34.0437 72.1876 34.0033 72.0483 33.974C71.9163 33.9373 71.777 33.919 71.6303 33.919C71.469 33.919 71.3186 33.9483 71.1793 34.007C71.04 34.0583 70.9226 34.1353 70.8273 34.238C70.732 34.3407 70.655 34.4617 70.5963 34.601C70.545 34.7403 70.5193 34.898 70.5193 35.074V38H68.7483ZM14.536 52.11C14.118 52.11 13.7294 52.055 13.37 51.945C13.018 51.835 12.6954 51.67 12.402 51.45C12.116 51.2227 11.8594 50.944 11.632 50.614L12.446 49.679C12.8054 50.1923 13.15 50.548 13.48 50.746C13.81 50.944 14.2024 51.043 14.657 51.043C14.9357 51.043 15.1887 50.999 15.416 50.911C15.6434 50.823 15.823 50.702 15.955 50.548C16.087 50.394 16.153 50.218 16.153 50.02C16.153 49.888 16.131 49.7633 16.087 49.646C16.043 49.5287 15.9734 49.4223 15.878 49.327C15.79 49.2317 15.6727 49.1437 15.526 49.063C15.3867 48.9823 15.2217 48.9127 15.031 48.854C14.8404 48.788 14.6204 48.733 14.371 48.689C13.975 48.6083 13.6304 48.502 13.337 48.37C13.0437 48.238 12.798 48.073 12.6 47.875C12.402 47.677 12.2554 47.4533 12.16 47.204C12.0647 46.9473 12.017 46.6613 12.017 46.346C12.017 46.038 12.083 45.752 12.215 45.488C12.3544 45.224 12.5414 44.9967 12.776 44.806C13.018 44.608 13.3004 44.4577 13.623 44.355C13.9457 44.245 14.294 44.19 14.668 44.19C15.064 44.19 15.427 44.2413 15.757 44.344C16.087 44.4467 16.3804 44.6007 16.637 44.806C16.8937 45.004 17.1064 45.2497 17.275 45.543L16.439 46.368C16.2924 46.126 16.1274 45.9243 15.944 45.763C15.7607 45.5943 15.559 45.4697 15.339 45.389C15.119 45.301 14.8844 45.257 14.635 45.257C14.349 45.257 14.0997 45.301 13.887 45.389C13.6744 45.477 13.5057 45.6017 13.381 45.763C13.2637 45.917 13.205 46.1003 13.205 46.313C13.205 46.467 13.2344 46.61 13.293 46.742C13.3517 46.8667 13.4397 46.9803 13.557 47.083C13.6817 47.1783 13.8467 47.2663 14.052 47.347C14.2574 47.4203 14.503 47.4863 14.789 47.545C15.1924 47.633 15.5517 47.7467 15.867 47.886C16.1824 48.018 16.45 48.1757 16.67 48.359C16.89 48.5423 17.055 48.7477 17.165 48.975C17.2824 49.2023 17.341 49.448 17.341 49.712C17.341 50.2033 17.2274 50.6287 17 50.988C16.7727 51.3473 16.45 51.626 16.032 51.824C15.614 52.0147 15.1154 52.11 14.536 52.11ZM19.4533 52V44.751H20.5863V52H19.4533ZM18.2543 47.325V46.225H21.9283V47.325H18.2543ZM23.422 52.121C23.18 52.121 22.993 52.0513 22.861 51.912C22.729 51.7653 22.663 51.56 22.663 51.296C22.663 51.054 22.7326 50.856 22.872 50.702C23.0113 50.548 23.1946 50.471 23.422 50.471C23.664 50.471 23.851 50.5443 23.983 50.691C24.115 50.8303 24.181 51.032 24.181 51.296C24.181 51.538 24.1113 51.736 23.972 51.89C23.8326 52.044 23.6493 52.121 23.422 52.121ZM28.8319 52V44.3H29.9979L32.8029 48.865L32.2419 48.854L35.0799 44.3H36.1799V52H34.9919V48.843C34.9919 48.183 35.0066 47.589 35.0359 47.061C35.0726 46.533 35.1312 46.0087 35.2119 45.488L35.3659 45.895L32.8469 49.789H32.1209L29.6789 45.939L29.7999 45.488C29.8806 45.9793 29.9356 46.4853 29.9649 47.006C30.0016 47.5193 30.0199 48.1317 30.0199 48.843V52H28.8319ZM38.2397 52V46.225H39.3727V52H38.2397ZM38.7897 44.949C38.5477 44.949 38.3607 44.8867 38.2287 44.762C38.0967 44.6373 38.0307 44.4613 38.0307 44.234C38.0307 44.0213 38.0967 43.849 38.2287 43.717C38.3681 43.585 38.5551 43.519 38.7897 43.519C39.0317 43.519 39.2187 43.5813 39.3507 43.706C39.4827 43.8307 39.5487 44.0067 39.5487 44.234C39.5487 44.4467 39.4791 44.619 39.3397 44.751C39.2077 44.883 39.0244 44.949 38.7897 44.949ZM43.5673 52.11C43.0319 52.11 42.5516 51.978 42.1263 51.714C41.7083 51.45 41.3746 51.0907 41.1253 50.636C40.8833 50.1813 40.7623 49.6717 40.7623 49.107C40.7623 48.5423 40.8833 48.0327 41.1253 47.578C41.3746 47.1233 41.7083 46.764 42.1263 46.5C42.5516 46.236 43.0319 46.104 43.5673 46.104C44.0806 46.104 44.5463 46.2103 44.9643 46.423C45.3896 46.6283 45.7123 46.9107 45.9323 47.27L45.3053 48.04C45.1879 47.8713 45.0376 47.7173 44.8543 47.578C44.6709 47.4387 44.4766 47.3287 44.2713 47.248C44.0659 47.1673 43.8679 47.127 43.6773 47.127C43.3253 47.127 43.0099 47.215 42.7313 47.391C42.4599 47.5597 42.2436 47.7943 42.0823 48.095C41.9209 48.3957 41.8403 48.733 41.8403 49.107C41.8403 49.481 41.9246 49.8183 42.0933 50.119C42.2619 50.4123 42.4856 50.647 42.7643 50.823C43.0429 50.999 43.3509 51.087 43.6883 51.087C43.8863 51.087 44.0769 51.054 44.2603 50.988C44.4509 50.922 44.6343 50.823 44.8103 50.691C44.9863 50.559 45.1513 50.3977 45.3053 50.207L45.9323 50.977C45.6976 51.307 45.3603 51.5783 44.9203 51.791C44.4876 52.0037 44.0366 52.11 43.5673 52.11ZM47.001 52V43.86H48.134V47.413L47.936 47.545C48.0093 47.2883 48.1523 47.0537 48.365 46.841C48.5777 46.621 48.8307 46.445 49.124 46.313C49.4173 46.1737 49.718 46.104 50.026 46.104C50.466 46.104 50.8327 46.192 51.126 46.368C51.4193 46.5367 51.6393 46.797 51.786 47.149C51.9327 47.501 52.006 47.9447 52.006 48.48V52H50.873V48.557C50.873 48.227 50.829 47.9557 50.741 47.743C50.653 47.523 50.5173 47.3653 50.334 47.27C50.1507 47.1673 49.9233 47.1233 49.652 47.138C49.432 47.138 49.2303 47.1747 49.047 47.248C48.8637 47.314 48.7023 47.4093 48.563 47.534C48.431 47.6587 48.3247 47.8053 48.244 47.974C48.1707 48.1353 48.134 48.3113 48.134 48.502V52H47.573C47.4777 52 47.3823 52 47.287 52C47.1917 52 47.0963 52 47.001 52ZM56.238 52.11C55.644 52.11 55.116 51.9853 54.654 51.736C54.1993 51.4793 53.84 51.131 53.576 50.691C53.3193 50.251 53.191 49.745 53.191 49.173C53.191 48.7183 53.2643 48.304 53.411 47.93C53.5576 47.556 53.7593 47.2333 54.016 46.962C54.28 46.6833 54.5916 46.4707 54.951 46.324C55.3176 46.17 55.7136 46.093 56.139 46.093C56.513 46.093 56.8613 46.1663 57.184 46.313C57.5066 46.4523 57.7853 46.6467 58.02 46.896C58.262 47.1453 58.4453 47.4423 58.57 47.787C58.702 48.1243 58.7643 48.4947 58.757 48.898L58.746 49.382H54.027L53.774 48.48H57.767L57.602 48.667V48.403C57.58 48.161 57.4993 47.9447 57.36 47.754C57.2206 47.5633 57.0446 47.413 56.832 47.303C56.6193 47.193 56.3883 47.138 56.139 47.138C55.743 47.138 55.4093 47.215 55.138 47.369C54.8666 47.5157 54.6613 47.7357 54.522 48.029C54.3826 48.315 54.313 48.6707 54.313 49.096C54.313 49.4993 54.3973 49.8513 54.566 50.152C54.7346 50.4453 54.973 50.6727 55.281 50.834C55.589 50.9953 55.9446 51.076 56.348 51.076C56.634 51.076 56.898 51.0283 57.14 50.933C57.3893 50.8377 57.657 50.6653 57.943 50.416L58.515 51.219C58.339 51.395 58.1226 51.549 57.866 51.681C57.6166 51.813 57.349 51.9193 57.063 52C56.7843 52.0733 56.5093 52.11 56.238 52.11ZM62.2103 52.11C61.7336 52.11 61.2973 51.978 60.9013 51.714C60.5126 51.45 60.201 51.0907 59.9663 50.636C59.7316 50.1813 59.6143 49.668 59.6143 49.096C59.6143 48.5167 59.7316 48.0033 59.9663 47.556C60.2083 47.1013 60.531 46.7457 60.9343 46.489C61.345 46.2323 61.8033 46.104 62.3093 46.104C62.61 46.104 62.885 46.148 63.1343 46.236C63.3836 46.324 63.6 46.4487 63.7833 46.61C63.974 46.764 64.128 46.9437 64.2453 47.149C64.37 47.3543 64.447 47.5743 64.4763 47.809L64.2233 47.721V46.225H65.3673V52H64.2233V50.625L64.4873 50.548C64.4433 50.746 64.3516 50.9403 64.2123 51.131C64.0803 51.3143 63.908 51.4793 63.6953 51.626C63.49 51.7727 63.259 51.89 63.0023 51.978C62.753 52.066 62.489 52.11 62.2103 52.11ZM62.5073 51.065C62.852 51.065 63.1563 50.9807 63.4203 50.812C63.6843 50.6433 63.8896 50.4123 64.0363 50.119C64.1903 49.8183 64.2673 49.4773 64.2673 49.096C64.2673 48.722 64.1903 48.3883 64.0363 48.095C63.8896 47.8017 63.6843 47.5707 63.4203 47.402C63.1563 47.2333 62.852 47.149 62.5073 47.149C62.17 47.149 61.8693 47.2333 61.6053 47.402C61.3486 47.5707 61.1433 47.8017 60.9893 48.095C60.8426 48.3883 60.7693 48.722 60.7693 49.096C60.7693 49.4773 60.8426 49.8183 60.9893 50.119C61.1433 50.4123 61.3486 50.6433 61.6053 50.812C61.8693 50.9807 62.17 51.065 62.5073 51.065ZM66.9712 52V43.86H68.1042V52H66.9712ZM4.27458 66V58.751H5.40758V66H4.27458ZM3.07558 61.325V60.225H6.74958V61.325H3.07558ZM7.78126 66V57.86H8.91426V61.413L8.71626 61.545C8.78959 61.2883 8.93259 61.0537 9.14526 60.841C9.35792 60.621 9.61092 60.445 9.90426 60.313C10.1976 60.1737 10.4983 60.104 10.8063 60.104C11.2463 60.104 11.6129 60.192 11.9063 60.368C12.1996 60.5367 12.4196 60.797 12.5663 61.149C12.7129 61.501 12.7863 61.9447 12.7863 62.48V66H11.6533V62.557C11.6533 62.227 11.6093 61.9557 11.5213 61.743C11.4333 61.523 11.2976 61.3653 11.1143 61.27C10.9309 61.1673 10.7036 61.1233 10.4323 61.138C10.2123 61.138 10.0106 61.1747 9.82726 61.248C9.64392 61.314 9.48259 61.4093 9.34326 61.534C9.21126 61.6587 9.10492 61.8053 9.02426 61.974C8.95092 62.1353 8.91426 62.3113 8.91426 62.502V66H8.35326C8.25792 66 8.16259 66 8.06726 66C7.97192 66 7.87659 66 7.78126 66ZM17.0183 66.11C16.4243 66.11 15.8963 65.9853 15.4343 65.736C14.9796 65.4793 14.6203 65.131 14.3563 64.691C14.0996 64.251 13.9713 63.745 13.9713 63.173C13.9713 62.7183 14.0446 62.304 14.1913 61.93C14.3379 61.556 14.5396 61.2333 14.7963 60.962C15.0603 60.6833 15.3719 60.4707 15.7313 60.324C16.0979 60.17 16.4939 60.093 16.9193 60.093C17.2933 60.093 17.6416 60.1663 17.9643 60.313C18.2869 60.4523 18.5656 60.6467 18.8003 60.896C19.0423 61.1453 19.2256 61.4423 19.3503 61.787C19.4823 62.1243 19.5446 62.4947 19.5373 62.898L19.5263 63.382H14.8073L14.5543 62.48H18.5473L18.3823 62.667V62.403C18.3603 62.161 18.2796 61.9447 18.1403 61.754C18.0009 61.5633 17.8249 61.413 17.6123 61.303C17.3996 61.193 17.1686 61.138 16.9193 61.138C16.5233 61.138 16.1896 61.215 15.9183 61.369C15.6469 61.5157 15.4416 61.7357 15.3023 62.029C15.1629 62.315 15.0933 62.6707 15.0933 63.096C15.0933 63.4993 15.1776 63.8513 15.3463 64.152C15.5149 64.4453 15.7533 64.6727 16.0613 64.834C16.3693 64.9953 16.7249 65.076 17.1283 65.076C17.4143 65.076 17.6783 65.0283 17.9203 64.933C18.1696 64.8377 18.4373 64.6653 18.7233 64.416L19.2953 65.219C19.1193 65.395 18.9029 65.549 18.6463 65.681C18.3969 65.813 18.1293 65.9193 17.8433 66C17.5646 66.0733 17.2896 66.11 17.0183 66.11ZM23.3346 66L26.3156 58.3H27.5256L30.4846 66H29.2196L27.4596 61.358C27.4376 61.3067 27.3936 61.182 27.3276 60.984C27.2689 60.786 27.1992 60.566 27.1186 60.324C27.0379 60.082 26.9646 59.862 26.8986 59.664C26.8326 59.4587 26.7886 59.3267 26.7666 59.268L27.0196 59.257C26.9756 59.3817 26.9206 59.5393 26.8546 59.73C26.7959 59.9207 26.7299 60.1223 26.6566 60.335C26.5906 60.5477 26.5246 60.7493 26.4586 60.94C26.3926 61.1233 26.3376 61.2773 26.2936 61.402L24.5446 66H23.3346ZM24.6546 64.086L25.0946 62.942H28.5926L29.0986 64.086H24.6546ZM31.5537 66V60.225H32.6977V62.04L32.5877 61.6C32.6684 61.3213 32.8041 61.0683 32.9947 60.841C33.1927 60.6137 33.4164 60.434 33.6657 60.302C33.9224 60.17 34.1864 60.104 34.4577 60.104C34.5824 60.104 34.6997 60.115 34.8097 60.137C34.9271 60.159 35.0187 60.1847 35.0847 60.214L34.7877 61.446C34.6997 61.4093 34.6007 61.38 34.4907 61.358C34.3881 61.3287 34.2854 61.314 34.1827 61.314C33.9847 61.314 33.7941 61.3543 33.6107 61.435C33.4347 61.5083 33.2771 61.6147 33.1377 61.754C33.0057 61.886 32.8994 62.0437 32.8187 62.227C32.7381 62.403 32.6977 62.5973 32.6977 62.81V66H31.5537ZM38.1962 66.11C37.6608 66.11 37.1805 65.978 36.7552 65.714C36.3372 65.45 36.0035 65.0907 35.7542 64.636C35.5122 64.1813 35.3912 63.6717 35.3912 63.107C35.3912 62.5423 35.5122 62.0327 35.7542 61.578C36.0035 61.1233 36.3372 60.764 36.7552 60.5C37.1805 60.236 37.6608 60.104 38.1962 60.104C38.7095 60.104 39.1752 60.2103 39.5932 60.423C40.0185 60.6283 40.3412 60.9107 40.5612 61.27L39.9342 62.04C39.8168 61.8713 39.6665 61.7173 39.4832 61.578C39.2998 61.4387 39.1055 61.3287 38.9002 61.248C38.6948 61.1673 38.4968 61.127 38.3062 61.127C37.9542 61.127 37.6388 61.215 37.3602 61.391C37.0888 61.5597 36.8725 61.7943 36.7112 62.095C36.5498 62.3957 36.4692 62.733 36.4692 63.107C36.4692 63.481 36.5535 63.8183 36.7222 64.119C36.8908 64.4123 37.1145 64.647 37.3932 64.823C37.6718 64.999 37.9798 65.087 38.3172 65.087C38.5152 65.087 38.7058 65.054 38.8892 64.988C39.0798 64.922 39.2632 64.823 39.4392 64.691C39.6152 64.559 39.7802 64.3977 39.9342 64.207L40.5612 64.977C40.3265 65.307 39.9892 65.5783 39.5492 65.791C39.1165 66.0037 38.6655 66.11 38.1962 66.11ZM41.6299 66V57.86H42.7629V61.413L42.5649 61.545C42.6382 61.2883 42.7812 61.0537 42.9939 60.841C43.2066 60.621 43.4596 60.445 43.7529 60.313C44.0462 60.1737 44.3469 60.104 44.6549 60.104C45.0949 60.104 45.4616 60.192 45.7549 60.368C46.0482 60.5367 46.2682 60.797 46.4149 61.149C46.5616 61.501 46.6349 61.9447 46.6349 62.48V66H45.5019V62.557C45.5019 62.227 45.4579 61.9557 45.3699 61.743C45.2819 61.523 45.1462 61.3653 44.9629 61.27C44.7796 61.1673 44.5522 61.1233 44.2809 61.138C44.0609 61.138 43.8592 61.1747 43.6759 61.248C43.4926 61.314 43.3312 61.4093 43.1919 61.534C43.0599 61.6587 42.9536 61.8053 42.8729 61.974C42.7996 62.1353 42.7629 62.3113 42.7629 62.502V66H42.2019C42.1066 66 42.0112 66 41.9159 66C41.8206 66 41.7252 66 41.6299 66ZM50.3939 66.11C49.9172 66.11 49.4809 65.978 49.0849 65.714C48.6962 65.45 48.3845 65.0907 48.1499 64.636C47.9152 64.1813 47.7979 63.668 47.7979 63.096C47.7979 62.5167 47.9152 62.0033 48.1499 61.556C48.3919 61.1013 48.7145 60.7457 49.1179 60.489C49.5285 60.2323 49.9869 60.104 50.4929 60.104C50.7935 60.104 51.0685 60.148 51.3179 60.236C51.5672 60.324 51.7835 60.4487 51.9669 60.61C52.1575 60.764 52.3115 60.9437 52.4289 61.149C52.5535 61.3543 52.6305 61.5743 52.6599 61.809L52.4069 61.721V60.225H53.5509V66H52.4069V64.625L52.6709 64.548C52.6269 64.746 52.5352 64.9403 52.3959 65.131C52.2639 65.3143 52.0915 65.4793 51.8789 65.626C51.6735 65.7727 51.4425 65.89 51.1859 65.978C50.9365 66.066 50.6725 66.11 50.3939 66.11ZM50.6909 65.065C51.0355 65.065 51.3399 64.9807 51.6039 64.812C51.8679 64.6433 52.0732 64.4123 52.2199 64.119C52.3739 63.8183 52.4509 63.4773 52.4509 63.096C52.4509 62.722 52.3739 62.3883 52.2199 62.095C52.0732 61.8017 51.8679 61.5707 51.6039 61.402C51.3399 61.2333 51.0355 61.149 50.6909 61.149C50.3535 61.149 50.0529 61.2333 49.7889 61.402C49.5322 61.5707 49.3269 61.8017 49.1729 62.095C49.0262 62.3883 48.9529 62.722 48.9529 63.096C48.9529 63.4773 49.0262 63.8183 49.1729 64.119C49.3269 64.4123 49.5322 64.6433 49.7889 64.812C50.0529 64.9807 50.3535 65.065 50.6909 65.065ZM55.1328 66V60.225H56.2658V61.413L56.0678 61.545C56.1412 61.2883 56.2842 61.0537 56.4968 60.841C56.7095 60.621 56.9625 60.445 57.2558 60.313C57.5492 60.1737 57.8498 60.104 58.1578 60.104C58.5978 60.104 58.9645 60.192 59.2578 60.368C59.5512 60.5367 59.7712 60.797 59.9178 61.149C60.0645 61.501 60.1378 61.9447 60.1378 62.48V66H59.0048V62.557C59.0048 62.227 58.9608 61.9557 58.8728 61.743C58.7848 61.523 58.6492 61.3653 58.4658 61.27C58.2825 61.1673 58.0552 61.1233 57.7838 61.138C57.5638 61.138 57.3622 61.1747 57.1788 61.248C56.9955 61.314 56.8342 61.4093 56.6948 61.534C56.5628 61.6587 56.4565 61.8053 56.3758 61.974C56.3025 62.1353 56.2658 62.3113 56.2658 62.502V66H55.7048C55.6095 66 55.5142 66 55.4188 66C55.3235 66 55.2282 66 55.1328 66ZM64.2598 68.53C63.8491 68.53 63.4385 68.464 63.0278 68.332C62.6245 68.2073 62.2981 68.0423 62.0488 67.837L62.4668 66.957C62.6135 67.067 62.7858 67.1623 62.9838 67.243C63.1818 67.331 63.3908 67.397 63.6108 67.441C63.8308 67.4923 64.0471 67.518 64.2598 67.518C64.6631 67.518 65.0005 67.452 65.2718 67.32C65.5431 67.188 65.7485 66.9937 65.8878 66.737C66.0271 66.4803 66.0968 66.1613 66.0968 65.78V64.669L66.2178 64.746C66.1811 64.9733 66.0601 65.1933 65.8548 65.406C65.6568 65.6113 65.4075 65.78 65.1068 65.912C64.8061 66.044 64.4981 66.11 64.1828 66.11C63.6328 66.11 63.1415 65.9817 62.7088 65.725C62.2835 65.461 61.9461 65.1053 61.6968 64.658C61.4475 64.2033 61.3228 63.6863 61.3228 63.107C61.3228 62.5277 61.4438 62.0143 61.6858 61.567C61.9351 61.1123 62.2725 60.7567 62.6978 60.5C63.1305 60.236 63.6145 60.104 64.1498 60.104C64.3698 60.104 64.5825 60.1333 64.7878 60.192C64.9931 60.2433 65.1838 60.3203 65.3598 60.423C65.5358 60.5183 65.6935 60.6247 65.8328 60.742C65.9721 60.8593 66.0858 60.984 66.1738 61.116C66.2618 61.248 66.3168 61.3727 66.3388 61.49L66.0968 61.578V60.225H67.2298V65.648C67.2298 66.11 67.1601 66.517 67.0208 66.869C66.8888 67.2283 66.6945 67.529 66.4378 67.771C66.1811 68.0203 65.8695 68.2073 65.5028 68.332C65.1361 68.464 64.7218 68.53 64.2598 68.53ZM64.3038 65.065C64.6631 65.065 64.9821 64.9807 65.2608 64.812C65.5395 64.6433 65.7558 64.4123 65.9098 64.119C66.0638 63.8257 66.1408 63.4883 66.1408 63.107C66.1408 62.7257 66.0601 62.3883 65.8988 62.095C65.7448 61.7943 65.5285 61.5597 65.2498 61.391C64.9785 61.2223 64.6631 61.138 64.3038 61.138C63.9518 61.138 63.6365 61.226 63.3578 61.402C63.0865 61.5707 62.8701 61.8053 62.7088 62.106C62.5548 62.3993 62.4778 62.733 62.4778 63.107C62.4778 63.481 62.5548 63.8183 62.7088 64.119C62.8701 64.4123 63.0865 64.6433 63.3578 64.812C63.6365 64.9807 63.9518 65.065 64.3038 65.065ZM71.5134 66.11C70.9194 66.11 70.3914 65.9853 69.9294 65.736C69.4747 65.4793 69.1154 65.131 68.8514 64.691C68.5947 64.251 68.4664 63.745 68.4664 63.173C68.4664 62.7183 68.5397 62.304 68.6864 61.93C68.833 61.556 69.0347 61.2333 69.2914 60.962C69.5554 60.6833 69.867 60.4707 70.2264 60.324C70.593 60.17 70.989 60.093 71.4144 60.093C71.7884 60.093 72.1367 60.1663 72.4594 60.313C72.782 60.4523 73.0607 60.6467 73.2954 60.896C73.5374 61.1453 73.7207 61.4423 73.8454 61.787C73.9774 62.1243 74.0397 62.4947 74.0324 62.898L74.0214 63.382H69.3024L69.0494 62.48H73.0424L72.8774 62.667V62.403C72.8554 62.161 72.7747 61.9447 72.6354 61.754C72.496 61.5633 72.32 61.413 72.1074 61.303C71.8947 61.193 71.6637 61.138 71.4144 61.138C71.0184 61.138 70.6847 61.215 70.4134 61.369C70.142 61.5157 69.9367 61.7357 69.7974 62.029C69.658 62.315 69.5884 62.6707 69.5884 63.096C69.5884 63.4993 69.6727 63.8513 69.8414 64.152C70.01 64.4453 70.2484 64.6727 70.5564 64.834C70.8644 64.9953 71.22 65.076 71.6234 65.076C71.9094 65.076 72.1734 65.0283 72.4154 64.933C72.6647 64.8377 72.9324 64.6653 73.2184 64.416L73.7904 65.219C73.6144 65.395 73.398 65.549 73.1414 65.681C72.892 65.813 72.6244 65.9193 72.3384 66C72.0597 66.0733 71.7847 66.11 71.5134 66.11ZM75.2857 66V57.86H76.4187V66H75.2857Z" fill="black"/>
<path d="M29 22.5C35.5 24.5 41.5 24.5 48 22.5C41.5 19.5 35.5 19.5 29 22.5Z" fill="#949494"/>
<path d="M29 22.5L32 15C37 13.5 40 13.5 45 15L48 22.5C41.5 19.5 35.5 19.5 29 22.5Z" fill="#B0B0B0"/>
<path d="M32.001 14.726C32.0678 5.48065 35.5194 4.49515 37.5 4L37.9621 2.15149C37.9844 2.06246 38.0644 2 38.1562 2H38.8438C38.9356 2 39.0156 2.06246 39.0379 2.15149L39.5 4C41.4806 4.49515 44.9322 5.48065 44.999 14.726C45 14.8599 44.8693 14.9608 44.7407 14.923C39.9808 13.5257 37.0192 13.5257 32.2593 14.923C32.1307 14.9608 32 14.8599 32.001 14.726Z" fill="#D1D1D1"/>
<path d="M32 15L29.0806 22.2984C29.0372 22.407 29.0964 22.5297 29.2083 22.5635C35.559 24.4788 41.441 24.4788 47.7917 22.5635C47.9036 22.5297 47.9628 22.407 47.9194 22.2984L45 15M32 15C32 5.53695 35.4728 4.50791 37.4766 4.00586C37.4925 4.00188 37.5083 4 37.5246 4H39.4754C39.4917 4 39.5075 4.00188 39.5234 4.00586C41.5272 4.50791 45 5.53695 45 15M32 15C37 13.5 40 13.5 45 15" stroke="#484848"/>
<path d="M38.3536 23H38.5H38.6464C38.8728 23 39.0899 23.0899 39.25 23.25C39.4101 23.4101 39.5 23.6272 39.5 23.8536V25.1464C39.5 25.3728 39.4101 25.5899 39.25 25.75C39.0899 25.9101 38.8728 26 38.6464 26H38.3536C38.1272 26 37.9101 25.9101 37.75 25.75C37.5899 25.5899 37.5 25.3728 37.5 25.1464V23.8536C37.5 23.6272 37.5899 23.4101 37.75 23.25C37.9101 23.0899 38.1272 23 38.3536 23Z" fill="black"/>
<path d="M38.5 20.25V23M38.5 23H38.3536C38.1272 23 37.9101 23.0899 37.75 23.25V23.25C37.5899 23.4101 37.5 23.6272 37.5 23.8536V25.1464C37.5 25.3728 37.5899 25.5899 37.75 25.75V25.75C37.9101 25.9101 38.1272 26 38.3536 26H38.6464C38.8728 26 39.0899 25.9101 39.25 25.75V25.75C39.4101 25.5899 39.5 25.3728 39.5 25.1464V23.8536C39.5 23.6272 39.4101 23.4101 39.25 23.25V23.25C39.0899 23.0899 38.8728 23 38.6464 23H38.5Z" stroke="#010101"/>
<path d="M32 15L29.1865 22.0336C29.1194 22.2016 29.2932 22.366 29.4586 22.2929C35.6304 19.569 41.3696 19.569 47.5414 22.2929C47.7068 22.366 47.8806 22.2016 47.8135 22.0336L45 15M32 15C32 5.5 35.5 4.5 37.5 4M32 15C37 13.5 40 13.5 45 15M45 15C45 5.5 41.5 4.5 39.5 4M39.5 4H37.5M39.5 4L39.0379 2.15149C39.0156 2.06246 38.9356 2 38.8438 2H38.1562C38.0644 2 37.9844 2.06246 37.9621 2.15149L37.5 4" stroke="#484848"/>
</svg>
