<svg width="74" height="55" viewBox="0 0 74 55" fill="none" xmlns="http://www.w3.org/2000/svg">
<path d="M15.3177 11V3.3H17.1877V11H15.3177ZM10.5437 11V3.3H12.4137V11H10.5437ZM11.2697 7.997L11.2807 6.325H16.3077V7.997H11.2697ZM20.9199 11.121C20.4873 11.121 20.1169 11.0293 19.8089 10.846C19.5083 10.6553 19.2736 10.384 19.1049 10.032C18.9436 9.68 18.8629 9.25833 18.8629 8.767V5.159H20.6339V8.525C20.6339 8.75967 20.6706 8.96133 20.7439 9.13C20.8173 9.29867 20.9273 9.43067 21.0739 9.526C21.2206 9.614 21.3966 9.658 21.6019 9.658C21.7559 9.658 21.8953 9.63233 22.0199 9.581C22.1519 9.52967 22.2619 9.46 22.3499 9.372C22.4453 9.27667 22.5186 9.17033 22.5699 9.053C22.6213 8.92833 22.6469 8.79267 22.6469 8.646V5.159H24.4179V11H22.7569L22.6799 9.801L23.0099 9.669C22.9219 9.94767 22.7753 10.197 22.5699 10.417C22.3646 10.6297 22.1189 10.802 21.8329 10.934C21.5469 11.0587 21.2426 11.121 20.9199 11.121ZM25.9866 11V5.159H27.6586L27.7136 6.347L27.3616 6.479C27.4422 6.215 27.5852 5.97667 27.7906 5.764C28.0032 5.544 28.2562 5.368 28.5496 5.236C28.8429 5.104 29.1509 5.038 29.4736 5.038C29.9136 5.038 30.2839 5.12967 30.5846 5.313C30.8852 5.489 31.1126 5.75667 31.2666 6.116C31.4206 6.468 31.4976 6.90067 31.4976 7.414V11H29.7266V7.557C29.7266 7.32233 29.6936 7.128 29.6276 6.974C29.5616 6.82 29.4589 6.70633 29.3196 6.633C29.1876 6.55233 29.0226 6.51567 28.8246 6.523C28.6706 6.523 28.5276 6.54867 28.3956 6.6C28.2636 6.644 28.1499 6.71367 28.0546 6.809C27.9592 6.897 27.8822 6.99967 27.8236 7.117C27.7722 7.23433 27.7466 7.36267 27.7466 7.502V11H26.8776C26.6722 11 26.4962 11 26.3496 11C26.2029 11 26.0819 11 25.9866 11ZM33.453 11V3.685H35.213V11H33.453ZM32.419 6.699V5.159H36.346V6.699H32.419ZM39.5356 11.11C38.9636 11.11 38.4576 11.0183 38.0176 10.835C37.585 10.6517 37.2403 10.406 36.9836 10.098L38.0506 9.174C38.278 9.40133 38.5346 9.57 38.8206 9.68C39.1066 9.78267 39.378 9.834 39.6346 9.834C39.7373 9.834 39.829 9.823 39.9096 9.801C39.9903 9.779 40.0563 9.74967 40.1076 9.713C40.1663 9.669 40.2103 9.62133 40.2396 9.57C40.269 9.51133 40.2836 9.44533 40.2836 9.372C40.2836 9.22533 40.2176 9.11167 40.0856 9.031C40.0196 8.99433 39.9096 8.95033 39.7556 8.899C39.6016 8.84767 39.4036 8.789 39.1616 8.723C38.817 8.635 38.5163 8.53233 38.2596 8.415C38.0103 8.29033 37.805 8.14733 37.6436 7.986C37.497 7.832 37.3833 7.66333 37.3026 7.48C37.222 7.28933 37.1816 7.07667 37.1816 6.842C37.1816 6.57067 37.244 6.325 37.3686 6.105C37.5006 5.885 37.673 5.69433 37.8856 5.533C38.1056 5.37167 38.355 5.25067 38.6336 5.17C38.9196 5.082 39.213 5.038 39.5136 5.038C39.8363 5.038 40.1443 5.07467 40.4376 5.148C40.731 5.22133 41.0023 5.324 41.2516 5.456C41.5083 5.588 41.7356 5.74567 41.9336 5.929L41.0096 6.963C40.8776 6.83833 40.7273 6.72833 40.5586 6.633C40.3973 6.53033 40.2286 6.44967 40.0526 6.391C39.8766 6.33233 39.7153 6.303 39.5686 6.303C39.4586 6.303 39.3596 6.314 39.2716 6.336C39.191 6.35067 39.1213 6.38 39.0626 6.424C39.004 6.46067 38.96 6.50833 38.9306 6.567C38.9013 6.61833 38.8866 6.68067 38.8866 6.754C38.8866 6.82733 38.905 6.897 38.9416 6.963C38.9856 7.029 39.0443 7.084 39.1176 7.128C39.191 7.172 39.3083 7.22333 39.4696 7.282C39.631 7.33333 39.851 7.39933 40.1296 7.48C40.4743 7.57533 40.7713 7.68167 41.0206 7.799C41.27 7.91633 41.468 8.05567 41.6146 8.217C41.732 8.34167 41.82 8.48833 41.8786 8.657C41.9373 8.81833 41.9666 8.99433 41.9666 9.185C41.9666 9.559 41.8603 9.89267 41.6476 10.186C41.4423 10.472 41.1563 10.6993 40.7896 10.868C40.423 11.0293 40.005 11.11 39.5356 11.11ZM44.8059 11L42.3639 5.159H44.3109L45.7629 9.526L45.3339 9.57L46.8299 5.159H48.7549L46.1919 11H44.8059ZM49.7721 11V5.159H51.5321V11H49.7721ZM50.6521 4.004C50.3221 4.004 50.0618 3.927 49.8711 3.773C49.6878 3.61167 49.5961 3.38433 49.5961 3.091C49.5961 2.827 49.6914 2.61067 49.8821 2.442C50.0728 2.27333 50.3294 2.189 50.6521 2.189C50.9821 2.189 51.2388 2.26967 51.4221 2.431C51.6054 2.585 51.6971 2.805 51.6971 3.091C51.6971 3.36233 51.6018 3.58233 51.4111 3.751C51.2278 3.91967 50.9748 4.004 50.6521 4.004ZM53.1968 11V2.86H54.9568V11H53.1968ZM56.5376 11V2.86H58.2976V11H56.5376ZM62.543 11.11C61.8977 11.11 61.3367 10.9817 60.86 10.725C60.3833 10.461 60.013 10.1053 59.749 9.658C59.485 9.20333 59.353 8.68633 59.353 8.107C59.353 7.65967 59.4263 7.249 59.573 6.875C59.7197 6.501 59.925 6.17833 60.189 5.907C60.453 5.62833 60.7647 5.41567 61.124 5.269C61.4907 5.115 61.8903 5.038 62.323 5.038C62.7337 5.038 63.1077 5.11133 63.445 5.258C63.7897 5.40467 64.0867 5.61 64.336 5.874C64.5853 6.138 64.776 6.44967 64.908 6.809C65.04 7.16833 65.0987 7.56067 65.084 7.986L65.073 8.459H60.42L60.167 7.469H63.643L63.456 7.678V7.458C63.4413 7.27467 63.3827 7.11333 63.28 6.974C63.1847 6.82733 63.0563 6.71367 62.895 6.633C62.7337 6.55233 62.5503 6.512 62.345 6.512C62.059 6.512 61.8133 6.57067 61.608 6.688C61.41 6.798 61.2597 6.963 61.157 7.183C61.0543 7.39567 61.003 7.65967 61.003 7.975C61.003 8.29767 61.069 8.58 61.201 8.822C61.3403 9.05667 61.5383 9.24 61.795 9.372C62.059 9.504 62.3707 9.57 62.73 9.57C62.9793 9.57 63.1993 9.53333 63.39 9.46C63.588 9.38667 63.8007 9.262 64.028 9.086L64.853 10.252C64.6257 10.45 64.3837 10.6113 64.127 10.736C63.8703 10.8607 63.6063 10.9523 63.335 11.011C63.071 11.077 62.807 11.11 62.543 11.11ZM9.84463 25.11C9.42663 25.11 9.03796 25.055 8.67863 24.945C8.32663 24.835 8.00396 24.67 7.71063 24.45C7.42463 24.2227 7.16796 23.944 6.94063 23.614L7.75463 22.679C8.11396 23.1923 8.45863 23.548 8.78863 23.746C9.11863 23.944 9.51096 24.043 9.96563 24.043C10.2443 24.043 10.4973 23.999 10.7246 23.911C10.952 23.823 11.1316 23.702 11.2636 23.548C11.3956 23.394 11.4616 23.218 11.4616 23.02C11.4616 22.888 11.4396 22.7633 11.3956 22.646C11.3516 22.5287 11.282 22.4223 11.1866 22.327C11.0986 22.2317 10.9813 22.1437 10.8346 22.063C10.6953 21.9823 10.5303 21.9127 10.3396 21.854C10.149 21.788 9.92896 21.733 9.67963 21.689C9.28363 21.6083 8.93896 21.502 8.64563 21.37C8.35229 21.238 8.10663 21.073 7.90863 20.875C7.71063 20.677 7.56396 20.4533 7.46863 20.204C7.37329 19.9473 7.32563 19.6613 7.32563 19.346C7.32563 19.038 7.39163 18.752 7.52363 18.488C7.66296 18.224 7.84996 17.9967 8.08463 17.806C8.32663 17.608 8.60896 17.4577 8.93163 17.355C9.25429 17.245 9.60263 17.19 9.97663 17.19C10.3726 17.19 10.7356 17.2413 11.0656 17.344C11.3956 17.4467 11.689 17.6007 11.9456 17.806C12.2023 18.004 12.415 18.2497 12.5836 18.543L11.7476 19.368C11.601 19.126 11.436 18.9243 11.2526 18.763C11.0693 18.5943 10.8676 18.4697 10.6476 18.389C10.4276 18.301 10.193 18.257 9.94363 18.257C9.65763 18.257 9.40829 18.301 9.19563 18.389C8.98296 18.477 8.81429 18.6017 8.68963 18.763C8.57229 18.917 8.51363 19.1003 8.51363 19.313C8.51363 19.467 8.54296 19.61 8.60163 19.742C8.66029 19.8667 8.74829 19.9803 8.86563 20.083C8.99029 20.1783 9.15529 20.2663 9.36063 20.347C9.56596 20.4203 9.81163 20.4863 10.0976 20.545C10.501 20.633 10.8603 20.7467 11.1756 20.886C11.491 21.018 11.7586 21.1757 11.9786 21.359C12.1986 21.5423 12.3636 21.7477 12.4736 21.975C12.591 22.2023 12.6496 22.448 12.6496 22.712C12.6496 23.2033 12.536 23.6287 12.3086 23.988C12.0813 24.3473 11.7586 24.626 11.3406 24.824C10.9226 25.0147 10.424 25.11 9.84463 25.11ZM14.7619 25V17.751H15.8949V25H14.7619ZM13.5629 20.325V19.225H17.2369V20.325H13.5629ZM18.7306 25.121C18.4886 25.121 18.3016 25.0513 18.1696 24.912C18.0376 24.7653 17.9716 24.56 17.9716 24.296C17.9716 24.054 18.0412 23.856 18.1806 23.702C18.3199 23.548 18.5032 23.471 18.7306 23.471C18.9726 23.471 19.1596 23.5443 19.2916 23.691C19.4236 23.8303 19.4896 24.032 19.4896 24.296C19.4896 24.538 19.4199 24.736 19.2806 24.89C19.1412 25.044 18.9579 25.121 18.7306 25.121ZM24.1405 25V17.3H25.3285V25H24.1405ZM24.6685 21.722V20.578H28.6395V21.722H24.6685ZM24.6685 18.444V17.3H29.1345V18.444H24.6685ZM30.4937 25V16.86H31.6267V25H30.4937ZM35.721 25.11C35.1563 25.11 34.6503 24.9817 34.203 24.725C33.763 24.461 33.4147 24.1053 33.158 23.658C32.9013 23.2033 32.773 22.6863 32.773 22.107C32.773 21.5277 32.9013 21.0143 33.158 20.567C33.4147 20.1123 33.763 19.7567 34.203 19.5C34.6503 19.236 35.1563 19.104 35.721 19.104C36.2783 19.104 36.777 19.236 37.217 19.5C37.6643 19.7567 38.0163 20.1123 38.273 20.567C38.5297 21.0143 38.658 21.5277 38.658 22.107C38.658 22.6863 38.5297 23.2033 38.273 23.658C38.0163 24.1053 37.6643 24.461 37.217 24.725C36.777 24.9817 36.2783 25.11 35.721 25.11ZM35.721 24.076C36.0657 24.076 36.3737 23.9917 36.645 23.823C36.9163 23.647 37.129 23.4123 37.283 23.119C37.437 22.8183 37.5103 22.481 37.503 22.107C37.5103 21.7257 37.437 21.3883 37.283 21.095C37.129 20.7943 36.9163 20.5597 36.645 20.391C36.3737 20.2223 36.0657 20.138 35.721 20.138C35.3763 20.138 35.0647 20.226 34.786 20.402C34.5147 20.5707 34.302 20.8053 34.148 21.106C33.994 21.3993 33.9207 21.733 33.928 22.107C33.9207 22.481 33.994 22.8183 34.148 23.119C34.302 23.4123 34.5147 23.647 34.786 23.823C35.0647 23.9917 35.3763 24.076 35.721 24.076ZM39.8926 25V19.225H41.0366V21.04L40.9266 20.6C41.0073 20.3213 41.1429 20.0683 41.3336 19.841C41.5316 19.6137 41.7553 19.434 42.0046 19.302C42.2613 19.17 42.5253 19.104 42.7966 19.104C42.9213 19.104 43.0386 19.115 43.1486 19.137C43.2659 19.159 43.3576 19.1847 43.4236 19.214L43.1266 20.446C43.0386 20.4093 42.9396 20.38 42.8296 20.358C42.7269 20.3287 42.6243 20.314 42.5216 20.314C42.3236 20.314 42.1329 20.3543 41.9496 20.435C41.7736 20.5083 41.6159 20.6147 41.4766 20.754C41.3446 20.886 41.2383 21.0437 41.1576 21.227C41.0769 21.403 41.0366 21.5973 41.0366 21.81V25H39.8926ZM46.777 25.11C46.183 25.11 45.655 24.9853 45.193 24.736C44.7384 24.4793 44.379 24.131 44.115 23.691C43.8584 23.251 43.73 22.745 43.73 22.173C43.73 21.7183 43.8034 21.304 43.95 20.93C44.0967 20.556 44.2984 20.2333 44.555 19.962C44.819 19.6833 45.1307 19.4707 45.49 19.324C45.8567 19.17 46.2527 19.093 46.678 19.093C47.052 19.093 47.4004 19.1663 47.723 19.313C48.0457 19.4523 48.3244 19.6467 48.559 19.896C48.801 20.1453 48.9844 20.4423 49.109 20.787C49.241 21.1243 49.3034 21.4947 49.296 21.898L49.285 22.382H44.566L44.313 21.48H48.306L48.141 21.667V21.403C48.119 21.161 48.0384 20.9447 47.899 20.754C47.7597 20.5633 47.5837 20.413 47.371 20.303C47.1584 20.193 46.9274 20.138 46.678 20.138C46.282 20.138 45.9484 20.215 45.677 20.369C45.4057 20.5157 45.2004 20.7357 45.061 21.029C44.9217 21.315 44.852 21.6707 44.852 22.096C44.852 22.4993 44.9364 22.8513 45.105 23.152C45.2737 23.4453 45.512 23.6727 45.82 23.834C46.128 23.9953 46.4837 24.076 46.887 24.076C47.173 24.076 47.437 24.0283 47.679 23.933C47.9284 23.8377 48.196 23.6653 48.482 23.416L49.054 24.219C48.878 24.395 48.6617 24.549 48.405 24.681C48.1557 24.813 47.888 24.9193 47.602 25C47.3234 25.0733 47.0484 25.11 46.777 25.11ZM50.5274 25V19.225H51.6604V20.413L51.4624 20.545C51.5357 20.2883 51.6787 20.0537 51.8914 19.841C52.104 19.621 52.357 19.445 52.6504 19.313C52.9437 19.1737 53.2444 19.104 53.5524 19.104C53.9924 19.104 54.359 19.192 54.6524 19.368C54.9457 19.5367 55.1657 19.797 55.3124 20.149C55.459 20.501 55.5324 20.9447 55.5324 21.48V25H54.3994V21.557C54.3994 21.227 54.3554 20.9557 54.2674 20.743C54.1794 20.523 54.0437 20.3653 53.8604 20.27C53.677 20.1673 53.4497 20.1233 53.1784 20.138C52.9584 20.138 52.7567 20.1747 52.5734 20.248C52.39 20.314 52.2287 20.4093 52.0894 20.534C51.9574 20.6587 51.851 20.8053 51.7704 20.974C51.697 21.1353 51.6604 21.3113 51.6604 21.502V25H51.0994C51.004 25 50.9087 25 50.8134 25C50.718 25 50.6227 25 50.5274 25ZM59.5223 25.11C58.987 25.11 58.5067 24.978 58.0813 24.714C57.6633 24.45 57.3297 24.0907 57.0803 23.636C56.8383 23.1813 56.7173 22.6717 56.7173 22.107C56.7173 21.5423 56.8383 21.0327 57.0803 20.578C57.3297 20.1233 57.6633 19.764 58.0813 19.5C58.5067 19.236 58.987 19.104 59.5223 19.104C60.0357 19.104 60.5013 19.2103 60.9193 19.423C61.3447 19.6283 61.6673 19.9107 61.8873 20.27L61.2603 21.04C61.143 20.8713 60.9927 20.7173 60.8093 20.578C60.626 20.4387 60.4317 20.3287 60.2263 20.248C60.021 20.1673 59.823 20.127 59.6323 20.127C59.2803 20.127 58.965 20.215 58.6863 20.391C58.415 20.5597 58.1987 20.7943 58.0373 21.095C57.876 21.3957 57.7953 21.733 57.7953 22.107C57.7953 22.481 57.8797 22.8183 58.0483 23.119C58.217 23.4123 58.4407 23.647 58.7193 23.823C58.998 23.999 59.306 24.087 59.6433 24.087C59.8413 24.087 60.032 24.054 60.2153 23.988C60.406 23.922 60.5893 23.823 60.7653 23.691C60.9413 23.559 61.1063 23.3977 61.2603 23.207L61.8873 23.977C61.6527 24.307 61.3153 24.5783 60.8753 24.791C60.4427 25.0037 59.9917 25.11 59.5223 25.11ZM65.6511 25.11C65.0571 25.11 64.5291 24.9853 64.0671 24.736C63.6124 24.4793 63.2531 24.131 62.9891 23.691C62.7324 23.251 62.6041 22.745 62.6041 22.173C62.6041 21.7183 62.6774 21.304 62.8241 20.93C62.9707 20.556 63.1724 20.2333 63.4291 19.962C63.6931 19.6833 64.0047 19.4707 64.3641 19.324C64.7307 19.17 65.1267 19.093 65.5521 19.093C65.9261 19.093 66.2744 19.1663 66.5971 19.313C66.9197 19.4523 67.1984 19.6467 67.4331 19.896C67.6751 20.1453 67.8584 20.4423 67.9831 20.787C68.1151 21.1243 68.1774 21.4947 68.1701 21.898L68.1591 22.382H63.4401L63.1871 21.48H67.1801L67.0151 21.667V21.403C66.9931 21.161 66.9124 20.9447 66.7731 20.754C66.6337 20.5633 66.4577 20.413 66.2451 20.303C66.0324 20.193 65.8014 20.138 65.5521 20.138C65.1561 20.138 64.8224 20.215 64.5511 20.369C64.2797 20.5157 64.0744 20.7357 63.9351 21.029C63.7957 21.315 63.7261 21.6707 63.7261 22.096C63.7261 22.4993 63.8104 22.8513 63.9791 23.152C64.1477 23.4453 64.3861 23.6727 64.6941 23.834C65.0021 23.9953 65.3577 24.076 65.7611 24.076C66.0471 24.076 66.3111 24.0283 66.5531 23.933C66.8024 23.8377 67.0701 23.6653 67.3561 23.416L67.9281 24.219C67.7521 24.395 67.5357 24.549 67.2791 24.681C67.0297 24.813 66.7621 24.9193 66.4761 25C66.1974 25.0733 65.9224 25.11 65.6511 25.11Z" fill="black"/>
<path d="M3 48.5C9.5 50.5 15.5 50.5 22 48.5C15.5 45.5 9.5 45.5 3 48.5Z" fill="#949494"/>
<path d="M3 48.5L6 41C11 39.5 14 39.5 19 41L22 48.5C15.5 45.5 9.5 45.5 3 48.5Z" fill="#B0B0B0"/>
<path d="M6.00098 40.726C6.06776 31.4806 9.5194 30.4952 11.5 30L11.9621 28.1515C11.9844 28.0625 12.0644 28 12.1562 28H12.8438C12.9356 28 13.0156 28.0625 13.0379 28.1515L13.5 30C15.4806 30.4952 18.9322 31.4806 18.999 40.726C19 40.8599 18.8693 40.9608 18.7407 40.923C13.9808 39.5257 11.0192 39.5257 6.25927 40.923C6.13073 40.9608 6.00002 40.8599 6.00098 40.726Z" fill="#D1D1D1"/>
<path d="M6 41L3.08063 48.2984C3.03721 48.407 3.09641 48.5297 3.20835 48.5635C9.55898 50.4788 15.441 50.4788 21.7917 48.5635C21.9036 48.5297 21.9628 48.407 21.9194 48.2984L19 41M6 41C6 31.537 9.47282 30.5079 11.4766 30.0059C11.4925 30.0019 11.5083 30 11.5246 30H13.4754C13.4917 30 13.5075 30.0019 13.5234 30.0059C15.5272 30.5079 19 31.537 19 41M6 41C11 39.5 14 39.5 19 41" stroke="#484848"/>
<path d="M12.3536 49H12.5H12.6464C12.8728 49 13.0899 49.0899 13.25 49.25C13.4101 49.4101 13.5 49.6272 13.5 49.8536V51.1464C13.5 51.3728 13.4101 51.5899 13.25 51.75C13.0899 51.9101 12.8728 52 12.6464 52H12.3536C12.1272 52 11.9101 51.9101 11.75 51.75C11.5899 51.5899 11.5 51.3728 11.5 51.1464V49.8536C11.5 49.6272 11.5899 49.4101 11.75 49.25C11.9101 49.0899 12.1272 49 12.3536 49Z" fill="black"/>
<path d="M12.5 46.25V49M12.5 49H12.3536C12.1272 49 11.9101 49.0899 11.75 49.25V49.25C11.5899 49.4101 11.5 49.6272 11.5 49.8536V51.1464C11.5 51.3728 11.5899 51.5899 11.75 51.75V51.75C11.9101 51.9101 12.1272 52 12.3536 52H12.6464C12.8728 52 13.0899 51.9101 13.25 51.75V51.75C13.4101 51.5899 13.5 51.3728 13.5 51.1464V49.8536C13.5 49.6272 13.4101 49.4101 13.25 49.25V49.25C13.0899 49.0899 12.8728 49 12.6464 49H12.5Z" stroke="#010101"/>
<path d="M6 41L3.18654 48.0336C3.11938 48.2016 3.29316 48.366 3.45861 48.2929C9.6304 45.569 15.3696 45.569 21.5414 48.2929C21.7068 48.366 21.8806 48.2016 21.8135 48.0336L19 41M6 41C6 31.5 9.5 30.5 11.5 30M6 41C11 39.5 14 39.5 19 41M19 41C19 31.5 15.5 30.5 13.5 30M13.5 30H11.5M13.5 30L13.0379 28.1515C13.0156 28.0625 12.9356 28 12.8438 28H12.1562C12.0644 28 11.9844 28.0625 11.9621 28.1515L11.5 30" stroke="#484848"/>
</svg>
