<svg width="63" height="49" viewBox="0 0 63 49" fill="none" xmlns="http://www.w3.org/2000/svg">
<path d="M21.0415 30V22.3H22.2295V30H21.0415ZM16.0145 30V22.3H17.2025V30H16.0145ZM16.5315 26.733V25.589H21.5695V26.733H16.5315ZM26.6927 30.11C26.128 30.11 25.622 29.9817 25.1747 29.725C24.7347 29.461 24.3864 29.1053 24.1297 28.658C23.873 28.2033 23.7447 27.6863 23.7447 27.107C23.7447 26.5277 23.873 26.0143 24.1297 25.567C24.3864 25.1123 24.7347 24.7567 25.1747 24.5C25.622 24.236 26.128 24.104 26.6927 24.104C27.25 24.104 27.7487 24.236 28.1887 24.5C28.636 24.7567 28.988 25.1123 29.2447 25.567C29.5014 26.0143 29.6297 26.5277 29.6297 27.107C29.6297 27.6863 29.5014 28.2033 29.2447 28.658C28.988 29.1053 28.636 29.461 28.1887 29.725C27.7487 29.9817 27.25 30.11 26.6927 30.11ZM26.6927 29.076C27.0374 29.076 27.3454 28.9917 27.6167 28.823C27.888 28.647 28.1007 28.4123 28.2547 28.119C28.4087 27.8183 28.482 27.481 28.4747 27.107C28.482 26.7257 28.4087 26.3883 28.2547 26.095C28.1007 25.7943 27.888 25.5597 27.6167 25.391C27.3454 25.2223 27.0374 25.138 26.6927 25.138C26.348 25.138 26.0364 25.226 25.7577 25.402C25.4864 25.5707 25.2737 25.8053 25.1197 26.106C24.9657 26.3993 24.8924 26.733 24.8997 27.107C24.8924 27.481 24.9657 27.8183 25.1197 28.119C25.2737 28.4123 25.4864 28.647 25.7577 28.823C26.0364 28.9917 26.348 29.076 26.6927 29.076ZM30.8863 30V21.86H32.0193V30H30.8863ZM34.4319 32.53L35.5979 29.835L35.6089 30.737L32.7269 24.225H34.0469L35.8509 28.471C35.8875 28.5443 35.9315 28.658 35.9829 28.812C36.0342 28.9587 36.0782 29.1053 36.1149 29.252L35.8289 29.318C35.8875 29.164 35.9425 29.01 35.9939 28.856C36.0525 28.702 36.1075 28.548 36.1589 28.394L37.6659 24.225H39.0079L36.6319 30L35.6529 32.53H34.4319ZM10.2782 44V36.3H11.4662V44H10.2782ZM10.8062 40.722V39.578H14.7772V40.722H10.8062ZM10.8062 37.444V36.3H15.2722V37.444H10.8062ZM18.6703 44.11C18.1936 44.11 17.7573 43.978 17.3613 43.714C16.9726 43.45 16.6609 43.0907 16.4263 42.636C16.1916 42.1813 16.0743 41.668 16.0743 41.096C16.0743 40.5167 16.1916 40.0033 16.4263 39.556C16.6683 39.1013 16.9909 38.7457 17.3943 38.489C17.8049 38.2323 18.2633 38.104 18.7693 38.104C19.0699 38.104 19.3449 38.148 19.5943 38.236C19.8436 38.324 20.0599 38.4487 20.2433 38.61C20.4339 38.764 20.5879 38.9437 20.7053 39.149C20.8299 39.3543 20.9069 39.5743 20.9363 39.809L20.6833 39.721V38.225H21.8273V44H20.6833V42.625L20.9473 42.548C20.9033 42.746 20.8116 42.9403 20.6723 43.131C20.5403 43.3143 20.3679 43.4793 20.1553 43.626C19.9499 43.7727 19.7189 43.89 19.4623 43.978C19.2129 44.066 18.9489 44.11 18.6703 44.11ZM18.9673 43.065C19.3119 43.065 19.6163 42.9807 19.8803 42.812C20.1443 42.6433 20.3496 42.4123 20.4963 42.119C20.6503 41.8183 20.7273 41.4773 20.7273 41.096C20.7273 40.722 20.6503 40.3883 20.4963 40.095C20.3496 39.8017 20.1443 39.5707 19.8803 39.402C19.6163 39.2333 19.3119 39.149 18.9673 39.149C18.6299 39.149 18.3293 39.2333 18.0653 39.402C17.8086 39.5707 17.6033 39.8017 17.4493 40.095C17.3026 40.3883 17.2293 40.722 17.2293 41.096C17.2293 41.4773 17.3026 41.8183 17.4493 42.119C17.6033 42.4123 17.8086 42.6433 18.0653 42.812C18.3293 42.9807 18.6299 43.065 18.9673 43.065ZM23.3872 44V38.225H24.5312V39.457L24.3222 39.589C24.3809 39.3983 24.4725 39.215 24.5972 39.039C24.7292 38.863 24.8869 38.709 25.0702 38.577C25.2609 38.4377 25.4625 38.3277 25.6752 38.247C25.8952 38.1663 26.1189 38.126 26.3462 38.126C26.6762 38.126 26.9659 38.181 27.2152 38.291C27.4645 38.401 27.6699 38.566 27.8312 38.786C27.9925 39.006 28.1099 39.281 28.1832 39.611L28.0072 39.567L28.0842 39.38C28.1649 39.2113 28.2749 39.0537 28.4142 38.907C28.5609 38.753 28.7259 38.6173 28.9092 38.5C29.0925 38.3827 29.2869 38.291 29.4922 38.225C29.6975 38.159 29.8992 38.126 30.0972 38.126C30.5299 38.126 30.8855 38.214 31.1642 38.39C31.4502 38.566 31.6629 38.8337 31.8022 39.193C31.9489 39.5523 32.0222 39.9997 32.0222 40.535V44H30.8782V40.601C30.8782 40.271 30.8342 40.0033 30.7462 39.798C30.6655 39.5853 30.5409 39.4277 30.3722 39.325C30.2035 39.2223 29.9872 39.171 29.7232 39.171C29.5179 39.171 29.3235 39.2077 29.1402 39.281C28.9642 39.347 28.8102 39.4423 28.6782 39.567C28.5462 39.6917 28.4435 39.8383 28.3702 40.007C28.2969 40.1683 28.2602 40.348 28.2602 40.546V44H27.1162V40.579C27.1162 40.2783 27.0722 40.0253 26.9842 39.82C26.8962 39.6073 26.7679 39.446 26.5992 39.336C26.4305 39.226 26.2252 39.171 25.9832 39.171C25.7779 39.171 25.5872 39.2077 25.4112 39.281C25.2352 39.347 25.0812 39.4423 24.9492 39.567C24.8172 39.6843 24.7145 39.8273 24.6412 39.996C24.5679 40.1573 24.5312 40.3333 24.5312 40.524V44H23.3872ZM33.7261 44V38.225H34.8591V44H33.7261ZM34.2761 36.949C34.0341 36.949 33.8471 36.8867 33.7151 36.762C33.5831 36.6373 33.5171 36.4613 33.5171 36.234C33.5171 36.0213 33.5831 35.849 33.7151 35.717C33.8544 35.585 34.0414 35.519 34.2761 35.519C34.5181 35.519 34.7051 35.5813 34.8371 35.706C34.9691 35.8307 35.0351 36.0067 35.0351 36.234C35.0351 36.4467 34.9654 36.619 34.8261 36.751C34.6941 36.883 34.5107 36.949 34.2761 36.949ZM36.6226 44V35.86H37.7556V44H36.6226ZM40.1682 46.53L41.3342 43.835L41.3452 44.737L38.4632 38.225H39.7832L41.5872 42.471C41.6239 42.5443 41.6679 42.658 41.7192 42.812C41.7705 42.9587 41.8145 43.1053 41.8512 43.252L41.5652 43.318C41.6239 43.164 41.6789 43.01 41.7302 42.856C41.7889 42.702 41.8439 42.548 41.8952 42.394L43.4022 38.225H44.7442L42.3682 44L41.3892 46.53H40.1682Z" fill="black"/>
<path d="M42 23.5C48.5 25.5 54.5 25.5 61 23.5C54.5 20.5 48.5 20.5 42 23.5Z" fill="#949494"/>
<path d="M42 23.5L45 16C50 14.5 53 14.5 58 16L61 23.5C54.5 20.5 48.5 20.5 42 23.5Z" fill="#B0B0B0"/>
<path d="M45.001 15.726C45.0678 6.48065 48.5194 5.49515 50.5 5L50.9621 3.15149C50.9844 3.06246 51.0644 3 51.1562 3H51.8438C51.9356 3 52.0156 3.06246 52.0379 3.15149L52.5 5C54.4806 5.49515 57.9322 6.48065 57.999 15.726C58 15.8599 57.8693 15.9608 57.7407 15.923C52.9808 14.5257 50.0192 14.5257 45.2593 15.923C45.1307 15.9608 45 15.8599 45.001 15.726Z" fill="#D1D1D1"/>
<path d="M45 16L42.0806 23.2984C42.0372 23.407 42.0964 23.5297 42.2083 23.5635C48.559 25.4788 54.441 25.4788 60.7917 23.5635C60.9036 23.5297 60.9628 23.407 60.9194 23.2984L58 16M45 16C45 6.53695 48.4728 5.50791 50.4766 5.00586C50.4925 5.00188 50.5083 5 50.5246 5H52.4754C52.4917 5 52.5075 5.00188 52.5234 5.00586C54.5272 5.50791 58 6.53695 58 16M45 16C50 14.5 53 14.5 58 16" stroke="#484848"/>
<path d="M51.3536 24H51.5H51.6464C51.8728 24 52.0899 24.0899 52.25 24.25C52.4101 24.4101 52.5 24.6272 52.5 24.8536V26.1464C52.5 26.3728 52.4101 26.5899 52.25 26.75C52.0899 26.9101 51.8728 27 51.6464 27H51.3536C51.1272 27 50.9101 26.9101 50.75 26.75C50.5899 26.5899 50.5 26.3728 50.5 26.1464V24.8536C50.5 24.6272 50.5899 24.4101 50.75 24.25C50.9101 24.0899 51.1272 24 51.3536 24Z" fill="black"/>
<path d="M51.5 21.25V24M51.5 24H51.3536C51.1272 24 50.9101 24.0899 50.75 24.25V24.25C50.5899 24.4101 50.5 24.6272 50.5 24.8536V26.1464C50.5 26.3728 50.5899 26.5899 50.75 26.75V26.75C50.9101 26.9101 51.1272 27 51.3536 27H51.6464C51.8728 27 52.0899 26.9101 52.25 26.75V26.75C52.4101 26.5899 52.5 26.3728 52.5 26.1464V24.8536C52.5 24.6272 52.4101 24.4101 52.25 24.25V24.25C52.0899 24.0899 51.8728 24 51.6464 24H51.5Z" stroke="#010101"/>
<path d="M45 16L42.1865 23.0336C42.1194 23.2016 42.2932 23.366 42.4586 23.2929C48.6304 20.569 54.3696 20.569 60.5414 23.2929C60.7068 23.366 60.8806 23.2016 60.8135 23.0336L58 16M45 16C45 6.5 48.5 5.5 50.5 5M45 16C50 14.5 53 14.5 58 16M58 16C58 6.5 54.5 5.5 52.5 5M52.5 5H50.5M52.5 5L52.0379 3.15149C52.0156 3.06246 51.9356 3 51.8438 3H51.1562C51.0644 3 50.9844 3.06246 50.9621 3.15149L50.5 5" stroke="#484848"/>
</svg>
