<svg width="84" height="69" viewBox="0 0 84 69" fill="none" xmlns="http://www.w3.org/2000/svg">
<path d="M27.0985 37V30.95H24.8105V29.3H31.3115V30.95H28.9685V37H27.0985ZM34.1018 37.11C33.4931 37.11 32.9505 36.978 32.4738 36.714C32.0045 36.45 31.6305 36.0907 31.3518 35.636C31.0805 35.1813 30.9448 34.6607 30.9448 34.074C30.9448 33.4873 31.0805 32.9667 31.3518 32.512C31.6305 32.0573 32.0045 31.698 32.4738 31.434C32.9505 31.17 33.4931 31.038 34.1018 31.038C34.7105 31.038 35.2495 31.17 35.7188 31.434C36.1955 31.698 36.5695 32.0573 36.8408 32.512C37.1121 32.9667 37.2478 33.4873 37.2478 34.074C37.2478 34.6607 37.1121 35.1813 36.8408 35.636C36.5695 36.0907 36.1955 36.45 35.7188 36.714C35.2495 36.978 34.7105 37.11 34.1018 37.11ZM34.1018 35.592C34.3658 35.592 34.6005 35.526 34.8058 35.394C35.0111 35.262 35.1725 35.0823 35.2898 34.855C35.4071 34.6277 35.4621 34.3673 35.4548 34.074C35.4621 33.7807 35.4071 33.5203 35.2898 33.293C35.1725 33.0583 35.0111 32.875 34.8058 32.743C34.6005 32.611 34.3658 32.545 34.1018 32.545C33.8378 32.545 33.5995 32.611 33.3868 32.743C33.1815 32.875 33.0201 33.0583 32.9028 33.293C32.7855 33.5203 32.7305 33.7807 32.7378 34.074C32.7305 34.3673 32.7855 34.6277 32.9028 34.855C33.0201 35.0823 33.1815 35.262 33.3868 35.394C33.5995 35.526 33.8378 35.592 34.1018 35.592ZM38.3987 37V31.159H40.0707L40.1477 33.062L39.8177 32.699C39.9057 32.3837 40.0487 32.1013 40.2467 31.852C40.452 31.6027 40.6903 31.4047 40.9617 31.258C41.233 31.1113 41.5227 31.038 41.8307 31.038C41.9627 31.038 42.0837 31.049 42.1937 31.071C42.311 31.093 42.4173 31.1187 42.5127 31.148L42.0287 33.095C41.948 33.0437 41.838 33.0033 41.6987 32.974C41.5667 32.9373 41.4273 32.919 41.2807 32.919C41.1193 32.919 40.969 32.9483 40.8297 33.007C40.6903 33.0583 40.573 33.1353 40.4777 33.238C40.3823 33.3407 40.3053 33.4617 40.2467 33.601C40.1953 33.7403 40.1697 33.898 40.1697 34.074V37H38.3987ZM43.4045 37V31.159H45.0765L45.1535 33.062L44.8235 32.699C44.9115 32.3837 45.0545 32.1013 45.2525 31.852C45.4579 31.6027 45.6962 31.4047 45.9675 31.258C46.2389 31.1113 46.5285 31.038 46.8365 31.038C46.9685 31.038 47.0895 31.049 47.1995 31.071C47.3169 31.093 47.4232 31.1187 47.5185 31.148L47.0345 33.095C46.9539 33.0437 46.8439 33.0033 46.7045 32.974C46.5725 32.9373 46.4332 32.919 46.2865 32.919C46.1252 32.919 45.9749 32.9483 45.8355 33.007C45.6962 33.0583 45.5789 33.1353 45.4835 33.238C45.3882 33.3407 45.3112 33.4617 45.2525 33.601C45.2012 33.7403 45.1755 33.898 45.1755 34.074V37H43.4045ZM50.9463 37.11C50.301 37.11 49.74 36.9817 49.2633 36.725C48.7867 36.461 48.4163 36.1053 48.1523 35.658C47.8883 35.2033 47.7563 34.6863 47.7563 34.107C47.7563 33.6597 47.8297 33.249 47.9763 32.875C48.123 32.501 48.3283 32.1783 48.5923 31.907C48.8563 31.6283 49.168 31.4157 49.5273 31.269C49.894 31.115 50.2937 31.038 50.7263 31.038C51.137 31.038 51.511 31.1113 51.8483 31.258C52.193 31.4047 52.49 31.61 52.7393 31.874C52.9887 32.138 53.1793 32.4497 53.3113 32.809C53.4433 33.1683 53.502 33.5607 53.4873 33.986L53.4763 34.459H48.8233L48.5703 33.469H52.0463L51.8593 33.678V33.458C51.8447 33.2747 51.786 33.1133 51.6833 32.974C51.588 32.8273 51.4597 32.7137 51.2983 32.633C51.137 32.5523 50.9537 32.512 50.7483 32.512C50.4623 32.512 50.2167 32.5707 50.0113 32.688C49.8133 32.798 49.663 32.963 49.5603 33.183C49.4577 33.3957 49.4063 33.6597 49.4063 33.975C49.4063 34.2977 49.4723 34.58 49.6043 34.822C49.7437 35.0567 49.9417 35.24 50.1983 35.372C50.4623 35.504 50.774 35.57 51.1333 35.57C51.3827 35.57 51.6027 35.5333 51.7933 35.46C51.9913 35.3867 52.204 35.262 52.4313 35.086L53.2563 36.252C53.029 36.45 52.787 36.6113 52.5303 36.736C52.2737 36.8607 52.0097 36.9523 51.7383 37.011C51.4743 37.077 51.2103 37.11 50.9463 37.11ZM55.2382 39.53L56.5692 36.395L56.5912 37.297L53.7752 31.159H55.7662L56.9982 34.096C57.0642 34.2427 57.1265 34.4003 57.1852 34.569C57.2439 34.7377 57.2879 34.899 57.3172 35.053L57.0752 35.196C57.1192 35.086 57.1669 34.9503 57.2182 34.789C57.2769 34.6203 57.3392 34.4407 57.4052 34.25L58.4832 31.159H60.4852L57.9992 37L56.9872 39.53H55.2382ZM8.31338 51.11C7.89538 51.11 7.50671 51.055 7.14738 50.945C6.79538 50.835 6.47271 50.67 6.17938 50.45C5.89338 50.2227 5.63671 49.944 5.40938 49.614L6.22338 48.679C6.58271 49.1923 6.92738 49.548 7.25738 49.746C7.58738 49.944 7.97971 50.043 8.43438 50.043C8.71304 50.043 8.96604 49.999 9.19338 49.911C9.42071 49.823 9.60038 49.702 9.73238 49.548C9.86438 49.394 9.93038 49.218 9.93038 49.02C9.93038 48.888 9.90838 48.7633 9.86438 48.646C9.82038 48.5287 9.75071 48.4223 9.65538 48.327C9.56738 48.2317 9.45004 48.1437 9.30338 48.063C9.16404 47.9823 8.99904 47.9127 8.80838 47.854C8.61771 47.788 8.39771 47.733 8.14838 47.689C7.75238 47.6083 7.40771 47.502 7.11438 47.37C6.82104 47.238 6.57538 47.073 6.37738 46.875C6.17938 46.677 6.03271 46.4533 5.93738 46.204C5.84204 45.9473 5.79438 45.6613 5.79438 45.346C5.79438 45.038 5.86038 44.752 5.99238 44.488C6.13171 44.224 6.31871 43.9967 6.55338 43.806C6.79538 43.608 7.07771 43.4577 7.40038 43.355C7.72304 43.245 8.07138 43.19 8.44538 43.19C8.84138 43.19 9.20438 43.2413 9.53438 43.344C9.86438 43.4467 10.1577 43.6007 10.4144 43.806C10.671 44.004 10.8837 44.2497 11.0524 44.543L10.2164 45.368C10.0697 45.126 9.90471 44.9243 9.72138 44.763C9.53804 44.5943 9.33638 44.4697 9.11638 44.389C8.89638 44.301 8.66171 44.257 8.41238 44.257C8.12638 44.257 7.87704 44.301 7.66438 44.389C7.45171 44.477 7.28304 44.6017 7.15838 44.763C7.04104 44.917 6.98238 45.1003 6.98238 45.313C6.98238 45.467 7.01171 45.61 7.07038 45.742C7.12904 45.8667 7.21704 45.9803 7.33438 46.083C7.45904 46.1783 7.62404 46.2663 7.82938 46.347C8.03471 46.4203 8.28038 46.4863 8.56638 46.545C8.96971 46.633 9.32904 46.7467 9.64438 46.886C9.95971 47.018 10.2274 47.1757 10.4474 47.359C10.6674 47.5423 10.8324 47.7477 10.9424 47.975C11.0597 48.2023 11.1184 48.448 11.1184 48.712C11.1184 49.2033 11.0047 49.6287 10.7774 49.988C10.55 50.3473 10.2274 50.626 9.80938 50.824C9.39138 51.0147 8.89271 51.11 8.31338 51.11ZM13.2306 51V43.751H14.3636V51H13.2306ZM12.0316 46.325V45.225H15.7056V46.325H12.0316ZM17.1993 51.121C16.9573 51.121 16.7703 51.0513 16.6383 50.912C16.5063 50.7653 16.4403 50.56 16.4403 50.296C16.4403 50.054 16.51 49.856 16.6493 49.702C16.7886 49.548 16.972 49.471 17.1993 49.471C17.4413 49.471 17.6283 49.5443 17.7603 49.691C17.8923 49.8303 17.9583 50.032 17.9583 50.296C17.9583 50.538 17.8886 50.736 17.7493 50.89C17.61 51.044 17.4266 51.121 17.1993 51.121ZM21.8063 51L24.7873 43.3H25.9973L28.9563 51H27.6913L25.9313 46.358C25.9093 46.3067 25.8653 46.182 25.7993 45.984C25.7406 45.786 25.6709 45.566 25.5903 45.324C25.5096 45.082 25.4363 44.862 25.3703 44.664C25.3043 44.4587 25.2603 44.3267 25.2383 44.268L25.4913 44.257C25.4473 44.3817 25.3923 44.5393 25.3263 44.73C25.2676 44.9207 25.2016 45.1223 25.1283 45.335C25.0623 45.5477 24.9963 45.7493 24.9303 45.94C24.8643 46.1233 24.8093 46.2773 24.7652 46.402L23.0163 51H21.8063ZM23.1263 49.086L23.5663 47.942H27.0643L27.5703 49.086H23.1263ZM30.0254 51V45.225H31.1584V46.413L30.9604 46.545C31.0337 46.2883 31.1767 46.0537 31.3894 45.841C31.6021 45.621 31.8551 45.445 32.1484 45.313C32.4417 45.1737 32.7424 45.104 33.0504 45.104C33.4904 45.104 33.8571 45.192 34.1504 45.368C34.4437 45.5367 34.6637 45.797 34.8104 46.149C34.9571 46.501 35.0304 46.9447 35.0304 47.48V51H33.8974V47.557C33.8974 47.227 33.8534 46.9557 33.7654 46.743C33.6774 46.523 33.5417 46.3653 33.3584 46.27C33.1751 46.1673 32.9477 46.1233 32.6764 46.138C32.4564 46.138 32.2547 46.1747 32.0714 46.248C31.8881 46.314 31.7267 46.4093 31.5874 46.534C31.4554 46.6587 31.3491 46.8053 31.2684 46.974C31.1951 47.1353 31.1584 47.3113 31.1584 47.502V51H30.5974C30.5021 51 30.4067 51 30.3114 51C30.2161 51 30.1207 51 30.0254 51ZM37.2824 51V43.751H38.4154V51H37.2824ZM36.0834 46.325V45.225H39.7574V46.325H36.0834ZM40.7891 51V42.86H41.9221V46.413L41.7241 46.545C41.7974 46.2883 41.9404 46.0537 42.1531 45.841C42.3657 45.621 42.6187 45.445 42.9121 45.313C43.2054 45.1737 43.5061 45.104 43.8141 45.104C44.2541 45.104 44.6207 45.192 44.9141 45.368C45.2074 45.5367 45.4274 45.797 45.5741 46.149C45.7207 46.501 45.7941 46.9447 45.7941 47.48V51H44.6611V47.557C44.6611 47.227 44.6171 46.9557 44.5291 46.743C44.4411 46.523 44.3054 46.3653 44.1221 46.27C43.9387 46.1673 43.7114 46.1233 43.4401 46.138C43.2201 46.138 43.0184 46.1747 42.8351 46.248C42.6517 46.314 42.4904 46.4093 42.3511 46.534C42.2191 46.6587 42.1127 46.8053 42.0321 46.974C41.9587 47.1353 41.9221 47.3113 41.9221 47.502V51H41.3611C41.2657 51 41.1704 51 41.0751 51C40.9797 51 40.8844 51 40.7891 51ZM49.9271 51.11C49.3624 51.11 48.8564 50.9817 48.4091 50.725C47.9691 50.461 47.6207 50.1053 47.3641 49.658C47.1074 49.2033 46.9791 48.6863 46.9791 48.107C46.9791 47.5277 47.1074 47.0143 47.3641 46.567C47.6207 46.1123 47.9691 45.7567 48.4091 45.5C48.8564 45.236 49.3624 45.104 49.9271 45.104C50.4844 45.104 50.9831 45.236 51.4231 45.5C51.8704 45.7567 52.2224 46.1123 52.4791 46.567C52.7357 47.0143 52.8641 47.5277 52.8641 48.107C52.8641 48.6863 52.7357 49.2033 52.4791 49.658C52.2224 50.1053 51.8704 50.461 51.4231 50.725C50.9831 50.9817 50.4844 51.11 49.9271 51.11ZM49.9271 50.076C50.2717 50.076 50.5797 49.9917 50.8511 49.823C51.1224 49.647 51.3351 49.4123 51.4891 49.119C51.6431 48.8183 51.7164 48.481 51.7091 48.107C51.7164 47.7257 51.6431 47.3883 51.4891 47.095C51.3351 46.7943 51.1224 46.5597 50.8511 46.391C50.5797 46.2223 50.2717 46.138 49.9271 46.138C49.5824 46.138 49.2707 46.226 48.9921 46.402C48.7207 46.5707 48.5081 46.8053 48.3541 47.106C48.2001 47.3993 48.1267 47.733 48.1341 48.107C48.1267 48.481 48.2001 48.8183 48.3541 49.119C48.5081 49.4123 48.7207 49.647 48.9921 49.823C49.2707 49.9917 49.5824 50.076 49.9271 50.076ZM54.0986 51V45.225H55.2316V46.413L55.0336 46.545C55.107 46.2883 55.25 46.0537 55.4626 45.841C55.6753 45.621 55.9283 45.445 56.2216 45.313C56.515 45.1737 56.8156 45.104 57.1236 45.104C57.5636 45.104 57.9303 45.192 58.2236 45.368C58.517 45.5367 58.737 45.797 58.8836 46.149C59.0303 46.501 59.1036 46.9447 59.1036 47.48V51H57.9706V47.557C57.9706 47.227 57.9266 46.9557 57.8386 46.743C57.7506 46.523 57.615 46.3653 57.4316 46.27C57.2483 46.1673 57.021 46.1233 56.7496 46.138C56.5296 46.138 56.328 46.1747 56.1446 46.248C55.9613 46.314 55.8 46.4093 55.6606 46.534C55.5286 46.6587 55.4223 46.8053 55.3416 46.974C55.2683 47.1353 55.2316 47.3113 55.2316 47.502V51H54.6706C54.5753 51 54.48 51 54.3846 51C54.2893 51 54.194 51 54.0986 51ZM61.5549 53.53L62.7209 50.835L62.7319 51.737L59.8499 45.225H61.1699L62.9739 49.471C63.0106 49.5443 63.0546 49.658 63.1059 49.812C63.1573 49.9587 63.2013 50.1053 63.2379 50.252L62.9519 50.318C63.0106 50.164 63.0656 50.01 63.1169 49.856C63.1756 49.702 63.2306 49.548 63.2819 49.394L64.7889 45.225H66.1309L63.7549 51L62.7759 53.53H61.5549ZM72.6575 51.11C72.0929 51.11 71.5869 50.9817 71.1395 50.725C70.6995 50.461 70.3512 50.1053 70.0945 49.658C69.8379 49.2033 69.7095 48.6863 69.7095 48.107C69.7095 47.5277 69.8379 47.0143 70.0945 46.567C70.3512 46.1123 70.6995 45.7567 71.1395 45.5C71.5869 45.236 72.0929 45.104 72.6575 45.104C73.2149 45.104 73.7135 45.236 74.1535 45.5C74.6009 45.7567 74.9529 46.1123 75.2095 46.567C75.4662 47.0143 75.5945 47.5277 75.5945 48.107C75.5945 48.6863 75.4662 49.2033 75.2095 49.658C74.9529 50.1053 74.6009 50.461 74.1535 50.725C73.7135 50.9817 73.2149 51.11 72.6575 51.11ZM72.6575 50.076C73.0022 50.076 73.3102 49.9917 73.5815 49.823C73.8529 49.647 74.0655 49.4123 74.2195 49.119C74.3735 48.8183 74.4469 48.481 74.4395 48.107C74.4469 47.7257 74.3735 47.3883 74.2195 47.095C74.0655 46.7943 73.8529 46.5597 73.5815 46.391C73.3102 46.2223 73.0022 46.138 72.6575 46.138C72.3129 46.138 72.0012 46.226 71.7225 46.402C71.4512 46.5707 71.2385 46.8053 71.0845 47.106C70.9305 47.3993 70.8572 47.733 70.8645 48.107C70.8572 48.481 70.9305 48.8183 71.0845 49.119C71.2385 49.4123 71.4512 49.647 71.7225 49.823C72.0012 49.9917 72.3129 50.076 72.6575 50.076ZM77.2413 51V44.576C77.2413 44.246 77.3146 43.9527 77.4613 43.696C77.6079 43.4393 77.8096 43.2377 78.0663 43.091C78.3229 42.9443 78.6199 42.871 78.9573 42.871C79.1919 42.871 79.4119 42.915 79.6173 43.003C79.8226 43.091 79.9876 43.2083 80.1123 43.355L79.7273 44.224C79.6319 44.136 79.5256 44.0663 79.4083 44.015C79.2983 43.9563 79.1919 43.927 79.0893 43.927C78.9353 43.927 78.8033 43.9527 78.6933 44.004C78.5906 44.048 78.5136 44.1213 78.4623 44.224C78.4109 44.3193 78.3853 44.4367 78.3853 44.576V51H77.8133C77.7179 51 77.6226 51 77.5273 51C77.4319 51 77.3366 51 77.2413 51ZM76.3173 46.369V45.324H79.7493V46.369H76.3173ZM16.2331 65V57.751H17.3661V65H16.2331ZM15.0341 60.325V59.225H18.7081V60.325H15.0341ZM19.7398 65V56.86H20.8728V60.413L20.6748 60.545C20.7481 60.2883 20.8911 60.0537 21.1038 59.841C21.3164 59.621 21.5694 59.445 21.8628 59.313C22.1561 59.1737 22.4568 59.104 22.7648 59.104C23.2048 59.104 23.5714 59.192 23.8648 59.368C24.1581 59.5367 24.3781 59.797 24.5248 60.149C24.6714 60.501 24.7448 60.9447 24.7448 61.48V65H23.6118V61.557C23.6118 61.227 23.5678 60.9557 23.4798 60.743C23.3918 60.523 23.2561 60.3653 23.0728 60.27C22.8894 60.1673 22.6621 60.1233 22.3908 60.138C22.1708 60.138 21.9691 60.1747 21.7858 60.248C21.6024 60.314 21.4411 60.4093 21.3018 60.534C21.1698 60.6587 21.0634 60.8053 20.9828 60.974C20.9094 61.1353 20.8728 61.3113 20.8728 61.502V65H20.3118C20.2164 65 20.1211 65 20.0258 65C19.9304 65 19.8351 65 19.7398 65ZM28.9767 65.11C28.3827 65.11 27.8547 64.9853 27.3927 64.736C26.9381 64.4793 26.5787 64.131 26.3147 63.691C26.0581 63.251 25.9297 62.745 25.9297 62.173C25.9297 61.7183 26.0031 61.304 26.1497 60.93C26.2964 60.556 26.4981 60.2333 26.7547 59.962C27.0187 59.6833 27.3304 59.4707 27.6897 59.324C28.0564 59.17 28.4524 59.093 28.8777 59.093C29.2517 59.093 29.6001 59.1663 29.9227 59.313C30.2454 59.4523 30.5241 59.6467 30.7587 59.896C31.0007 60.1453 31.1841 60.4423 31.3087 60.787C31.4407 61.1243 31.5031 61.4947 31.4957 61.898L31.4847 62.382H26.7657L26.5127 61.48H30.5057L30.3407 61.667V61.403C30.3187 61.161 30.2381 60.9447 30.0987 60.754C29.9594 60.5633 29.7834 60.413 29.5707 60.303C29.3581 60.193 29.1271 60.138 28.8777 60.138C28.4817 60.138 28.1481 60.215 27.8767 60.369C27.6054 60.5157 27.4001 60.7357 27.2607 61.029C27.1214 61.315 27.0517 61.6707 27.0517 62.096C27.0517 62.4993 27.1361 62.8513 27.3047 63.152C27.4734 63.4453 27.7117 63.6727 28.0197 63.834C28.3277 63.9953 28.6834 64.076 29.0867 64.076C29.3727 64.076 29.6367 64.0283 29.8787 63.933C30.1281 63.8377 30.3957 63.6653 30.6817 63.416L31.2537 64.219C31.0777 64.395 30.8614 64.549 30.6047 64.681C30.3554 64.813 30.0877 64.9193 29.8017 65C29.5231 65.0733 29.2481 65.11 28.9767 65.11ZM36.0961 65V57.3H39.1101C39.6601 57.3 40.1551 57.3917 40.5951 57.575C41.0424 57.7583 41.4237 58.0223 41.7391 58.367C42.0544 58.7117 42.2964 59.1187 42.4651 59.588C42.6337 60.0573 42.7181 60.578 42.7181 61.15C42.7181 61.722 42.6337 62.2463 42.4651 62.723C42.2964 63.1923 42.0544 63.5993 41.7391 63.944C41.4311 64.2813 41.0534 64.5417 40.6061 64.725C40.1587 64.9083 39.6601 65 39.1101 65H36.0961ZM37.2841 63.977L37.2511 63.856H39.0551C39.4437 63.856 39.7884 63.7937 40.0891 63.669C40.3971 63.5443 40.6537 63.3683 40.8591 63.141C41.0717 62.9063 41.2331 62.6203 41.3431 62.283C41.4531 61.9457 41.5081 61.568 41.5081 61.15C41.5081 60.732 41.4531 60.358 41.3431 60.028C41.2331 59.6907 41.0717 59.4047 40.8591 59.17C40.6464 58.9353 40.3897 58.7557 40.0891 58.631C39.7884 58.5063 39.4437 58.444 39.0551 58.444H37.2181L37.2841 58.345V63.977ZM46.7336 65.11C46.1396 65.11 45.6116 64.9853 45.1496 64.736C44.6949 64.4793 44.3356 64.131 44.0716 63.691C43.8149 63.251 43.6866 62.745 43.6866 62.173C43.6866 61.7183 43.7599 61.304 43.9066 60.93C44.0532 60.556 44.2549 60.2333 44.5116 59.962C44.7756 59.6833 45.0872 59.4707 45.4466 59.324C45.8132 59.17 46.2092 59.093 46.6346 59.093C47.0086 59.093 47.3569 59.1663 47.6796 59.313C48.0022 59.4523 48.2809 59.6467 48.5156 59.896C48.7576 60.1453 48.9409 60.4423 49.0656 60.787C49.1976 61.1243 49.2599 61.4947 49.2526 61.898L49.2416 62.382H44.5226L44.2696 61.48H48.2626L48.0976 61.667V61.403C48.0756 61.161 47.9949 60.9447 47.8556 60.754C47.7162 60.5633 47.5402 60.413 47.3276 60.303C47.1149 60.193 46.8839 60.138 46.6346 60.138C46.2386 60.138 45.9049 60.215 45.6336 60.369C45.3622 60.5157 45.1569 60.7357 45.0176 61.029C44.8782 61.315 44.8086 61.6707 44.8086 62.096C44.8086 62.4993 44.8929 62.8513 45.0616 63.152C45.2302 63.4453 45.4686 63.6727 45.7766 63.834C46.0846 63.9953 46.4402 64.076 46.8436 64.076C47.1296 64.076 47.3936 64.0283 47.6356 63.933C47.8849 63.8377 48.1526 63.6653 48.4386 63.416L49.0106 64.219C48.8346 64.395 48.6182 64.549 48.3616 64.681C48.1122 64.813 47.8446 64.9193 47.5586 65C47.2799 65.0733 47.0049 65.11 46.7336 65.11ZM52.4089 65.11C51.9249 65.11 51.4886 65.0257 51.0999 64.857C50.7112 64.6883 50.3886 64.439 50.1319 64.109L50.9019 63.449C51.1219 63.7057 51.3602 63.8927 51.6169 64.01C51.8809 64.12 52.1779 64.175 52.5079 64.175C52.6399 64.175 52.7609 64.1603 52.8709 64.131C52.9882 64.0943 53.0872 64.043 53.1679 63.977C53.2559 63.911 53.3219 63.834 53.3659 63.746C53.4099 63.6507 53.4319 63.548 53.4319 63.438C53.4319 63.2473 53.3622 63.0933 53.2229 62.976C53.1496 62.9247 53.0322 62.8697 52.8709 62.811C52.7169 62.745 52.5152 62.679 52.2659 62.613C51.8406 62.503 51.4922 62.3783 51.2209 62.239C50.9496 62.0997 50.7406 61.942 50.5939 61.766C50.4839 61.6267 50.4032 61.4763 50.3519 61.315C50.3006 61.1463 50.2749 60.963 50.2749 60.765C50.2749 60.523 50.3262 60.303 50.4289 60.105C50.5389 59.8997 50.6856 59.7237 50.8689 59.577C51.0596 59.423 51.2796 59.3057 51.5289 59.225C51.7856 59.1443 52.0569 59.104 52.3429 59.104C52.6142 59.104 52.8819 59.1407 53.1459 59.214C53.4172 59.2873 53.6666 59.3937 53.8939 59.533C54.1212 59.6723 54.3119 59.8373 54.4659 60.028L53.8169 60.743C53.6776 60.6037 53.5236 60.4827 53.3549 60.38C53.1936 60.27 53.0286 60.1857 52.8599 60.127C52.6912 60.0683 52.5372 60.039 52.3979 60.039C52.2439 60.039 52.1046 60.0537 51.9799 60.083C51.8552 60.1123 51.7489 60.1563 51.6609 60.215C51.5802 60.2737 51.5179 60.347 51.4739 60.435C51.4299 60.523 51.4079 60.622 51.4079 60.732C51.4152 60.8273 51.4372 60.919 51.4739 61.007C51.5179 61.0877 51.5766 61.1573 51.6499 61.216C51.7306 61.2747 51.8516 61.337 52.0129 61.403C52.1742 61.469 52.3796 61.5313 52.6289 61.59C52.9956 61.6853 53.2962 61.7917 53.5309 61.909C53.7729 62.019 53.9636 62.1473 54.1029 62.294C54.2496 62.4333 54.3522 62.5947 54.4109 62.778C54.4696 62.9613 54.4989 63.1667 54.4989 63.394C54.4989 63.724 54.4036 64.021 54.2129 64.285C54.0296 64.5417 53.7802 64.7433 53.4649 64.89C53.1496 65.0367 52.7976 65.11 52.4089 65.11ZM58.4426 65.11C57.8486 65.11 57.3206 64.9853 56.8586 64.736C56.4039 64.4793 56.0446 64.131 55.7806 63.691C55.5239 63.251 55.3956 62.745 55.3956 62.173C55.3956 61.7183 55.4689 61.304 55.6156 60.93C55.7622 60.556 55.9639 60.2333 56.2206 59.962C56.4846 59.6833 56.7962 59.4707 57.1556 59.324C57.5222 59.17 57.9182 59.093 58.3436 59.093C58.7176 59.093 59.0659 59.1663 59.3886 59.313C59.7112 59.4523 59.9899 59.6467 60.2246 59.896C60.4666 60.1453 60.6499 60.4423 60.7746 60.787C60.9066 61.1243 60.9689 61.4947 60.9616 61.898L60.9506 62.382H56.2316L55.9786 61.48H59.9716L59.8066 61.667V61.403C59.7846 61.161 59.7039 60.9447 59.5646 60.754C59.4252 60.5633 59.2492 60.413 59.0366 60.303C58.8239 60.193 58.5929 60.138 58.3436 60.138C57.9476 60.138 57.6139 60.215 57.3426 60.369C57.0712 60.5157 56.8659 60.7357 56.7266 61.029C56.5872 61.315 56.5176 61.6707 56.5176 62.096C56.5176 62.4993 56.6019 62.8513 56.7706 63.152C56.9392 63.4453 57.1776 63.6727 57.4856 63.834C57.7936 63.9953 58.1492 64.076 58.5526 64.076C58.8386 64.076 59.1026 64.0283 59.3446 63.933C59.5939 63.8377 59.8616 63.6653 60.1476 63.416L60.7196 64.219C60.5436 64.395 60.3272 64.549 60.0706 64.681C59.8212 64.813 59.5536 64.9193 59.2676 65C58.9889 65.0733 58.7139 65.11 58.4426 65.11ZM62.1929 65V59.225H63.3369V61.04L63.2269 60.6C63.3075 60.3213 63.4432 60.0683 63.6339 59.841C63.8319 59.6137 64.0555 59.434 64.3049 59.302C64.5615 59.17 64.8255 59.104 65.0969 59.104C65.2215 59.104 65.3389 59.115 65.4489 59.137C65.5662 59.159 65.6579 59.1847 65.7239 59.214L65.4269 60.446C65.3389 60.4093 65.2399 60.38 65.1299 60.358C65.0272 60.3287 64.9245 60.314 64.8219 60.314C64.6239 60.314 64.4332 60.3543 64.2499 60.435C64.0739 60.5083 63.9162 60.6147 63.7769 60.754C63.6449 60.886 63.5385 61.0437 63.4579 61.227C63.3772 61.403 63.3369 61.5973 63.3369 61.81V65H62.1929ZM67.5592 65V57.751H68.6922V65H67.5592ZM66.3602 60.325V59.225H70.0342V60.325H66.3602Z" fill="black"/>
<path d="M34 22.5C40.5 24.5 46.5 24.5 53 22.5C46.5 19.5 40.5 19.5 34 22.5Z" fill="#949494"/>
<path d="M34 22.5L37 15C42 13.5 45 13.5 50 15L53 22.5C46.5 19.5 40.5 19.5 34 22.5Z" fill="#B0B0B0"/>
<path d="M37.001 14.726C37.0678 5.48065 40.5194 4.49515 42.5 4L42.9621 2.15149C42.9844 2.06246 43.0644 2 43.1562 2H43.8438C43.9356 2 44.0156 2.06246 44.0379 2.15149L44.5 4C46.4806 4.49515 49.9322 5.48065 49.999 14.726C50 14.8599 49.8693 14.9608 49.7407 14.923C44.9808 13.5257 42.0192 13.5257 37.2593 14.923C37.1307 14.9608 37 14.8599 37.001 14.726Z" fill="#D1D1D1"/>
<path d="M37 15L34.0806 22.2984C34.0372 22.407 34.0964 22.5297 34.2083 22.5635C40.559 24.4788 46.441 24.4788 52.7917 22.5635C52.9036 22.5297 52.9628 22.407 52.9194 22.2984L50 15M37 15C37 5.53695 40.4728 4.50791 42.4766 4.00586C42.4925 4.00188 42.5083 4 42.5246 4H44.4754C44.4917 4 44.5075 4.00188 44.5234 4.00586C46.5272 4.50791 50 5.53695 50 15M37 15C42 13.5 45 13.5 50 15" stroke="#484848"/>
<path d="M43.3536 23H43.5H43.6464C43.8728 23 44.0899 23.0899 44.25 23.25C44.4101 23.4101 44.5 23.6272 44.5 23.8536V25.1464C44.5 25.3728 44.4101 25.5899 44.25 25.75C44.0899 25.9101 43.8728 26 43.6464 26H43.3536C43.1272 26 42.9101 25.9101 42.75 25.75C42.5899 25.5899 42.5 25.3728 42.5 25.1464V23.8536C42.5 23.6272 42.5899 23.4101 42.75 23.25C42.9101 23.0899 43.1272 23 43.3536 23Z" fill="black"/>
<path d="M43.5 20.25V23M43.5 23H43.3536C43.1272 23 42.9101 23.0899 42.75 23.25V23.25C42.5899 23.4101 42.5 23.6272 42.5 23.8536V25.1464C42.5 25.3728 42.5899 25.5899 42.75 25.75V25.75C42.9101 25.9101 43.1272 26 43.3536 26H43.6464C43.8728 26 44.0899 25.9101 44.25 25.75V25.75C44.4101 25.5899 44.5 25.3728 44.5 25.1464V23.8536C44.5 23.6272 44.4101 23.4101 44.25 23.25V23.25C44.0899 23.0899 43.8728 23 43.6464 23H43.5Z" stroke="#010101"/>
<path d="M37 15L34.1865 22.0336C34.1194 22.2016 34.2932 22.366 34.4586 22.2929C40.6304 19.569 46.3696 19.569 52.5414 22.2929C52.7068 22.366 52.8806 22.2016 52.8135 22.0336L50 15M37 15C37 5.5 40.5 4.5 42.5 4M37 15C42 13.5 45 13.5 50 15M50 15C50 5.5 46.5 4.5 44.5 4M44.5 4H42.5M44.5 4L44.0379 2.15149C44.0156 2.06246 43.9356 2 43.8438 2H43.1562C43.0644 2 42.9844 2.06246 42.9621 2.15149L42.5 4" stroke="#484848"/>
</svg>
