<svg width="65" height="57" viewBox="0 0 65 57" fill="none" xmlns="http://www.w3.org/2000/svg">
<path d="M6.80078 38L4.49078 30.3H6.39378L7.54878 34.348C7.60011 34.5313 7.64411 34.7183 7.68078 34.909C7.72478 35.0923 7.75778 35.2683 7.77978 35.437C7.80911 35.6057 7.83111 35.7633 7.84578 35.91C7.86044 36.0493 7.87511 36.1667 7.88978 36.262H7.64778C7.69178 35.9907 7.72844 35.7487 7.75778 35.536C7.79444 35.3233 7.83478 35.1253 7.87878 34.942C7.92278 34.7513 7.97778 34.5533 8.04378 34.348L9.18778 31.301H10.6838L11.8058 34.348C11.8938 34.59 11.9671 34.8173 12.0258 35.03C12.0844 35.2427 12.1284 35.448 12.1578 35.646C12.1944 35.8367 12.2238 36.0273 12.2458 36.218L12.0258 36.251C12.0404 36.119 12.0514 35.998 12.0588 35.888C12.0661 35.7707 12.0734 35.6607 12.0808 35.558C12.0954 35.448 12.1101 35.3343 12.1248 35.217C12.1394 35.0997 12.1614 34.9713 12.1908 34.832C12.2201 34.6853 12.2604 34.5203 12.3118 34.337L13.4558 30.3H15.3148L13.0048 38H11.5748L9.74878 33.567L9.95778 33.589L8.27478 38H6.80078ZM18.6563 38.11C18.011 38.11 17.45 37.9817 16.9733 37.725C16.4966 37.461 16.1263 37.1053 15.8623 36.658C15.5983 36.2033 15.4663 35.6863 15.4663 35.107C15.4663 34.6597 15.5396 34.249 15.6863 33.875C15.833 33.501 16.0383 33.1783 16.3023 32.907C16.5663 32.6283 16.878 32.4157 17.2373 32.269C17.604 32.115 18.0036 32.038 18.4363 32.038C18.847 32.038 19.221 32.1113 19.5583 32.258C19.903 32.4047 20.2 32.61 20.4493 32.874C20.6986 33.138 20.8893 33.4497 21.0213 33.809C21.1533 34.1683 21.212 34.5607 21.1973 34.986L21.1863 35.459H16.5333L16.2803 34.469H19.7563L19.5693 34.678V34.458C19.5546 34.2747 19.496 34.1133 19.3933 33.974C19.298 33.8273 19.1696 33.7137 19.0083 33.633C18.847 33.5523 18.6636 33.512 18.4583 33.512C18.1723 33.512 17.9266 33.5707 17.7213 33.688C17.5233 33.798 17.373 33.963 17.2703 34.183C17.1676 34.3957 17.1163 34.6597 17.1163 34.975C17.1163 35.2977 17.1823 35.58 17.3143 35.822C17.4536 36.0567 17.6516 36.24 17.9083 36.372C18.1723 36.504 18.484 36.57 18.8433 36.57C19.0926 36.57 19.3126 36.5333 19.5033 36.46C19.7013 36.3867 19.914 36.262 20.1413 36.086L20.9663 37.252C20.739 37.45 20.497 37.6113 20.2403 37.736C19.9836 37.8607 19.7196 37.9523 19.4483 38.011C19.1843 38.077 18.9203 38.11 18.6563 38.11ZM22.3186 38V32.159H23.9906L24.0456 33.347L23.6936 33.479C23.7743 33.215 23.9173 32.9767 24.1226 32.764C24.3353 32.544 24.5883 32.368 24.8816 32.236C25.1749 32.104 25.4829 32.038 25.8056 32.038C26.2456 32.038 26.6159 32.1297 26.9166 32.313C27.2173 32.489 27.4446 32.7567 27.5986 33.116C27.7526 33.468 27.8296 33.9007 27.8296 34.414V38H26.0586V34.557C26.0586 34.3223 26.0256 34.128 25.9596 33.974C25.8936 33.82 25.7909 33.7063 25.6516 33.633C25.5196 33.5523 25.3546 33.5157 25.1566 33.523C25.0026 33.523 24.8596 33.5487 24.7276 33.6C24.5956 33.644 24.4819 33.7137 24.3866 33.809C24.2913 33.897 24.2143 33.9997 24.1556 34.117C24.1043 34.2343 24.0786 34.3627 24.0786 34.502V38H23.2096C23.0043 38 22.8283 38 22.6816 38C22.5349 38 22.4139 38 22.3186 38ZM31.512 38.121C31.006 38.121 30.555 37.9927 30.159 37.736C29.7704 37.472 29.4624 37.1127 29.235 36.658C29.0077 36.196 28.894 35.6717 28.894 35.085C28.894 34.4983 29.0077 33.9777 29.235 33.523C29.4624 33.061 29.774 32.698 30.17 32.434C30.566 32.17 31.0207 32.038 31.534 32.038C31.798 32.038 32.051 32.0783 32.293 32.159C32.535 32.2397 32.755 32.3497 32.953 32.489C33.151 32.6283 33.3124 32.7897 33.437 32.973C33.5617 33.149 33.635 33.3323 33.657 33.523L33.239 33.622V29.86H35.01V38H33.371L33.272 36.669L33.624 36.724C33.602 36.9073 33.5287 37.0833 33.404 37.252C33.2867 37.4207 33.1327 37.571 32.942 37.703C32.7514 37.8277 32.5314 37.9267 32.282 38C32.04 38.0807 31.7834 38.121 31.512 38.121ZM31.963 36.658C32.2344 36.658 32.469 36.592 32.667 36.46C32.865 36.328 33.0154 36.1447 33.118 35.91C33.228 35.6753 33.283 35.4003 33.283 35.085C33.283 34.7623 33.228 34.4837 33.118 34.249C33.0154 34.0143 32.865 33.831 32.667 33.699C32.469 33.567 32.2344 33.501 31.963 33.501C31.6917 33.501 31.457 33.567 31.259 33.699C31.0684 33.831 30.918 34.0143 30.808 34.249C30.698 34.4837 30.643 34.7623 30.643 35.085C30.643 35.4003 30.698 35.6753 30.808 35.91C30.918 36.1447 31.0684 36.328 31.259 36.46C31.457 36.592 31.6917 36.658 31.963 36.658ZM39.2483 38.11C38.6396 38.11 38.097 37.978 37.6203 37.714C37.151 37.45 36.777 37.0907 36.4983 36.636C36.227 36.1813 36.0913 35.6607 36.0913 35.074C36.0913 34.4873 36.227 33.9667 36.4983 33.512C36.777 33.0573 37.151 32.698 37.6203 32.434C38.097 32.17 38.6396 32.038 39.2483 32.038C39.857 32.038 40.396 32.17 40.8653 32.434C41.342 32.698 41.716 33.0573 41.9873 33.512C42.2586 33.9667 42.3943 34.4873 42.3943 35.074C42.3943 35.6607 42.2586 36.1813 41.9873 36.636C41.716 37.0907 41.342 37.45 40.8653 37.714C40.396 37.978 39.857 38.11 39.2483 38.11ZM39.2483 36.592C39.5123 36.592 39.747 36.526 39.9523 36.394C40.1576 36.262 40.319 36.0823 40.4363 35.855C40.5536 35.6277 40.6086 35.3673 40.6013 35.074C40.6086 34.7807 40.5536 34.5203 40.4363 34.293C40.319 34.0583 40.1576 33.875 39.9523 33.743C39.747 33.611 39.5123 33.545 39.2483 33.545C38.9843 33.545 38.746 33.611 38.5333 33.743C38.328 33.875 38.1666 34.0583 38.0493 34.293C37.932 34.5203 37.877 34.7807 37.8843 35.074C37.877 35.3673 37.932 35.6277 38.0493 35.855C38.1666 36.0823 38.328 36.262 38.5333 36.394C38.746 36.526 38.9843 36.592 39.2483 36.592ZM45.177 38L42.735 32.159H44.682L46.134 36.526L45.705 36.57L47.201 32.159H49.126L46.563 38H45.177ZM52.6661 38.11C52.0207 38.11 51.4597 37.9817 50.9831 37.725C50.5064 37.461 50.1361 37.1053 49.8721 36.658C49.6081 36.2033 49.4761 35.6863 49.4761 35.107C49.4761 34.6597 49.5494 34.249 49.6961 33.875C49.8427 33.501 50.0481 33.1783 50.3121 32.907C50.5761 32.6283 50.8877 32.4157 51.2471 32.269C51.6137 32.115 52.0134 32.038 52.4461 32.038C52.8567 32.038 53.2307 32.1113 53.5681 32.258C53.9127 32.4047 54.2097 32.61 54.4591 32.874C54.7084 33.138 54.8991 33.4497 55.0311 33.809C55.1631 34.1683 55.2217 34.5607 55.2071 34.986L55.1961 35.459H50.5431L50.2901 34.469H53.7661L53.5791 34.678V34.458C53.5644 34.2747 53.5057 34.1133 53.4031 33.974C53.3077 33.8273 53.1794 33.7137 53.0181 33.633C52.8567 33.5523 52.6734 33.512 52.4681 33.512C52.1821 33.512 51.9364 33.5707 51.7311 33.688C51.5331 33.798 51.3827 33.963 51.2801 34.183C51.1774 34.3957 51.1261 34.6597 51.1261 34.975C51.1261 35.2977 51.1921 35.58 51.3241 35.822C51.4634 36.0567 51.6614 36.24 51.9181 36.372C52.1821 36.504 52.4937 36.57 52.8531 36.57C53.1024 36.57 53.3224 36.5333 53.5131 36.46C53.7111 36.3867 53.9237 36.262 54.1511 36.086L54.9761 37.252C54.7487 37.45 54.5067 37.6113 54.2501 37.736C53.9934 37.8607 53.7294 37.9523 53.4581 38.011C53.1941 38.077 52.9301 38.11 52.6661 38.11ZM56.3284 38V32.159H58.0004L58.0774 34.062L57.7474 33.699C57.8354 33.3837 57.9784 33.1013 58.1764 32.852C58.3817 32.6027 58.62 32.4047 58.8914 32.258C59.1627 32.1113 59.4524 32.038 59.7604 32.038C59.8924 32.038 60.0134 32.049 60.1234 32.071C60.2407 32.093 60.347 32.1187 60.4424 32.148L59.9584 34.095C59.8777 34.0437 59.7677 34.0033 59.6284 33.974C59.4964 33.9373 59.357 33.919 59.2104 33.919C59.049 33.919 58.8987 33.9483 58.7594 34.007C58.62 34.0583 58.5027 34.1353 58.4074 34.238C58.312 34.3407 58.235 34.4617 58.1764 34.601C58.125 34.7403 58.0994 34.898 58.0994 35.074V38H56.3284ZM8.1747 52.11C7.7567 52.11 7.36804 52.055 7.0087 51.945C6.6567 51.835 6.33404 51.67 6.0407 51.45C5.7547 51.2227 5.49804 50.944 5.2707 50.614L6.0847 49.679C6.44404 50.1923 6.7887 50.548 7.1187 50.746C7.4487 50.944 7.84104 51.043 8.2957 51.043C8.57437 51.043 8.82737 50.999 9.0547 50.911C9.28204 50.823 9.4617 50.702 9.5937 50.548C9.7257 50.394 9.7917 50.218 9.7917 50.02C9.7917 49.888 9.7697 49.7633 9.7257 49.646C9.6817 49.5287 9.61204 49.4223 9.5167 49.327C9.4287 49.2317 9.31137 49.1437 9.1647 49.063C9.02537 48.9823 8.86037 48.9127 8.6697 48.854C8.47904 48.788 8.25904 48.733 8.0097 48.689C7.6137 48.6083 7.26904 48.502 6.9757 48.37C6.68237 48.238 6.4367 48.073 6.2387 47.875C6.0407 47.677 5.89404 47.4533 5.7987 47.204C5.70337 46.9473 5.6557 46.6613 5.6557 46.346C5.6557 46.038 5.7217 45.752 5.8537 45.488C5.99304 45.224 6.18004 44.9967 6.4147 44.806C6.6567 44.608 6.93904 44.4577 7.2617 44.355C7.58437 44.245 7.9327 44.19 8.3067 44.19C8.7027 44.19 9.0657 44.2413 9.3957 44.344C9.7257 44.4467 10.019 44.6007 10.2757 44.806C10.5324 45.004 10.745 45.2497 10.9137 45.543L10.0777 46.368C9.93104 46.126 9.76604 45.9243 9.5827 45.763C9.39937 45.5943 9.1977 45.4697 8.9777 45.389C8.7577 45.301 8.52304 45.257 8.2737 45.257C7.9877 45.257 7.73837 45.301 7.5257 45.389C7.31304 45.477 7.14437 45.6017 7.0197 45.763C6.90237 45.917 6.8437 46.1003 6.8437 46.313C6.8437 46.467 6.87304 46.61 6.9317 46.742C6.99037 46.8667 7.07837 46.9803 7.1957 47.083C7.32037 47.1783 7.48537 47.2663 7.6907 47.347C7.89604 47.4203 8.1417 47.4863 8.4277 47.545C8.83104 47.633 9.19037 47.7467 9.5057 47.886C9.82104 48.018 10.0887 48.1757 10.3087 48.359C10.5287 48.5423 10.6937 48.7477 10.8037 48.975C10.921 49.2023 10.9797 49.448 10.9797 49.712C10.9797 50.2033 10.866 50.6287 10.6387 50.988C10.4114 51.3473 10.0887 51.626 9.6707 51.824C9.2527 52.0147 8.75404 52.11 8.1747 52.11ZM14.599 52.11C14.1223 52.11 13.686 51.978 13.29 51.714C12.9013 51.45 12.5896 51.0907 12.355 50.636C12.1203 50.1813 12.003 49.668 12.003 49.096C12.003 48.5167 12.1203 48.0033 12.355 47.556C12.597 47.1013 12.9196 46.7457 13.323 46.489C13.7336 46.2323 14.192 46.104 14.698 46.104C14.9986 46.104 15.2736 46.148 15.523 46.236C15.7723 46.324 15.9886 46.4487 16.172 46.61C16.3626 46.764 16.5166 46.9437 16.634 47.149C16.7586 47.3543 16.8356 47.5743 16.865 47.809L16.612 47.721V46.225H17.756V52H16.612V50.625L16.876 50.548C16.832 50.746 16.7403 50.9403 16.601 51.131C16.469 51.3143 16.2966 51.4793 16.084 51.626C15.8786 51.7727 15.6476 51.89 15.391 51.978C15.1416 52.066 14.8776 52.11 14.599 52.11ZM14.896 51.065C15.2406 51.065 15.545 50.9807 15.809 50.812C16.073 50.6433 16.2783 50.4123 16.425 50.119C16.579 49.8183 16.656 49.4773 16.656 49.096C16.656 48.722 16.579 48.3883 16.425 48.095C16.2783 47.8017 16.073 47.5707 15.809 47.402C15.545 47.2333 15.2406 47.149 14.896 47.149C14.5586 47.149 14.258 47.2333 13.994 47.402C13.7373 47.5707 13.532 47.8017 13.378 48.095C13.2313 48.3883 13.158 48.722 13.158 49.096C13.158 49.4773 13.2313 49.8183 13.378 50.119C13.532 50.4123 13.7373 50.6433 13.994 50.812C14.258 50.9807 14.5586 51.065 14.896 51.065ZM19.3379 52V46.225H20.4709V47.413L20.2729 47.545C20.3462 47.2883 20.4892 47.0537 20.7019 46.841C20.9146 46.621 21.1676 46.445 21.4609 46.313C21.7542 46.1737 22.0549 46.104 22.3629 46.104C22.8029 46.104 23.1696 46.192 23.4629 46.368C23.7562 46.5367 23.9762 46.797 24.1229 47.149C24.2696 47.501 24.3429 47.9447 24.3429 48.48V52H23.2099V48.557C23.2099 48.227 23.1659 47.9557 23.0779 47.743C22.9899 47.523 22.8542 47.3653 22.6709 47.27C22.4876 47.1673 22.2602 47.1233 21.9889 47.138C21.7689 47.138 21.5672 47.1747 21.3839 47.248C21.2006 47.314 21.0392 47.4093 20.8999 47.534C20.7679 47.6587 20.6616 47.8053 20.5809 47.974C20.5076 48.1353 20.4709 48.3113 20.4709 48.502V52H19.9099C19.8146 52 19.7192 52 19.6239 52C19.5286 52 19.4332 52 19.3379 52ZM29.2489 52V44.3H30.4369V52H29.2489ZM29.7769 48.722V47.578H33.7479V48.722H29.7769ZM29.7769 45.444V44.3H34.2429V45.444H29.7769ZM38.114 52.11C37.52 52.11 36.992 51.9853 36.53 51.736C36.0753 51.4793 35.716 51.131 35.452 50.691C35.1953 50.251 35.067 49.745 35.067 49.173C35.067 48.7183 35.1403 48.304 35.287 47.93C35.4336 47.556 35.6353 47.2333 35.892 46.962C36.156 46.6833 36.4676 46.4707 36.827 46.324C37.1936 46.17 37.5896 46.093 38.015 46.093C38.389 46.093 38.7373 46.1663 39.06 46.313C39.3826 46.4523 39.6613 46.6467 39.896 46.896C40.138 47.1453 40.3213 47.4423 40.446 47.787C40.578 48.1243 40.6403 48.4947 40.633 48.898L40.622 49.382H35.903L35.65 48.48H39.643L39.478 48.667V48.403C39.456 48.161 39.3753 47.9447 39.236 47.754C39.0966 47.5633 38.9206 47.413 38.708 47.303C38.4953 47.193 38.2643 47.138 38.015 47.138C37.619 47.138 37.2853 47.215 37.014 47.369C36.7426 47.5157 36.5373 47.7357 36.398 48.029C36.2586 48.315 36.189 48.6707 36.189 49.096C36.189 49.4993 36.2733 49.8513 36.442 50.152C36.6106 50.4453 36.849 50.6727 37.157 50.834C37.465 50.9953 37.8206 51.076 38.224 51.076C38.51 51.076 38.774 51.0283 39.016 50.933C39.2653 50.8377 39.533 50.6653 39.819 50.416L40.391 51.219C40.215 51.395 39.9986 51.549 39.742 51.681C39.4926 51.813 39.225 51.9193 38.939 52C38.6603 52.0733 38.3853 52.11 38.114 52.11ZM41.8863 52V43.86H43.0193V52H41.8863ZM44.812 52V46.225H45.945V52H44.812ZM45.362 44.949C45.12 44.949 44.933 44.8867 44.801 44.762C44.669 44.6373 44.603 44.4613 44.603 44.234C44.603 44.0213 44.669 43.849 44.801 43.717C44.9403 43.585 45.1273 43.519 45.362 43.519C45.604 43.519 45.791 43.5813 45.923 43.706C46.055 43.8307 46.121 44.0067 46.121 44.234C46.121 44.4467 46.0513 44.619 45.912 44.751C45.78 44.883 45.5967 44.949 45.362 44.949ZM47.6865 54.42V46.225H48.8305V47.545L48.6545 47.446C48.6985 47.226 48.8232 47.017 49.0285 46.819C49.2339 46.6137 49.4832 46.4487 49.7765 46.324C50.0772 46.192 50.3852 46.126 50.7005 46.126C51.2212 46.126 51.6832 46.2543 52.0865 46.511C52.4899 46.7677 52.8089 47.1197 53.0435 47.567C53.2782 48.0143 53.3955 48.5277 53.3955 49.107C53.3955 49.679 53.2782 50.1923 53.0435 50.647C52.8162 51.0943 52.5009 51.45 52.0975 51.714C51.6942 51.9707 51.2395 52.099 50.7335 52.099C50.3962 52.099 50.0699 52.033 49.7545 51.901C49.4392 51.7617 49.1715 51.5857 48.9515 51.373C48.7315 51.1603 48.5959 50.9403 48.5445 50.713L48.8305 50.559V54.42H47.6865ZM50.5465 51.054C50.8839 51.054 51.1845 50.9697 51.4485 50.801C51.7125 50.6323 51.9215 50.4013 52.0755 50.108C52.2295 49.8147 52.3065 49.481 52.3065 49.107C52.3065 48.733 52.2295 48.403 52.0755 48.117C51.9289 47.8237 51.7235 47.5927 51.4595 47.424C51.1955 47.2553 50.8912 47.171 50.5465 47.171C50.2019 47.171 49.8975 47.2553 49.6335 47.424C49.3695 47.5853 49.1605 47.8127 49.0065 48.106C48.8525 48.3993 48.7755 48.733 48.7755 49.107C48.7755 49.481 48.8525 49.8147 49.0065 50.108C49.1605 50.4013 49.3695 50.6323 49.6335 50.801C49.8975 50.9697 50.2019 51.054 50.5465 51.054ZM57.321 52.11C56.727 52.11 56.199 51.9853 55.737 51.736C55.2823 51.4793 54.923 51.131 54.659 50.691C54.4023 50.251 54.274 49.745 54.274 49.173C54.274 48.7183 54.3473 48.304 54.494 47.93C54.6407 47.556 54.8423 47.2333 55.099 46.962C55.363 46.6833 55.6747 46.4707 56.034 46.324C56.4007 46.17 56.7967 46.093 57.222 46.093C57.596 46.093 57.9443 46.1663 58.267 46.313C58.5897 46.4523 58.8683 46.6467 59.103 46.896C59.345 47.1453 59.5283 47.4423 59.653 47.787C59.785 48.1243 59.8473 48.4947 59.84 48.898L59.829 49.382H55.11L54.857 48.48H58.85L58.685 48.667V48.403C58.663 48.161 58.5823 47.9447 58.443 47.754C58.3037 47.5633 58.1277 47.413 57.915 47.303C57.7023 47.193 57.4713 47.138 57.222 47.138C56.826 47.138 56.4923 47.215 56.221 47.369C55.9497 47.5157 55.7443 47.7357 55.605 48.029C55.4657 48.315 55.396 48.6707 55.396 49.096C55.396 49.4993 55.4803 49.8513 55.649 50.152C55.8177 50.4453 56.056 50.6727 56.364 50.834C56.672 50.9953 57.0277 51.076 57.431 51.076C57.717 51.076 57.981 51.0283 58.223 50.933C58.4723 50.8377 58.74 50.6653 59.026 50.416L59.598 51.219C59.422 51.395 59.2057 51.549 58.949 51.681C58.6997 51.813 58.432 51.9193 58.146 52C57.8673 52.0733 57.5923 52.11 57.321 52.11Z" fill="black"/>
<path d="M16 24.5C22.5 26.5 28.5 26.5 35 24.5C28.5 21.5 22.5 21.5 16 24.5Z" fill="#949494"/>
<path d="M16 24.5L19 17C24 15.5 27 15.5 32 17L35 24.5C28.5 21.5 22.5 21.5 16 24.5Z" fill="#B0B0B0"/>
<path d="M19.001 16.726C19.0678 7.48065 22.5194 6.49515 24.5 6L24.9621 4.15149C24.9844 4.06246 25.0644 4 25.1562 4H25.8438C25.9356 4 26.0156 4.06246 26.0379 4.15149L26.5 6C28.4806 6.49515 31.9322 7.48065 31.999 16.726C32 16.8599 31.8693 16.9608 31.7407 16.923C26.9808 15.5257 24.0192 15.5257 19.2593 16.923C19.1307 16.9608 19 16.8599 19.001 16.726Z" fill="#D1D1D1"/>
<path d="M19 17L16.0806 24.2984C16.0372 24.407 16.0964 24.5297 16.2083 24.5635C22.559 26.4788 28.441 26.4788 34.7917 24.5635C34.9036 24.5297 34.9628 24.407 34.9194 24.2984L32 17M19 17C19 7.53695 22.4728 6.50791 24.4766 6.00586C24.4925 6.00188 24.5083 6 24.5246 6H26.4754C26.4917 6 26.5075 6.00188 26.5234 6.00586C28.5272 6.50791 32 7.53695 32 17M19 17C24 15.5 27 15.5 32 17" stroke="#484848"/>
<path d="M25.3536 25H25.5H25.6464C25.8728 25 26.0899 25.0899 26.25 25.25C26.4101 25.4101 26.5 25.6272 26.5 25.8536V27.1464C26.5 27.3728 26.4101 27.5899 26.25 27.75C26.0899 27.9101 25.8728 28 25.6464 28H25.3536C25.1272 28 24.9101 27.9101 24.75 27.75C24.5899 27.5899 24.5 27.3728 24.5 27.1464V25.8536C24.5 25.6272 24.5899 25.4101 24.75 25.25C24.9101 25.0899 25.1272 25 25.3536 25Z" fill="black"/>
<path d="M25.5 22.25V25M25.5 25H25.3536C25.1272 25 24.9101 25.0899 24.75 25.25V25.25C24.5899 25.4101 24.5 25.6272 24.5 25.8536V27.1464C24.5 27.3728 24.5899 27.5899 24.75 27.75V27.75C24.9101 27.9101 25.1272 28 25.3536 28H25.6464C25.8728 28 26.0899 27.9101 26.25 27.75V27.75C26.4101 27.5899 26.5 27.3728 26.5 27.1464V25.8536C26.5 25.6272 26.4101 25.4101 26.25 25.25V25.25C26.0899 25.0899 25.8728 25 25.6464 25H25.5Z" stroke="#010101"/>
<path d="M19 17L16.1865 24.0336C16.1194 24.2016 16.2932 24.366 16.4586 24.2929C22.6304 21.569 28.3696 21.569 34.5414 24.2929C34.7068 24.366 34.8806 24.2016 34.8135 24.0336L32 17M19 17C19 7.5 22.5 6.5 24.5 6M19 17C24 15.5 27 15.5 32 17M32 17C32 7.5 28.5 6.5 26.5 6M26.5 6H24.5M26.5 6L26.0379 4.15149C26.0156 4.06246 25.9356 4 25.8438 4H25.1562C25.0644 4 24.9844 4.06246 24.9621 4.15149L24.5 6" stroke="#484848"/>
</svg>
